<?xml version="1.0" encoding="utf-8"?>
<!-- Generator: Adobe Illustrator 25.4.8, SVG Export Plug-In . SVG Version: 6.00 Build 0)  -->
<!DOCTYPE svg PUBLIC "-//W3C//DTD SVG 1.1//EN" "http://www.w3.org/Graphics/SVG/1.1/DTD/svg11.dtd" [
	<!ENTITY ns_extend "http://ns.adobe.com/Extensibility/1.0/">
	<!ENTITY ns_ai "http://ns.adobe.com/AdobeIllustrator/10.0/">
	<!ENTITY ns_graphs "http://ns.adobe.com/Graphs/1.0/">
	<!ENTITY ns_vars "http://ns.adobe.com/Variables/1.0/">
	<!ENTITY ns_imrep "http://ns.adobe.com/ImageReplacement/1.0/">
	<!ENTITY ns_sfw "http://ns.adobe.com/SaveForWeb/1.0/">
	<!ENTITY ns_custom "http://ns.adobe.com/GenericCustomNamespace/1.0/">
	<!ENTITY ns_adobe_xpath "http://ns.adobe.com/XPath/1.0/">
]>
<svg version="1.1" id="bottom_banner" xmlns:x="&ns_extend;" xmlns:i="&ns_ai;" xmlns:graph="&ns_graphs;"
	 xmlns="http://www.w3.org/2000/svg" xmlns:xlink="http://www.w3.org/1999/xlink" x="0px" y="0px" width="1920px" height="193px"
	 viewBox="0 0 1920 193" style="enable-background:new 0 0 1920 193;" xml:space="preserve">
<style type="text/css">
	.st0{clip-path:url(#SVGID_00000121238290787876854610000012024890315620590524_);}
	.st1{fill:url(#路径_16100_00000024682995971306237790000013938040183029065859_);}
	.st2{fill:#FFFFFF;}
	.st3{clip-path:url(#路径_16116_00000176757656988354021050000012282706584602407093_);}
	.st4{opacity:0.1;}
	.st5{fill:#7D4800;}
</style>
<metadata>
	<sfw  xmlns="&ns_sfw;">
		<slices></slices>
		<sliceSourceBounds  bottomLeftOrigin="true" height="340.1" width="1977" x="-24.7" y="-75.6"></sliceSourceBounds>
	</sfw>
</metadata>
<g>
	<defs>
		<rect id="SVGID_1_" width="1920" height="193"/>
	</defs>
	<clipPath id="SVGID_00000104696649108927129260000010177596442677205687_">
		<use xlink:href="#SVGID_1_"  style="overflow:visible;"/>
	</clipPath>
	<g id="组_328" style="clip-path:url(#SVGID_00000104696649108927129260000010177596442677205687_);">
		<g id="组_327" transform="translate(0 -5.14)">
			
				<linearGradient id="路径_16100_00000070091029495177528900000009128367746597154230_" gradientUnits="userSpaceOnUse" x1="2.205846e-02" y1="643.3903" x2="0.8921" y2="643.5463" gradientTransform="matrix(-1922.9899 32.6908 4.099 241.116 -698.611 -155032.1406)">
				<stop  offset="0" style="stop-color:#AB7927"/>
				<stop  offset="0.192" style="stop-color:#FEDB6B"/>
				<stop  offset="0.36" style="stop-color:#F5D065"/>
				<stop  offset="0.499" style="stop-color:#CBA04A"/>
				<stop  offset="0.6" style="stop-color:#B1823A"/>
				<stop  offset="0.66" style="stop-color:#A87734"/>
				<stop  offset="0.75" style="stop-color:#A2722F"/>
				<stop  offset="1" style="stop-color:#D69C47"/>
			</linearGradient>
			<path id="路径_16100" style="fill:url(#路径_16100_00000070091029495177528900000009128367746597154230_);" d="M1932.4,174.7
				L1925.8,0c-45.4,30.6-102,58.9-172.9,82.5c-166.5,55.4-388.2,76.7-594.3,81.6c-248.9,6-489.8-8.3-718.7-31.4
				c-79-8-158.3-17.1-243.7-16.5c-63.5,0.5-132.2,7.2-188,21.6l5.7,135.8L1932.4,174.7z"/>
			<path id="路径_16116" class="st2" d="M188.6,101.1c85.3,3.8,164,14.6,242.6,24.5c227.6,28.7,467.5,51.5,716.2,59.4
				c205.9,6.5,428.1,1.6,596.7-31.7c71.8-14.2,129.5-32.6,176-53.3v110.3H0V107.9c39.6-5.6,85.5-8.1,131.3-8.1
				C150.5,99.8,169.8,100.3,188.6,101.1z"/>
		</g>
	</g>
</g>
<g>
	<defs>
		<rect id="SVGID_00000041978481113373436260000005908954126835703481_" x="-24.7" y="-71.5" width="299" height="251"/>
	</defs>
	<clipPath id="SVGID_00000003803109219302056620000018090092149127698074_">
		<use xlink:href="#SVGID_00000041978481113373436260000005908954126835703481_"  style="overflow:visible;"/>
	</clipPath>
</g>
<g>
	<defs>
		<path id="路径_16116_00000158007358236073914330000015100742571722198957_" d="M188.6,95.9c85.3,3.8,164,14.6,242.6,24.5
			c227.6,28.7,467.5,51.5,716.2,59.3c205.9,6.5,428.1,1.6,596.7-31.7c71.8-14.2,129.5-32.6,176-53.3V205H0V102.8
			c39.6-5.6,85.5-8.1,131.3-8.1C150.5,94.7,169.8,95.1,188.6,95.9z"/>
	</defs>
	<clipPath id="路径_16116_00000130610037840964472800000012719838017532515768_">
		<use xlink:href="#路径_16116_00000158007358236073914330000015100742571722198957_"  style="overflow:visible;"/>
	</clipPath>
	
		<g id="main_bg" transform="translate(-23 -311)" style="clip-path:url(#路径_16116_00000130610037840964472800000012719838017532515768_);">
		<g id="main_bg-2" transform="translate(17.087 301.519)" class="st4">
			<g id="组_183-12">
				<path id="路径_15877-12" class="st5" d="M265.5,80.6L265.5,80.6l-14.7-25.6L236,80.6h0c-4.3,8.1-1.2,18.2,6.9,22.6
					c8.1,4.3,18.2,1.2,22.6-6.9C268.1,91.4,268.1,85.5,265.5,80.6L265.5,80.6z M250.4,101.3c-6.8,0-12.2-5.5-12.2-12.2
					c0-1,0.8-1.8,1.8-1.8c1,0,1.7,0.8,1.8,1.8c0,4.8,3.9,8.6,8.7,8.7c1,0.1,1.7,0.9,1.7,1.9C252,100.6,251.3,101.3,250.4,101.3z"/>
				<path id="路径_15878-12" class="st5" d="M279.3,66.3L279.3,66.3l-7-12.2l-7,12.2h0c-2.1,3.9-0.6,8.7,3.3,10.8
					c3.9,2.1,8.7,0.6,10.8-3.3C280.6,71.5,280.6,68.7,279.3,66.3z M272.1,76.2c-3.2,0-5.8-2.6-5.8-5.8c0-0.5,0.4-0.9,0.9-0.9
					c0.5,0,0.9,0.4,0.9,0.9l0,0c0,2.3,1.9,4.1,4.1,4.1c0.5,0,0.9,0.4,0.9,0.9S272.6,76.2,272.1,76.2L272.1,76.2z"/>
			</g>
			<path id="路径_15872-12" class="st5" d="M189.7,189h-5.1c-0.1,0-0.1-0.1-0.2-0.1c-0.9-0.1-1.8-0.2-2.6-0.4
				c-2.7-0.4-5.3-1.3-7.7-2.5c-2.3-1.1-4.4-2.5-6.3-4.2c-1.8-1.6-3.5-3.4-4.9-5.4c-1.5-2.1-2.7-4.3-3.5-6.7
				c-0.8-2.1-1.3-4.2-1.6-6.4c-0.1-0.5-0.1-0.9-0.2-1.4v-5.1c0-0.1,0.1-0.1,0.1-0.2c0.1-0.9,0.2-1.8,0.4-2.6
				c0.4-2.7,1.3-5.3,2.5-7.7c1.1-2.3,2.5-4.4,4.2-6.3c1.6-1.8,3.4-3.5,5.4-4.9c2.1-1.5,4.3-2.7,6.7-3.5c2.1-0.8,4.2-1.3,6.4-1.6
				c0.5-0.1,0.9-0.2,1.4-0.2h5.1c0.1,0,0.1,0.1,0.2,0.1c0.9,0.1,1.8,0.2,2.6,0.4c2.7,0.4,5.3,1.3,7.7,2.5c2.3,1.1,4.4,2.5,6.3,4.2
				c1.8,1.6,3.5,3.4,4.9,5.4c1.5,2.1,2.7,4.3,3.5,6.7c0.8,2.1,1.3,4.2,1.6,6.4c0.1,0.5,0.2,0.9,0.2,1.4v5.1c0,0.1-0.1,0.1-0.1,0.2
				c-0.1,0.9-0.2,1.8-0.4,2.6c-0.4,2.7-1.3,5.3-2.5,7.7c-1.1,2.3-2.5,4.4-4.2,6.3c-1.6,1.8-3.4,3.5-5.4,4.9
				c-2.1,1.5-4.3,2.7-6.7,3.5c-2.1,0.8-4.2,1.3-6.4,1.6C190.6,188.8,190.2,188.9,189.7,189z M189.8,177.6l0.2,0.1
				c1.2-1.3,2.5-2.6,3.6-3.9c1.4-1.6,2.4-3.4,3.2-5.4c1.2-2.9,1.6-6.1,1.3-9.2c-0.1-1.6-0.5-3.3-1-4.8c-1-2.9-2.5-5.6-4.7-7.8
				c-1.6-1.7-3.3-3.3-5-5c-0.1-0.1-0.2-0.2-0.3-0.3c-1.4,1.4-2.8,2.8-4.2,4.2c-2.1,2-3.8,4.3-4.9,6.9c-1.1,2.4-1.7,5-1.8,7.7
				c0,1.5,0.1,2.9,0.3,4.4c0.4,2.8,1.4,5.4,3,7.7c0.8,1.1,1.7,2.3,2.6,3.3c0.7,0.8,1.5,1.5,2.2,2.3l0.1-0.1v-11.9h5.3L189.8,177.6z"
				/>
			<path id="路径_15980-12" class="st5" d="M55.9,2.5c1.4,0.4,2.3,2,1.8,3.4l0,0.1L56,11l2.8,3.8l1.1-0.8l1.6,2.2l1.3-0.9l3.3,4.5
				c0,0,1.3,11.5,1.8,12.1c1.9,2.6,1.1,6.4-1.9,8.6c-2.9,2.1-6.8,1.7-8.7-0.9c-0.5-0.6-11-5.4-11-5.4l-3.3-4.5l1.3-0.9l-1.6-2.2
				l1.1-0.8l-1.8-2.4l-0.1,0.2c-0.5,1.5-2.1,2.2-3.6,1.7c-1.4-0.5-2.2-2-1.7-3.5c0,0,0-0.1,0-0.1L46.4-5c0.5-1.5,2.1-2.2,3.6-1.7
				c1.4,0.5,2.2,2,1.7,3.5c0,0,0,0,0,0l0,0l0,0.1l-7.8,21.7l3.4,4.7l1.1-0.8l1.6,2.2l6-4.3L54.4,18l1.1-0.8L53,13.9
				c-0.3,0-0.6,0-0.9-0.1c-1.4-0.4-2.2-2-1.8-3.4c0,0,0-0.1,0-0.1l2-6C52.8,2.8,54.4,2,55.9,2.5z M39.4-13.7L30,12.1
				c-0.5,1.4,0.2,3,1.6,3.5c0,0,0,0,0,0l0.1,0c1.5,0.5,3.1-0.3,3.6-1.7l9.4-25.8c0.5-1.4-0.2-3-1.6-3.5l-0.1,0
				C41.6-16,40-15.2,39.4-13.7L39.4-13.7z M27.8,6.6c0.5-0.3,0.8-0.8,1-1.3l9.3-25c0.5-1.4-0.2-3-1.6-3.5c0,0,0,0,0,0l0,0
				c0,0,0,0-0.1,0c-1.5-0.5-3.1,0.3-3.6,1.7l-9.3,25c-0.5,1.4,0.2,3,1.6,3.5l0.1,0C26.1,7.3,27,7.1,27.8,6.6z M21.8-1.5
				c0.5-0.3,0.8-0.8,1-1.3l3.8-10.6c0.5-1.4-0.2-3-1.6-3.5c0,0,0,0,0,0l0,0l-0.1,0c-1.5-0.5-3.1,0.3-3.6,1.8L17.5-4.7
				c-0.5,1.4,0.2,3,1.6,3.5l0,0l0.1,0C20.1-0.8,21-1,21.8-1.5L21.8-1.5z"/>
			<path id="路径_15981-12" class="st5" d="M104.7,80c1.4-1.4,2.6-3,3.8-4.6l-1.8,36.2c0,0.2,0.1,0.4,0.2,0.6
				c0.1,0.2,0.4,0.2,0.6,0.2h6.1c0.4,0,0.8-0.3,0.8-0.8c0,0,0,0,0,0v0c0-0.1,0-0.1,0-0.2l-1.8-36.8c0-0.2-0.1-0.4-0.2-0.5l-0.9-0.9
				c0.3-0.1,0.6-0.3,0.9-0.6c0.1-0.1,0.1-0.1,0.1-0.2c0,0,0.1,0,0.1,0.1c2.6,1.2,5.3,2.2,8.1,2.9c3.1,0.7,6.3,1.1,9.5,1.1
				c1.1,0,1.7,0,1.7,0c0.4,0,0.8-0.4,0.7-0.9c0-0.3-0.2-0.5-0.4-0.6c-3.3-1.9-6.8-3.3-10.5-4.2c-2.8-0.7-5.7-1.1-8.7-1.1
				c-0.1,0-0.2,0-0.2,0c-0.1-0.3-0.3-0.6-0.6-0.9c-0.3-0.3-0.6-0.5-1-0.6c0-0.1,0-0.1,0-0.2c0-0.1,0-0.1,0-0.2
				c-0.2-2.8-0.7-5.6-1.5-8.3c-1.1-3.6-2.6-7.1-4.7-10.3c-0.3-0.4-0.7-0.5-1.1-0.2c-0.2,0.1-0.3,0.4-0.3,0.6c0,3.8,0.5,7.5,1.6,11.2
				c0.8,2.7,1.9,5.4,3.3,7.9c0,0,0,0.1,0.1,0.1c0,0,0,0-0.1,0c-0.6,0.6-0.9,1.6-0.7,2.4c-0.1,0-0.1,0-0.2,0.1
				c-2.3,1.6-4.4,3.3-6.3,5.3c-2.6,2.7-4.8,5.8-6.6,9.2c-0.2,0.4,0,0.9,0.4,1.1c0.1,0.1,0.2,0.1,0.3,0.1c0.1,0,0.3,0,0.4-0.1
				C99,85.1,102,82.8,104.7,80z M113.8,71.3c2.5,0.1,5.1,0.5,7.5,1.1c2.5,0.6,4.9,1.5,7.2,2.6c-2.6-0.1-5.1-0.5-7.6-1
				C118.4,73.2,116.1,72.4,113.8,71.3L113.8,71.3z M112.7,110.9h-4.4l1.8-35.9l0.4-0.4l0.5,0.5L112.7,110.9z M111.1,71.5
				c-0.4,0.4-1.1,0.4-1.5,0c-0.4-0.4-0.4-1.1,0-1.5c0.4-0.4,1.1-0.4,1.5,0C111.5,70.4,111.5,71.1,111.1,71.5L111.1,71.5L111.1,71.5z
				 M106.6,60.5c-0.7-2.5-1.2-5-1.4-7.5c2.4,4.5,3.8,9.4,4.2,14.4l-0.1,0C108.3,65.2,107.3,62.9,106.6,60.5L106.6,60.5z M97.7,83.9
				c2.6-4.2,6-7.8,10.1-10.7c0,0,0.1,0.1,0.1,0.1l0,0C105.2,77.5,101.7,81.1,97.7,83.9z M152.2,85.1c-2.4-1.4-4.9-2.4-7.6-3.1
				c-2.1-0.5-4.2-0.8-6.3-0.8c0,0,0,0-0.1,0c-0.1-0.2-0.2-0.4-0.4-0.5c-0.2-0.2-0.4-0.3-0.6-0.4c0-0.1,0-0.1,0-0.2
				c-0.1-2-0.5-4-1.1-5.9c-0.8-2.6-1.9-5.1-3.4-7.5c-0.3-0.4-0.7-0.5-1.1-0.2c-0.2,0.1-0.3,0.4-0.3,0.6c0,2.7,0.4,5.5,1.1,8.1
				c0.6,2,1.4,3.8,2.3,5.6c-0.3,0.4-0.5,0.9-0.5,1.4c0,0.1,0,0.2,0,0.2l0,0c-1.6,1.1-3.2,2.4-4.5,3.8c-1.9,2-3.5,4.2-4.8,6.7
				c-0.2,0.4,0,0.9,0.4,1.1c0.2,0.1,0.5,0.1,0.7,0c3.4-1.9,6.4-4.6,8.8-7.8l-1.2,25.1c0,0.4,0.3,0.8,0.8,0.8h4.4
				c0.4,0,0.8-0.4,0.8-0.8c0-0.1,0-0.1,0-0.2l-1.3-26.2c0-0.2-0.1-0.4-0.2-0.5l-0.4-0.4c0.2-0.1,0.3-0.2,0.4-0.3l0,0
				c1.8,0.9,3.8,1.6,5.7,2.1c2.3,0.5,4.6,0.8,6.9,0.8c0.8,0,1.2,0,1.2,0c0.4,0,0.8-0.4,0.7-0.9C152.6,85.5,152.4,85.3,152.2,85.1
				L152.2,85.1z M131.3,88c-1,1-2,1.9-3.2,2.8c1.6-2.3,3.6-4.4,5.8-6.1C133.2,85.9,132.3,87,131.3,88L131.3,88z M135.8,82.3
				c0-0.3,0.2-0.6,0.6-0.6c0,0,0,0,0,0h0c0.3,0,0.6,0.3,0.6,0.6c0,0.1-0.1,0.3-0.2,0.4c-0.2,0.2-0.6,0.2-0.8,0
				C135.9,82.6,135.8,82.4,135.8,82.3L135.8,82.3z M133.1,70.7c0.6,1.3,1.1,2.6,1.5,3.9c0.4,1.4,0.7,2.7,0.8,4.1
				C134.2,76.2,133.4,73.5,133.1,70.7L133.1,70.7z M135.2,110.7l1.3-25.3l0.1-0.1l0.1,0.1l1.3,25.2L135.2,110.7z M144.1,84.3
				c-1.4-0.3-2.7-0.8-4.1-1.3c2.8,0.2,5.6,0.9,8.2,2C146.8,84.8,145.4,84.6,144.1,84.3L144.1,84.3z"/>
			<path id="路径_15982-12" class="st5" d="M74.1,136.9c-0.1-0.5-0.5-0.9-1-0.9H30c-0.5,0-0.9,0.4-1,0.9l-5.3,34.5
				c-0.1,0.6,0.3,1.1,0.9,1.2c0,0,0,0,0,0l0,0c0.1,0,0.1,0,0.2,0h19.8l-3.7,10.2h-6c-0.6,0-1,0.5-1,1v4c0,0.6,0.5,1,1,1h34.9
				c0.6,0,1-0.5,1-1v-4c0-0.6-0.5-1-1-1h-7.8L58,172.6h19.5c0,0,0,0,0,0c0.6,0,1-0.5,1-1l0,0l0,0c0-0.1,0-0.2-0.1-0.3L74.1,136.9z
				 M28.2,155.4H36l-0.7,6.5h-8.1L28.2,155.4z M29.5,146.9h7.4l-0.7,6.5h-7.7L29.5,146.9z M74.1,153.4h-7.6l-0.5-6.5h7.3L74.1,153.4
				z M64.5,153.4H57l-0.2-6.5H64L64.5,153.4z M47.9,153.4l0.3-6.5h6.5l0.2,6.5H47.9z M54.9,155.4l0.2,6.5h-7.7l0.3-6.5H54.9z
				 M56.7,144.8l-0.2-6.7c0,0,0,0,0,0h6.7c0,0,0,0.1,0,0.1l0.5,6.6L56.7,144.8z M54.7,144.8h-6.3l0.4-6.6c0,0,0-0.1,0-0.1h5.8
				c0,0,0,0.1,0,0.1L54.7,144.8z M46.6,138.1l-0.4,6.7h-7l0.7-6.6c0-0.1,0-0.1,0-0.2L46.6,138.1L46.6,138.1z M46.1,146.9l-0.3,6.5
				h-7.5l0.7-6.5H46.1z M38.1,155.4h7.6l-0.3,6.5h-8L38.1,155.4z M45.2,164l-0.3,6.5h-8.4l0.7-6.5H45.2z M47.3,164h7.9l0.2,6.5h-8.4
				L47.3,164z M57.2,164h8.1l0.5,6.5h-8.4L57.2,164z M57.2,161.9l-0.2-6.5h7.6l0.5,6.5H57.2z M66.7,155.4h7.7l0.8,6.5h-8L66.7,155.4
				z M73,144.8h-7.2l-0.5-6.7h6.8L73,144.8z M30.8,138.1h7l-0.7,6.7h-7.3L30.8,138.1z M26.8,164h8.2l-0.7,6.5h-8.5L26.8,164z
				 M68.5,186.8H35.7v-2h32.8V186.8z M42.9,182.8l3.7-10.2h9.2l3.7,10.2H42.9z M67.9,170.5l-0.5-6.5h8.1l0.8,6.5H67.9z"/>
			<path id="路径_15983-12" class="st5" d="M202.7,33.4H198v-8.3h4.7L202.7,33.4z M224.6,25.1v8.3h-2.9v5.4h-29.1v-11
				c-14.2,5.8-30.3-1-36.1-15.2c-5.8-14.2,1-30.3,15.2-36.1s30.3,1,36.1,15.2c3.8,9.4,2.2,20.1-4.2,28h18.1v5.4L224.6,25.1z
				 M199.8,3.5c0,0.2,0.1,0.4,0.2,0.5l2.8,2.2c0.1,0.1,0.3,0.2,0.5,0.1l3-0.5c0.1,0,0.3,0,0.4,0.1l0,0c0.7-4.8,0-9.7-2-14.1
				c-0.2-0.1-0.4-0.1-0.6,0L203-7.5c-0.2,0.1-0.3,0.3-0.3,0.5v2.6c0,0.1,0,0.2-0.1,0.3l-2.6,4.7c-0.1,0.1-0.1,0.2-0.1,0.3L199.8,3.5
				z M183.9-22.6l0.2,0.3c0.1,0.1,0.1,0.2,0.2,0.2l2.5,1.6c0.2,0.1,0.3,0.3,0.4,0.5c0.2,0.6,0.6,1.8,0.6,2c0,0.2,1.2,2.1,1.6,2.7
				c0.1,0.1,0.2,0.2,0.3,0.3c0.4,0.3,1,0.1,1.3-0.3c0,0,0-0.1,0-0.1l0.9-1.8c0.1-0.2,0.2-0.3,0.4-0.4l2.5-1.2c0,0,0,0,0.1,0l0.1,0
				C191.7-21.1,187.9-22.3,183.9-22.6L183.9-22.6z M192.3,15.8l2.1-5.2c0.2-0.5,0-1.1-0.5-1.3c0,0,0,0,0,0l-4.6-1.6
				c-0.2-0.1-0.4-0.2-0.5-0.5l-0.4-0.7c-0.1-0.2-0.2-0.3-0.4-0.4l-3.4-2c-0.2-0.1-0.3-0.1-0.5-0.1h-2.9c-0.4,0-0.7,0.2-0.9,0.5
				l-0.2,0.4c-0.1,0-0.1,0-0.2,0c-0.2,0-0.4-0.1-0.6-0.3L177,1.5c-0.2-0.2-0.5-0.4-0.8-0.3l-0.7,0.2c-0.2,0.1-0.4,0-0.6-0.1l-1-0.7
				c-0.3-0.2-0.4-0.5-0.4-0.9l0.3-1.1c0.1-0.4,0.4-0.6,0.8-0.6h3.8c0.3,0,0.5-0.1,0.7-0.4l2.5-4c0.1-0.1,0.2-0.3,0.4-0.3l2.2-0.9
				c0.2-0.1,0.3-0.2,0.4-0.3l2-2.9c0.2-0.3,0.2-0.7-0.1-1l-2.2-2.5c-0.1-0.1-0.2-0.2-0.4-0.2l-3-1c-0.4-0.1-0.9,0.1-1,0.5
				c0,0,0,0,0,0l0,0c0,0,0,0,0,0.1l-0.5,2.3c-0.1,0.4-0.5,0.7-1,0.6c-0.1,0-0.1,0-0.2-0.1l-2.6-1.2c-0.1-0.1-0.3-0.2-0.4-0.3
				l-0.5-0.9c-0.2-0.4-0.1-0.8,0.2-1.1l3.3-2.7c0.2-0.2,0.3-0.5,0.3-0.7l-0.1-0.9l0.9-0.1c0.2,0,0.4,0,0.6,0.2l0.9,0.6
				c0.2,0.1,0.3,0.4,0.3,0.6v0.4c0,0.3,0.1,0.5,0.4,0.7l1.7,1c0.4,0.2,0.8,0.1,1.1-0.2c0-0.1,0.1-0.2,0.1-0.2l0.2-1
				c0.1-0.2,0-0.5-0.2-0.7l-3.2-3.6c-0.2-0.2-0.5-0.3-0.7-0.2l-0.8,0.2c0,0-0.1,0-0.1,0h-1.3c-6.6,1.1-12.5,4.8-16.4,10.4l2,2
				c0.1,0.1,0.2,0.3,0.2,0.5l0.2,3.1c0,0.2,0.1,0.3,0.2,0.5l6.3,7.2c0.1,0.1,0.2,0.1,0.2,0.2l5.5,2.8c0,0,0,0,0,0l1.6,0.7
				c0.2,0.1,0.3,0.2,0.4,0.4l0.5,1c0.1,0.1,0.2,0.3,0.3,0.4l-0.6,2.1c-0.1,0.2,0,0.5,0.1,0.7l1.3,2.7c0.1,0.2,0.2,0.3,0.4,0.4
				l1.1,0.7c0.3,0.2,0.5,0.6,0.5,1l-1.4,10.1c0,0.2,0,0.4,0.1,0.6l1.1,2.1h0.3c0.6,0,1.1,0,1.7-0.1c0-0.2-0.1-0.4-0.2-0.6l-0.5-0.7
				c-0.2-0.3-0.3-0.7-0.1-1.1l1.6-2.9c0.1-0.2,0.2-0.3,0.4-0.4l1.2-0.7c0.1-0.1,0.2-0.1,0.3-0.2l3-3.4c0.1-0.1,0.3-0.2,0.5-0.3
				l1.5-0.4C192,16.3,192.2,16.1,192.3,15.8L192.3,15.8z M218.9,22.4h-23.6v13.7h23.6L218.9,22.4z"/>
		</g>
	</g>
	
		<g id="main_bg_00000018956767174239596170000017042992980227493792_" transform="translate(-23 -311)" style="clip-path:url(#路径_16116_00000130610037840964472800000012719838017532515768_);">
		<g id="main_bg-2_00000048495987460265029880000009389207186642298808_" transform="translate(17.087 301.519)" class="st4">
			<g id="组_183-12_00000170257809149894631580000002811672924134868625_">
				<path id="路径_15877-12_00000060029722277594752010000006906635226485506987_" class="st5" d="M545.5,80.6L545.5,80.6
					l-14.7-25.6L516,80.6h0c-4.3,8.1-1.2,18.2,6.9,22.6c8.1,4.3,18.2,1.2,22.6-6.9C548.1,91.4,548.1,85.5,545.5,80.6L545.5,80.6z
					 M530.4,101.3c-6.8,0-12.2-5.5-12.2-12.2c0-1,0.8-1.8,1.8-1.8c1,0,1.7,0.8,1.8,1.8c0,4.8,3.9,8.6,8.7,8.7c1,0.1,1.7,0.9,1.7,1.9
					C532,100.6,531.3,101.3,530.4,101.3z"/>
				<path id="路径_15878-12_00000102503528097664239750000003467835189979274926_" class="st5" d="M559.3,66.3L559.3,66.3l-7-12.2
					l-7,12.2h0c-2.1,3.9-0.6,8.7,3.3,10.8c3.9,2.1,8.7,0.6,10.8-3.3C560.6,71.5,560.6,68.7,559.3,66.3z M552.1,76.2
					c-3.2,0-5.8-2.6-5.8-5.8c0-0.5,0.4-0.9,0.9-0.9s0.9,0.4,0.9,0.9l0,0c0,2.3,1.9,4.1,4.1,4.1c0.5,0,0.9,0.4,0.9,0.9
					S552.6,76.2,552.1,76.2L552.1,76.2z"/>
			</g>
			<path id="路径_15872-12_00000079478059827937090880000018376086018140132226_" class="st5" d="M469.7,189h-5.1
				c-0.1,0-0.1-0.1-0.2-0.1c-0.9-0.1-1.8-0.2-2.6-0.4c-2.7-0.4-5.3-1.3-7.7-2.5c-2.3-1.1-4.4-2.5-6.3-4.2c-1.8-1.6-3.5-3.4-4.9-5.4
				c-1.5-2.1-2.7-4.3-3.5-6.7c-0.8-2.1-1.3-4.2-1.6-6.4c0-0.5-0.1-0.9-0.2-1.4v-5.1c0-0.1,0.1-0.1,0.1-0.2c0.1-0.9,0.2-1.8,0.4-2.6
				c0.4-2.7,1.3-5.3,2.5-7.7c1.1-2.3,2.5-4.4,4.2-6.3c1.6-1.8,3.4-3.5,5.4-4.9c2.1-1.5,4.3-2.7,6.7-3.5c2.1-0.8,4.2-1.3,6.4-1.6
				c0.5-0.1,0.9-0.2,1.4-0.2h5.1c0.1,0,0.1,0.1,0.2,0.1c0.9,0.1,1.8,0.2,2.6,0.4c2.7,0.4,5.3,1.3,7.7,2.5c2.3,1.1,4.4,2.5,6.3,4.2
				c1.8,1.6,3.5,3.4,4.9,5.4c1.5,2.1,2.7,4.3,3.5,6.7c0.8,2.1,1.3,4.2,1.6,6.4c0.1,0.5,0.2,0.9,0.2,1.4v5.1c0,0.1-0.1,0.1-0.1,0.2
				c-0.1,0.9-0.2,1.8-0.4,2.6c-0.4,2.7-1.3,5.3-2.5,7.7c-1.1,2.3-2.5,4.4-4.2,6.3c-1.6,1.8-3.4,3.5-5.4,4.9
				c-2.1,1.5-4.3,2.7-6.7,3.5c-2.1,0.8-4.2,1.3-6.4,1.6C470.6,188.8,470.2,188.9,469.7,189z M469.8,177.6l0.2,0.1
				c1.2-1.3,2.5-2.6,3.6-3.9c1.4-1.6,2.4-3.4,3.2-5.4c1.2-2.9,1.6-6.1,1.3-9.2c-0.1-1.6-0.5-3.3-1-4.8c-1-2.9-2.5-5.6-4.7-7.8
				c-1.6-1.7-3.3-3.3-5-5c-0.1-0.1-0.2-0.2-0.3-0.3c-1.4,1.4-2.8,2.8-4.2,4.2c-2.1,2-3.8,4.3-4.9,6.9c-1.1,2.4-1.7,5-1.8,7.7
				c0,1.5,0.1,2.9,0.3,4.4c0.4,2.8,1.4,5.4,3,7.7c0.8,1.1,1.7,2.3,2.6,3.3c0.7,0.8,1.5,1.5,2.2,2.3l0.1-0.1v-11.9h5.3L469.8,177.6z"
				/>
			<path id="路径_15980-12_00000077284421339345770760000015383465331116754317_" class="st5" d="M335.9,2.5
				c1.4,0.4,2.3,2,1.8,3.4l0,0.1l-1.7,5l2.8,3.8l1.1-0.8l1.6,2.2l1.3-0.9l3.3,4.5c0,0,1.3,11.5,1.8,12.1c1.9,2.6,1.1,6.4-1.9,8.6
				c-2.9,2.1-6.8,1.7-8.7-0.9c-0.5-0.6-11-5.4-11-5.4l-3.3-4.5l1.3-0.9l-1.6-2.2l1.1-0.8l-1.8-2.4l-0.1,0.2
				c-0.5,1.5-2.1,2.2-3.6,1.7c-1.4-0.5-2.2-2-1.7-3.5c0,0,0-0.1,0-0.1L326.4-5c0.5-1.5,2.1-2.2,3.6-1.7c1.4,0.5,2.2,2,1.7,3.5
				c0,0,0,0,0,0l0,0l0,0.1l-7.8,21.7l3.4,4.7l1.1-0.8l1.6,2.2l6-4.3l-1.6-2.2l1.1-0.8l-2.4-3.3c-0.3,0-0.6,0-0.9-0.1
				c-1.4-0.4-2.2-2-1.8-3.4c0,0,0-0.1,0-0.1l2-6C332.8,2.8,334.4,2,335.9,2.5z M319.4-13.7L310,12.1c-0.5,1.4,0.2,3,1.6,3.5
				c0,0,0,0,0,0l0.1,0c1.5,0.5,3.1-0.3,3.6-1.7l9.4-25.8c0.5-1.4-0.2-3-1.6-3.5l-0.1,0C321.6-16,320-15.2,319.4-13.7L319.4-13.7z
				 M307.8,6.6c0.5-0.3,0.8-0.8,1-1.3l9.3-25c0.5-1.4-0.2-3-1.6-3.5c0,0,0,0,0,0l0,0c0,0,0,0-0.1,0c-1.5-0.5-3.1,0.3-3.6,1.7
				l-9.3,25c-0.5,1.4,0.2,3,1.6,3.5l0.1,0C306.1,7.3,307,7.1,307.8,6.6z M301.8-1.5c0.5-0.3,0.8-0.8,1-1.3l3.8-10.6
				c0.5-1.4-0.2-3-1.6-3.5c0,0,0,0,0,0l0,0l-0.1,0c-1.5-0.5-3.1,0.3-3.6,1.8l-3.8,10.6c-0.5,1.4,0.2,3,1.6,3.5l0,0l0.1,0
				C300.1-0.8,301-1,301.8-1.5L301.8-1.5z"/>
			<path id="路径_15981-12_00000059298239478111218660000007236912979844219300_" class="st5" d="M384.7,80c1.4-1.4,2.6-3,3.8-4.6
				l-1.8,36.2c0,0.2,0.1,0.4,0.2,0.6c0.1,0.2,0.4,0.2,0.6,0.2h6.1c0.4,0,0.8-0.3,0.8-0.8c0,0,0,0,0,0v0c0-0.1,0-0.1,0-0.2l-1.8-36.8
				c0-0.2-0.1-0.4-0.2-0.5l-0.9-0.9c0.3-0.1,0.6-0.3,0.9-0.6c0.1-0.1,0.1-0.1,0.1-0.2c0,0,0.1,0,0.1,0.1c2.6,1.2,5.3,2.2,8.1,2.9
				c3.1,0.7,6.3,1.1,9.5,1.1c1.1,0,1.7,0,1.7,0c0.4,0,0.8-0.4,0.7-0.9c0-0.3-0.2-0.5-0.4-0.6c-3.3-1.9-6.8-3.3-10.5-4.2
				c-2.8-0.7-5.7-1.1-8.7-1.1c-0.1,0-0.2,0-0.2,0c-0.1-0.3-0.3-0.6-0.6-0.9c-0.3-0.3-0.6-0.5-1-0.6c0-0.1,0-0.1,0-0.2
				c0-0.1,0-0.1,0-0.2c-0.2-2.8-0.7-5.6-1.5-8.3c-1.1-3.6-2.6-7.1-4.7-10.3c-0.3-0.4-0.7-0.5-1.1-0.2c-0.2,0.1-0.3,0.4-0.3,0.6
				c0,3.8,0.5,7.5,1.6,11.2c0.8,2.7,1.9,5.4,3.3,7.9c0,0,0,0.1,0.1,0.1c0,0,0,0-0.1,0c-0.6,0.6-0.9,1.6-0.7,2.4
				c-0.1,0-0.1,0-0.2,0.1c-2.3,1.6-4.4,3.3-6.3,5.3c-2.6,2.7-4.8,5.8-6.6,9.2c-0.2,0.4,0,0.9,0.4,1.1c0.1,0.1,0.2,0.1,0.3,0.1
				c0.1,0,0.3,0,0.4-0.1C379,85.1,382,82.8,384.7,80z M393.8,71.3c2.5,0.1,5.1,0.5,7.5,1.1c2.5,0.6,4.9,1.5,7.2,2.6
				c-2.6-0.1-5.1-0.5-7.6-1C398.4,73.2,396.1,72.4,393.8,71.3L393.8,71.3z M392.7,110.9h-4.4l1.8-35.9l0.4-0.4l0.5,0.5L392.7,110.9z
				 M391.1,71.5c-0.4,0.4-1.1,0.4-1.5,0c-0.4-0.4-0.4-1.1,0-1.5c0.4-0.4,1.1-0.4,1.5,0C391.5,70.4,391.5,71.1,391.1,71.5L391.1,71.5
				L391.1,71.5z M386.6,60.5c-0.7-2.5-1.2-5-1.4-7.5c2.4,4.5,3.8,9.4,4.2,14.4l-0.1,0C388.3,65.2,387.3,62.9,386.6,60.5L386.6,60.5z
				 M377.7,83.9c2.6-4.2,6-7.8,10.1-10.7c0,0,0.1,0.1,0.1,0.1l0,0C385.2,77.5,381.7,81.1,377.7,83.9z M432.2,85.1
				c-2.4-1.4-4.9-2.4-7.6-3.1c-2.1-0.5-4.2-0.8-6.3-0.8c0,0,0,0-0.1,0c-0.1-0.2-0.2-0.4-0.4-0.5c-0.2-0.2-0.4-0.3-0.6-0.4
				c0-0.1,0-0.1,0-0.2c-0.1-2-0.5-4-1.1-5.9c-0.8-2.6-1.9-5.1-3.4-7.5c-0.3-0.4-0.7-0.5-1.1-0.2c-0.2,0.1-0.3,0.4-0.3,0.6
				c0,2.7,0.4,5.5,1.1,8.1c0.6,2,1.4,3.8,2.3,5.6c-0.3,0.4-0.5,0.9-0.5,1.4c0,0.1,0,0.2,0,0.2l0,0c-1.6,1.1-3.2,2.4-4.5,3.8
				c-1.9,2-3.5,4.2-4.8,6.7c-0.2,0.4,0,0.9,0.4,1.1c0.2,0.1,0.5,0.1,0.7,0c3.4-1.9,6.4-4.6,8.8-7.8l-1.2,25.1c0,0.4,0.3,0.8,0.8,0.8
				h4.4c0.4,0,0.8-0.4,0.8-0.8c0-0.1,0-0.1,0-0.2l-1.3-26.2c0-0.2-0.1-0.4-0.2-0.5l-0.4-0.4c0.2-0.1,0.3-0.2,0.4-0.3l0,0
				c1.8,0.9,3.8,1.6,5.7,2.1c2.3,0.5,4.6,0.8,6.9,0.8c0.8,0,1.2,0,1.2,0c0.4,0,0.8-0.4,0.7-0.9C432.6,85.5,432.4,85.3,432.2,85.1
				L432.2,85.1z M411.3,88c-1,1-2,1.9-3.2,2.8c1.6-2.3,3.6-4.4,5.8-6.1C413.2,85.9,412.3,87,411.3,88L411.3,88z M415.8,82.3
				c0-0.3,0.2-0.6,0.6-0.6c0,0,0,0,0,0h0c0.3,0,0.6,0.3,0.6,0.6c0,0.1-0.1,0.3-0.2,0.4c-0.2,0.2-0.6,0.2-0.8,0
				C415.9,82.6,415.8,82.4,415.8,82.3L415.8,82.3z M413.1,70.7c0.6,1.3,1.1,2.6,1.5,3.9c0.4,1.4,0.7,2.7,0.8,4.1
				C414.2,76.2,413.4,73.5,413.1,70.7L413.1,70.7z M415.2,110.7l1.3-25.3l0.1-0.1l0.1,0.1l1.3,25.2L415.2,110.7z M424.1,84.3
				c-1.4-0.3-2.7-0.8-4.1-1.3c2.8,0.2,5.6,0.9,8.2,2C426.8,84.8,425.4,84.6,424.1,84.3L424.1,84.3z"/>
			<path id="路径_15982-12_00000124164122842605265400000010313230384622917823_" class="st5" d="M354.1,136.9
				c-0.1-0.5-0.5-0.9-1-0.9H310c-0.5,0-0.9,0.4-1,0.9l-5.3,34.5c-0.1,0.6,0.3,1.1,0.9,1.2c0,0,0,0,0,0l0,0c0.1,0,0.1,0,0.2,0h19.8
				l-3.7,10.2h-6c-0.6,0-1,0.5-1,1v4c0,0.6,0.5,1,1,1h34.9c0.6,0,1-0.5,1-1v-4c0-0.6-0.5-1-1-1h-7.8l-3.7-10.2h19.5c0,0,0,0,0,0
				c0.6,0,1-0.5,1-1l0,0l0,0c0-0.1,0-0.2-0.1-0.3L354.1,136.9z M308.2,155.4h7.8l-0.7,6.5h-8.1L308.2,155.4z M309.5,146.9h7.4
				l-0.7,6.5h-7.7L309.5,146.9z M354.1,153.4h-7.6l-0.5-6.5h7.3L354.1,153.4z M344.5,153.4H337l-0.2-6.5h7.2L344.5,153.4z
				 M327.9,153.4l0.3-6.5h6.5l0.2,6.5H327.9z M334.9,155.4l0.2,6.5h-7.7l0.3-6.5H334.9z M336.7,144.8l-0.2-6.7c0,0,0,0,0,0h6.7
				c0,0,0,0.1,0,0.1l0.5,6.6L336.7,144.8z M334.7,144.8h-6.3l0.4-6.6c0,0,0-0.1,0-0.1h5.8c0,0,0,0.1,0,0.1L334.7,144.8z
				 M326.6,138.1l-0.4,6.7h-7l0.7-6.6c0-0.1,0-0.1,0-0.2L326.6,138.1L326.6,138.1z M326.1,146.9l-0.3,6.5h-7.5l0.7-6.5H326.1z
				 M318.1,155.4h7.6l-0.3,6.5h-8L318.1,155.4z M325.2,164l-0.3,6.5h-8.4l0.7-6.5H325.2z M327.3,164h7.9l0.2,6.5h-8.4L327.3,164z
				 M337.2,164h8.1l0.5,6.5h-8.4L337.2,164z M337.2,161.9l-0.2-6.5h7.6l0.5,6.5H337.2z M346.7,155.4h7.7l0.8,6.5h-8L346.7,155.4z
				 M353,144.8h-7.2l-0.5-6.7h6.8L353,144.8z M310.8,138.1h7l-0.7,6.7h-7.3L310.8,138.1z M306.8,164h8.2l-0.7,6.5h-8.5L306.8,164z
				 M348.5,186.8h-32.8v-2h32.8V186.8z M322.9,182.8l3.7-10.2h9.2l3.7,10.2H322.9z M347.9,170.5l-0.5-6.5h8.1l0.8,6.5H347.9z"/>
			<path id="路径_15983-12_00000011717412489613657920000005336496177442698387_" class="st5" d="M482.7,33.4H478v-8.3h4.7
				L482.7,33.4z M504.6,25.1v8.3h-2.9v5.4h-29.1v-11c-14.2,5.8-30.3-1-36.1-15.2c-5.8-14.2,1-30.3,15.2-36.1s30.3,1,36.1,15.2
				c3.8,9.4,2.2,20.1-4.2,28h18.1v5.4L504.6,25.1z M479.8,3.5c0,0.2,0.1,0.4,0.2,0.5l2.8,2.2c0.1,0.1,0.3,0.2,0.5,0.1l3-0.5
				c0.1,0,0.3,0,0.4,0.1l0,0c0.7-4.8,0-9.7-2-14.1c-0.2-0.1-0.4-0.1-0.5,0L483-7.5c-0.2,0.1-0.3,0.3-0.3,0.5v2.6
				c0,0.1,0,0.2-0.1,0.3l-2.6,4.7c-0.1,0.1-0.1,0.2-0.1,0.3L479.8,3.5z M463.9-22.6l0.2,0.3c0.1,0.1,0.1,0.2,0.2,0.2l2.5,1.6
				c0.2,0.1,0.3,0.3,0.4,0.5c0.2,0.6,0.6,1.8,0.6,2c0,0.2,1.2,2.1,1.6,2.7c0.1,0.1,0.2,0.2,0.3,0.3c0.4,0.3,1,0.1,1.3-0.3
				c0,0,0-0.1,0-0.1l0.9-1.8c0.1-0.2,0.2-0.3,0.4-0.4l2.5-1.2c0,0,0,0,0.1,0l0.1,0C471.7-21.1,467.9-22.3,463.9-22.6L463.9-22.6z
				 M472.3,15.8l2.1-5.2c0.2-0.5,0-1.1-0.5-1.3c0,0,0,0,0,0l-4.6-1.6c-0.2-0.1-0.4-0.2-0.5-0.5l-0.4-0.7c-0.1-0.2-0.2-0.3-0.4-0.4
				l-3.4-2c-0.2-0.1-0.3-0.1-0.5-0.1h-2.9c-0.4,0-0.7,0.2-0.9,0.5l-0.2,0.4c-0.1,0-0.1,0-0.2,0c-0.2,0-0.4-0.1-0.6-0.3L457,1.5
				c-0.2-0.2-0.5-0.4-0.8-0.3l-0.7,0.2c-0.2,0.1-0.4,0-0.6-0.1l-1-0.7c-0.3-0.2-0.4-0.5-0.4-0.9l0.3-1.1c0.1-0.4,0.4-0.6,0.8-0.6
				h3.8c0.3,0,0.5-0.1,0.7-0.4l2.5-4c0.1-0.1,0.2-0.3,0.4-0.3l2.2-0.9c0.2-0.1,0.3-0.2,0.4-0.3l2-2.9c0.2-0.3,0.2-0.7-0.1-1
				l-2.2-2.5c-0.1-0.1-0.2-0.2-0.4-0.2l-3-1c-0.4-0.1-0.9,0.1-1,0.5c0,0,0,0,0,0l0,0c0,0,0,0,0,0.1l-0.5,2.3c-0.1,0.4-0.5,0.7-1,0.6
				c-0.1,0-0.1,0-0.2-0.1l-2.6-1.2c-0.1-0.1-0.3-0.2-0.4-0.3l-0.5-0.9c-0.2-0.4-0.1-0.8,0.2-1.1l3.3-2.7c0.2-0.2,0.3-0.5,0.3-0.7
				l-0.1-0.9l0.9-0.1c0.2,0,0.4,0,0.6,0.2l0.9,0.6c0.2,0.1,0.3,0.4,0.3,0.6v0.4c0,0.3,0.1,0.5,0.4,0.7l1.7,1
				c0.4,0.2,0.8,0.1,1.1-0.2c0-0.1,0.1-0.2,0.1-0.2l0.2-1c0.1-0.2,0-0.5-0.2-0.7l-3.2-3.6c-0.2-0.2-0.5-0.3-0.7-0.2l-0.8,0.2
				c0,0-0.1,0-0.1,0h-1.3c-6.6,1.1-12.5,4.8-16.4,10.4l2,2c0.1,0.1,0.2,0.3,0.2,0.5l0.2,3.1c0,0.2,0.1,0.3,0.2,0.5l6.3,7.2
				c0.1,0.1,0.2,0.1,0.2,0.2l5.5,2.8c0,0,0,0,0,0l1.6,0.7c0.2,0.1,0.3,0.2,0.4,0.4l0.5,1c0.1,0.1,0.2,0.3,0.3,0.4l-0.6,2.1
				c-0.1,0.2,0,0.5,0.1,0.7l1.3,2.7c0.1,0.2,0.2,0.3,0.4,0.4l1.1,0.7c0.3,0.2,0.5,0.6,0.5,1l-1.4,10.1c0,0.2,0,0.4,0.1,0.6l1,2.1
				h0.3c0.6,0,1.1,0,1.7-0.1c0-0.2-0.1-0.4-0.2-0.6l-0.5-0.7c-0.2-0.3-0.3-0.7-0.1-1.1l1.6-2.9c0.1-0.2,0.2-0.3,0.4-0.4l1.2-0.7
				c0.1-0.1,0.2-0.1,0.3-0.2l3-3.4c0.1-0.1,0.3-0.2,0.5-0.3l1.5-0.4C472,16.3,472.2,16.1,472.3,15.8L472.3,15.8z M498.9,22.4h-23.6
				v13.7h23.6L498.9,22.4z"/>
		</g>
	</g>
	
		<g id="main_bg_00000121281408887881704390000017426537604052273038_" transform="translate(-23 -311)" style="clip-path:url(#路径_16116_00000130610037840964472800000012719838017532515768_);">
		<g id="main_bg-2_00000072970116945795858230000018233834945578946435_" transform="translate(17.087 301.519)" class="st4">
			<g id="组_183-12_00000114763426074507847410000006938322168178902449_">
				<path id="路径_15877-12_00000016785495149847090730000006566957498789983141_" class="st5" d="M545.5,80.6L545.5,80.6
					l-14.7-25.6L516,80.6h0c-4.3,8.1-1.2,18.2,6.9,22.6c8.1,4.3,18.2,1.2,22.6-6.9C548.1,91.4,548.1,85.5,545.5,80.6L545.5,80.6z
					 M530.4,101.3c-6.8,0-12.2-5.5-12.2-12.2c0-1,0.8-1.8,1.8-1.8c1,0,1.7,0.8,1.8,1.8c0,4.8,3.9,8.6,8.7,8.7c1,0.1,1.7,0.9,1.7,1.9
					C532,100.6,531.3,101.3,530.4,101.3z"/>
				<path id="路径_15878-12_00000031925602619418600150000006251360430728466075_" class="st5" d="M559.3,66.3L559.3,66.3l-7-12.2
					l-7,12.2h0c-2.1,3.9-0.6,8.7,3.3,10.8c3.9,2.1,8.7,0.6,10.8-3.3C560.6,71.5,560.6,68.7,559.3,66.3z M552.1,76.2
					c-3.2,0-5.8-2.6-5.8-5.8c0-0.5,0.4-0.9,0.9-0.9s0.9,0.4,0.9,0.9l0,0c0,2.3,1.9,4.1,4.1,4.1c0.5,0,0.9,0.4,0.9,0.9
					S552.6,76.2,552.1,76.2L552.1,76.2z"/>
			</g>
			<path id="路径_15872-12_00000118364641230720128670000002615251158197458595_" class="st5" d="M469.7,189h-5.1
				c-0.1,0-0.1-0.1-0.2-0.1c-0.9-0.1-1.8-0.2-2.6-0.4c-2.7-0.4-5.3-1.3-7.7-2.5c-2.3-1.1-4.4-2.5-6.3-4.2c-1.8-1.6-3.5-3.4-4.9-5.4
				c-1.5-2.1-2.7-4.3-3.5-6.7c-0.8-2.1-1.3-4.2-1.6-6.4c0-0.5-0.1-0.9-0.2-1.4v-5.1c0-0.1,0.1-0.1,0.1-0.2c0.1-0.9,0.2-1.8,0.4-2.6
				c0.4-2.7,1.3-5.3,2.5-7.7c1.1-2.3,2.5-4.4,4.2-6.3c1.6-1.8,3.4-3.5,5.4-4.9c2.1-1.5,4.3-2.7,6.7-3.5c2.1-0.8,4.2-1.3,6.4-1.6
				c0.5-0.1,0.9-0.2,1.4-0.2h5.1c0.1,0,0.1,0.1,0.2,0.1c0.9,0.1,1.8,0.2,2.6,0.4c2.7,0.4,5.3,1.3,7.7,2.5c2.3,1.1,4.4,2.5,6.3,4.2
				c1.8,1.6,3.5,3.4,4.9,5.4c1.5,2.1,2.7,4.3,3.5,6.7c0.8,2.1,1.3,4.2,1.6,6.4c0.1,0.5,0.2,0.9,0.2,1.4v5.1c0,0.1-0.1,0.1-0.1,0.2
				c-0.1,0.9-0.2,1.8-0.4,2.6c-0.4,2.7-1.3,5.3-2.5,7.7c-1.1,2.3-2.5,4.4-4.2,6.3c-1.6,1.8-3.4,3.5-5.4,4.9
				c-2.1,1.5-4.3,2.7-6.7,3.5c-2.1,0.8-4.2,1.3-6.4,1.6C470.6,188.8,470.2,188.9,469.7,189z M469.8,177.6l0.2,0.1
				c1.2-1.3,2.5-2.6,3.6-3.9c1.4-1.6,2.4-3.4,3.2-5.4c1.2-2.9,1.6-6.1,1.3-9.2c-0.1-1.6-0.5-3.3-1-4.8c-1-2.9-2.5-5.6-4.7-7.8
				c-1.6-1.7-3.3-3.3-5-5c-0.1-0.1-0.2-0.2-0.3-0.3c-1.4,1.4-2.8,2.8-4.2,4.2c-2.1,2-3.8,4.3-4.9,6.9c-1.1,2.4-1.7,5-1.8,7.7
				c0,1.5,0.1,2.9,0.3,4.4c0.4,2.8,1.4,5.4,3,7.7c0.8,1.1,1.7,2.3,2.6,3.3c0.7,0.8,1.5,1.5,2.2,2.3l0.1-0.1v-11.9h5.3L469.8,177.6z"
				/>
			<path id="路径_15980-12_00000143605242211638472470000004963559161702192308_" class="st5" d="M335.9,2.5
				c1.4,0.4,2.3,2,1.8,3.4l0,0.1l-1.7,5l2.8,3.8l1.1-0.8l1.6,2.2l1.3-0.9l3.3,4.5c0,0,1.3,11.5,1.8,12.1c1.9,2.6,1.1,6.4-1.9,8.6
				c-2.9,2.1-6.8,1.7-8.7-0.9c-0.5-0.6-11-5.4-11-5.4l-3.3-4.5l1.3-0.9l-1.6-2.2l1.1-0.8l-1.8-2.4l-0.1,0.2
				c-0.5,1.5-2.1,2.2-3.6,1.7c-1.4-0.5-2.2-2-1.7-3.5c0,0,0-0.1,0-0.1L326.4-5c0.5-1.5,2.1-2.2,3.6-1.7c1.4,0.5,2.2,2,1.7,3.5
				c0,0,0,0,0,0l0,0l0,0.1l-7.8,21.7l3.4,4.7l1.1-0.8l1.6,2.2l6-4.3l-1.6-2.2l1.1-0.8l-2.4-3.3c-0.3,0-0.6,0-0.9-0.1
				c-1.4-0.4-2.2-2-1.8-3.4c0,0,0-0.1,0-0.1l2-6C332.8,2.8,334.4,2,335.9,2.5z M319.4-13.7L310,12.1c-0.5,1.4,0.2,3,1.6,3.5
				c0,0,0,0,0,0l0.1,0c1.5,0.5,3.1-0.3,3.6-1.7l9.4-25.8c0.5-1.4-0.2-3-1.6-3.5l-0.1,0C321.6-16,320-15.2,319.4-13.7L319.4-13.7z
				 M307.8,6.6c0.5-0.3,0.8-0.8,1-1.3l9.3-25c0.5-1.4-0.2-3-1.6-3.5c0,0,0,0,0,0l0,0c0,0,0,0-0.1,0c-1.5-0.5-3.1,0.3-3.6,1.7
				l-9.3,25c-0.5,1.4,0.2,3,1.6,3.5l0.1,0C306.1,7.3,307,7.1,307.8,6.6z M301.8-1.5c0.5-0.3,0.8-0.8,1-1.3l3.8-10.6
				c0.5-1.4-0.2-3-1.6-3.5c0,0,0,0,0,0l0,0l-0.1,0c-1.5-0.5-3.1,0.3-3.6,1.8l-3.8,10.6c-0.5,1.4,0.2,3,1.6,3.5l0,0l0.1,0
				C300.1-0.8,301-1,301.8-1.5L301.8-1.5z"/>
			<path id="路径_15981-12_00000170972298824947360740000011144064577047115702_" class="st5" d="M384.7,80c1.4-1.4,2.6-3,3.8-4.6
				l-1.8,36.2c0,0.2,0.1,0.4,0.2,0.6c0.1,0.2,0.4,0.2,0.6,0.2h6.1c0.4,0,0.8-0.3,0.8-0.8c0,0,0,0,0,0v0c0-0.1,0-0.1,0-0.2l-1.8-36.8
				c0-0.2-0.1-0.4-0.2-0.5l-0.9-0.9c0.3-0.1,0.6-0.3,0.9-0.6c0.1-0.1,0.1-0.1,0.1-0.2c0,0,0.1,0,0.1,0.1c2.6,1.2,5.3,2.2,8.1,2.9
				c3.1,0.7,6.3,1.1,9.5,1.1c1.1,0,1.7,0,1.7,0c0.4,0,0.8-0.4,0.7-0.9c0-0.3-0.2-0.5-0.4-0.6c-3.3-1.9-6.8-3.3-10.5-4.2
				c-2.8-0.7-5.7-1.1-8.7-1.1c-0.1,0-0.2,0-0.2,0c-0.1-0.3-0.3-0.6-0.6-0.9c-0.3-0.3-0.6-0.5-1-0.6c0-0.1,0-0.1,0-0.2
				c0-0.1,0-0.1,0-0.2c-0.2-2.8-0.7-5.6-1.5-8.3c-1.1-3.6-2.6-7.1-4.7-10.3c-0.3-0.4-0.7-0.5-1.1-0.2c-0.2,0.1-0.3,0.4-0.3,0.6
				c0,3.8,0.5,7.5,1.6,11.2c0.8,2.7,1.9,5.4,3.3,7.9c0,0,0,0.1,0.1,0.1c0,0,0,0-0.1,0c-0.6,0.6-0.9,1.6-0.7,2.4
				c-0.1,0-0.1,0-0.2,0.1c-2.3,1.6-4.4,3.3-6.3,5.3c-2.6,2.7-4.8,5.8-6.6,9.2c-0.2,0.4,0,0.9,0.4,1.1c0.1,0.1,0.2,0.1,0.3,0.1
				c0.1,0,0.3,0,0.4-0.1C379,85.1,382,82.8,384.7,80z M393.8,71.3c2.5,0.1,5.1,0.5,7.5,1.1c2.5,0.6,4.9,1.5,7.2,2.6
				c-2.6-0.1-5.1-0.5-7.6-1C398.4,73.2,396.1,72.4,393.8,71.3L393.8,71.3z M392.7,110.9h-4.4l1.8-35.9l0.4-0.4l0.5,0.5L392.7,110.9z
				 M391.1,71.5c-0.4,0.4-1.1,0.4-1.5,0c-0.4-0.4-0.4-1.1,0-1.5c0.4-0.4,1.1-0.4,1.5,0C391.5,70.4,391.5,71.1,391.1,71.5L391.1,71.5
				L391.1,71.5z M386.6,60.5c-0.7-2.5-1.2-5-1.4-7.5c2.4,4.5,3.8,9.4,4.2,14.4l-0.1,0C388.3,65.2,387.3,62.9,386.6,60.5L386.6,60.5z
				 M377.7,83.9c2.6-4.2,6-7.8,10.1-10.7c0,0,0.1,0.1,0.1,0.1l0,0C385.2,77.5,381.7,81.1,377.7,83.9z M432.2,85.1
				c-2.4-1.4-4.9-2.4-7.6-3.1c-2.1-0.5-4.2-0.8-6.3-0.8c0,0,0,0-0.1,0c-0.1-0.2-0.2-0.4-0.4-0.5c-0.2-0.2-0.4-0.3-0.6-0.4
				c0-0.1,0-0.1,0-0.2c-0.1-2-0.5-4-1.1-5.9c-0.8-2.6-1.9-5.1-3.4-7.5c-0.3-0.4-0.7-0.5-1.1-0.2c-0.2,0.1-0.3,0.4-0.3,0.6
				c0,2.7,0.4,5.5,1.1,8.1c0.6,2,1.4,3.8,2.3,5.6c-0.3,0.4-0.5,0.9-0.5,1.4c0,0.1,0,0.2,0,0.2l0,0c-1.6,1.1-3.2,2.4-4.5,3.8
				c-1.9,2-3.5,4.2-4.8,6.7c-0.2,0.4,0,0.9,0.4,1.1c0.2,0.1,0.5,0.1,0.7,0c3.4-1.9,6.4-4.6,8.8-7.8l-1.2,25.1c0,0.4,0.3,0.8,0.8,0.8
				h4.4c0.4,0,0.8-0.4,0.8-0.8c0-0.1,0-0.1,0-0.2l-1.3-26.2c0-0.2-0.1-0.4-0.2-0.5l-0.4-0.4c0.2-0.1,0.3-0.2,0.4-0.3l0,0
				c1.8,0.9,3.8,1.6,5.7,2.1c2.3,0.5,4.6,0.8,6.9,0.8c0.8,0,1.2,0,1.2,0c0.4,0,0.8-0.4,0.7-0.9C432.6,85.5,432.4,85.3,432.2,85.1
				L432.2,85.1z M411.3,88c-1,1-2,1.9-3.2,2.8c1.6-2.3,3.6-4.4,5.8-6.1C413.2,85.9,412.3,87,411.3,88L411.3,88z M415.8,82.3
				c0-0.3,0.2-0.6,0.6-0.6c0,0,0,0,0,0h0c0.3,0,0.6,0.3,0.6,0.6c0,0.1-0.1,0.3-0.2,0.4c-0.2,0.2-0.6,0.2-0.8,0
				C415.9,82.6,415.8,82.4,415.8,82.3L415.8,82.3z M413.1,70.7c0.6,1.3,1.1,2.6,1.5,3.9c0.4,1.4,0.7,2.7,0.8,4.1
				C414.2,76.2,413.4,73.5,413.1,70.7L413.1,70.7z M415.2,110.7l1.3-25.3l0.1-0.1l0.1,0.1l1.3,25.2L415.2,110.7z M424.1,84.3
				c-1.4-0.3-2.7-0.8-4.1-1.3c2.8,0.2,5.6,0.9,8.2,2C426.8,84.8,425.4,84.6,424.1,84.3L424.1,84.3z"/>
			<path id="路径_15982-12_00000080202905599569087600000013905223222590062245_" class="st5" d="M354.1,136.9
				c-0.1-0.5-0.5-0.9-1-0.9H310c-0.5,0-0.9,0.4-1,0.9l-5.3,34.5c-0.1,0.6,0.3,1.1,0.9,1.2c0,0,0,0,0,0l0,0c0.1,0,0.1,0,0.2,0h19.8
				l-3.7,10.2h-6c-0.6,0-1,0.5-1,1v4c0,0.6,0.5,1,1,1h34.9c0.6,0,1-0.5,1-1v-4c0-0.6-0.5-1-1-1h-7.8l-3.7-10.2h19.5c0,0,0,0,0,0
				c0.6,0,1-0.5,1-1l0,0l0,0c0-0.1,0-0.2-0.1-0.3L354.1,136.9z M308.2,155.4h7.8l-0.7,6.5h-8.1L308.2,155.4z M309.5,146.9h7.4
				l-0.7,6.5h-7.7L309.5,146.9z M354.1,153.4h-7.6l-0.5-6.5h7.3L354.1,153.4z M344.5,153.4H337l-0.2-6.5h7.2L344.5,153.4z
				 M327.9,153.4l0.3-6.5h6.5l0.2,6.5H327.9z M334.9,155.4l0.2,6.5h-7.7l0.3-6.5H334.9z M336.7,144.8l-0.2-6.7c0,0,0,0,0,0h6.7
				c0,0,0,0.1,0,0.1l0.5,6.6L336.7,144.8z M334.7,144.8h-6.3l0.4-6.6c0,0,0-0.1,0-0.1h5.8c0,0,0,0.1,0,0.1L334.7,144.8z
				 M326.6,138.1l-0.4,6.7h-7l0.7-6.6c0-0.1,0-0.1,0-0.2L326.6,138.1L326.6,138.1z M326.1,146.9l-0.3,6.5h-7.5l0.7-6.5H326.1z
				 M318.1,155.4h7.6l-0.3,6.5h-8L318.1,155.4z M325.2,164l-0.3,6.5h-8.4l0.7-6.5H325.2z M327.3,164h7.9l0.2,6.5h-8.4L327.3,164z
				 M337.2,164h8.1l0.5,6.5h-8.4L337.2,164z M337.2,161.9l-0.2-6.5h7.6l0.5,6.5H337.2z M346.7,155.4h7.7l0.8,6.5h-8L346.7,155.4z
				 M353,144.8h-7.2l-0.5-6.7h6.8L353,144.8z M310.8,138.1h7l-0.7,6.7h-7.3L310.8,138.1z M306.8,164h8.2l-0.7,6.5h-8.5L306.8,164z
				 M348.5,186.8h-32.8v-2h32.8V186.8z M322.9,182.8l3.7-10.2h9.2l3.7,10.2H322.9z M347.9,170.5l-0.5-6.5h8.1l0.8,6.5H347.9z"/>
			<path id="路径_15983-12_00000183214941874668770160000003367571114358574264_" class="st5" d="M482.7,33.4H478v-8.3h4.7
				L482.7,33.4z M504.6,25.1v8.3h-2.9v5.4h-29.1v-11c-14.2,5.8-30.3-1-36.1-15.2c-5.8-14.2,1-30.3,15.2-36.1s30.3,1,36.1,15.2
				c3.8,9.4,2.2,20.1-4.2,28h18.1v5.4L504.6,25.1z M479.8,3.5c0,0.2,0.1,0.4,0.2,0.5l2.8,2.2c0.1,0.1,0.3,0.2,0.5,0.1l3-0.5
				c0.1,0,0.3,0,0.4,0.1l0,0c0.7-4.8,0-9.7-2-14.1c-0.2-0.1-0.4-0.1-0.5,0L483-7.5c-0.2,0.1-0.3,0.3-0.3,0.5v2.6
				c0,0.1,0,0.2-0.1,0.3l-2.6,4.7c-0.1,0.1-0.1,0.2-0.1,0.3L479.8,3.5z M463.9-22.6l0.2,0.3c0.1,0.1,0.1,0.2,0.2,0.2l2.5,1.6
				c0.2,0.1,0.3,0.3,0.4,0.5c0.2,0.6,0.6,1.8,0.6,2c0,0.2,1.2,2.1,1.6,2.7c0.1,0.1,0.2,0.2,0.3,0.3c0.4,0.3,1,0.1,1.3-0.3
				c0,0,0-0.1,0-0.1l0.9-1.8c0.1-0.2,0.2-0.3,0.4-0.4l2.5-1.2c0,0,0,0,0.1,0l0.1,0C471.7-21.1,467.9-22.3,463.9-22.6L463.9-22.6z
				 M472.3,15.8l2.1-5.2c0.2-0.5,0-1.1-0.5-1.3c0,0,0,0,0,0l-4.6-1.6c-0.2-0.1-0.4-0.2-0.5-0.5l-0.4-0.7c-0.1-0.2-0.2-0.3-0.4-0.4
				l-3.4-2c-0.2-0.1-0.3-0.1-0.5-0.1h-2.9c-0.4,0-0.7,0.2-0.9,0.5l-0.2,0.4c-0.1,0-0.1,0-0.2,0c-0.2,0-0.4-0.1-0.6-0.3L457,1.5
				c-0.2-0.2-0.5-0.4-0.8-0.3l-0.7,0.2c-0.2,0.1-0.4,0-0.6-0.1l-1-0.7c-0.3-0.2-0.4-0.5-0.4-0.9l0.3-1.1c0.1-0.4,0.4-0.6,0.8-0.6
				h3.8c0.3,0,0.5-0.1,0.7-0.4l2.5-4c0.1-0.1,0.2-0.3,0.4-0.3l2.2-0.9c0.2-0.1,0.3-0.2,0.4-0.3l2-2.9c0.2-0.3,0.2-0.7-0.1-1
				l-2.2-2.5c-0.1-0.1-0.2-0.2-0.4-0.2l-3-1c-0.4-0.1-0.9,0.1-1,0.5c0,0,0,0,0,0l0,0c0,0,0,0,0,0.1l-0.5,2.3c-0.1,0.4-0.5,0.7-1,0.6
				c-0.1,0-0.1,0-0.2-0.1l-2.6-1.2c-0.1-0.1-0.3-0.2-0.4-0.3l-0.5-0.9c-0.2-0.4-0.1-0.8,0.2-1.1l3.3-2.7c0.2-0.2,0.3-0.5,0.3-0.7
				l-0.1-0.9l0.9-0.1c0.2,0,0.4,0,0.6,0.2l0.9,0.6c0.2,0.1,0.3,0.4,0.3,0.6v0.4c0,0.3,0.1,0.5,0.4,0.7l1.7,1
				c0.4,0.2,0.8,0.1,1.1-0.2c0-0.1,0.1-0.2,0.1-0.2l0.2-1c0.1-0.2,0-0.5-0.2-0.7l-3.2-3.6c-0.2-0.2-0.5-0.3-0.7-0.2l-0.8,0.2
				c0,0-0.1,0-0.1,0h-1.3c-6.6,1.1-12.5,4.8-16.4,10.4l2,2c0.1,0.1,0.2,0.3,0.2,0.5l0.2,3.1c0,0.2,0.1,0.3,0.2,0.5l6.3,7.2
				c0.1,0.1,0.2,0.1,0.2,0.2l5.5,2.8c0,0,0,0,0,0l1.6,0.7c0.2,0.1,0.3,0.2,0.4,0.4l0.5,1c0.1,0.1,0.2,0.3,0.3,0.4l-0.6,2.1
				c-0.1,0.2,0,0.5,0.1,0.7l1.3,2.7c0.1,0.2,0.2,0.3,0.4,0.4l1.1,0.7c0.3,0.2,0.5,0.6,0.5,1l-1.4,10.1c0,0.2,0,0.4,0.1,0.6l1,2.1
				h0.3c0.6,0,1.1,0,1.7-0.1c0-0.2-0.1-0.4-0.2-0.6l-0.5-0.7c-0.2-0.3-0.3-0.7-0.1-1.1l1.6-2.9c0.1-0.2,0.2-0.3,0.4-0.4l1.2-0.7
				c0.1-0.1,0.2-0.1,0.3-0.2l3-3.4c0.1-0.1,0.3-0.2,0.5-0.3l1.5-0.4C472,16.3,472.2,16.1,472.3,15.8L472.3,15.8z M498.9,22.4h-23.6
				v13.7h23.6L498.9,22.4z"/>
		</g>
	</g>
	
		<g id="main_bg_00000013908114509691857430000001389499832153511819_" transform="translate(-23 -311)" style="clip-path:url(#路径_16116_00000130610037840964472800000012719838017532515768_);">
		<g id="main_bg-2_00000145035666426559725870000010780032721955152806_" transform="translate(17.087 301.519)" class="st4">
			<g id="组_183-12_00000159428517138210531990000003063406421175390889_">
				<path id="路径_15877-12_00000175293028079324254010000002868500046485216426_" class="st5" d="M757.5,80.6L757.5,80.6
					l-14.7-25.6L728,80.6h0c-4.3,8.1-1.2,18.2,6.9,22.6c8.1,4.3,18.2,1.2,22.6-6.9C760.1,91.4,760.1,85.5,757.5,80.6L757.5,80.6z
					 M742.4,101.3c-6.8,0-12.2-5.5-12.2-12.2c0-1,0.8-1.8,1.8-1.8c1,0,1.7,0.8,1.8,1.8c0,4.8,3.9,8.6,8.7,8.7c1,0.1,1.7,0.9,1.7,1.9
					C744,100.6,743.3,101.3,742.4,101.3z"/>
				<path id="路径_15878-12_00000138563678336713861430000006638026384653464192_" class="st5" d="M771.3,66.3L771.3,66.3l-7-12.2
					l-7,12.2h0c-2.1,3.9-0.6,8.7,3.3,10.8c3.9,2.1,8.7,0.6,10.8-3.3C772.6,71.5,772.6,68.7,771.3,66.3z M764.1,76.2
					c-3.2,0-5.8-2.6-5.8-5.8c0-0.5,0.4-0.9,0.9-0.9s0.9,0.4,0.9,0.9l0,0c0,2.3,1.9,4.1,4.1,4.1c0.5,0,0.9,0.4,0.9,0.9
					S764.6,76.2,764.1,76.2L764.1,76.2z"/>
			</g>
			<path id="路径_15872-12_00000161594536898360262560000000859827579208286592_" class="st5" d="M681.7,189h-5.1
				c-0.1,0-0.1-0.1-0.2-0.1c-0.9-0.1-1.8-0.2-2.6-0.4c-2.7-0.4-5.3-1.3-7.7-2.5c-2.3-1.1-4.4-2.5-6.3-4.2c-1.8-1.6-3.5-3.4-4.9-5.4
				c-1.5-2.1-2.7-4.3-3.5-6.7c-0.8-2.1-1.3-4.2-1.6-6.4c-0.1-0.5-0.2-0.9-0.2-1.4v-5.1c0-0.1,0.1-0.1,0.1-0.2
				c0.1-0.9,0.2-1.8,0.4-2.6c0.4-2.7,1.3-5.3,2.5-7.7c1.1-2.3,2.5-4.4,4.2-6.3c1.6-1.8,3.4-3.5,5.4-4.9c2.1-1.5,4.3-2.7,6.7-3.5
				c2.1-0.8,4.2-1.3,6.4-1.6c0.5-0.1,0.9-0.2,1.4-0.2h5.1c0.1,0,0.1,0.1,0.2,0.1c0.9,0.1,1.8,0.2,2.6,0.4c2.7,0.4,5.3,1.3,7.7,2.5
				c2.3,1.1,4.4,2.5,6.3,4.2c1.8,1.6,3.5,3.4,4.9,5.4c1.5,2.1,2.7,4.3,3.5,6.7c0.8,2.1,1.3,4.2,1.6,6.4c0.1,0.5,0.2,0.9,0.2,1.4v5.1
				c0,0.1-0.1,0.1-0.1,0.2c-0.1,0.9-0.2,1.8-0.4,2.6c-0.4,2.7-1.3,5.3-2.5,7.7c-1.1,2.3-2.5,4.4-4.2,6.3c-1.6,1.8-3.4,3.5-5.4,4.9
				c-2.1,1.5-4.3,2.7-6.7,3.5c-2.1,0.8-4.2,1.3-6.4,1.6C682.6,188.8,682.2,188.9,681.7,189z M681.8,177.6l0.2,0.1
				c1.2-1.3,2.5-2.6,3.6-3.9c1.4-1.6,2.4-3.4,3.2-5.4c1.2-2.9,1.6-6.1,1.3-9.2c-0.1-1.6-0.5-3.3-1-4.8c-1-2.9-2.5-5.6-4.7-7.8
				c-1.6-1.7-3.3-3.3-5-5c-0.1-0.1-0.2-0.2-0.3-0.3c-1.4,1.4-2.8,2.8-4.2,4.2c-2.1,2-3.8,4.3-4.9,6.9c-1.1,2.4-1.7,5-1.8,7.7
				c0,1.5,0.1,2.9,0.3,4.4c0.4,2.8,1.4,5.4,3,7.7c0.8,1.1,1.7,2.3,2.6,3.3c0.7,0.8,1.5,1.5,2.2,2.3l0.1-0.1v-11.9h5.3L681.8,177.6z"
				/>
			<path id="路径_15980-12_00000140725612041923219650000011008729558152878503_" class="st5" d="M547.9,2.5
				c1.4,0.4,2.3,2,1.8,3.4l0,0.1l-1.7,5l2.8,3.8l1.1-0.8l1.6,2.2l1.3-0.9l3.3,4.5c0,0,1.3,11.5,1.8,12.1c1.9,2.6,1.1,6.4-1.9,8.6
				s-6.8,1.7-8.7-0.9c-0.5-0.6-11-5.4-11-5.4l-3.3-4.5l1.3-0.9l-1.6-2.2l1.1-0.8l-1.8-2.4l-0.1,0.2c-0.5,1.5-2.1,2.2-3.6,1.7
				c-1.4-0.5-2.2-2-1.7-3.5c0,0,0-0.1,0-0.1L538.4-5c0.5-1.5,2.1-2.2,3.6-1.7c1.4,0.5,2.2,2,1.7,3.5c0,0,0,0,0,0l0,0l0,0.1
				l-7.8,21.7l3.4,4.7l1.1-0.8l1.6,2.2l6-4.3l-1.6-2.2l1.1-0.8l-2.4-3.3c-0.3,0-0.6,0-0.9-0.1c-1.4-0.4-2.2-2-1.8-3.4
				c0,0,0-0.1,0-0.1l2-6C544.8,2.8,546.4,2,547.9,2.5z M531.4-13.7L522,12.1c-0.5,1.4,0.2,3,1.6,3.5c0,0,0,0,0,0l0.1,0
				c1.5,0.5,3.1-0.3,3.6-1.7l9.4-25.8c0.5-1.4-0.2-3-1.6-3.5l-0.1,0C533.6-16,532-15.2,531.4-13.7L531.4-13.7z M519.8,6.6
				c0.5-0.3,0.8-0.8,1-1.3l9.3-25c0.5-1.4-0.2-3-1.6-3.5c0,0,0,0,0,0l0,0c0,0,0,0-0.1,0c-1.5-0.5-3.1,0.3-3.6,1.7l-9.3,25
				c-0.5,1.4,0.2,3,1.6,3.5l0.1,0C518.1,7.3,519,7.1,519.8,6.6z M513.8-1.5c0.5-0.3,0.8-0.8,1-1.3l3.8-10.6c0.5-1.4-0.2-3-1.6-3.5
				c0,0,0,0,0,0l0,0l-0.1,0c-1.5-0.5-3.1,0.3-3.6,1.8l-3.8,10.6c-0.5,1.4,0.2,3,1.6,3.5l0,0l0.1,0C512.1-0.8,513-1,513.8-1.5
				L513.8-1.5z"/>
			<path id="路径_15981-12_00000083790329332475415470000008130296703450272437_" class="st5" d="M596.7,80c1.4-1.4,2.6-3,3.8-4.6
				l-1.8,36.2c0,0.2,0.1,0.4,0.2,0.6c0.1,0.2,0.4,0.2,0.6,0.2h6.1c0.4,0,0.8-0.3,0.8-0.8c0,0,0,0,0,0v0c0-0.1,0-0.1,0-0.2l-1.8-36.8
				c0-0.2-0.1-0.4-0.2-0.5l-0.9-0.9c0.3-0.1,0.6-0.3,0.9-0.6c0.1-0.1,0.1-0.1,0.1-0.2c0,0,0.1,0,0.1,0.1c2.6,1.2,5.3,2.2,8.1,2.9
				c3.1,0.7,6.3,1.1,9.5,1.1c1.1,0,1.7,0,1.7,0c0.4,0,0.8-0.4,0.7-0.9c0-0.3-0.2-0.5-0.4-0.6c-3.3-1.9-6.8-3.3-10.5-4.2
				c-2.8-0.7-5.7-1.1-8.7-1.1c-0.1,0-0.2,0-0.2,0c-0.1-0.3-0.3-0.6-0.6-0.9c-0.3-0.3-0.6-0.5-1-0.6c0-0.1,0-0.1,0-0.2
				c0-0.1,0-0.1,0-0.2c-0.2-2.8-0.7-5.6-1.5-8.3c-1.1-3.6-2.6-7.1-4.7-10.3c-0.3-0.4-0.8-0.5-1.1-0.2c-0.2,0.1-0.3,0.4-0.3,0.6
				c0,3.8,0.5,7.5,1.6,11.2c0.8,2.7,1.9,5.4,3.3,7.9c0,0,0,0.1,0.1,0.1c0,0,0,0-0.1,0c-0.6,0.6-0.9,1.6-0.7,2.4
				c-0.1,0-0.1,0-0.2,0.1c-2.3,1.6-4.4,3.3-6.3,5.3c-2.6,2.7-4.8,5.8-6.6,9.2c-0.2,0.4,0,0.9,0.4,1.1c0.1,0.1,0.2,0.1,0.3,0.1
				c0.1,0,0.3,0,0.4-0.1C591,85.1,594,82.8,596.7,80z M605.8,71.3c2.5,0.1,5.1,0.5,7.5,1.1c2.5,0.6,4.9,1.5,7.2,2.6
				c-2.6-0.1-5.1-0.5-7.6-1C610.4,73.2,608.1,72.4,605.8,71.3L605.8,71.3z M604.7,110.9h-4.4l1.8-35.9l0.4-0.4l0.5,0.5L604.7,110.9z
				 M603.1,71.5c-0.4,0.4-1.1,0.4-1.5,0c-0.4-0.4-0.4-1.1,0-1.5c0.4-0.4,1.1-0.4,1.5,0C603.5,70.4,603.5,71.1,603.1,71.5L603.1,71.5
				L603.1,71.5z M598.6,60.5c-0.7-2.5-1.2-5-1.4-7.5c2.4,4.5,3.8,9.4,4.2,14.4l-0.1,0C600.3,65.2,599.3,62.9,598.6,60.5L598.6,60.5z
				 M589.7,83.9c2.6-4.2,6-7.8,10.1-10.7c0,0,0.1,0.1,0.1,0.1l0,0C597.2,77.5,593.7,81.1,589.7,83.9z M644.2,85.1
				c-2.4-1.4-4.9-2.4-7.6-3.1c-2.1-0.5-4.2-0.8-6.3-0.8c0,0,0,0-0.1,0c-0.1-0.2-0.2-0.4-0.4-0.5c-0.2-0.2-0.4-0.3-0.6-0.4
				c0-0.1,0-0.1,0-0.2c-0.1-2-0.5-4-1.1-5.9c-0.8-2.6-1.9-5.1-3.4-7.5c-0.3-0.4-0.7-0.5-1.1-0.2c-0.2,0.1-0.3,0.4-0.3,0.6
				c0,2.7,0.4,5.5,1.1,8.1c0.6,2,1.4,3.8,2.3,5.6c-0.3,0.4-0.5,0.9-0.5,1.4c0,0.1,0,0.2,0,0.2l0,0c-1.6,1.1-3.2,2.4-4.5,3.8
				c-1.9,2-3.5,4.2-4.8,6.7c-0.2,0.4,0,0.9,0.4,1.1c0.2,0.1,0.5,0.1,0.7,0c3.4-1.9,6.4-4.6,8.8-7.8l-1.2,25.1c0,0.4,0.3,0.8,0.8,0.8
				h4.4c0.4,0,0.8-0.4,0.8-0.8c0-0.1,0-0.1,0-0.2l-1.3-26.2c0-0.2-0.1-0.4-0.2-0.5l-0.4-0.4c0.2-0.1,0.3-0.2,0.4-0.3l0,0
				c1.8,0.9,3.8,1.6,5.7,2.1c2.3,0.5,4.6,0.8,6.9,0.8c0.8,0,1.2,0,1.2,0c0.4,0,0.8-0.4,0.7-0.9C644.6,85.5,644.4,85.3,644.2,85.1
				L644.2,85.1z M623.3,88c-1,1-2,1.9-3.2,2.8c1.6-2.3,3.6-4.4,5.8-6.1C625.2,85.9,624.3,87,623.3,88L623.3,88z M627.8,82.3
				c0-0.3,0.2-0.6,0.6-0.6c0,0,0,0,0,0h0c0.3,0,0.6,0.3,0.6,0.6c0,0.1-0.1,0.3-0.2,0.4c-0.2,0.2-0.6,0.2-0.8,0
				C627.9,82.6,627.8,82.4,627.8,82.3L627.8,82.3z M625.1,70.7c0.6,1.3,1.1,2.6,1.5,3.9c0.4,1.4,0.7,2.7,0.8,4.1
				C626.2,76.2,625.4,73.5,625.1,70.7L625.1,70.7z M627.2,110.7l1.3-25.3l0.1-0.1l0.1,0.1l1.3,25.2L627.2,110.7z M636.1,84.3
				c-1.4-0.3-2.7-0.8-4.1-1.3c2.8,0.2,5.6,0.9,8.2,2C638.8,84.8,637.4,84.6,636.1,84.3L636.1,84.3z"/>
			<path id="路径_15982-12_00000103957649098767299370000018399916395586751153_" class="st5" d="M566.1,136.9
				c-0.1-0.5-0.5-0.9-1-0.9H522c-0.5,0-0.9,0.4-1,0.9l-5.3,34.5c-0.1,0.6,0.3,1.1,0.9,1.2c0,0,0,0,0,0l0,0c0.1,0,0.1,0,0.2,0h19.8
				l-3.7,10.2h-6c-0.6,0-1,0.5-1,1v4c0,0.6,0.5,1,1,1h34.9c0.6,0,1-0.5,1-1v-4c0-0.6-0.5-1-1-1h-7.8l-3.7-10.2h19.5c0,0,0,0,0,0
				c0.6,0,1-0.5,1-1l0,0l0,0c0-0.1,0-0.2-0.1-0.3L566.1,136.9z M520.2,155.4h7.8l-0.7,6.5h-8.1L520.2,155.4z M521.5,146.9h7.4
				l-0.7,6.5h-7.7L521.5,146.9z M566.1,153.4h-7.6l-0.5-6.5h7.3L566.1,153.4z M556.5,153.4H549l-0.2-6.5h7.2L556.5,153.4z
				 M539.9,153.4l0.3-6.5h6.5l0.2,6.5H539.9z M546.9,155.4l0.2,6.5h-7.7l0.3-6.5H546.9z M548.7,144.8l-0.2-6.7c0,0,0,0,0,0h6.7
				c0,0,0,0.1,0,0.1l0.5,6.6L548.7,144.8z M546.7,144.8h-6.3l0.4-6.6c0,0,0-0.1,0-0.1h5.8c0,0,0,0.1,0,0.1L546.7,144.8z
				 M538.6,138.1l-0.4,6.7h-7.1l0.7-6.6c0-0.1,0-0.1,0-0.2L538.6,138.1L538.6,138.1z M538.1,146.9l-0.3,6.5h-7.5l0.7-6.5H538.1z
				 M530.1,155.4h7.6l-0.3,6.5h-8L530.1,155.4z M537.2,164l-0.3,6.5h-8.4l0.7-6.5H537.2z M539.3,164h7.9l0.2,6.5h-8.4L539.3,164z
				 M549.2,164h8.1l0.5,6.5h-8.4L549.2,164z M549.2,161.9l-0.2-6.5h7.6l0.5,6.5H549.2z M558.7,155.4h7.7l0.8,6.5h-8L558.7,155.4z
				 M565,144.8h-7.2l-0.5-6.7h6.8L565,144.8z M522.8,138.1h7l-0.7,6.7h-7.3L522.8,138.1z M518.8,164h8.2l-0.7,6.5h-8.5L518.8,164z
				 M560.5,186.8h-32.8v-2h32.8V186.8z M534.9,182.8l3.7-10.2h9.2l3.7,10.2H534.9z M559.9,170.5l-0.5-6.5h8.1l0.8,6.5H559.9z"/>
			<path id="路径_15983-12_00000177467254859840566340000014233212115698793642_" class="st5" d="M694.7,33.4H690v-8.3h4.7
				L694.7,33.4z M716.6,25.1v8.3h-2.9v5.4h-29.1v-11c-14.2,5.8-30.3-1-36.1-15.2c-5.8-14.2,1-30.3,15.2-36.1
				c14.2-5.8,30.3,1,36.1,15.2c3.8,9.4,2.2,20.1-4.2,28h18.1v5.4L716.6,25.1z M691.8,3.5c0,0.2,0.1,0.4,0.2,0.5l2.8,2.2
				c0.1,0.1,0.3,0.2,0.5,0.1l3-0.5c0.1,0,0.3,0,0.4,0.1l0,0c0.7-4.8,0-9.7-2-14.1c-0.2-0.1-0.4-0.1-0.6,0L695-7.5
				c-0.2,0.1-0.3,0.3-0.3,0.5v2.6c0,0.1,0,0.2-0.1,0.3l-2.6,4.7c-0.1,0.1-0.1,0.2-0.1,0.3L691.8,3.5z M675.9-22.6l0.2,0.3
				c0.1,0.1,0.1,0.2,0.2,0.2l2.5,1.6c0.2,0.1,0.3,0.3,0.4,0.5c0.2,0.6,0.6,1.8,0.6,2c0,0.2,1.2,2.1,1.6,2.7c0.1,0.1,0.2,0.2,0.3,0.3
				c0.4,0.3,1,0.1,1.3-0.3c0,0,0-0.1,0-0.1l0.9-1.8c0.1-0.2,0.2-0.3,0.4-0.4l2.5-1.2c0,0,0,0,0.1,0l0.1,0
				C683.7-21.1,679.9-22.3,675.9-22.6L675.9-22.6z M684.3,15.8l2.1-5.2c0.2-0.5,0-1.1-0.5-1.3c0,0,0,0,0,0l-4.6-1.6
				c-0.2-0.1-0.4-0.2-0.5-0.5l-0.4-0.7c-0.1-0.2-0.2-0.3-0.4-0.4l-3.4-2c-0.2-0.1-0.3-0.1-0.5-0.1h-2.9c-0.4,0-0.7,0.2-0.9,0.5
				l-0.2,0.4c-0.1,0-0.1,0-0.2,0c-0.2,0-0.4-0.1-0.6-0.3L669,1.5c-0.2-0.2-0.5-0.4-0.8-0.3l-0.7,0.2c-0.2,0.1-0.4,0-0.6-0.1l-1-0.7
				c-0.3-0.2-0.4-0.5-0.4-0.9l0.3-1.1c0.1-0.4,0.4-0.6,0.8-0.6h3.8c0.3,0,0.5-0.1,0.7-0.4l2.5-4c0.1-0.1,0.2-0.3,0.4-0.3l2.2-0.9
				c0.2-0.1,0.3-0.2,0.4-0.3l2-2.9c0.2-0.3,0.2-0.7-0.1-1l-2.2-2.5c-0.1-0.1-0.2-0.2-0.4-0.2l-3-1c-0.4-0.1-0.9,0.1-1,0.5
				c0,0,0,0,0,0l0,0c0,0,0,0,0,0.1l-0.5,2.3c-0.1,0.4-0.5,0.7-1,0.6c-0.1,0-0.1,0-0.2-0.1l-2.6-1.2c-0.1-0.1-0.3-0.2-0.4-0.3
				l-0.5-0.9c-0.2-0.4-0.1-0.8,0.2-1.1l3.3-2.7c0.2-0.2,0.3-0.5,0.3-0.7l-0.1-0.9l0.9-0.1c0.2,0,0.4,0,0.6,0.2l0.9,0.6
				c0.2,0.1,0.3,0.4,0.3,0.6v0.4c0,0.3,0.1,0.5,0.4,0.7l1.7,1c0.4,0.2,0.8,0.1,1.1-0.2c0-0.1,0.1-0.2,0.1-0.2l0.2-1
				c0.1-0.2,0-0.5-0.2-0.7l-3.2-3.6c-0.2-0.2-0.5-0.3-0.7-0.2l-0.8,0.2c0,0-0.1,0-0.1,0h-1.3c-6.6,1.1-12.5,4.8-16.4,10.4l2,2
				c0.1,0.1,0.2,0.3,0.2,0.5l0.2,3.1c0,0.2,0.1,0.3,0.2,0.5l6.3,7.2c0.1,0.1,0.2,0.1,0.2,0.2l5.5,2.8c0,0,0,0,0,0l1.6,0.7
				c0.2,0.1,0.3,0.2,0.4,0.4l0.5,1c0.1,0.1,0.2,0.3,0.3,0.4l-0.6,2.1c-0.1,0.2,0,0.5,0.1,0.7l1.3,2.7c0.1,0.2,0.2,0.3,0.4,0.4
				l1.1,0.7c0.3,0.2,0.5,0.6,0.5,1l-1.5,10.1c0,0.2,0,0.4,0.1,0.6l1,2.1h0.3c0.6,0,1.1,0,1.7-0.1c0-0.2-0.1-0.4-0.2-0.6l-0.5-0.7
				c-0.2-0.3-0.3-0.7-0.1-1.1l1.6-2.9c0.1-0.2,0.2-0.3,0.4-0.4l1.2-0.7c0.1-0.1,0.2-0.1,0.3-0.2l3-3.4c0.1-0.1,0.3-0.2,0.5-0.3
				l1.5-0.4C684,16.3,684.2,16.1,684.3,15.8L684.3,15.8z M710.9,22.4h-23.6v13.7h23.6L710.9,22.4z"/>
		</g>
	</g>
	
		<g id="main_bg_00000081647244285628716490000000626491043829369517_" transform="translate(-23 -311)" style="clip-path:url(#路径_16116_00000130610037840964472800000012719838017532515768_);">
		<g id="main_bg-2_00000051376889804028338730000008275773557334705026_" transform="translate(17.087 301.519)" class="st4">
			<g id="组_183-12_00000120538492421082150520000016859464094652593832_">
				<path id="路径_15877-12_00000158030598639733052740000004794317275424218274_" class="st5" d="M1943.5,89.2L1943.5,89.2
					l-14.7-25.6L1914,89.2h0c-4.3,8.1-1.2,18.2,6.9,22.6c8.1,4.3,18.2,1.2,22.6-6.9C1946.1,99.9,1946.1,94.1,1943.5,89.2
					L1943.5,89.2z M1928.4,109.9c-6.8,0-12.2-5.5-12.2-12.2c0-1,0.8-1.8,1.8-1.8c1,0,1.7,0.8,1.8,1.8c0,4.8,3.9,8.6,8.7,8.7
					c1,0.1,1.7,0.9,1.7,1.9C1930,109.1,1929.3,109.8,1928.4,109.9z"/>
				<path id="路径_15878-12_00000057138245329124473740000009309541161799837835_" class="st5" d="M1957.3,74.9L1957.3,74.9
					l-7-12.2l-7,12.2h0c-2.1,3.9-0.6,8.7,3.3,10.8c3.9,2.1,8.7,0.6,10.8-3.3C1958.6,80,1958.6,77.2,1957.3,74.9z M1950.1,84.8
					c-3.2,0-5.8-2.6-5.8-5.8c0-0.5,0.4-0.9,0.9-0.9s0.9,0.4,0.9,0.9l0,0c0,2.3,1.9,4.1,4.1,4.1c0.5,0,0.9,0.4,0.9,0.9
					S1950.6,84.8,1950.1,84.8L1950.1,84.8z"/>
			</g>
			<path id="路径_15872-12_00000105397960758356412300000012948965968933419929_" class="st5" d="M1867.7,197.5h-5.1
				c-0.1,0-0.1-0.1-0.2-0.1c-0.9-0.1-1.8-0.2-2.6-0.4c-2.7-0.4-5.3-1.3-7.7-2.5c-2.3-1.1-4.4-2.5-6.3-4.2c-1.8-1.6-3.5-3.4-4.9-5.4
				c-1.5-2.1-2.7-4.3-3.5-6.7c-0.8-2.1-1.3-4.2-1.6-6.4c0-0.5-0.1-0.9-0.2-1.4v-5.1c0-0.1,0.1-0.1,0.1-0.2c0.1-0.9,0.2-1.8,0.4-2.6
				c0.4-2.7,1.3-5.3,2.5-7.7c1.1-2.3,2.5-4.4,4.2-6.3c1.6-1.8,3.4-3.5,5.4-4.9c2.1-1.5,4.3-2.7,6.7-3.5c2.1-0.8,4.2-1.3,6.4-1.6
				c0.5-0.1,0.9-0.2,1.4-0.2h5.1c0.1,0,0.1,0.1,0.2,0.1c0.9,0.1,1.8,0.2,2.6,0.4c2.7,0.4,5.3,1.3,7.7,2.5c2.3,1.1,4.4,2.5,6.3,4.2
				c1.8,1.6,3.5,3.4,4.9,5.4c1.5,2.1,2.7,4.3,3.5,6.7c0.8,2.1,1.3,4.2,1.6,6.4c0.1,0.5,0.2,0.9,0.2,1.4v5.1c0,0.1-0.1,0.1-0.1,0.2
				c-0.1,0.9-0.2,1.8-0.4,2.6c-0.4,2.7-1.3,5.3-2.5,7.7c-1.1,2.3-2.5,4.4-4.2,6.3c-1.6,1.8-3.4,3.5-5.4,4.9
				c-2.1,1.5-4.3,2.7-6.7,3.5c-2.1,0.8-4.2,1.3-6.4,1.6C1868.6,197.3,1868.2,197.4,1867.7,197.5z M1867.8,186.1l0.2,0.1
				c1.2-1.3,2.5-2.6,3.6-3.9c1.4-1.6,2.4-3.4,3.2-5.4c1.2-2.9,1.6-6.1,1.3-9.2c-0.1-1.6-0.5-3.3-1-4.8c-1-2.9-2.5-5.6-4.7-7.8
				c-1.6-1.7-3.3-3.3-5-5c-0.1-0.1-0.2-0.2-0.3-0.3c-1.4,1.4-2.8,2.8-4.2,4.2c-2.1,2-3.8,4.3-4.9,6.9c-1.1,2.4-1.7,5-1.8,7.7
				c0,1.5,0.1,2.9,0.3,4.4c0.4,2.8,1.4,5.4,3,7.7c0.8,1.1,1.7,2.3,2.6,3.3c0.7,0.8,1.5,1.5,2.2,2.3l0.1-0.1v-11.9h5.3L1867.8,186.1z
				"/>
			<path id="路径_15980-12_00000056405134116213005140000007124105070282177187_" class="st5" d="M1733.9,11
				c1.4,0.4,2.3,2,1.8,3.4l0,0.1l-1.7,5l2.8,3.8l1.1-0.8l1.6,2.2l1.3-0.9l3.3,4.5c0,0,1.3,11.5,1.8,12.1c1.9,2.6,1.1,6.4-1.9,8.6
				c-2.9,2.1-6.8,1.7-8.7-0.9c-0.5-0.6-11-5.4-11-5.4l-3.3-4.5l1.3-0.9l-1.6-2.2l1.1-0.8l-1.8-2.4l-0.1,0.2
				c-0.5,1.5-2.1,2.2-3.6,1.7c-1.4-0.5-2.2-2-1.7-3.5c0,0,0-0.1,0-0.1l9.6-26.6c0.5-1.5,2.1-2.2,3.6-1.7c1.4,0.5,2.2,2,1.7,3.5
				c0,0,0,0,0,0l0,0l0,0.1l-7.8,21.7l3.4,4.7l1.1-0.8l1.6,2.2l6-4.3l-1.6-2.2l1.1-0.8l-2.4-3.3c-0.3,0-0.6,0-0.9-0.1
				c-1.4-0.4-2.2-2-1.8-3.4c0,0,0-0.1,0-0.1l2-6C1730.8,11.4,1732.4,10.6,1733.9,11z M1717.4-5.2l-9.4,25.8c-0.5,1.4,0.2,3,1.6,3.5
				c0,0,0,0,0,0l0.1,0c1.5,0.5,3.1-0.3,3.6-1.7l9.4-25.8c0.5-1.4-0.2-3-1.6-3.5l-0.1,0C1719.6-7.4,1718-6.7,1717.4-5.2L1717.4-5.2z
				 M1705.8,15.1c0.5-0.3,0.8-0.8,1-1.3l9.3-25c0.5-1.4-0.2-3-1.6-3.5c0,0,0,0,0,0l0,0c0,0,0,0-0.1,0c-1.5-0.5-3.1,0.3-3.6,1.7
				l-9.3,25c-0.5,1.4,0.2,3,1.6,3.5l0.1,0C1704.1,15.8,1705,15.7,1705.8,15.1z M1699.8,7c0.5-0.3,0.8-0.8,1-1.3l3.8-10.6
				c0.5-1.4-0.2-3-1.6-3.5c0,0,0,0,0,0l0,0l-0.1,0c-1.5-0.5-3.1,0.3-3.6,1.8l-3.8,10.6c-0.5,1.4,0.2,3,1.6,3.5l0,0l0.1,0
				C1698.1,7.7,1699,7.6,1699.8,7L1699.8,7z"/>
			<path id="路径_15981-12_00000180360261764694184420000002530319930801179816_" class="st5" d="M1782.7,88.6
				c1.4-1.4,2.6-3,3.8-4.6l-1.8,36.2c0,0.2,0.1,0.4,0.2,0.6c0.1,0.2,0.4,0.2,0.6,0.2h6.1c0.4,0,0.8-0.3,0.8-0.8c0,0,0,0,0,0v0
				c0-0.1,0-0.1,0-0.2l-1.8-36.8c0-0.2-0.1-0.4-0.2-0.5l-0.9-0.9c0.3-0.1,0.6-0.3,0.9-0.6c0.1-0.1,0.1-0.1,0.1-0.2
				c0,0,0.1,0,0.1,0.1c2.6,1.2,5.3,2.2,8.1,2.9c3.1,0.7,6.3,1.1,9.5,1.1c1.1,0,1.7,0,1.7,0c0.4,0,0.8-0.4,0.7-0.9
				c0-0.3-0.2-0.5-0.4-0.6c-3.3-1.9-6.8-3.3-10.5-4.2c-2.8-0.7-5.7-1.1-8.7-1.1c-0.1,0-0.2,0-0.2,0c-0.1-0.3-0.3-0.6-0.6-0.9
				c-0.3-0.3-0.6-0.5-1-0.6c0-0.1,0-0.1,0-0.2c0-0.1,0-0.1,0-0.2c-0.2-2.8-0.7-5.6-1.5-8.3c-1.1-3.6-2.6-7.1-4.7-10.3
				c-0.3-0.4-0.8-0.5-1.1-0.2c-0.2,0.1-0.3,0.4-0.3,0.6c0,3.8,0.5,7.5,1.6,11.2c0.8,2.7,1.9,5.4,3.3,7.9c0,0,0,0.1,0.1,0.1
				c0,0,0,0-0.1,0c-0.6,0.6-0.9,1.6-0.7,2.4c-0.1,0-0.1,0-0.2,0.1c-2.3,1.6-4.4,3.3-6.3,5.3c-2.6,2.7-4.8,5.8-6.6,9.2
				c-0.2,0.4,0,0.9,0.4,1.1c0.1,0.1,0.2,0.1,0.3,0.1c0.1,0,0.3,0,0.4-0.1C1777,93.6,1780,91.3,1782.7,88.6z M1791.8,79.8
				c2.5,0.1,5.1,0.5,7.5,1.1c2.5,0.6,4.9,1.5,7.2,2.6c-2.6-0.1-5.1-0.5-7.6-1C1796.4,81.8,1794.1,81,1791.8,79.8L1791.8,79.8z
				 M1790.7,119.4h-4.4l1.8-35.9l0.4-0.4l0.5,0.5L1790.7,119.4z M1789.1,80.1c-0.4,0.4-1.1,0.4-1.5,0c-0.4-0.4-0.4-1.1,0-1.5
				c0.4-0.4,1.1-0.4,1.5,0C1789.5,79,1789.5,79.6,1789.1,80.1L1789.1,80.1L1789.1,80.1z M1784.6,69c-0.7-2.5-1.2-5-1.4-7.5
				c2.4,4.5,3.8,9.4,4.2,14.4l-0.1,0C1786.3,73.7,1785.3,71.4,1784.6,69L1784.6,69z M1775.7,92.4c2.6-4.2,6-7.8,10.1-10.7
				c0,0,0.1,0.1,0.1,0.1l0,0C1783.2,86,1779.7,89.6,1775.7,92.4z M1830.2,93.7c-2.4-1.4-4.9-2.4-7.6-3.1c-2.1-0.5-4.2-0.8-6.3-0.8
				c0,0,0,0-0.1,0c-0.1-0.2-0.2-0.4-0.4-0.5c-0.2-0.2-0.4-0.3-0.6-0.4c0-0.1,0-0.1,0-0.2c-0.1-2-0.5-4-1.1-5.9
				c-0.8-2.6-1.9-5.1-3.4-7.5c-0.3-0.4-0.7-0.5-1.1-0.2c-0.2,0.1-0.3,0.4-0.3,0.6c0,2.7,0.4,5.5,1.1,8.1c0.6,2,1.4,3.8,2.3,5.6
				c-0.3,0.4-0.5,0.9-0.5,1.4c0,0.1,0,0.2,0,0.2l0,0c-1.6,1.1-3.2,2.4-4.5,3.8c-1.9,2-3.5,4.2-4.8,6.7c-0.2,0.4,0,0.9,0.4,1.1
				c0.2,0.1,0.5,0.1,0.7,0c3.4-1.9,6.4-4.6,8.8-7.8l-1.2,25.1c0,0.4,0.3,0.8,0.8,0.8h4.4c0.4,0,0.8-0.4,0.8-0.8c0-0.1,0-0.1,0-0.2
				l-1.3-26.2c0-0.2-0.1-0.4-0.2-0.5l-0.4-0.4c0.2-0.1,0.3-0.2,0.4-0.3l0,0c1.8,0.9,3.8,1.6,5.7,2.1c2.3,0.5,4.6,0.8,6.9,0.8
				c0.8,0,1.2,0,1.2,0c0.4,0,0.8-0.4,0.7-0.9C1830.6,94.1,1830.4,93.8,1830.2,93.7L1830.2,93.7z M1809.3,96.5c-1,1-2,1.9-3.2,2.8
				c1.6-2.3,3.6-4.4,5.8-6.1C1811.2,94.4,1810.3,95.5,1809.3,96.5L1809.3,96.5z M1813.8,90.8c0-0.3,0.2-0.6,0.6-0.6c0,0,0,0,0,0h0
				c0.3,0,0.6,0.3,0.6,0.6c0,0.1-0.1,0.3-0.2,0.4c-0.2,0.2-0.6,0.2-0.8,0C1813.9,91.1,1813.8,91,1813.8,90.8L1813.8,90.8z
				 M1811.1,79.2c0.6,1.3,1.1,2.6,1.5,3.9c0.4,1.4,0.7,2.7,0.8,4.1C1812.2,84.8,1811.4,82,1811.1,79.2L1811.1,79.2z M1813.2,119.2
				l1.3-25.3l0.1-0.1l0.1,0.1l1.3,25.2L1813.2,119.2z M1822.1,92.8c-1.4-0.3-2.7-0.8-4.1-1.3c2.8,0.2,5.6,0.9,8.2,2
				C1824.8,93.4,1823.4,93.2,1822.1,92.8L1822.1,92.8z"/>
			<path id="路径_15982-12_00000135660660943433934940000018405653239023546290_" class="st5" d="M1752.1,145.4
				c-0.1-0.5-0.5-0.9-1-0.9H1708c-0.5,0-0.9,0.4-1,0.9l-5.3,34.5c-0.1,0.6,0.3,1.1,0.9,1.2c0,0,0,0,0,0l0,0c0.1,0,0.1,0,0.2,0h19.8
				l-3.7,10.2h-6c-0.6,0-1,0.5-1,1v4c0,0.6,0.5,1,1,1h34.9c0.6,0,1-0.5,1-1v-4c0-0.6-0.5-1-1-1h-7.8l-3.7-10.2h19.5c0,0,0,0,0,0
				c0.6,0,1-0.5,1-1l0,0l0,0c0-0.1,0-0.2-0.1-0.3L1752.1,145.4z M1706.2,164h7.8l-0.7,6.5h-8.1L1706.2,164z M1707.5,155.4h7.4
				l-0.7,6.5h-7.7L1707.5,155.4z M1752.1,161.9h-7.6l-0.5-6.5h7.3L1752.1,161.9z M1742.5,161.9h-7.5l-0.2-6.5h7.2L1742.5,161.9z
				 M1725.9,161.9l0.3-6.5h6.5l0.2,6.5H1725.9z M1732.9,164l0.2,6.5h-7.7l0.3-6.5H1732.9z M1734.7,153.3l-0.2-6.7c0,0,0,0,0,0h6.7
				c0,0,0,0.1,0,0.1l0.5,6.6L1734.7,153.3z M1732.7,153.3h-6.3l0.4-6.6c0,0,0-0.1,0-0.1h5.8c0,0,0,0.1,0,0.1L1732.7,153.3z
				 M1724.6,146.6l-0.4,6.7h-7l0.7-6.6c0-0.1,0-0.1,0-0.2L1724.6,146.6L1724.6,146.6z M1724.1,155.4l-0.3,6.5h-7.5l0.7-6.5H1724.1z
				 M1716.1,164h7.6l-0.3,6.5h-8L1716.1,164z M1723.2,172.5l-0.3,6.5h-8.4l0.7-6.5H1723.2z M1725.3,172.5h7.9l0.2,6.5h-8.4
				L1725.3,172.5z M1735.2,172.5h8.1l0.5,6.5h-8.4L1735.2,172.5z M1735.2,170.5l-0.2-6.5h7.6l0.5,6.5H1735.2z M1744.7,164h7.7
				l0.8,6.5h-8L1744.7,164z M1751,153.3h-7.2l-0.5-6.7h6.8L1751,153.3z M1708.8,146.6h7l-0.7,6.7h-7.3L1708.8,146.6z M1704.8,172.5
				h8.2l-0.7,6.5h-8.5L1704.8,172.5z M1746.5,195.3h-32.8v-2h32.8V195.3z M1720.9,191.3l3.7-10.2h9.2l3.7,10.2H1720.9z M1745.9,179
				l-0.5-6.5h8.1l0.8,6.5H1745.9z"/>
			<path id="路径_15983-12_00000160153570193233678320000003385860133550342531_" class="st5" d="M1880.7,42h-4.7v-8.3h4.7
				L1880.7,42z M1902.6,33.7V42h-2.9v5.4h-29.1v-11c-14.2,5.8-30.3-1-36.1-15.2s1-30.3,15.2-36.1c14.2-5.8,30.3,1,36.1,15.2
				c3.8,9.4,2.2,20.1-4.2,28h18.1v5.4L1902.6,33.7z M1877.8,12.1c0,0.2,0.1,0.4,0.2,0.5l2.8,2.2c0.1,0.1,0.3,0.2,0.5,0.1l3-0.5
				c0.1,0,0.3,0,0.4,0.1l0,0c0.7-4.8,0-9.7-2-14.1c-0.2-0.1-0.4-0.1-0.5,0L1881,1c-0.2,0.1-0.3,0.3-0.3,0.5v2.6c0,0.1,0,0.2-0.1,0.3
				l-2.6,4.7c-0.1,0.1-0.1,0.2-0.1,0.3L1877.8,12.1z M1861.9-14.1l0.2,0.3c0.1,0.1,0.1,0.2,0.2,0.2l2.5,1.6c0.2,0.1,0.3,0.3,0.4,0.5
				c0.2,0.6,0.6,1.8,0.6,2c0,0.2,1.2,2.1,1.6,2.7c0.1,0.1,0.2,0.2,0.3,0.3c0.4,0.3,1,0.1,1.3-0.3c0,0,0-0.1,0-0.1l0.9-1.8
				c0.1-0.2,0.2-0.3,0.4-0.4l2.5-1.2c0,0,0,0,0.1,0l0.1,0C1869.7-12.6,1865.9-13.8,1861.9-14.1L1861.9-14.1z M1870.3,24.3l2.1-5.2
				c0.2-0.5,0-1.1-0.5-1.3c0,0,0,0,0,0l-4.6-1.6c-0.2-0.1-0.4-0.2-0.5-0.5l-0.4-0.7c-0.1-0.2-0.2-0.3-0.4-0.4l-3.4-2
				c-0.2-0.1-0.3-0.1-0.5-0.1h-2.9c-0.4,0-0.7,0.2-0.9,0.5l-0.2,0.4c-0.1,0-0.1,0-0.2,0c-0.2,0-0.4-0.1-0.6-0.3L1855,10
				c-0.2-0.2-0.5-0.4-0.8-0.3l-0.7,0.2c-0.2,0.1-0.4,0-0.6-0.1l-1-0.7c-0.3-0.2-0.4-0.5-0.4-0.9l0.3-1.1c0.1-0.4,0.4-0.6,0.8-0.6
				h3.8c0.3,0,0.5-0.1,0.7-0.4l2.5-4c0.1-0.1,0.2-0.3,0.4-0.3l2.2-0.9c0.2-0.1,0.3-0.2,0.4-0.3l2-2.9c0.2-0.3,0.2-0.7-0.1-1
				l-2.2-2.5c-0.1-0.1-0.2-0.2-0.4-0.2l-3-1c-0.4-0.1-0.9,0.1-1,0.5c0,0,0,0,0,0l0,0c0,0,0,0,0,0.1l-0.5,2.3c-0.1,0.4-0.5,0.7-1,0.6
				c-0.1,0-0.1,0-0.2-0.1l-2.6-1.2c-0.1-0.1-0.3-0.2-0.3-0.3l-0.5-0.9c-0.2-0.4-0.1-0.8,0.2-1.1l3.3-2.7c0.2-0.2,0.3-0.5,0.3-0.7
				l-0.1-0.9l0.9-0.1c0.2,0,0.4,0,0.6,0.2l0.9,0.6c0.2,0.1,0.3,0.4,0.3,0.6v0.4c0,0.3,0.1,0.5,0.4,0.7l1.7,1
				c0.4,0.2,0.8,0.1,1.1-0.2c0-0.1,0.1-0.2,0.1-0.2l0.2-1c0.1-0.2,0-0.5-0.2-0.7l-3.2-3.6c-0.2-0.2-0.5-0.3-0.7-0.2l-0.8,0.2
				c0,0-0.1,0-0.2,0h-1.3c-6.6,1.1-12.5,4.8-16.4,10.4l2,2c0.1,0.1,0.2,0.3,0.2,0.5l0.2,3.1c0,0.2,0.1,0.3,0.2,0.5l6.3,7.2
				c0.1,0.1,0.2,0.1,0.2,0.2l5.5,2.8c0,0,0,0,0,0l1.6,0.7c0.2,0.1,0.3,0.2,0.4,0.4l0.5,1c0.1,0.1,0.2,0.3,0.3,0.4l-0.6,2.1
				c-0.1,0.2,0,0.5,0.1,0.7l1.3,2.7c0.1,0.2,0.2,0.3,0.4,0.4l1.1,0.7c0.3,0.2,0.5,0.6,0.5,1l-1.5,10.1c0,0.2,0,0.4,0.1,0.6l1.1,2.1
				h0.3c0.6,0,1.1,0,1.7-0.1c0-0.2-0.1-0.4-0.2-0.6l-0.5-0.7c-0.2-0.3-0.3-0.7-0.1-1.1l1.6-2.9c0.1-0.2,0.2-0.3,0.4-0.4l1.2-0.7
				c0.1-0.1,0.2-0.1,0.3-0.2l3-3.4c0.1-0.1,0.3-0.2,0.5-0.3l1.5-0.4C1870,24.8,1870.2,24.6,1870.3,24.3L1870.3,24.3z M1896.9,31
				h-23.6v13.7h23.6L1896.9,31z"/>
		</g>
	</g>
</g>
</svg>
