<svg id="logon_en" xmlns="http://www.w3.org/2000/svg" xmlns:xlink="http://www.w3.org/1999/xlink" width="423.321" height="69.269" viewBox="0 0 423.321 69.269">
  <defs>
    <clipPath id="clip-path">
      <path id="路径_1" data-name="路径 1" d="M207.466,47.846a1.284,1.284,0,0,0-.693,1.2,1.54,1.54,0,0,0,.924,1.324l.8.432a4.794,4.794,0,0,1-.262.648,4.9,4.9,0,0,1-2.127,1.91l.185.448a5.246,5.246,0,0,0,1.634-.941,4.289,4.289,0,0,0,1.711-3.436,3.709,3.709,0,0,0-.247-1.326,1.73,1.73,0,0,0-1.187-.446,1.584,1.584,0,0,0-.74.184m21.345.046a1.363,1.363,0,0,0-.663,1.2,1.426,1.426,0,0,0,.216.755,1.386,1.386,0,0,0,1.233.663,1.507,1.507,0,0,0,.771-.216,1.33,1.33,0,0,0,.678-1.2,1.494,1.494,0,0,0-.216-.756,1.379,1.379,0,0,0-1.233-.677,1.46,1.46,0,0,0-.786.23m16.691,0a1.36,1.36,0,0,0-.662,1.2,1.426,1.426,0,0,0,.216.755,1.384,1.384,0,0,0,1.233.663,1.509,1.509,0,0,0,.77-.216,1.33,1.33,0,0,0,.678-1.2,1.485,1.485,0,0,0-.216-.756,1.379,1.379,0,0,0-1.232-.677,1.458,1.458,0,0,0-.787.23m15.889,0a1.363,1.363,0,0,0-.663,1.2,1.426,1.426,0,0,0,.216.755,1.386,1.386,0,0,0,1.233.663,1.51,1.51,0,0,0,.771-.216,1.33,1.33,0,0,0,.678-1.2,1.485,1.485,0,0,0-.216-.756,1.378,1.378,0,0,0-1.233-.677,1.46,1.46,0,0,0-.786.23M98.06,41.651v.478l1.093.138-1.664,2.667-1.726-2.7,1.094-.108v-.478H92v.478l.832.092,2.635,4.146-2.358,3.267-1.248.139v.493H95.1v-.493l-1.125-.139,1.772-2.82L97.566,49.7l-1.187.077.032.493h4.916v-.493l-.786-.062L97.767,45.38l2.265-3.1,1.048-.154v-.478Zm50.349,0v.478l1.233.154-1.9,5.609-1.973-5.64,1.14-.123v-.478h-4.839v.478l.971.123,3.175,8.045h1.094l3.052-8,1.125-.169v-.478Zm162.87,0v.478l1.433.154-1.68,5.609-1.926-5.625,1.218-.138v-.478h-4.115v.478l1.233.123L305.577,48,303.8,42.237l1.233-.108v-.478h-4.654v.478l.848.092,2.882,8.076h1.079l2.219-6.242q.384,1.311,2.173,6.242h1.063l2.8-8.014,1.079-.154v-.478Zm-185.941.37v.354l1.063.2-.077,5.84a2.356,2.356,0,0,1-1.618.756,1.059,1.059,0,0,1-.185-.016q-1.064-.091-1.063-1.633V44.209l.092-2.574-.2-.154-3.5.463v.431l1.1.216-.063,4.686c0,.266.011.518.032.754q.231,2.5,2.512,2.5c.093,0,.194-.005.308-.015a3.87,3.87,0,0,0,2.62-1.6l.077,1.572,3.468-.2V49.8l-1-.078V44.209l.061-2.574-.2-.154Zm54.757,0v.354l1.063.2-.076,5.84a2.358,2.358,0,0,1-1.618.756,1.054,1.054,0,0,1-.186-.016q-1.062-.091-1.063-1.633V44.209l.092-2.574-.2-.154-3.5.463v.431l1.094.216-.061,4.686c0,.266.01.518.031.754q.232,2.5,2.512,2.5c.092,0,.195-.005.308-.015a3.868,3.868,0,0,0,2.62-1.6l.078,1.572,3.467-.2V49.8l-1-.078V44.209l.061-2.574-.2-.154Zm-42.967.324v.385l1.171.123q.062,1.588.062,2.389v1.263q0,.4-.046,3.175l-1.034.093v.493h4.609v-.493l-.971-.093q-.03-1.818-.03-3.175V44.086l.061-2.527-.216-.155Zm158.292,0v.385l1.171.123q.061,1.588.062,2.389v1.263q0,.4-.046,3.175l-1.034.093v.493h4.609v-.493l-.971-.093q-.03-1.818-.03-3.175V44.086l.061-2.527-.216-.155Zm-191,3.02a9.386,9.386,0,0,1,.216-1.849q.416-1.588,1.418-1.588a1.289,1.289,0,0,1,.555.123q.894.448.894,1.989a3.165,3.165,0,0,1-.078.786.791.791,0,0,1-.863.554Zm-.986-3.082a4.3,4.3,0,0,0-1.711,3.636,4.77,4.77,0,0,0,.971,3.068,4.32,4.32,0,0,0,3.56,1.541,4.369,4.369,0,0,0,.818-.077,3.479,3.479,0,0,0,2.7-2.049l-.293-.186a2.759,2.759,0,0,1-2.312,1.2,2.8,2.8,0,0,1-1.017-.186q-1.648-.662-1.726-3.3h5.363a3.757,3.757,0,0,0,.093-.956,3.847,3.847,0,0,0-.554-2.066,3.376,3.376,0,0,0-3.083-1.541,4.607,4.607,0,0,0-2.8.91m9.263.015a4.29,4.29,0,0,0-1.726,3.668,4.576,4.576,0,0,0,1.094,3.159,4.218,4.218,0,0,0,3.313,1.4,3.862,3.862,0,0,0,3.591-2.035l-.308-.2a2.751,2.751,0,0,1-2.173,1.125,2.606,2.606,0,0,1-1.48-.432,3.647,3.647,0,0,1-1.356-3.267,5.574,5.574,0,0,1,.462-2.4,2.134,2.134,0,0,1,1.973-1.388c.082,0,.226.011.432.031l.169,1.217v.032q.091,1.525,1.264,1.525A1.044,1.044,0,0,0,119,43.885a2.791,2.791,0,0,0-.586-1.356,3.27,3.27,0,0,0-2.666-1.156,5.061,5.061,0,0,0-3.051.925m41.688,3.067a9.238,9.238,0,0,1,.216-1.849q.416-1.588,1.417-1.588a1.289,1.289,0,0,1,.555.123q.894.448.894,1.989a3.221,3.221,0,0,1-.077.786.792.792,0,0,1-.863.554Zm-.987-3.082a4.3,4.3,0,0,0-1.711,3.636,4.77,4.77,0,0,0,.971,3.068,4.794,4.794,0,0,0,4.378,1.464,3.479,3.479,0,0,0,2.7-2.049l-.293-.186a2.757,2.757,0,0,1-2.311,1.2,2.8,2.8,0,0,1-1.017-.186q-1.65-.662-1.726-3.3h5.363a4.363,4.363,0,0,0-.462-3.022,3.376,3.376,0,0,0-3.083-1.541,4.607,4.607,0,0,0-2.805.91m34.661,5.795a2.472,2.472,0,0,1,1.679-2.358,8.576,8.576,0,0,1,.864-.262V48.74a.519.519,0,0,1-.077.062,2.158,2.158,0,0,1-1.3.662q-1.141-.013-1.171-1.386m-.216-6.412a2.418,2.418,0,0,0-1.865,2.143,1.02,1.02,0,0,0,1.1.8,2.159,2.159,0,0,0,.231-.015q.894-.186.955-1.48l.108-1.125a3.394,3.394,0,0,1,.663-.062,1.865,1.865,0,0,1,1.017.231q.555.4.555,1.912v.956l-1.541.415a9.072,9.072,0,0,0-2.328.971,2.262,2.262,0,0,0-1.032,1.972A2.15,2.15,0,0,0,186,49.51a2.118,2.118,0,0,0,2,1.018,3.377,3.377,0,0,0,1.11-.17,4.2,4.2,0,0,0,1.557-1.2,1.765,1.765,0,0,0,1.865,1.372,3.217,3.217,0,0,0,.462-.031,1.919,1.919,0,0,0,1.541-1.186l-.262-.232q-.355.57-.709.6c-.319-.009-.484-.278-.493-.8V44.625a4.75,4.75,0,0,0-.309-1.849q-.632-1.4-2.835-1.4a6.7,6.7,0,0,0-2.081.293m13.3-.262a4.082,4.082,0,0,0-2.5,1.542l-.093-1.387-.216-.155-3.421.987v.385l1.171.123q.048,1.127.047,2.3v1.309q0,1.326-.032,3.175l-1.047.093v.493h4.562v-.493l-.909-.077q-.033-1.849-.032-3.191V43.47a3.013,3.013,0,0,1,1.8-.909,1.617,1.617,0,0,1,.323.03q.771.185.77,1.649v2.265q0,1.357-.03,3.175l-1,.093v.493h4.578v-.493l-.941-.077q-.047-1.356-.046-3.191v-2.08a4.244,4.244,0,0,0-.246-1.511,2.218,2.218,0,0,0-2.281-1.541,3.429,3.429,0,0,0-.463.031m87.369,6.674A2.47,2.47,0,0,1,290.2,45.72a8.5,8.5,0,0,1,.864-.262V48.74a.576.576,0,0,1-.077.062,2.158,2.158,0,0,1-1.295.662q-1.142-.013-1.171-1.386m-.216-6.412a2.418,2.418,0,0,0-1.865,2.143,1.019,1.019,0,0,0,1.094.8,2.176,2.176,0,0,0,.232-.015q.893-.186.954-1.48l.108-1.125a3.4,3.4,0,0,1,.664-.062,1.865,1.865,0,0,1,1.017.231q.555.4.555,1.912v.956l-1.542.415a9.078,9.078,0,0,0-2.327.971,2.259,2.259,0,0,0-1.032,1.972,2.159,2.159,0,0,0,.292,1.125,2.121,2.121,0,0,0,2,1.018,3.367,3.367,0,0,0,1.109-.17,4.2,4.2,0,0,0,1.557-1.2,1.767,1.767,0,0,0,1.865,1.372,3.222,3.222,0,0,0,.463-.031,1.918,1.918,0,0,0,1.54-1.186l-.261-.232q-.355.57-.71.6c-.318-.009-.483-.278-.493-.8V44.625a4.731,4.731,0,0,0-.309-1.849q-.631-1.4-2.835-1.4a6.69,6.69,0,0,0-2.08.293m28.85,6.412a2.473,2.473,0,0,1,1.68-2.358,8.544,8.544,0,0,1,.863-.262V48.74a.471.471,0,0,1-.077.062,2.158,2.158,0,0,1-1.295.662q-1.14-.013-1.171-1.386m-.215-6.412a2.418,2.418,0,0,0-1.865,2.143,1.019,1.019,0,0,0,1.1.8,2.157,2.157,0,0,0,.23-.015q.894-.186.956-1.48l.108-1.125a3.369,3.369,0,0,1,.662-.062,1.863,1.863,0,0,1,1.017.231q.555.4.555,1.912v.956l-1.541.415a9.072,9.072,0,0,0-2.328.971,2.261,2.261,0,0,0-1.031,1.972,2.159,2.159,0,0,0,.292,1.125,2.12,2.12,0,0,0,2,1.018,3.386,3.386,0,0,0,1.11-.17,4.193,4.193,0,0,0,1.556-1.2,1.765,1.765,0,0,0,1.865,1.372,3.208,3.208,0,0,0,.462-.031,1.918,1.918,0,0,0,1.541-1.186l-.262-.232q-.355.57-.708.6c-.32-.009-.484-.278-.494-.8V44.625a4.77,4.77,0,0,0-.308-1.849q-.632-1.4-2.836-1.4a6.7,6.7,0,0,0-2.08.293m13.3-.262a4.082,4.082,0,0,0-2.5,1.542l-.092-1.387-.216-.155-3.422.987v.385l1.172.123q.045,1.127.046,2.3v1.309q0,1.326-.031,3.175l-1.048.093v.493h4.562v-.493L327.8,49.7q-.031-1.849-.032-3.191V43.47a3.015,3.015,0,0,1,1.8-.909,1.62,1.62,0,0,1,.324.03q.77.185.77,1.649v2.265q0,1.357-.03,3.175l-1,.093v.493h4.577v-.493l-.94-.077q-.047-1.356-.046-3.191v-2.08a4.243,4.243,0,0,0-.247-1.511,2.218,2.218,0,0,0-2.281-1.541,3.44,3.44,0,0,0-.463.031m-197.453-2.3-.832,2.527-1.4.154V42.3h1.28v4.038q0,.339-.017.909v.817c0,.164.006.329.017.493q.215,1.972,2.449,1.973a2.678,2.678,0,0,0,2.482-1.31l-.278-.247a.392.392,0,0,1-.077.062,1.61,1.61,0,0,1-.986.447q-1.017-.015-1.048-1.217V42.3h1.958v-.647h-1.958l.031-2.543ZM81.77,38.475v.541l1.417.123q.048,1.618.047,4.9v.693q0,3.252-.047,4.855l-1.417.138v.54h9.354L91.094,47h-.879l-.724,2.651h-3.56q-.031-1.633-.031-5.07v-.046h2.173l.216,1.68h.785V42.221h-.785l-.232,1.742H85.9q0-3.284.031-4.87h3.205l.725,2.527h.925l.015-3.145Zm89.988,0v.541l1.556.2-2.435,5.333L168.4,39.169l1.571-.153v-.541h-5.486v.541l.878.077,3.206,6.549q0,2.22-.046,3.93l-1.587.154v.54h5.933v-.54l-1.6-.154q-.031-1.216-.032-4.376l2.929-5.995,1.295-.185v-.541Zm47.775.6h.91a3.3,3.3,0,0,1,.647.062,2.083,2.083,0,0,1,1.773,2.358,3.66,3.66,0,0,1-.108.909,2.125,2.125,0,0,1-2.327,1.711h-.94q0-3.438.045-5.04m-4.114-.6v.541l1.417.123q.048,1.618.047,4.9v.693q0,3.252-.047,4.855l-1.417.138v.54h5.563v-.54l-1.449-.138q-.045-1.6-.045-4.885h.77a1.916,1.916,0,0,1,.971.216,2.24,2.24,0,0,1,.848,1.694l.462,2.189a2.1,2.1,0,0,0,.216.755q.462.94,2.188.94a8.25,8.25,0,0,0,1.88-.231v-.54l-1.4-.077-.524-2.6a4.289,4.289,0,0,0-.462-1.432,3.062,3.062,0,0,0-2.4-1.279,7.694,7.694,0,0,0,1.341-.34,2.641,2.641,0,0,0,2.02-2.542,2.848,2.848,0,0,0-.278-1.264q-.879-1.711-4.007-1.712Zm60.352,0-.062,3.376h.924l.787-2.758h2.172q.046,2.42.047,4.947v.693q0,2.467-.047,4.839l-1.587.154v.54h5.933v-.54l-1.6-.154q-.031-1.6-.031-4.854V44.04q0-3.313.031-4.947h2.188l.8,2.758h.924l-.076-3.376ZM236.548,49.464q-1.434-1.28-1.433-5.1a11.7,11.7,0,0,1,.369-3.143q.695-2.451,2.451-2.451a2.057,2.057,0,0,1,1.417.554q1.387,1.311,1.388,5.04a11.637,11.637,0,0,1-.385,3.206q-.694,2.419-2.42,2.419a2.043,2.043,0,0,1-1.387-.524m-2.235-9.986a6.093,6.093,0,0,0-1.988,4.885,6.358,6.358,0,0,0,1.649,4.608,5.283,5.283,0,0,0,3.961,1.6,5.4,5.4,0,0,0,3.575-1.248,6.164,6.164,0,0,0,2-4.963,6.353,6.353,0,0,0-1.634-4.577,5.21,5.21,0,0,0-3.945-1.618,5.383,5.383,0,0,0-3.622,1.31m17.03-.108a5.735,5.735,0,0,0-2.327,4.993,6.146,6.146,0,0,0,1.587,4.424,6.233,6.233,0,0,0,4.7,1.787,6.866,6.866,0,0,0,3.576-.925l-.062-2.835h-.925l-.848,2.943a3.7,3.7,0,0,1-1.233.216,3.615,3.615,0,0,1-1.941-.524q-2.065-1.263-2.065-5.07a7.644,7.644,0,0,1,.8-3.745,3.413,3.413,0,0,1,3.144-1.865,4.222,4.222,0,0,1,1.156.154l.863,3.005h.94l.062-2.866a.182.182,0,0,0-.062-.031,6.733,6.733,0,0,0-3.283-.863,6.836,6.836,0,0,0-4.084,1.2M138.885,37.413a1.257,1.257,0,0,0-.493,1.772,1.28,1.28,0,0,0,1.171.632,1.564,1.564,0,0,0,.678-.154,1.2,1.2,0,0,0,.694-1.125,1.264,1.264,0,0,0-.186-.663,1.291,1.291,0,0,0-1.186-.632,1.438,1.438,0,0,0-.678.17m133.957,1.156a9.439,9.439,0,0,0-2.743,6.719,9.856,9.856,0,0,0,.277,2.358,10.7,10.7,0,0,0,3.915,5.7l.37-.355a14.543,14.543,0,0,1-1.464-2.235,11.76,11.76,0,0,1-1.2-5.471,14.5,14.5,0,0,1,.247-2.82,11.191,11.191,0,0,1,2.42-4.871l-.37-.354a15.132,15.132,0,0,0-1.449,1.326m24.335-1.156a1.257,1.257,0,0,0-.493,1.772,1.28,1.28,0,0,0,1.171.632,1.564,1.564,0,0,0,.678-.154,1.2,1.2,0,0,0,.694-1.125,1.263,1.263,0,0,0-.186-.663,1.291,1.291,0,0,0-1.186-.632,1.438,1.438,0,0,0-.678.17m37.666.184a15.19,15.19,0,0,1,1.464,2.25,11.712,11.712,0,0,1,1.2,5.441,15.164,15.164,0,0,1-.231,2.805,11.447,11.447,0,0,1-2.435,4.9l.369.355a16.744,16.744,0,0,0,1.249-1.126,9.522,9.522,0,0,0,2.943-6.935,10.146,10.146,0,0,0-.292-2.466,10.973,10.973,0,0,0-3.9-5.579ZM108.463,21.973v.479l1.233.153-1.9,5.611-1.973-5.642,1.141-.122v-.479h-4.84v.479l.972.122,3.174,8.045h1.094l3.051-8,1.125-.169v-.479Zm3.606.694v.385l1.172.123q.06,1.589.061,2.389v1.265q0,.4-.047,3.174l-1.032.093v.493h4.608V30.1L115.86,30q-.03-1.818-.031-3.174V24.408l.061-2.527-.215-.154Zm156.072,0v.385l1.172.123q.062,1.589.061,2.389v1.265q0,.4-.045,3.174L268.3,30.1v.493H272.9V30.1L271.932,30q-.029-1.818-.03-3.174V24.408l.062-2.527-.216-.154Zm69.045,0v.385l1.171.123q.06,1.589.062,2.389v1.265q0,.4-.047,3.174l-1.032.093v.493h4.608V30.1L340.977,30q-.031-1.818-.031-3.174V24.408l.061-2.527-.216-.154Zm16.628,0v.385l1.172.123q.062,1.589.061,2.389v1.265q0,.4-.046,3.174l-1.033.093v.493h4.609V30.1L357.606,30q-.031-1.818-.032-3.174V24.408l.063-2.527-.216-.154Zm43.662,0v.385l1.171.123q.06,1.589.062,2.389v1.265q0,.4-.047,3.174l-1.032.093v.493h4.608V30.1L401.267,30q-.031-1.818-.031-3.174V24.408l.061-2.527-.216-.154Zm-299.109-.94a4.08,4.08,0,0,0-2.5,1.541l-.093-1.387-.215-.154-3.422.986V23.1l1.172.124q.046,1.125.046,2.3v1.311q0,1.324-.031,3.174L92.28,30.1v.493h4.562V30.1l-.909-.078q-.031-1.849-.032-3.189V23.792a3.027,3.027,0,0,1,1.8-.909,1.678,1.678,0,0,1,.323.031q.771.185.771,1.649v2.266q0,1.356-.031,3.174l-1,.093v.493h4.577V30.1l-.941-.078q-.046-1.354-.046-3.189V24.748a4.234,4.234,0,0,0-.246-1.51A2.219,2.219,0,0,0,98.83,21.7a3.6,3.6,0,0,0-.463.031m24.69.2a3.373,3.373,0,0,0-1.633,2.2l-.124-2.25-.216-.154-3.421.986V23.1l1.171.124q.048,1.125.047,2.3v1.311q0,1.339-.031,3.159l-1.063.108v.493h5.131V30.1l-1.463-.139q-.033-1.849-.031-3.128V25.518a.921.921,0,0,1,.045-.154,4.648,4.648,0,0,1,1.265-2.266l.154.185c.051.073.108.144.169.216a1.627,1.627,0,0,0,1.233.725q1.019-.015,1.156-1.279A1.408,1.408,0,0,0,123.92,21.7a1.814,1.814,0,0,0-.863.231m5.332,4.331q0-3.975,1.773-4.007,1.727.016,1.741,4.007,0,4.023-1.741,4.054-1.757-.016-1.773-4.054m-1.125-3.591a4.336,4.336,0,0,0-1.572,3.56,4.83,4.83,0,0,0,.925,3.006,4.189,4.189,0,0,0,3.545,1.618,4.521,4.521,0,0,0,2.852-.909,4.43,4.43,0,0,0,1.618-3.715,4.539,4.539,0,0,0-1.111-3.129,4.3,4.3,0,0,0-3.359-1.4,4.509,4.509,0,0,0-2.9.971m14.534-.94a4.077,4.077,0,0,0-2.5,1.541l-.093-1.387-.216-.154-3.42.986V23.1l1.17.124q.048,1.125.047,2.3v1.311q0,1.324-.031,3.174l-1.048.093v.493h4.562V30.1l-.909-.078q-.032-1.849-.031-3.189V23.792a3.022,3.022,0,0,1,1.8-.909,1.678,1.678,0,0,1,.323.031q.771.185.771,1.649v2.266q0,1.356-.031,3.174l-1,.093v.493h4.577V30.1l-.941-.078q-.045-1.354-.046-3.189V24.748a4.212,4.212,0,0,0-.246-1.51A2.218,2.218,0,0,0,142.26,21.7a3.585,3.585,0,0,0-.462.031m16.1,0a4.132,4.132,0,0,0-2.434,1.618,2.209,2.209,0,0,0-2.312-1.649h-.185a3.789,3.789,0,0,0-2.667,1.587l-.107-1.4-.216-.154-3.421.986v.371l1.171.122q.046,1.143.046,2.312v1.311q0,1.324-.031,3.174L146.7,30.1v.493h4.562V30.1l-.909-.078q-.03-1.849-.031-3.189V23.824a2.727,2.727,0,0,1,1.741-.926,1.6,1.6,0,0,1,.324.031q.771.2.771,1.773v2.127q0,1.356-.031,3.174l-1.017.093v.493h4.469V30.1l-.894-.078q-.047-1.354-.046-3.189V24.748a5.858,5.858,0,0,0-.062-.91,2.685,2.685,0,0,1,1.773-.94,1.28,1.28,0,0,1,.463.078q.646.246.647,1.726v2.127q0,1.356-.031,3.174l-.956.093v.493h4.47V30.1L161,30q-.048-2.651-.047-3.174V24.841a5.952,5.952,0,0,0-.123-1.28A2.222,2.222,0,0,0,158.4,21.7a4.1,4.1,0,0,0-.493.031m7.692,3.961a9.264,9.264,0,0,1,.215-1.85q.417-1.587,1.417-1.587a1.308,1.308,0,0,1,.556.123q.893.447.893,1.989a3.22,3.22,0,0,1-.076.785.8.8,0,0,1-.863.556Zm-.987-3.083a4.3,4.3,0,0,0-1.711,3.638,4.756,4.756,0,0,0,.971,3.066,4.314,4.314,0,0,0,3.56,1.542,4.261,4.261,0,0,0,.817-.077,3.479,3.479,0,0,0,2.7-2.05l-.293-.185a2.84,2.84,0,0,1-3.328,1.017q-1.65-.661-1.726-3.3h5.363a4.353,4.353,0,0,0-.463-3.02,3.375,3.375,0,0,0-3.082-1.542,4.606,4.606,0,0,0-2.805.909m13.592-.878a4.084,4.084,0,0,0-2.5,1.541l-.091-1.387-.216-.154-3.422.986V23.1l1.172.124q.045,1.125.046,2.3v1.311q0,1.324-.031,3.174l-1.049.093v.493h4.563V30.1l-.909-.078q-.031-1.849-.032-3.189V23.792a3.027,3.027,0,0,1,1.8-.909,1.7,1.7,0,0,1,.324.031q.77.185.77,1.649v2.266q0,1.356-.031,3.174l-1,.093v.493h4.577V30.1l-.94-.078q-.046-1.354-.046-3.189V24.748a4.234,4.234,0,0,0-.247-1.51,2.219,2.219,0,0,0-2.281-1.542,3.613,3.613,0,0,0-.463.031M191.855,28.4a2.47,2.47,0,0,1,1.679-2.358c.186-.071.473-.158.863-.262v3.283a.406.406,0,0,1-.076.061,2.158,2.158,0,0,1-1.295.664q-1.142-.016-1.171-1.388m-.216-6.411a2.418,2.418,0,0,0-1.865,2.142,1.018,1.018,0,0,0,1.094.8,1.729,1.729,0,0,0,.231-.015q.894-.184.956-1.479l.108-1.125a3.384,3.384,0,0,1,.662-.062,1.853,1.853,0,0,1,1.017.232q.557.4.555,1.91v.956l-1.541.416a9.114,9.114,0,0,0-2.327.971,2.261,2.261,0,0,0-1.032,1.973,2.166,2.166,0,0,0,.292,1.125,2.124,2.124,0,0,0,2,1.017,3.4,3.4,0,0,0,1.109-.17,4.2,4.2,0,0,0,1.557-1.2,1.766,1.766,0,0,0,1.865,1.372,3.357,3.357,0,0,0,.462-.031,1.922,1.922,0,0,0,1.542-1.187l-.262-.23c-.237.379-.474.58-.71.6q-.477-.015-.493-.8V24.949a4.758,4.758,0,0,0-.308-1.851q-.633-1.4-2.835-1.4a6.7,6.7,0,0,0-2.081.293m33-.062a3.374,3.374,0,0,0-1.634,2.2l-.123-2.25-.216-.154-3.421.986V23.1l1.171.124q.046,1.125.047,2.3v1.311q0,1.339-.032,3.159l-1.063.108v.493H224.5V30.1l-1.463-.139Q223,28.108,223,26.829V25.518a.845.845,0,0,1,.047-.154,4.637,4.637,0,0,1,1.263-2.266l.154.185c.052.073.108.144.17.216a1.624,1.624,0,0,0,1.233.725q1.017-.015,1.155-1.279A1.407,1.407,0,0,0,225.5,21.7a1.815,1.815,0,0,0-.864.231m5.332,4.331q0-3.975,1.773-4.007,1.725.016,1.741,4.007,0,4.023-1.741,4.054-1.758-.016-1.773-4.054m-1.125-3.591a4.336,4.336,0,0,0-1.572,3.56,4.824,4.824,0,0,0,.925,3.006,4.187,4.187,0,0,0,3.545,1.618,4.516,4.516,0,0,0,2.851-.909,4.431,4.431,0,0,0,1.619-3.715A4.539,4.539,0,0,0,235.1,23.1a4.3,4.3,0,0,0-3.359-1.4,4.509,4.509,0,0,0-2.9.971m17.493,3.021a9.337,9.337,0,0,1,.215-1.85q.417-1.587,1.418-1.587a1.3,1.3,0,0,1,.555.123q.894.447.894,1.989a3.212,3.212,0,0,1-.077.785.794.794,0,0,1-.863.556Zm-.987-3.083a4.3,4.3,0,0,0-1.711,3.638,4.762,4.762,0,0,0,.971,3.066,4.792,4.792,0,0,0,4.378,1.465,3.479,3.479,0,0,0,2.7-2.05l-.293-.185a2.84,2.84,0,0,1-3.328,1.017q-1.65-.661-1.726-3.3H251.7a4.358,4.358,0,0,0-.462-3.02,3.378,3.378,0,0,0-3.084-1.542,4.605,4.605,0,0,0-2.8.909m9.262.016a4.29,4.29,0,0,0-1.726,3.668,4.582,4.582,0,0,0,1.094,3.16,4.22,4.22,0,0,0,3.314,1.4,3.864,3.864,0,0,0,3.59-2.034l-.308-.2a2.745,2.745,0,0,1-2.172,1.125,2.594,2.594,0,0,1-1.48-.432,3.646,3.646,0,0,1-1.356-3.267,5.592,5.592,0,0,1,.461-2.4A2.134,2.134,0,0,1,258,22.251c.082,0,.227.011.432.031l.17,1.217v.031q.093,1.526,1.263,1.526a1.046,1.046,0,0,0,1.049-.847,2.781,2.781,0,0,0-.586-1.357,3.269,3.269,0,0,0-2.666-1.156,5.073,5.073,0,0,0-3.052.925M276.6,26.258q0-3.975,1.773-4.007,1.727.016,1.741,4.007,0,4.023-1.741,4.054-1.756-.016-1.773-4.054m-1.125-3.591a4.336,4.336,0,0,0-1.572,3.56,4.83,4.83,0,0,0,.925,3.006,4.189,4.189,0,0,0,3.545,1.618,4.523,4.523,0,0,0,2.852-.909,4.43,4.43,0,0,0,1.618-3.715,4.539,4.539,0,0,0-1.111-3.129,4.3,4.3,0,0,0-3.359-1.4,4.509,4.509,0,0,0-2.9.971m14.534-.94a4.077,4.077,0,0,0-2.5,1.541l-.093-1.387-.216-.154-3.421.986V23.1l1.171.124q.048,1.125.047,2.3v1.311q0,1.324-.031,3.174l-1.048.093v.493h4.562V30.1l-.909-.078q-.031-1.849-.031-3.189V23.792a3.019,3.019,0,0,1,1.8-.909,1.678,1.678,0,0,1,.323.031q.771.185.771,1.649v2.266q0,1.356-.031,3.174l-1,.093v.493h4.578V30.1l-.941-.078Q293,28.663,293,26.829V24.748a4.234,4.234,0,0,0-.246-1.51,2.219,2.219,0,0,0-2.281-1.542,3.574,3.574,0,0,0-.462.031m42.3,0a4.134,4.134,0,0,0-2.435,1.618,2.208,2.208,0,0,0-2.312-1.649h-.185a3.789,3.789,0,0,0-2.666,1.587l-.108-1.4-.216-.154-3.421.986v.371l1.171.122q.048,1.143.047,2.312v1.311q0,1.324-.031,3.174l-1.048.093v.493h4.562V30.1l-.909-.078q-.033-1.849-.031-3.189V23.824a2.724,2.724,0,0,1,1.741-.926,1.619,1.619,0,0,1,.324.031q.771.2.77,1.773v2.127q0,1.356-.03,3.174l-1.017.093v.493h4.469V30.1l-.894-.078q-.047-1.354-.046-3.189V24.748a5.86,5.86,0,0,0-.062-.91,2.681,2.681,0,0,1,1.773-.94,1.262,1.262,0,0,1,.461.078q.648.246.648,1.726v2.127q0,1.356-.03,3.174l-.956.093v.493h4.469V30.1l-.94-.093q-.047-2.651-.046-3.174V24.841a5.952,5.952,0,0,0-.123-1.28,2.223,2.223,0,0,0-2.436-1.865,4.1,4.1,0,0,0-.493.031m16.691,0a4.082,4.082,0,0,0-2.5,1.541l-.092-1.387-.216-.154-3.421.986V23.1l1.171.124q.047,1.125.047,2.3v1.311q0,1.324-.032,3.174l-1.047.093v.493h4.562V30.1l-.91-.078q-.032-1.849-.031-3.189V23.792a3.022,3.022,0,0,1,1.8-.909,1.68,1.68,0,0,1,.324.031q.771.185.771,1.649v2.266q0,1.356-.031,3.174l-1,.093v.493h4.578V30.1l-.941-.078Q352,28.663,352,26.829V24.748a4.257,4.257,0,0,0-.246-1.51,2.22,2.22,0,0,0-2.282-1.542,3.585,3.585,0,0,0-.462.031m12.1.462a2.535,2.535,0,0,0-1.4,2.374q.014,1.865,2.25,2.589l.924.262a6.087,6.087,0,0,1,.8.324,1.34,1.34,0,0,1,.756,1.217q-.015,1.265-1.865,1.279A3.666,3.666,0,0,1,361.273,30l-.477-2.08h-1.017l-.124,2.142a6.463,6.463,0,0,0,3.129.786,5.684,5.684,0,0,0,2.143-.37,2.556,2.556,0,0,0,1.71-2.527q-.047-1.881-2.389-2.667l-.924-.262c-.186-.061-.36-.123-.525-.184q-1.032-.447-1.032-1.264a1.161,1.161,0,0,1,.123-.525,1.467,1.467,0,0,1,1.48-.755,2.757,2.757,0,0,1,1.125.247l.6,1.864h.894l.123-1.988a6.18,6.18,0,0,0-2.789-.724,4.61,4.61,0,0,0-2.22.493m18.124-.262a3.374,3.374,0,0,0-1.634,2.2l-.122-2.25-.216-.154-3.422.986V23.1l1.172.124q.045,1.125.046,2.3v1.311q0,1.339-.031,3.159l-1.064.108v.493h5.133V30.1l-1.464-.139q-.031-1.849-.032-3.128V25.518a.935.935,0,0,1,.047-.154A4.638,4.638,0,0,1,378.9,23.1l.154.185c.052.073.108.144.17.216a1.625,1.625,0,0,0,1.233.725q1.017-.015,1.156-1.279a1.408,1.408,0,0,0-1.525-1.249,1.818,1.818,0,0,0-.864.231m4.978,6.473a2.471,2.471,0,0,1,1.68-2.358c.185-.071.472-.158.863-.262v3.283a.414.414,0,0,1-.077.061,2.158,2.158,0,0,1-1.295.664q-1.14-.016-1.171-1.388m-.216-6.411a2.416,2.416,0,0,0-1.864,2.142,1.018,1.018,0,0,0,1.094.8,1.715,1.715,0,0,0,.23-.015q.894-.184.956-1.479l.108-1.125a3.387,3.387,0,0,1,.663-.062,1.856,1.856,0,0,1,1.017.232q.555.4.555,1.91v.956l-1.542.416a9.1,9.1,0,0,0-2.326.971,2.26,2.26,0,0,0-1.033,1.973,2.167,2.167,0,0,0,.293,1.125,2.12,2.12,0,0,0,2,1.017,3.4,3.4,0,0,0,1.11-.17,4.2,4.2,0,0,0,1.557-1.2,1.765,1.765,0,0,0,1.865,1.372,3.342,3.342,0,0,0,.461-.031,1.919,1.919,0,0,0,1.542-1.187l-.262-.23c-.236.379-.473.58-.709.6q-.479-.015-.493-.8V24.949a4.757,4.757,0,0,0-.309-1.851q-.632-1.4-2.835-1.4a6.7,6.7,0,0,0-2.081.293m21.947,4.269q0-3.975,1.772-4.007,1.725.016,1.742,4.007,0,4.023-1.742,4.054-1.757-.016-1.772-4.054m-1.125-3.591a4.333,4.333,0,0,0-1.572,3.56,4.829,4.829,0,0,0,.924,3.006,4.187,4.187,0,0,0,3.545,1.618,4.516,4.516,0,0,0,2.851-.909,4.43,4.43,0,0,0,1.618-3.715,4.537,4.537,0,0,0-1.109-3.129,4.307,4.307,0,0,0-3.36-1.4,4.5,4.5,0,0,0-2.9.971m14.532-.94a4.08,4.08,0,0,0-2.5,1.541l-.092-1.387-.216-.154-3.422.986V23.1l1.172.124q.045,1.125.046,2.3v1.311q0,1.324-.031,3.174l-1.048.093v.493h4.562V30.1l-.909-.078q-.031-1.849-.032-3.189V23.792a3.027,3.027,0,0,1,1.8-.909,1.7,1.7,0,0,1,.324.031q.77.185.77,1.649v2.266q0,1.356-.03,3.174l-1,.093v.493h4.577V30.1l-.94-.078q-.048-1.354-.046-3.189V24.748a4.234,4.234,0,0,0-.247-1.51,2.219,2.219,0,0,0-2.281-1.542,3.613,3.613,0,0,0-.463.031m-234.379-2.3-.832,2.528-1.4.154v.508h1.278v4.037q0,.34-.015.91v.817c0,.164,0,.329.015.493q.218,1.973,2.451,1.973a2.681,2.681,0,0,0,2.481-1.31l-.277-.246a.691.691,0,0,1-.077.061,1.607,1.607,0,0,1-.987.446c-.677-.009-1.027-.416-1.048-1.217V22.621h1.957v-.648h-1.957l.031-2.542Zm54.25,0-.833,2.528-1.4.154v.508h1.279v4.037c0,.227-.006.53-.016.91v.817c0,.164.005.329.016.493q.216,1.973,2.451,1.973a2.682,2.682,0,0,0,2.481-1.31l-.277-.246a.821.821,0,0,1-.078.061,1.6,1.6,0,0,1-.986.446c-.679-.009-1.028-.416-1.049-1.217V22.621h1.958v-.648H240.8l.032-2.542Zm24.581,0-.832,2.528-1.4.154v.508h1.278v4.037q0,.34-.015.91v.817c0,.164,0,.329.015.493q.216,1.973,2.45,1.973a2.683,2.683,0,0,0,2.482-1.31l-.278-.246a.67.67,0,0,1-.076.061,1.607,1.607,0,0,1-.987.446c-.678-.009-1.027-.416-1.048-1.217V22.621h1.957v-.648h-1.957l.031-2.542Zm105.739,0-.833,2.528-1.4.154v.508h1.279v4.037c0,.227-.006.53-.015.91v.817c0,.164.005.329.015.493q.216,1.973,2.45,1.973a2.682,2.682,0,0,0,2.482-1.31l-.277-.246a.71.71,0,0,1-.078.061,1.6,1.6,0,0,1-.986.446c-.678-.009-1.028-.416-1.049-1.217V22.621h1.958v-.648h-1.958l.032-2.542Zm23.6,0-.833,2.528-1.4.154v.508h1.28v4.037q0,.34-.016.91v.817c0,.164.005.329.016.493q.214,1.973,2.45,1.973a2.681,2.681,0,0,0,2.481-1.31l-.277-.246a.69.69,0,0,1-.077.061,1.6,1.6,0,0,1-.986.446c-.679-.009-1.028-.416-1.048-1.217V22.621h1.957v-.648h-1.957l.031-2.542ZM81.77,18.8v.539l1.417.124q.048,1.617.047,4.9v.693q0,3.252-.047,4.854l-1.417.139v.54h9.354l-.03-3.267h-.879l-.724,2.65h-3.56Q85.9,28.338,85.9,24.9v-.046h2.173l.216,1.679h.785V22.544h-.785l-.232,1.741H85.9q0-3.282.031-4.87h3.205l.725,2.527h.925L90.8,18.8Zm130.983,5.564q0-3.33.03-4.963h.617c.133,0,.262.005.385.015q2.2.216,2.2,2.867a4.01,4.01,0,0,1-.216,1.356,2.385,2.385,0,0,1-2.5,1.649h-.524ZM208.622,18.8v.539l1.417.124q.048,1.617.047,4.9v.693q0,3.252-.047,4.854l-1.417.139v.54h5.857v-.54l-1.7-.169q-.03-1.417-.03-4.007h.6a8.5,8.5,0,0,0,2.728-.385,3.161,3.161,0,0,0,2.373-3.191c0-.133,0-.267-.015-.4q-.262-3.1-5.009-3.1Zm94.642,2.1,1.711,5.394h-3.3Zm.139-2.142-3.575,11.111-1.311.185v.54h3.622v-.54l-1.48-.2.864-3.005h3.622l.971,3.052-1.4.153v.54h5.379v-.54l-1.264-.139-3.791-11.157ZM113.826,17.736a1.257,1.257,0,0,0-.493,1.772,1.28,1.28,0,0,0,1.171.632,1.556,1.556,0,0,0,.678-.154,1.2,1.2,0,0,0,.694-1.125,1.269,1.269,0,0,0-.185-.663,1.293,1.293,0,0,0-1.187-.632,1.444,1.444,0,0,0-.678.17m156.072,0a1.259,1.259,0,0,0-.493,1.772,1.282,1.282,0,0,0,1.172.632,1.556,1.556,0,0,0,.678-.154,1.2,1.2,0,0,0,.693-1.125,1.269,1.269,0,0,0-.185-.663,1.29,1.29,0,0,0-1.186-.632,1.445,1.445,0,0,0-.679.17m69.045,0a1.256,1.256,0,0,0-.494,1.772,1.281,1.281,0,0,0,1.171.632,1.55,1.55,0,0,0,.678-.154,1.2,1.2,0,0,0,.694-1.125,1.26,1.26,0,0,0-.185-.663,1.292,1.292,0,0,0-1.187-.632,1.44,1.44,0,0,0-.677.17m16.628,0a1.257,1.257,0,0,0-.493,1.772,1.281,1.281,0,0,0,1.172.632,1.549,1.549,0,0,0,.677-.154,1.2,1.2,0,0,0,.694-1.125,1.26,1.26,0,0,0-.185-.663,1.292,1.292,0,0,0-1.186-.632,1.445,1.445,0,0,0-.679.17m43.662,0a1.254,1.254,0,0,0-.493,1.772,1.278,1.278,0,0,0,1.17.632,1.55,1.55,0,0,0,.678-.154,1.2,1.2,0,0,0,.694-1.125,1.268,1.268,0,0,0-.184-.663,1.294,1.294,0,0,0-1.188-.632,1.44,1.44,0,0,0-.677.17m-200.412.493v.416l1.14.108v8.076q0,1.109-.031,3.174l-1.079.093v.493h4.778V30.1L202.549,30q-.045-1.541-.045-3.174v-6.6l.062-2.544-.216-.139Zm114.415,8.014q.015-3.422,2.189-3.453a1.925,1.925,0,0,1,1.171.416v6.119a2.089,2.089,0,0,1-1.233.416h-.154q-1.973-.138-1.973-3.5m2.157-8.014v.416l1.295.123v4.007a2.9,2.9,0,0,0-2.25-1.079,3.634,3.634,0,0,0-2.373.832,4.683,4.683,0,0,0-1.542,3.823,5.108,5.108,0,0,0,.879,3.066,3.276,3.276,0,0,0,2.8,1.434,3.387,3.387,0,0,0,2.45-1.049l.124.972,3.39-.185V30.1l-1.032-.062V20.216l.061-2.527-.216-.139Z" fill="none"/>
    </clipPath>
    <linearGradient id="linear-gradient" x1="-0.239" y1="1.426" x2="-0.236" y2="1.426" gradientUnits="objectBoundingBox">
      <stop offset="0" stop-color="#ab7927"/>
      <stop offset="0.185" stop-color="#c68f46"/>
      <stop offset="0.338" stop-color="#fedb6b"/>
      <stop offset="0.363" stop-color="#f5d065"/>
      <stop offset="0.499" stop-color="#cba04a"/>
      <stop offset="0.602" stop-color="#b1823a"/>
      <stop offset="0.66" stop-color="#a87734"/>
      <stop offset="0.748" stop-color="#a2722f"/>
      <stop offset="0.86" stop-color="#926321"/>
      <stop offset="0.896" stop-color="#8c5e1c"/>
      <stop offset="1" stop-color="#d69c47"/>
    </linearGradient>
    <clipPath id="clip-path-2">
      <path id="路径_2" data-name="路径 2" d="M40.632,33.294a1.3,1.3,0,0,0-.9.638c.012-.02-8.3,12.215-9.414,13.859H2.65l.252.585.005.008a34.627,34.627,0,0,0,63.738-.42l-.392-.161v-.421l-13.368.166-11.336-13.8a1.057,1.057,0,0,0-.867-.454h-.05m-1.51-13.1L23.9,43.159H1.027l.193.555.527,1.511.1.28H25.749l.132-.19c.542-.849,13.314-20.524,14.063-21.765.227-.379.367-.431.384-.431a.384.384,0,0,1,.141.155l.021.037.032.038L58.879,45.362l.13.151h8.369l.284-.011.1-.28.5-1.438.194-.559H60.194l-.442-.44c-.931-1.149-17.23-21.375-18.223-22.491a1.7,1.7,0,0,0-1.33-.677,1.506,1.506,0,0,0-1.077.577M34.653,0A34.614,34.614,0,0,0,.07,34.645c0,.429.008.85.023,1.27l.012.4H12.663l.123-.189L26.358,15.515l.028-.045.017-.051s.143-.376.421-.452a1.189,1.189,0,0,1,.93.392,26.755,26.755,0,0,1,2.887,2.973L16.736,38.758H0l.079.488.376,2.263.058.349H18.3l.131-.185L39.676,9.99l.016-.022.01-.023c.08-.156.367-.577.722-.625a1.144,1.144,0,0,1,.857.47c1.353,1.472,23.136,30.845,23.357,31.142l.016.025.023.022.13.131.182-.008,3.387-.131.339-.012.058-.333A34.62,34.62,0,0,0,34.693,0Z" fill="none"/>
    </clipPath>
    <linearGradient id="linear-gradient-2" x1="0.157" y1="0.819" x2="0.167" y2="0.819" xlink:href="#linear-gradient"/>
  </defs>
  <g id="组_2" data-name="组 2">
    <g id="组_1" data-name="组 1" clip-path="url(#clip-path)">
      <rect id="矩形_1" data-name="矩形 1" width="341.551" height="36.261" transform="translate(81.77 17.55)" fill="url(#linear-gradient)"/>
    </g>
  </g>
  <g id="组_4" data-name="组 4">
    <g id="组_3" data-name="组 3" clip-path="url(#clip-path-2)">
      <rect id="矩形_2" data-name="矩形 2" width="101.121" height="101.348" transform="matrix(0.731, -0.682, 0.682, 0.731, -36.888, 34.423)" fill="url(#linear-gradient-2)"/>
    </g>
  </g>
</svg>
