<svg id="圖層_1" data-name="圖層 1" xmlns="http://www.w3.org/2000/svg" xmlns:xlink="http://www.w3.org/1999/xlink" width="424.5" height="69.5" viewBox="0 0 424.5 69.5">
  <defs>
    <style>
      .cls-1 {
        fill: url(#未命名漸層_73);
      }

      .cls-2 {
        fill: none;
      }

      .cls-3 {
        isolation: isolate;
      }

      .cls-4 {
        fill: #482b00;
      }

      .cls-5 {
        fill: url(#未命名漸層_73-2);
      }
    </style>
    <linearGradient id="未命名漸層_73" data-name="未命名漸層 73" x1="-1360.1" y1="1230.28" x2="-1359.41" y2="1229.55" gradientTransform="matrix(65.87, 0, 0, -65.84, 89596.78, 81010.49)" gradientUnits="userSpaceOnUse">
      <stop offset="0" stop-color="#ab7927"/>
      <stop offset="0.18" stop-color="#c68f46"/>
      <stop offset="0.34" stop-color="#fedb6b"/>
      <stop offset="0.36" stop-color="#f5d065"/>
      <stop offset="0.5" stop-color="#cba04a"/>
      <stop offset="0.6" stop-color="#b1823a"/>
      <stop offset="0.66" stop-color="#a87734"/>
      <stop offset="0.75" stop-color="#a2722f"/>
      <stop offset="0.86" stop-color="#926321"/>
      <stop offset="0.9" stop-color="#8c5e1c"/>
      <stop offset="1" stop-color="#d69c47"/>
    </linearGradient>
    <linearGradient id="未命名漸層_73-2" x1="69.5" y1="33.18" x2="445.28" y2="33.18" gradientTransform="matrix(1, 0, 0, 1, 0, 0)" xlink:href="#未命名漸層_73"/>
  </defs>
  <g id="组_48" data-name="组 48">
    <path id="路径_15690" data-name="路径 15690" class="cls-1" d="M2.93,48.38l-.25-.59H30.35l9.41-13.86a1.32,1.32,0,0,1,.9-.64,1.09,1.09,0,0,1,.92.46l11.33,13.8,13.37-.17v.42l.39.16a34.63,34.63,0,0,1-63.74.42M67.4,45.51H59l-.13-.15-18.36-22,0,0,0,0a.5.5,0,0,0-.14-.15s-.16.05-.39.43c-.75,1.24-13.52,20.92-14.06,21.77l-.13.19H1.87l-.1-.29-.52-1.51-.2-.55H23.92c1.46-2.19,15.22-22.95,15.23-23a1.51,1.51,0,0,1,1.08-.57,1.74,1.74,0,0,1,1.33.67c1,1.12,17.29,21.35,18.22,22.49l.44.45h8.27l-.2.55-.5,1.44-.1.28ZM18.12,41.86H.54l-.06-.35L.11,39.25,0,38.76H16.76L30.67,18.33a27,27,0,0,0-2.89-3,1.16,1.16,0,0,0-.93-.39c-.28.07-.42.45-.42.45l0,.05,0,0L12.81,36.13l-.12.19H.13v-.4c0-.43,0-.85,0-1.27a34.62,34.62,0,0,1,69.23-.07,35.06,35.06,0,0,1-.53,6.05l-.06.33H68.4L65,41.1h-.19L64.7,41l0,0,0,0c-.21-.29-22-29.67-23.35-31.14a1.14,1.14,0,0,0-.86-.47c-.35,0-.64.47-.72.63v0l0,0L18.46,41.67l-.13.19Z"/>
  </g>
  <rect class="cls-2" x="0.03" y="0.04" width="69.3" height="69.22"/>
  <g id="Environmental_Protection_Administration_Executive_Yuan_R.O.C._Taiwan_" data-name="Environmental Protection Administration Executive Yuan R.O.C. Taiwan " class="cls-3">
    <g class="cls-3">
      <path class="cls-4" d="M82.6,51.44a3.42,3.42,0,0,1-.25,1.35,2.7,2.7,0,0,1-.7,1,3.15,3.15,0,0,1-1.13.66,4.94,4.94,0,0,1-1.59.23H77.8v3.59a.2.2,0,0,1,0,.11.3.3,0,0,1-.11.07l-.2.05-.32,0-.32,0a.93.93,0,0,1-.21-.05.2.2,0,0,1-.1-.07.15.15,0,0,1,0-.11v-9.2a.52.52,0,0,1,.53-.57h2.13a6,6,0,0,1,.62,0,4.43,4.43,0,0,1,.71.11,3.06,3.06,0,0,1,.82.33,2.6,2.6,0,0,1,.71.6,2.43,2.43,0,0,1,.45.82A3.09,3.09,0,0,1,82.6,51.44Zm-1.39.11a2.08,2.08,0,0,0-.23-1,1.66,1.66,0,0,0-.56-.61,1.91,1.91,0,0,0-.7-.25,4.2,4.2,0,0,0-.69-.06H77.8v4H79a2.81,2.81,0,0,0,1-.15,1.84,1.84,0,0,0,.67-.43,1.89,1.89,0,0,0,.41-.65A2.49,2.49,0,0,0,81.21,51.55Z"/>
      <path class="cls-4" d="M88.14,51.82a2.27,2.27,0,0,1,0,.28.42.42,0,0,1,0,.18.14.14,0,0,1-.06.1.1.1,0,0,1-.09,0,.34.34,0,0,1-.15,0l-.2-.07-.25-.06a1.53,1.53,0,0,0-.3,0,.84.84,0,0,0-.38.08,1.34,1.34,0,0,0-.39.25,2.89,2.89,0,0,0-.43.47c-.15.2-.31.43-.49.72V58.3a.17.17,0,0,1,0,.1.27.27,0,0,1-.1.08l-.19,0-.32,0-.31,0-.2,0a.27.27,0,0,1-.1-.08.3.3,0,0,1,0-.1V51.36a.16.16,0,0,1,0-.1s0,0,.09-.08a.48.48,0,0,1,.18,0l.28,0,.29,0a.39.39,0,0,1,.17,0,.36.36,0,0,1,.09.08.16.16,0,0,1,0,.1v1a6.21,6.21,0,0,1,.54-.68,3.91,3.91,0,0,1,.47-.41,1.52,1.52,0,0,1,.45-.21,2.12,2.12,0,0,1,.44,0h.23l.26,0a1.26,1.26,0,0,1,.25.07.46.46,0,0,1,.16.08.19.19,0,0,1,.06.07l0,.09s0,.09,0,.16Z"/>
      <path class="cls-4" d="M95.39,54.75a5.44,5.44,0,0,1-.22,1.56,3.48,3.48,0,0,1-.67,1.23,3,3,0,0,1-1.11.81,3.9,3.9,0,0,1-1.55.29,4,4,0,0,1-1.49-.26,2.75,2.75,0,0,1-1.06-.74,3.1,3.1,0,0,1-.63-1.18,5.38,5.38,0,0,1-.21-1.57,5.55,5.55,0,0,1,.22-1.56,3.49,3.49,0,0,1,.67-1.23,3,3,0,0,1,1.1-.8A3.9,3.9,0,0,1,92,51a4,4,0,0,1,1.49.25,2.71,2.71,0,0,1,1.06.74,3.2,3.2,0,0,1,.64,1.18A5.35,5.35,0,0,1,95.39,54.75Zm-1.32.09a5.09,5.09,0,0,0-.1-1.06,2.58,2.58,0,0,0-.35-.88,1.79,1.79,0,0,0-.65-.6,2.15,2.15,0,0,0-1-.22,2.28,2.28,0,0,0-1,.2,1.75,1.75,0,0,0-.67.57,2.72,2.72,0,0,0-.39.86,4.25,4.25,0,0,0-.13,1.1,5.24,5.24,0,0,0,.11,1.07,2.41,2.41,0,0,0,.35.87,1.79,1.79,0,0,0,.65.6,2.27,2.27,0,0,0,1,.22,2.24,2.24,0,0,0,1-.2,1.79,1.79,0,0,0,.68-.57,2.72,2.72,0,0,0,.39-.86A4.69,4.69,0,0,0,94.07,54.84Z"/>
      <path class="cls-4" d="M100.67,48.51a1.44,1.44,0,0,1,0,.24c0,.06,0,.1,0,.14s0,.06-.05.07a.12.12,0,0,1-.08,0l-.14,0-.19-.08-.28-.08a1.86,1.86,0,0,0-.36,0,1.22,1.22,0,0,0-.49.09.74.74,0,0,0-.32.29,1.52,1.52,0,0,0-.18.51,5.36,5.36,0,0,0,0,.76v.75H100a.17.17,0,0,1,.1,0,.36.36,0,0,1,.08.09.69.69,0,0,1,.05.17,1.66,1.66,0,0,1,0,.24.86.86,0,0,1-.07.41.2.2,0,0,1-.18.12H98.48V58.3a.17.17,0,0,1,0,.1.24.24,0,0,1-.11.08l-.19,0-.31,0-.31,0a.88.88,0,0,1-.2,0,.27.27,0,0,1-.1-.08.17.17,0,0,1,0-.1V52.22h-1A.19.19,0,0,1,96,52.1a.86.86,0,0,1-.07-.41,1.66,1.66,0,0,1,0-.24.42.42,0,0,1,.05-.17.22.22,0,0,1,.07-.09.2.2,0,0,1,.11,0h1v-.71a5.05,5.05,0,0,1,.13-1.25,2.06,2.06,0,0,1,.42-.85,1.64,1.64,0,0,1,.69-.49,2.93,2.93,0,0,1,1-.16,3.07,3.07,0,0,1,.53,0,2.47,2.47,0,0,1,.39.11.63.63,0,0,1,.19.11.41.41,0,0,1,.07.11.48.48,0,0,1,0,.18A1.69,1.69,0,0,1,100.67,48.51Z"/>
      <path class="cls-4" d="M106.81,54.53a.55.55,0,0,1-.15.43.53.53,0,0,1-.34.13h-4.57a4.18,4.18,0,0,0,.12,1,2.07,2.07,0,0,0,.38.79,1.85,1.85,0,0,0,.71.51,2.77,2.77,0,0,0,1.06.17,3.94,3.94,0,0,0,.88-.08,4.27,4.27,0,0,0,.67-.18,3.35,3.35,0,0,0,.47-.18.83.83,0,0,1,.27-.08.17.17,0,0,1,.1,0,.12.12,0,0,1,.06.08.46.46,0,0,1,0,.15,1.55,1.55,0,0,1,0,.23,1,1,0,0,1,0,.18.51.51,0,0,1,0,.13.29.29,0,0,1,0,.1l-.07.09a1.13,1.13,0,0,1-.25.14,4.08,4.08,0,0,1-.54.19,6.08,6.08,0,0,1-.77.16,5.46,5.46,0,0,1-.93.08,4.29,4.29,0,0,1-1.5-.24,2.79,2.79,0,0,1-1.08-.71,3.08,3.08,0,0,1-.66-1.18,5.89,5.89,0,0,1,0-3.26,3.49,3.49,0,0,1,.67-1.2,2.86,2.86,0,0,1,1-.77,3.4,3.4,0,0,1,1.38-.26,3.23,3.23,0,0,1,1.39.26,2.62,2.62,0,0,1,.95.7,3,3,0,0,1,.54,1,4.45,4.45,0,0,1,.17,1.28Zm-1.27-.38a2.35,2.35,0,0,0-.45-1.57A1.7,1.7,0,0,0,103.7,52a1.81,1.81,0,0,0-.83.18,1.74,1.74,0,0,0-.6.47,2.12,2.12,0,0,0-.37.68,2.76,2.76,0,0,0-.15.81Z"/>
      <path class="cls-4" d="M112.71,56.41a2.21,2.21,0,0,1-.2,1,1.91,1.91,0,0,1-.56.7,2.57,2.57,0,0,1-.86.43,3.8,3.8,0,0,1-1.1.15,4.08,4.08,0,0,1-.71-.06,4.38,4.38,0,0,1-.6-.15,3.49,3.49,0,0,1-.45-.18,2.21,2.21,0,0,1-.27-.17.43.43,0,0,1-.12-.22,1.29,1.29,0,0,1,0-.38,1.63,1.63,0,0,1,0-.24,1.46,1.46,0,0,1,0-.17.22.22,0,0,1,.07-.09l.09,0a.57.57,0,0,1,.26.1,4.34,4.34,0,0,0,.4.23,4.67,4.67,0,0,0,.58.23,2.5,2.5,0,0,0,.76.1,2.17,2.17,0,0,0,.59-.07,1.54,1.54,0,0,0,.45-.2.92.92,0,0,0,.3-.35,1,1,0,0,0,.1-.49.79.79,0,0,0-.15-.49,1.41,1.41,0,0,0-.4-.36,3.52,3.52,0,0,0-.55-.27l-.64-.25c-.21-.09-.43-.19-.64-.3a2.42,2.42,0,0,1-.55-.4,1.78,1.78,0,0,1-.4-.57,1.94,1.94,0,0,1-.15-.8,1.91,1.91,0,0,1,.16-.78,1.67,1.67,0,0,1,.47-.65,2.24,2.24,0,0,1,.79-.45A3.12,3.12,0,0,1,110.5,51a3.39,3.39,0,0,1,.55,0,3.06,3.06,0,0,1,.5.12,1.5,1.5,0,0,1,.38.15,1.17,1.17,0,0,1,.24.14.37.37,0,0,1,.11.11.3.3,0,0,1,0,.1s0,.09,0,.15a1.15,1.15,0,0,1,0,.2,1.55,1.55,0,0,1,0,.23.53.53,0,0,1,0,.16.2.2,0,0,1-.06.09.15.15,0,0,1-.09,0,.4.4,0,0,1-.2-.08,1.74,1.74,0,0,0-.34-.18,2.52,2.52,0,0,0-.49-.18,2.06,2.06,0,0,0-.64-.09,1.91,1.91,0,0,0-.57.08.94.94,0,0,0-.4.2.82.82,0,0,0-.24.32.92.92,0,0,0-.08.4.83.83,0,0,0,.15.51,1.39,1.39,0,0,0,.4.36,4.87,4.87,0,0,0,.56.28l.65.25c.22.09.43.18.64.29a2.16,2.16,0,0,1,.57.4,1.73,1.73,0,0,1,.4.55A1.82,1.82,0,0,1,112.71,56.41Z"/>
      <path class="cls-4" d="M118.49,56.41a2.21,2.21,0,0,1-.2,1,1.91,1.91,0,0,1-.56.7,2.57,2.57,0,0,1-.86.43,3.85,3.85,0,0,1-1.1.15,4,4,0,0,1-.71-.06,4.38,4.38,0,0,1-.6-.15,3.49,3.49,0,0,1-.45-.18,1.28,1.28,0,0,1-.27-.17.43.43,0,0,1-.12-.22,1.29,1.29,0,0,1,0-.38,1.63,1.63,0,0,1,0-.24,1.46,1.46,0,0,1,0-.17.22.22,0,0,1,.07-.09l.09,0a.51.51,0,0,1,.25.1l.41.23a3.68,3.68,0,0,0,.58.23,2.5,2.5,0,0,0,.76.1,2.1,2.1,0,0,0,.58-.07,1.49,1.49,0,0,0,.46-.2.82.82,0,0,0,.29-.35.94.94,0,0,0,.11-.49.79.79,0,0,0-.15-.49,1.41,1.41,0,0,0-.4-.36,3.52,3.52,0,0,0-.55-.27l-.64-.25c-.22-.09-.43-.19-.64-.3a2.48,2.48,0,0,1-.56-.4,1.83,1.83,0,0,1-.54-1.37,2.08,2.08,0,0,1,.15-.78,1.81,1.81,0,0,1,.48-.65,2.24,2.24,0,0,1,.79-.45,3.06,3.06,0,0,1,1.1-.17,3.52,3.52,0,0,1,.56,0,3.33,3.33,0,0,1,.5.12,1.5,1.5,0,0,1,.38.15,1.17,1.17,0,0,1,.24.14.56.56,0,0,1,.11.11.3.3,0,0,1,0,.1,1,1,0,0,0,0,.15,1.15,1.15,0,0,1,0,.2,1.55,1.55,0,0,1,0,.23.53.53,0,0,1,0,.16.35.35,0,0,1-.06.09.15.15,0,0,1-.09,0,.37.37,0,0,1-.2-.08,2.1,2.1,0,0,0-.34-.18,2.52,2.52,0,0,0-.49-.18,2.11,2.11,0,0,0-.64-.09,1.91,1.91,0,0,0-.57.08,1,1,0,0,0-.41.2,1.08,1.08,0,0,0-.24.32,1.1,1.1,0,0,0-.08.4.84.84,0,0,0,.16.51,1.27,1.27,0,0,0,.4.36,4.17,4.17,0,0,0,.56.28l.64.25c.22.09.44.18.65.29a2.54,2.54,0,0,1,.57.4,1.71,1.71,0,0,1,.39.55A1.68,1.68,0,0,1,118.49,56.41Z"/>
      <path class="cls-4" d="M121.33,49a.85.85,0,0,1-.17.61.92.92,0,0,1-.63.16.88.88,0,0,1-.61-.16.8.8,0,0,1-.16-.59.86.86,0,0,1,.16-.61.94.94,0,0,1,.63-.16.92.92,0,0,1,.61.15A.84.84,0,0,1,121.33,49Zm-.15,9.28a.17.17,0,0,1,0,.1.21.21,0,0,1-.1.08l-.19,0-.32,0-.31,0-.19,0a.21.21,0,0,1-.1-.08.17.17,0,0,1,0-.1V51.36a.19.19,0,0,1,0-.1.2.2,0,0,1,.1-.07.74.74,0,0,1,.19,0l.31,0,.32,0a.74.74,0,0,1,.19,0,.2.2,0,0,1,.1.07.19.19,0,0,1,0,.1Z"/>
      <path class="cls-4" d="M129.59,54.75a5.11,5.11,0,0,1-.23,1.56,3.46,3.46,0,0,1-.66,1.23,3,3,0,0,1-1.11.81,4.34,4.34,0,0,1-3,0,2.68,2.68,0,0,1-1.06-.74,3.1,3.1,0,0,1-.63-1.18,5.38,5.38,0,0,1-.21-1.57,5.21,5.21,0,0,1,.22-1.56,3.64,3.64,0,0,1,.66-1.23,3.1,3.1,0,0,1,1.11-.8,3.9,3.9,0,0,1,1.55-.28,4,4,0,0,1,1.49.25,2.78,2.78,0,0,1,1.06.74,3.35,3.35,0,0,1,.64,1.18A5.35,5.35,0,0,1,129.59,54.75Zm-1.32.09a5.07,5.07,0,0,0-.11-1.06,2.57,2.57,0,0,0-.34-.88,1.74,1.74,0,0,0-.66-.6,2.08,2.08,0,0,0-1-.22,2.25,2.25,0,0,0-1,.2,1.75,1.75,0,0,0-.67.57,2.34,2.34,0,0,0-.39.86,4.25,4.25,0,0,0-.13,1.1,5.25,5.25,0,0,0,.1,1.07,2.6,2.6,0,0,0,.35.87,1.9,1.9,0,0,0,.66.6,2.49,2.49,0,0,0,2,0,1.87,1.87,0,0,0,.68-.57,2.5,2.5,0,0,0,.38-.86A4.2,4.2,0,0,0,128.27,54.84Z"/>
      <path class="cls-4" d="M137,58.3a.17.17,0,0,1,0,.1.39.39,0,0,1-.1.08.88.88,0,0,1-.2,0l-.31,0-.31,0a.69.69,0,0,1-.19,0,.31.31,0,0,1-.11-.08.29.29,0,0,1,0-.1V54.24a4.11,4.11,0,0,0-.09-1,1.85,1.85,0,0,0-.27-.62,1.11,1.11,0,0,0-.46-.4,1.33,1.33,0,0,0-.65-.14,1.6,1.6,0,0,0-.95.34,5.13,5.13,0,0,0-1,1V58.3a.13.13,0,0,1,0,.1.24.24,0,0,1-.09.08l-.2,0-.31,0-.31,0-.2,0a.21.21,0,0,1-.1-.08.17.17,0,0,1,0-.1V51.36a.17.17,0,0,1,0-.1s0,0,.09-.08a.48.48,0,0,1,.18,0l.28,0,.28,0a.4.4,0,0,1,.18,0,.36.36,0,0,1,.09.08.3.3,0,0,1,0,.1v.92a4.13,4.13,0,0,1,1.17-1,2.54,2.54,0,0,1,1.17-.3,2.68,2.68,0,0,1,1.17.23,2.18,2.18,0,0,1,.77.63,2.68,2.68,0,0,1,.42.92,5.71,5.71,0,0,1,.13,1.27Z"/>
      <path class="cls-4" d="M144.19,58.31a.14.14,0,0,1-.07.13.26.26,0,0,1-.16.07,1.72,1.72,0,0,1-.64,0,.25.25,0,0,1-.17-.07.15.15,0,0,1-.06-.13v-.7a3.32,3.32,0,0,1-1,.76,2.68,2.68,0,0,1-1.18.27,3.33,3.33,0,0,1-1-.14,2.23,2.23,0,0,1-.76-.42,1.9,1.9,0,0,1-.49-.66,2.28,2.28,0,0,1-.17-.89,2.08,2.08,0,0,1,.24-1,2,2,0,0,1,.69-.72,3.4,3.4,0,0,1,1.09-.43,7.16,7.16,0,0,1,1.46-.14h.95v-.54a3.08,3.08,0,0,0-.08-.71,1.27,1.27,0,0,0-.28-.51,1.15,1.15,0,0,0-.49-.31,2.24,2.24,0,0,0-.74-.1,3.11,3.11,0,0,0-.84.11,4.68,4.68,0,0,0-.65.25l-.47.24a.63.63,0,0,1-.29.12.13.13,0,0,1-.1,0,.24.24,0,0,1-.08-.09.34.34,0,0,1-.05-.16,1.25,1.25,0,0,1,0-.21,1.15,1.15,0,0,1,0-.3.39.39,0,0,1,.13-.21,1.57,1.57,0,0,1,.36-.24,4.58,4.58,0,0,1,.58-.25,6,6,0,0,1,.73-.18,4.15,4.15,0,0,1,.79-.07,3.94,3.94,0,0,1,1.27.17,2,2,0,0,1,.85.49,1.9,1.9,0,0,1,.47.82,3.82,3.82,0,0,1,.15,1.13Zm-1.27-3.17h-1.08a4,4,0,0,0-.91.09,1.79,1.79,0,0,0-.64.26,1.08,1.08,0,0,0-.38.42,1.2,1.2,0,0,0-.12.55,1.11,1.11,0,0,0,.35.86,1.31,1.31,0,0,0,1,.32,1.74,1.74,0,0,0,.92-.25,3.84,3.84,0,0,0,.9-.78Z"/>
      <path class="cls-4" d="M147.4,58.3a.17.17,0,0,1,0,.1.27.27,0,0,1-.1.08l-.2,0-.31,0-.31,0-.2,0a.21.21,0,0,1-.1-.08.16.16,0,0,1,0-.1V48a.17.17,0,0,1,.12-.18l.2,0h.62a.72.72,0,0,1,.2,0,.2.2,0,0,1,.1.08.17.17,0,0,1,0,.1Z"/>
      <path class="cls-4" d="M163.51,58.29a.2.2,0,0,1,0,.11.23.23,0,0,1-.11.07l-.2.05-.32,0-.32,0-.2-.05a.23.23,0,0,1-.11-.07.2.2,0,0,1,0-.11V49.61h0l-3.51,8.72a.22.22,0,0,1-.07.09.22.22,0,0,1-.12.07l-.19,0H158l-.27,0-.2,0a.35.35,0,0,1-.12-.07.14.14,0,0,1,0-.08L154,49.61h0v8.68a.2.2,0,0,1,0,.11.23.23,0,0,1-.11.07l-.21.05-.33,0-.31,0a.81.81,0,0,1-.21-.05.2.2,0,0,1-.1-.07.2.2,0,0,1,0-.11V49.12a.57.57,0,0,1,.17-.46.64.64,0,0,1,.39-.14H154a1.84,1.84,0,0,1,.44,0,1.1,1.1,0,0,1,.33.14A.83.83,0,0,1,155,49a1.5,1.5,0,0,1,.17.36l2.85,7.22h0l3-7.2a2.36,2.36,0,0,1,.19-.39,1.16,1.16,0,0,1,.22-.26,1,1,0,0,1,.28-.14,1.13,1.13,0,0,1,.34,0h.85a.85.85,0,0,1,.23,0,.54.54,0,0,1,.18.11.52.52,0,0,1,.12.19.7.7,0,0,1,0,.27Z"/>
      <path class="cls-4" d="M171.54,54.53a.55.55,0,0,1-.15.43.53.53,0,0,1-.34.13h-4.57a4.18,4.18,0,0,0,.12,1,1.94,1.94,0,0,0,.38.79,1.78,1.78,0,0,0,.71.51,2.77,2.77,0,0,0,1.06.17,3.94,3.94,0,0,0,.88-.08,4.27,4.27,0,0,0,.67-.18,3.91,3.91,0,0,0,.47-.18.83.83,0,0,1,.27-.08.17.17,0,0,1,.1,0,.12.12,0,0,1,.06.08.46.46,0,0,1,0,.15,1.55,1.55,0,0,1,0,.23,1,1,0,0,1,0,.18.51.51,0,0,1,0,.13.3.3,0,0,1,0,.1.47.47,0,0,1-.06.09,1.13,1.13,0,0,1-.25.14,4.08,4.08,0,0,1-.54.19,6.47,6.47,0,0,1-.77.16,5.46,5.46,0,0,1-.93.08,4.29,4.29,0,0,1-1.5-.24,2.79,2.79,0,0,1-1.08-.71,3.08,3.08,0,0,1-.66-1.18,5.89,5.89,0,0,1,0-3.26,3.49,3.49,0,0,1,.67-1.2,2.86,2.86,0,0,1,1.05-.77,3.4,3.4,0,0,1,1.38-.26,3.23,3.23,0,0,1,1.39.26,2.7,2.7,0,0,1,1,.7,3.12,3.12,0,0,1,.54,1,4.83,4.83,0,0,1,.17,1.28Zm-1.28-.38a2.3,2.3,0,0,0-.44-1.57,1.7,1.7,0,0,0-1.39-.57,1.78,1.78,0,0,0-.83.18,1.74,1.74,0,0,0-.6.47,1.94,1.94,0,0,0-.37.68,2.76,2.76,0,0,0-.15.81Z"/>
      <path class="cls-4" d="M179,58.3a.36.36,0,0,1,0,.11.2.2,0,0,1-.1.07.61.61,0,0,1-.17,0l-.26,0-.27,0-.18,0a.26.26,0,0,1-.1-.07.2.2,0,0,1,0-.11v-.92a4.4,4.4,0,0,1-1.14.93,2.58,2.58,0,0,1-1.29.33,2.66,2.66,0,0,1-1.3-.3,2.39,2.39,0,0,1-.87-.8,3.35,3.35,0,0,1-.49-1.19,6,6,0,0,1-.16-1.43,6.19,6.19,0,0,1,.2-1.62,3.33,3.33,0,0,1,.57-1.23,2.5,2.5,0,0,1,.93-.78,2.92,2.92,0,0,1,1.29-.27,2.34,2.34,0,0,1,1.12.26,4,4,0,0,1,1,.78V48a.19.19,0,0,1,0-.1.2.2,0,0,1,.11-.08l.19,0a1.37,1.37,0,0,1,.31,0,1.42,1.42,0,0,1,.31,0l.19,0a.24.24,0,0,1,.11.08.19.19,0,0,1,0,.1Zm-1.28-4.88a4.7,4.7,0,0,0-1-1,1.7,1.7,0,0,0-1-.34,1.44,1.44,0,0,0-.82.23,1.79,1.79,0,0,0-.55.61,2.59,2.59,0,0,0-.31.86,4.43,4.43,0,0,0-.1,1,6.8,6.8,0,0,0,.08,1,3.21,3.21,0,0,0,.28.89,1.82,1.82,0,0,0,.53.63,1.48,1.48,0,0,0,.84.23,1.61,1.61,0,0,0,.49-.07,1.74,1.74,0,0,0,.48-.23,4.32,4.32,0,0,0,.51-.42,5.43,5.43,0,0,0,.57-.64Z"/>
      <path class="cls-4" d="M186.2,58.31a.15.15,0,0,1-.06.13.29.29,0,0,1-.17.07,1.24,1.24,0,0,1-.31,0,1.33,1.33,0,0,1-.32,0,.3.3,0,0,1-.18-.07.17.17,0,0,1,0-.13v-.7a3.32,3.32,0,0,1-1,.76,2.73,2.73,0,0,1-1.19.27,3.43,3.43,0,0,1-1-.14,2.28,2.28,0,0,1-.75-.42,1.9,1.9,0,0,1-.49-.66,2.28,2.28,0,0,1-.17-.89,2.08,2.08,0,0,1,.24-1,2,2,0,0,1,.68-.72,3.56,3.56,0,0,1,1.1-.43,7.13,7.13,0,0,1,1.45-.14h1v-.54a3.08,3.08,0,0,0-.08-.71,1.27,1.27,0,0,0-.28-.51,1.21,1.21,0,0,0-.49-.31,2.24,2.24,0,0,0-.74-.1,3.11,3.11,0,0,0-.84.11,5.41,5.41,0,0,0-.66.25l-.47.24a.6.6,0,0,1-.28.12.17.17,0,0,1-.11,0,.36.36,0,0,1-.08-.09.5.5,0,0,1,0-.16,1.34,1.34,0,0,1,0-.21,1.15,1.15,0,0,1,0-.3.34.34,0,0,1,.13-.21,1.57,1.57,0,0,1,.36-.24,4,4,0,0,1,.58-.25,6.31,6.31,0,0,1,.72-.18,4.33,4.33,0,0,1,.8-.07,3.94,3.94,0,0,1,1.27.17,1.85,1.85,0,0,1,1.32,1.31,4.2,4.2,0,0,1,.14,1.13Zm-1.26-3.17h-1.09a4.06,4.06,0,0,0-.91.09,1.87,1.87,0,0,0-.64.26,1.06,1.06,0,0,0-.37.42,1.2,1.2,0,0,0-.12.55,1.14,1.14,0,0,0,.34.86,1.33,1.33,0,0,0,1,.32,1.75,1.75,0,0,0,.93-.25,3.84,3.84,0,0,0,.9-.78Z"/>
      <path class="cls-4" d="M189.42,58.3a.18.18,0,0,1,0,.1.21.21,0,0,1-.1.08.69.69,0,0,1-.19,0l-.31,0-.31,0a.77.77,0,0,1-.2,0,.21.21,0,0,1-.1-.08.17.17,0,0,1,0-.1V48a.17.17,0,0,1,0-.1.16.16,0,0,1,.1-.08.72.72,0,0,1,.2,0h.62a.64.64,0,0,1,.19,0,.16.16,0,0,1,.1.08.18.18,0,0,1,0,.1Z"/>
      <path class="cls-4" d="M198.34,48.51a1.63,1.63,0,0,1,0,.24.47.47,0,0,1,0,.14.1.1,0,0,1,0,.07.08.08,0,0,1-.07,0L198,49l-.2-.08-.27-.08a1.94,1.94,0,0,0-.36,0,1.16,1.16,0,0,0-.49.09.74.74,0,0,0-.32.29,1.18,1.18,0,0,0-.18.51,4.1,4.1,0,0,0-.06.76v.75h1.55a.2.2,0,0,1,.11,0,.22.22,0,0,1,.07.09.43.43,0,0,1,.06.17,1.66,1.66,0,0,1,0,.24,1,1,0,0,1-.07.41.22.22,0,0,1-.19.12h-1.55V58.3a.17.17,0,0,1,0,.1.21.21,0,0,1-.1.08l-.2,0-.3,0-.31,0-.2,0a.21.21,0,0,1-.1-.08.17.17,0,0,1,0-.1V52.22h-1a.2.2,0,0,1-.19-.12,1,1,0,0,1-.06-.41,1.66,1.66,0,0,1,0-.24.71.71,0,0,1,0-.17.24.24,0,0,1,.08-.09.2.2,0,0,1,.11,0h1v-.71A5.05,5.05,0,0,1,195,49.2a2.18,2.18,0,0,1,.41-.85,1.74,1.74,0,0,1,.7-.49,3,3,0,0,1,1.51-.11,3,3,0,0,1,.4.11.46.46,0,0,1,.18.11.44.44,0,0,1,.08.11.8.8,0,0,1,0,.18A1.85,1.85,0,0,1,198.34,48.51Z"/>
      <path class="cls-4" d="M205.08,54.75a5.11,5.11,0,0,1-.22,1.56,3.33,3.33,0,0,1-.67,1.23,2.86,2.86,0,0,1-1.11.81,3.88,3.88,0,0,1-1.54.29,4,4,0,0,1-1.49-.26,2.61,2.61,0,0,1-1.06-.74,3.1,3.1,0,0,1-.63-1.18,5.38,5.38,0,0,1-.21-1.57,5.21,5.21,0,0,1,.22-1.56A3.64,3.64,0,0,1,199,52.1a3.1,3.1,0,0,1,1.11-.8,3.9,3.9,0,0,1,1.55-.28,4,4,0,0,1,1.49.25,2.86,2.86,0,0,1,1.06.74,3.18,3.18,0,0,1,.63,1.18A5.35,5.35,0,0,1,205.08,54.75Zm-1.31.09a5.07,5.07,0,0,0-.11-1.06,2.57,2.57,0,0,0-.34-.88,1.82,1.82,0,0,0-.66-.6,2.11,2.11,0,0,0-1-.22,2.25,2.25,0,0,0-1,.2,1.68,1.68,0,0,0-.67.57,2.34,2.34,0,0,0-.39.86,4.25,4.25,0,0,0-.13,1.1,5.25,5.25,0,0,0,.1,1.07,2.6,2.6,0,0,0,.35.87,1.74,1.74,0,0,0,.66.6,2.24,2.24,0,0,0,1,.22,2.27,2.27,0,0,0,1-.2,1.76,1.76,0,0,0,.67-.57,2.34,2.34,0,0,0,.39-.86A4.67,4.67,0,0,0,203.77,54.84Z"/>
      <path class="cls-4" d="M210.62,51.82c0,.11,0,.21,0,.28a1.64,1.64,0,0,1,0,.18.29.29,0,0,1-.06.1.12.12,0,0,1-.1,0,.34.34,0,0,1-.15,0l-.2-.07-.25-.06a1.39,1.39,0,0,0-.3,0,.87.87,0,0,0-.38.08,1.48,1.48,0,0,0-.39.25,3.43,3.43,0,0,0-.42.47c-.15.2-.32.43-.5.72V58.3a.17.17,0,0,1,0,.1.21.21,0,0,1-.1.08.69.69,0,0,1-.19,0l-.32,0-.3,0-.2,0a.21.21,0,0,1-.1-.08.17.17,0,0,1,0-.1V51.36a.17.17,0,0,1,0-.1s0,0,.09-.08a.4.4,0,0,1,.18,0l.28,0,.28,0a.35.35,0,0,1,.17,0s.08,0,.09.08a.17.17,0,0,1,0,.1v1a6.21,6.21,0,0,1,.54-.68,2.81,2.81,0,0,1,.47-.41,1.59,1.59,0,0,1,.44-.21,2.3,2.3,0,0,1,.45,0h.22l.27,0a1.49,1.49,0,0,1,.25.07.59.59,0,0,1,.16.08.19.19,0,0,1,.06.07.46.46,0,0,1,0,.09s0,.09,0,.16S210.62,51.7,210.62,51.82Z"/>
      <path class="cls-4" d="M220.54,57.94a1.69,1.69,0,0,1,0,.25.69.69,0,0,1-.05.17.3.3,0,0,1-.09.1.2.2,0,0,1-.11,0h-4.79a.52.52,0,0,1-.33-.12A.48.48,0,0,1,215,58V49.06a.48.48,0,0,1,.16-.42.52.52,0,0,1,.33-.12h4.73l.12,0a.21.21,0,0,1,.08.1c0,.05,0,.1.05.17a1.84,1.84,0,0,1,0,.26,1.81,1.81,0,0,1,0,.25,1.56,1.56,0,0,1-.05.16.21.21,0,0,1-.08.1l-.12,0h-3.9v3.13h3.35a.15.15,0,0,1,.11,0l.09.09a.58.58,0,0,1,0,.17,2,2,0,0,1,0,.26,1.55,1.55,0,0,1,0,.23.58.58,0,0,1,0,.17.22.22,0,0,1-.09.08.2.2,0,0,1-.11,0h-3.35v3.57h4a.2.2,0,0,1,.11,0,.3.3,0,0,1,.09.1.58.58,0,0,1,.05.17A1.69,1.69,0,0,1,220.54,57.94Z"/>
      <path class="cls-4" d="M228.13,58.3a.17.17,0,0,1,0,.1.39.39,0,0,1-.1.08l-.2,0-.31,0-.31,0a.69.69,0,0,1-.19,0,.31.31,0,0,1-.11-.08.29.29,0,0,1,0-.1V54.24a4.11,4.11,0,0,0-.09-1,1.85,1.85,0,0,0-.27-.62,1.11,1.11,0,0,0-.46-.4,1.33,1.33,0,0,0-.65-.14,1.6,1.6,0,0,0-.95.34,5.13,5.13,0,0,0-1,1V58.3a.13.13,0,0,1,0,.1.21.21,0,0,1-.1.08.69.69,0,0,1-.19,0l-.31,0-.31,0-.2,0a.21.21,0,0,1-.1-.08.17.17,0,0,1,0-.1V51.36a.17.17,0,0,1,0-.1s0,0,.09-.08a.48.48,0,0,1,.18,0l.28,0,.28,0a.4.4,0,0,1,.18,0,.36.36,0,0,1,.09.08.3.3,0,0,1,0,.1v.92a4.13,4.13,0,0,1,1.17-1,2.54,2.54,0,0,1,1.17-.3,2.68,2.68,0,0,1,1.17.23,2.18,2.18,0,0,1,.77.63,2.68,2.68,0,0,1,.42.92,5.71,5.71,0,0,1,.13,1.27Z"/>
      <path class="cls-4" d="M235.48,51.35s0,0,0,.06a.22.22,0,0,1,0,.08.31.31,0,0,1,0,.08l0,.1-2.36,6.59a.47.47,0,0,1-.08.14.53.53,0,0,1-.15.08,1.33,1.33,0,0,1-.26.05h-.38l-.39,0-.25,0a.38.38,0,0,1-.15-.09.57.57,0,0,1-.08-.13L229,51.67a1.42,1.42,0,0,1,0-.16.84.84,0,0,1,0-.1.18.18,0,0,1,0-.06.2.2,0,0,1,0-.11.23.23,0,0,1,.11-.07l.19,0h.3l.36,0a.5.5,0,0,1,.2,0,.19.19,0,0,1,.11.08.52.52,0,0,1,.07.11l1.95,5.72,0,.09,0-.09,1.93-5.72a.2.2,0,0,1,.06-.11.19.19,0,0,1,.11-.08.5.5,0,0,1,.2,0l.33,0h.3l.18,0a.35.35,0,0,1,.09.07A.2.2,0,0,1,235.48,51.35Z"/>
      <path class="cls-4" d="M237.94,49a.85.85,0,0,1-.17.61,1.28,1.28,0,0,1-1.24,0,.8.8,0,0,1-.16-.59.81.81,0,0,1,.17-.61.89.89,0,0,1,.62-.16.92.92,0,0,1,.61.15A.84.84,0,0,1,237.94,49Zm-.15,9.28a.17.17,0,0,1,0,.1.21.21,0,0,1-.1.08.69.69,0,0,1-.19,0l-.32,0-.3,0a.77.77,0,0,1-.2,0,.21.21,0,0,1-.1-.08.17.17,0,0,1,0-.1V51.36a.19.19,0,0,1,0-.1.2.2,0,0,1,.1-.07.72.72,0,0,1,.2,0l.3,0,.32,0a.64.64,0,0,1,.19,0,.2.2,0,0,1,.1.07.19.19,0,0,1,0,.1Z"/>
      <path class="cls-4" d="M243.8,51.82a2.27,2.27,0,0,1,0,.28.42.42,0,0,1,0,.18.19.19,0,0,1,0,.1.13.13,0,0,1-.1,0,.34.34,0,0,1-.15,0l-.2-.07-.25-.06a1.39,1.39,0,0,0-.3,0,.87.87,0,0,0-.38.08,1.48,1.48,0,0,0-.39.25,3.43,3.43,0,0,0-.43.47c-.14.2-.31.43-.49.72V58.3a.17.17,0,0,1,0,.1.21.21,0,0,1-.1.08l-.19,0-.32,0-.31,0-.19,0a.2.2,0,0,1-.13-.18V51.36a.3.3,0,0,1,0-.1.29.29,0,0,1,.1-.08.39.39,0,0,1,.17,0l.29,0,.28,0a.39.39,0,0,1,.17,0,.36.36,0,0,1,.09.08.17.17,0,0,1,0,.1v1a7.78,7.78,0,0,1,.53-.68,3.29,3.29,0,0,1,.48-.41,1.47,1.47,0,0,1,.44-.21,2.2,2.2,0,0,1,.44,0H243l.27,0,.25.07a.79.79,0,0,1,.16.08.19.19,0,0,1,.06.07.2.2,0,0,1,0,.09.57.57,0,0,1,0,.16Z"/>
      <path class="cls-4" d="M251.05,54.75a5.11,5.11,0,0,1-.22,1.56,3.33,3.33,0,0,1-.67,1.23,2.86,2.86,0,0,1-1.11.81,3.88,3.88,0,0,1-1.54.29,4,4,0,0,1-1.49-.26,2.61,2.61,0,0,1-1.06-.74,2.85,2.85,0,0,1-.63-1.18,5.38,5.38,0,0,1-.21-1.57,5.21,5.21,0,0,1,.22-1.56A3.32,3.32,0,0,1,245,52.1a2.94,2.94,0,0,1,1.11-.8,3.85,3.85,0,0,1,1.54-.28,4.07,4.07,0,0,1,1.5.25,2.86,2.86,0,0,1,1.06.74,3.18,3.18,0,0,1,.63,1.18A5.35,5.35,0,0,1,251.05,54.75Zm-1.32.09a5.09,5.09,0,0,0-.1-1.06,2.58,2.58,0,0,0-.35-.88,1.71,1.71,0,0,0-.65-.6,2.12,2.12,0,0,0-1-.22,2.24,2.24,0,0,0-1,.2,1.68,1.68,0,0,0-.67.57,2.53,2.53,0,0,0-.4.86,4.75,4.75,0,0,0-.12,1.1,5.25,5.25,0,0,0,.1,1.07,2.6,2.6,0,0,0,.35.87,1.74,1.74,0,0,0,.66.6,2.46,2.46,0,0,0,2,0,1.79,1.79,0,0,0,.68-.57,2.34,2.34,0,0,0,.39-.86A4.69,4.69,0,0,0,249.73,54.84Z"/>
      <path class="cls-4" d="M258.5,58.3a.17.17,0,0,1,0,.1.21.21,0,0,1-.1.08.69.69,0,0,1-.19,0l-.31,0-.32,0-.19,0a.27.27,0,0,1-.1-.08.17.17,0,0,1,0-.1V54.24a4.11,4.11,0,0,0-.09-1,1.85,1.85,0,0,0-.27-.62,1.11,1.11,0,0,0-.46-.4,1.35,1.35,0,0,0-.65-.14,1.63,1.63,0,0,0-1,.34,5.43,5.43,0,0,0-1,1V58.3a.17.17,0,0,1,0,.1.21.21,0,0,1-.1.08l-.19,0-.32,0-.31,0-.19,0a.21.21,0,0,1-.1-.08.17.17,0,0,1,0-.1V51.36a.3.3,0,0,1,0-.1.29.29,0,0,1,.1-.08.39.39,0,0,1,.17,0l.29,0,.28,0a.39.39,0,0,1,.17,0,.36.36,0,0,1,.09.08.17.17,0,0,1,0,.1v.92a4.13,4.13,0,0,1,1.17-1A2.48,2.48,0,0,1,256,51a2.74,2.74,0,0,1,1.17.23,2.27,2.27,0,0,1,.77.63,2.68,2.68,0,0,1,.42.92,5.76,5.76,0,0,1,.12,1.27Z"/>
      <path class="cls-4" d="M270.71,58.3a.12.12,0,0,1,0,.1.21.21,0,0,1-.1.08.69.69,0,0,1-.19,0l-.31,0-.31,0-.2,0a.21.21,0,0,1-.1-.08.17.17,0,0,1,0-.1V54.08a3.94,3.94,0,0,0-.08-.8,1.83,1.83,0,0,0-.25-.62,1,1,0,0,0-.43-.4,1.21,1.21,0,0,0-.62-.14,1.44,1.44,0,0,0-.88.34,6.1,6.1,0,0,0-1,1V58.3a.17.17,0,0,1,0,.1.24.24,0,0,1-.11.08l-.19,0-.31,0-.31,0-.2,0a.21.21,0,0,1-.1-.08.16.16,0,0,1,0-.1V54.08a3.32,3.32,0,0,0-.09-.8,2.06,2.06,0,0,0-.25-.62,1.17,1.17,0,0,0-.43-.4,1.2,1.2,0,0,0-.61-.14,1.44,1.44,0,0,0-.89.34,5.72,5.72,0,0,0-1,1V58.3a.17.17,0,0,1,0,.1.27.27,0,0,1-.1.08l-.19,0-.32,0-.31,0-.2,0a.18.18,0,0,1-.09-.08.17.17,0,0,1,0-.1V51.36a.3.3,0,0,1,0-.1.36.36,0,0,1,.09-.08.48.48,0,0,1,.18,0l.29,0,.28,0a.39.39,0,0,1,.17,0,.36.36,0,0,1,.09.08.17.17,0,0,1,0,.1v.92a4.31,4.31,0,0,1,1.13-1,2.32,2.32,0,0,1,1.12-.3,2.66,2.66,0,0,1,.77.1,2,2,0,0,1,.61.28,1.8,1.8,0,0,1,.44.43,2.18,2.18,0,0,1,.31.56,6.46,6.46,0,0,1,.66-.64,4,4,0,0,1,.6-.43,2.88,2.88,0,0,1,.56-.23,2.08,2.08,0,0,1,.55-.07,2.52,2.52,0,0,1,1.13.23,2.16,2.16,0,0,1,.74.63,2.65,2.65,0,0,1,.4.92,5.65,5.65,0,0,1,.11,1.11Z"/>
      <path class="cls-4" d="M278.56,54.53a.55.55,0,0,1-.15.43.56.56,0,0,1-.35.13h-4.57a4.18,4.18,0,0,0,.12,1,2.09,2.09,0,0,0,.39.79,1.74,1.74,0,0,0,.7.51,2.81,2.81,0,0,0,1.06.17,4,4,0,0,0,.89-.08,4.59,4.59,0,0,0,.67-.18,3.7,3.7,0,0,0,.46-.18.81.81,0,0,1,.28-.08.16.16,0,0,1,.09,0,.19.19,0,0,1,.07.08.49.49,0,0,1,0,.15,1.55,1.55,0,0,1,0,.23v.18s0,.09,0,.13a.3.3,0,0,1,0,.1l-.07.09a.92.92,0,0,1-.25.14,4.08,4.08,0,0,1-.54.19,6.08,6.08,0,0,1-.77.16,5.46,5.46,0,0,1-.93.08,4.19,4.19,0,0,1-1.49-.24,2.9,2.9,0,0,1-1.09-.71,3.08,3.08,0,0,1-.66-1.18,5.45,5.45,0,0,1-.22-1.65,5.09,5.09,0,0,1,.23-1.61,3.48,3.48,0,0,1,.66-1.2,3,3,0,0,1,1.06-.77,3.4,3.4,0,0,1,1.38-.26,3.29,3.29,0,0,1,1.39.26,2.66,2.66,0,0,1,.94.7,2.79,2.79,0,0,1,.54,1,4.45,4.45,0,0,1,.18,1.28Zm-1.28-.38a2.35,2.35,0,0,0-.45-1.57,1.68,1.68,0,0,0-1.39-.57,1.81,1.81,0,0,0-.83.18,1.74,1.74,0,0,0-.6.47,2.12,2.12,0,0,0-.37.68,3.13,3.13,0,0,0-.15.81Z"/>
      <path class="cls-4" d="M286.07,58.3a.17.17,0,0,1,0,.1.27.27,0,0,1-.1.08l-.19,0-.31,0-.32,0a.69.69,0,0,1-.19,0,.21.21,0,0,1-.1-.08.17.17,0,0,1,0-.1V54.24a4.11,4.11,0,0,0-.09-1,2.36,2.36,0,0,0-.27-.62,1.17,1.17,0,0,0-.46-.4,1.38,1.38,0,0,0-.65-.14,1.63,1.63,0,0,0-1,.34,5.13,5.13,0,0,0-1,1V58.3a.17.17,0,0,1,0,.1.27.27,0,0,1-.1.08l-.2,0-.31,0-.31,0a.88.88,0,0,1-.2,0,.27.27,0,0,1-.1-.08.3.3,0,0,1,0-.1V51.36a.16.16,0,0,1,0-.1s.05,0,.09-.08a.48.48,0,0,1,.18,0l.28,0,.29,0a.39.39,0,0,1,.17,0,.36.36,0,0,1,.09.08.17.17,0,0,1,0,.1v.92a4,4,0,0,1,1.16-1,2.55,2.55,0,0,1,1.18-.3,2.66,2.66,0,0,1,1.16.23,2.09,2.09,0,0,1,.77.63,2.35,2.35,0,0,1,.42.92,5.17,5.17,0,0,1,.13,1.27Z"/>
      <path class="cls-4" d="M291.45,57.79a1.56,1.56,0,0,1,0,.35.41.41,0,0,1-.09.2.5.5,0,0,1-.18.11,1.23,1.23,0,0,1-.29.09l-.33.06-.36,0a2.78,2.78,0,0,1-.92-.14,1.51,1.51,0,0,1-.63-.43,1.67,1.67,0,0,1-.36-.73,4.64,4.64,0,0,1-.11-1V52.22h-1a.22.22,0,0,1-.19-.12,1,1,0,0,1-.07-.41,1.66,1.66,0,0,1,0-.24c0-.07,0-.12.05-.17a.24.24,0,0,1,.08-.09.23.23,0,0,1,.11,0h1V49.51a.36.36,0,0,1,0-.1.35.35,0,0,1,.11-.08.64.64,0,0,1,.19,0h.63a.74.74,0,0,1,.19,0,.44.44,0,0,1,.1.08.19.19,0,0,1,0,.1v1.65h1.78a.2.2,0,0,1,.11,0,.24.24,0,0,1,.08.09.69.69,0,0,1,.05.17,1.77,1.77,0,0,1,0,.24.86.86,0,0,1-.07.41.19.19,0,0,1-.18.12h-1.78v3.87a2.22,2.22,0,0,0,.21,1.08.82.82,0,0,0,.76.37,1.55,1.55,0,0,0,.32,0l.24-.07.19-.08.14,0,.07,0a.13.13,0,0,1,0,.07.54.54,0,0,1,0,.15A1.55,1.55,0,0,1,291.45,57.79Z"/>
      <path class="cls-4" d="M297.77,58.31a.15.15,0,0,1-.06.13.29.29,0,0,1-.17.07,1.27,1.27,0,0,1-.32,0,1.39,1.39,0,0,1-.32,0,.27.27,0,0,1-.17-.07.17.17,0,0,1-.05-.13v-.7a3.36,3.36,0,0,1-1,.76,2.65,2.65,0,0,1-1.18.27,3.43,3.43,0,0,1-1-.14,2.18,2.18,0,0,1-.75-.42,1.9,1.9,0,0,1-.49-.66,2.11,2.11,0,0,1-.17-.89,2.08,2.08,0,0,1,.24-1,1.87,1.87,0,0,1,.68-.72,3.46,3.46,0,0,1,1.1-.43,7.06,7.06,0,0,1,1.45-.14h1v-.54a2.6,2.6,0,0,0-.09-.71,1.14,1.14,0,0,0-.27-.51,1.29,1.29,0,0,0-.49-.31,2.28,2.28,0,0,0-.74-.1,3.11,3.11,0,0,0-.84.11,5.41,5.41,0,0,0-.66.25l-.47.24a.6.6,0,0,1-.28.12.15.15,0,0,1-.11,0,.24.24,0,0,1-.08-.09.5.5,0,0,1-.05-.16,1.34,1.34,0,0,1,0-.21,1.24,1.24,0,0,1,0-.3.39.39,0,0,1,.13-.21,1.57,1.57,0,0,1,.36-.24,4.76,4.76,0,0,1,.59-.25,6.31,6.31,0,0,1,.72-.18A4.25,4.25,0,0,1,295,51a4,4,0,0,1,1.27.17,1.93,1.93,0,0,1,.84.49,1.81,1.81,0,0,1,.47.82,3.82,3.82,0,0,1,.15,1.13Zm-1.26-3.17h-1.09a4.06,4.06,0,0,0-.91.09,1.79,1.79,0,0,0-.64.26,1.06,1.06,0,0,0-.37.42,1.2,1.2,0,0,0-.12.55,1.11,1.11,0,0,0,.34.86,1.33,1.33,0,0,0,1,.32,1.78,1.78,0,0,0,.93-.25,4.29,4.29,0,0,0,.9-.78Z"/>
      <path class="cls-4" d="M301,58.3a.17.17,0,0,1,0,.1.21.21,0,0,1-.1.08.69.69,0,0,1-.19,0l-.32,0-.3,0a.77.77,0,0,1-.2,0,.21.21,0,0,1-.1-.08.17.17,0,0,1,0-.1V48a.17.17,0,0,1,0-.1.16.16,0,0,1,.1-.08.72.72,0,0,1,.2,0h.62a.64.64,0,0,1,.19,0,.16.16,0,0,1,.1.08.17.17,0,0,1,0,.1Z"/>
      <path class="cls-4" d="M312.38,51.44a3.61,3.61,0,0,1-.24,1.35,2.84,2.84,0,0,1-.71,1,3.11,3.11,0,0,1-1.12.66,5,5,0,0,1-1.59.23h-1.14v3.59a.2.2,0,0,1,0,.11.23.23,0,0,1-.11.07.72.72,0,0,1-.2.05l-.32,0-.32,0a.83.83,0,0,1-.2-.05.23.23,0,0,1-.11-.07.2.2,0,0,1,0-.11v-9.2a.53.53,0,0,1,.16-.44.55.55,0,0,1,.36-.13h2.14c.21,0,.42,0,.62,0a4.5,4.5,0,0,1,.7.11,2.94,2.94,0,0,1,.82.33,2.52,2.52,0,0,1,1.17,1.42A3.37,3.37,0,0,1,312.38,51.44Zm-1.39.11a2.08,2.08,0,0,0-.23-1,1.66,1.66,0,0,0-.56-.61,1.8,1.8,0,0,0-.69-.25,4.23,4.23,0,0,0-.7-.06h-1.23v4h1.2a2.89,2.89,0,0,0,1-.15,1.89,1.89,0,0,0,.66-.43,1.76,1.76,0,0,0,.41-.65A2.49,2.49,0,0,0,311,51.55Z"/>
      <path class="cls-4" d="M317.92,51.82v.28a.6.6,0,0,1,0,.18.19.19,0,0,1-.05.1.13.13,0,0,1-.1,0,.34.34,0,0,1-.15,0l-.2-.07-.25-.06a1.39,1.39,0,0,0-.3,0,.84.84,0,0,0-.38.08,1.48,1.48,0,0,0-.39.25,3.43,3.43,0,0,0-.43.47c-.14.2-.31.43-.49.72V58.3a.17.17,0,0,1,0,.1.21.21,0,0,1-.1.08l-.19,0-.32,0-.31,0-.19,0a.21.21,0,0,1-.1-.08.17.17,0,0,1,0-.1V51.36a.3.3,0,0,1,0-.1.29.29,0,0,1,.1-.08.39.39,0,0,1,.17,0l.29,0,.28,0a.39.39,0,0,1,.17,0,.36.36,0,0,1,.09.08.17.17,0,0,1,0,.1v1a7.78,7.78,0,0,1,.53-.68,3.29,3.29,0,0,1,.48-.41,1.47,1.47,0,0,1,.44-.21,2.2,2.2,0,0,1,.44,0h.23l.27,0,.25.07a.59.59,0,0,1,.16.08.19.19,0,0,1,.06.07.2.2,0,0,1,0,.09.57.57,0,0,1,0,.16Z"/>
      <path class="cls-4" d="M325.17,54.75a5.11,5.11,0,0,1-.22,1.56,3.33,3.33,0,0,1-.67,1.23,2.86,2.86,0,0,1-1.11.81,3.88,3.88,0,0,1-1.54.29,4,4,0,0,1-1.49-.26,2.61,2.61,0,0,1-1.06-.74,2.85,2.85,0,0,1-.63-1.18,5.38,5.38,0,0,1-.21-1.57,5.21,5.21,0,0,1,.22-1.56,3.32,3.32,0,0,1,.66-1.23,3,3,0,0,1,1.11-.8,3.85,3.85,0,0,1,1.54-.28,4.07,4.07,0,0,1,1.5.25,2.86,2.86,0,0,1,1.06.74,3.18,3.18,0,0,1,.63,1.18A5.35,5.35,0,0,1,325.17,54.75Zm-1.31.09a5.07,5.07,0,0,0-.11-1.06,2.58,2.58,0,0,0-.35-.88,1.71,1.71,0,0,0-.65-.6,2.12,2.12,0,0,0-1-.22,2.24,2.24,0,0,0-1,.2,1.68,1.68,0,0,0-.67.57,2.53,2.53,0,0,0-.4.86,4.74,4.74,0,0,0-.13,1.1,5.24,5.24,0,0,0,.11,1.07,2.6,2.6,0,0,0,.35.87,1.74,1.74,0,0,0,.66.6,2.2,2.2,0,0,0,1,.22,2.28,2.28,0,0,0,1-.2,1.76,1.76,0,0,0,.67-.57,2.34,2.34,0,0,0,.39-.86A4.67,4.67,0,0,0,323.86,54.84Z"/>
      <path class="cls-4" d="M330.26,57.79a1.56,1.56,0,0,1,0,.35.42.42,0,0,1-.1.2.5.5,0,0,1-.18.11,1.15,1.15,0,0,1-.28.09l-.34.06-.35,0a2.84,2.84,0,0,1-.93-.14,1.65,1.65,0,0,1-.63-.43,1.92,1.92,0,0,1-.36-.73,4.64,4.64,0,0,1-.11-1V52.22h-1a.22.22,0,0,1-.19-.12,1,1,0,0,1-.06-.41.9.9,0,0,1,0-.24c0-.07,0-.12,0-.17a.26.26,0,0,1,.09-.09.2.2,0,0,1,.11,0h1V49.51a.19.19,0,0,1,0-.1.29.29,0,0,1,.1-.08.72.72,0,0,1,.2,0h.62a.74.74,0,0,1,.19,0,.29.29,0,0,1,.1.08.19.19,0,0,1,0,.1v1.65H330a.2.2,0,0,1,.11,0,.24.24,0,0,1,.08.09.69.69,0,0,1,.05.17,1.66,1.66,0,0,1,0,.24,1,1,0,0,1-.07.41.22.22,0,0,1-.19.12h-1.78v3.87a2.22,2.22,0,0,0,.21,1.08.83.83,0,0,0,.76.37,1.47,1.47,0,0,0,.32,0l.25-.07.18-.08.14,0,.07,0s0,0,.06.07,0,.09,0,.15A1.4,1.4,0,0,1,330.26,57.79Z"/>
      <path class="cls-4" d="M337.29,54.53a.55.55,0,0,1-.15.43.56.56,0,0,1-.35.13h-4.56a4.74,4.74,0,0,0,.11,1,2.09,2.09,0,0,0,.39.79,1.78,1.78,0,0,0,.71.51,2.74,2.74,0,0,0,1.06.17,3.94,3.94,0,0,0,.88-.08,4.27,4.27,0,0,0,.67-.18,3.16,3.16,0,0,0,.46-.18.87.87,0,0,1,.28-.08.16.16,0,0,1,.16.11.46.46,0,0,1,0,.15c0,.06,0,.14,0,.23a1,1,0,0,1,0,.18.51.51,0,0,1,0,.13.3.3,0,0,1,0,.1l-.07.09a.92.92,0,0,1-.25.14,4.08,4.08,0,0,1-.54.19,5.9,5.9,0,0,1-.76.16,5.46,5.46,0,0,1-.93.08,4.29,4.29,0,0,1-1.5-.24,2.79,2.79,0,0,1-1.08-.71,3,3,0,0,1-.67-1.18,6,6,0,0,1,0-3.26,3.49,3.49,0,0,1,.67-1.2,2.86,2.86,0,0,1,1.05-.77,3.4,3.4,0,0,1,1.38-.26,3.26,3.26,0,0,1,1.39.26,2.58,2.58,0,0,1,.94.7,3,3,0,0,1,.55,1,4.83,4.83,0,0,1,.17,1.28ZM336,54.15a2.3,2.3,0,0,0-.44-1.57,1.72,1.72,0,0,0-1.4-.57,1.84,1.84,0,0,0-.83.18,1.81,1.81,0,0,0-.59.47,1.94,1.94,0,0,0-.37.68,2.76,2.76,0,0,0-.15.81Z"/>
      <path class="cls-4" d="M343.82,57.24c0,.09,0,.17,0,.23s0,.12,0,.16a.43.43,0,0,1,0,.12.41.41,0,0,1-.12.14,1.27,1.27,0,0,1-.33.24,2.8,2.8,0,0,1-.52.26,5,5,0,0,1-.62.18,4.05,4.05,0,0,1-.7.07,3.25,3.25,0,0,1-1.33-.25,2.4,2.4,0,0,1-1-.72,3.34,3.34,0,0,1-.59-1.16,6.14,6.14,0,0,1,.05-3.36,3.17,3.17,0,0,1,.68-1.2,2.7,2.7,0,0,1,1-.7,3.5,3.5,0,0,1,1.27-.23,2.67,2.67,0,0,1,.64.07,3.28,3.28,0,0,1,.58.16,2.28,2.28,0,0,1,.47.23,2.35,2.35,0,0,1,.29.22.75.75,0,0,1,.13.15.81.81,0,0,1,.06.13s0,.1,0,.16,0,.14,0,.23a1,1,0,0,1-.07.42.21.21,0,0,1-.17.12.45.45,0,0,1-.27-.12c-.1-.09-.23-.18-.38-.29a3.24,3.24,0,0,0-.56-.28,2.26,2.26,0,0,0-.77-.12,1.62,1.62,0,0,0-1.41.7,3.55,3.55,0,0,0-.49,2.05A4.55,4.55,0,0,0,339.8,56a2.46,2.46,0,0,0,.37.85,1.63,1.63,0,0,0,.61.5,1.94,1.94,0,0,0,.82.17,2,2,0,0,0,.77-.14,3.74,3.74,0,0,0,.57-.31l.41-.3a.47.47,0,0,1,.26-.13.16.16,0,0,1,.09,0,.2.2,0,0,1,.07.1.84.84,0,0,1,0,.19A1.84,1.84,0,0,1,343.82,57.24Z"/>
      <path class="cls-4" d="M351.14,51.16a.4.4,0,0,1,.32.11.45.45,0,0,1,.08.3V58.3a.17.17,0,0,1,0,.1.21.21,0,0,1-.1.08.88.88,0,0,1-.2,0l-.3,0-.31,0a.77.77,0,0,1-.2,0,.31.31,0,0,1-.11-.08.17.17,0,0,1,0-.1V52.22h-3.58v3.87a2.22,2.22,0,0,0,.21,1.08.82.82,0,0,0,.76.37,1.47,1.47,0,0,0,.32,0l.24-.07.19-.08.14,0,.07,0a.22.22,0,0,1,.06.07l0,.15a1.55,1.55,0,0,1,0,.23,1.13,1.13,0,0,1,0,.35.37.37,0,0,1-.09.19.41.41,0,0,1-.18.12,1.15,1.15,0,0,1-.28.09l-.34.06-.35,0a2.84,2.84,0,0,1-.93-.14,1.51,1.51,0,0,1-.63-.43,1.79,1.79,0,0,1-.36-.73,4.64,4.64,0,0,1-.11-1V52.22h-1a.22.22,0,0,1-.19-.12,1,1,0,0,1-.07-.41,1.66,1.66,0,0,1,0-.24c0-.07,0-.12.05-.17a.24.24,0,0,1,.08-.09l.12,0h1V49.51a.19.19,0,0,1,0-.1.29.29,0,0,1,.1-.08.74.74,0,0,1,.19,0h.63a.74.74,0,0,1,.19,0,.29.29,0,0,1,.1.08.19.19,0,0,1,0,.1v1.65Zm.55-2.14a.85.85,0,0,1-.17.61,1.28,1.28,0,0,1-1.24,0,.8.8,0,0,1-.16-.59.81.81,0,0,1,.17-.61.89.89,0,0,1,.62-.16.92.92,0,0,1,.61.15A.84.84,0,0,1,351.69,49Z"/>
      <path class="cls-4" d="M360,54.75a5.11,5.11,0,0,1-.23,1.56,3.46,3.46,0,0,1-.66,1.23,3,3,0,0,1-1.11.81,4.34,4.34,0,0,1-3,0,2.68,2.68,0,0,1-1.06-.74,3.1,3.1,0,0,1-.63-1.18,5.38,5.38,0,0,1-.21-1.57,5.21,5.21,0,0,1,.22-1.56,3.64,3.64,0,0,1,.66-1.23,3.1,3.1,0,0,1,1.11-.8,3.9,3.9,0,0,1,1.55-.28,4,4,0,0,1,1.49.25,2.78,2.78,0,0,1,1.06.74,3.35,3.35,0,0,1,.64,1.18A5.35,5.35,0,0,1,360,54.75Zm-1.32.09a5.07,5.07,0,0,0-.11-1.06,2.57,2.57,0,0,0-.34-.88,1.79,1.79,0,0,0-.65-.6,2.15,2.15,0,0,0-1-.22,2.25,2.25,0,0,0-1,.2,1.75,1.75,0,0,0-.67.57,2.34,2.34,0,0,0-.39.86,4.25,4.25,0,0,0-.13,1.1,5.25,5.25,0,0,0,.1,1.07,2.6,2.6,0,0,0,.35.87,1.9,1.9,0,0,0,.66.6,2.49,2.49,0,0,0,2,0,1.87,1.87,0,0,0,.68-.57,2.5,2.5,0,0,0,.38-.86A4.2,4.2,0,0,0,358.64,54.84Z"/>
      <path class="cls-4" d="M367.41,58.3a.17.17,0,0,1,0,.1.27.27,0,0,1-.1.08.77.77,0,0,1-.2,0l-.3,0-.32,0a.69.69,0,0,1-.19,0,.21.21,0,0,1-.1-.08.18.18,0,0,1,0-.1V54.24a4.11,4.11,0,0,0-.09-1,1.85,1.85,0,0,0-.27-.62,1.11,1.11,0,0,0-.46-.4,1.33,1.33,0,0,0-.65-.14,1.63,1.63,0,0,0-1,.34,5.13,5.13,0,0,0-1,1V58.3a.17.17,0,0,1,0,.1.39.39,0,0,1-.1.08l-.2,0-.31,0-.31,0-.2,0a.21.21,0,0,1-.1-.08.16.16,0,0,1,0-.1V51.36a.16.16,0,0,1,0-.1s0,0,.09-.08a.48.48,0,0,1,.18,0l.28,0,.28,0a.4.4,0,0,1,.18,0,.36.36,0,0,1,.09.08.3.3,0,0,1,0,.1v.92a4.13,4.13,0,0,1,1.17-1,2.55,2.55,0,0,1,1.18-.3,2.66,2.66,0,0,1,1.16.23,2.18,2.18,0,0,1,.77.63,2.5,2.5,0,0,1,.42.92,5.71,5.71,0,0,1,.13,1.27Z"/>
      <path class="cls-4" d="M378.89,54.72a6.35,6.35,0,0,1-.2,1.64,3.5,3.5,0,0,1-.58,1.23,2.6,2.6,0,0,1-.94.77,2.84,2.84,0,0,1-1.29.28,2.49,2.49,0,0,1-.57-.06,2.25,2.25,0,0,1-.51-.2,2.16,2.16,0,0,1-.5-.33,6.9,6.9,0,0,1-.52-.47v3.47a.2.2,0,0,1,0,.11l-.1.07a.72.72,0,0,1-.2.05l-.31,0-.31,0-.2-.05a.15.15,0,0,1-.12-.18V51.36a.2.2,0,0,1,0-.11s0,0,.09-.07a.48.48,0,0,1,.18,0l.26,0,.27,0a.47.47,0,0,1,.17,0,.26.26,0,0,1,.1.07.36.36,0,0,1,0,.11v.94a7.68,7.68,0,0,1,.61-.57,3.34,3.34,0,0,1,.59-.39,2.42,2.42,0,0,1,.61-.24,2.39,2.39,0,0,1,.66-.08,2.62,2.62,0,0,1,1.29.29,2.36,2.36,0,0,1,.86.8,3.38,3.38,0,0,1,.49,1.18A6.59,6.59,0,0,1,378.89,54.72Zm-1.32.15a6.93,6.93,0,0,0-.08-1,3.25,3.25,0,0,0-.28-.88,1.69,1.69,0,0,0-.53-.62,1.47,1.47,0,0,0-.83-.23,1.67,1.67,0,0,0-1,.31,3,3,0,0,0-.52.41,6.38,6.38,0,0,0-.57.64v2.76a5.26,5.26,0,0,0,1,1,1.63,1.63,0,0,0,1,.34,1.37,1.37,0,0,0,.82-.23,1.73,1.73,0,0,0,.56-.61,3.33,3.33,0,0,0,.32-.87A5.21,5.21,0,0,0,377.57,54.87Z"/>
      <path class="cls-4" d="M381.67,58.3a.17.17,0,0,1,0,.1.21.21,0,0,1-.1.08.69.69,0,0,1-.19,0l-.32,0-.31,0-.19,0a.21.21,0,0,1-.1-.08.17.17,0,0,1,0-.1V48a.17.17,0,0,1,0-.1.16.16,0,0,1,.1-.08.74.74,0,0,1,.19,0h.63a.64.64,0,0,1,.19,0,.16.16,0,0,1,.1.08.17.17,0,0,1,0,.1Z"/>
      <path class="cls-4" d="M388.85,58.31a.15.15,0,0,1-.06.13.29.29,0,0,1-.17.07,1.19,1.19,0,0,1-.31,0,1.33,1.33,0,0,1-.32,0,.3.3,0,0,1-.18-.07.17.17,0,0,1-.05-.13v-.7a3.32,3.32,0,0,1-1,.76,2.73,2.73,0,0,1-1.19.27,3.43,3.43,0,0,1-1-.14,2.28,2.28,0,0,1-.75-.42,1.9,1.9,0,0,1-.49-.66,2.28,2.28,0,0,1-.17-.89,2.08,2.08,0,0,1,.24-1,2,2,0,0,1,.68-.72,3.56,3.56,0,0,1,1.1-.43,7.13,7.13,0,0,1,1.45-.14h1v-.54a3.08,3.08,0,0,0-.08-.71,1.27,1.27,0,0,0-.28-.51,1.21,1.21,0,0,0-.49-.31,2.28,2.28,0,0,0-.74-.1,3.11,3.11,0,0,0-.84.11,5.41,5.41,0,0,0-.66.25l-.47.24a.6.6,0,0,1-.28.12.17.17,0,0,1-.11,0,.36.36,0,0,1-.08-.09.5.5,0,0,1-.05-.16,1.34,1.34,0,0,1,0-.21,1.15,1.15,0,0,1,0-.3.34.34,0,0,1,.13-.21,1.47,1.47,0,0,1,.35-.24,4.76,4.76,0,0,1,.59-.25,6.31,6.31,0,0,1,.72-.18,4.33,4.33,0,0,1,.8-.07,3.94,3.94,0,0,1,1.27.17,1.85,1.85,0,0,1,1.32,1.31,4.2,4.2,0,0,1,.14,1.13Zm-1.26-3.17H386.5a4.06,4.06,0,0,0-.91.09,1.73,1.73,0,0,0-.63.26,1.08,1.08,0,0,0-.38.42,1.2,1.2,0,0,0-.12.55,1.14,1.14,0,0,0,.34.86,1.33,1.33,0,0,0,1,.32,1.75,1.75,0,0,0,.93-.25,3.84,3.84,0,0,0,.9-.78Z"/>
      <path class="cls-4" d="M395.83,51.16v-.71A5,5,0,0,1,396,49.2a2.18,2.18,0,0,1,.41-.85,1.74,1.74,0,0,1,.7-.49,2.92,2.92,0,0,1,1-.16,2.72,2.72,0,0,1,.92.16.46.46,0,0,1,.18.11.44.44,0,0,1,.08.11.8.8,0,0,1,0,.18,1.85,1.85,0,0,1,0,.25,1.63,1.63,0,0,1,0,.24c0,.06,0,.1,0,.14a.14.14,0,0,1-.06.07.08.08,0,0,1-.07,0,.63.63,0,0,1-.22-.07l-.35-.11a1.75,1.75,0,0,0-.4,0,1.14,1.14,0,0,0-.48.09.77.77,0,0,0-.33.29,1.52,1.52,0,0,0-.18.51,4.1,4.1,0,0,0-.06.76v.75h1.55a.21.21,0,0,1,.2.12s0,.1,0,.17a1.66,1.66,0,0,1,0,.24,1,1,0,0,1-.07.41.22.22,0,0,1-.19.12H397.1V58.3a.17.17,0,0,1,0,.1.21.21,0,0,1-.1.08.69.69,0,0,1-.19,0l-.32,0-.3,0a.77.77,0,0,1-.2,0,.21.21,0,0,1-.1-.08.17.17,0,0,1,0-.1V52.22h-3.61v3.87a2.22,2.22,0,0,0,.21,1.08.82.82,0,0,0,.76.37,1.55,1.55,0,0,0,.32,0l.24-.07.19-.08.14,0,.07,0a.13.13,0,0,1,.05.07.54.54,0,0,1,0,.15,2.26,2.26,0,0,1,0,.58.37.37,0,0,1-.09.19.41.41,0,0,1-.18.12,1.23,1.23,0,0,1-.29.09l-.33.06-.36,0a2.82,2.82,0,0,1-.92-.14,1.51,1.51,0,0,1-.63-.43,1.67,1.67,0,0,1-.36-.73,4.13,4.13,0,0,1-.11-1V52.22h-1a.22.22,0,0,1-.19-.12,1,1,0,0,1-.07-.41,1.66,1.66,0,0,1,0-.24.69.69,0,0,1,.05-.17.24.24,0,0,1,.08-.09.23.23,0,0,1,.11,0h1V49.51a.36.36,0,0,1,0-.1.44.44,0,0,1,.1-.08l.2,0h.63a.74.74,0,0,1,.19,0,.44.44,0,0,1,.1.08.19.19,0,0,1,0,.1v1.65Z"/>
      <path class="cls-4" d="M406,54.75a5.11,5.11,0,0,1-.23,1.56,3.33,3.33,0,0,1-.67,1.23,2.9,2.9,0,0,1-1.1.81,4.34,4.34,0,0,1-3,0,2.61,2.61,0,0,1-1.06-.74,3.1,3.1,0,0,1-.63-1.18,5.38,5.38,0,0,1-.21-1.57,5.21,5.21,0,0,1,.22-1.56A3.47,3.47,0,0,1,400,52.1a3.1,3.1,0,0,1,1.11-.8,3.87,3.87,0,0,1,1.55-.28,4,4,0,0,1,1.49.25,2.86,2.86,0,0,1,1.06.74,3.18,3.18,0,0,1,.63,1.18A5.34,5.34,0,0,1,406,54.75Zm-1.32.09a5.07,5.07,0,0,0-.11-1.06,2.57,2.57,0,0,0-.34-.88,1.74,1.74,0,0,0-.66-.6,2.08,2.08,0,0,0-1-.22,2.25,2.25,0,0,0-1,.2,1.68,1.68,0,0,0-.67.57,2.53,2.53,0,0,0-.4.86,4.75,4.75,0,0,0-.12,1.1,5.25,5.25,0,0,0,.1,1.07,2.6,2.6,0,0,0,.35.87,1.82,1.82,0,0,0,.66.6,2.23,2.23,0,0,0,1,.22,2.28,2.28,0,0,0,1-.2,1.76,1.76,0,0,0,.67-.57,2.34,2.34,0,0,0,.39-.86A4.2,4.2,0,0,0,404.72,54.84Z"/>
      <path class="cls-4" d="M411.57,51.82c0,.11,0,.21,0,.28a1.64,1.64,0,0,1,0,.18.29.29,0,0,1-.06.1.12.12,0,0,1-.1,0,.34.34,0,0,1-.15,0l-.2-.07-.25-.06a1.39,1.39,0,0,0-.3,0,.87.87,0,0,0-.38.08,1.3,1.3,0,0,0-.38.25,2.89,2.89,0,0,0-.43.47c-.15.2-.32.43-.5.72V58.3a.17.17,0,0,1,0,.1.21.21,0,0,1-.1.08.69.69,0,0,1-.19,0l-.32,0-.3,0-.2,0a.21.21,0,0,1-.1-.08.17.17,0,0,1,0-.1V51.36a.17.17,0,0,1,0-.1s0,0,.09-.08a.39.39,0,0,1,.17,0l.29,0,.28,0a.35.35,0,0,1,.17,0s.08,0,.09.08a.17.17,0,0,1,0,.1v1a6.21,6.21,0,0,1,.54-.68,2.81,2.81,0,0,1,.47-.41,1.59,1.59,0,0,1,.44-.21,2.3,2.3,0,0,1,.45,0h.22l.27,0a1.49,1.49,0,0,1,.25.07.46.46,0,0,1,.16.08.19.19,0,0,1,.06.07.46.46,0,0,1,0,.09s0,.09,0,.16S411.57,51.7,411.57,51.82Z"/>
      <path class="cls-4" d="M422.91,58.3a.17.17,0,0,1,0,.1.27.27,0,0,1-.1.08.77.77,0,0,1-.2,0l-.3,0-.32,0-.2,0a.21.21,0,0,1-.1-.08.17.17,0,0,1,0-.1V54.08a3.94,3.94,0,0,0-.08-.8,1.65,1.65,0,0,0-.25-.62,1,1,0,0,0-.43-.4,1.2,1.2,0,0,0-.61-.14,1.44,1.44,0,0,0-.89.34,6.1,6.1,0,0,0-1,1V58.3a.17.17,0,0,1,0,.1.24.24,0,0,1-.11.08l-.19,0-.31,0-.3,0a.87.87,0,0,1-.21,0,.27.27,0,0,1-.1-.08.3.3,0,0,1,0-.1V54.08a3.32,3.32,0,0,0-.09-.8,1.83,1.83,0,0,0-.25-.62,1.1,1.1,0,0,0-.43-.4,1.2,1.2,0,0,0-.61-.14,1.46,1.46,0,0,0-.89.34,5.72,5.72,0,0,0-1,1V58.3a.17.17,0,0,1,0,.1.21.21,0,0,1-.1.08l-.19,0-.32,0-.31,0a.69.69,0,0,1-.19,0,.2.2,0,0,1-.13-.18V51.36a.3.3,0,0,1,0-.1.36.36,0,0,1,.09-.08.48.48,0,0,1,.18,0l.29,0,.28,0a.39.39,0,0,1,.17,0,.36.36,0,0,1,.09.08.17.17,0,0,1,0,.1v.92a4.48,4.48,0,0,1,1.13-1A2.32,2.32,0,0,1,416,51a2.66,2.66,0,0,1,.77.1,2,2,0,0,1,.61.28,1.8,1.8,0,0,1,.44.43,2.18,2.18,0,0,1,.31.56,6.46,6.46,0,0,1,.66-.64,4,4,0,0,1,.6-.43,2.88,2.88,0,0,1,.56-.23,2.15,2.15,0,0,1,.56-.07,2.51,2.51,0,0,1,1.12.23,2.16,2.16,0,0,1,.74.63,2.65,2.65,0,0,1,.4.92,5,5,0,0,1,.12,1.11Z"/>
    </g>
  </g>
  <g>
    <path class="cls-5" d="M107.08,12.63v4.65c0,.21-.48.42-1.3.65,1.18,1,2.12,1.73,2.8,2.33-.09.36-.4.55-.92.58h-21l-.28-1h16l1.12-1.44h-1V17.28H92.11v.38c0,.25-.5.54-1.51.89a7.27,7.27,0,0,1-2.35.44h-.62V13H83.46v8.78l1.47-2.42L87.39,22c.25.29.46.55.62.75-.1.34-.39.52-.89.55H83.46v7.28c.32-.09.82-.22,1.5-.38L88,29.42l.06.3a97,97,0,0,1-10,7.35,1.55,1.55,0,0,1-.92,1l-2.22-5.54c.54-.11,1.82-.4,3.82-.85V23.3h-2.9l-.28-1h3.18V13H75.5l-.31-1h7.28l2.15-3.28,3,2.87V9.08l4.72,1.81h9.81l2-2.26,4.34,3.25A3.09,3.09,0,0,1,107.08,12.63Zm-2.57,16.72,3.9,3.07c-.23.25-.65.31-1.26.17q-2.78.79-4.65,1.23a16.88,16.88,0,0,0,6.56,3.08l0,.38a4.81,4.81,0,0,0-3.28,3.55,4.22,4.22,0,0,0-.21.79,14.53,14.53,0,0,1-5.16-5.23Q96,38.75,89.92,41.31a1.64,1.64,0,0,1-1,.85l-1.77-4.92,4-.3v-2.6a46.12,46.12,0,0,1-7.79,2.29l-.21-.45a28,28,0,0,0,10-6.87,3.6,3.6,0,0,0,.34-.37H93v.24c0,.25-.51.54-1.54.88a7.13,7.13,0,0,1-2.39.45h-.61v-9.2l4.75,1.82h7.72l2.19-2.29,4.48,3.31a2.7,2.7,0,0,1-1.4.79v3.52c0,.23-.56.51-1.54.85A.21.21,0,0,1,104.51,29.35ZM92.11,11.88v4.44h1.33V11.88ZM93,24.12V28h8.27V24.12Zm2.46,8.17v4.2c1.19-.11,2.77-.27,4.75-.48a22.73,22.73,0,0,1-2.08-5.6A27.79,27.79,0,0,1,95.42,32.29ZM98,11.88H96.58v4.44H98Zm3.28,17.06H99.66c-.34.38-.6.66-.78.82a13.8,13.8,0,0,0,2.32,2.94c.86-1.1,1.61-2.11,2.22-3.05a8.33,8.33,0,0,1-1.3.14h-.89Zm-.13-12.62h1.4V11.88h-1.4Z"/>
    <path class="cls-5" d="M142.59,32.77l.1,4A1.94,1.94,0,0,1,144,38.3v.34c0,1.21-.81,2-2.43,2.33a16.69,16.69,0,0,1-3.31.27H136c-1.78,0-2.9-.35-3.35-1.06a5.8,5.8,0,0,1-.45-2.7V31.16h-1q-1,6.31-7.28,9.06a28.41,28.41,0,0,1-7,1.91l-.1-.41Q123,39.5,125,35.33a12.41,12.41,0,0,0,.93-2.91,8.21,8.21,0,0,1-2.29.38h-.72V20.46l5.13,2h7.82l1.88-2.08H121.57l-.27-1h-2.77v9.37c.93-.23,2.35-.6,4.24-1.1l.06.31a87.81,87.81,0,0,1-9.5,7.35,1.53,1.53,0,0,1-1,1L110,30.68c.6-.09,1.81-.34,3.66-.75V19.4H110.7l-.27-1h3.21V9.59l6.19.51c-.07.53-.48.87-1.23,1h-.07v6.66l1.54-2.8,2.46,2.84.75,1a.9.9,0,0,1-.89.58h5.47a3,3,0,0,1-1.74-.92,10,10,0,0,0-.72-4.27h-3.66l-.27-1H129V9l6.29.44q-.1.83-1.23,1H134v2.84h3L139.17,10l3.8,3.35.27.27a1,1,0,0,1-1,.55h-5l2.67.68c-.18.43-.61.66-1.3.68a26.37,26.37,0,0,1-5,3.83h3.18l2.46-3.35,3.86,3.25.58.51a1,1,0,0,1-1,.55h-4.31l4.1,3.11a2.61,2.61,0,0,1-1.36.75v7c0,.2-.65.49-1.88.85a8.31,8.31,0,0,1-2.23.38H137v4c.15.34.35.52.58.54h2.32a.84.84,0,0,0,.68-.37,41.79,41.79,0,0,0,1.64-3.86ZM134,14.21h-7c2.14.63,3.31,1.57,3.52,2.8a1.82,1.82,0,0,1-1,2,3.17,3.17,0,0,1-1,.38h4.24A34.09,34.09,0,0,0,134,14.21Zm2.16,9.19h-8.38v2.91h8.38Zm0,6.77V27.3h-8.38v2.87Z"/>
    <path class="cls-5" d="M177.25,27.43h-7.79a17.67,17.67,0,0,0,7.52,6.5,19.15,19.15,0,0,0,2,.89l-.07.41q-2.7.65-3.69,4c0,.16-.09.31-.14.44q-4.17-3.56-6-11.28V40.69c0,.21-.37.47-1.1.79a7.55,7.55,0,0,1-3,.58H164V33.41a27.83,27.83,0,0,1-9.27,6.5l-.27-.34a25.82,25.82,0,0,0,6.87-10.87c.14-.43.27-.86.41-1.27h-7.07l-.28-.95H162v0h2V21.52h-1.51v1.06q0,.41-1.53,1a7.67,7.67,0,0,1-2.77.55h-.69V11.44a2.52,2.52,0,0,1-1,.17,42.53,42.53,0,0,1-3.25,6.87l1.81.68a1.52,1.52,0,0,1-1.09.69V40.66c0,.25-.54.55-1.54.89A7.4,7.4,0,0,1,150,42h-.92V24a31.27,31.27,0,0,1-4,3.38l-.35-.24a52.67,52.67,0,0,0,5.58-14.22c.36-1.43.66-2.82.88-4.17l6.29,2V9.35l5.2,2h7.48l2.23-2.46,4.71,3.52a2.38,2.38,0,0,1-1.5.79v8.75c0,.18-.72.43-2.09.75a9,9,0,0,1-2.12.31h-.85V21.52h-1.5v5H171L173.59,23l4.27,3.52.41.35Q178.08,27.4,177.25,27.43Zm-14.77-15.1v8.23h8.07V12.33Z"/>
    <path class="cls-5" d="M188.46,16l1.95-2.56,3.25,2.7.3.3a1,1,0,0,1-1,.55H180.5l-.31-1Zm4,15.62V39.4c0,.2-.58.49-1.67.85a6.7,6.7,0,0,1-1.91.34h-.76V38.54H185.9v2.19c0,.25-.47.55-1.4.89a6.4,6.4,0,0,1-2.23.44h-.65V28.29L186,30h1.75L189.69,28l4,3A2.21,2.21,0,0,1,192.42,31.57Zm-5.09-11,1.92-2.49,3,2.56.38.34a1,1,0,0,1-1,.55H182l-.27-1ZM182,26.1l-.27-1h5.6l1.92-2.49,3,2.56.38.34a1,1,0,0,1-1,.55Zm9.43-13.6h-9.26l-.27-1h4.95l2-2.6,3,2.56.55.48C192.3,12.29,192,12.47,191.43,12.5Zm-5.53,25h2.18V31H185.9Zm22.76-8.44,3.93,3.45a2,2,0,0,1-1.4.55,16.87,16.87,0,0,1-3.35,3.41,44.7,44.7,0,0,0,6.25.62v.41c-1.8.59-2.93,2.09-3.41,4.48a27.88,27.88,0,0,1-7.45-2.77A37,37,0,0,1,191.6,42l-.17-.45a31.3,31.3,0,0,0,9.3-4,15.52,15.52,0,0,1-4-5.23h-2.9l-.31-1h12.27l2.46-2.22H199v.48q0,.3-1,.75a5.67,5.67,0,0,1-2.42.51h-.79V22.41a18.22,18.22,0,0,1-2.7,2l-.45-.31a33.88,33.88,0,0,0,4.14-9.36,1.62,1.62,0,0,0,.1-.34l1.06.44V12.94H193l-.27-1h4.13V8.81l5.4.47c-.07.41-.38.66-1,.76h-.07V12H204V8.81l5.36.47c0,.41-.34.66-.88.76h-.07V12h.17l1.88-2.49L213.38,12l.48.44a1,1,0,0,1-1,.55h-4.51v1.37c0,.2-.62.42-1.85.65a9.43,9.43,0,0,1-1.81.2h-.44l3.82.65a1.35,1.35,0,0,1-1.36.92l-2.91,1.51h3.86l2-2.39,3.28,2.63.21.17c-.09.36-.41.56-1,.58H206.1v2.26h1.26l1.78-2.19L212,21.52c.15.14.3.26.44.38-.09.36-.4.55-.92.58h-5.4V24.8h1.26l1.78-2.19,3,2.36a2.12,2.12,0,0,1,.31.28c-.09.34-.4.52-.92.54h-1.13c1.27.91,2.45,1.84,3.52,2.77-.09.34-.41.53-1,.55Zm-2.91,3.21h-8.16a14.51,14.51,0,0,0,5.64,3.18A14.48,14.48,0,0,0,205.75,32.32Zm-4.47-19.38v1.5c0,.21-.58.44-1.75.69a7.58,7.58,0,0,1-1.36.2l2.7,1.06c-.23.46-.71.66-1.44.62a9.16,9.16,0,0,1-.68,1l.68.24h2.33q.41-2.53.51-3.42l1.71.31V12.94Zm.44,8.55V19.23H199v2.26Zm0,3.31V22.48H199V24.8Zm-2.77,1v2.36h2.77V25.79Zm7.15,2.36h2.12l1.88-2.36h-4Z"/>
    <path class="cls-5" d="M243.73,17.62v6.74c0,.22-.61.51-1.74.85a6.84,6.84,0,0,1-1.51.34c3.62.44,5.7,1.35,6.22,2.74a1.59,1.59,0,0,1-.34,1.71c.39.32,1.24,1.08,2.56,2.29a.94.94,0,0,1-.95.54h-7.49v3.93c0,1.83-.36,3.09-1.09,3.8s-2.45,1.3-4.75,1.5a6.25,6.25,0,0,0-.86-3.25,5.07,5.07,0,0,0-3.07-1.53v-.45l4.41.24c.41,0,.62-.23.64-.55V32.83H215.7l-.27-1h20.33v-2.7l5.88.48c-.11.48-.5.78-1.16.89v1.33h2.33l.75-1a3.13,3.13,0,0,1-1.34-.82,8,8,0,0,0-1.77-2.19q-5.64,1.14-19.59,3.05a1.68,1.68,0,0,1-1,.71l-2.4-4.75q2.61.07,12.17.07V24.56H225.1c0,.25-.49.56-1.47.92a7.56,7.56,0,0,1-2.46.45h-.65V14l4.85,1.85h4.24V13.42H216.28l-.27-1h13.6V8.81l6,.54q-.1.83-1.2,1h-.07v2.09h7.28l2.26-3,3.52,2.87.65.58a1,1,0,0,1-1,.58H234.36v2.43h4.38l2-2.26,4.34,3.25A2.56,2.56,0,0,1,243.73,17.62ZM220.9,33.55l.27-.2c3.65-.19,6.06.52,7.25,2.12a2.46,2.46,0,0,1,.24,2.87,2.42,2.42,0,0,1-2.4,1.33,3.39,3.39,0,0,1-1.47-.44,11,11,0,0,0-3.18-5C221.36,34,221.12,33.73,220.9,33.55Zm8.71-16.71H225.1v2.9h4.51ZM225.1,23.6h4.51V20.73H225.1Zm14-6.76h-4.72v2.9h4.72Zm0,6.76V20.73h-4.72V23.6Zm-4.72,3.32,4.82,0a11.83,11.83,0,0,0-2.25-1.13l.13-.41c.55,0,1.22,0,2,.07v-.86h-4.72Z"/>
    <path class="cls-5" d="M282,31.43H270.73q3.66,3,10.32,4.55c.89.2,1.76.36,2.6.48l0,.44a4.45,4.45,0,0,0-3.18,3.15,6,6,0,0,0-.28,1,19.49,19.49,0,0,1-10.45-9.61h-.28V41c0,.21-.47.45-1.33.72a10.08,10.08,0,0,1-2.8.38h-1V34.82A35.59,35.59,0,0,1,251.15,41l-.21-.45a27,27,0,0,0,9.37-7.72c.36-.46.69-.91,1-1.37h-10l-.27-1h13.26V27.06h-9.57l-.31-1h9.88V23H253l-.27-.95h9a4,4,0,0,1-1.16-.69,8.85,8.85,0,0,0-1.3-4.47h-8.07l-.27-1h6.36a3.16,3.16,0,0,1-1-.58,8,8,0,0,0-1.6-4.88,3,3,0,0,0-.35-.41l.31-.18c3.1.35,5,1.28,5.71,2.81a2.11,2.11,0,0,1-.38,2.6,2.13,2.13,0,0,1-.92.64h2.7V8.77l5.44.48c-.05.43-.39.72-1,.85h-.07v5.81h1.81V8.77l5.47.48a1,1,0,0,1-.92.82.35.35,0,0,1-.14,0v5.81h.89a38.68,38.68,0,0,0,1.54-6.35l5.84,1.71a1.21,1.21,0,0,1-1.33.65,28.66,28.66,0,0,1-5.3,4h2.77L279,13.18,282.93,16c.16.11.31.23.45.34a1,1,0,0,1-1,.55h-9.75l3.63.95c-.16.46-.6.68-1.3.65a28.79,28.79,0,0,1-5.13,3.56h5l2.42-2.87,3.9,2.87.48.41a1,1,0,0,1-1,.54H269.43v3.05h4.62l2.25-2.74,3.62,2.7.59.48a1,1,0,0,1-1,.55H269.43v3.38H276l2.49-3,3.87,2.94.61.52Q282.87,31.4,282,31.43ZM270.22,16.91h-8.41c1.89.59,2.93,1.49,3.11,2.7a2,2,0,0,1-1,2.15,2.57,2.57,0,0,1-.62.31h5.51A38.86,38.86,0,0,0,270.22,16.91Z"/>
    <path class="cls-5" d="M285.5,30.92l-.41-.48a11.13,11.13,0,0,0,2.25-6.63c.05-.59.07-1.36.07-2.29H285.8l-.3-1h7.58V16.7H291v1.16c0,.21-.58.42-1.74.65a7.7,7.7,0,0,1-1.68.21h-.75V9.66l5.19.44c-.06.44-.38.7-.95.79H291v4.82h2.08V8.87l5.78.52c-.07.47-.42.76-1.06.85h-.07V28.6c0,.25-.53.54-1.6.88a7.51,7.51,0,0,1-2.23.38h-.82V21.52h-1.43q-.34,4.79-2.84,7.21A11.23,11.23,0,0,1,285.5,30.92ZM313.69,22v2.46c0,1.73-.34,2.92-1,3.55a5.25,5.25,0,0,1-2.56,1.13,1.55,1.55,0,0,1,.34,2.12,2.87,2.87,0,0,1-1.06,1h2.19L314,29.07,318,32.35l.34.31a1,1,0,0,1-1,.55H303.61q3.79,3.69,14.94,3.62v.41q-2.78,1-3.42,4.86-6.47-1.47-9.54-4.48a13.81,13.81,0,0,1-2.9-4.41h-.24a9.37,9.37,0,0,1-4.72,5.43q-4,2.19-12.13,3.42l-.21-.51c5.49-1.71,9.1-3.81,10.8-6.29a8.39,8.39,0,0,0,1-2h-11l-.27-1h11.55a23.84,23.84,0,0,0,.48-4l6.5.45a1.2,1.2,0,0,1-1.23.95c-.16,1.08-.32,1.94-.48,2.6h4.41s-.06,0-.11-.07l-.2-.1A5.54,5.54,0,0,0,305.08,29l-.27-.24.24-.2a12.33,12.33,0,0,1,3-.17,4.39,4.39,0,0,0-.58-1.88,3,3,0,0,0-1-.82,2,2,0,0,1-1.4,1.57,2.57,2.57,0,0,1-2.29-.38A6.46,6.46,0,0,0,301,23c-.14-.13-.26-.25-.38-.34l.28-.2c3-.09,4.83.56,5.47,1.95a1.65,1.65,0,0,1,.13.37c1.07.05,1.72.07,1.95.07s.52-.19.55-.44V22H298.25L298,21h11V17.93a44.31,44.31,0,0,1-10.73,2.39L298,20a48.35,48.35,0,0,0,5.5-2.12,2.14,2.14,0,0,1-2-.51,3.79,3.79,0,0,0-.72-2.43c-1.14.32-2,.53-2.56.65l-.21-.31A21,21,0,0,0,303.75,10a15.33,15.33,0,0,0,1-1.47l6.05,1.53c-.18.48-.78.72-1.81.72-.11.09-.5.36-1.16.79h3.93L314,9.39l4.41,3.48a2.63,2.63,0,0,1-1.71.55,25.32,25.32,0,0,1-6.5,4l4.62.37a1.32,1.32,0,0,1-1.17.89V21h.07l1.92-2.67,2.8,2.39.68.69c-.09.36-.4.56-.92.58Zm-12-7.42c1.89.14,2.93.65,3.11,1.54a1.37,1.37,0,0,1-.61,1.37c.55-.28,1.41-.76,2.6-1.44a2.19,2.19,0,0,1-1.51-.37,3.29,3.29,0,0,0-.89-2.16C303.09,14.05,302.19,14.4,301.66,14.58Zm9.51-2h-5a4.26,4.26,0,0,1-.51.24,4.27,4.27,0,0,1-.55.27c1.75,0,2.74.4,3,1.27a1.23,1.23,0,0,1-.13.89A25.36,25.36,0,0,0,311.17,12.6Z"/>
    <path class="cls-5" d="M346.54,35.06l2.53-3.22,4.27,3.35.38.31c-.09.34-.41.52-1,.55H339.57v5.12c-.05.19-.56.39-1.54.62a13,13,0,0,1-2.73.27h-1v-6H320.87l-.27-1h13.7V31.47h-3.52v.78c0,.28-.52.62-1.57,1a8.11,8.11,0,0,1-2.8.54h-.72V20.39l5.37,2.05h11.69l2.18-2.36H321.21l-.27-.95h10.25a3.29,3.29,0,0,1-1.19-.75,9.91,9.91,0,0,0-1.1-4.52h-6l-.27-1h11.65V8.74l6.53.48c-.05.5-.41.82-1.09.95a.45.45,0,0,1-.18,0v2.66h5.4l2.5-3.28,3.83,3.21c.23.19.42.36.58.52a1,1,0,0,1-1,.54h-8.65l4.21,1.23c-.18.46-.62.68-1.3.65a33,33,0,0,1-5.74,3.39h7l2.46-3.32,3.76,3.11.68.62q-.19.51-1,.54H345l4.51,3.39a2.31,2.31,0,0,1-1.23.65v7.59c0,.22-.61.52-1.84.88A8.14,8.14,0,0,1,344,33h-.92V31.47h-3.52v3.59Zm-6.39-21.2h-9.4c2.44.51,3.8,1.41,4.1,2.7a2,2,0,0,1-.92,2.23,4.76,4.76,0,0,1-.62.34h5.3A32.56,32.56,0,0,0,340.15,13.86Zm2.94,9.54H330.78v3h12.31Zm-12.31,7.08h12.31V27.4H330.78Z"/>
    <path class="cls-5" d="M375.29,15.85l.27-.24q6.42.78,8.61,3.93a3.33,3.33,0,0,1,.52,3.55,2.44,2.44,0,0,1-.76.89q2.81,2,4.79,3.62c-.14.37-.48.56-1,.59H374.47V40.66c0,.23-.37.5-1.1.82a8.16,8.16,0,0,1-3.18.58h-1V28.19H355.7l-.27-1H369.2V13.39H358.33l-.3-1H378.6l2.74-3.45,4.3,3.21.82.65c-.13.37-.49.56-1.06.59H374.47v13.8h6.39l2.39-2.9a3.16,3.16,0,0,1-2.32-.41A19.68,19.68,0,0,0,376.52,17C376.08,16.58,375.67,16.19,375.29,15.85Zm-12.82-1.3L368.86,17c-.23.48-.72.69-1.47.65a21.49,21.49,0,0,1-9.13,8l-.34-.27a31.39,31.39,0,0,0,4.28-9.67C362.29,15.29,362.38,14.91,362.47,14.55Z"/>
    <path class="cls-5" d="M416.78,29.55l-.24-.17.14-.75a1.58,1.58,0,0,1-.62.1h-8.92q-2.43,1.36-4.24,2.19,5.69,0,8.86,0a17.71,17.71,0,0,0-1.68-1.2l.17-.45q5.61-.46,7.32,1.71a2,2,0,0,1-.69,3.25c1.05.78,2.11,1.61,3.18,2.5a1,1,0,0,1-1,.54H409.6v3h6l2.5-2.9,3.79,2.73.75.58c-.09.36-.42.56-1,.58H391.79l-.3-1h12.58v-3h-9.23l-.31-1h9.54V33.48c-2.56.44-4.57.75-6.05,1a1.37,1.37,0,0,1-1,.75l-1.91-4.34c1.8,0,3.64.07,5.53.07a16.06,16.06,0,0,0,.69-2.19h-4.17l-.28-1h14.32l1.85-2H396.27q.21,2.91-1.5,4.2a5.09,5.09,0,0,1-.55.31,2.41,2.41,0,0,1-2.53-.21,2.13,2.13,0,0,1-.85-1.23,2.23,2.23,0,0,1,1.37-2.73,1.42,1.42,0,0,1,.41-.2A4.32,4.32,0,0,0,394.8,24a2.93,2.93,0,0,0,.28-1.17h.44a12.41,12.41,0,0,1,.62,2h20.71l2.43-2.4,4.17,3.94a2,2,0,0,1-1.34.47A37.8,37.8,0,0,1,416.78,29.55ZM392.65,12.91l-.27-1h11.69V8.77l6.8.51a1.06,1.06,0,0,1-.89.89l-.38.07V12h4.92L417.09,9l4,2.74c.28.23.53.42.75.58-.13.34-.47.52-1,.55h-5.06c1.25.82,2.51,1.72,3.76,2.7a1,1,0,0,1-1,.58h-4.24l4.3,3.14a2.3,2.3,0,0,1-1.23.69v3.07c0,.18-.77.45-2.25.79a11.26,11.26,0,0,1-2.29.31h-1V22.75h-9V23q0,.41-1.71,1a8.82,8.82,0,0,1-2.94.55h-.71V16.22l5.6,2.05h8.41l1.95-2.08H395l-.28-1h9.34V12.91Zm10.08,8.85h9v-2.5h-9Zm12.41,12.47-.17-.06a11.25,11.25,0,0,0-2-2.23c-3.37.64-5.84,1.08-7.42,1.3l5.27.38a1.05,1.05,0,0,1-1,.92l-.31.07v1.64h3.83Zm-.55-21.32h-5V15.2h3Zm-.95,12.85c1.39,1,2.43,1.71,3.14,2.25l.31-2.25Z"/>
  </g>
</svg>
