<svg xmlns="http://www.w3.org/2000/svg" xmlns:xlink="http://www.w3.org/1999/xlink" width="391.1" height="88.98" viewBox="0 0 391.1 88.98">
  <defs>
    <linearGradient id="未命名漸層_156" data-name="未命名漸層 156" x1="-167.19" y1="1051.23" x2="-166.48" y2="1050.52" gradientTransform="matrix(82.06, 0, 0, -81.99, 13735.69, 86211.06)" gradientUnits="userSpaceOnUse">
      <stop offset="0" stop-color="#ab7927"/>
      <stop offset="0.18" stop-color="#c68f46"/>
      <stop offset="0.34" stop-color="#fedb6b"/>
      <stop offset="0.36" stop-color="#f5d065"/>
      <stop offset="0.5" stop-color="#cba04a"/>
      <stop offset="0.6" stop-color="#b1823a"/>
      <stop offset="0.66" stop-color="#a87734"/>
      <stop offset="0.75" stop-color="#a2722f"/>
      <stop offset="0.86" stop-color="#926321"/>
      <stop offset="0.9" stop-color="#8c5e1c"/>
      <stop offset="1" stop-color="#d69c47"/>
    </linearGradient>
    <linearGradient id="未命名漸層_29" data-name="未命名漸層 29" x1="-162.17" y1="1054.02" x2="-161.28" y2="1054.1" gradientTransform="matrix(318.93, 0, 0, -38.55, 51827.94, 40663.14)" gradientUnits="userSpaceOnUse">
      <stop offset="0" stop-color="#850"/>
      <stop offset="0.18" stop-color="#c68f46"/>
      <stop offset="0.4" stop-color="#6f4103"/>
      <stop offset="0.75" stop-color="#a2722f"/>
      <stop offset="0.9" stop-color="#4f2f02"/>
      <stop offset="1" stop-color="#d69c47"/>
    </linearGradient>
  </defs>
  <g id="圖層_2" data-name="圖層 2">
    <g id="圖層_1-2" data-name="圖層 1">
      <g id="logo">
        <g id="Environmental_Protection_Administration_Executive_Yuan_R.O.C._Taiwan_" data-name="Environmental Protection Administration Executive Yuan R.O.C. Taiwan " style="isolation: isolate">
          <text transform="translate(104.91 63.15)" style="isolation: isolate;font-size: 17px;fill: #3f2400;font-family: BaskOldFace, Baskerville Old Face">Environmental Protection Administration</text>
          <text transform="translate(104.91 78.15)" style="isolation: isolate;font-size: 17px;fill: #3f2400;font-family: BaskOldFace, Baskerville Old Face">Executive Yuan, R.O.C. (Taiwan)</text>
        </g>
        <g id="路径_15690" data-name="路径 15690">
          <path d="M45.13,89A44.47,44.47,0,0,1,4.34,62.15h0L1.92,56.56h.39v0H1.75l-.49-3L.4,51.08H.85L0,45.87H.72c0-.45,0-.91,0-1.37A44.49,44.49,0,0,1,45.17,0h0A44.54,44.54,0,0,1,89.67,44.47a45.31,45.31,0,0,1-.5,6.68h.93l-2.52,7.2h0l-.21.51-.66,1.9h-.13l-.35.83A44.57,44.57,0,0,1,45.13,89ZM12.9,63.56a37.49,37.49,0,0,0,64.82-.43l-12.62.16L52.65,48.14l-.27.48-.25-.17L42.91,62l-1,1.53ZM7.25,60.88l-.61.27ZM59.78,45.8l8.59,10.45h.13ZM55.73,12.88c2.43,2.88,22,29.18,26.73,35.62a38.85,38.85,0,0,0,.21-4A37.52,37.52,0,0,0,45.19,7h0A37.49,37.49,0,0,0,7.73,43h9.49l15-22.85A4.27,4.27,0,0,1,35,17.82,4.59,4.59,0,0,1,39.22,19l.07.06a35.23,35.23,0,0,1,3.06,3l5.77-8.61A4.78,4.78,0,0,1,51.52,11l.34,0,.33,0A4.8,4.8,0,0,1,55.73,12.88ZM52.29,39.39a4.66,4.66,0,0,1,3.15,1.21l-3.27-3.93L50,40a4.81,4.81,0,0,1,1.59-.58l.47-.05ZM56,25.27c.49.58,2.13,2.58,5.06,6.19-3.6-4.81-6.81-9.08-8.76-11.64l-2.56,3.81a5.29,5.29,0,0,1,1.72-.42l.16,0h.16A5.49,5.49,0,0,1,56,25.27ZM38.78,22.6l-.15.44A2.52,2.52,0,0,0,38.78,22.6Zm11.39-5.48.07.09Z" style="fill: #fff"/>
          <path d="M7.55,60.75l-.3-.69H40L51.16,43.65a1.51,1.51,0,0,1,1.06-.76,1.28,1.28,0,0,1,1.09.54L66.73,59.77l15.84-.2v.5l.46.19a41,41,0,0,1-75.48.49m76.35-3.4H74l-.16-.17L52.1,31.12l0-.05,0,0a.35.35,0,0,0-.16-.18s-.19.06-.46.51c-.88,1.47-16,24.77-16.65,25.77l-.16.22H6.3L6.18,57l-.63-1.79-.23-.65H32.4l18-27.2a1.76,1.76,0,0,1,1.28-.68,2,2,0,0,1,1.57.8c1.18,1.32,20.48,25.27,21.58,26.63l.53.52h9.78l-.23.66-.6,1.7-.11.33ZM25.54,53H4.72l-.07-.42-.44-2.68-.1-.57H23.93L40.4,25.18A31.59,31.59,0,0,0,37,21.66a1.43,1.43,0,0,0-1.1-.47c-.33.09-.5.54-.5.54l0,.06,0,.05L19.25,46.26l-.15.22H4.24V46c0-.49,0-1,0-1.5a41,41,0,0,1,82,0,40.24,40.24,0,0,1-.62,7.11l-.06.4h-.4l-4,.16h-.22L80.71,52l0,0,0,0c-.26-.35-26-35.13-27.66-36.88a1.37,1.37,0,0,0-1-.56c-.42.06-.76.56-.86.74v0l0,0L25.94,52.82l-.15.22Z" style="fill: url(#未命名漸層_156)"/>
        </g>
        <path id="路径_16022" data-name="路径 16022" d="M102,20.87a43.17,43.17,0,0,0,11.83-7.2,2.48,2.48,0,0,0,.47,0,.94.94,0,0,0,1-.47l-5.72-3.57a43.5,43.5,0,0,1-7.74,10.81Zm28-11-2.43,3.27H116.93l.15.58h15.61c1,0,1.49-.1,1.78-.51ZM102.12,32.36A36.81,36.81,0,0,0,107,29.13V44.3c4.44,0,5.27-1.31,5.27-1.31V25.71c.69-.15,1-.4,1.13-.73l-1.2-.44c1.24-1.23,2.33-2.43,3.24-3.53.91.08,1.27-.14,1.45-.51l-6.15-3.45a60.55,60.55,0,0,1-8.87,15Zm27.07-9.09H115l.15.58h9.6V37.79c0,.36-.14.54-.51.54h-5.42v.4c2.84.44,4.59,1.13,4.59,5.6,5.82-.43,6.73-3,6.73-6.47v-14h4.44c1,0,1.49-.11,1.78-.51l-4.62-3.49Zm38.72-8.44-2.66,3.67h-4a45.79,45.79,0,0,0,2-6.58c1-.11,1.31-.4,1.42-.91l-7.1-1.31a61.31,61.31,0,0,1-2,13.86l-2.69-2.4-1.93,3v-9.9h4.48c.94,0,1.49-.1,1.74-.51l-4.54-3.38-2.51,3.31H138.47l.15.58H146V35.31l-1.89.22V21.27c.84-.15,1.09-.33,1.16-.73L139.89,20V36c-.76.08-1.45.15-2,.18L140.51,42a1.79,1.79,0,0,0,1.09-.91,137.61,137.61,0,0,0,16.3-6.84l0-.4c-2.37.33-4.7.62-6.92.91V25.16h4.15a24.08,24.08,0,0,1-1.35,3.24l.44.25a20.51,20.51,0,0,0,3.93-4.18,46.38,46.38,0,0,0,2.4,10.26,23.29,23.29,0,0,1-10.11,9.17l.14.4a28.71,28.71,0,0,0,11.61-6.15,17,17,0,0,0,6.26,6.33A5.91,5.91,0,0,1,173,39.64l.07-.4a23.43,23.43,0,0,1-8-4.47c3-4.26,4.55-9.54,5.36-15.69h.43c1,0,1.53-.11,1.82-.51Zm-3,4.25a42.44,42.44,0,0,1-2.73,12.34,23.57,23.57,0,0,1-3.42-7.86,29.2,29.2,0,0,0,2.33-4.47Zm17.54-6.55h-1l-5.24-1.92V44.3h.88c2.4,0,3.85-1.17,3.85-1.49V33.46c1.57.51,1.71,2.11,1.71,4.11,4.26-.37,5.68-2.84,5.68-6.33V31c0-2.95-2.07-5.75-5.82-8,1.67-2.29,3.93-6.08,5.09-8.11.84,0,1.31-.15,1.6-.51l-4.36-4.41Zm-1.5.59h1.9c-.22,2.76-.66,7.49-1,9.93a15.1,15.1,0,0,1,1.75,7.71c0,1.42-.26,2.26-1.17,2.26h-1.53Zm21.36,5.6-2.25,3h-9.28l.14.58h13.79c.95,0,1.45-.11,1.75-.51l-2.22-1.64a43.77,43.77,0,0,0,4.25-2.72,1.94,1.94,0,0,0,1.39-.44l-4-3.86-2.33,2.33h-3.13V11.11c.91-.14,1.2-.36,1.27-.8l-6.37-.61v5.78h-3.45a15.6,15.6,0,0,0-.62-1.78h-.48c.08,1.27-1.16,2.55-2.14,3.05a2.76,2.76,0,0,0-1.82,2.37A2.2,2.2,0,0,0,189,21.28h.2c1.85,0,2.91-1.46,2.91-3.64a8.27,8.27,0,0,0-.15-1.57h11.9c-.07,1.06-.22,2.51-.33,3.57Zm5.21,16.81a19.18,19.18,0,0,1-1.64,3.53,1.06,1.06,0,0,1-1.06.47h-1.41c-.47,0-.47,0-.47-.9V29.16c.8-.11,1.05-.33,1.16-.62h3.28c.94,0,1.45-.11,1.74-.51l-4.26-3.31L202.52,28H187.81l.15.58h3.49c-.07,6.26-1.38,12.41-7,15.4l.25.4c9.1-2.55,11.21-8.7,11.76-15,.9-.11,1.26-.33,1.34-.77H198V38.59c0,3.93.69,4.94,4.77,4.94h2.11c3.16,0,4.4-1,4.4-2.72,0-.62-.14-.88-1.53-1.53V35.53Zm11.75-11.94h3.13c.91,0,1.45-.11,1.71-.51l-.84-.8h20.49c1,0,1.49-.07,1.74-.51L242.1,19.3a3.79,3.79,0,0,0,1.71-.8V13.66a2.56,2.56,0,0,0,1.45-.8l-4.84-3.35-1.75,2.33H228.49L223.58,10v2.37l-3.06-2.66L218.34,13h-7.57l.15.59h3.42V23h-3.21l.19.59h3v9.75c-1.57.22-2.84.36-3.68.47l2.4,6a1.63,1.63,0,0,0,1.09-1,91.66,91.66,0,0,0,10-6.62l0-.32c-1.63.25-3.27.54-4.84.76ZM234.31,18h-1.42V12.42h1.42Zm-10.73,2.33c3.75,0,4.66-1.42,4.66-1.75H239v1.13l1.57,0L239,21.7H222.67l-1.82-1.78-1.6,2.72v-9h3.49a4.73,4.73,0,0,0,.84,0Zm6-2.33h-1.38V12.42h1.38ZM239,18h-1.45V12.42H239Zm3.9,9.14a2.56,2.56,0,0,0,1.45-.8l-5.1-3.49-1.81,2.43h-8l-4.94-1.92V33.67c4,0,4.73-1.6,4.73-1.67v-.22h.51a30.64,30.64,0,0,1-11.86,9.79l.25.51a44.84,44.84,0,0,0,11-4.33v6.4h.95c2.58,0,4.11-.9,4.15-1.12v-9.1a10.59,10.59,0,0,0,.87-.9c1.24,5.48,3.31,9,7.31,11.31.48-2.44,1.75-4,3.46-4.48l0-.4a17.69,17.69,0,0,1-6.37-2.73c1.49-.44,3.35-1,4.58-1.45a2.6,2.6,0,0,0,.62.11.78.78,0,0,0,.66-.33l-3.68-2.8c.69-.29,1.24-.62,1.24-.76Zm-13.72-1.27h8.62V31.2h-8.62Zm8.62,7.09a9.46,9.46,0,0,0,2.19-.14c-.51,1-1.06,2.22-1.57,3.16a13.22,13.22,0,0,1-2.87-3.49,8.27,8.27,0,0,0,.51-.66h1.75Zm37.41-11.82h-2.77c1.68-1.38,3.68-3.09,4.91-4.29.95,0,1.27-.15,1.42-.59L274,14.87h6c1,0,1.49-.11,1.78-.51l-4.47-3.61-2.47,3.53h-2V11.11c1-.14,1.35-.4,1.42-.9l-6.59-.62v4.69h-7.68l.15.59h12.59c-.29,1.85-.73,4.4-1.09,6.22H258.66l.14.58h21.87c1,0,1.49-.11,1.79-.51l-4.66-3.53ZM259,20.25c.91,0,1.45-.11,1.75-.51l-3.39-3.64L255.82,19V11.48c1-.14,1.34-.4,1.42-.91L250.72,10v9.71h-3.34l.14.58h3.2v11.8c-1.6.21-2.94.36-3.78.43l2.33,6.15a1.78,1.78,0,0,0,1.13-1A91.22,91.22,0,0,0,260.88,31l0-.32c-1.71.25-3.38.51-5,.72V20.25Zm4.37-5.17a8,8,0,0,1,.8,3.6,8.26,8.26,0,0,1-.08,1,2.71,2.71,0,0,0,5-1c0-1.27-1.38-2.81-5.46-3.72Zm17.17,20.45a31.54,31.54,0,0,1-1.78,3.93c-.33.47-.51.47-1.21.47h-1.89c-.62,0-.62,0-.62-.76V34.66c2.19,0,4.44-1,4.48-1.27v-6.7a2.48,2.48,0,0,0,1.42-.8l-5.1-3.53L274,24.83h-7.82l-5.32-2V35a8.17,8.17,0,0,0,2.95-.36c-.4,3.67-1.82,7.2-8.77,9.09l.26.48c10.62-1.35,13-5.32,13.93-10.16a2.17,2.17,0,0,0,.62-.1v5.2c0,3.89.84,4.87,5.06,4.87h2.73c3.67,0,4.66-1.12,4.66-2.83,0-.62-.11-.84-1.57-1.53l0-4.15Zm-6.19-6.66H266V25.41h8.4Zm-8.4.58h8.4v3.42H266Zm47.45-4.22-2.7,3.57H308.5V23.45c.77-.11,1-.37,1.06-.73H310v2h.94c2.73,0,4.33-.87,4.33-1.09V14.32a1.93,1.93,0,0,0,1.38-.66l-4.91-3.53-2.07,2.69h-7.53l-5.39-2v.77L290,9.66c-1.27,7.53-3.93,15.68-6.51,20.27l.4.25a28.19,28.19,0,0,0,3.78-3.71V44.26h1c2,0,4.15-1.09,4.19-1.49V20.47c.72-.11,1-.37,1.16-.7l-1.45-.54a51.67,51.67,0,0,0,2.95-6.84c.72,0,1.09-.14,1.31-.4V25h.91c2.58,0,4.11-1.06,4.11-1.38v-.88h1.45V28.8h-8.92l.15.58h6.73a26.54,26.54,0,0,1-7.53,12.05l.29.47a29.24,29.24,0,0,0,9.28-6.3v8.7h1c1.93,0,4.3-1,4.3-1.42V29.56c1.13,5.46,2.87,9.61,6.07,12.37.66-2.51,2-4.07,3.83-4.54l.07-.4c-3.6-1.35-7.46-4-9.46-7.61h7.49c1,0,1.53-.11,1.79-.51ZM301.77,13.41H310v8.73h-8.23Zm35.51.54v1.82l-1-.4A44.42,44.42,0,0,1,331.9,26l-2.62-1.93-1.93,2.58h-5.86l.18.58h9.46c.91,0,1.45-.1,1.71-.51l-.51-.36a18.52,18.52,0,0,0,2.73-2.18v8.15h.8c2.22,0,3.57-1,3.57-1.31v-.29h13.82c.91,0,1.42-.08,1.68-.51l-3.86-2.66-2,2.58h-2.18v-3h4.91c.88,0,1.38-.07,1.64-.51L350,24.29l-1.82,2.29h-1.31V23.63h4.91c.88,0,1.38-.07,1.64-.51L350,20.76l-1.82,2.29h-1.31V20.14h5.64c.91,0,1.42-.08,1.67-.51l-3.67-2.55-2,2.47h-4.33c1.09-.54,2.44-1.27,3.31-1.74,1.06,0,1.46-.29,1.53-.91l-2.76-.47c1.53-.15,3.09-.66,3.09-.87V14h3.82c.95,0,1.45-.07,1.71-.51l-3.56-2.65-1.93,2.58h0V10.89c.8-.11,1-.36,1.06-.76l-5.64-.44v3.68h-2.95V10.89c.84-.11,1-.36,1.09-.76l-5.64-.44v3.68H333l.14.58Zm2.15,9.1V20.14h2.88v2.91Zm0,3.53V23.63h2.88v2.95Zm5.35-10.41-1.92-.33c-.15,1.06-.33,2.62-.51,3.72h-2.44l-.7-.26L340,18c.94,0,1.3-.18,1.45-.62l-2.22-.84a5.33,5.33,0,0,0,2.58-.8V14h2.95Zm-5.35,14v-3h2.88v3Zm-10-.58-1.64,2.14H326l-4.59-1.85V44.26c3.79,0,4.44-1.53,4.44-1.6V40.15h2.25v2.58c3.35,0,4.52-1.2,4.52-1.24V33.35a2.13,2.13,0,0,0,1.26-.66Zm-3.57,2.73h2.25v7.28h-2.25Zm20.67,1H333.76l.18.59h3a15.09,15.09,0,0,0,4.29,5.82,30.46,30.46,0,0,1-9.53,4.15l.11.43a45.38,45.38,0,0,0,11.86-2.87,29,29,0,0,0,7.64,2.87c.44-2.4,1.6-4,3.53-4.65v-.44a58.13,58.13,0,0,1-6.18-.55,17.49,17.49,0,0,0,3.49-3.49c.84-.07,1.2-.18,1.45-.58l-4.29-3.75Zm.18.59a15.52,15.52,0,0,1-2.88,3.67,13.76,13.76,0,0,1-6.22-3.67ZM328.88,9.77l-2,2.73h-5.17l.18.58h9c.91,0,1.45-.11,1.71-.51Zm-.36,7.35h-8.59l.18.58h12.41c.91,0,1.42-.11,1.67-.51l-3.67-2.76Zm-1.17,4.76h-5.86l.18.59h9.46c.91,0,1.45-.11,1.71-.51l-3.56-2.66Zm57.16,5.82h-3.82a46.71,46.71,0,0,0,6.81-4.51,2.18,2.18,0,0,0,.83.22,1.06,1.06,0,0,0,.69-.25l-3.13-2.95a5.57,5.57,0,0,0,2-.72V14.06a2.45,2.45,0,0,0,1.45-.8l-5.06-3.49-1.86,2.44H365.08l-5.38-2V20.8c4.25,0,5-1.68,5-1.75h4.4v3.6h-7.75l.14.58h7.61v4.48H356.53l.18.58h15.83c-1.85,1.09-3.78,2.15-5.82,3.17l-3-1.17v2.59c-2.36,1-4.77,2-7.2,2.76l.14.54c2.4-.43,4.77-.94,7.06-1.56V44.3c4.29,0,5.1-1.71,5.1-1.86V42h12.48V44c3.74,0,5.17-1,5.17-1.09v-8.7a2.45,2.45,0,0,0,1.45-.8l-5.1-3.53-1.89,2.48H370.72a74.49,74.49,0,0,0,8.92-4h9.71c1,0,1.45-.07,1.75-.51l-4.3-3Zm-9.35-9.23h-3V12.79h3Zm-.11.61v0h7.75V20.5h.33c-.47.47-1,.94-1.56,1.42l-3.06-2.22-2.29,2.94h-2V19.88c.91-.15,1.17-.36,1.24-.8Zm7.75-.61h-3.05V12.79h3.05Zm-15.2,0h-2.92V12.79h2.92Zm6.58,4.76H380a60.59,60.59,0,0,1-5.79,4Zm7.1,13.57H368.8V33l.32-.11h12.16Zm-12.48.59h12.48v4.07H368.8Z" style="fill: url(#未命名漸層_29)"/>
      </g>
    </g>
  </g>
</svg>
