<svg xmlns="http://www.w3.org/2000/svg" xmlns:xlink="http://www.w3.org/1999/xlink" width="299" height="251" viewBox="0 0 299 251">
  <defs>
    <clipPath id="clip-path">
      <rect id="矩形_1" data-name="矩形 1" width="299" height="251" transform="translate(23 311)" fill="#fff" stroke="#707070" stroke-width="1"/>
    </clipPath>
  </defs>
  <g id="main_bg" transform="translate(-23 -311)" clip-path="url(#clip-path)">
    <g id="main_bg-2" data-name="main bg" transform="translate(17.087 301.519)" opacity="0.1">
      <g id="组_183-12" data-name="组 183-12">
        <path id="路径_15877-12" data-name="路径 15877-12" d="M290.161,152.125h.01l-14.753-25.552-14.757,25.552h.012a16.687,16.687,0,1,0,29.485,0Zm-15.1,20.711a12.258,12.258,0,0,1-12.244-12.244,1.795,1.795,0,0,1,3.589,0,8.666,8.666,0,0,0,8.655,8.655,1.8,1.8,0,0,1,0,3.589Z" fill="#7d4800"/>
        <path id="路径_15878-12" data-name="路径 15878-12" d="M303.987,137.829h.005l-7.042-12.2-7.042,12.2h.007a7.962,7.962,0,1,0,14.072,0Zm-7.206,9.884a5.849,5.849,0,0,1-5.844-5.845.856.856,0,1,1,1.712,0h0A4.137,4.137,0,0,0,296.78,146a.856.856,0,0,1,0,1.712Z" fill="#7d4800"/>
      </g>
      <path id="路径_15872-12" data-name="路径 15872-12" d="M214.346,260.481h-5.093c-.059-.038-.113-.1-.175-.11-.881-.121-1.766-.22-2.646-.353a26.5,26.5,0,0,1-7.712-2.5,28.239,28.239,0,0,1-6.311-4.2,31.619,31.619,0,0,1-4.924-5.4,28.722,28.722,0,0,1-3.534-6.691,26.479,26.479,0,0,1-1.562-6.413c-.05-.478-.15-.949-.229-1.424V228.3c.038-.058.1-.113.109-.176.121-.881.222-1.765.353-2.644a26.52,26.52,0,0,1,2.5-7.714,28.29,28.29,0,0,1,4.2-6.31,31.616,31.616,0,0,1,5.4-4.923,28.614,28.614,0,0,1,6.689-3.534,26.477,26.477,0,0,1,6.414-1.562c.478-.05.949-.151,1.423-.228h5.093c.06.038.114.1.177.11.881.121,1.766.22,2.644.353a26.45,26.45,0,0,1,7.714,2.5,28.239,28.239,0,0,1,6.311,4.2,31.654,31.654,0,0,1,4.923,5.4,28.783,28.783,0,0,1,3.535,6.691,26.571,26.571,0,0,1,1.561,6.413c.051.477.151.95.229,1.424v5.094c-.038.058-.1.113-.109.175-.121.881-.222,1.765-.354,2.645a26.514,26.514,0,0,1-2.5,7.713,28.261,28.261,0,0,1-4.2,6.311,31.654,31.654,0,0,1-5.4,4.923,28.736,28.736,0,0,1-6.69,3.534,26.527,26.527,0,0,1-6.413,1.562C215.293,260.3,214.821,260.4,214.346,260.481Zm.117-11.429.16.073c1.206-1.313,2.452-2.593,3.607-3.948a17.808,17.808,0,0,0,3.152-5.42,20.209,20.209,0,0,0,1.319-9.211,23.4,23.4,0,0,0-.955-4.825,20.487,20.487,0,0,0-4.675-7.824c-1.619-1.708-3.32-3.337-4.985-5-.091-.091-.2-.166-.315-.264-1.414,1.415-2.79,2.82-4.2,4.193a22.571,22.571,0,0,0-4.948,6.9,20.214,20.214,0,0,0-1.8,7.677,25.633,25.633,0,0,0,.333,4.383,18.242,18.242,0,0,0,3.024,7.74,36.607,36.607,0,0,0,2.6,3.3c.693.808,1.484,1.533,2.231,2.294l.141-.074V237.127h5.3Z" fill="#7d4800"/>
      <path id="路径_15980-12" data-name="路径 15980-12" d="M80.551,73.96a2.734,2.734,0,0,1,1.807,3.418l-.024.073-1.666,5.022,2.791,3.84L84.6,85.48l1.6,2.2,1.284-.933,3.3,4.546s1.295,11.454,1.75,12.08c1.894,2.606,1.066,6.437-1.853,8.558s-6.818,1.728-8.712-.878c-.457-.629-10.951-5.394-10.951-5.394l-3.3-4.546,1.307-.95-1.6-2.205,1.133-.824L66.8,94.72l-.061.16a2.86,2.86,0,0,1-3.592,1.746,2.73,2.73,0,0,1-1.714-3.459c.008-.025.017-.05.026-.075L71.04,66.517a2.863,2.863,0,0,1,3.593-1.746,2.739,2.739,0,0,1,1.712,3.475h0l-.022.064L68.5,90l3.415,4.7,1.109-.8,1.6,2.2,5.981-4.348-1.6-2.205,1.089-.791-2.41-3.317a2.94,2.94,0,0,1-.9-.11,2.729,2.729,0,0,1-1.807-3.409c.008-.027.017-.054.026-.08L77,75.8A2.867,2.867,0,0,1,80.551,73.96ZM64.1,57.752l-9.423,25.84a2.736,2.736,0,0,0,1.606,3.521l.07.025a2.86,2.86,0,0,0,3.6-1.735l9.425-25.836a2.733,2.733,0,0,0-1.6-3.518l-.074-.026a2.865,2.865,0,0,0-3.6,1.73ZM52.441,78.069a2.856,2.856,0,0,0,1-1.319L62.71,51.733A2.735,2.735,0,0,0,61.124,48.2h0c-.022-.009-.045-.018-.069-.026a2.86,2.86,0,0,0-3.6,1.717L48.18,74.909a2.73,2.73,0,0,0,1.58,3.522l.074.027A2.832,2.832,0,0,0,52.441,78.069Zm-6-8.093a2.856,2.856,0,0,0,1.013-1.343L51.272,58a2.737,2.737,0,0,0-1.628-3.513h0l-.064-.023a2.864,2.864,0,0,0-3.59,1.754L42.168,66.847a2.735,2.735,0,0,0,1.62,3.512h0l.066.023a2.835,2.835,0,0,0,2.585-.407Z" fill="#7d4800"/>
      <path id="路径_15981-12" data-name="路径 15981-12" d="M129.31,151.534a39.156,39.156,0,0,0,3.775-4.62L131.3,183.16a.778.778,0,0,0,.218.588.794.794,0,0,0,.577.249h6.117a.793.793,0,0,0,.8-.786v-.005a.815.815,0,0,0-.027-.209l-1.814-36.81a.8.8,0,0,0-.231-.525l-.91-.906a2.732,2.732,0,0,0,.865-.6c.056-.061.1-.128.149-.19a.659.659,0,0,0,.084.063,44.3,44.3,0,0,0,8.056,2.9,41.49,41.49,0,0,0,9.535,1.126c1.053,0,1.673-.045,1.7-.048a.8.8,0,0,0,.361-1.475,39.777,39.777,0,0,0-10.458-4.24,42.121,42.121,0,0,0-8.666-1.129.8.8,0,0,0-.246.048,2.659,2.659,0,0,0-.6-.85,2.572,2.572,0,0,0-1.036-.59.652.652,0,0,0,.039-.175.826.826,0,0,0-.032-.221,40.9,40.9,0,0,0-1.462-8.266,39.705,39.705,0,0,0-4.681-10.27.8.8,0,0,0-1.457.424,39.8,39.8,0,0,0,1.557,11.178,40.974,40.974,0,0,0,3.252,7.851.689.689,0,0,0,.078.1c-.017.017-.039.03-.054.045a2.69,2.69,0,0,0-.685,2.428.933.933,0,0,0-.188.078,40.83,40.83,0,0,0-6.274,5.3,39.7,39.7,0,0,0-6.553,9.187.8.8,0,0,0,.718,1.146.785.785,0,0,0,.378-.1A39.825,39.825,0,0,0,129.31,151.534Zm9.111-8.752a40.218,40.218,0,0,1,7.518,1.053,39.24,39.24,0,0,1,7.2,2.582,39.225,39.225,0,0,1-7.58-1.049,42.12,42.12,0,0,1-7.154-2.508ZM137.355,182.4h-4.419l1.769-35.906.374-.435.512.51Zm-1.615-39.355a1.115,1.115,0,0,1-1.539.032,1.089,1.089,0,1,1,1.54-.034h0Zm-4.469-11.059a39.12,39.12,0,0,1-1.366-7.528,37.033,37.033,0,0,1,4.236,14.43l-.074.017a38.968,38.968,0,0,1-2.8-6.92Zm-8.947,23.388a37.092,37.092,0,0,1,10.08-10.672c.039.043.078.082.119.123l.032.028a37.028,37.028,0,0,1-10.231,10.521Zm54.53,1.269a28.84,28.84,0,0,0-7.589-3.079,30.71,30.71,0,0,0-6.281-.817c-.022,0-.041.011-.065.013a2.129,2.129,0,0,0-.391-.528,2.032,2.032,0,0,0-.647-.406.793.793,0,0,0-.03-.2,29.609,29.609,0,0,0-1.055-5.944,28.924,28.924,0,0,0-3.4-7.453.8.8,0,0,0-1.459.424,28.833,28.833,0,0,0,1.131,8.112,29.486,29.486,0,0,0,2.329,5.639,2.135,2.135,0,0,0-.519,1.436,1.923,1.923,0,0,0,.026.227l-.019.009a29.417,29.417,0,0,0-4.549,3.838,28.793,28.793,0,0,0-4.754,6.666.8.8,0,0,0,1.1,1.051,27.915,27.915,0,0,0,8.752-7.774l-1.248,25.1a.8.8,0,0,0,.762.836h4.438a.8.8,0,0,0,.775-1l-1.3-26.207a.8.8,0,0,0-.234-.525l-.443-.443a2.161,2.161,0,0,0,.415-.329h0a31.678,31.678,0,0,0,5.747,2.054,29.924,29.924,0,0,0,6.914.819c.778,0,1.237-.035,1.237-.035a.8.8,0,0,0,.361-1.475Zm-20.869,2.845a27.175,27.175,0,0,1-3.159,2.8,25.982,25.982,0,0,1,5.827-6.08,27.413,27.413,0,0,1-2.667,3.279Zm4.491-5.688a.561.561,0,0,1,.551-.571h.009a.561.561,0,0,1,.4.949.572.572,0,0,1-.791.017.561.561,0,0,1-.173-.4Zm-2.715-11.626a27.589,27.589,0,0,1,1.5,3.948,27.2,27.2,0,0,1,.848,4.143,25.853,25.853,0,0,1-2.352-8.091Zm2.063,40.018L161.08,156.9l.061-.071.136.136,1.254,25.227Zm8.9-26.41a29.125,29.125,0,0,1-4.071-1.343,26.081,26.081,0,0,1,8.239,2.013,27.165,27.165,0,0,1-4.166-.671Z" fill="#7d4800"/>
      <path id="路径_15982-12" data-name="路径 15982-12" d="M98.75,208.385a1.038,1.038,0,0,0-1.029-.9H54.611a1.036,1.036,0,0,0-1.024.878l-5.343,34.519a1.037,1.037,0,0,0,.867,1.183h0a1.028,1.028,0,0,0,.157.012h19.76l-3.7,10.175H59.3a1.037,1.037,0,0,0-1.035,1.035v4.049a1.037,1.037,0,0,0,1.035,1.035H94.18a1.037,1.037,0,0,0,1.035-1.035v-4.049a1.037,1.037,0,0,0-1.035-1.035H86.371l-3.7-10.175h19.5a.045.045,0,0,0,.023,0,1.035,1.035,0,0,0,1.035-1.035h0a1.067,1.067,0,0,0-.057-.345ZM52.808,226.93h7.818l-.694,6.5H51.8Zm1.329-8.571h7.4l-.694,6.5H53.134Zm44.648,6.5H91.2l-.518-6.5h7.26Zm-9.661,0H81.615l-.173-6.5h7.164Zm-16.61,0,.347-6.5h6.507l.173,6.5Zm7.082,2.072.174,6.5H72.056l.347-6.5Zm1.791-10.644-.179-6.7a.062.062,0,0,0-.008-.037h6.734a.808.808,0,0,0-.017.147l.526,6.586Zm-2.074,0H72.972l.352-6.613a.821.821,0,0,0-.018-.121h5.847c0,.032-.017.06-.017.092Zm-8.06-6.725-.359,6.725h-7.05l.7-6.559a.848.848,0,0,0-.017-.174h6.73Zm-.467,8.8-.347,6.5h-7.5l.692-6.5Zm-8.076,8.571h7.616l-.345,6.5H62.016Zm7.161,8.57-.347,6.5H61.1l.692-6.5Zm2.076,0h7.878L80,242H71.6Zm9.954,0h8.076L90.5,242H82.074Zm-.055-2.073-.174-6.5h7.62l.519,6.5Zm9.525-6.5h7.682l.839,6.5h-8Zm6.31-10.644H90.522l-.539-6.733h6.831ZM55.5,209.55h6.978l-.717,6.733h-7.3ZM51.483,235.5h8.228l-.692,6.5H50.476Zm41.661,22.794H60.334v-1.975h32.81Zm-25.61-4.041,3.7-10.175h9.238l3.7,10.175ZM92.573,242l-.519-6.5h8.1l.838,6.5Z" fill="#7d4800"/>
      <path id="路径_15983-12" data-name="路径 15983-12" d="M227.361,104.923H222.7V96.64h4.66Zm21.875-8.281v8.281h-2.917v5.423H217.24V99.316a27.679,27.679,0,1,1,10.977-8.111h18.1v5.436ZM224.5,75.021a.615.615,0,0,0,.229.479l2.773,2.212a.61.61,0,0,0,.487.123l3.038-.525a.618.618,0,0,1,.4.071l.03.016a24.884,24.884,0,0,0-2.026-14.1.612.612,0,0,0-.55,0l-1.274.665a.614.614,0,0,0-.328.544v2.573a.606.606,0,0,1-.079.3l-2.628,4.708a.606.606,0,0,0-.076.3ZM208.541,48.908l.232.29a.9.9,0,0,0,.235.208l2.546,1.556a.922.922,0,0,1,.391.492c.2.591.6,1.816.648,1.991.049.2,1.247,2.076,1.627,2.666a.893.893,0,0,0,.293.287.919.919,0,0,0,1.264-.3c.015-.026.03-.052.043-.079l.886-1.824a.9.9,0,0,1,.413-.421l2.455-1.233a.49.49,0,0,1,.074-.033l.107-.043a24.711,24.711,0,0,0-11.216-3.553ZM216.968,87.3l2.141-5.176a.988.988,0,0,0-.539-1.289.366.366,0,0,0-.046-.018l-4.588-1.6a.982.982,0,0,1-.539-.457l-.383-.706a1.011,1.011,0,0,0-.366-.377l-3.361-1.985a.977.977,0,0,0-.5-.137h-2.926a.98.98,0,0,0-.856.5l-.219.385a.855.855,0,0,0-.167-.035.833.833,0,0,1-.563-.306L201.606,73a.822.822,0,0,0-.829-.292l-.662.153a.818.818,0,0,1-.632-.11l-1.023-.659a.828.828,0,0,1-.358-.872l.252-1.119a.825.825,0,0,1,.8-.642h3.762a.828.828,0,0,0,.694-.383l2.511-3.968a.815.815,0,0,1,.4-.328l2.239-.858a.806.806,0,0,0,.374-.293l2.034-2.863a.823.823,0,0,0-.052-1.017L208.9,57.214a.845.845,0,0,0-.353-.235l-2.99-1.039a.824.824,0,0,0-1.045.516h0q-.012.037-.021.075l-.547,2.308a.821.821,0,0,1-.987.611.839.839,0,0,1-.162-.056l-2.573-1.209a.8.8,0,0,1-.35-.309l-.533-.859a.823.823,0,0,1,.18-1.074l3.317-2.677a.829.829,0,0,0,.3-.741l-.11-.9.946-.137a.773.773,0,0,1,.58.151l.859.648a.781.781,0,0,1,.309.62v.386a.778.778,0,0,0,.363.659l1.657,1.039a.777.777,0,0,0,1.071-.244.765.765,0,0,0,.1-.248l.216-.979a.777.777,0,0,0-.18-.683l-3.175-3.579a.784.784,0,0,0-.732-.246l-.791.156a.687.687,0,0,1-.15.014h-1.334a24.928,24.928,0,0,0-16.352,10.363l2,1.977a.818.818,0,0,1,.243.519l.243,3.079a.808.808,0,0,0,.2.476l6.27,7.161a.813.813,0,0,0,.243.189l5.526,2.833c.014,0,.024.014.038.019l1.621.724a.818.818,0,0,1,.4.391l.5,1.017a.812.812,0,0,0,.326.353l-.566,2.122a.967.967,0,0,0,.068.689l1.335,2.715a.95.95,0,0,0,.372.407l1.11.673a.984.984,0,0,1,.465.984l-1.45,10.087a1,1,0,0,0,.1.591l1.05,2.054h.344q.861,0,1.709-.06a.989.989,0,0,0-.183-.629l-.511-.7a.987.987,0,0,1-.063-1.063l1.632-2.907a.986.986,0,0,1,.394-.385l1.217-.651a.965.965,0,0,0,.271-.213l3.049-3.429a1,1,0,0,1,.473-.3l1.482-.41a.988.988,0,0,0,.646-.565Zm26.615,6.645H219.974v13.672h23.607Z" fill="#7d4800"/>
    </g>
  </g>
</svg>
