<svg xmlns="http://www.w3.org/2000/svg" xmlns:xlink="http://www.w3.org/1999/xlink" width="28.426" height="28.4" viewBox="0 0 28.426 28.4">
  <defs>
    <linearGradient id="linear-gradient" x1="0.5" x2="0.5" y2="1" gradientUnits="objectBoundingBox">
      <stop offset="0" stop-color="#ab7927"/>
      <stop offset="0.185" stop-color="#c68f46"/>
      <stop offset="0.338" stop-color="#fedb6b"/>
      <stop offset="0.363" stop-color="#f5d065"/>
      <stop offset="0.499" stop-color="#cba04a"/>
      <stop offset="0.602" stop-color="#b1823a"/>
      <stop offset="0.66" stop-color="#a87734"/>
      <stop offset="0.748" stop-color="#a2722f"/>
      <stop offset="0.86" stop-color="#926321"/>
      <stop offset="0.896" stop-color="#8c5e1c"/>
      <stop offset="1" stop-color="#d69c47"/>
    </linearGradient>
  </defs>
  <path id="menu_ico1" d="M966.063,100.165l-.1-.24h11.351l3.862-5.686a.531.531,0,0,1,.369-.262.434.434,0,0,1,.376.186l4.651,5.662,5.485-.068v.172l.16.066a14.207,14.207,0,0,1-26.15.171m26.45-1.179h-3.433l-.054-.062L981.5,89.9l-.013-.016-.016-.016a.153.153,0,0,0-.058-.063c-.007,0-.064.021-.158.177-.307.511-5.547,8.583-5.769,8.93l-.054.078h-9.808l-.04-.115-.218-.62-.079-.228h9.384l6.247-9.422a.618.618,0,0,1,.442-.237.7.7,0,0,1,.545.277c.408.458,7.095,8.756,7.476,9.227l.181.181h3.391l-.08.229-.207.59-.04.115Zm-20.218-1.5h-7.212l-.024-.143-.154-.928-.033-.2h6.866l5.7-8.38a10.9,10.9,0,0,0-1.184-1.219.493.493,0,0,0-.381-.161c-.114.031-.172.185-.172.186l-.007.021-.012.019-5.57,8.458-.05.078h-5.15l-.005-.166c-.006-.171-.009-.345-.009-.521a14.2,14.2,0,1,1,28.187,2.454l-.024.137-.139,0-1.389.054h-.075l-.054-.054-.009-.009-.007-.01c-.09-.122-9.027-12.172-9.582-12.777a.466.466,0,0,0-.352-.193c-.145.019-.263.192-.3.256v.01l-.006.009-8.716,13-.054.076Z" transform="translate(-964.876 -80.335)" fill="url(#linear-gradient)"/>
</svg>
