<svg xmlns="http://www.w3.org/2000/svg" xmlns:xlink="http://www.w3.org/1999/xlink" width="175.76749" height="23.80719" viewBox="0 0 175.76749 23.80719">
  <defs>
    <linearGradient id="未命名漸層_10" data-name="未命名漸層 10" x1="-1406.42271" y1="1.51509" x2="-1406.42271" y2="2.58728" gradientTransform="translate(110634.88299 -14.30635) scale(78.57007 14.73114)" gradientUnits="userSpaceOnUse">
      <stop offset="0" stop-color="#ab7927"/>
      <stop offset="0.185" stop-color="#c68f46"/>
      <stop offset="0.338" stop-color="#fedb6b"/>
      <stop offset="0.363" stop-color="#f5d065"/>
      <stop offset="0.499" stop-color="#cba04a"/>
      <stop offset="0.602" stop-color="#b1823a"/>
      <stop offset="0.66" stop-color="#a87734"/>
      <stop offset="0.748" stop-color="#a2722f"/>
      <stop offset="0.86" stop-color="#926321"/>
      <stop offset="0.896" stop-color="#8c5e1c"/>
      <stop offset="1" stop-color="#d69c47"/>
    </linearGradient>
    <linearGradient id="未命名漸層_10-2" x1="-1406.51349" y1="0.85633" x2="-1406.51349" y2="1.92851" gradientTransform="translate(108886.52985 -9.76965) scale(77.32184 16.11151)" xlink:href="#未命名漸層_10"/>
    <linearGradient id="未命名漸層_10-3" x1="-1406.62783" y1="-0.16275" x2="-1406.62783" y2="0.90945" gradientTransform="translate(106744.85568 3.08573) scale(75.79205 18.888)" xlink:href="#未命名漸層_10"/>
    <linearGradient id="未命名漸層_10-4" x1="-1442.01137" y1="5.29263" x2="-1442.01137" y2="6.36482" gradientTransform="translate(15560.58967 -43.18759) scale(10.67297 9.79822)" xlink:href="#未命名漸層_10"/>
    <linearGradient id="未命名漸層_10-5" x1="-1435.60081" y1="0.75211" x2="-1435.60081" y2="1.82429" gradientTransform="translate(18445.98391 -9.15495) scale(12.78235 16.35242)" xlink:href="#未命名漸層_10"/>
    <linearGradient id="未命名漸層_10-6" x1="-1406.49867" y1="1.51513" x2="-1406.49867" y2="2.58733" gradientTransform="translate(110549.56781 -14.30693) scale(78.56812 14.73108)" xlink:href="#未命名漸層_10"/>
    <linearGradient id="未命名漸層_10-7" x1="-1406.59108" y1="0.85639" x2="-1406.59108" y2="1.92858" gradientTransform="translate(108799.70052 -9.77058) scale(77.31903 16.11145)" xlink:href="#未命名漸層_10"/>
    <linearGradient id="未命名漸層_10-8" x1="-1406.70945" y1="-0.16616" x2="-1406.70945" y2="0.90603" gradientTransform="translate(106653.5902 3.14027) scale(75.78784 18.89905)" xlink:href="#未命名漸層_10"/>
    <linearGradient id="未命名漸層_10-9" x1="-1443.04814" y1="5.29263" x2="-1443.04814" y2="6.36481" gradientTransform="translate(15407.24426 -43.18759) scale(10.67291 9.79822)" xlink:href="#未命名漸層_10"/>
    <linearGradient id="未命名漸層_10-10" x1="-1435.68169" y1="0.75211" x2="-1435.68169" y2="1.82429" gradientTransform="translate(18432.0334 -9.15495) scale(12.78271 16.35242)" xlink:href="#未命名漸層_10"/>
  </defs>
  <g id="圖層_2" data-name="圖層 2">
    <g id="圖層_1-2" data-name="圖層 1">
      <g id="news_bottom">
        <g id="组_150" data-name="组 150">
          <g id="组_145" data-name="组 145">
            <path id="路径_15900" data-name="路径 15900" d="M174.27578,17.45873l-.34095.3367a12.06535,12.06535,0,0,1-1.02075.9328,18.21194,18.21194,0,0,1-4.35419,2.68689c-.24877.10718-.50283.22623-.76553.33454l-.818.30664-.42356.15549-.4374.13833c-.2949.09116-.59513.18979-.90284.27768a32.85246,32.85246,0,0,1-4.00253.82987,40.21234,40.21234,0,0,1-4.49463.34414,45.44579,45.44579,0,0,1-4.82486-.18225,54.605,54.605,0,0,1-11.9667-2.50357c-1.6973-.55756-3.21659-1.15045-4.54071-1.72836s-2.43277-1.14725-3.32376-1.60828c-1.902-.67548-4.649-1.72836-7.94281-2.97745-1.65116-.61221-3.431-1.28662-5.33844-1.92352s-3.91889-1.263-6.02146-1.80344a53.12889,53.12889,0,0,0-8.85412-1.49252,21.78218,21.78218,0,0,0-7.20188.70017c-1.025.24658-1.94925.50821-2.76306.74084s-1.51608.43637-2.095.59186-1.03037.267-1.33807.33343l-.47074.0976.44708-.17368c.29273-.11471.72052-.29159,1.2663-.52969l1.99323-.87064c.78057-.3367,1.67694-.71087,2.69336-1.0722a26.0163,26.0163,0,0,1,3.416-.98959c.31628-.06537.63687-.13508.965-.18015s.66906-.10721,1.01642-.13083l.52432-.04935c.17688-.01178.35592-.01394.5361-.02148l.54361-.01611.5361.01394a40.455,40.455,0,0,1,9.238,1.25766,55.3054,55.3054,0,0,1,6.149,1.99106c1.91381.7366,3.67334,1.53217,5.28268,2.28055,3.209,1.51929,5.80267,2.88739,7.59537,3.81378.95208.34311,2.10687.76337,3.45993,1.17938s2.89493.85773,4.59863,1.26734a82.24447,82.24447,0,0,0,11.75977,1.96316c1.59219.14044,3.15008.23264,4.65429.25409s2.95282-.02569,4.32947-.12546a35.947,35.947,0,0,0,3.88132-.5082c.3013-.06009.59289-.12763.88345-.18763l.4289-.09222.41711-.10718.80951-.21445c.26163-.07827.51462-.16406.76449-.24234a20.26556,20.26556,0,0,0,4.51819-2.05859c.51465-.297.87915-.58008,1.13764-.75912Z" style="fill: url(#未命名漸層_10)"/>
          </g>
          <g id="组_146" data-name="组 146">
            <path id="路径_15901" data-name="路径 15901" d="M173.773,18.606l-.4289.1973c-.28625.12545-.70336.32162-1.25335.55218A27.87616,27.87616,0,0,1,167.237,20.7943a29.14358,29.14358,0,0,1-7.55036.4289,37.36254,37.36254,0,0,1-4.4356-.61868,46.38644,46.38644,0,0,1-4.634-1.20725c-2.12185-.6701-4.12149-1.44958-5.986-2.2409s-3.594-1.59757-5.17972-2.35132c-3.1672-1.515-5.76837-2.80591-7.57605-3.6594-.95211-.3045-2.124-.66369-3.475-1.06363s-2.882-.79339-4.5922-1.233-3.52642-.94354-5.46066-1.42065-3.97568-.93064-6.09323-1.24481a26.52632,26.52632,0,0,0-8.73941-.04288l-.49.0954-.47818.11368c-.32163.06863-.624.17047-.93063.25305s-.60474.19729-.88135.29806a7.14555,7.14555,0,0,0-.79126.3581,22.8543,22.8543,0,0,0-2.78766,1.87527,24.03814,24.03814,0,0,1-2.39633,1.62439,7.88367,7.88367,0,0,1-2.03717.84811,4.84832,4.84832,0,0,1-1.37668.15012c-.15759,0-.27661-.01932-.35593-.02466l-.12008-.01288.12112-.00857c.08044-.00858.19836-.00751.35168-.03324a5.007,5.007,0,0,0,1.292-.34631,8.01015,8.01015,0,0,0,1.80664-1.06256A28.15512,28.15512,0,0,0,96.567,8.42123a20.7329,20.7329,0,0,1,2.74377-2.25156,8.18936,8.18936,0,0,1,.8974-.5007c.31628-.14691.62189-.27341.94458-.40527.32166-.11576.65082-.24979.99286-.34848l.51254-.1587.52536-.13723c.35169-.09757.71515-.1619,1.08075-.24018.36667-.06009.73877-.133,1.11722-.17367a21.20476,21.20476,0,0,1,2.317-.17368,28.66426,28.66426,0,0,1,4.83126.32166,46.72338,46.72338,0,0,1,6.26691,1.426c1.94925.57358,3.75266,1.19547,5.41135,1.77555.82666.28839,1.61685.565,2.37381.84811l.55862.20694.5361.21445,1.025.41281c1.31338.55218,2.436,1.06042,3.341,1.49356,1.91278.60147,4.67047,1.57721,7.94385,2.83276s7.07641,2.76627,11.19037,4.07431c1.515.48035,3.00216.891,4.455,1.24161s2.8628.59506,4.21689.79452a32.2511,32.2511,0,0,0,12.1565-.59289Z" style="fill: url(#未命名漸層_10-2)"/>
          </g>
          <g id="组_147" data-name="组 147">
            <path id="路径_15902" data-name="路径 15902" d="M174.27584,17.4577l-.39136.27557c-.12762.09219-.28845.20267-.48468.32165s-.41919.268-.68292.41169a13.62877,13.62877,0,0,1-4.85062,1.65866,15.63352,15.63352,0,0,1-3.5918.06433,24.09274,24.09274,0,0,1-4.03039-.757c-1.38526-.37634-2.80585-.85773-4.25015-1.37884l-2.18943-.80951-2.23874-.8985q-1.53858-.62508-3.01605-1.24588c-.981-.41819-1.95028-.80735-2.86383-1.248-1.83771-.85773-3.56824-1.68548-5.15506-2.466-.79556-.38492-1.55038-.76554-2.26343-1.13227L136.2463,9.20931c-1.26413-.65939-2.35883-1.23947-3.24228-1.71548-1.88813-.698-4.63291-1.723-7.90525-3.02359a45.40765,45.40765,0,0,0-5.32128-1.70154,30.12772,30.12772,0,0,0-6.08146-.89957,21.213,21.213,0,0,0-4.51394.27127l-.27124.03861c-.089.01611-.17688.0386-.26483.05679l-.53611.119-.52432.10718c-.17151.044-.3399.09863-.50821.14691-.33557.10718-.67547.18546-.9993.30344l-.95642.35809-.237.089-.22729.10718-.45029.20907c-.29159.13941-.61435.26911-.85773.41065a11.02779,11.02779,0,0,0-1.47641,1.05609c-.935.77731-1.78515,1.58362-2.6,2.28378a18.02209,18.02209,0,0,1-2.33847,1.76267,8.91132,8.91132,0,0,1-1.08182.55435,5.44047,5.44047,0,0,1-.981.29913,3.45162,3.45162,0,0,1-1.39383.01395,2.46536,2.46536,0,0,1-.34848-.08686l-.11688-.0343.12116.01395a2.61974,2.61974,0,0,0,.35272.02893,3.41363,3.41363,0,0,0,1.31341-.21445,5.3123,5.3123,0,0,0,.86527-.40527,8.89045,8.89045,0,0,0,.93713-.65082,19.50009,19.50009,0,0,0,2.0307-1.94818c.72156-.76874,1.48068-1.649,2.39417-2.555a11.56068,11.56068,0,0,1,1.574-1.32413c.32166-.21445.61759-.35922.9328-.5361l.47177-.25733.23911-.1297.24979-.1072,1.01641-.45029c.34632-.14691.71088-.25516,1.07221-.38709.18225-.06112.36346-.12866.55-.18545l.56613-.148.57254-.148c.0954-.02356.19192-.05142.28952-.07291l.29376-.05255a20.05929,20.05929,0,0,1,4.90952-.371,26.45782,26.45782,0,0,1,6.45669,1.10007,36.58132,36.58132,0,0,1,5.41135,2.10577c3.17044,1.5643,5.77591,2.90991,7.55145,3.85986.94354.35169,2.09934.79019,3.431,1.30484l4.4678,1.75843c1.64048.64328,3.41172,1.35632,5.27732,2.12826.92853.39887,1.9021.75055,2.88412,1.14295s1.98786.788,3.00217,1.20083l2.21191.91028,2.16584.86423c1.41314.56717,2.76843,1.09573,4.07437,1.53857a26.53166,26.53166,0,0,0,3.74624.99823,16.0983,16.0983,0,0,0,3.34418.267,14.391,14.391,0,0,0,4.8056-.99823c.27668-.10718.51789-.20908.72589-.3013s.386-.17047.52533-.24017Z" style="fill: url(#未命名漸層_10-3)"/>
          </g>
          <g id="组_148" data-name="组 148">
            <path id="路径_15903" data-name="路径 15903" d="M170.57564,18.97808s.19727-.06329.53607-.15869c.16938-.04822.36884-.13617.594-.21445a5.48427,5.48427,0,0,0,.70337-.3688,3.03626,3.03626,0,0,0,1.20294-1.32736,3.38168,3.38168,0,0,0,.1737-.45679c.01819-.08362.03754-.16623.059-.24875q.02791-.12858.0429-.25946a4.746,4.746,0,0,0,.01923-1.12363,7.27722,7.27722,0,0,0-.93817-2.911,6.85892,6.85892,0,0,0-.75049-1.06146,6.46879,6.46879,0,0,0-.74091-.72482,5.90417,5.90417,0,0,0-2.302-.05359,10.83367,10.83367,0,0,0-1.485.35272,4.97038,4.97038,0,0,0-.684.28632c-.10721.05038-.19306.12225-.29489.1748-.04072.03323-.08036.06754-.12226.09973l-.0632.04718-.04935.05359a1.346,1.346,0,0,0-.38821.67011,1.95035,1.95035,0,0,0,.03323.87487,2.73177,2.73177,0,0,0,.91028,1.46033,1.2179,1.2179,0,0,0,.5993.26373l.075.01288h.07184a1.27039,1.27039,0,0,0,.14267-.00537,2.28728,2.28728,0,0,0,.25418-.0665l.20483-.09115.14264-.09326.12329-.07932-.06323.13187c-.02149.04287-.04828.09863-.08362.163a1.63021,1.63021,0,0,1-.15656.20267,1.96248,1.96248,0,0,1-.25088.22519,1.81858,1.81858,0,0,1-.17474.09756l-.09751.04935-.10721.0343a1.78609,1.78609,0,0,1-1.05072,0,3.31633,3.31633,0,0,1-1.98785-1.72619,3.16879,3.16879,0,0,1-.341-1.67478,2.815,2.815,0,0,1,.26162-.95315l.11689-.2284.14474-.21445a2.40146,2.40146,0,0,1,.3302-.38171l.12225-.12009.12867-.09973c.08691-.06537.17471-.13083.26162-.19192a4.91716,4.91716,0,0,1,.53611-.27982,4.86026,4.86026,0,0,1,1.053-.30554l.49854-.0665.47394-.01825a3.93717,3.93717,0,0,1,.45141.00962l.4289.02789c.14477.01825.28949.04285.42889.06537l.20368.0343.19513.05359.36883.10721c.11585.044.22736.09326.3335.1394a4.38674,4.38674,0,0,1,1.00256.60474,4.85789,4.85789,0,0,1,1.09259.416,5.4414,5.4414,0,0,1,1.25763.9296,5.843,5.843,0,0,1,1.72186,3.58859,4.76379,4.76379,0,0,1-.1297,1.65762,3.64637,3.64637,0,0,1-.12017.39133l-.15552.37418a3.94177,3.94177,0,0,1-.416.67117,3.728,3.728,0,0,1-.50824.54788c-.089.08045-.18975.14582-.28192.21445a1.99225,1.99225,0,0,1-.28522.18338,3.26271,3.26271,0,0,1-.57366.25946l-.27552.09116c-.089.02682-.18115.0386-.26806.05575a4.39622,4.39622,0,0,1-.92743.07932,6.66338,6.66338,0,0,1-.67652-.07291C170.76644,19.03057,170.57564,18.97808,170.57564,18.97808Z" style="fill: url(#未命名漸層_10-4)"/>
          </g>
          <g id="组_149" data-name="组 149">
            <path id="路径_15904" data-name="路径 15904" d="M97.76549,16.26107l-.237.09863a4.58375,4.58375,0,0,1-.713.21445,2.75347,2.75347,0,0,1-.55646.06537,1.68967,1.68967,0,0,1-.71408-.133,1.22972,1.22972,0,0,1-.65082-.68838,1.96242,1.96242,0,0,1-.08578-1.00891A4.27475,4.27475,0,0,1,96.615,12.09335a2.97326,2.97326,0,0,1,1.33166-.4943,2.48734,2.48734,0,0,1,.81809.05039,2.61516,2.61516,0,0,1,.773.32165,3.035,3.035,0,0,1,.62189.50925,3.901,3.901,0,0,1,.46743.59723,5.30785,5.30785,0,0,1,.35273.6347,5.11665,5.11665,0,0,1,.267.668c.03861.11688.07825.23377.11472.35385s.05359.24875.08148.37418l.03751.18872.01929.1973c.01074.13186.02789.26266.02893.39669a4.08805,4.08805,0,0,1-.52323,2.09824A4.63092,4.63092,0,0,1,99.661,19.46783a6.64714,6.64714,0,0,1-3.14792,1.159,7.62561,7.62561,0,0,1-2.71588-.17688,5.74922,5.74922,0,0,1-1.871-.82986,4.34,4.34,0,0,1-.84378-.42889L90.8572,19.04c-.07508-.05575-.14475-.119-.21445-.18121a5.52409,5.52409,0,0,1-.42889-.40311,6.18209,6.18209,0,0,1-.802-1.03253,4.34694,4.34694,0,0,1-.564-1.43781,3.97781,3.97781,0,0,1,.06537-1.753,5.433,5.433,0,0,1,.76553-1.64474,11.31669,11.31669,0,0,1,2.53467-2.5679A35.91954,35.91954,0,0,1,96.35317,7.3821c1.28662-.73123,2.451-1.366,3.38489-1.95565a13.03984,13.03984,0,0,0,2.09292-1.5611,6.20065,6.20065,0,0,0,.49427-.52319l.15972-.19837-.09115.23911a5.165,5.165,0,0,1-.3367.66156,10.21639,10.21639,0,0,1-1.74872,2.109A30.35482,30.35482,0,0,1,97.199,8.69134c-1.2019.88455-2.55181,1.79269-3.85986,2.79413a13.38572,13.38572,0,0,0-2.27841,2.1015,3.36547,3.36547,0,0,0-.87064,2.23016,4.36423,4.36423,0,0,0,.72907,2.08325c.09863.148.18979.3013.28735.42032.04822.06217.09223.12763.14258.18659l.15549.16726a4.28825,4.28825,0,0,0,.63263.54468,5.90278,5.90278,0,0,0,1.80023.33991,7.82659,7.82659,0,0,0,2.33417-.267,7.54048,7.54048,0,0,0,1.22873-.45246,5.29615,5.29615,0,0,0,1.11721-.72265,3.25647,3.25647,0,0,0,.7966-.98963,2.52146,2.52146,0,0,0,.26911-1.204c0-.08044-.01395-.16189-.01825-.24337l-.00858-.12116-.02469-.12225L99.58562,15.19l-.07291-.24659a3.96717,3.96717,0,0,0-.1748-.49322,3.80542,3.80542,0,0,0-.21445-.44821,2.03657,2.03657,0,0,0-.50717-.63367.9348.9348,0,0,0-.57037-.21445,2.24,2.24,0,0,0-1.41315.62509,3.29821,3.29821,0,0,0-.91992,1.24372,1.25925,1.25925,0,0,0-.09436.57471.57915.57915,0,0,0,.22192.39886,1.22643,1.22643,0,0,0,.46961.21445,2.66367,2.66367,0,0,0,.48892.0729,5.49749,5.49749,0,0,0,.71728-.00641Z" style="fill: url(#未命名漸層_10-5)"/>
          </g>
        </g>
        <g id="组_156" data-name="组 156">
          <g id="组_151" data-name="组 151">
            <path id="路径_15905" data-name="路径 15905" d="M1.48726,17.45873l.341.3367a12.04606,12.04606,0,0,0,1.02075.9328,18.21672,18.21672,0,0,0,4.35412,2.68689c.24875.10718.50284.22623.76664.33454l.817.30664.42353.15549.43746.13833c.29593.09116.59507.18979.90278.27768a32.79717,32.79717,0,0,0,4.0014.82987,40.2414,40.2414,0,0,0,4.49463.34414,45.4616,45.4616,0,0,0,4.82486-.18225A54.60207,54.60207,0,0,0,35.837,21.116c1.69727-.55756,3.21659-1.15045,4.54071-1.72836s2.43277-1.14725,3.32377-1.60828c1.902-.67548,4.649-1.72836,7.94281-2.97745,1.65115-.61221,3.431-1.28662,5.33844-1.92352s3.91775-1.263,6.02145-1.80344a53.11689,53.11689,0,0,1,8.85309-1.49252,21.78548,21.78548,0,0,1,7.203.70017c1.025.24658,1.94922.50821,2.76306.74084s1.51609.43637,2.095.59186,1.03037.267,1.33921.33343l.4696.0976-.44708-.17368c-.2916-.11471-.71945-.29159-1.26517-.52969l-1.99426-.87064c-.78058-.3367-1.67694-.71087-2.69226-1.0722a25.99846,25.99846,0,0,0-3.416-.98959c-.31628-.06537-.63687-.13508-.965-.18015s-.668-.10721-1.01538-.13083l-.52433-.04935c-.17584-.01178-.35489-.01394-.5361-.02148L72.328,8.0126l-.5361.01394a40.45505,40.45505,0,0,0-9.238,1.25766,55.38991,55.38991,0,0,0-6.149,1.99106c-1.91382.7366-3.67334,1.53217-5.28269,2.28055-3.208,1.51929-5.8038,2.88739-7.59646,3.81378-.95105.34311-2.10688.76337-3.45994,1.17938s-2.89492.85773-4.59756,1.26734a82.22312,82.22312,0,0,1-11.76083,1.96316c-1.5922.14044-3.15009.23264-4.65439.25409s-2.95282-.02569-4.32953-.12546a35.92027,35.92027,0,0,1-3.88028-.5082c-.30023-.06009-.594-.12763-.88345-.18763l-.4289-.09222-.416-.10718-.81055-.21445c-.26163-.07827-.51462-.16406-.76337-.24234a20.23029,20.23029,0,0,1-4.51819-2.05859c-.51461-.297-.88024-.58008-1.13867-.75912Z" style="fill: url(#未命名漸層_10-6)"/>
          </g>
          <g id="组_152" data-name="组 152">
            <path id="路径_15906" data-name="路径 15906" d="M1.99126,18.606l.42889.1973c.28519.12545.70231.32162,1.25235.55218A27.865,27.865,0,0,0,8.52626,20.7943a29.14621,29.14621,0,0,0,7.55036.4289,37.36312,37.36312,0,0,0,4.43567-.61868,46.39511,46.39511,0,0,0,4.634-1.20725c2.12186-.6701,4.12149-1.44958,5.98492-2.2409s3.59507-1.59757,5.17972-2.35132c3.16724-1.515,5.76837-2.80591,7.57718-3.6594.95105-.3045,2.12293-.66369,3.475-1.06363s2.882-.79339,4.59219-1.233,3.52643-.94354,5.46069-1.42065,3.97568-.93064,6.09324-1.24481a26.522,26.522,0,0,1,8.73837-.04288l.49.0954.47818.11368c.32165.06863.624.17047.93063.25305s.60474.19729.88135.29806a7.12815,7.12815,0,0,1,.79126.3581,22.77405,22.77405,0,0,1,2.78766,1.87527A24.04161,24.04161,0,0,0,81.003,10.75863a7.89737,7.89737,0,0,0,2.03717.84811,4.849,4.849,0,0,0,1.37564.15012c.15759,0,.27661-.01932.35593-.02466l.12008-.01288-.12112-.00857c-.07931-.00858-.19836-.00751-.35168-.03324a4.9948,4.9948,0,0,1-1.28666-.34631,7.97728,7.97728,0,0,1-1.80664-1.06256A27.89823,27.89823,0,0,1,79.1996,8.42123a20.78987,20.78987,0,0,0-2.74374-2.25156,8.18936,8.18936,0,0,0-.8974-.5007c-.31628-.14691-.62189-.27341-.94458-.40527-.32165-.11576-.65082-.24979-.99176-.34848l-.51254-.1587-.52536-.13723c-.35169-.09757-.71515-.1619-1.08075-.24018-.36667-.06009-.73877-.133-1.11722-.17367a21.23732,21.23732,0,0,0-2.317-.17368,28.6709,28.6709,0,0,0-4.83236.32166A46.69924,46.69924,0,0,0,56.97,5.77941C55.0197,6.353,53.21733,6.97488,51.55761,7.555c-.8256.28839-1.61686.565-2.37381.84811L48.62624,8.61l-.5361.21445-1.024.41281c-1.31341.55218-2.4371,1.06042-3.341,1.49356-1.91278.60147-4.67151,1.57721-7.94489,2.83276s-7.07641,2.76627-11.19043,4.07431c-1.515.48035-3.0021.891-4.455,1.24161s-2.86274.59506-4.21689.79452a32.25438,32.25438,0,0,1-12.1565-.59289Z" style="fill: url(#未命名漸層_10-7)"/>
          </g>
          <g id="组_153" data-name="组 153">
            <path id="路径_15907" data-name="路径 15907" d="M1.48726,17.4577l.39133.27557c.12762.09219.28839.20267.48465.32165s.42032.268.68405.41169a13.6178,13.6178,0,0,0,4.84952,1.65866,15.6369,15.6369,0,0,0,3.5918.06433,24.06923,24.06923,0,0,0,4.03033-.757c1.38525-.37634,2.80591-.85773,4.25015-1.37884l2.18939-.80951,2.23874-.8985q1.5386-.62508,3.01606-1.24588c.981-.41819,1.95138-.80735,2.86383-1.248,1.83883-.85773,3.56823-1.68548,5.15506-2.466.79556-.38492,1.55038-.76554,2.26342-1.13227l2.02213-1.04431c1.26413-.65939,2.35883-1.23947,3.24228-1.71548,1.88922-.698,4.6329-1.723,7.90524-3.02359A45.46324,45.46324,0,0,1,55.98757,2.7687,30.12594,30.12594,0,0,1,62.068,1.86913a21.21081,21.21081,0,0,1,4.516.26267l.27124.0386c.09006.01612.178.03864.2659.05683l.52753.11575.52432.10721c.17151.044.33991.09863.50821.14691.3356.10718.67548.18546.9993.30344l.95746.35809.23584.089.22729.10718.45029.20907c.2916.13941.61435.26911.85773.41065a11.02272,11.02272,0,0,1,1.47744,1.05609c.935.77731,1.78516,1.58362,2.6,2.28375A17.97722,17.97722,0,0,0,78.825,9.177a8.8698,8.8698,0,0,0,1.08182.55435,5.43634,5.43634,0,0,0,.98.29913,3.45163,3.45163,0,0,0,1.39383.014,2.44,2.44,0,0,0,.34848-.08686l.11688-.0343-.12225.014a2.61012,2.61012,0,0,1-.35272.02893,3.41041,3.41041,0,0,1-1.31339-.21445,5.353,5.353,0,0,1-.8663-.40527,8.80921,8.80921,0,0,1-.93714-.65082,19.491,19.491,0,0,1-2.03183-1.94818c-.72155-.76874-1.48068-1.649-2.39416-2.555a11.54164,11.54164,0,0,0-1.57288-1.32413c-.32165-.21445-.61868-.35922-.9328-.5361l-.47281-.25733-.2391-.1297L71.26189,1.838,70.2444,1.38775c-.34524-.14691-.71087-.25516-1.07217-.38709C68.99.93954,68.80877.872,68.62322.81521l-.56613-.148-.57358-.148c-.09543-.02356-.19193-.05145-.28839-.07291L66.90136.39373a20.05933,20.05933,0,0,0-4.90952-.371A26.4544,26.4544,0,0,0,55.53515,1.1228a36.59883,36.59883,0,0,0-5.41132,2.10577c-3.17044,1.5643-5.77478,2.90991-7.55145,3.85986-.94251.35169-2.09824.79019-3.431,1.30484l-4.46781,1.7584c-1.63937.64328-3.41171,1.35635-5.27731,2.12826-.92856.39887-1.902.75055-2.88419,1.14295s-1.98678.788-3.0021,1.20083l-2.21192.91028-2.16583.86423c-1.41208.56717-2.7673,1.09576-4.07431,1.5386a26.53179,26.53179,0,0,1-3.74625.99823,16.1002,16.1002,0,0,1-3.34417.267A14.38755,14.38755,0,0,1,3.162,18.20382c-.27765-.10718-.519-.20908-.72693-.3013s-.386-.17047-.52646-.24017Z" style="fill: url(#未命名漸層_10-8)"/>
          </g>
          <g id="组_154" data-name="组 154">
            <path id="路径_15908" data-name="路径 15908" d="M5.1874,18.97808s-.1973-.06329-.53611-.15869c-.16943-.04822-.36776-.13617-.594-.21445a5.46325,5.46325,0,0,1-.70337-.3688,3.03571,3.03571,0,0,1-1.203-1.32736,3.37739,3.37739,0,0,1-.17368-.45679c-.01825-.08362-.03643-.16623-.05792-.24875a2.56088,2.56088,0,0,1-.04181-.25946,4.70669,4.70669,0,0,1-.02035-1.12363,7.29045,7.29045,0,0,1,.93921-2.911,6.83318,6.83318,0,0,1,.75054-1.06146,6.55833,6.55833,0,0,1,.74085-.72482,5.9055,5.9055,0,0,1,2.302-.05359,10.8338,10.8338,0,0,1,1.485.35272,4.94482,4.94482,0,0,1,.68405.28632c.10718.05038.193.12225.29593.1748.04077.03323.08041.06754.12225.09973l.06329.04718.05039.05359a1.35381,1.35381,0,0,1,.38812.67011,1.95035,1.95035,0,0,1-.03323.87487,2.73206,2.73206,0,0,1-.91028,1.46033,1.21559,1.21559,0,0,1-.59937.26373l-.07394.01288H7.9901a1.24777,1.24777,0,0,1-.14258-.00537,2.22528,2.22528,0,0,1-.25412-.0665l-.20587-.09115L7.245,14.10925l-.12225-.07932.06329.13187c.02149.04287.04822.09863.08365.163a1.6339,1.6339,0,0,0,.15653.20267,1.21127,1.21127,0,0,0,.42569.32275l.09756.04935.10718.0343a1.78366,1.78366,0,0,0,1.05072,0,3.31618,3.31618,0,0,0,1.98679-1.72619,3.16489,3.16489,0,0,0,.341-1.67478,2.82025,2.82025,0,0,0-.26163-.95315l-.11578-.2284-.14475-.21445a2.403,2.403,0,0,0-.33133-.38171l-.12225-.12009-.1297-.09973c-.08685-.06537-.17368-.13083-.26163-.19192a4.78273,4.78273,0,0,0-.5361-.27982,4.85981,4.85981,0,0,0-1.05289-.30554l-.49749-.0665-.475-.01825a3.91768,3.91768,0,0,0-.45029.00962l-.42889.02789c-.14475.01825-.28952.04285-.42889.06537l-.20267.0343-.19513.05359-.36884.10721c-.11688.044-.22729.09326-.33453.1394a4.40381,4.40381,0,0,0-1.0025.60474,4.85262,4.85262,0,0,0-1.09149.416,5.45563,5.45563,0,0,0-1.25876.9296,5.84636,5.84636,0,0,0-1.722,3.58859,4.76187,4.76187,0,0,0,.1297,1.65762,3.64142,3.64142,0,0,0,.12009.39133c.05255.12546.10721.25089.15549.37418a3.95235,3.95235,0,0,0,.416.67117,3.71762,3.71762,0,0,0,.50925.54788c.089.08045.18979.14582.282.21445a1.97751,1.97751,0,0,0,.28632.18338,3.21666,3.21666,0,0,0,.57254.25946l.27557.09116c.09006.02682.18121.0386.268.05575a4.4003,4.4003,0,0,0,.92743.07932,6.66407,6.66407,0,0,0,.67654-.07291C4.99657,19.03057,5.1874,18.97808,5.1874,18.97808Z" style="fill: url(#未命名漸層_10-9)"/>
          </g>
          <g id="组_155" data-name="组 155">
            <path id="路径_15909" data-name="路径 15909" d="M77.99651,16.26107l.237.09863a4.61221,4.61221,0,0,0,.713.21445,2.752,2.752,0,0,0,.55539.06537,1.69541,1.69541,0,0,0,.71515-.133,1.22873,1.22873,0,0,0,.65082-.68838,1.96373,1.96373,0,0,0,.08578-1.00891,4.278,4.278,0,0,0-1.8056-2.71588,2.97852,2.97852,0,0,0-1.33166-.4943,2.48228,2.48228,0,0,0-.817.05039,2.60877,2.60877,0,0,0-.77411.32165,3.04035,3.04035,0,0,0-.62189.50925,4.00525,4.00525,0,0,0-.46743.59723,5.29909,5.29909,0,0,0-.35169.6347,5.137,5.137,0,0,0-.267.668c-.0386.11688-.07828.23377-.11471.35385l-.08045.37418-.03747.18872-.02036.1973c-.01074.13186-.02786.26266-.02893.39669a4.08571,4.08571,0,0,0,.52432,2.09824,4.63862,4.63862,0,0,0,1.34345,1.47858,6.653,6.653,0,0,0,3.14792,1.159,7.62423,7.62423,0,0,0,2.71588-.17688,5.75866,5.75866,0,0,0,1.872-.82986,4.38777,4.38777,0,0,0,.84381-.42889l.22406-.15119c.07394-.05575.14474-.119.21445-.18121a5.49645,5.49645,0,0,0,.42889-.40311,6.1685,6.1685,0,0,0,.80093-1.03253,4.3628,4.3628,0,0,0,.565-1.43781,3.98581,3.98581,0,0,0-.06647-1.753,5.447,5.447,0,0,0-.7645-1.64474,11.33679,11.33679,0,0,0-2.5357-2.5679A35.92126,35.92126,0,0,0,79.40969,7.3821c-1.28665-.73123-2.451-1.366-3.38382-1.95565a13.00934,13.00934,0,0,1-2.094-1.5611,6.2947,6.2947,0,0,1-.49426-.52319l-.15976-.19837.09116.23911a5.24177,5.24177,0,0,0,.3367.66156,10.2145,10.2145,0,0,0,1.74872,2.109A30.42055,30.42055,0,0,0,78.5638,8.69134c1.20191.88455,2.55182,1.79269,3.85986,2.79413a13.35879,13.35879,0,0,1,2.27842,2.1015,3.36445,3.36445,0,0,1,.87167,2.23016,4.36147,4.36147,0,0,1-.72907,2.08325c-.09756.148-.18978.3013-.28735.42032-.04822.06217-.09222.12763-.14261.18659l-.15548.16726a4.22071,4.22071,0,0,1-.63263.54468,5.89733,5.89733,0,0,1-1.80024.33991,7.82653,7.82653,0,0,1-2.33416-.267,7.52951,7.52951,0,0,1-1.22977-.45246,5.29,5.29,0,0,1-1.11722-.72265,3.2394,3.2394,0,0,1-.7966-.98963,2.52265,2.52265,0,0,1-.2702-1.204c0-.08044.014-.16189.01825-.24337l.00857-.12116.02466-.12225L76.176,15.19l.07395-.24659a3.85243,3.85243,0,0,1,.17367-.49322,3.92779,3.92779,0,0,1,.21445-.44821,2.03671,2.03671,0,0,1,.50717-.63367.93711.93711,0,0,1,.57038-.21445,2.23851,2.23851,0,0,1,1.41314.62509,3.29725,3.29725,0,0,1,.91993,1.24372,1.24266,1.24266,0,0,1,.09436.57471.57549.57549,0,0,1-.22193.39886,1.22108,1.22108,0,0,1-.4696.21445,2.65318,2.65318,0,0,1-.48892.0729,5.48168,5.48168,0,0,1-.71625-.00641Z" style="fill: url(#未命名漸層_10-10)"/>
          </g>
        </g>
      </g>
    </g>
  </g>
</svg>
