<svg xmlns="http://www.w3.org/2000/svg" xmlns:xlink="http://www.w3.org/1999/xlink" width="127.94643" height="122.13791" viewBox="0 0 127.94643 122.13791">
  <defs>
    <linearGradient id="未命名漸層_73" data-name="未命名漸層 73" x1="-417.98684" y1="875.78345" x2="-417.98684" y2="874.78345" gradientTransform="matrix(3.83286, 0, 0, -2.15911, 1605.53273, 1898.75717)" gradientUnits="userSpaceOnUse">
      <stop offset="0" stop-color="#ab7927"/>
      <stop offset="0.185" stop-color="#c68f46"/>
      <stop offset="0.338" stop-color="#fedb6b"/>
      <stop offset="0.363" stop-color="#f5d065"/>
      <stop offset="0.499" stop-color="#cba04a"/>
      <stop offset="0.602" stop-color="#b1823a"/>
      <stop offset="0.66" stop-color="#a87734"/>
      <stop offset="0.748" stop-color="#a2722f"/>
      <stop offset="0.86" stop-color="#926321"/>
      <stop offset="0.896" stop-color="#8c5e1c"/>
      <stop offset="1" stop-color="#d69c47"/>
    </linearGradient>
    <linearGradient id="未命名漸層_73-2" x1="-403.80413" y1="842.58284" x2="-403.80413" y2="841.58284" gradientTransform="matrix(4.21448, 0, 0, -3.93166, 1706.16746, 3317.30431)" xlink:href="#未命名漸層_73"/>
    <linearGradient id="未命名漸層_73-3" x1="-551.32222" y1="843.6097" x2="-551.32222" y2="842.6097" gradientTransform="matrix(2.06882, 0, 0, -3.8343, 1147.39384, 3238.17597)" xlink:href="#未命名漸層_73"/>
    <linearGradient id="未命名漸層_73-4" x1="-309.3806" y1="810.86974" x2="-309.3806" y2="809.86974" gradientTransform="matrix(12.51117, 0, 0, -18.21757, 3886.60545, 14776.64732)" xlink:href="#未命名漸層_73"/>
    <linearGradient id="未命名漸層_73-5" x1="-313.30661" y1="817.90959" x2="-313.30661" y2="816.90959" gradientTransform="matrix(11.56332, 0, 0, -10.08392, 3638.52142, 8260.12121)" xlink:href="#未命名漸層_73"/>
    <linearGradient id="未命名漸層_73-6" x1="-358.0469" y1="896.4366" x2="-358.0469" y2="895.4366" gradientTransform="matrix(6.20232, 0, 0, -1.6862, 2240.39858, 1534.04041)" xlink:href="#未命名漸層_73"/>
    <linearGradient id="未命名漸層_73-7" x1="-293.31227" y1="816.33565" x2="-293.31227" y2="815.33565" gradientTransform="matrix(18.83644, 0, 0, -11.20212, 5537.73532, 9155.9261)" xlink:href="#未命名漸層_73"/>
    <linearGradient id="未命名漸層_73-8" x1="-316.91697" y1="816.62154" x2="-316.91697" y2="815.62154" gradientTransform="matrix(10.80878, 0, 0, -10.98094, 3442.25177, 8978.03778)" xlink:href="#未命名漸層_73"/>
    <linearGradient id="未命名漸層_73-9" x1="-502.57515" y1="866.0825" x2="-502.57515" y2="865.0825" gradientTransform="matrix(2.48669, 0, 0, -2.48668, 1258.36956, 2162.71111)" xlink:href="#未命名漸層_73"/>
    <linearGradient id="未命名漸層_73-10" x1="-529.89781" y1="873.44298" x2="-529.89781" y2="872.44297" gradientTransform="matrix(2.23003, 0, 0, -2.22998, 1206.0196, 1970.72892)" xlink:href="#未命名漸層_73"/>
    <linearGradient id="未命名漸層_73-11" x1="-572.02462" y1="828.07595" x2="-572.02462" y2="827.07596" gradientTransform="matrix(1.92773, 0, 0, -6.13094, 1125.80246, 5093.59438)" xlink:href="#未命名漸層_73"/>
    <linearGradient id="未命名漸層_73-12" x1="-297.08293" y1="828.54013" x2="-297.08293" y2="827.54013" gradientTransform="matrix(16.83421, 0, 0, -6.02313, 5017.57765, 5016.45773)" xlink:href="#未命名漸層_73"/>
    <linearGradient id="未命名漸層_73-13" x1="-301.0778" y1="806.7731" x2="-301.0778" y2="805.7731" gradientTransform="matrix(15.14301, 0, 0, -34.33237, 4570.39041, 27758.76175)" xlink:href="#未命名漸層_73"/>
    <linearGradient id="未命名漸層_73-14" x1="-439.38492" y1="809.1773" x2="-439.38492" y2="808.1773" gradientTransform="matrix(3.371, 0, 0, -22.60001, 1486.95857, 18386.94982)" xlink:href="#未命名漸層_73"/>
    <linearGradient id="未命名漸層_73-15" x1="-274.77647" y1="806.47777" x2="-274.77647" y2="805.47777" gradientTransform="matrix(45.08391, 0, 0, -36.67086, 12411.983, 29605.02486)" xlink:href="#未命名漸層_73"/>
    <linearGradient id="未命名漸層_73-16" x1="-439.30428" y1="853.9153" x2="-439.30428" y2="852.91529" gradientTransform="matrix(3.36798, 0, 0, -3.07108, 1498.79817, 2678.23568)" xlink:href="#未命名漸層_73"/>
    <linearGradient id="未命名漸層_73-17" x1="-428.84711" y1="856.3484" x2="-428.84711" y2="855.3484" gradientTransform="matrix(3.58325, 0, 0, -2.93323, 1542.51769, 2605.97313)" xlink:href="#未命名漸層_73"/>
    <linearGradient id="未命名漸層_73-18" x1="-478.85595" y1="906.69859" x2="-478.85595" y2="905.69858" gradientTransform="matrix(2.75882, 0, 0, -1.52071, 1326.94465, 1471.21707)" xlink:href="#未命名漸層_73"/>
    <linearGradient id="未命名漸層_73-19" x1="-278.88958" y1="812.562" x2="-278.88958" y2="811.562" gradientTransform="matrix(34.22431, 0, 0, -15.25898, 9625.41333, 12401.26373)" xlink:href="#未命名漸層_73"/>
    <linearGradient id="未命名漸層_73-20" x1="-287.82127" y1="849.26697" x2="-287.82127" y2="848.26697" gradientTransform="matrix(22.53, 0, 0, -3.374, 6600.57268, 2867.88213)" xlink:href="#未命名漸層_73"/>
    <linearGradient id="未命名漸層_73-21" x1="-277.8239" y1="805.66" x2="-277.8239" y2="804.66" gradientTransform="matrix(36.56905, 0, 0, -45.19492, 10210.41396, 36411.73578)" xlink:href="#未命名漸層_73"/>
    <linearGradient id="未命名漸層_73-22" x1="-456.29432" y1="849.22949" x2="-456.29432" y2="848.22949" gradientTransform="matrix(3.06181, 0, 0, -3.37669, 1456.47588, 2883.77392)" xlink:href="#未命名漸層_73"/>
    <linearGradient id="未命名漸層_73-23" x1="-468.529" y1="845.98104" x2="-468.529" y2="844.98104" gradientTransform="matrix(2.86914, 0, 0, -3.6269, 1444.00413, 3070.77669)" xlink:href="#未命名漸層_73"/>
    <linearGradient id="未命名漸層_73-24" x1="-644.69868" y1="860.01259" x2="-644.69868" y2="859.01259" gradientTransform="matrix(1.55051, 0, 0, -2.74751, 1096.73402, 2365.8993)" xlink:href="#未命名漸層_73"/>
    <linearGradient id="未命名漸層_73-25" x1="-383.73223" y1="811.41498" x2="-383.73223" y2="810.41498" gradientTransform="matrix(4.89458, 0, 0, -17.14642, 1906.84455, 13919.64408)" xlink:href="#未命名漸層_73"/>
  </defs>
  <g id="圖層_2" data-name="圖層 2">
    <g id="圖層_1-2" data-name="圖層 1">
      <g id="pattern">
        <g id="组_319" data-name="组 319">
          <g id="组_310" data-name="组 310">
            <g id="组_302" data-name="组 302">
              <path id="路径_16051" data-name="路径 16051" d="M2.061,9.9829a.3372.3372,0,0,1-.2873-.02.64766.64766,0,0,1-.28623-.326,1.01317,1.01317,0,0,1-.04363-.645,1.34052,1.34052,0,0,1,.42562-.68,1.6864,1.6864,0,0,1,.4501-.282,2.18105,2.18105,0,0,1,.65227-.17,2.555,2.555,0,0,1,.7257.03,2.80156,2.80156,0,0,1,.66929.214,2.94347,2.94347,0,0,1,.5267.325c.07342.059.14046.117.2011.172a1.84716,1.84716,0,0,1,.15748.165c.04575.053.08405.1.117.146a1.16805,1.16805,0,0,1,.07662.12c.0383.069.05214.114.03725.128s-.06171,0-.13621-.022l-.30006-.112c-.06066-.022-.12981-.043-.199-.067s-.14577-.042-.22346-.063a3.31087,3.31087,0,0,0-.49373-.081,2.32106,2.32106,0,0,0-.4916.017,1.73215,1.73215,0,0,0-.41286.112,1.23983,1.23983,0,0,0-.28091.158.47572.47572,0,0,0-.04789.038.3135.3135,0,0,0-.04149.034c-.01171.011-.02447.021-.03512.03l-.02767.027c-.07129.063-.12875.113-.18409.164a1.39684,1.39684,0,0,0-.17025.181C2.3238,9.71991,2.23337,9.90791,2.061,9.9829Z" style="fill: url(#未命名漸層_73)"/>
            </g>
            <path id="路径_16052" data-name="路径 16052" d="M2.90266,6.9759a11.05159,11.05159,0,0,1,2.70909,1.494.02455.02455,0,0,0,.03087,0l.76932.017a.16508.16508,0,0,0,.17423-.15412.15177.15177,0,0,0-.0008-.02088l-.07661-.72a.02008.02008,0,0,0,0-.028,10.26345,10.26345,0,0,1-1.78443-2.429c0-.01-2.10258-.488-2.55373-.577a.053.053,0,0,0-.06607.03077.04621.04621,0,0,0,.00116.03423C2.22911,5.04191,2.892,6.97191,2.90266,6.9759Z" style="fill: url(#未命名漸層_73-2)"/>
            <g id="组_303" data-name="组 303">
              <path id="路径_16053" data-name="路径 16053" d="M7.89308,4.08091a.28508.28508,0,0,0-.0415-.268.67969.67969,0,0,0-.3671-.244,1.20926,1.20926,0,0,0-.68738.007,1.44885,1.44885,0,0,0-.69058.448,1.53621,1.53621,0,0,0-.26494.443,1.843,1.843,0,0,0-.13193.625,2.12266,2.12266,0,0,0,.08618.678,2.43079,2.43079,0,0,0,.27665.611,2.806,2.806,0,0,0,.38306.469c.06809.064.13408.123.19792.175a1.80879,1.80879,0,0,0,.18621.136c.05853.036.11492.071.16387.1a1.27538,1.27538,0,0,0,.133.063c.07662.031.1245.041.13939.026s0-.058-.03405-.126l-.14046-.272c-.02767-.056-.05426-.118-.08618-.181s-.05533-.134-.083-.206a2.803,2.803,0,0,1-.12237-.456,1.97459,1.97459,0,0,1-.01809-.462,1.479,1.479,0,0,1,.08831-.4,1.1422,1.1422,0,0,1,.14684-.274.49985.49985,0,0,1,.03617-.048.38043.38043,0,0,1,.034-.041.43914.43914,0,0,0,.02979-.035.27664.27664,0,0,0,.0266-.028c.06171-.072.10641-.129.16067-.185a1.4653,1.4653,0,0,1,.17984-.173C7.63877,4.34691,7.83031,4.24691,7.89308,4.08091Z" style="fill: url(#未命名漸層_73-3)"/>
            </g>
            <g id="组_304" data-name="组 304">
              <path id="路径_16054" data-name="路径 16054" d="M9.237,5.2669c.00851.066.07235.126.18089.178a2.526,2.526,0,0,0,.45968.144l.31922.069.17983.035.19047.04c.13193.024.26814.059.41178.087s.29048.07.44052.114a5.30134,5.30134,0,0,1,.90764.342,3.45914,3.45914,0,0,1,.42562.253c.06916.044.13088.1.19579.149a1.55967,1.55967,0,0,1,.182.168,3.07994,3.07994,0,0,1,.59907.866,5.48774,5.48774,0,0,1,.38519,1.184,12.02085,12.02085,0,0,1,.23409,1.777c.05.736.05852,1.6.05426,2.545s-.01809,1.97.05,3.038c.01809.268.04043.537.07555.809.01808.136.03617.273.05958.41l.017.1.02234.109c.016.072.02979.145.04682.216a5.72732,5.72732,0,0,0,.66929,1.588,6.56242,6.56242,0,0,0,.47777.688,7.29344,7.29344,0,0,0,1.76421,1.58,6.63852,6.63852,0,0,0,2.5048.964c.19152.032.37668.047.55118.061a3.14061,3.14061,0,0,0,.49479,0c.15427-.012.29688-.021.42561-.034s.249-.041.3554-.059a3.28318,3.28318,0,0,0,.47669-.139c.10642-.041.15855-.07.1543-.085s-.06492-.016-.17664-.011-.27452.014-.47989.02c-.10641,0-.21281,0-.34156-.007s-.25856-.014-.4001-.035-.29261-.044-.4501-.072a4.05,4.05,0,0,1-.48947-.126,6.18174,6.18174,0,0,1-2.10152-1.129,6.373,6.373,0,0,1-1.35454-1.523,5.69607,5.69607,0,0,1-.33093-.612,4.60642,4.60642,0,0,1-.39476-1.309c-.00746-.056-.01171-.112-.017-.167l-.0085-.083-.00533-.089c-.00851-.119-.01171-.241-.016-.362-.00638-.243,0-.489,0-.737.034-.989.13939-1.989.21919-2.941s.13939-1.862.12981-2.68a10.372,10.372,0,0,0-.20643-2.1,6.02993,6.02993,0,0,0-.59054-1.629,4.40314,4.40314,0,0,0-1.13-1.349c-.11279-.092-.233-.171-.35007-.25a2.26828,2.26828,0,0,0-.365-.2,4.52832,4.52832,0,0,0-.731-.291,5.217,5.217,0,0,0-1.33114-.206c-.2011-.007-.38839,0-.565.011a4.03723,4.03723,0,0,0-.48947.059l-.21281.039c-.06917.015-.13514.031-.19792.047a3.13807,3.13807,0,0,0-.33944.1,1.69081,1.69081,0,0,0-.4501.221C9.2753,5.13091,9.22847,5.20091,9.237,5.2669Z" style="fill: url(#未命名漸層_73-4)"/>
            </g>
            <g id="组_305" data-name="组 305">
              <path id="路径_16055" data-name="路径 16055" d="M10.93842,12.4049c-.07342-.048-.22452.019-.4352.2a3.06374,3.06374,0,0,0-.68207.921l-.0798.173c-.02659.059-.04575.123-.07022.188a3.11,3.11,0,0,0-.11385.415,3.0101,3.0101,0,0,0-.02659.969,3.07009,3.07009,0,0,0,.34263,1.034,3.90691,3.90691,0,0,0,.69908.921,5.61858,5.61858,0,0,0,1.19281.878,8.22749,8.22749,0,0,0,1.79826.73,17.48558,17.48558,0,0,0,2.10578.4,15.05764,15.05764,0,0,1,2.03661.4,5.908,5.908,0,0,1,.90551.342,4.71829,4.71829,0,0,1,.77995.46,10.04624,10.04624,0,0,1,1.18111,1.072c.166.168.32772.315.46924.444s.27985.228.38732.31a1.32575,1.32575,0,0,0,.37773.21c.01171-.015-.09151-.126-.27878-.31-.08618-.1-.19366-.218-.31176-.359s-.2458-.307-.38519-.494a8.83215,8.83215,0,0,0-1.08109-1.263,5.7857,5.7857,0,0,0-1.77485-1.088,14.39661,14.39661,0,0,0-2.11108-.622,18.64415,18.64415,0,0,1-1.93765-.524,7.64763,7.64763,0,0,1-1.48967-.714,5.40263,5.40263,0,0,1-.91722-.718,2.86441,2.86441,0,0,1-.80337-1.308,2.70149,2.70149,0,0,1-.083-.661,2.17676,2.17676,0,0,1,.02129-.315c.00638-.051.00851-.1.01808-.152l.0266-.147c.07235-.385.18409-.707.24047-.947S11.01291,12.4529,10.93842,12.4049Z" style="fill: url(#未命名漸層_73-5)"/>
            </g>
            <g id="组_306" data-name="组 306">
              <path id="路径_16056" data-name="路径 16056" d="M16.40128,22.5129c-.03724.044-.02766.118.02235.216a1.22577,1.22577,0,0,0,.10641.163,2.34616,2.34616,0,0,0,.17238.185,3.74314,3.74314,0,0,0,1.263.766,5.54682,5.54682,0,0,0,1.295.282,6.74231,6.74231,0,0,0,1.73548-.067c.14151-.022.27772-.054.41073-.079.06809-.016.13833-.035.20322-.053s.12663-.042.18834-.063c.23942-.087.44158-.18.614-.254s.31071-.13.41073-.167.15747-.06.15535-.073-.06279-.017-.17451-.017a3.26488,3.26488,0,0,0-.46073.057c-.1894.034-.40966.084-.63845.122-.05851.008-.1181.019-.1777.024l-.17983.014c-.12981,0-.26176.01-.39477.008a7.341,7.341,0,0,1-1.56629-.161,8.54963,8.54963,0,0,1-1.09918-.335c-.4767-.178-.90446-.362-1.23749-.484-.08193-.031-.15961-.056-.2309-.076a1.28747,1.28747,0,0,0-.18727-.047C16.5194,22.4569,16.43853,22.46791,16.40128,22.5129Z" style="fill: url(#未命名漸層_73-6)"/>
            </g>
            <g id="组_307" data-name="组 307">
              <path id="路径_16057" data-name="路径 16057" d="M3.33784,11.23791a.27949.27949,0,0,0-.2128.142,1.4987,1.4987,0,0,0-.2.438,2.60081,2.60081,0,0,0-.083.326c-.01171.06-.02447.123-.03512.189s-.017.136-.02554.206c-.01809.143-.02021.3-.02554.463a3.42264,3.42264,0,0,0,.0298.529,4.39371,4.39371,0,0,0,.31922,1.233,4.03115,4.03115,0,0,0,.36177.663c.07129.112.15855.218.24367.327a2.80205,2.80205,0,0,0,.29156.31,4.65139,4.65139,0,0,0,1.51521.96,7.05065,7.05065,0,0,0,1.77272.433,12.62491,12.62491,0,0,0,2.242.04c.86721-.051,1.828-.171,2.83358-.317s2.05789-.315,3.10491-.418c.26176-.025.52245-.046.781-.058.12875-.006.2575-.011.38518-.012h.36178a5.42136,5.42136,0,0,1,1.4152.274,6.34981,6.34981,0,0,1,.67249.265,6.81847,6.81847,0,0,1,.62673.336,6.55285,6.55285,0,0,1,1.08534.819,5.71261,5.71261,0,0,1,1.35029,1.882c.06809.153.11917.3.16918.448a2.68137,2.68137,0,0,1,.10641.415c.02236.132.04788.256.0681.372s.02234.222.03512.319c.00958.193.01808.347.01808.452s.01384.163.0298.166.0383-.05.07342-.152a2.83285,2.83285,0,0,0,.10641-.456c.01064-.1.02767-.213.03512-.337a2.64007,2.64007,0,0,0,0-.4c-.01276-.141-.02129-.3-.04043-.463a3.31979,3.31979,0,0,0-.10641-.511,5.88269,5.88269,0,0,0-1.20557-2.271,7.03407,7.03407,0,0,0-1.11832-1.068,7.5322,7.5322,0,0,0-.68313-.467,7.30287,7.30287,0,0,0-.764-.4,6.60423,6.60423,0,0,0-1.73122-.511c-.07768-.011-.15535-.019-.233-.028l-.117-.013-.10641-.009c-.14792-.012-.29261-.02-.43945-.026-.29156-.012-.57886-.015-.864-.012-1.13855.014-2.22388.1-3.2273.173s-1.92061.127-2.70484.134a14.58,14.58,0,0,1-1.90253-.09,6.44272,6.44272,0,0,1-1.28537-.274,3.35061,3.35061,0,0,1-.963-.5,1.86235,1.86235,0,0,1-.19259-.158,1.90154,1.90154,0,0,1-.17238-.172,3.18143,3.18143,0,0,1-.30007-.377,4.63413,4.63413,0,0,1-.42561-.825c-.05852-.137-.10642-.275-.1543-.4s-.0883-.258-.12342-.38l-.05639-.175-.05-.166-.09683-.294a2.16575,2.16575,0,0,0-.18622-.42C3.47618,11.2949,3.40914,11.2409,3.33784,11.23791Z" style="fill: url(#未命名漸層_73-7)"/>
            </g>
            <g id="组_308" data-name="组 308">
              <path id="路径_16058" data-name="路径 16058" d="M11.03632,12.30391c.05639.066.22346.047.46819-.032s.58311-.2.98744-.3l.15322-.036c.05214-.012.10641-.017.1596-.028.10642-.023.22026-.029.33411-.043a3.22391,3.22391,0,0,1,.70654.028,3.171,3.171,0,0,1,1.44817.657,5.32933,5.32933,0,0,1,.82891.806,6.95954,6.95954,0,0,1,.86508,1.345,16.2096,16.2096,0,0,1,.69591,1.778,12.44343,12.44343,0,0,0,.814,1.934,5.45016,5.45016,0,0,0,1.28644,1.587,9.299,9.299,0,0,0,1.42158.921c.21281.115.39052.226.55332.323s.29155.192.4054.265c.21281.161.33731.248.35327.235a1.34325,1.34325,0,0,0-.25431-.335c-.09576-.095-.21281-.212-.35859-.339s-.31922-.263-.50544-.406a9.99773,9.99773,0,0,1-1.22686-1.029,4.37863,4.37863,0,0,1-.54586-.7,5.13127,5.13127,0,0,1-.42561-.825,12.63534,12.63534,0,0,1-.57566-1.881,14.76059,14.76059,0,0,0-.57778-1.945,7.31034,7.31034,0,0,0-.90446-1.632,5.45719,5.45719,0,0,0-1.01936-1.053,4.20734,4.20734,0,0,0-1.02894-.587,3.51858,3.51858,0,0,0-2.14938-.144,3.726,3.726,0,0,0-.43094.138c-.066.026-.133.05-.19367.079l-.1777.087a3.22974,3.22974,0,0,0-.92785.707C11.04058,12.09291,10.981,12.2419,11.03632,12.30391Z" style="fill: url(#未命名漸層_73-8)"/>
            </g>
            <path id="路径_16059" data-name="路径 16059" d="M7.71858,11.19291a1.383,1.383,0,0,0,1.86921-.06465l.00034-.00035a1.191,1.191,0,0,0-.06879-1.75668L9.519,9.37091a1.383,1.383,0,0,0-1.86921.06465l-.00034.00035a1.191,1.191,0,0,0,.06879,1.75668Z" style="fill: url(#未命名漸層_73-9)"/>
            <path id="路径_16060" data-name="路径 16060" d="M23.52622,24.89991a1.24059,1.24059,0,0,0,1.67673-.05777l.00023-.00023a1.06838,1.06838,0,0,0-.06251-1.57575l-.00027-.00025a1.2406,1.2406,0,0,0-1.6767.05873l-.00026.00027A1.06837,1.06837,0,0,0,23.52622,24.89991Z" style="fill: url(#未命名漸層_73-10)"/>
            <g id="组_309" data-name="组 309">
              <path id="路径_16061" data-name="路径 16061" d="M22.10463,16.74091c-.0447.038-.05.114-.02234.217a1.06016,1.06016,0,0,0,.06279.172c.02659.065.05851.136.09788.211.1543.3.38094.69.60438,1.124a7.24974,7.24974,0,0,1,.4352,1.006,6.13533,6.13533,0,0,1,.283,1.456c.01064.125.01277.25.02022.371v.169c0,.056-.00851.113-.01276.167-.02342.222-.05959.431-.08193.612a2.63349,2.63349,0,0,0-.02447.436c.00958.106.02129.163.03512.163s.03405-.056.06066-.152.0798-.233.14577-.4.149-.363.22451-.594c.017-.059.03725-.118.05214-.181s.02979-.129.0415-.194c.017-.127.04042-.257.05426-.391a5.61523,5.61523,0,0,0-.05321-1.631,4.66353,4.66353,0,0,0-.39264-1.193,3.51458,3.51458,0,0,0-.90551-1.128,2.514,2.514,0,0,0-.21281-.148,1.2954,1.2954,0,0,0-.18089-.088C22.22806,16.7059,22.14931,16.7029,22.10463,16.74091Z" style="fill: url(#未命名漸層_73-11)"/>
            </g>
          </g>
          <g id="组_311" data-name="组 311">
            <path id="路径_16062" data-name="路径 16062" d="M7.54833,31.99691c.23409.213.87466-.033,1.74718-.519s1.98872-1.2,3.2358-1.9c.31071-.179.72036-.4,1.20664-.649a15.1295,15.1295,0,0,1,1.69185-.711,13.04505,13.04505,0,0,1,2.05576-.534,13.77969,13.77969,0,0,1,2.226-.2,18.28929,18.28929,0,0,1,3.937.443,8.80349,8.80349,0,0,0,1.728.346,5.56649,5.56649,0,0,0-1.52905-.875,15.33932,15.33932,0,0,0-4.03277-1.2,13.9149,13.9149,0,0,0-2.51863-.138,13.49912,13.49912,0,0,0-2.45479.319,14.02941,14.02941,0,0,0-2.06533.636,12.59121,12.59121,0,0,0-1.44286.684,10.82025,10.82025,0,0,0-3.1464,2.639C7.54833,31.15891,7.32488,31.79091,7.54833,31.99691Z" style="fill: url(#未命名漸層_73-12)"/>
          </g>
          <path id="路径_16063" data-name="路径 16063" d="M9.94246,92.57391c-.034.07-.06809.14-.10641.207l-.39157.764-.29048.58-.1894.425.01276.005.26177-.4.22026-.323.07129-.056.083-.064c-.01276.028-.02234.057-.03618.084a2.62832,2.62832,0,0,1-.55544.78l.02767.012a1.06876,1.06876,0,0,1,.16173.076,2.84617,2.84617,0,0,0,.60438-.8,4.15086,4.15086,0,0,0,.22558-.53,8.53347,8.53347,0,0,0,.89593-.992l.1511-.2.14791-.21c.10641-.142.19579-.3.29793-.453a9.46209,9.46209,0,0,0,.54907-1.041,7.27422,7.27422,0,0,0,.4203-1.207,5.08885,5.08885,0,0,0,.116-.664c.00958-.113.01809-.226.02766-.34s.00639-.23.00958-.346a10.96623,10.96623,0,0,0-.598-3.416,19.33755,19.33755,0,0,0-.946-2.32c-.09258-.278-.19792-.622-.35646-1.011s-.33837-.833-.54161-1.316c-.22984-.476-.48628-.992-.764-1.537-.30431-.537-.61928-1.106-.97575-1.683-.26708-.423-.532-.835-.79059-1.232a12.554,12.554,0,0,0-.85763-1.12l-.82891-.973c-.2575-.3-.48627-.59-.68632-.854a6.41369,6.41369,0,0,1-.781-1.305c-.03192-.081-.06278-.153-.08618-.215l-.04788-.16-.04043-.133.01491.135.02021.164c.01171.064.03086.139.05.222a5.22515,5.22515,0,0,0,.60864,1.38c.17238.281.37349.585.60333.9s.48627.655.75016,1.007.532.72.77676,1.11.498.811.764,1.232l1.00873,1.658c.30006.532.59054,1.034.85975,1.5.24261.469.46925.9.67142,1.276s.35752.711.4916.981c.17771.556.42562,1.366.66184,2.344a14.48658,14.48658,0,0,1,.432,3.343c0,.112,0,.223-.00745.332l-.02234.327a5.66172,5.66172,0,0,1-.09258.629,8.43707,8.43707,0,0,1-.34051,1.174c-.13513.371-.29261.716-.448,1.039-.083.159-.15748.315-.2426.46l-.12025.216-.1245.2c-.18621.3-.36815.567-.532.788q.0463-.165.083-.336a6.98025,6.98025,0,0,0,.85125-1.855,2.924,2.924,0,0,0,.07449-.308c.02129-.1.04683-.209.066-.316.02767-.215.07022-.433.0798-.658a8.09482,8.09482,0,0,0-.00745-1.394,13.92151,13.92151,0,0,0-.864-3.5c-.183-.5-.36923-.957-.532-1.358-.084-.2-.15855-.387-.23622-.559l-.21281-.469-.15109-.48-.21281-.564c-.14791-.406-.35647-.857-.57885-1.353-.46607-.985-1.08215-2.12-1.7706-3.318-.50969-.882-.99171-1.719-1.38328-2.484a14.15457,14.15457,0,0,1-.8108-2.087c-.08193-.3-.17771-.576-.21813-.818a2.38317,2.38317,0,0,0-.183-.629.93285.93285,0,0,0-.09258-.148v-.2c0-.153.00851-.306.01276-.458l.00746-.228.0149-.227c.01171-.15.016-.3.033-.451a9.9401,9.9401,0,0,1,.30752-1.744l.06066-.21a1.96983,1.96983,0,0,1,.066-.207l.15-.408.17876-.4a1.91253,1.91253,0,0,1,.09789-.194l.10641-.191c.03618-.063.066-.128.10642-.189l.11917-.184c.07875-.123.15429-.246.2458-.362s.17131-.236.26494-.35l.28623-.337c.04576-.057.09789-.11.15-.164l.15322-.161.15217-.161c.05108-.053.10641-.1.16067-.155l.31922-.307c.05426-.049.10641-.094.1628-.141s.10642-.094.166-.137l.17026-.132c.05746-.043.11917-.084.1777-.126.116-.086.24367-.161.365-.238a7.53226,7.53226,0,0,1,.77783-.409,8.47725,8.47725,0,0,1,.81826-.323,8.6741,8.6741,0,0,1,.84274-.229q.41829-.09166.84487-.143c.14046-.012.27985-.029.41818-.035s.27665-.017.41178-.015a7.627,7.627,0,0,1,1.54714.138,6.47339,6.47339,0,0,1,1.30453.4,6.19107,6.19107,0,0,1,1.01192.553,5.80919,5.80919,0,0,1,.79272.645l.17344.176a1.083,1.083,0,0,1,.08087.088l.07662.088a1.9205,1.9205,0,0,1,.14151.181l.0681.091.06066.095a3.77589,3.77589,0,0,1,.39264.784,4.34612,4.34612,0,0,1,.21281.816,4.81155,4.81155,0,0,1-.02767,1.617,4.76306,4.76306,0,0,1-.20643.767c-.04043.125-.0947.246-.14471.367-.02554.061-.05746.119-.08513.178s-.05639.119-.08938.175a4.833,4.833,0,0,1-2.29411,2.127l-.18834.077-.09364.038-.09683.032-.19152.065-.19685.052-.09789.026-.099.02-.19792.039c-.066.01-.13408.018-.20005.027l-.099.014-.1.007-.2.015h-.39689l-.19685-.009-.19259-.02-.09576-.01-.09471-.016-.18727-.03-.183-.041-.09046-.02-.08831-.025-.1745-.05-.17881-.055-.083-.029-.0798-.033-.15855-.065c-.05213-.023-.10109-.048-.15109-.073a2.87871,2.87871,0,0,1-.28623-.153,3.34885,3.34885,0,0,1-.87254-.722,2.33113,2.33113,0,0,1-.44265-.775,1.85393,1.85393,0,0,1-.09683-.7v-.08l.01064-.076c.00745-.051.01383-.1.02021-.147l.02021-.081a1.6603,1.6603,0,0,0,1.445.768c.83634.019,1.49925-.464,1.48116-1.078a1.45432,1.45432,0,0,0-1.5482-1.147,1.36955,1.36955,0,0,0-1.46308.889l-.05639.072-.14046.225c-.0447.083-.084.177-.12981.276l-.05.159-.02554.084c-.00745.029-.0117.058-.017.088a1.93847,1.93847,0,0,0,0,.81,2.46247,2.46247,0,0,0,.42562.938,3.6481,3.6481,0,0,0,.97042.908c.10641.067.21281.138.33093.2.05851.031.116.064.17663.094l.18727.087.09471.043.099.039.2011.078.21281.068.10641.034.10641.029.22132.057.22877.046.116.023c.03937.007.07875.011.11705.017l.23835.032.2426.02.12237.009h.3703l.249-.01.12556-.006.1245-.013c.083-.009.167-.017.25111-.027l.24792-.042c.0415-.007.08406-.014.1245-.022l.12238-.028.2458-.059.23942-.073.12024-.037.116-.043.233-.088a5.8694,5.8694,0,0,0,.86614-.444c.14046-.082.26494-.176.39689-.268.06279-.047.12237-.1.18409-.146s.12237-.1.17876-.151l.17238-.157.16067-.164.08087-.083.0745-.086.15-.173.13726-.179.06916-.091.06279-.093c.0415-.063.08513-.124.12555-.188l.11492-.192a1.82516,1.82516,0,0,0,.10642-.2c.033-.07.07022-.132.10108-.2.05959-.135.1245-.27.17344-.41a5.41232,5.41232,0,0,0,.30964-2.68,4.89836,4.89836,0,0,0-.23409-.944,4.4344,4.4344,0,0,0-.46181-.938l-.07449-.115-.083-.114a2.40883,2.40883,0,0,0-.17557-.225l-.0947-.11c-.03192-.037-.06384-.074-.09789-.107l-.20323-.207a6.76194,6.76194,0,0,0-.94276-.768,7.361,7.361,0,0,0-1.23536-.672,7.91926,7.91926,0,0,0-1.60354-.485,9.41186,9.41186,0,0,0-3.84232.082,9.96186,9.96186,0,0,0-.97148.273,9.47433,9.47433,0,0,0-.93318.378,8.55713,8.55713,0,0,0-.88.474c-.13833.09-.28092.177-.41178.275-.066.048-.13513.1-.20005.145l-.19152.153a2.24791,2.24791,0,0,0-.18621.158c-.06066.058-.12237.108-.18089.162l-.33518.328c-.05533.055-.11385.109-.16706.166l-.1596.173-.16067.174c-.05321.058-.10641.115-.15642.177l-.30113.366c-.09789.124-.18622.254-.27878.382s-.17663.261-.25963.395l-.1245.2c-.04256.067-.0745.138-.1128.207l-.10641.209a2.09891,2.09891,0,0,0-.10641.211l-.18621.431-.15323.441c-.02766.074-.04469.149-.066.224l-.06066.225a10.47693,10.47693,0,0,0-.2873,1.841c-.01276.155-.016.311-.02447.467l-.01063.234v.705l.01063.471c0,.158.00851.315.017.472l.02129.474c.01276.159.02659.32.04043.48l.02128.24c.00745.081.02129.161.03192.241.02234.16.0447.32.0681.481s.05958.319.08938.48c.05533.32.14046.638.21281.957.03724.159.0883.317.13088.476s.08618.317.13938.474c.10642.315.20005.63.31922.942.21281.626.47137,1.243.7257,1.856s.532,1.217.80868,1.814.55649,1.189.831,1.773.54054,1.16.8055,1.734c.532,1.143,1.06405,2.244,1.5067,3.311.22239.533.41393,1.057.58311,1.571a13.69755,13.69755,0,0,1,.39264,1.506A7.8238,7.8238,0,0,1,9.94246,92.57391Zm-.282,1.037c-.05639.061-.10641.111-.14472.151l-.01808.019.1213-.177.1-.145c-.01914.052-.0383.102-.05957.153Zm.59694-3.724a13.69589,13.69589,0,0,0-.35327-1.539c-.15535-.523-.33411-1.058-.54266-1.6-.41393-1.084-.92042-2.2-1.41945-3.343-.24686-.572-.50011-1.158-.75975-1.745s-.52457-1.182-.78313-1.78-.51287-1.2-.75868-1.81-.47137-1.22-.67141-1.837c-.10641-.308-.19367-.618-.2873-.927-.04895-.154-.083-.31-.12556-.465s-.084-.31-.117-.465c-.066-.311-.14152-.621-.18834-.932-.02447-.155-.05534-.31-.07662-.465s-.03725-.31-.05534-.465c-.0085-.077-.02021-.154-.02554-.232l-.0149-.231-.02872-.462-.01064-.467c0-.155-.00745-.31-.00638-.465v-.096a2.30366,2.30366,0,0,1,.08618.618,7.57817,7.57817,0,0,0,.11492.838,10.62549,10.62549,0,0,0,.631,2.159,26.389,26.389,0,0,0,1.31411,2.534c.68951,1.2,1.36307,2.311,1.90786,3.268.26176.48.51607.918.70973,1.311l.283.546.21281.466.149.476c.05427.175.10642.366.166.569.116.408.25326.87.39264,1.373a19.65345,19.65345,0,0,1,.69591,3.446,9.84954,9.84954,0,0,1,.03192,1.348c0,.217-.034.428-.049.637-.0117.1-.03086.2-.04575.306a2.27255,2.27255,0,0,1-.05321.3,6.23363,6.23363,0,0,1-.22876.827,8.994,8.994,0,0,0-.09474-1.696Z" style="fill: url(#未命名漸層_73-13)"/>
          <path id="路径_16064" data-name="路径 16064" d="M3.99757,99.6709s2.46648.722,3.58694-.133c0,0-2.75591,13.3-2.64311,22.6Z" style="fill: url(#未命名漸層_73-14)"/>
          <g id="组_312" data-name="组 312">
            <path id="路径_16065" data-name="路径 16065" d="M20.25529,58.3629l-.2.067-.24686.082a2.37271,2.37271,0,0,1-.34689.1l-.4501.1c-.16812.027-.35327.047-.55544.074a2.35234,2.35234,0,0,1-.31922.021l-.34051.011c-.23514.007-.48414-.024-.75016-.035l-.4054-.061-.21281-.033c-.07022-.012-.14046-.034-.21281-.05l-.44157-.112-.449-.157a7.13743,7.13743,0,0,1-1.83551-1.028,6.52072,6.52072,0,0,1-1.57267-1.809,5.05083,5.05083,0,0,1-.29688-.572,4.75171,4.75171,0,0,1-.24155-.61l-.10641-.315a3.27882,3.27882,0,0,1-.08513-.326l-.07874-.333a2.312,2.312,0,0,1-.06491-.34,7.77131,7.77131,0,0,1,1.44073-5.84c.16706-.23.36178-.445.54587-.671a8.30356,8.30356,0,0,1,.62779-.627c.23409-.188.46393-.385.70973-.568l.38626-.256a4.20421,4.20421,0,0,1,.39689-.247l.41924-.221a3.64644,3.64644,0,0,1,.432-.206l.448-.182c.07554-.03.15-.062.22664-.09l.22984-.069c.30857-.088.61608-.194.93425-.268l.97148-.189a11.69956,11.69956,0,0,1,4.08066.136,11.45211,11.45211,0,0,1,3.90935,1.625,10.64614,10.64614,0,0,1,3.05491,3.037c.19579.3.366.626.54906.942.1596.326.29688.662.44477,1a12.57328,12.57328,0,0,1,.59055,2.069,11.92769,11.92769,0,0,1-.30432,5.707,12.516,12.516,0,0,1-2.74845,4.81,13.33353,13.33353,0,0,1-4.34348,3.137,16.3383,16.3383,0,0,1-4.85848,1.293,17.23,17.23,0,0,1-4.59034-.111,16.8255,16.8255,0,0,1-3.92318-1.116,16.0232,16.0232,0,0,1-3.06767-1.7,15.828,15.828,0,0,1-2.20686-1.878,15.095,15.095,0,0,1-1.9866-2.084,14.57575,14.57575,0,0,1-1.78123-2.9,17.815,17.815,0,0,1-1.62375-7.923,17.79771,17.79771,0,0,1,.74483-4.636c.05214-.2.1213-.392.18727-.587s.13088-.394.20536-.589c.15747-.387.30113-.783.48733-1.167a18.57552,18.57552,0,0,1,1.23644-2.291,20.432,20.432,0,0,1,1.59608-2.174,20.76779,20.76779,0,0,1,1.96959-1.99,20.31193,20.31193,0,0,1,4.88721-3.181c.32986-.163.67142-.3,1.01086-.438s.68419-.261,1.02788-.384.68738-.222,1.03-.329l.51287-.155.5182-.134a24.39517,24.39517,0,0,1,4.1743-.731,20.77761,20.77761,0,0,1,4.12322.072,20.99214,20.99214,0,0,1,3.837.831,29.14671,29.14671,0,0,1,6.395,3q2.55924,1.58937,4.9383,3.415c1.45137,1.1,2.72718,2.134,3.8423,3.045s2.06321,1.706,2.83891,2.356l2.40264,2.025s-.93425-.63-2.60694-1.789l-3.04533-2.111c-1.18749-.819-2.5399-1.753-4.05513-2.747s-3.19217-2.052-5.05427-3.058a29.64658,29.64658,0,0,0-6.18005-2.567,20.154,20.154,0,0,0-3.521-.641,19.613,19.613,0,0,0-3.7242.026,23.55756,23.55756,0,0,0-3.81039.729l-.47882.129-.47564.149c-.31922.1-.63844.192-.947.309s-.62353.217-.92572.35-.614.249-.91084.4a18.882,18.882,0,0,0-7.74,6.542,17.7954,17.7954,0,0,0-1.19386,2.051c-.18409.345-.32668.7-.48628,1.051-.07449.176-.13939.355-.21281.532s-.14046.352-.19472.531a17.20859,17.20859,0,0,0-.89487,4.237,17.46767,17.46767,0,0,0,1.0449,7.5,14.63526,14.63526,0,0,0,3.19217,5,16.13493,16.13493,0,0,0,5.298,3.033,16.48176,16.48176,0,0,0,7.91977.692,15.1221,15.1221,0,0,0,4.28922-1.338,11.81642,11.81642,0,0,0,3.65929-2.833,11.01484,11.01484,0,0,0,2.26112-4.168,10.46271,10.46271,0,0,0,.22132-4.854,11.04638,11.04638,0,0,0-.49691-1.759c-.12238-.272-.2309-.549-.35752-.817-.15-.257-.28411-.522-.44053-.772a8.92,8.92,0,0,0-2.46009-2.525,9.68859,9.68859,0,0,0-3.19218-1.422,10.01184,10.01184,0,0,0-3.405-.228l-.82571.128c-.27134.052-.532.133-.80124.2a7.985,7.985,0,0,0-1.47584.568,3.159,3.159,0,0,0-.33623.188l-.32986.195c-.21281.142-.4086.3-.6129.441-.183.167-.37243.327-.55119.5-.16173.181-.33731.352-.4884.538a6.84052,6.84052,0,0,0-1.55779,4.944,1.82229,1.82229,0,0,0,.03512.3c.016.1.03192.2.04683.3a2.06884,2.06884,0,0,0,.0532.295l.07768.286a4.04844,4.04844,0,0,0,.17131.554,4.26309,4.26309,0,0,0,.21919.519,5.8223,5.8223,0,0,0,1.262,1.71,6.59271,6.59271,0,0,0,1.59609,1.072l.40435.182.40222.138c.066.022.12981.048.19579.065l.19579.048.37774.092c.25005.033.48627.083.71079.1l.32773.019a2.25012,2.25012,0,0,0,.30644.007c.19685-.008.37881-.01.54586-.021l.45116-.057a2.44984,2.44984,0,0,0,.35219-.063l.25326-.057Z" style="fill: url(#未命名漸層_73-15)"/>
          </g>
          <path id="路径_16066" data-name="路径 16066" d="M17.95589,58.74091c-1.83231-2.065,1.69291-4.076,2.8836-2.194.82571,1.3-1.34816,2.93-2.68568,2.092Z" style="fill: url(#未命名漸層_73-16)"/>
          <g id="组_313" data-name="组 313">
            <path id="路径_16067" data-name="路径 16067" d="M3.955,96.5069a.73719.73719,0,0,0,.532.469,1.8708,1.8708,0,0,0,1.06406-.024,3.70482,3.70482,0,0,0,.8672-.425,3.425,3.425,0,0,0,.95765-.912,2.06861,2.06861,0,0,0,.37881-1.047,1.11769,1.11769,0,0,0-.0298-.333c-.01915-.078-.04255-.122-.06916-.126-.05108-.01-.15535.135-.31922.317a2.39168,2.39168,0,0,1-.68738.524,7.71247,7.71247,0,0,1-1.62908.466,2.0709,2.0709,0,0,0-.82038.449A.66734.66734,0,0,0,3.955,96.5069Z" style="fill: url(#未命名漸層_73-17)"/>
          </g>
          <g id="组_314" data-name="组 314">
            <path id="路径_16068" data-name="路径 16068" d="M4.49449,92.53291a.4493.4493,0,0,0-.05746.455,1.11212,1.11212,0,0,0,.43627.53,2.65875,2.65875,0,0,0,1.49074.395,1.59915,1.59915,0,0,0,.74484-.223c.16493-.109.23942-.2.22452-.232s-.13939-.025-.30645-.034a1.67811,1.67811,0,0,1-.5714-.14,4.88458,4.88458,0,0,1-.91189-.639,1.40015,1.40015,0,0,0-.58311-.237A.51278.51278,0,0,0,4.49449,92.53291Z" style="fill: url(#未命名漸層_73-18)"/>
          </g>
          <path id="路径_16069" data-name="路径 16069" d="M93.79019,8.22691a16.3311,16.3311,0,0,1-1.612-.33c-.55118-.145-1.113-.311-1.68653-.506-1.146-.385-2.33135-.858-3.5614-1.329-.61715-.233-1.23537-.467-1.86529-.711s-1.2641-.491-1.90785-.734-1.2939-.482-1.95042-.712-1.32156-.445-1.993-.633c-.33411-.1-.67249-.184-1.0098-.271-.16813-.046-.33943-.079-.50862-.119s-.33943-.08-.50968-.11c-.34051-.062-.681-.133-1.02363-.177-.17131-.024-.34156-.052-.51287-.072l-.51394-.051c-.08513-.008-.17131-.019-.25644-.024l-.25538-.013-.51181-.025-.50437-.008c-.16812,0-.33518-.005-.5033,0h-.50117l-.5001.015-.25006.008-.249.016c-.166.012-.33093.018-.49586.035a12.50006,12.50006,0,0,0-1.9504.318l-.23835.063c-.07875.022-.15855.04-.23622.068l-.465.156-.45436.185c-.07554.029-.149.065-.22239.1l-.21918.108c-.07235.038-.14684.069-.21281.111l-.21281.123c-.14046.081-.28092.16-.41286.254s-.26921.177-.399.273l-.38093.292c-.06384.047-.1245.1-.18409.152l-.18089.155-.17983.155c-.05959.051-.11492.108-.17238.162l-.33943.323c-.05639.056-.11172.117-.16706.175s-.10641.116-.16387.179l-.15747.184c-.05108.062-.099.128-.149.191-.10109.125-.1894.262-.282.394a7.72235,7.72235,0,0,0-.482.84,8.29572,8.29572,0,0,0-.37668.886,8.53123,8.53123,0,0,0-.26389.92,7.83052,7.83052,0,0,0,.01491,3.611,6.82613,6.82613,0,0,0,.55757,1.494,6.74114,6.74114,0,0,0,.74483,1.143,6.64437,6.64437,0,0,0,.84167.866l.22452.185a1.3753,1.3753,0,0,0,.117.089l.12024.086a2.79071,2.79071,0,0,0,.24367.159l.12238.075.1245.066a4.99551,4.99551,0,0,0,1.01085.409,5.80212,5.80212,0,0,0,1.01085.2,6.37532,6.37532,0,0,0,1.93977-.1,6.19663,6.19663,0,0,0,.90339-.257c.14684-.05.28942-.113.43094-.173.07022-.03.13939-.067.21281-.1a2.15463,2.15463,0,0,0,.20535-.106l.20111-.113c.067-.039.13088-.082.19579-.122l.09789-.062.09363-.066.18727-.134.18089-.145.08938-.073.08618-.078.17131-.156.16173-.167c.05426-.054.10641-.113.15535-.172s.10641-.117.15-.177c.09364-.127.19153-.245.27347-.38a5.315,5.315,0,0,0,.449-.826l.08725-.22.0415-.11.03618-.114.07022-.227.05533-.232.0266-.115c.00851-.039.01383-.079.02021-.118l.03725-.234c.00851-.079.0149-.158.02234-.237l.01063-.117v-.352l-.01063-.233-.00533-.115-.01276-.115-.02659-.227c-.01384-.074-.0266-.149-.04043-.222-.00745-.037-.01276-.074-.02129-.11l-.02659-.108c-.01809-.072-.03512-.143-.05426-.213l-.066-.207-.03405-.1-.03937-.1-.07768-.195-.0883-.186-.04363-.092c-.016-.03-.03192-.059-.049-.088l-.09684-.173c-.034-.056-.07022-.109-.10641-.163-.06809-.11-.14577-.207-.21919-.306a3.6607,3.6607,0,0,0-.99171-.888,2.80709,2.80709,0,0,0-1.00872-.376,2.33167,2.33167,0,0,0-.86189.019c-.03086.006-.06278.011-.09257.019l-.08831.026-.16813.051c-.10641.045-.20323.084-.29048.129l-.23622.138-.07449.055a1.27882,1.27882,0,0,0-.90764,1.4,1.40981,1.40981,0,0,0,1.26732,1.414,1.23533,1.23533,0,0,0,1.10768-1.419,1.52829,1.52829,0,0,0-.85125-1.338l.08618-.021.15535-.023.08193-.012h.08406a2.23632,2.23632,0,0,1,.75228.072,2.595,2.595,0,0,1,.83529.4,3.28813,3.28813,0,0,1,.79167.8c.05746.086.11917.17.17025.265.02659.047.05533.092.0798.14l.07449.148c.01171.025.02554.049.03618.074l.033.078.067.157.05746.163.02872.082c.00851.028.016.057.02447.085.016.056.03192.113.04788.17l.03724.176.01916.088a.65532.65532,0,0,0,.01276.09l.0266.181.0149.184.00746.092v.28l-.01064.188a.55729.55729,0,0,1-.00532.094l-.01171.094c-.00851.063-.0149.126-.02341.189s-.02447.124-.03725.187c-.00638.031-.0117.063-.01809.094l-.02554.092-.05.186-.06384.182-.03192.092-.03831.089-.07661.179a4.7964,4.7964,0,0,1-2.20261,2.212c-.05959.033-.1213.061-.18409.089s-.12342.059-.18727.084c-.12768.05-.2543.1-.38626.146a5.65984,5.65984,0,0,1-.80975.213,5.76829,5.76829,0,0,1-1.71951.068,5.05328,5.05328,0,0,1-.87359-.177,4.241,4.241,0,0,1-.84487-.348l-.10641-.055-.099-.062a2.29953,2.29953,0,0,1-.19579-.129l-.09576-.069a1.11244,1.11244,0,0,1-.09577-.074l-.19259-.159a5.59248,5.59248,0,0,1-1.32049-1.664,5.58492,5.58492,0,0,1-.45968-1.214,6.33819,6.33819,0,0,1-.18727-1.45c-.00638-.128,0-.257,0-.387s.01809-.261.02767-.394a7.295,7.295,0,0,1,.12875-.8,7.43,7.43,0,0,1,.22132-.8,7.3049,7.3049,0,0,1,.31922-.777,6.89731,6.89731,0,0,1,.415-.741c.0798-.117.15535-.238.24367-.35.04363-.056.08406-.115.12875-.17l.13621-.164c.0447-.056.09258-.108.14151-.159s.09577-.1.14685-.157l.31922-.311c.05426-.051.10641-.106.16172-.155l.16706-.148.16813-.148a1.68172,1.68172,0,0,1,.1713-.145l.3522-.278c.11917-.091.24367-.171.366-.258s.25005-.164.37774-.241l.19259-.116c.06384-.04.13194-.07.19792-.105l.2011-.1a2.14318,2.14318,0,0,1,.20323-.1l.416-.179.42562-.151c.07129-.028.14577-.046.21919-.068l.22132-.063a11.90984,11.90984,0,0,1,1.84614-.335c.15854-.019.31922-.028.47882-.042l.24047-.02.2426-.012.48734-.024.2128-.005a1.02316,1.02316,0,0,0,.15961.083,2.78,2.78,0,0,0,.67461.156c.25856.031.55119.114.87572.184a16.40124,16.40124,0,0,1,2.24091.706c.82358.348,1.727.779,2.67823,1.235,1.29282.614,2.51649,1.164,3.57629,1.575.532.2,1.01831.381,1.45457.508l.60545.188.515.13.50436.191c.18515.069.38626.134.6012.208.43094.144.92041.307,1.45882.466a16.47582,16.47582,0,0,0,3.74336.719,9.79649,9.79649,0,0,0,1.48329-.029c.23941-.015.47031-.061.698-.093.11279-.02.22451-.047.33412-.07a2.93481,2.93481,0,0,0,.32453-.078,7.88647,7.88647,0,0,0,1.95042-.847c.1213-.026.23941-.055.3554-.086-.23091.163-.50543.342-.82359.525l-.2128.122-.22558.119c-.15216.084-.31922.158-.48309.24-.33837.154-.70228.312-1.09278.448a9.86848,9.86848,0,0,1-1.23963.351q-.33.06637-.6661.1l-.34688.029c-.11705.008-.23516.01-.35327.016a17.44736,17.44736,0,0,1-3.56778-.317c-1.046-.195-1.91531-.408-2.51011-.561-.29049-.118-.65014-.253-1.05661-.435s-.86933-.382-1.3737-.6c-.50011-.241-1.04064-.5-1.61523-.769l-1.78975-.9c-.45434-.238-.89912-.467-1.33006-.685s-.81933-.462-1.20132-.7-.74484-.47-1.09172-.678-.67355-.389-.97681-.543a5.9829,5.9829,0,0,0-1.48329-.536c-.08938-.016-.16918-.032-.23835-.041l-.17451-.014-.14364-.011.14259.034.17131.041c.067.019.14471.047.23089.075a7.05224,7.05224,0,0,1,1.40882.7q.42561.273.9268.623l1.0566.753a13.58571,13.58571,0,0,0,1.2141.776c.42561.233.87359.471,1.33113.71.62354.319,1.23644.6,1.81529.873.5863.246,1.14173.473,1.65567.676.51926.178.99489.336,1.41414.474s.78633.229,1.08533.309a22.48092,22.48092,0,0,0,2.49309.828,13.08275,13.08275,0,0,0,3.64972.471c.12342-.006.2458-.008.3671-.018l.36177-.035a6.10417,6.10417,0,0,0,.70229-.127,8.4554,8.4554,0,0,0,1.27686-.426,10.512,10.512,0,0,0,1.09173-.544c.16492-.1.3256-.19.47456-.291l.22026-.145.20643-.148a8.753,8.753,0,0,0,1.03108-.867,4.70949,4.70949,0,0,0,.55756-.226,3.01154,3.01154,0,0,0,.831-.589.94118.94118,0,0,1-.08513-.149c0-.01-.00957-.017-.01383-.026a2.81475,2.81475,0,0,1-.814.542c-.02873.013-.05959.023-.08832.035l.067-.079.05746-.069.33837-.216.4203-.257-.00638-.011-.4469.189-.60971.287-.80123.389-.21281.1A9.41343,9.41343,0,0,1,93.79019,8.22691Zm3.77208-.233.15216-.1.18621-.119-.02021.018c-.04044.037-.09364.086-.15749.14C97.66975,7.95491,97.61654,7.97491,97.56227,7.99391Zm-1.97808.652a7.37207,7.37207,0,0,1-.87466.237c-.1064.028-.21281.038-.31922.057s-.21281.037-.32454.051c-.22132.02-.44477.056-.67674.064a12.04625,12.04625,0,0,1-1.43435,0,23.37049,23.37049,0,0,1-3.68376-.563c-.53948-.118-1.03427-.234-1.47053-.333-.2192-.051-.42563-.094-.60971-.141l-.51075-.127-.50117-.191-.58843-.252c-.42562-.171-.89487-.4-1.41307-.632-1.03213-.487-2.23452-1.09-3.52735-1.707a29.61646,29.61646,0,0,0-2.7293-1.167,12.56414,12.56414,0,0,0-2.31326-.536q-.44475-.06458-.89487-.085a2.77842,2.77842,0,0,1-.65972-.065H73.156c.16387-.006.3288-.007.49478-.007h.49691l.49266.015.24685.007c.08193,0,.16493.012.24793.018l.49585.039c.166.016.33093.041.49691.06.332.035.66291.1.996.152.166.026.332.066.498.1s.33305.063.498.105c.33093.079.66291.153.99276.246.66079.171,1.31837.376,1.9717.582s1.30134.434,1.9451.665,1.27687.461,1.91531.689,1.262.451,1.87593.668c1.23111.439,2.42924.885,3.59226,1.245.581.182,1.1545.336,1.71526.468a16.24026,16.24026,0,0,0,1.64715.291A10.8018,10.8018,0,0,0,95.58419,8.64591Z" style="fill: url(#未命名漸層_73-19)"/>
          <path id="路径_16070" data-name="路径 16070" d="M104.02,2.4549s.8321,2.3-.04681,3.374c0,0,14.07322-2.939,23.97321-3.078Z" style="fill: url(#未命名漸層_73-20)"/>
          <g id="组_315" data-name="组 315">
            <path id="路径_16071" data-name="路径 16071" d="M60.50968,18.81791s.0149-.066.04363-.2l.05426-.24a2.08836,2.08836,0,0,0,.05746-.333c.0149-.126.03086-.268.04895-.424s0-.329.00745-.514a1.81374,1.81374,0,0,0-.016-.287l-.02872-.307c-.02129-.211-.08087-.431-.12237-.665q-.05322-.171-.10641-.352l-.05639-.182c-.02022-.061-.049-.121-.07342-.182l-.15855-.375-.20323-.375a5.98381,5.98381,0,0,0-3.03468-2.607,4.906,4.906,0,0,0-.55757-.192,4.74441,4.74441,0,0,0-.59374-.146l-.30644-.065c-.10642-.024-.21281-.027-.31922-.042l-.31922-.037a2.19373,2.19373,0,0,0-.31922-.025,7.92157,7.92157,0,0,0-5.21388,1.594c-.19367.147-.3703.316-.55862.473s-.33944.354-.51287.531c-.149.2-.30752.386-.45329.587l-.19792.316a2.82713,2.82713,0,0,0-.19152.321,6.98709,6.98709,0,0,0-.565,1.4c-.05959.252-.13939.5-.18621.758l-.116.779a8.36547,8.36547,0,0,0,.332,3.191,8.64457,8.64457,0,0,0,1.59609,2.966,9.10955,9.10955,0,0,0,2.7506,2.244c.27134.141.55649.26.83316.394.2873.113.58523.207.87891.315a13.01794,13.01794,0,0,0,1.88445.42,12.5394,12.5394,0,0,0,5.15641-.336,12.21154,12.21154,0,0,0,4.37328-2.234,11.34486,11.34486,0,0,0,2.91765-3.513,13.01891,13.01891,0,0,0,1.30986-4.065,13.79543,13.79543,0,0,0-.94489-7.422,14.91438,14.91438,0,0,0-3.3678-4.893,16.02545,16.02545,0,0,0-5.40116-2.865,20.87212,20.87212,0,0,0-8.007-.784,20.40509,20.40509,0,0,0-4.48395.952c-.18939.056-.37348.128-.55969.2s-.37561.135-.5597.21c-.3671.158-.74483.3-1.10556.484a19.62825,19.62825,0,0,0-2.15045,1.177,18.43825,18.43825,0,0,0-6.75465,7.444c-.149.283-.27134.576-.39689.866s-.23515.586-.34794.879-.2043.6-.30432.9l-.14577.451-.1245.453a19.83285,19.83285,0,0,0-.67461,3.6,16.32454,16.32454,0,0,0,.07022,3.5,17.01383,17.01383,0,0,0,.7757,3.291,26.26843,26.26843,0,0,0,2.89317,5.738c1.11832,1.723,2.292,3.269,3.38584,4.668s2.12811,2.643,3.02937,3.737l2.326,2.8c1.27687,1.541,1.9717,2.4,1.9717,2.4l-2.2175-2.2c-.71186-.712-1.58118-1.583-2.58034-2.605s-2.12812-2.195-3.34007-3.53a57.54351,57.54351,0,0,1-3.7625-4.55,26.16512,26.16512,0,0,1-3.3571-5.929,17.82054,17.82054,0,0,1-.98426-3.583,17.23868,17.23868,0,0,1-.18514-3.872,20.44124,20.44124,0,0,1,.66716-3.941l.12981-.491.15217-.485c.10641-.324.19366-.649.31922-.975s.23409-.656.38093-.975.27453-.647.43945-.961a18.96288,18.96288,0,0,1,3.255-4.676,20.92616,20.92616,0,0,1,2.0664-1.9,21.73689,21.73689,0,0,1,2.2707-1.562,20.64859,20.64859,0,0,1,2.40264-1.222c.40328-.185.82146-.331,1.229-.489.20535-.075.415-.139.62033-.208s.41073-.138.61929-.192a21.24315,21.24315,0,0,1,4.91275-.824,21.45981,21.45981,0,0,1,4.54991.265,21.01125,21.01125,0,0,1,3.92105,1.052,16.02818,16.02818,0,0,1,3.12834,1.6,15.47869,15.47869,0,0,1,2.26963,1.811,15.6062,15.6062,0,0,1,2.05576,2.023,14.72283,14.72283,0,0,1,1.88975,2.836,14.45542,14.45542,0,0,1,1.53012,7.966,13.92218,13.92218,0,0,1-1.246,4.6,12.6607,12.6607,0,0,1-3.223,4.164,13.78113,13.78113,0,0,1-5.04364,2.709,14.29245,14.29245,0,0,1-6.06513.436,14.81256,14.81256,0,0,1-2.21642-.5c-.35859-.13-.72037-.251-1.07044-.392-.3405-.164-.68632-.315-1.01618-.492a10.80083,10.80083,0,0,1-3.31134-2.79,10.1712,10.1712,0,0,1-1.83124-3.63,9.752,9.752,0,0,1-.25218-3.83q.0883-.462.17556-.918c.07023-.3.17451-.592.25964-.885l.06809-.218c.02767-.072.05959-.144.08938-.215l.183-.425a3.14072,3.14072,0,0,1,.20642-.411l.22452-.4a3.84047,3.84047,0,0,1,.25218-.38l.26176-.37c.18834-.235.39157-.458.58629-.682.21814-.205.42562-.413.65013-.606a7.46082,7.46082,0,0,1,.69909-.529,9.09093,9.09093,0,0,1,6.17153-1.508,2.79269,2.79269,0,0,1,.3639.052l.35647.066c.11705.024.23622.037.349.072l.3373.1a7.33079,7.33079,0,0,1,1.27261.475,6.78264,6.78264,0,0,1,1.96532,1.429,6.56429,6.56429,0,0,1,1.14173,1.7l.17876.418.12981.412c.01916.067.04363.132.05852.2l.04042.2c.0266.13.05108.256.07662.379.02022.25.05852.483.05746.7v.32a1.99512,1.99512,0,0,1-.0149.3c-.02341.19-.03938.364-.06384.523l-.09684.426a2.09635,2.09635,0,0,1-.09576.329l-.08087.234Z" style="fill: url(#未命名漸層_73-21)"/>
          </g>
          <path id="路径_16072" data-name="路径 16072" d="M60.85122,16.6479c-2.24516-1.667-4.29135,1.7-2.25792,2.766,1.40987.741,3.08576-1.344,2.15471-2.578Z" style="fill: url(#未命名漸層_73-22)"/>
          <g id="组_316" data-name="组 316">
            <path id="路径_16073" data-name="路径 16073" d="M100.65336,2.49791a.7576.7576,0,0,0-.67674.257,1.88338,1.88338,0,0,0-.45648.783,6.5222,6.5222,0,0,1-.46074,1.535,2.32159,2.32159,0,0,1-.532.656c-.18728.155-.33731.261-.32454.315,0,.022.05107.04.13407.054a1.41963,1.41963,0,0,0,.35327.016,2.3999,2.3999,0,0,0,1.10023-.38,3.41035,3.41035,0,0,0,.94914-.923,3.27659,3.27659,0,0,0,.43306-.825,1.55815,1.55815,0,0,0,0-1A.73312.73312,0,0,0,100.65336,2.49791Z" style="fill: url(#未命名漸層_73-23)"/>
          </g>
          <g id="组_317" data-name="组 317">
            <path id="路径_16074" data-name="路径 16074" d="M96.43756,3.1099a.44271.44271,0,0,0-.12024.444,1.24878,1.24878,0,0,0,.26708.541,4.61634,4.61634,0,0,1,.698.841,1.483,1.483,0,0,1,.1628.531c.0149.157.016.274.05107.289s.12237-.061.2341-.218a1.38331,1.38331,0,0,0,.21813-.707,2.08823,2.08823,0,0,0-.15322-.846,2.18756,2.18756,0,0,0-.30006-.546,1.17746,1.17746,0,0,0-.57566-.4A.53068.53068,0,0,0,96.43756,3.1099Z" style="fill: url(#未命名漸層_73-24)"/>
          </g>
          <g id="组_318" data-name="组 318">
            <path id="路径_16075" data-name="路径 16075" d="M31.12573,6.83791c-.24686-.186-.88423.1-1.67058.8a10.34191,10.34191,0,0,0-2.38668,3.272,11.2035,11.2035,0,0,0-.54266,1.431,12.00579,12.00579,0,0,0-.415,2.006,11.28132,11.28132,0,0,0-.03192,2.329,11.58436,11.58436,0,0,0,.45968,2.333,13.27923,13.27923,0,0,0,1.77379,3.612,4.77037,4.77037,0,0,0,1.13,1.308,8.92654,8.92654,0,0,0-.59694-1.561,15.22606,15.22606,0,0,1-.963-3.62,11.37726,11.37726,0,0,1-.066-2.1,10.99146,10.99146,0,0,1,.30965-1.985,13.22322,13.22322,0,0,1,.5416-1.667c.2-.484.38519-.894.532-1.206.581-1.251,1.20027-2.378,1.59609-3.257S31.38,7.03191,31.12573,6.83791Z" style="fill: url(#未命名漸層_73-25)"/>
          </g>
        </g>
      </g>
    </g>
  </g>
</svg>
