<svg xmlns="http://www.w3.org/2000/svg" xmlns:xlink="http://www.w3.org/1999/xlink" width="580.27793" height="72.57376" viewBox="0 0 580.27793 72.57376">
  <defs>
    <radialGradient id="未命名漸層_11" data-name="未命名漸層 11" cx="-667.81922" cy="744.34377" r="0.65012" gradientTransform="matrix(403.10553, 0, 0, -1.33099, 269491.7607, 1062.52916)" gradientUnits="userSpaceOnUse">
      <stop offset="0" stop-color="#e1ca8f"/>
      <stop offset="0.144" stop-color="#ceb47c"/>
      <stop offset="0.64" stop-color="#8c6a39"/>
      <stop offset="1" stop-color="#543516"/>
    </radialGradient>
    <linearGradient id="未命名漸層_73" data-name="未命名漸層 73" x1="-667.077" y1="779.11199" x2="-667.077" y2="777.96785" gradientTransform="matrix(202.35999, 0, 0, -6.02997, 135420.94281, 4759.48358)" gradientUnits="userSpaceOnUse">
      <stop offset="0" stop-color="#ab7927"/>
      <stop offset="0.185" stop-color="#c68f46"/>
      <stop offset="0.338" stop-color="#fedb6b"/>
      <stop offset="0.363" stop-color="#f5d065"/>
      <stop offset="0.499" stop-color="#cba04a"/>
      <stop offset="0.602" stop-color="#b1823a"/>
      <stop offset="0.66" stop-color="#a87734"/>
      <stop offset="0.748" stop-color="#a2722f"/>
      <stop offset="0.86" stop-color="#926321"/>
      <stop offset="0.896" stop-color="#8c5e1c"/>
      <stop offset="1" stop-color="#d69c47"/>
    </linearGradient>
    <linearGradient id="未命名漸層_73-2" x1="-618.66041" y1="775.21674" x2="-618.66041" y2="774.07259" gradientTransform="matrix(4.286, 0, 0, -4.286, 2936.47924, 3386.03482)" xlink:href="#未命名漸層_73"/>
    <linearGradient id="未命名漸層_73-3" x1="-667.51321" y1="779.1119" x2="-667.51321" y2="777.96775" gradientTransform="matrix(202.36011, 0, 0, -6.02991, 135221.66032, 4759.43552)" xlink:href="#未命名漸層_73"/>
    <linearGradient id="未命名漸層_73-4" x1="-663.92894" y1="783.82815" x2="-663.92894" y2="782.684" gradientTransform="matrix(52.29395, 0, 0, -11.4668, 35099.68834, 9027.11773)" xlink:href="#未命名漸層_73"/>
    <linearGradient id="未命名漸層_73-5" x1="-638.45863" y1="783.65893" x2="-638.45863" y2="782.51478" gradientTransform="matrix(7.9165, 0, 0, -11.06573, 5473.88103, 8710.74172)" xlink:href="#未命名漸層_73"/>
    <linearGradient id="未命名漸層_73-6" x1="-633.58612" y1="775.45791" x2="-633.58612" y2="774.31376" gradientTransform="matrix(6.82825, 0, 0, -4.22272, 4751.59126, 3323.21937)" xlink:href="#未命名漸層_73"/>
    <linearGradient id="未命名漸層_73-7" x1="-665.62992" y1="786.68536" x2="-665.62992" y2="785.54121" gradientTransform="matrix(85.48303, 0, 0, -28.55731, 57293.71763, 22496.41822)" xlink:href="#未命名漸層_73"/>
    <linearGradient id="未命名漸層_73-8" x1="-611.36679" y1="783.33004" x2="-611.36679" y2="782.18588" gradientTransform="matrix(3.87305, 0, 0, -10.60352, 2660.52712, 8354.80142)" xlink:href="#未命名漸層_73"/>
    <linearGradient id="未命名漸層_73-9" x1="-649.04415" y1="784.07026" x2="-649.04415" y2="782.92612" gradientTransform="matrix(11.49921, 0, 0, -11.26569, 7767.17963, 8843.03633)" xlink:href="#未命名漸層_73"/>
    <linearGradient id="未命名漸層_73-10" x1="-644.36929" y1="786.18352" x2="-644.36929" y2="785.03937" gradientTransform="matrix(9.20099, 0, 0, -20.83252, 6221.55986, 16378.18361)" xlink:href="#未命名漸層_73"/>
    <linearGradient id="未命名漸層_73-11" x1="-649.28596" y1="784.07024" x2="-649.28596" y2="782.92609" gradientTransform="matrix(11.49841, 0, 0, -11.26563, 7747.25457, 8842.98826)" xlink:href="#未命名漸層_73"/>
    <linearGradient id="未命名漸層_73-12" x1="-618.20395" y1="779.53631" x2="-618.20395" y2="778.39216" gradientTransform="matrix(4.401, 0, 0, -5.79602, 3013.39101, 4542.64212)" xlink:href="#未命名漸層_73"/>
    <linearGradient id="未命名漸層_73-13" x1="-665.39774" y1="786.50635" x2="-665.39774" y2="785.3622" gradientTransform="matrix(72.49121, 0, 0, -24.77368, 48481.10393, 19494.92776)" xlink:href="#未命名漸層_73"/>
    <linearGradient id="未命名漸層_73-14" x1="-658.08673" y1="785.0334" x2="-658.08673" y2="783.88925" gradientTransform="matrix(20.9964, 0, 0, -14.1908, 14070.29726, 11145.51193)" xlink:href="#未命名漸層_73"/>
    <linearGradient id="未命名漸層_73-15" x1="-663.18634" y1="786.36201" x2="-663.18634" y2="785.21786" gradientTransform="matrix(42.0708, 0, 0, -23.88422, 28169.34206, 18804.90787)" xlink:href="#未命名漸層_73"/>
    <linearGradient id="未命名漸層_73-16" x1="-665.23331" y1="786.50645" x2="-665.23331" y2="785.3623" gradientTransform="matrix(72.46625, 0, 0, -24.77362, 48546.56788, 19494.86101)" xlink:href="#未命名漸層_73"/>
    <linearGradient id="未命名漸層_73-17" x1="-657.6087" y1="785.03338" x2="-657.6087" y2="783.88923" gradientTransform="matrix(20.99451, 0, 0, -14.19073, 14138.51983, 11145.46386)" xlink:href="#未命名漸層_73"/>
    <linearGradient id="未命名漸層_73-18" x1="-663.04217" y1="786.3619" x2="-663.04217" y2="785.21775" gradientTransform="matrix(42.06946, 0, 0, -23.88281, 28210.47148, 18803.79841)" xlink:href="#未命名漸層_73"/>
    <linearGradient id="未命名漸層_73-19" x1="-664.36302" y1="783.82994" x2="-664.36302" y2="782.6858" gradientTransform="matrix(52.29419, 0, 0, -11.46747, 34942.38257, 9027.5262)" xlink:href="#未命名漸層_73"/>
    <linearGradient id="未命名漸層_73-20" x1="-642.57452" y1="783.66138" x2="-642.57452" y2="782.51724" gradientTransform="matrix(7.91583, 0, 0, -11.06769, 5247.2718, 8712.15931)" xlink:href="#未命名漸層_73"/>
    <linearGradient id="未命名漸層_73-21" x1="-638.57489" y1="775.45955" x2="-638.57489" y2="774.31541" gradientTransform="matrix(6.82843, 0, 0, -4.22192, 4515.43644, 3322.47345)" xlink:href="#未命名漸層_73"/>
    <linearGradient id="未命名漸層_73-22" x1="-665.93501" y1="786.68617" x2="-665.93501" y2="785.54202" gradientTransform="matrix(85.48163, 0, 0, -28.56006, 57111.83293, 22498.4596)" xlink:href="#未命名漸層_73"/>
  </defs>
  <g id="圖層_2" data-name="圖層 2">
    <g id="圖層_1-2" data-name="圖層 1">
      <g id="title_top">
        <g id="组_160" data-name="组 160">
          <path id="路径_15945" data-name="路径 15945" d="M.712,72.57376H579.566a.76315.76315,0,0,0,0-1.52286H.712a.76315.76315,0,0,0,0,1.52286Z" style="fill: url(#未命名漸層_11)"/>
        </g>
        <g id="组_161" data-name="组 161">
          <path id="路径_15946" data-name="路径 15946" d="M284.17778,68.36213H578.32406a1.16363,1.16363,0,0,0,1.16356-1.16363v-.0229a1.16126,1.16126,0,0,0-1.15783-1.16475h-.00573c-16.63136.0412-271.18552.3947-293.90711-4.52171a1.16027,1.16027,0,0,0-1.40385,1.13842v4.5766A1.16357,1.16357,0,0,0,284.17778,68.36213Z" style="fill: url(#未命名漸層_73)"/>
          <circle id="椭圆_1" data-name="椭圆 1" cx="284.90086" cy="65.90796" r="2.45191" style="fill: url(#未命名漸層_73-2)"/>
          <path id="路径_15947" data-name="路径 15947" d="M285.27723,68.36213H1.95394A1.16363,1.16363,0,0,1,.79031,67.19857v-.023a1.16132,1.16132,0,0,1,1.15784-1.16475h.00579c16.63136.0412,260.36022.3947,283.08188-4.52171a1.16121,1.16121,0,0,1,1.405,1.13842v4.5766A1.16362,1.16362,0,0,1,285.27723,68.36213Z" style="fill: url(#未命名漸層_73-3)"/>
        </g>
        <g id="组_181" data-name="组 181">
          <g id="组_171" data-name="组 171">
            <g id="组_168" data-name="组 168">
              <path id="路径_15960" data-name="路径 15960" d="M410.14065,51.4173l-.60643.19225c-.20028.06411-.45769.11439-.75057.19337-.14763.0412-.31118.06292-.484.09728s-.35922.07325-.556.09839a28.24921,28.24921,0,0,1-6.7505.07326,63.65124,63.65124,0,0,1-9.84776-1.79633c-1.82376-.47025-3.72071-1.02284-5.667-1.66356q-1.46-.4805-2.95185-1.02977c-.99764-.36844-1.99081-.77116-2.99306-1.1762-2.00114-.81921-3.921-1.65211-5.78485-2.39584s-3.66932-1.40044-5.41752-1.94507a41.07618,41.07618,0,0,0-9.52736-1.86608q-1.02969-.05143-1.9679-.0183a17.3852,17.3852,0,0,0-1.746.16251,11.26211,11.26211,0,0,0-2.70814.74023,8.68443,8.68443,0,0,0-1.56971.86726c-.16928.11438-.28953.22193-.37528.28492l-.12822.09839.11439-.11438c.07556-.07549.18073-.19568.333-.34323a8.366,8.366,0,0,1,1.47712-1.0938,11.11639,11.11639,0,0,1,2.71958-1.10526,16.89592,16.89592,0,0,1,1.80436-.36613c.64637-.08925,1.33172-.15329,2.05379-.18422a36.32008,36.32008,0,0,1,10.00558,1.19561,56.81014,56.81014,0,0,1,5.67381,1.77573c1.92908.70706,3.87757,1.516,5.86027,2.32719.99317.40161,1.969.80092,2.93244,1.17851s1.92447.73227,2.86959,1.07319c1.89123.68647,3.73106,1.30547,5.492,1.86386a84.22061,84.22061,0,0,0,9.49649,2.47133,31.8606,31.8606,0,0,0,6.57425.65447c.19679,0,.37989-.01829.55378-.02514s.3433-.01257.48632-.03317c.29972-.03547.55727-.05265.7609-.08813Z" style="fill: url(#未命名漸層_73-4)"/>
            </g>
            <g id="组_169" data-name="组 169">
              <path id="路径_15961" data-name="路径 15961" d="M418.85784,39.36713a.83082.83082,0,0,1,.67962-.373,2.2002,2.2002,0,0,1,.57207.00915,4.81656,4.81656,0,0,1,.70364.17849,5.92261,5.92261,0,0,1,.80085.38332,5.19442,5.19442,0,0,1,.84093.64072,4.96511,4.96511,0,0,1,1.38675,2.20135,5.21071,5.21071,0,0,1,.1933,1.84779,6.07021,6.07021,0,0,1-.651,2.23906,9.22413,9.22413,0,0,1-3.23105,3.43245,12.07363,12.07363,0,0,1-1.87069.9931,10.932,10.932,0,0,1-1.65449.54344c-.97488.22885-1.60868.20364-1.63494.10755s.5183-.38674,1.28032-.91531c.37752-.26886.81468-.58583,1.25854-.97026a13.5072,13.5072,0,0,0,1.31231-1.29974,9.87367,9.87367,0,0,0,1.10406-1.51713,6.112,6.112,0,0,0,.64763-1.51482,3.56576,3.56576,0,0,0,.11439-1.1968,4.12667,4.12667,0,0,0-.16131-.75742,5.59561,5.59561,0,0,0-.51035-1.14987c-.09609-.19791-.22877-.381-.3433-.57208-.12248-.18533-.24148-.36844-.3433-.55147a4.41549,4.41549,0,0,1-.2986-.51488,3.41588,3.41588,0,0,1-.21048-.468A.96559.96559,0,0,1,418.85784,39.36713Z" style="fill: url(#未命名漸層_73-5)"/>
            </g>
            <g id="组_170" data-name="组 170">
              <path id="路径_15962" data-name="路径 15962" d="M429.161,50.60617a1.56714,1.56714,0,0,1-.37068.59156,3.04743,3.04743,0,0,1-.54917.43478,3.45606,3.45606,0,0,1-1.33982.48394c-.25405.02864-.68646.03317-1.22543.09379a9.83792,9.83792,0,0,0-1.78606.36614c-.14986.05035-.30433.095-.44958.14762l-.42794.1602c-.26886.11439-.53088.22193-.74373.32724s-.4028.18876-.54456.24372-.24483.07207-.28827.04-.0412-.12472-.01145-.27689a2.65893,2.65893,0,0,1,.20028-.60643,5.74773,5.74773,0,0,1,.44163-.81921c.0972-.1419.20363-.29065.3169-.44282s.24372-.29406.37417-.44623A7.70855,7.70855,0,0,1,424.652,49.383a5.22129,5.22129,0,0,1,1.79179-.66363,2.92434,2.92434,0,0,1,2.20365.52284,1.487,1.487,0,0,1,.50225.66936A1.04427,1.04427,0,0,1,429.161,50.60617Z" style="fill: url(#未命名漸層_73-6)"/>
            </g>
            <path id="路径_15963" data-name="路径 15963" d="M442.52346,45.10963c-.008-.27689-.05265-.54463-.07891-.81579s-.05265-.5389-.09958-.80092a14.23991,14.23991,0,0,0-2.33411-5.81229,14.90043,14.90043,0,0,0-4.254-3.945,18.74138,18.74138,0,0,0-4.83512-2.07664,24.02837,24.02837,0,0,0-4.659-.80091,27.97814,27.97814,0,0,0-4.18762.0412l-.95658.09378-.91537.13276c-.30085.03778-.59149.09609-.87641.15216s-.56635.10412-.83758.167l-.79289.19226-.38213.095-.36955.11439-.71049.20936c-.22877.06752-.44959.15447-.66593.22884a23.57847,23.57847,0,0,0-3.81806,1.70819c-.21174.10866-.38786.22885-.54233.31921l-.38674.23911-.31355.19448.32836-.16815.40391-.20713c.16132-.08122.3433-.183.56412-.27458a24.18481,24.18481,0,0,1,3.89013-1.41071c.2162-.05719.4359-.12584.66705-.17737l.71048-.1579.36733-.0824.381-.06753.78716-.13729c.26774-.04351.54581-.07207.82612-.11439s.57208-.07549.86273-.09378l.89707-.07326.93242-.03317a27.82451,27.82451,0,0,1,4.032.19679,23.39756,23.39756,0,0,1,4.37408.99429,17.59538,17.59538,0,0,1,4.36039,2.1281,13.396,13.396,0,0,1,3.603,3.63838,12.48307,12.48307,0,0,1,1.81469,5.08456c.03324.22885.039.47026.06061.706a6.73486,6.73486,0,0,1,.04456.70936,11.28537,11.28537,0,0,1-.06062,1.40959,11.40285,11.40285,0,0,1-.22877,1.40155c-.06173.22885-.1338.45769-.19791.68647a5.53463,5.53463,0,0,1-.24148.6785,11.92509,11.92509,0,0,1-.611,1.32264l-.38325.63269-.095.15789-.11439.15217-.21858.30433a14.01149,14.01149,0,0,1-2.05952,2.26428,22.06689,22.06689,0,0,1-5.41292,3.50109,32.47826,32.47826,0,0,1-6.4336,2.20247,34.78188,34.78188,0,0,1-3.43245.619,31.76728,31.76728,0,0,1-3.508.24714h-.87641l-.86956-.03436-.85923-.06976-.889-.11439c-1.18535-.15447-2.36721-.278-3.52966-.49539l-1.74024-.29065c-.57208-.10754-1.14415-.22884-1.71622-.35014s-1.14415-.22885-1.70366-.357l-1.67963-.40615c-4.46221-1.0915-8.70234-2.44619-12.72292-3.83287s-7.82483-2.80548-11.40825-4.09035-6.94269-2.44388-10.03756-3.421c-1.556-.46684-3.02965-.92564-4.44042-1.31461s-2.75744-.72655-4.03078-.98284a24.91333,24.91333,0,0,0-6.62913-.57207,12.22712,12.22712,0,0,0-2.40269.39819c-.262.07325-.5.15447-.72431.238l-.2162.05377c-.09721.024-.1933.04805-.28827.0778l-.2838.08694c-.09386.02975-.18534.06522-.27808.09728-.18534.06292-.36383.143-.54233.21627A9.06889,9.06889,0,0,0,347.61541,46.78a8.61,8.61,0,0,0-.80085.72535,7.183,7.183,0,0,0-1.91189,3.4416,6.20057,6.20057,0,0,0-.14079,1.7334,6.6882,6.6882,0,0,0,.26886,1.508,7.312,7.312,0,0,0,.53087,1.29632l.16593.30321a1.64514,1.64514,0,0,0,.08924.14987l.095.14986a3.41834,3.41834,0,0,0,.20251.28834l.10405.14071.11439.13387a6.92573,6.92573,0,0,0,.97138.95763,8.61186,8.61186,0,0,0,1.08689.754,10.24862,10.24862,0,0,0,3.54683,1.25853c.20028.03548.40154.05489.60182.0778.09959.01145.20029.01487.29973.0229s.199.01488.29972.01488l.29749.00684c.09847,0,.19791,0,.29638-.00684h.14762l.14651-.01027.29288-.02172.28953-.03659.14414-.0183.143-.02632.2838-.05147.28031-.06753c.09274-.0206.18422-.04693.27459-.07549s.182-.05377.27235-.08352c.17737-.06753.35587-.12584.52514-.20594a6.14316,6.14316,0,0,0,.97138-.53317l.22082-.1602.11438-.0801.10294-.08813.20475-.17507.18883-.19.09385-.095c.02975-.03206.05727-.06753.087-.1007l.16927-.2014c.05266-.06976.10294-.1419.15224-.21278l.07556-.10524c.024-.03548.04455-.07437.06634-.11439l.13045-.22081.11438-.22885.05489-.11438.04581-.11439.08925-.22884.07095-.22885c.01145-.03889.024-.07779.03436-.11438l.02514-.11439c.01718-.07779.03436-.15559.05028-.22884l.03087-.22885c0-.0389.01145-.07668.0148-.11439l.00684-.11438c0-.07668.008-.15329.01257-.22885s0-.15216,0-.22884v-.11439c0-.03778-.00684-.07437-.01033-.11438-.00684-.07326-.01481-.14763-.02053-.2197s-.024-.143-.03659-.21509a3.93056,3.93056,0,0,0-.095-.41418,4.20157,4.20157,0,0,0-.69456-1.40274,3.88929,3.88929,0,0,0-.98968-.92564,3.65375,3.65375,0,0,0-1.02976-.46683c-.0412-.01146-.08-.02514-.11439-.03548l-.11438-.02514-.22878-.04574c-.14762-.016-.28492-.03317-.41187-.0412h-.35238l-.11439.01026a1.54566,1.54566,0,1,0,.68074.40273l.11438.02863.19679.06523.10182.03436.10182.0435a3.50143,3.50143,0,0,1,1.62125,1.33864,3.61005,3.61005,0,0,1,.50461,1.206,3.3199,3.3199,0,0,1,.0595.34323c.00573.0595.01606.11439.02053.17849s0,.1213.008.18192V54.756c-.00684.0618-.01257.12472-.02053.18764l-.00922.09378a.53872.53872,0,0,1-.01718.09379l-.03547.18876-.04916.18876-.02514.095c-.01034.03087-.02179.0618-.03324.09267-.02054.0618-.04344.12354-.06523.18653a1.978,1.978,0,0,1-.08128.183l-.04009.09267-.048.08924-.09721.1785-.11439.17277c-.0183.02863-.03659.05838-.056.08694l-.0641.0824c-.04344.05489-.08464.11439-.12933.16593l-.143.15789c-.024.02633-.04805.05377-.07207.07891l-.08.07326-.15782.14874-.17277.13729-.08576.06977-.09273.06292-.18646.127a6.42012,6.42012,0,0,1-3.77575.86272c-.08813,0-.17625-.01145-.26424-.01829s-.17738-.01376-.26663-.02514c-.17626-.024-.35475-.04351-.53311-.07891a9.27909,9.27909,0,0,1-3.1316-1.15561,7.56143,7.56143,0,0,1-.93479-.6602,5.82676,5.82676,0,0,1-.809-.80092l-.09148-.11438-.08352-.11439a2.77747,2.77747,0,0,1-.16243-.22885l-.07556-.11438a1.27655,1.27655,0,0,1-.07319-.12354l-.1419-.25859a6.17768,6.17768,0,0,1-.44386-1.08926,5.61618,5.61618,0,0,1-.22877-1.2357,5.0872,5.0872,0,0,1,.10754-1.413,5.666,5.666,0,0,1,.55266-1.48738c.06173-.12584.14079-.24253.21285-.36613s.16132-.238.24372-.35929a7.04938,7.04938,0,0,1,.5778-.68647,7.64621,7.64621,0,0,1,.68646-.63387,8.05161,8.05161,0,0,1,1.67852-1.02976c.15559-.06523.31006-.13841.47361-.19449.08128-.02975.16131-.0618.2426-.08925l.24944-.0801c.08241-.02863.167-.04923.25168-.071s.16816-.04574.25629-.06753l.54121-.11438c.09148-.01949.182-.0412.27235-.0572l.2757-.04692.27682-.04693c.09274-.016.18534-.032.27919-.0412l.56286-.06634c.18757-.01949.37752-.02514.57207-.0389s.38213-.01488.57208-.01718h.28953c.09609,0,.19218.008.28952.01145l.29177.01488a2.27844,2.27844,0,0,1,.29176.02171l.58576.06411c.46677.05147.937.06523,1.40267.12926.41537.0572.82725.12584,1.246.15447q1.0982.07438,2.18983.2197l1.666.22081a.02165.02165,0,0,1-.01607-.00684c.508.16131,1.02977.32954,1.55379.50915,1.37293.45769,2.81457,1,4.32953,1.54,3.01819,1.127,6.29282,2.4302,9.81563,3.86262s7.27565,2.9839,11.29274,4.50452a127.40542,127.40542,0,0,0,12.86245,4.19217l1.71623.44281c.5778.1419,1.16468.25971,1.75058.39127s1.17389.26314,1.76776.37983l1.79751.31809c1.199.22884,2.42447.37186,3.65437.53548l.92557.11439.97027.08121.97026.04c.32375.00915.64638,0,.97138,0a34.95682,34.95682,0,0,0,14.46094-3.43245,24.02071,24.02071,0,0,0,5.94952-4.02854,16.18876,16.18876,0,0,0,2.32489-2.69675l.24832-.36726.12361-.18422.11439-.19225.4359-.77a14.09944,14.09944,0,0,0,.6933-1.61671,7.12921,7.12921,0,0,0,.26774-.83067c.07207-.28143.14986-.56062.214-.84093a13.895,13.895,0,0,0,.23911-3.3821Z" style="fill: url(#未命名漸層_73-7)"/>
          </g>
          <path id="路径_15964" data-name="路径 15964" d="M292.67428,48.74913l-2.21505,4.691.01376.0183c.90385,1.21391,2.2471,7.39122,2.2471,7.39122a.03318.03318,0,0,0,.06522.00685c.25859-1.2952,1.30435-6.34317,2.09151-7.39807l.01376-.0183Z" style="fill: url(#未命名漸層_73-8)"/>
          <g id="组_176" data-name="组 176">
            <g id="组_174" data-name="组 174">
              <g id="组_172" data-name="组 172">
                <path id="路径_15965" data-name="路径 15965" d="M309.4979,15.29192a1.27233,1.27233,0,0,0,.71048-.88556,2.69239,2.69239,0,0,0-.22884-1.75742A4.51607,4.51607,0,0,0,308.11,10.68215a5.68512,5.68512,0,0,0-3.23224-.71851,6.61907,6.61907,0,0,0-2.07321.49882,8.14906,8.14906,0,0,0-2.27572,1.40274,9.46612,9.46612,0,0,0-1.85582,2.18306,10.572,10.572,0,0,0-1.13612,2.54346,11.70255,11.70255,0,0,0-.4153,2.4508c-.01487.37871-.01718.73912-.00684,1.07208a8.731,8.731,0,0,0,.0824.92676c.0389.28143.09036.53548.13617.7563a4.87476,4.87476,0,0,0,.16593.564c.11439.30775.20936.4748.29288.4748s.17619-.167.29749-.45769c.12584-.32494.28261-.72536.45769-1.18193.09609-.2403.21508-.49658.32724-.76775s.26313-.54463.40733-.82724a12.3622,12.3622,0,0,1,1.0732-1.65673,8.67209,8.67209,0,0,1,1.373-1.373,6.49611,6.49611,0,0,1,1.45079-.8741,4.83033,4.83033,0,0,1,1.24024-.36041,1.96956,1.96956,0,0,1,.246-.03087,1.46906,1.46906,0,0,1,.21628-.0206,1.65327,1.65327,0,0,0,.18764-.01718,1.20565,1.20565,0,0,0,.15559,0c.38443-.02633.69337-.04923,1.00224-.0618a5.78245,5.78245,0,0,1,1.016.02514A4.65071,4.65071,0,0,0,309.4979,15.29192Z" style="fill: url(#未命名漸層_73-9)"/>
              </g>
              <path id="路径_15966" data-name="路径 15966" d="M297.98889,9.13529a42.89918,42.89918,0,0,0-2.67846,12.0982.08654.08654,0,0,1-.07437.095l-2.01022,2.28145a.66928.66928,0,0,1-1.00225,0l-2.0091-2.27572c-.03778,0-.06977-.04-.07438-.095A43.04413,43.04413,0,0,0,287.46166,9.141c-.01718-.04,4.14069-7.47132,5.0766-9.02392a.20709.20709,0,0,1,.373,0C293.84707,1.664,298.00607,9.09639,297.98889,9.13529Z" style="fill: url(#未命名漸層_73-10)"/>
              <g id="组_173" data-name="组 173">
                <path id="路径_15967" data-name="路径 15967" d="M275.686,15.29192a1.27344,1.27344,0,0,1-.71049-.88556,2.68794,2.68794,0,0,1,.22885-1.75742,4.51349,4.51349,0,0,1,1.86839-1.96679,5.68861,5.68861,0,0,1,3.23223-.71851,6.61894,6.61894,0,0,1,2.07321.49882,8.1619,8.1619,0,0,1,2.27573,1.40274,9.46783,9.46783,0,0,1,1.85582,2.18306,10.57241,10.57241,0,0,1,1.13612,2.54346,11.69345,11.69345,0,0,1,.4153,2.4508c.01487.37871.01717.73912.00684,1.07208a8.43383,8.43383,0,0,1-.0824.92676c-.04009.28143-.09037.53548-.1373.7563a4.9369,4.9369,0,0,1-.16592.564c-.11439.30775-.20936.4748-.29288.4748s-.17619-.167-.29749-.45769l-.45769-1.18193c-.09609-.2403-.21627-.49658-.32724-.76775s-.26313-.54463-.40845-.82724a12.24933,12.24933,0,0,0-1.07208-1.65673,8.68426,8.68426,0,0,0-1.373-1.373,6.50472,6.50472,0,0,0-1.45079-.8741,4.8419,4.8419,0,0,0-1.24024-.36041,1.99613,1.99613,0,0,0-.246-.03087,1.47864,1.47864,0,0,0-.21628-.0206,1.62177,1.62177,0,0,1-.18764-.01718,1.224,1.224,0,0,1-.15677,0c-.38332-.02633-.69338-.04923-1.00225-.0618a5.77573,5.77573,0,0,0-1.016.02514A4.65387,4.65387,0,0,1,275.686,15.29192Z" style="fill: url(#未命名漸層_73-11)"/>
              </g>
            </g>
            <path id="路径_15968" data-name="路径 15968" d="M292.72463,24.43367l-2.5675,2.43592h0c.45769.62131,2.5675,4.19559,2.5675,4.19559h0s2.00568-3.57435,2.4679-4.19559h0Z" style="fill: url(#未命名漸層_73-12)"/>
            <path id="路径_15969" data-name="路径 15969" d="M281.9182,21.56876l.51942.13959,1.91986.54806,1.45763.40161,1.06175.254.00914-.02291-1.02284-.38785-.82606-.33066-.14986-.11439-.17277-.135c.06864.01717.13959.02974.20824.04692a6.992,6.992,0,0,1,1.99765.83751c.00685-.01829.01488-.03435.02172-.05265a1.6133,1.6133,0,0,1,.14414-.30433,7.40863,7.40863,0,0,0-2.048-.92222,12.26948,12.26948,0,0,0-1.32264-.29749,20.83273,20.83273,0,0,0-2.5869-1.40505l-.50916-.22884-.5389-.22193c-.36614-.15678-.75511-.29065-1.15672-.44163a27.13348,27.13348,0,0,0-2.62007-.77459,22.36328,22.36328,0,0,0-2.98852-.508c-.52515-.05035-1.06866-.07667-1.61552-.07437l-.82034.01949c-.27577.00914-.55147.03547-.82947.05377a33.57415,33.57415,0,0,0-8.03076,1.76427,54.03922,54.03922,0,0,0-5.32486,2.16818c-.643.22884-1.43934.48283-2.334.84554s-1.91071.77571-3.01827,1.23794c-1.08465.50915-2.25743,1.07438-3.49536,1.68074-1.21049.6556-2.49542,1.3364-3.79174,2.09263-.94847.56523-1.87069,1.12355-2.75737,1.66818a29.29038,29.29038,0,0,0-2.47482,1.76545l-2.1304,1.68417c-.66586.52284-1.2952.99086-1.87985,1.40505a16.13543,16.13543,0,0,1-2.93586,1.667c-.18533.07325-.35014.14413-.49428.1979l-.37186.11439-.30664.09951.31691-.05489.38785-.06864c.15217-.03436.32382-.08352.52061-.135a14.33315,14.33315,0,0,0,3.15444-1.373c.63045-.365,1.31007-.78716,2.01713-1.26657s1.45079-1.00455,2.22992-1.54918,1.5938-1.10637,2.47021-1.61894q1.34562-.77578,2.76428-1.62014l3.72421-2.14639c1.20134-.64533,2.33292-1.26769,3.37525-1.84549,1.06294-.52975,2.03432-1.024,2.89013-1.46454s1.61671-.78486,2.22991-1.08c1.28717-.43248,3.16589-1.04464,5.44847-1.66357a45.20327,45.20327,0,0,1,7.89465-1.45309c.26774-.01718.53318-.04232.80092-.05377l.786-.02745c.5183-.00915,1.024,0,1.52628.03778a26.312,26.312,0,0,1,2.89012.37186c.9153.16593,1.78375.37983,2.59032.59156.40043.11439.79177.21851,1.159.34323l.54463.17277.516.1808c.77116.27116,1.44394.54693,2.01371.80092-.27116-.03206-.54463-.0595-.82376-.0801a20.65331,20.65331,0,0,0-4.64181-1.14415c-.24826-.04232-.49882-.048-.75288-.07095s-.51146-.0412-.77228-.05266c-.52061-.00572-1.0526-.03889-1.59381-.01145a25.85,25.85,0,0,0-3.334.29749,41.49272,41.49272,0,0,0-8.16121,2.25855c-1.15672.43136-2.20135.857-3.12127,1.23339-.45768.19226-.88786.365-1.28032.53891l-1.06978.48394-1.11209.36844-1.29862.50113c-.937.34323-1.96679.81237-3.09836,1.3123-2.246,1.02977-4.8134,2.3707-7.51588,3.84775-1.98739,1.09268-3.87526,2.127-5.60636,2.98509a39.83571,39.83571,0,0,1-4.79971,1.87754c-.706.20824-1.3341.43709-1.905.5572a6.97277,6.97277,0,0,0-1.46106.45769,2.19521,2.19521,0,0,0-.33177.19567l-.48053.0412-1.10064.07095-.54693.03317-.54575.01949c-.36383.01145-.72655.03317-1.087.03317a31.94091,31.94091,0,0,1-4.24593-.19679l-.516-.06753c-.17165-.024-.34323-.04-.51257-.07549l-1.01028-.18653-.98968-.24029a5.0286,5.0286,0,0,1-.48625-.13729l-.48171-.14875c-.1602-.05147-.32151-.09267-.47829-.15217l-.46907-.17619c-.31117-.11438-.62354-.22884-.92333-.36725s-.60644-.25971-.90162-.40391l-.87529-.44393c-.14644-.071-.28834-.15329-.42906-.23457l-.42333-.24254-.4199-.24029c-.1396-.0801-.27347-.17165-.41076-.25629l-.81119-.51488c-.13045-.08694-.25286-.17619-.37759-.26313s-.25056-.17389-.36844-.26886l-.357-.27919c-.11439-.09379-.22885-.1968-.34323-.29289-.22885-.19106-.44051-.40391-.6579-.60643a13.78954,13.78954,0,0,1-1.16364-1.31007,14.14524,14.14524,0,0,1-.968-1.40044,13.44932,13.44932,0,0,1-.74945-1.46454,12.86075,12.86075,0,0,1-.54344-1.48738c-.0618-.25056-.13617-.49659-.18652-.74373s-.10643-.49085-.13387-.73569a10.28244,10.28244,0,0,1-.04-2.80087,9.23,9.23,0,0,1,.643-2.41987,9.98431,9.98431,0,0,1,1.08-1.92677,10.831,10.831,0,0,1,1.35239-1.5526l.37982-.34323a2.15441,2.15441,0,0,1,.19225-.1625l.19226-.15447a4.79569,4.79569,0,0,1,.39818-.29177l.20252-.14071.21167-.12815a9.91007,9.91007,0,0,1,1.78144-.86272,12.77252,12.77252,0,0,1,1.90156-.54574,15.6464,15.6464,0,0,1,5.75964-.06634c.309.048.611.12011.91531.18533.151.03317.29861.0778.44623.11439s.29631.07668.44051.12584a11.05855,11.05855,0,0,1,5.63262,3.6682l.22884.32263.11439.1602.09951.167.20021.33066.17165.34323.08583.16935c.02632.05719.04692.11439.07206.17388l.14191.34323c.03889.11439.07437.23681.11438.35357l.0572.17619c.016.0595.02744.11439.0412.17849l.08352.35469c.01829.11438.03547.23911.05377.357l.02744.17738.01257.17738.02514.35356v.524l-.01375.17277-.02975.34323c-.01718.11439-.03548.22884-.05377.33639-.00915.05489-.016.11438-.02633.16592l-.0389.1625c-.02514.11439-.05035.21628-.07549.32494s-.06634.20936-.09951.31348l-.048.15677c-.01948.05035-.04.09952-.05949.14987l-.11439.2986c-.04232.09728-.09155.19107-.13617.28492a5.99867,5.99867,0,0,1-.29749.54345,6.35407,6.35407,0,0,1-1.51832,1.71622,5.96209,5.96209,0,0,1-1.74828.95078,5.7528,5.7528,0,0,1-1.66245.31579c-.06522,0-.12814.01026-.19106.01257h-.18534l-.357-.00685-.1979-.01948a2.746,2.746,0,0,0,1.48737-2.746,2.68644,2.68644,0,0,0-2.914-2.43774l-.01962.00182a2.746,2.746,0,0,0,.10412,5.4507l.18422.08694.57207.20594c.21055.06411.44393.11439.69219.17619l.39128.05719.20712.02863c.06977.00685.1419.00915.214.01257a6.13122,6.13122,0,0,0,1.937-.17046,6.66921,6.66921,0,0,0,2.143-.95539,7.32268,7.32268,0,0,0,1.94507-1.92558,7.22359,7.22359,0,0,0,.3947-.63388c.06061-.11439.12584-.22081.183-.33527l.1625-.35357c.02633-.05949.05489-.11438.0801-.17849l.06976-.18534.13841-.37528.11439-.39016.05608-.19679c.016-.06634.02863-.13387.04232-.2014l.08352-.40845c.0206-.13841.03659-.2792.05489-.41879l.02632-.21279c.00573-.07095.008-.1419.01257-.214q.01038-.215.0206-.43366c0-.14532-.008-.29065-.01257-.4382l-.00684-.22082-.02291-.22081c-.01717-.14763-.03317-.2963-.05035-.445s-.05607-.2963-.08463-.445c-.01488-.07438-.02745-.14987-.04463-.22885l-.06061-.22081c-.0412-.14763-.0801-.29749-.12472-.44393l-.159-.43709c-.02744-.07207-.05265-.14644-.0824-.21851l-.09728-.21278c-.06522-.1419-.13156-.28492-.19909-.42794l-.22884-.41418-.11439-.20824-.12926-.19791-.26544-.39931a10.77972,10.77972,0,0,0-1.27-1.46335c-.22884-.23681-.48513-.43821-.73457-.6556-.12815-.10412-.262-.20021-.39358-.302s-.26432-.20021-.40392-.29064l-.4153-.27689-.43248-.25629-.21627-.12814-.22884-.11439-.44966-.22884-.45769-.21055-.22884-.10412-.238-.09379c-.1579-.0618-.31691-.127-.47829-.18652l-.48744-.16593c-.1625-.05838-.32835-.10412-.49428-.15216s-.33178-.09952-.50112-.1396c-.34323-.08122-.6762-.16816-1.02173-.22884a16.57726,16.57726,0,0,0-2.1075-.27459,16.90935,16.90935,0,0,0-4.37869.26313,14.63971,14.63971,0,0,0-2.20366.61328,11.79776,11.79776,0,0,0-2.135,1.01942l-.25859.15559-.25057.17277c-.16815.11439-.3375.22884-.49658.36041l-.24141.19225a2.63727,2.63727,0,0,0-.22885.19679l-.44623.40615a12.78392,12.78392,0,0,0-1.61322,1.84667,11.93389,11.93389,0,0,0-1.33249,2.35248,11.24372,11.24372,0,0,0-.7769,2.97476,12.99058,12.99058,0,0,0,1.1144,6.87173,15.3165,15.3165,0,0,0,.88556,1.68759,16.10632,16.10632,0,0,0,2.47252,3.07888c.24825.22885.49086.468.75629.68647.13157.11438.25971.22311.3947.32835l.41076.31348c.13617.10755.27919.20482.42221.30091s.28716.1991.43136.29289l.86384.53429c.14644.08813.28834.18192.4382.26655l.452.25057.45769.25286c.151.08464.30322.17046.45769.24484l.94736.46565c.31921.14986.65217.28142.98053.42333s.667.26313,1.00685.38554l.51146.18192c.17047.06292.34323.10643.52061.159l.52515.15447c.17619.05147.35126.10412.53087.14072l1.07662.24483,1.09268.18534c.18192.03547.36725.05147.55147.07325l.55259.06411a33.3112,33.3112,0,0,0,4.47248.14072c.37528-.00685.74826-.03548,1.12355-.05147l.56292-.02863.56181-.04351,1.12585-.09036,1.12467-.11439q.56292-.05488,1.12585-.12584l1.127-.135,1.14415-.16934.57207-.08583c.19-.02863.37759-.07095.57208-.10524l1.13388-.21969c.37759-.0778.75057-.17277,1.127-.2586.75287-.16362,1.48738-.381,2.23795-.58122.37186-.09839.73681-.22193,1.10637-.33066s.73911-.21851,1.10183-.34323c.72885-.24714,1.45993-.48625,2.17391-.75629,1.44506-.51831,2.86037-1.09722,4.26653-1.67845s2.7837-1.199,4.14524-1.81922,2.71051-1.23794,4.04341-1.8501,2.64641-1.20476,3.95417-1.79632c2.60751-1.18647,5.11431-2.36951,7.56051-3.37525,1.22194-.50685,2.43019-.95763,3.61778-1.36385s2.36267-.73227,3.50912-1.01139A24.78516,24.78516,0,0,1,281.9182,21.56876Zm2.5492.29518c.159.08813.29288.167.397.22885l.05147.02974-.45769-.18191-.37186-.14986C284.21684,21.81129,284.34268,21.83761,284.4674,21.86394Zm-9.05249-.31348c-1.1762.25741-2.38209.56293-3.59837.94624s-2.4508.81461-3.69677,1.29862c-2.49312.96112-5.03428,2.096-7.65666,3.22309-1.30888.5595-2.651,1.13158-3.99425,1.71622s-2.70137,1.17962-4.07087,1.76657-2.75282,1.16364-4.14865,1.72768-2.80772,1.09491-4.23337,1.57663c-.71048.254-1.43018.47479-2.1487.70364-.357.11438-.72082.21278-1.08234.3192s-.72082.214-1.08465.30434c-.72767.1808-1.45191.37982-2.18418.52633-.36614.07668-.72885.16362-1.09492.22884l-1.09959.19442c-.183.03087-.36614.06753-.54917.09267l-.55036.07325-1.09952.14644-1.1144.11439c-.37068.0389-.74023.07668-1.10867.10524l-.25971.02291.02744-.01146a7.16326,7.16326,0,0,1,1.45763-.28143c.59268-.0618,1.24715-.22884,1.97824-.37528a31.32327,31.32327,0,0,0,5.01368-1.56978c1.83061-.79289,3.7608-1.77684,5.74819-2.86952,2.7082-1.48054,5.20244-2.91526,7.36259-4.08693,1.087-.57207,2.072-1.11328,2.9668-1.53772l1.23912-.62012,1.06175-.48171,1.10525-.365c.40391-.13157.849-.26314,1.32264-.41188.94848-.29176,2.01825-.63157,3.191-.98283a59.77269,59.77269,0,0,1,8.07769-1.94507,31.59824,31.59824,0,0,1,3.21736-.33178c.52061-.0412,1.02976-.02633,1.53542-.0412.25057,0,.49882.01376.74485.01948a6.3407,6.3407,0,0,1,.72654.03317,19.30844,19.30844,0,0,1,2.03431.24254,28.3082,28.3082,0,0,0-4.03538.53087Z" style="fill: url(#未命名漸層_73-13)"/>
            <path id="路径_15970" data-name="路径 15970" d="M263.13361,18.90175l-.6945.22312c-.20482.06753-.41418.1213-.62012.183s-.41306.12354-.6213.17389c-.41649.103-.83179.21851-1.25169.302-.20936.0435-.41761.09378-.627.13275l-.63045.11439c-.10524.01718-.20936.0389-.31467.05377l-.31579.0412-.63045.08352-.63842.06523c-.21278.0229-.42445.0435-.635.06061l-.14875.01257.01488-.00572a3.39519,3.39519,0,0,1,.68646-.14072c-.23681.02514-.476.04351-.7197.05377a1.322,1.322,0,0,0-.18765.11439l-.27458.0229-.63046.04121-.31348.01948-.31348.01145c-.20824.00573-.4153.01949-.62242.01949a18.32056,18.32056,0,0,1-2.43244-.11439l-.29518-.0389c-.0984-.01257-.19679-.0229-.29288-.0435l-.58011-.10643-.57207-.13841c-.095-.0206-.18764-.04923-.2792-.07891l-.27577-.08464c-.09155-.02975-.18422-.05377-.27346-.08694l-.26886-.1007c-.1785-.06634-.35811-.12926-.52976-.21055s-.34323-.14874-.516-.22884l-.50231-.25517c-.08352-.0412-.16473-.08813-.246-.135l-.24253-.13841-.2403-.13841c-.0801-.04574-.15677-.0984-.23568-.14763l-.46454-.29518c-.07437-.04924-.14413-.10182-.21739-.151s-.143-.09951-.21054-.15447l-.20482-.1602c-.06753-.05377-.13157-.11439-.19679-.16816-.13276-.11439-.25287-.22884-.37641-.34323a8.0614,8.0614,0,0,1-.667-.75169,8.1565,8.1565,0,0,1-.5549-.80091,7.90031,7.90031,0,0,1-.43017-.83982,7.1191,7.1191,0,0,1-.31118-.85127c-.03547-.143-.07779-.28373-.10643-.42563s-.0618-.28143-.07779-.42221a5.90786,5.90786,0,0,1-.02291-1.60184,5.30958,5.30958,0,0,1,.36845-1.38668,5.70088,5.70088,0,0,1,.62011-1.10413,6.18634,6.18634,0,0,1,.7746-.889l.21739-.1991a1.415,1.415,0,0,1,.11438-.09378l.11439-.08813a2.718,2.718,0,0,1,.22884-.167l.11439-.08122.1213-.07325a5.65707,5.65707,0,0,1,1.02062-.49428,7.4141,7.4141,0,0,1,1.08926-.31349,8.77718,8.77718,0,0,1,2.22195-.16019,8.638,8.638,0,0,1,1.07893.12241c.17737.02745.35014.06977.52284.10643.08582.01948.17046.04462.25629.06634s.16934.04351.25286.07207a6.33077,6.33077,0,0,1,3.231,2.1098l.13156.18422.06523.09156.05719.09609.11439.18994.09839.19568.04924.09727c.01487.03317.02744.06753.0412.1007l.08121.1991c.02291.06753.04351.13617.06523.20251l.032.1007c.00915.03317.016.06753.024.10182l.04693.20363.03087.20483.016.10181.00684.10182.01376.20252v.30091l-.008.09951c-.00573.06522-.01026.13157-.016.19679l-.03087.19225a.5575.5575,0,0,1-.01487.09609l-.02291.09267-.0435.18653-.05608.17961-.02863.08924c-.01027.02864-.02291.0572-.03317.08583l-.06753.17165c-.024.05608-.05265.11439-.07779.16362q-.07741.15974-.17047.31118a3.636,3.636,0,0,1-.87068.98052,3.40076,3.40076,0,0,1-1.00225.54463,3.32565,3.32565,0,0,1-.95189.18192l-.11439.00684h-.31125l-.11439-.01145a1.57542,1.57542,0,0,0,.85469-1.57432,1.53888,1.53888,0,0,0-1.66971-1.39583l-.01215.00112a1.57092,1.57092,0,0,0,.0595,3.1235l.10642.05035.32836.11439c.12011.03659.254.06634.39588.10182l.22885.03317.11438.01718a.748.748,0,0,1,.12354.00684,3.53058,3.53058,0,0,0,1.10979-.09728,3.83722,3.83722,0,0,0,1.22767-.54805,4.19558,4.19558,0,0,0,1.111-1.10295,3.97311,3.97311,0,0,0,.22884-.36271c.03436-.06292.07207-.127.10412-.19225l.09379-.20252c.01487-.03436.03087-.06753.04574-.10182l.04-.10642.07892-.214.06522-.22884.032-.11439c.00915-.0389.016-.0778.02514-.11439.016-.07779.03206-.15559.048-.22884s.0206-.159.03087-.2403l.01487-.1213a.7351.7351,0,0,1,.00684-.12242c0-.0824.00685-.16473.01146-.24825l-.00685-.25168V10.895l-.01375-.127-.02864-.25517-.04923-.25517c-.008-.04351-.01487-.08583-.02514-.12815l-.03436-.127c-.024-.08352-.04574-.16935-.07206-.254l-.09037-.25056c-.016-.04232-.02975-.08464-.048-.12584l-.05489-.12241-.11439-.24484-.13157-.238-.06752-.11439-.07438-.11439-.15216-.22884a6.24075,6.24075,0,0,0-.72767-.83863c-.13156-.135-.27919-.25056-.421-.37528-.07326-.0595-.14986-.11439-.22885-.17277s-.15216-.11439-.22884-.16592l-.238-.159-.24714-.14644-.12472-.07326-.12815-.06634-.25859-.13387-.26544-.12011-.13387-.0595-.13617-.05377c-.09155-.03548-.18192-.07326-.27459-.10643l-.27919-.09609c-.09267-.03317-.18764-.0595-.28262-.08694s-.18994-.0572-.28715-.0801c-.19449-.04693-.38785-.09609-.58583-.13045a9.552,9.552,0,0,0-1.20707-.15678,9.65635,9.65635,0,0,0-2.50911.14987,8.41441,8.41441,0,0,0-1.25854.35126,6.76306,6.76306,0,0,0-1.22306.58464l-.14762.08925-.14414.09839c-.09609.06635-.19337.13045-.28492.20594l-.13841.11439a1.6292,1.6292,0,0,0-.13387.11439l-.25517.22884a7.28035,7.28035,0,0,0-.92445,1.05832,6.8371,6.8371,0,0,0-.75057,1.34779,6.4593,6.4593,0,0,0-.44505,1.70477,7.45194,7.45194,0,0,0,.63842,3.93817,8.88108,8.88108,0,0,0,.508.96566,9.19034,9.19034,0,0,0,1.41643,1.76427c.1419.13156.28143.26774.43479.39127.07548.06181.14874.12815.22884.18765l.23569.17961c.07779.0618.16019.11438.24141.17165s.16474.11438.24714.16816l.4954.30552c.08352.05146.16473.10412.25056.15216l.25971.14414.25971.14414c.08813.04923.17388.09839.26544.13959l.54344.26656c.183.08582.373.16131.56062.24253s.38213.151.57207.22081l.29289.10412c.09839.03548.19909.06062.2986.09155l.30091.08813c.1007.03087.20022.0595.30434.08122l.61558.14071.627.10643c.10412.01948.21055.02975.31579.0412l.3169.03659a19.10121,19.10121,0,0,0,2.56288.0801c.21509,0,.42906-.0206.64414-.02975l.32263-.01718.32263-.02514.64533-.05265.64415-.06523q.32262-.0309.64533-.07095l.64533-.07779.65217-.09728.32724-.04923c.11438-.01718.21739-.0412.32493-.06062l.64987-.12584c.21627-.0435.43017-.09839.64533-.14762.43248-.09379.85581-.21851,1.28256-.333.214-.05719.42333-.127.635-.18994s.42333-.12473.63157-.19791c.41761-.1419.8364-.278,1.24827-.43367.28946-.10412.57208-.21627.85923-.32724.01718-.18079.0389-.36152.0595-.5412C264.27775,18.72556,263.70791,18.82284,263.13361,18.90175Z" style="fill: url(#未命名漸層_73-14)"/>
            <path id="路径_15971" data-name="路径 15971" d="M289.91349,29.079c-2.07433-2.98279-6.1498-5.10635-9.961-5.67382-3.89014-.57892-7.83286.74945-11.21265,2.46679-3.97016,2.01714-7.55135,4.5949-11.31907,6.89353-3.57316,2.17391-7.509,4.20243-11.87627,4.36947-.48967.01829-.94393.26655-.95308.60524-.22884.29519-.03317.77571.36383,1.0549,3.00109,2.11442,7.30421,2.10981,10.86138,1.111,3.67386-1.02976,5.69784-4.27,7.50792-7.18871a5.91865,5.91865,0,0,0,2.151,4.48965c.66362.49659,2.80317,1.389,1.31461-.87529-1.55722-2.36951.64072-5.4919,2.49081-7.5216,2.20708-2.42559,5.84658-3.53545,9.15319-3.92561a.97214.97214,0,0,0,.25056-.06522c.32605.01487.65329.03889.98284.07891A12.5741,12.5741,0,0,1,290.7144,35.76761c.63842,4.17729-.07549,10.01361-4.4622,12.533a7.691,7.691,0,0,1-6.44268.28143,5.40527,5.40527,0,0,1-1.30889-1.0526,4.30886,4.30886,0,0,1-.79058-3.93245,8.06517,8.06517,0,0,0,5.77563-.45769c2.2883-.99428,3.897-3.55947,2.78146-5.37751a1.23984,1.23984,0,0,0-.18191-.36956.84669.84669,0,0,0-.4748-.55831c-4.87409-2.39242-9.73783.58464-10.9838,5.18526-1.39471,5.1361,3.21736,8.57539,8.53076,8.57539,5.02283,0,7.90723-4.21507,8.92435-8.16233A16.66221,16.66221,0,0,0,289.91349,29.079Zm-5.98507,11.128a.34035.34035,0,0,0,.0572-.01257l-.08122.0778Z" style="fill: url(#未命名漸層_73-15)"/>
            <g id="组_175" data-name="组 175">
              <path id="路径_15972" data-name="路径 15972" d="M309.64093,22.23811c1.14415.27919,2.32035.60755,3.50912,1.01139s2.39584.857,3.61779,1.36385c2.44619,1.00573,4.953,2.18878,7.5605,3.37525,1.30777.59156,2.62126,1.183,3.95417,1.79632s2.67845,1.23451,4.04342,1.85009,2.746,1.22425,4.14523,1.81923,2.82147,1.16014,4.26653,1.67844c.7174.27117,1.44967.51028,2.17391.7563.36272.12814.73458.22884,1.10065.34323s.73457.22884,1.10755.33066c.74485.20021,1.48738.41649,2.238.58122.37528.08583.74945.1808,1.127.25859l1.13388.2197c.18876.03548.37759.07668.57208.10524l.57207.08582,1.14415.16935,1.127.135q.56292.07039,1.12585.12584l1.12467.11438,1.12578.09037.56062.0435.56286.02864c.37528.01717.74833.04462,1.12362.05146a33.31043,33.31043,0,0,0,4.47254-.14071l.55266-.06411c.18422-.02172.36844-.03778.55154-.07325l1.09262-.18534,1.07543-.24484c.18073-.03659.35587-.08924.53087-.14071l.52515-.15447c.17388-.05377.35126-.09609.52179-.159l.51146-.18192c.3433-.12242.68074-.238,1.00686-.38555s.65908-.27346.97934-.42333l.94736-.46565c.15908-.07437.31006-.16019.45768-.24483l.45769-.25287.452-.25056c.14987-.08352.29288-.17849.43828-.26655l.865-.5343c.14414-.09378.28827-.19567.43129-.29288s.286-.19448.42221-.30091l.41076-.31348c.13506-.10524.26314-.2197.3947-.32836.26551-.214.508-.45768.7563-.68646a16.11652,16.11652,0,0,0,2.47251-3.07888,15.46216,15.46216,0,0,0,.88563-1.68759,13.00385,13.00385,0,0,0,1.1144-6.87174,11.26371,11.26371,0,0,0-.77683-2.97475,11.9541,11.9541,0,0,0-1.31119-2.35241,12.78548,12.78548,0,0,0-1.61328-1.84667l-.44624-.40615c-.07207-.06753-.151-.13275-.22877-.19679l-.24149-.19225c-.15908-.13157-.32835-.24484-.49539-.36041l-.25057-.17277-.25852-.15559a11.78239,11.78239,0,0,0-2.13383-1.01942,14.63925,14.63925,0,0,0-2.20365-.61328,16.90891,16.90891,0,0,0-4.37869-.26313,16.59415,16.59415,0,0,0-2.10869.27458c-.3433.0595-.68646.14644-1.02166.22885-.16816.04-.33408.09378-.5.13959s-.33184.09379-.49428.15217l-.48743.16592c-.16132.0595-.31928.12473-.47822.18653l-.238.09378-.22878.10413-.45768.21054-.45085.22885-.22877.11438-.21732.12815-.43129.25629-.41649.27689c-.13952.08924-.27235.18994-.40391.29064s-.26425.19791-.39358.302c-.24945.21739-.50574.41991-.73451.6556a10.899,10.899,0,0,0-1.27,1.46335l-.26425.39931-.13045.19791-.11438.20824-.22885.41418-.19791.42794-.09727.21278c-.02975.07207-.05489.14644-.08241.21851l-.159.43709c-.04462.14762-.08352.29749-.12472.44393l-.06061.22081c-.0183.07437-.02975.14986-.04463.22884q-.04231.22888-.08464.44505c-.01717.14875-.03317.29749-.05035.445l-.024.22081-.00684.22081-.01145.43821c.00684.14532.01375.28946.0206.43366,0,.07207.00684.143.01257.214l.02632.21278c.0183.1396.03436.28031.05489.41879s.05608.27347.08352.40846c.01488.06753.02745.135.04351.2014l.05608.19679.11438.39016.13841.37528.06977.18534c.02514.06061.05377.11439.08009.17849l.16251.35357c.05719.11439.1213.22884.18191.33527a7.05832,7.05832,0,0,0,.39365.63387,7.33594,7.33594,0,0,0,1.945,1.92559,6.66587,6.66587,0,0,0,2.143.95539,6.13158,6.13158,0,0,0,1.937.17046c.07207,0,.14414-.00573.21509-.01257l.206-.02863.39247-.05719c.24944-.06062.48171-.11439.68646-.17619l.57207-.20594.18422-.08694a2.68974,2.68974,0,1,0-1.342-.26886l-.19791.01948-.357.00684h-.18645c-.063,0-.12584-.008-.19107-.01257a5.76231,5.76231,0,0,1-1.66357-.31578,5.96737,5.96737,0,0,1-1.74709-.95078,6.3551,6.3551,0,0,1-1.51831-1.71623,5.94564,5.94564,0,0,1-.29749-.54344c-.04455-.095-.09386-.18876-.13618-.28492l-.11438-.29861c-.01942-.05034-.0412-.09951-.0595-.14986l-.04805-.15677c-.03324-.10412-.06634-.20825-.09958-.31348s-.05154-.21509-.07556-.32494l-.039-.1625c-.01034-.05489-.01718-.11439-.02626-.16592l-.05377-.33639c-.00922-.11439-.0183-.22885-.02864-.34323l-.0148-.17277v-.524c0-.1213.01718-.23457.02514-.35357l.01257-.17737.02751-.17738c.0183-.11439.03548-.2368.05378-.357l.0824-.35468c.0148-.0595.02626-.11439.04232-.17849l.056-.17619c.03771-.11439.07319-.23569.11439-.35357s.09386-.22884.1419-.34323c.02291-.05719.04456-.11439.07095-.17388l.08576-.16935.17277-.34323.20028-.33066.1007-.167.11438-.1602.22878-.32263a11.0572,11.0572,0,0,1,5.63834-3.683c.14413-.04923.29176-.08582.44051-.12584s.29525-.0824.44623-.11438c.3021-.06523.60406-.13841.91538-.18534a15.647,15.647,0,0,1,5.75971.06634,12.78575,12.78575,0,0,1,1.90156.54575,9.86223,9.86223,0,0,1,1.78144.86272l.21286.12814.20251.14072c.13506.095.27347.18422.39819.29176l.19218.15447a2.07821,2.07821,0,0,1,.19107.1625l.37989.34323a10.78192,10.78192,0,0,1,1.35239,1.55261,9.959,9.959,0,0,1,1.08,1.92677,9.21326,9.21326,0,0,1,.64415,2.41986,10.27483,10.27483,0,0,1-.04009,2.80087c-.02751.24484-.087.48856-.1338.7357s-.1236.49316-.18534.74372a12.84526,12.84526,0,0,1-.54344,1.48738,13.4257,13.4257,0,0,1-.75057,1.46455,14.05843,14.05843,0,0,1-.96677,1.40043,13.78192,13.78192,0,0,1-1.16468,1.31008c-.2162.20251-.42556.41648-.65671.60643-.11439.09728-.22878.19909-.3433.29288l-.35811.27919c-.11438.09609-.2426.18192-.36732.26886s-.24707.17619-.37752.26313l-.81118.51488c-.13618.08583-.27123.17619-.40964.25629l-.4211.2403-.42333.24253c-.1419.08121-.28254.16473-.42905.23457l-.87529.44393c-.29526.14413-.60071.26774-.90155.40391s-.61216.25168-.92446.36726l-.468.17619c-.15559.05949-.318.1007-.47822.15216l-.48171.14875c-.16019.05147-.32151.10182-.48632.13729l-.98967.2403-1.01035.18652c-.16816.03548-.3433.05266-.51258.07549l-.51607.06753a31.94134,31.94134,0,0,1-4.246.19679c-.36034,0-.72305-.0229-1.08689-.03317l-.54581-.01948-.548-.03317-1.09953-.071-.48052-.0412a2.20891,2.20891,0,0,0-.33066-.19567,6.98263,6.98263,0,0,0-1.46105-.45769c-.57208-.12011-1.20023-.34323-1.905-.5572a39.78523,39.78523,0,0,1-4.79971-1.87753c-1.73452-.85812-3.62351-1.89242-5.60636-2.9851-2.70247-1.47711-5.27-2.81344-7.51587-3.84774-1.13158-.5-2.16016-.96678-3.09718-1.31231l-1.29862-.50112-1.11209-.36844-1.06978-.484c-.39246-.17388-.82264-.34323-1.28032-.5389-.91531-.37759-1.96448-.80092-3.12127-1.2334a41.49272,41.49272,0,0,0-8.16121-2.25855,25.85,25.85,0,0,0-3.334-.29749c-.54121-.02744-1.0732,0-1.59381.01146-.26089.01145-.5183.03547-.77228.05265a7.46314,7.46314,0,0,0-.75288.07207,20.646,20.646,0,0,0-4.64182,1.14415c-.27919.0206-.55259.048-.82375.0801.57208-.25629,1.24255-.53088,2.01371-.80092l.516-.1808.54463-.17277c.36726-.12353.7586-.22884,1.159-.34323.80776-.21166,1.67159-.42563,2.59151-.59156a26.27783,26.27783,0,0,1,2.89012-.37186c.50231-.03317,1.008-.04693,1.52628-.03778l.78716.02745c.26432.01145.52975.03778.80091.05377a45.18917,45.18917,0,0,1,7.89466,1.45309c2.2883.62012,4.16241,1.23228,5.44846,1.66357.61328.29518,1.373.6373,2.23111,1.08s1.83061.93479,2.89012,1.46454c1.04233.57208,2.17391,1.20023,3.37637,1.84549l3.72421,2.14639c.94275.56181,1.86727,1.10295,2.76428,1.62014.87529.51257,1.68989,1.07438,2.46909,1.61894s1.52286,1.07208,2.23111,1.54918,1.38668.90162,2.01825,1.26657a14.32964,14.32964,0,0,0,3.15444,1.373c.19679.05147.36844.1007.52061.135l.38785.06865.3169.05488-.30775-.09951-.37186-.11439c-.14414-.05377-.309-.12353-.49428-.1979a16.12725,16.12725,0,0,1-2.93587-1.667c-.58464-.41418-1.2151-.88214-1.87984-1.40505l-2.1304-1.68417a29.28069,29.28069,0,0,0-2.47482-1.76545c-.88675-.54463-1.8089-1.10295-2.75737-1.66818-1.29632-.7563-2.58118-1.43591-3.79174-2.09263-1.23794-.60643-2.4096-1.17159-3.49537-1.68074-1.10755-.45769-2.12237-.8776-3.01938-1.23794s-1.69108-.62242-2.334-.84554a54.004,54.004,0,0,0-5.32486-2.16818,33.58507,33.58507,0,0,0-8.03075-1.76427c-.278-.0183-.55378-.04351-.82948-.05377l-.82152-.01949c-.54694,0-1.09038.024-1.61553.07437a22.37941,22.37941,0,0,0-2.98963.508,27.18411,27.18411,0,0,0-2.62007.77459c-.40162.14987-.79059.28492-1.15672.44163l-.53891.22193-.50915.22884a20.83285,20.83285,0,0,0-2.58691,1.405,12.2034,12.2034,0,0,0-1.32264.29749,7.39871,7.39871,0,0,0-2.048.92222,1.6133,1.6133,0,0,1,.14414.30433c.00684.0183.01487.03436.02171.05265a6.98086,6.98086,0,0,1,1.99766-.83751c.06752-.01718.13959-.02975.20824-.04692l-.17277.135-.14986.11439-.82606.33066-1.02285.38786.01027.0229,1.06174-.254,1.45763-.40161,1.91986-.54806.51942-.13959A24.78142,24.78142,0,0,1,309.64093,22.23811Zm-8.52846-.45769-.37186.14986-.45769.18192.05147-.02975c.10412-.06062.238-.1396.397-.22885.1236-.016.24944-.04232.37647-.064Zm4.6407-.76887a19.29259,19.29259,0,0,1,2.03431-.24253c.23681-.02863.48171-.0229.72655-.03317s.49428-.01948.74484-.01948c.50231.01487,1.01489,0,1.53661.0412a31.59824,31.59824,0,0,1,3.21736.33178,59.79776,59.79776,0,0,1,8.07769,1.94506c1.17159.35127,2.24256.68647,3.191.98284.47256.14874.91531.28031,1.32264.41188l1.10526.36494,1.06174.48171,1.24024.62012c.89359.42445,1.87873.97027,2.9668,1.53773,2.159,1.1716,4.65327,2.60639,7.36259,4.08693,1.9885,1.09268,3.921,2.07775,5.74819,2.86952a31.30082,31.30082,0,0,0,5.01368,1.56978c.73.14644,1.38556.31348,1.97712.37528a7.173,7.173,0,0,1,1.45763.28143l.02745.01145-.25971-.0229c-.36844-.02863-.738-.06523-1.10979-.10524l-1.11329-.11439-1.09952-.14644-.55148-.07325c-.183-.02514-.36613-.06181-.54916-.09267l-1.09953-.19337c-.36614-.06865-.73-.15559-1.09492-.22884-.73339-.14644-1.45651-.34323-2.18417-.52634-.365-.09036-.72424-.20363-1.08577-.30433s-.72424-.20021-1.08235-.31921c-.71739-.22884-1.437-.44966-2.14758-.70364-1.42788-.48283-2.83635-1.02976-4.23336-1.57663s-2.78028-1.13611-4.14866-1.72767-2.72762-1.18193-4.07086-1.76657-2.68418-1.15791-3.99307-1.71623c-2.62008-1.127-5.16354-2.262-7.65666-3.22308-1.246-.484-2.48167-.91531-3.69677-1.29862s-2.42216-.68646-3.59837-.94624a28.31047,28.31047,0,0,0-4.03908-.52166Z" style="fill: url(#未命名漸層_73-16)"/>
              <path id="路径_15973" data-name="路径 15973" d="M322.06518,18.90175l.69449.22312c.20364.06753.41307.1213.62012.183s.41307.12354.62131.17389c.41648.103.83178.2185,1.25169.302.20936.04351.4176.09379.62815.13276l.62927.11438c.10524.01718.20936.0389.31578.05378l.31579.0412.63046.08352.63729.06522c.21279.02291.42445.04351.63619.06062l.14874.01257-.016-.00573a3.38016,3.38016,0,0,0-.68646-.14071c.2368.02514.4771.0435.71851.05377a1.23879,1.23879,0,0,1,.18764.11439l.27578.0229.63045.0412.31348.01949.31348.01145c.20825.00573.41649.01948.62243.01948a18.32033,18.32033,0,0,0,2.43243-.11438l.29519-.0389c.09839-.01257.19679-.02291.29288-.04351l.57892-.10642.57207-.13841c.095-.0206.18764-.04924.27919-.07891l.27578-.08464c.09155-.02975.18422-.05377.27346-.08694l.26886-.1007c.17849-.06635.35811-.12927.52976-.21055s.34323-.14875.516-.22885l.50232-.25517c.08352-.0412.16473-.08813.246-.135l.24253-.13841.2403-.13841c.08009-.04574.15677-.0984.23568-.14763l.46453-.29519c.07438-.04923.14414-.10181.21628-.151s.143-.09951.21054-.15447l.20483-.16019c.06752-.05378.13156-.11439.19679-.16816.13156-.11439.25286-.22885.3764-.34323a7.99593,7.99593,0,0,0,.667-.75169,8.12968,8.12968,0,0,0,.5549-.80092,7.87131,7.87131,0,0,0,.43017-.83981,7.45958,7.45958,0,0,0,.31118-.85127c.03548-.143.07779-.28373.10643-.42563s.06173-.28143.07779-.42222a5.9332,5.9332,0,0,0,.02291-1.60183,5.287,5.287,0,0,0-.36956-1.38668,5.70442,5.70442,0,0,0-.619-1.10414,6.21994,6.21994,0,0,0-.77459-.889l-.2174-.1991A1.28955,1.28955,0,0,0,341.08,7.799l-.11439-.08813a2.79,2.79,0,0,0-.22884-.167l-.11439-.08121-.1213-.07326a5.658,5.658,0,0,0-1.02061-.49428,7.44984,7.44984,0,0,0-1.09038-.31348,8.77015,8.77015,0,0,0-2.222-.1602,8.625,8.625,0,0,0-1.07892.12242c-.17738.02745-.35015.06976-.52284.10643-.087.01948-.17047.04462-.25629.06634s-.17046.04351-.25287.07207a6.32947,6.32947,0,0,0-3.231,2.1098l-.13157.18422-.06522.09155-.05839.09609-.11438.18995-.0984.19567-.05035.09728c-.01487.03317-.02744.06753-.0412.1007l-.08122.19909c-.024.06753-.0435.13618-.06522.20252l-.03205.1007c-.00915.03317-.016.06753-.024.10182l-.048.20363-.03087.20482-.016.10182-.00684.10182c0,.06752-.00915.135-.01488.20251s0,.13387,0,.2014v.09951l.00915.09952c0,.06522.01145.13156.016.19679l.03087.19225a.5575.5575,0,0,0,.01487.09609l.02291.09267.04351.18652.05719.17961.02744.08925c.01146.02863.024.05719.03436.08583l.06753.17165c.024.05607.05265.11438.07779.16362a3.51943,3.51943,0,0,0,.17047.31117,3.636,3.636,0,0,0,.87068.98053,3.40882,3.40882,0,0,0,1.00113.54463,3.33416,3.33416,0,0,0,.95308.18192l.11439.00684h.31125l.11438-.01145a1.57546,1.57546,0,0,1-.85469-1.57432,1.53894,1.53894,0,0,1,1.66979-1.39576l.011.001a1.57092,1.57092,0,0,1-.0595,3.1235l-.10642.05035-.32836.11439c-.1213.03659-.254.06634-.397.10181l-.22884.03317-.11439.01718a.741.741,0,0,0-.12242.00685,3.52884,3.52884,0,0,1-1.10979-.09728,3.827,3.827,0,0,1-1.22767-.54805,4.19573,4.19573,0,0,1-1.111-1.10295,3.92411,3.92411,0,0,1-.22884-.36271c-.03548-.06292-.07207-.127-.10524-.19226l-.09267-.20251c-.01487-.03436-.03086-.06753-.04574-.10182l-.04-.10642-.0801-.214-.06411-.22885-.03205-.11438c-.00915-.0389-.01718-.0778-.02514-.11439-.016-.0778-.03206-.15559-.04693-.22885s-.0206-.159-.032-.24029l-.01488-.1213a.735.735,0,0,0-.00684-.12242c0-.0824-.008-.16474-.01145-.24826l.00684-.25168v-.12584l.01376-.127c.00914-.08464.01829-.17047.02863-.25517l.048-.25517c.00915-.04351.016-.08583.02633-.12815l.03436-.127c.024-.08352.04574-.16934.07207-.254l.09155-.25056c.016-.04232.02975-.08464.04693-.12584l.05607-.12242.11439-.24483.13157-.238.06752-.11438.07438-.11439.15216-.22884a6.22887,6.22887,0,0,1,.72767-.83863c.13156-.135.27919-.25056.421-.37529.07326-.05949.14986-.11438.22884-.17276s.15217-.11439.22885-.16593l.238-.159.24714-.14644.12472-.07325.12815-.06634.25859-.13387.26544-.12012.13387-.0595.13617-.05377c.09155-.03547.18192-.07325.27459-.10642l.27919-.09609c.09267-.03317.18764-.0595.28261-.08695s.19107-.05719.28716-.0801c.19337-.04692.38785-.09609.58583-.13044a9.54455,9.54455,0,0,1,1.20826-.15678,9.659,9.659,0,0,1,2.50911.14986,8.41668,8.41668,0,0,1,1.25853.35126,6.81017,6.81017,0,0,1,1.22306.58465l.14875.08925.14413.09839c.095.06634.19337.13045.28374.20594l.13841.11439a1.72785,1.72785,0,0,1,.13387.11438l.25517.22885a7.32866,7.32866,0,0,1,.92445,1.05832,6.84747,6.84747,0,0,1,.75057,1.34778,6.49463,6.49463,0,0,1,.44512,1.70477,7.45549,7.45549,0,0,1-.63842,3.93818,8.86714,8.86714,0,0,1-.508.96566,9.17223,9.17223,0,0,1-1.41761,1.76426c-.14191.13157-.28143.26775-.43367.39128-.07549.0618-.14874.12814-.22884.18764l-.23569.17961c-.07779.06181-.1602.11439-.24141.17165s-.16474.11439-.24714.16816l-.4954.30552c-.08352.05147-.16474.10412-.25056.15217l-.2586.14414-.26089.14413c-.087.04923-.17389.0984-.26432.1396l-.54344.26655c-.183.08583-.373.16132-.56181.24253s-.381.151-.57208.22082l-.29288.10412c-.09728.03547-.19909.06061-.29861.09155l-.30091.08813c-.1007.03087-.2014.0595-.30433.08121l-.6167.14072-.62584.10642c-.10413.01949-.21055.02975-.31579.04121l-.3169.03659a19.103,19.103,0,0,1-2.56289.0801c-.21508,0-.429-.0206-.643-.02975l-.32382-.01718-.32151-.02514-.64533-.05265-.64414-.06523q-.32264-.0309-.64533-.07095l-.64533-.07779-.65217-.09728-.32724-.04923c-.11439-.01718-.21628-.04121-.32494-.06062l-.64987-.12584c-.21627-.0435-.43017-.09839-.64533-.14763-.43136-.09378-.8558-.2185-1.28255-.333-.21279-.05719-.42222-.127-.63388-.18995s-.42333-.12472-.63157-.19791c-.41761-.1419-.8364-.278-1.24827-.43366-.28946-.10412-.57208-.21627-.85923-.32724-.0183-.1808-.04-.36153-.0595-.54121C320.921,18.72556,321.49311,18.82284,322.06518,18.90175Z" style="fill: url(#未命名漸層_73-17)"/>
              <path id="路径_15974" data-name="路径 15974" d="M293.12745,42.42775c1.0137,3.94614,3.89928,8.16232,8.92435,8.16232,5.3134,0,9.92547-3.43817,8.53076-8.57539-1.24827-4.60061-6.11321-7.57768-10.9838-5.18526a.84766.84766,0,0,0-.47479.55832,1.22807,1.22807,0,0,0-.18192.36956c-1.1167,1.82034.49086,4.38665,2.78146,5.37751a8.06517,8.06517,0,0,0,5.77563.45769,4.24714,4.24714,0,0,1-.82033,3.842,3.94025,3.94025,0,0,1-1.27914,1.14414,7.81784,7.81784,0,0,1-6.44268-.28142c-4.38664-2.51714-5.09943-8.35227-4.4622-12.533a12.57411,12.57411,0,0,1,11.04679-10.86942c.32954-.03889.65671-.0641.98164-.07891a.99061.99061,0,0,0,.25056.06523c3.302.39015,6.94157,1.49995,9.15319,3.9256,1.8501,2.03432,4.048,5.14867,2.49082,7.52161-1.48738,2.26427.651,1.373,1.31461.87529a5.91982,5.91982,0,0,0,2.151-4.48965c1.8089,2.91756,3.83406,6.15664,7.50792,7.18871,3.55717.9977,7.8603,1.00224,10.86138-1.111.397-.27919.59156-.76084.36383-1.0549-.00914-.34323-.45768-.587-.95308-.60525-4.36724-.167-8.30311-2.19332-11.87627-4.36947-3.77568-2.29856-7.34884-4.87639-11.31907-6.89352-3.37979-1.71622-7.32258-3.04459-11.21264-2.46679-3.81227.57207-7.88774,2.691-9.961,5.67381A16.66217,16.66217,0,0,0,293.12745,42.42775Zm8.16463-2.159-.08122-.07779a.34134.34134,0,0,1,.0572.01257.52049.52049,0,0,0,.024.06871Z" style="fill: url(#未命名漸層_73-18)"/>
            </g>
          </g>
          <g id="组_180" data-name="组 180">
            <g id="组_177" data-name="组 177">
              <path id="路径_15975" data-name="路径 15975" d="M170.14058,51.28l.60643.19225c.19909.06411.452.11439.74945.19337.14875.0412.31118.06292.48513.09728s.35811.07326.55609.0984a28.28932,28.28932,0,0,0,6.7505.07325,63.64324,63.64324,0,0,0,9.84656-1.79632c1.82377-.47026,3.72191-1.02173,5.667-1.66357q1.46-.48048,2.953-1.02976c.9977-.36844,1.9908-.77117,2.99312-1.1762,2.00114-.8181,3.921-1.65212,5.78485-2.39584s3.67044-1.40044,5.41872-1.94507a41.059,41.059,0,0,1,9.52616-1.86609c.68647-.03435,1.34667-.04,1.96791-.01829a15.38111,15.38111,0,0,1,1.746.1625,11.30437,11.30437,0,0,1,2.7082.74023,8.64367,8.64367,0,0,1,1.56979.86726c.16815.11439.28946.22082.37528.28492l.12814.0984-.11438-.11439c-.07549-.07549-.18192-.19567-.333-.34323a8.301,8.301,0,0,0-1.47823-1.0938A11.123,11.123,0,0,0,225.32766,39.54a16.82987,16.82987,0,0,0-1.80435-.36614c-.64533-.08924-1.33179-.15328-2.05373-.18533A36.3548,36.3548,0,0,0,211.464,40.18416a56.89749,56.89749,0,0,0-5.67382,1.77572c-1.92788.706-3.87749,1.516-5.86034,2.32831-.9931.40162-1.96909.80092-2.93244,1.17732s-1.92446.73228-2.87063,1.07439c-1.8913.68646-3.73106,1.30546-5.4919,1.86385a84.23827,84.23827,0,0,1-9.49642,2.47133,31.85,31.85,0,0,1-6.57425.65448c-.19679,0-.37982-.0183-.55378-.02514s-.3375-.01257-.48625-.03317c-.29979-.03548-.5572-.05266-.76083-.08813Z" style="fill: url(#未命名漸層_73-19)"/>
            </g>
            <g id="组_178" data-name="组 178">
              <path id="路径_15976" data-name="路径 15976" d="M161.42215,39.22869a.82825.82825,0,0,0-.67962-.37417,2.14094,2.14094,0,0,0-.57207.00915,4.85252,4.85252,0,0,0-.70364.17849,6.00433,6.00433,0,0,0-.80092.38332,5.20148,5.20148,0,0,0-.84093.64072,4.97607,4.97607,0,0,0-1.38668,2.20135,5.20762,5.20762,0,0,0-.19226,1.849,6.04468,6.04468,0,0,0,.651,2.23906A9.22868,9.22868,0,0,0,160.127,49.788a12.07645,12.07645,0,0,0,1.87069.9931,10.89716,10.89716,0,0,0,1.65443.54344c.9748.22884,1.60979.20482,1.635.10754s-.5183-.38673-1.28032-.9153c-.37759-.26886-.81579-.58583-1.25854-.97027a13.50115,13.50115,0,0,1-1.3123-1.30092,9.90726,9.90726,0,0,1-1.10526-1.51713,6.11815,6.11815,0,0,1-.64756-1.51482,3.58767,3.58767,0,0,1-.11439-1.1968,4.16933,4.16933,0,0,1,.16132-.75742,5.59043,5.59043,0,0,1,.51027-1.14987c.095-.19791.22884-.381.34323-.57208.1213-.18533.24141-.36844.34323-.55147a4.41414,4.41414,0,0,0,.29861-.51488,3.42716,3.42716,0,0,0,.21055-.46795A.96558.96558,0,0,0,161.42215,39.22869Z" style="fill: url(#未命名漸層_73-20)"/>
            </g>
            <g id="组_179" data-name="组 179">
              <path id="路径_15977" data-name="路径 15977" d="M151.12025,50.46768a1.57159,1.57159,0,0,0,.37067.59156,3.04481,3.04481,0,0,0,.54917.43478,3.46346,3.46346,0,0,0,1.33982.484c.254.02863.68646.03317,1.22537.09378a9.83932,9.83932,0,0,1,1.786.36614c.14987.05035.30434.09379.45078.14763l.42794.1602c.26774.11438.52975.22193.74253.32723s.40273.18876.54463.24372.24484.07207.28834.04.04121-.12473.01146-.27689a2.69975,2.69975,0,0,0-.20022-.60643,5.84943,5.84943,0,0,0-.44162-.81922q-.1476-.214-.3169-.44281c-.11439-.14986-.24372-.29407-.37417-.44624a7.71261,7.71261,0,0,0-1.89472-1.51943,5.22973,5.22973,0,0,0-1.79171-.66362,2.92421,2.92421,0,0,0-2.20478.52284,1.4872,1.4872,0,0,0-.50231.66935A1.0449,1.0449,0,0,0,151.12025,50.46768Z" style="fill: url(#未命名漸層_73-21)"/>
            </g>
            <path id="路径_15978" data-name="路径 15978" d="M137.75205,44.97238c.008-.27689.05377-.54463.07891-.81579s.05265-.53891.09951-.80092a14.24728,14.24728,0,0,1,2.334-5.8123,14.89806,14.89806,0,0,1,4.254-3.945,18.73845,18.73845,0,0,1,4.83407-2.08117,24.01738,24.01738,0,0,1,4.66011-.80092,27.78522,27.78522,0,0,1,4.18755.0412l.95539.09379.91531.13275c.29979.03778.59156.09609.87641.15217s.56523.10412.83639.16592l.79289.19337.38331.09379.36956.11438.71048.20936c.22885.06753.45078.15448.66586.22885a23.5218,23.5218,0,0,1,3.818,1.70819c.21278.11439.38785.22884.54233.31921l.38673.23911.31348.19448-.32954-.16816-.40392-.20824c-.16131-.08121-.34323-.18191-.56292-.27458a24.22118,24.22118,0,0,0-3.89013-1.41071c-.2174-.05719-.43709-.12583-.66817-.17737l-.71048-.15789-.36844-.08241-.37983-.06753-.786-.13729c-.26886-.04351-.54575-.07095-.82606-.11439s-.57207-.07549-.86153-.09378l-.897-.07326-.93248-.03317a27.86344,27.86344,0,0,0-4.032.19679,23.41007,23.41007,0,0,0-4.37408.99429,17.59129,17.59129,0,0,0-4.36032,2.1281,13.40038,13.40038,0,0,0-3.60179,3.63727,12.47808,12.47808,0,0,0-1.81462,5.08574c-.03317.22885-.0389.47026-.06061.706a7.073,7.073,0,0,0-.04463.71048,11.07651,11.07651,0,0,0,.06062,1.40959,11.37428,11.37428,0,0,0,.22884,1.40155c.0618.22885.13387.45769.1991.68646a5.32975,5.32975,0,0,0,.24141.6785,11.93869,11.93869,0,0,0,.611,1.32153l.38332.63388.09609.15789.11438.15217.21851.30552a14.03326,14.03326,0,0,0,2.05946,2.26427,22.10059,22.10059,0,0,0,5.413,3.50109A32.47557,32.47557,0,0,0,155.921,59.7776a34.86688,34.86688,0,0,0,3.43244.619,31.7674,31.7674,0,0,0,3.50794.24714h.87759l.86957-.03436.85923-.06976.889-.11439c1.18535-.15328,2.36721-.278,3.52973-.4954l1.74024-.29064c.57208-.10755,1.14415-.22885,1.71623-.35015s1.14414-.22884,1.70365-.357l1.68075-.40615c4.4622-1.09149,8.70241-2.4473,12.72292-3.83287s7.82371-2.80548,11.40713-4.09034,6.94269-2.44508,10.03763-3.421c1.55721-.46683,3.03084-.92564,4.44161-1.31461s2.75855-.72654,4.02966-.98283a24.90826,24.90826,0,0,1,6.6292-.57208,12.24248,12.24248,0,0,1,2.40269.397c.262.07325.5.15447.72424.238l.21627.05377c.09609.024.19337.04805.28716.07779l.28373.087c.09379.02975.18534.06522.278.09728.18652.06291.36383.143.54232.21627a9.0467,9.0467,0,0,1,1.016.52633,9.14985,9.14985,0,0,1,.9153.63157,8.68913,8.68913,0,0,1,.80092.72536,7.189,7.189,0,0,1,1.913,3.4416,6.26432,6.26432,0,0,1,.1396,1.7334,6.72083,6.72083,0,0,1-.27,1.508,7.297,7.297,0,0,1-.52975,1.29631l-.16593.30322c-.02632.05035-.05719.09951-.08924.14986l-.095.14987c-.0618.10181-.13275.19448-.20251.28834l-.10412.14071-.11439.13387a7.01373,7.01373,0,0,1-.97138.95763,8.68879,8.68879,0,0,1-1.087.754,10.00556,10.00556,0,0,1-2.34095.992,9.8947,9.8947,0,0,1-1.20253.26432c-.20021.03547-.40161.05489-.60182.07779-.09951.01145-.20021.01488-.2998.02291s-.19909.01487-.2986.01487l-.29749.00684c-.0984,0-.19791,0-.29631-.00684h-.14762l-.14644-.01026-.29288-.02172-.28946-.0366-.14414-.01948-.1419-.02514-.28492-.05265-.27919-.06635c-.09379-.0206-.18534-.048-.27578-.07548s-.18191-.05378-.27116-.08353c-.17849-.06752-.3558-.12584-.52633-.20593a6.14414,6.14414,0,0,1-.97027-.53318l-.22081-.1602-.10866-.0801-.10412-.08813-.20482-.17507-.19-.19-.09378-.095c-.02975-.03205-.0572-.06753-.087-.1007l-.16934-.2014c-.05266-.06976-.10182-.1419-.15217-.21278l-.07437-.10524c-.02291-.03547-.04463-.07325-.06753-.11439l-.13045-.22081c-.03659-.07549-.07549-.15217-.11439-.22884l-.05489-.11439-.04574-.11439-.08924-.22884-.07207-.22884c-.01027-.0389-.02291-.0778-.03317-.11439l-.02633-.11439c-.01718-.07779-.03436-.15559-.04923-.22884l-.03087-.22884c0-.0389-.01145-.0778-.01487-.11439l-.00685-.11439-.01257-.22884v-.34323c0-.03778.00685-.07438.01027-.11439l.02172-.21851c.00915-.07207.024-.143.03547-.21508a4.26034,4.26034,0,0,1,.78947-1.81574,3.89065,3.89065,0,0,1,.98856-.92564,3.62628,3.62628,0,0,1,1.02976-.46684c.04-.01145.0801-.02514.11439-.03547l.11438-.02514.22885-.04574c.14763-.016.28373-.03317.41076-.0412h.35126l.11439.01026a1.54689,1.54689,0,1,1-.67962.40273l-.11439.02863-.19679.06523-.10182.03435-.10181.04351a3.38272,3.38272,0,0,0-.84785.492,3.48187,3.48187,0,0,0-.77459.84665,3.61006,3.61006,0,0,0-.50455,1.206,3.17039,3.17039,0,0,0-.05949.34323c-.00685.05949-.016.11438-.0206.17849s-.00573.12011-.008.18192v.1831l.00573.18652.01948.18765.00915.09378a.52.52,0,0,0,.01718.09379l.03436.18876c.016.06292.03317.12472.04923.18876l.02514.09378c.00915.03087.0206.06181.03206.09379l.06522.18652.08122.183.04.09155.04923.09036.09728.1785.11439.17276c.01948.02864.03778.05838.05719.087l.06411.0824c.0435.05489.08464.11439.12814.16592l.143.1579c.02514.02514.04693.05377.07207.07891l.07891.07325.15789.14875.17165.13729.08583.06976.09267.06292.18652.127a6.41914,6.41914,0,0,0,3.77568.86384c.08813,0,.17619-.01145.26544-.0183s.17737-.01375.26543-.02514c.17738-.024.3558-.0435.53318-.07891a8.88316,8.88316,0,0,0,1.06866-.25287,9.07636,9.07636,0,0,0,2.05945-.90273,7.62706,7.62706,0,0,0,.9336-.6602,5.82574,5.82574,0,0,0,.80888-.80092l.09155-.11439.08352-.11439c.05608-.07667.11439-.15105.16251-.22884l.07549-.11439a1.22849,1.22849,0,0,0,.07325-.12353l.1419-.25971a6.18917,6.18917,0,0,0,.44393-1.08807,5.58657,5.58657,0,0,0,.22885-1.2357,5.12527,5.12527,0,0,0-.10755-1.413,5.71132,5.71132,0,0,0-.55259-1.48738c-.0618-.12584-.14071-.24372-.21278-.36614s-.16132-.238-.24253-.35929a7.20989,7.20989,0,0,0-.57892-.68646,7.46222,7.46222,0,0,0-.68646-.63388,8.07182,8.07182,0,0,0-1.67844-1.02857c-.15678-.06523-.31118-.13841-.47368-.19449-.08122-.02975-.16132-.0618-.24253-.08924l-.24826-.07892c-.0824-.02863-.16816-.04923-.25287-.07095s-.16816-.04574-.25629-.06753l-.5412-.11438c-.09037-.0183-.18192-.0412-.27228-.05608l-.27578-.04693-.27688-.04692c-.09156-.016-.18534-.03206-.2792-.04121l-.56292-.06634c-.18876-.01948-.37759-.02514-.57208-.0389s-.38213-.01487-.57207-.01717h-.28946c-.09728,0-.19337.008-.29065.01145l-.29064.01487a2.2464,2.2464,0,0,0-.29065.02172l-.58583.06292c-.46684.05147-.93821.06634-1.40386.13045-.4153.05719-.82725.12584-1.246.15447q-1.0984.07437-2.1899.2197l-1.66475.21969.01487-.00684c-.50915.16131-1.02976.32954-1.55372.50915-1.373.45769-2.81463,1-4.32834,1.54-3.01826,1.127-6.29854,2.4302-9.81563,3.86262s-7.27565,2.9839-11.29274,4.50452a127.37128,127.37128,0,0,1-12.86252,4.19216l-1.71623.44282c-.57207.1419-1.16363.25971-1.74939.39127s-1.1739.26314-1.76888.37983l-1.79744.31809c-1.199.22884-2.42447.37186-3.65437.53548l-.92564.11439-.97138.08121-.97027.04c-.32381.00914-.64533,0-.97026,0a34.98345,34.98345,0,0,1-14.46087-3.43245,24.02614,24.02614,0,0,1-5.95531-4.02743,16.25825,16.25825,0,0,1-2.32489-2.69675l-.24826-.36725-.12353-.18422-.11439-.19225-.4359-.77117a13.93931,13.93931,0,0,1-.69449-1.61671,7.18926,7.18926,0,0,1-.26774-.83179c-.07207-.28142-.14987-.56062-.214-.84093a13.46576,13.46576,0,0,1-.22885-1.70023A13.25054,13.25054,0,0,1,137.75205,44.97238Z" style="fill: url(#未命名漸層_73-22)"/>
          </g>
        </g>
      </g>
    </g>
  </g>
</svg>
