<svg xmlns="http://www.w3.org/2000/svg" xmlns:xlink="http://www.w3.org/1999/xlink" width="117.9229" height="277.97243" viewBox="0 0 117.9229 277.97243">
  <defs>
    <linearGradient id="未命名漸層_63" data-name="未命名漸層 63" x1="-1072.15166" y1="278.53576" x2="-1072.15166" y2="279.60795" gradientTransform="translate(33283.05508 -9258.09376) scale(30.9628 34.06754)" gradientUnits="userSpaceOnUse">
      <stop offset="0" stop-color="#ab7927"/>
      <stop offset="0.185" stop-color="#c68f46"/>
      <stop offset="0.338" stop-color="#fedb6b"/>
      <stop offset="0.363" stop-color="#f5d065"/>
      <stop offset="0.499" stop-color="#cba04a"/>
      <stop offset="0.602" stop-color="#b1823a"/>
      <stop offset="0.66" stop-color="#a87734"/>
      <stop offset="0.748" stop-color="#a2722f"/>
      <stop offset="0.86" stop-color="#926321"/>
      <stop offset="0.896" stop-color="#8c5e1c"/>
      <stop offset="1" stop-color="#d69c47"/>
    </linearGradient>
    <linearGradient id="未命名漸層_63-2" x1="-1071.38175" y1="278.6262" x2="-1071.38175" y2="279.69839" gradientTransform="translate(35134.12324 -8812.95064) scale(32.73542 32.39963)" xlink:href="#未命名漸層_63"/>
    <linearGradient id="未命名漸層_63-3" x1="-1070.81348" y1="278.75644" x2="-1070.81348" y2="279.82862" gradientTransform="translate(36641.15452 -8249.97017) scale(34.17832 30.29318)" xlink:href="#未命名漸層_63"/>
    <linearGradient id="未命名漸層_63-4" x1="-1070.14897" y1="278.94828" x2="-1070.14897" y2="280.02047" gradientTransform="translate(38529.24096 -7556.54726) scale(35.97649 27.70529)" xlink:href="#未命名漸層_63"/>
    <linearGradient id="未命名漸層_63-5" x1="-1069.51496" y1="279.27577" x2="-1069.51496" y2="280.34796" gradientTransform="translate(40492.27805 -6643.79628) scale(37.84 24.31729)" xlink:href="#未命名漸層_63"/>
    <linearGradient id="未命名漸層_63-6" x1="-1069.4008" y1="279.47433" x2="-1069.4008" y2="280.54652" gradientTransform="translate(40867.30855 -6121.43281) scale(38.196 22.33304)" xlink:href="#未命名漸層_63"/>
    <linearGradient id="未命名漸層_63-7" x1="-1069.79756" y1="278.93208" x2="-1069.79756" y2="280.00427" gradientTransform="translate(39593.27888 -7120.86894) scale(36.98665 25.84119)" xlink:href="#未命名漸層_63"/>
    <linearGradient id="未命名漸層_63-8" x1="-1070.37398" y1="278.55116" x2="-1070.37398" y2="279.62335" gradientTransform="translate(37863.57475 -8026.60672) scale(35.3416 29.01611)" xlink:href="#未命名漸層_63"/>
    <linearGradient id="未命名漸層_63-9" x1="-1070.96423" y1="278.30524" x2="-1070.96423" y2="279.37743" gradientTransform="translate(36223.62349 -8712.27509) scale(33.7776 31.40387)" xlink:href="#未命名漸層_63"/>
    <linearGradient id="未命名漸層_63-10" x1="-1071.71024" y1="278.14579" x2="-1071.71024" y2="279.21798" gradientTransform="translate(34339.81538 -9194.06503) scale(31.97926 33.06717)" xlink:href="#未命名漸層_63"/>
    <linearGradient id="未命名漸層_63-11" x1="-1078.00065" y1="280.0419" x2="-1078.00065" y2="281.11409" gradientTransform="translate(24168.39022 -4774.37016) scale(22.34206 17.04877)" xlink:href="#未命名漸層_63"/>
  </defs>
  <g id="圖層_2" data-name="圖層 2">
    <g id="圖層_1-2" data-name="圖層 1">
      <g id="award_leaf">
        <g id="组_125" data-name="组 125">
          <path id="路径_15856" data-name="路径 15856" d="M84.4713,258.19474a23.87571,23.87571,0,0,1,11.72223-.88242,13.03871,13.03871,0,0,1,2.38775.73017,13.05771,13.05771,0,0,1-1.92994-1.574c-1.9235-1.80127-3.98-5.15939-4.634-10.33267a41.55407,41.55407,0,0,1,.34846-9.97134c.4203-3.01929.94353-5.23014.94353-5.23014s.52751.63257,1.31234,1.76484c.79986,1.11184,1.80558,2.81021,2.93351,4.73263a45.804,45.804,0,0,1,3.24231,6.71082,26.7583,26.7583,0,0,1,1.96531,7.93417,8.21834,8.21834,0,0,1-1.09792,5.33737,4.61562,4.61562,0,0,1-1.48713,1.47745A4.53536,4.53536,0,0,1,99.914,260.947a7.41416,7.41416,0,0,1-3.70441,4.02286,22.5155,22.5155,0,0,1-8.41882,2.39419,38.3492,38.3492,0,0,1-8.70082-.371,45.93059,45.93059,0,0,1-6.73977-1.62759c-1.68976-.52967-2.71049-.9328-2.71049-.9328s2.19262-1.09363,5.13043-2.41993A84.99988,84.99988,0,0,1,84.4713,258.19474Z" style="fill: url(#未命名漸層_63)"/>
          <path id="路径_15857" data-name="路径 15857" d="M49.94683,241.14158A80.19611,80.19611,0,0,1,60.22054,239.366,23.76591,23.76591,0,0,1,71.886,240.86173a13.33816,13.33816,0,0,1,2.19692,1.19336,12.80033,12.80033,0,0,1-1.58041-1.92993c-1.52572-2.14438-2.84665-5.87131-2.466-11.04352a42.78024,42.78024,0,0,1,2.35882-9.698c.50714-1.4346,1.00248-2.66333,1.36918-3.5382l.62722-1.41.91243,2.00608a54.78421,54.78421,0,0,1,1.91278,5.228,43.25119,43.25119,0,0,1,1.82273,7.22226,26.71469,26.71469,0,0,1,.33236,8.14865,8.23437,8.23437,0,0,1-2.153,5.01246,4.55786,4.55786,0,0,1-1.74874,1.144,4.60281,4.60281,0,0,1-.67548,1.96426,7.3906,7.3906,0,0,1-4.43243,3.193,22.5161,22.5161,0,0,1-8.7394.65509,39.942,39.942,0,0,1-8.45636-2.12185,52.00037,52.00037,0,0,1-6.27122-2.9603c-.77733-.42886-1.39385-.79129-1.82271-1.04858l-.63045-.42887,1.55575-.38385Z" style="fill: url(#未命名漸層_63-2)"/>
          <path id="路径_15858" data-name="路径 15858" d="M40.28534,216.0181a28.94068,28.94068,0,0,1,6.78374,1.56434,21.95726,21.95726,0,0,1,4.32521,2.26229,13.25035,13.25035,0,0,1,1.92457,1.59757,12.7744,12.7744,0,0,1-1.17083-2.19693,13.24675,13.24675,0,0,1-1.00679-4.70047,19.499,19.499,0,0,1,.83738-6.62613,43.40856,43.40856,0,0,1,4.24265-9.00638c1.57075-2.6033,2.98068-4.46353,2.98068-4.46353s.18442.82129.4589,2.17117a46.9287,46.9287,0,0,1,.846,5.50034,45.33017,45.33017,0,0,1,.33023,7.43991,27.75356,27.75356,0,0,1-1.31879,8.05215,8.28261,8.28261,0,0,1-3.13186,4.486,4.43009,4.43009,0,0,1-1.92995.75055,4.71789,4.71789,0,0,1-1.07218,1.80127,7.35744,7.35744,0,0,1-4.976,2.21942,21.92091,21.92091,0,0,1-8.69437-1.11725,38.68087,38.68087,0,0,1-7.85377-3.77735A58.15765,58.15765,0,0,1,26.29549,217.83,25.39536,25.39536,0,0,1,24.224,215.8722s2.38991-.10724,5.61933-.16833A77.44144,77.44144,0,0,1,40.28534,216.0181Z" style="fill: url(#未命名漸層_63-3)"/>
          <path id="路径_15859" data-name="路径 15859" d="M25.46448,189.15116a31.504,31.504,0,0,1,6.31305,2.89493,18.17712,18.17712,0,0,1,3.76338,3.09219,13.12054,13.12054,0,0,1,1.58255,1.94385,12.84994,12.84994,0,0,1-.72588-2.376,15.22512,15.22512,0,0,1-.02252-4.81839,18.4343,18.4343,0,0,1,2.16475-6.33343,41.39987,41.39987,0,0,1,5.94207-7.97708c2.10149-2.25159,3.81591-3.78162,3.81591-3.78162s.04825.82987.01394,2.22156-.01608,3.30127-.25732,5.555c-.42888,4.46567-1.33058,10.174-4.07432,14.9924a8.22988,8.22988,0,0,1-3.95638,3.75913,4.463,4.463,0,0,1-2.04466.35275,4.67011,4.67011,0,0,1-1.40779,1.54608,7.40347,7.40347,0,0,1-5.332,1.18479c-5.73942-.5618-11.29014-4.307-15.21757-8.10682a46.85113,46.85113,0,0,1-4.63614-5.16473c-1.05075-1.412-1.63509-2.331-1.63509-2.331s2.39955.36132,5.53463.95959A84.11355,84.11355,0,0,1,25.46448,189.15116Z" style="fill: url(#未命名漸層_63-4)"/>
          <path id="路径_15860" data-name="路径 15860" d="M16.2919,159.86968c4.6844,2.73729,7.33162,5.58074,8.68473,7.8795a21.38853,21.38853,0,0,1,1.13437,2.228,9.41127,9.41127,0,0,1-.20907-2.481,16.96838,16.96838,0,0,1,4.31556-10.49673,39.76017,39.76017,0,0,1,7.42919-6.63042c2.495-1.7852,4.471-2.93565,4.471-2.93565s-.1072.81915-.40742,2.17442c-.33024,1.36166-.75053,3.24228-1.37133,5.38883-.32166,1.07218-.70765,2.21943-1.16654,3.3999-.40958,1.17084-.8824,2.37167-1.44424,3.579a30.26991,30.26991,0,0,1-4.39061,6.89954,8.16479,8.16479,0,0,1-4.61042,2.88846,4.53009,4.53009,0,0,1-2.08112-.06113,4.62133,4.62133,0,0,1-1.68012,1.23087,7.46041,7.46041,0,0,1-5.47567.10186,20.64484,20.64484,0,0,1-7.53855-4.43887,36.15592,36.15592,0,0,1-3.17261-3.15869c-.9328-1.11612-1.79377-2.26447-2.57325-3.38812a39.07383,39.07383,0,0,1-3.49962-5.98925c-.76126-1.59217-1.16011-2.61078-1.16011-2.61078s2.28805.83419,5.25372,2.04253A93.39577,93.39577,0,0,1,16.2919,159.86968Z" style="fill: url(#未命名漸層_63-5)"/>
          <path id="路径_15861" data-name="路径 15861" d="M13.1579,129.337a26.97138,26.97138,0,0,1,4.634,5.1465,17.68134,17.68134,0,0,1,2.31914,4.31879,16.10549,16.10549,0,0,1,.63259,2.41241,11.03536,11.03536,0,0,1,.32166-2.47462,15.61614,15.61614,0,0,1,1.80128-4.43887,20.70917,20.70917,0,0,1,4.51177-4.975A40.01347,40.01347,0,0,1,36.003,124.332c2.78769-1.248,4.95029-1.976,4.95029-1.976s-.26376.78163-.81594,2.0468-1.44209,3.02034-2.4403,4.9964c-2.169,3.936-5.1776,8.823-9.6497,12.1822a8.10878,8.10878,0,0,1-5.0886,1.90853,4.52457,4.52457,0,0,1-2.03716-.475,4.5825,4.5825,0,0,1-1.88919.87064,7.48817,7.48817,0,0,1-5.39847-.99822c-4.9964-2.76947-8.69973-8.38879-10.79694-13.43667a40.29614,40.29614,0,0,1-2.20763-6.579C.193,121.15618,0,120.07868,0,120.07868s2.08112,1.278,4.75516,3.06323A91.99722,91.99722,0,0,1,13.1579,129.337Z" style="fill: url(#未命名漸層_63-6)"/>
          <path id="路径_15862" data-name="路径 15862" d="M16.24366,98.79469a26.65726,26.65726,0,0,1,3.52,5.98066,19.87527,19.87527,0,0,1,1.39385,4.69618,13.14467,13.14467,0,0,1,.14045,2.49178,12.96394,12.96394,0,0,1,.8095-2.35883,14.183,14.183,0,0,1,2.66761-3.98,20.76968,20.76968,0,0,1,5.4049-3.96712,40.72643,40.72643,0,0,1,9.4642-3.15008c2.98068-.6594,5.23657-.93709,5.23657-.93709s-.41172.71406-1.203,1.84418c-.757,1.13652-2.03073,2.66545-3.40849,4.396a49.51941,49.51941,0,0,1-5.15508,5.3738,26.95918,26.95918,0,0,1-6.77195,4.61039,8.08746,8.08746,0,0,1-5.36094.83951,4.58583,4.58583,0,0,1-1.901-.876,4.53083,4.53083,0,0,1-2.01894.47068,7.52571,7.52571,0,0,1-5.094-2.065A22.38521,22.38521,0,0,1,8.808,105.10981,36.493,36.493,0,0,1,6.12,96.81858,42.4726,42.4726,0,0,1,5.29227,89.933c-.089-1.7691-.0654-2.86488-.0654-2.86488s1.78519,1.6737,4.0518,3.96711A88.21591,88.21591,0,0,1,16.24366,98.79469Z" style="fill: url(#未命名漸層_63-7)"/>
          <path id="路径_15863" data-name="路径 15863" d="M20.185,60.54217a90.717,90.717,0,0,1,5.23978,8.971,26.58991,26.58991,0,0,1,2.2516,6.56072,20.26391,20.26391,0,0,1,.41815,4.87951,13.08971,13.08971,0,0,1-.36132,2.466,12.84758,12.84758,0,0,1,1.26625-2.15082,13.89462,13.89462,0,0,1,3.41385-3.36345,20.82715,20.82715,0,0,1,6.08788-2.80592,40.54389,40.54389,0,0,1,9.94455-1.18691c3.06753-.04718,5.34808.13187,5.34808.13187s-.55539.61436-1.574,1.56c-.97784.965-2.585,2.18728-4.26194,3.62508A48.73147,48.73147,0,0,1,41.81853,83.473a26.89271,26.89271,0,0,1-7.55143,3.15652,8.141,8.141,0,0,1-5.43063-.26159A4.59549,4.59549,0,0,1,27.151,85.12849a4.554,4.554,0,0,1-2.07147.05255,7.45921,7.45921,0,0,1-4.55894-3.045,22.44366,22.44366,0,0,1-3.64545-7.94492,36.9273,36.9273,0,0,1-.97354-8.644,39.20115,39.20115,0,0,1,.594-6.88132c.27984-1.74014.53609-2.80164.53609-2.80164S18.43628,57.85528,20.185,60.54217Z" style="fill: url(#未命名漸層_63-8)"/>
          <path id="路径_15864" data-name="路径 15864" d="M40.6027,54.40069a13.21605,13.21605,0,0,1-.8095,2.36954A13.0406,13.0406,0,0,1,41.424,54.8939c1.82271-1.87633,5.38024-3.713,10.56212-4.13434a31.9608,31.9608,0,0,1,4.95029.059c1.7155.15225,3.45674.44389,4.96209.728,3.02679.5822,5.23228,1.22553,5.23228,1.22553s-.67548.48033-1.87205,1.18905l-2.15831,1.21695c-.78913.48249-1.68333.996-2.674,1.51392a43.06908,43.06908,0,0,1-6.90812,2.88847,26.06181,26.06181,0,0,1-7.94276,1.64365,8.2238,8.2238,0,0,1-5.29338-1.34451,4.44541,4.44541,0,0,1-1.38743-1.5418,4.66909,4.66909,0,0,1-2.05966-.3667,7.38409,7.38409,0,0,1-3.83629-3.87491,22.93045,22.93045,0,0,1-2.08111-8.56356,40.45753,40.45753,0,0,1,.82987-8.64075c.2659-1.34451.57041-2.61507.876-3.75911.33882-1.1215.71837-2.094,1.03038-2.91743.64331-1.64365,1.10756-2.629,1.10756-2.629s.965,2.22586,2.13044,5.198c.58863,1.49356,1.1912,3.14688,1.79913,4.85272a52.40561,52.40561,0,0,1,1.59862,5.0393A24.315,24.315,0,0,1,40.6027,54.40069Z" style="fill: url(#未命名漸層_63-9)"/>
          <path id="路径_15865" data-name="路径 15865" d="M70.04179,29.616a38.98459,38.98459,0,0,1,9.53067,2.75766c2.852,1.18691,4.887,2.26555,4.887,2.26555s-.76233.33025-2.08326.77735c-1.36384.40423-3.09971,1.12794-5.26874,1.71551a55.04182,55.04182,0,0,1-7.32733,1.45066,26.48888,26.48888,0,0,1-8.14863-.03A8.28589,8.28589,0,0,1,56.708,36.1585a4.40538,4.40538,0,0,1-1.04431-1.783,4.7495,4.7495,0,0,1-1.9471-.78164,7.32949,7.32949,0,0,1-2.97-4.56217,22.65867,22.65867,0,0,1-.27019-8.77585,34.5574,34.5574,0,0,1,2.54-8.31375A37.7533,37.7533,0,0,1,56.218,5.76843c.965-1.47318,1.6233-2.33953,1.6233-2.33953s.49749,2.37169,1.02608,5.51A96.54747,96.54747,0,0,1,60.214,19.33054a26.37564,26.37564,0,0,1-.54575,6.88559,21.04081,21.04081,0,0,1-1.50964,4.6726A13.07926,13.07926,0,0,1,56.872,33.0331a12.74927,12.74927,0,0,1,1.99213-1.49569A13.55219,13.55219,0,0,1,63.30084,29.764,21.10211,21.10211,0,0,1,70.04179,29.616Z" style="fill: url(#未命名漸層_63-10)"/>
          <path id="路径_15866" data-name="路径 15866" d="M86.24684,12.462C78.61071,19.88692,72.109,18.08781,72.109,18.08781s-1.7155-3.045,1.54181-7.10645C80.6779,2.19905,95.61242,0,95.61242,0S90.77684,8.05748,86.24684,12.462Z" style="fill: url(#未命名漸層_63-11)"/>
        </g>
        <path id="路径_15867" data-name="路径 15867" d="M117.42394,277.94019a19.16219,19.16219,0,0,0-10.47207-15.863A145.1229,145.1229,0,0,1,65.4421,24.05991c1.48713-1.40992,5.12828-4.634,6.669-5.97422" style="fill: none;stroke: #767a0d;stroke-miterlimit: 10"/>
      </g>
    </g>
  </g>
</svg>
