<svg xmlns="http://www.w3.org/2000/svg" xmlns:xlink="http://www.w3.org/1999/xlink" width="1767" height="189" viewBox="0 0 1767 189">
  <defs>
    <clipPath id="clip-path">
      <rect id="矩形_70" data-name="矩形 70" width="1767" height="189" fill="none"/>
    </clipPath>
    <linearGradient id="linear-gradient" x1="0.01" y1="0.541" x2="0.88" y2="0.385" gradientUnits="objectBoundingBox">
      <stop offset="0" stop-color="#ab7927"/>
      <stop offset="0.192" stop-color="#fedb6b"/>
      <stop offset="0.36" stop-color="#f5d065"/>
      <stop offset="0.499" stop-color="#cba04a"/>
      <stop offset="0.6" stop-color="#b1823a"/>
      <stop offset="0.66" stop-color="#a87734"/>
      <stop offset="0.75" stop-color="#a2722f"/>
      <stop offset="1" stop-color="#d69c47"/>
    </linearGradient>
    <filter id="路径_16116" x="-9" y="78.613" width="1785" height="126.15" filterUnits="userSpaceOnUse">
      <feOffset dy="-5" input="SourceAlpha"/>
      <feGaussianBlur stdDeviation="3" result="blur"/>
      <feFlood flood-opacity="0.188"/>
      <feComposite operator="in" in2="blur"/>
      <feComposite in="SourceGraphic"/>
    </filter>
  </defs>
  <g id="bottom_banner2" transform="translate(0 -0.18)">
    <g id="组_328" data-name="组 328" transform="translate(0 0.18)" clip-path="url(#clip-path)">
      <g id="组_327" data-name="组 327" transform="translate(0 11.212)">
        <path id="路径_16100" data-name="路径 16100" d="M0,65.037,3.341,236.344c42.224-29.227,94.728-56.06,160.364-77.984,154.06-51.468,358.379-68.647,548.037-70.1,229.057-1.743,450.484,16.28,660.757,42.726,72.567,9.129,145.336,19.364,223.93,20.181,58.468.609,121.767-4.9,173.322-18L1766.659,0Z" transform="translate(1777.625 236.344) rotate(180)" fill="url(#linear-gradient)"/>
        <g transform="matrix(1, 0, 0, 1, 0, -11.21)" filter="url(#路径_16116)">
          <path id="路径_16116-2" data-name="路径 16116" d="M173.562-2.743C252.055.978,324.511,11.53,396.793,21.249c209.445,28.173,430.219,50.46,659.082,58.175,189.5,6.4,394.013,1.531,549.1-31.072C1671.067,34.464,1724.141,16.358,1767-3.938V104.15H0V3.939C36.472-1.561,78.659-4,120.819-4c17.725,0,35.46.436,52.743,1.257Z" transform="translate(0 96.61)" fill="#fff"/>
        </g>
      </g>
    </g>
  </g>
</svg>
