<?xml version="1.0" encoding="utf-8"?>
<!-- Generator: Adobe Illustrator 25.4.8, SVG Export Plug-In . SVG Version: 6.00 Build 0)  -->
<!DOCTYPE svg PUBLIC "-//W3C//DTD SVG 1.1//EN" "http://www.w3.org/Graphics/SVG/1.1/DTD/svg11.dtd" [
	<!ENTITY ns_extend "http://ns.adobe.com/Extensibility/1.0/">
	<!ENTITY ns_ai "http://ns.adobe.com/AdobeIllustrator/10.0/">
	<!ENTITY ns_graphs "http://ns.adobe.com/Graphs/1.0/">
	<!ENTITY ns_vars "http://ns.adobe.com/Variables/1.0/">
	<!ENTITY ns_imrep "http://ns.adobe.com/ImageReplacement/1.0/">
	<!ENTITY ns_sfw "http://ns.adobe.com/SaveForWeb/1.0/">
	<!ENTITY ns_custom "http://ns.adobe.com/GenericCustomNamespace/1.0/">
	<!ENTITY ns_adobe_xpath "http://ns.adobe.com/XPath/1.0/">
]>
<svg version="1.1" id="bottom_banner" xmlns:x="&ns_extend;" xmlns:i="&ns_ai;" xmlns:graph="&ns_graphs;"
	 xmlns="http://www.w3.org/2000/svg" xmlns:xlink="http://www.w3.org/1999/xlink" x="0px" y="0px" width="1920px" height="193px"
	 viewBox="0 0 1920 193" style="enable-background:new 0 0 1920 193;" xml:space="preserve">
<style type="text/css">
	.st0{clip-path:url(#SVGID_00000106126451360212546870000001163412918172394643_);}
	.st1{fill:url(#路径_16100_00000130647207090098196580000011794569173638184589_);}
	.st2{fill:#FFFFFF;}
	.st3{clip-path:url(#路径_16116_00000170241096905543968490000003147316733298814347_);}
	.st4{opacity:0.1;}
	.st5{fill:#7D4800;}
</style>
<metadata>
	<sfw  xmlns="&ns_sfw;">
		<slices></slices>
		<sliceSourceBounds  bottomLeftOrigin="true" height="340.1" width="1977" x="-24.7" y="-75.6"></sliceSourceBounds>
		<optimizationSettings>
			<targetSettings  fileFormat="PNG24Format" targetSettingsID="0">
				<PNG24Format  filtered="false" interlaced="false" matteColor="#FFFFFF" noMatteColor="false" transparency="true">
					</PNG24Format>
			</targetSettings>
		</optimizationSettings>
	</sfw>
</metadata>
<g>
	<defs>
		<rect id="SVGID_1_" width="1920" height="193"/>
	</defs>
	<clipPath id="SVGID_00000085220221293522221500000011548067668277599890_">
		<use xlink:href="#SVGID_1_"  style="overflow:visible;"/>
	</clipPath>
	<g id="组_328" style="clip-path:url(#SVGID_00000085220221293522221500000011548067668277599890_);">
		<g id="组_327" transform="translate(0 -5.14)">
			
				<linearGradient id="路径_16100_00000042734359018979495740000001474979002396886414_" gradientUnits="userSpaceOnUse" x1="2.205846e-02" y1="643.3903" x2="0.8921" y2="643.5463" gradientTransform="matrix(-1922.9899 32.6908 4.099 241.116 -698.611 -155032.1406)">
				<stop  offset="0" style="stop-color:#AB7927"/>
				<stop  offset="0.192" style="stop-color:#FEDB6B"/>
				<stop  offset="0.36" style="stop-color:#F5D065"/>
				<stop  offset="0.499" style="stop-color:#CBA04A"/>
				<stop  offset="0.6" style="stop-color:#B1823A"/>
				<stop  offset="0.66" style="stop-color:#A87734"/>
				<stop  offset="0.75" style="stop-color:#A2722F"/>
				<stop  offset="1" style="stop-color:#D69C47"/>
			</linearGradient>
			<path id="路径_16100" style="fill:url(#路径_16100_00000042734359018979495740000001474979002396886414_);" d="M1932.4,174.7
				L1925.8,0c-45.4,30.6-102,58.9-172.9,82.5c-166.5,55.4-388.2,76.7-594.3,81.6c-248.9,6-489.8-8.3-718.7-31.4
				c-79-8-158.3-17.1-243.7-16.5c-63.5,0.5-132.2,7.2-188,21.6l5.7,135.8L1932.4,174.7z"/>
			<path id="路径_16116" class="st2" d="M188.6,101.1c85.3,3.8,164,14.6,242.6,24.5c227.6,28.7,467.5,51.5,716.2,59.4
				c205.9,6.5,428.1,1.6,596.7-31.7c71.8-14.2,129.5-32.6,176-53.3v110.3H0V107.9c39.6-5.6,85.5-8.1,131.3-8.1
				C150.5,99.8,169.8,100.3,188.6,101.1z"/>
		</g>
	</g>
</g>
<g>
	<defs>
		<rect id="SVGID_00000009577242262711285550000013921883749493219491_" x="-24.7" y="-71.5" width="299" height="251"/>
	</defs>
	<clipPath id="SVGID_00000171706813498286896650000008190727463464786585_">
		<use xlink:href="#SVGID_00000009577242262711285550000013921883749493219491_"  style="overflow:visible;"/>
	</clipPath>
</g>
<g>
	<defs>
		<path id="路径_16116_00000158007358236073914330000015100742571722198957_" d="M188.6,95.9c85.3,3.8,164,14.6,242.6,24.5
			c227.6,28.7,467.5,51.5,716.2,59.3c205.9,6.5,428.1,1.6,596.7-31.7c71.8-14.2,129.5-32.6,176-53.3V205H0V102.8
			c39.6-5.6,85.5-8.1,131.3-8.1C150.5,94.7,169.8,95.1,188.6,95.9z"/>
	</defs>
	<clipPath id="路径_16116_00000146489112996401494280000005346422954705753495_">
		<use xlink:href="#路径_16116_00000158007358236073914330000015100742571722198957_"  style="overflow:visible;"/>
	</clipPath>
	
		<g id="main_bg" transform="translate(-23 -311)" style="clip-path:url(#路径_16116_00000146489112996401494280000005346422954705753495_);">
		<g id="main_bg-2" transform="translate(17.087 301.519)" class="st4">
			<g id="组_183-12">
				<path id="路径_15877-12" class="st5" d="M283.5,93.6L283.5,93.6l-14.7-25.6L254,93.6h0c-4.3,8.1-1.2,18.2,6.9,22.6
					c8.1,4.3,18.2,1.2,22.6-6.9C286.1,104.4,286.1,98.5,283.5,93.6L283.5,93.6z M268.4,114.3c-6.8,0-12.2-5.5-12.2-12.2
					c0-1,0.8-1.8,1.8-1.8c1,0,1.7,0.8,1.8,1.8c0,4.8,3.9,8.6,8.7,8.7c1,0.1,1.7,0.9,1.7,1.9C270,113.6,269.3,114.3,268.4,114.3z"/>
				<path id="路径_15878-12" class="st5" d="M297.3,79.3L297.3,79.3l-7-12.2l-7,12.2h0c-2.1,3.9-0.6,8.7,3.3,10.8
					c3.9,2.1,8.7,0.6,10.8-3.3C298.6,84.5,298.6,81.7,297.3,79.3z M290.1,89.2c-3.2,0-5.8-2.6-5.8-5.8c0-0.5,0.4-0.9,0.9-0.9
					c0.5,0,0.9,0.4,0.9,0.9l0,0c0,2.3,1.9,4.1,4.1,4.1c0.5,0,0.9,0.4,0.9,0.9S290.6,89.2,290.1,89.2L290.1,89.2z"/>
			</g>
			<path id="路径_15872-12" class="st5" d="M207.7,202h-5.1c-0.1,0-0.1-0.1-0.2-0.1c-0.9-0.1-1.8-0.2-2.6-0.4
				c-2.7-0.4-5.3-1.3-7.7-2.5c-2.3-1.1-4.4-2.5-6.3-4.2c-1.8-1.6-3.5-3.4-4.9-5.4c-1.5-2.1-2.7-4.3-3.5-6.7
				c-0.8-2.1-1.3-4.2-1.6-6.4c-0.1-0.5-0.1-0.9-0.2-1.4v-5.1c0-0.1,0.1-0.1,0.1-0.2c0.1-0.9,0.2-1.8,0.4-2.6
				c0.4-2.7,1.3-5.3,2.5-7.7c1.1-2.3,2.5-4.4,4.2-6.3c1.6-1.8,3.4-3.5,5.4-4.9c2.1-1.5,4.3-2.7,6.7-3.5c2.1-0.8,4.2-1.3,6.4-1.6
				c0.5-0.1,0.9-0.2,1.4-0.2h5.1c0.1,0,0.1,0.1,0.2,0.1c0.9,0.1,1.8,0.2,2.6,0.4c2.7,0.4,5.3,1.3,7.7,2.5c2.3,1.1,4.4,2.5,6.3,4.2
				c1.8,1.6,3.5,3.4,4.9,5.4c1.5,2.1,2.7,4.3,3.5,6.7c0.8,2.1,1.3,4.2,1.6,6.4c0.1,0.5,0.2,0.9,0.2,1.4v5.1c0,0.1-0.1,0.1-0.1,0.2
				c-0.1,0.9-0.2,1.8-0.4,2.6c-0.4,2.7-1.3,5.3-2.5,7.7c-1.1,2.3-2.5,4.4-4.2,6.3c-1.6,1.8-3.4,3.5-5.4,4.9
				c-2.1,1.5-4.3,2.7-6.7,3.5c-2.1,0.8-4.2,1.3-6.4,1.6C208.6,201.8,208.2,201.9,207.7,202z M207.8,190.6l0.2,0.1
				c1.2-1.3,2.5-2.6,3.6-3.9c1.4-1.6,2.4-3.4,3.2-5.4c1.2-2.9,1.6-6.1,1.3-9.2c-0.1-1.6-0.5-3.3-1-4.8c-1-2.9-2.5-5.6-4.7-7.8
				c-1.6-1.7-3.3-3.3-5-5c-0.1-0.1-0.2-0.2-0.3-0.3c-1.4,1.4-2.8,2.8-4.2,4.2c-2.1,2-3.8,4.3-4.9,6.9c-1.1,2.4-1.7,5-1.8,7.7
				c0,1.5,0.1,2.9,0.3,4.4c0.4,2.8,1.4,5.4,3,7.7c0.8,1.1,1.7,2.3,2.6,3.3c0.7,0.8,1.5,1.5,2.2,2.3l0.1-0.1v-11.9h5.3L207.8,190.6z"
				/>
			<path id="路径_15980-12" class="st5" d="M73.9,15.5c1.4,0.4,2.3,2,1.8,3.4l0,0.1L74,24l2.8,3.8l1.1-0.8l1.6,2.2l1.3-0.9
				l3.3,4.5c0,0,1.3,11.5,1.8,12.1c1.9,2.6,1.1,6.4-1.9,8.6s-6.8,1.7-8.7-0.9c-0.5-0.6-11-5.4-11-5.4l-3.3-4.5l1.3-0.9l-1.6-2.2
				l1.1-0.8l-1.8-2.4l-0.1,0.2c-0.5,1.5-2.1,2.2-3.6,1.7c-1.4-0.5-2.2-2-1.7-3.5c0,0,0-0.1,0-0.1L64.4,8c0.5-1.5,2.1-2.2,3.6-1.7
				c1.4,0.5,2.2,2,1.7,3.5c0,0,0,0,0,0l0,0l0,0.1l-7.8,21.7l3.4,4.7l1.1-0.8l1.6,2.2l6-4.3L72.4,31l1.1-0.8L71,26.9
				c-0.3,0-0.6,0-0.9-0.1c-1.4-0.4-2.2-2-1.8-3.4c0,0,0-0.1,0-0.1l2-6C70.8,15.8,72.4,15,73.9,15.5z M57.4-0.7L48,25.1
				c-0.5,1.4,0.2,3,1.6,3.5c0,0,0,0,0,0l0.1,0c1.5,0.5,3.1-0.3,3.6-1.7l9.4-25.8c0.5-1.4-0.2-3-1.6-3.5l-0.1,0
				C59.6-3,58-2.2,57.4-0.7L57.4-0.7z M45.8,19.6c0.5-0.3,0.8-0.8,1-1.3l9.3-25c0.5-1.4-0.2-3-1.6-3.5c0,0,0,0,0,0l0,0
				c0,0,0,0-0.1,0c-1.5-0.5-3.1,0.3-3.6,1.7l-9.3,25c-0.5,1.4,0.2,3,1.6,3.5l0.1,0C44.1,20.3,45,20.1,45.8,19.6z M39.8,11.5
				c0.5-0.3,0.8-0.8,1-1.3l3.8-10.6c0.5-1.4-0.2-3-1.6-3.5c0,0,0,0,0,0l0,0l-0.1,0c-1.5-0.5-3.1,0.3-3.6,1.8L35.5,8.3
				c-0.5,1.4,0.2,3,1.6,3.5l0,0l0.1,0C38.1,12.2,39,12,39.8,11.5L39.8,11.5z"/>
			<path id="路径_15981-12" class="st5" d="M122.7,93c1.4-1.4,2.6-3,3.8-4.6l-1.8,36.2c0,0.2,0.1,0.4,0.2,0.6
				c0.1,0.2,0.4,0.2,0.6,0.2h6.1c0.4,0,0.8-0.3,0.8-0.8c0,0,0,0,0,0v0c0-0.1,0-0.1,0-0.2l-1.8-36.8c0-0.2-0.1-0.4-0.2-0.5l-0.9-0.9
				c0.3-0.1,0.6-0.3,0.9-0.6c0.1-0.1,0.1-0.1,0.1-0.2c0,0,0.1,0,0.1,0.1c2.6,1.2,5.3,2.2,8.1,2.9c3.1,0.7,6.3,1.1,9.5,1.1
				c1.1,0,1.7,0,1.7,0c0.4,0,0.8-0.4,0.7-0.9c0-0.3-0.2-0.5-0.4-0.6c-3.3-1.9-6.8-3.3-10.5-4.2c-2.8-0.7-5.7-1.1-8.7-1.1
				c-0.1,0-0.2,0-0.2,0c-0.1-0.3-0.3-0.6-0.6-0.9c-0.3-0.3-0.6-0.5-1-0.6c0-0.1,0-0.1,0-0.2c0-0.1,0-0.1,0-0.2
				c-0.2-2.8-0.7-5.6-1.5-8.3c-1.1-3.6-2.6-7.1-4.7-10.3c-0.3-0.4-0.7-0.5-1.1-0.2c-0.2,0.1-0.3,0.4-0.3,0.6c0,3.8,0.5,7.5,1.6,11.2
				c0.8,2.7,1.9,5.4,3.3,7.9c0,0,0,0.1,0.1,0.1c0,0,0,0-0.1,0c-0.6,0.6-0.9,1.6-0.7,2.4c-0.1,0-0.1,0-0.2,0.1
				c-2.3,1.6-4.4,3.3-6.3,5.3c-2.6,2.7-4.8,5.8-6.6,9.2c-0.2,0.4,0,0.9,0.4,1.1c0.1,0.1,0.2,0.1,0.3,0.1c0.1,0,0.3,0,0.4-0.1
				C117,98.1,120,95.8,122.7,93z M131.8,84.3c2.5,0.1,5.1,0.5,7.5,1.1c2.5,0.6,4.9,1.5,7.2,2.6c-2.6-0.1-5.1-0.5-7.6-1
				C136.4,86.2,134.1,85.4,131.8,84.3L131.8,84.3z M130.7,123.9h-4.4l1.8-35.9l0.4-0.4l0.5,0.5L130.7,123.9z M129.1,84.5
				c-0.4,0.4-1.1,0.4-1.5,0c-0.4-0.4-0.4-1.1,0-1.5c0.4-0.4,1.1-0.4,1.5,0C129.5,83.4,129.5,84.1,129.1,84.5L129.1,84.5L129.1,84.5z
				 M124.6,73.5c-0.7-2.5-1.2-5-1.4-7.5c2.4,4.5,3.8,9.4,4.2,14.4l-0.1,0C126.3,78.2,125.3,75.9,124.6,73.5L124.6,73.5z M115.7,96.9
				c2.6-4.2,6-7.8,10.1-10.7c0,0,0.1,0.1,0.1,0.1l0,0C123.2,90.5,119.7,94.1,115.7,96.9z M170.2,98.1c-2.4-1.4-4.9-2.4-7.6-3.1
				c-2.1-0.5-4.2-0.8-6.3-0.8c0,0,0,0-0.1,0c-0.1-0.2-0.2-0.4-0.4-0.5c-0.2-0.2-0.4-0.3-0.6-0.4c0-0.1,0-0.1,0-0.2
				c-0.1-2-0.5-4-1.1-5.9c-0.8-2.6-1.9-5.1-3.4-7.5c-0.3-0.4-0.7-0.5-1.1-0.2c-0.2,0.1-0.3,0.4-0.3,0.6c0,2.7,0.4,5.5,1.1,8.1
				c0.6,2,1.4,3.8,2.3,5.6c-0.3,0.4-0.5,0.9-0.5,1.4c0,0.1,0,0.2,0,0.2l0,0c-1.6,1.1-3.2,2.4-4.5,3.8c-1.9,2-3.5,4.2-4.8,6.7
				c-0.2,0.4,0,0.9,0.4,1.1c0.2,0.1,0.5,0.1,0.7,0c3.4-1.9,6.4-4.6,8.8-7.8l-1.2,25.1c0,0.4,0.3,0.8,0.8,0.8h4.4
				c0.4,0,0.8-0.4,0.8-0.8c0-0.1,0-0.1,0-0.2l-1.3-26.2c0-0.2-0.1-0.4-0.2-0.5l-0.4-0.4c0.2-0.1,0.3-0.2,0.4-0.3l0,0
				c1.8,0.9,3.8,1.6,5.7,2.1c2.3,0.5,4.6,0.8,6.9,0.8c0.8,0,1.2,0,1.2,0c0.4,0,0.8-0.4,0.7-0.9C170.6,98.5,170.4,98.3,170.2,98.1
				L170.2,98.1z M149.3,101c-1,1-2,1.9-3.2,2.8c1.6-2.3,3.6-4.4,5.8-6.1C151.2,98.9,150.3,100,149.3,101L149.3,101z M153.8,95.3
				c0-0.3,0.2-0.6,0.6-0.6c0,0,0,0,0,0h0c0.3,0,0.6,0.3,0.6,0.6c0,0.1-0.1,0.3-0.2,0.4c-0.2,0.2-0.6,0.2-0.8,0
				C153.9,95.6,153.8,95.4,153.8,95.3L153.8,95.3z M151.1,83.7c0.6,1.3,1.1,2.6,1.5,3.9c0.4,1.4,0.7,2.7,0.8,4.1
				C152.2,89.2,151.4,86.5,151.1,83.7L151.1,83.7z M153.2,123.7l1.3-25.3l0.1-0.1l0.1,0.1l1.3,25.2L153.2,123.7z M162.1,97.3
				c-1.4-0.3-2.7-0.8-4.1-1.3c2.8,0.2,5.6,0.9,8.2,2C164.8,97.8,163.4,97.6,162.1,97.3L162.1,97.3z"/>
			<path id="路径_15982-12" class="st5" d="M92.1,149.9c-0.1-0.5-0.5-0.9-1-0.9H48c-0.5,0-0.9,0.4-1,0.9l-5.3,34.5
				c-0.1,0.6,0.3,1.1,0.9,1.2c0,0,0,0,0,0l0,0c0.1,0,0.1,0,0.2,0h19.8l-3.7,10.2h-6c-0.6,0-1,0.5-1,1v4c0,0.6,0.5,1,1,1h34.9
				c0.6,0,1-0.5,1-1v-4c0-0.6-0.5-1-1-1h-7.8L76,185.6h19.5c0,0,0,0,0,0c0.6,0,1-0.5,1-1l0,0l0,0c0-0.1,0-0.2-0.1-0.3L92.1,149.9z
				 M46.2,168.4H54l-0.7,6.5h-8.1L46.2,168.4z M47.5,159.9h7.4l-0.7,6.5h-7.7L47.5,159.9z M92.1,166.4h-7.6l-0.5-6.5h7.3L92.1,166.4
				z M82.5,166.4H75l-0.2-6.5H82L82.5,166.4z M65.9,166.4l0.3-6.5h6.5l0.2,6.5H65.9z M72.9,168.4l0.2,6.5h-7.7l0.3-6.5H72.9z
				 M74.7,157.8l-0.2-6.7c0,0,0,0,0,0h6.7c0,0,0,0.1,0,0.1l0.5,6.6L74.7,157.8z M72.7,157.8h-6.3l0.4-6.6c0,0,0-0.1,0-0.1h5.8
				c0,0,0,0.1,0,0.1L72.7,157.8z M64.6,151.1l-0.4,6.7h-7l0.7-6.6c0-0.1,0-0.1,0-0.2L64.6,151.1L64.6,151.1z M64.1,159.9l-0.3,6.5
				h-7.5l0.7-6.5H64.1z M56.1,168.4h7.6l-0.3,6.5h-8L56.1,168.4z M63.2,177l-0.3,6.5h-8.4l0.7-6.5H63.2z M65.3,177h7.9l0.2,6.5h-8.4
				L65.3,177z M75.2,177h8.1l0.5,6.5h-8.4L75.2,177z M75.2,174.9l-0.2-6.5h7.6l0.5,6.5H75.2z M84.7,168.4h7.7l0.8,6.5h-8L84.7,168.4
				z M91,157.8h-7.2l-0.5-6.7h6.8L91,157.8z M48.8,151.1h7l-0.7,6.7h-7.3L48.8,151.1z M44.8,177h8.2l-0.7,6.5h-8.5L44.8,177z
				 M86.5,199.8H53.7v-2h32.8V199.8z M60.9,195.8l3.7-10.2h9.2l3.7,10.2H60.9z M85.9,183.5l-0.5-6.5h8.1l0.8,6.5H85.9z"/>
			<path id="路径_15983-12" class="st5" d="M220.7,46.4H216v-8.3h4.7L220.7,46.4z M242.6,38.1v8.3h-2.9v5.4h-29.1v-11
				c-14.2,5.8-30.3-1-36.1-15.2c-5.8-14.2,1-30.3,15.2-36.1s30.3,1,36.1,15.2c3.8,9.4,2.2,20.1-4.2,28h18.1v5.4L242.6,38.1z
				 M217.8,16.5c0,0.2,0.1,0.4,0.2,0.5l2.8,2.2c0.1,0.1,0.3,0.2,0.5,0.1l3-0.5c0.1,0,0.3,0,0.4,0.1l0,0c0.7-4.8,0-9.7-2-14.1
				c-0.2-0.1-0.4-0.1-0.6,0L221,5.5c-0.2,0.1-0.3,0.3-0.3,0.5v2.6c0,0.1,0,0.2-0.1,0.3l-2.6,4.7c-0.1,0.1-0.1,0.2-0.1,0.3
				L217.8,16.5z M201.9-9.6l0.2,0.3c0.1,0.1,0.1,0.2,0.2,0.2l2.5,1.6c0.2,0.1,0.3,0.3,0.4,0.5c0.2,0.6,0.6,1.8,0.6,2
				c0,0.2,1.2,2.1,1.6,2.7c0.1,0.1,0.2,0.2,0.3,0.3c0.4,0.3,1,0.1,1.3-0.3c0,0,0-0.1,0-0.1l0.9-1.8c0.1-0.2,0.2-0.3,0.4-0.4l2.5-1.2
				c0,0,0,0,0.1,0l0.1,0C209.7-8.1,205.9-9.3,201.9-9.6L201.9-9.6z M210.3,28.8l2.1-5.2c0.2-0.5,0-1.1-0.5-1.3c0,0,0,0,0,0l-4.6-1.6
				c-0.2-0.1-0.4-0.2-0.5-0.5l-0.4-0.7c-0.1-0.2-0.2-0.3-0.4-0.4l-3.4-2c-0.2-0.1-0.3-0.1-0.5-0.1h-2.9c-0.4,0-0.7,0.2-0.9,0.5
				l-0.2,0.4c-0.1,0-0.1,0-0.2,0c-0.2,0-0.4-0.1-0.6-0.3l-2.5-3.1c-0.2-0.2-0.5-0.4-0.8-0.3l-0.7,0.2c-0.2,0.1-0.4,0-0.6-0.1l-1-0.7
				c-0.3-0.2-0.4-0.5-0.4-0.9l0.3-1.1c0.1-0.4,0.4-0.6,0.8-0.6h3.8c0.3,0,0.5-0.1,0.7-0.4l2.5-4c0.1-0.1,0.2-0.3,0.4-0.3l2.2-0.9
				c0.2-0.1,0.3-0.2,0.4-0.3l2-2.9c0.2-0.3,0.2-0.7-0.1-1l-2.2-2.5c-0.1-0.1-0.2-0.2-0.4-0.2l-3-1c-0.4-0.1-0.9,0.1-1,0.5
				c0,0,0,0,0,0l0,0c0,0,0,0,0,0.1l-0.5,2.3c-0.1,0.4-0.5,0.7-1,0.6c-0.1,0-0.1,0-0.2-0.1l-2.6-1.2c-0.1-0.1-0.3-0.2-0.4-0.3
				l-0.5-0.9c-0.2-0.4-0.1-0.8,0.2-1.1l3.3-2.7c0.2-0.2,0.3-0.5,0.3-0.7l-0.1-0.9l0.9-0.1c0.2,0,0.4,0,0.6,0.2l0.9,0.6
				c0.2,0.1,0.3,0.4,0.3,0.6v0.4c0,0.3,0.1,0.5,0.4,0.7l1.7,1c0.4,0.2,0.8,0.1,1.1-0.2c0-0.1,0.1-0.2,0.1-0.2l0.2-1
				c0.1-0.2,0-0.5-0.2-0.7l-3.2-3.6c-0.2-0.2-0.5-0.3-0.7-0.2l-0.8,0.2c0,0-0.1,0-0.1,0h-1.3c-6.6,1.1-12.5,4.8-16.4,10.4l2,2
				c0.1,0.1,0.2,0.3,0.2,0.5l0.2,3.1c0,0.2,0.1,0.3,0.2,0.5l6.3,7.2c0.1,0.1,0.2,0.1,0.2,0.2l5.5,2.8c0,0,0,0,0,0l1.6,0.7
				c0.2,0.1,0.3,0.2,0.4,0.4l0.5,1c0.1,0.1,0.2,0.3,0.3,0.4l-0.6,2.1c-0.1,0.2,0,0.5,0.1,0.7l1.3,2.7c0.1,0.2,0.2,0.3,0.4,0.4
				l1.1,0.7c0.3,0.2,0.5,0.6,0.5,1l-1.4,10.1c0,0.2,0,0.4,0.1,0.6l1.1,2.1h0.3c0.6,0,1.1,0,1.7-0.1c0-0.2-0.1-0.4-0.2-0.6l-0.5-0.7
				c-0.2-0.3-0.3-0.7-0.1-1.1l1.6-2.9c0.1-0.2,0.2-0.3,0.4-0.4l1.2-0.7c0.1-0.1,0.2-0.1,0.3-0.2l3-3.4c0.1-0.1,0.3-0.2,0.5-0.3
				l1.5-0.4C210,29.3,210.2,29.1,210.3,28.8L210.3,28.8z M236.9,35.4h-23.6v13.7h23.6L236.9,35.4z"/>
		</g>
	</g>
	
		<g id="main_bg_00000121281408887881704390000017426537604052273038_" transform="translate(-23 -311)" style="clip-path:url(#路径_16116_00000146489112996401494280000005346422954705753495_);">
		<g id="main_bg-2_00000072970116945795858230000018233834945578946435_" transform="translate(17.087 301.519)" class="st4">
			<g id="组_183-12_00000114763426074507847410000006938322168178902449_">
				<path id="路径_15877-12_00000016785495149847090730000006566957498789983141_" class="st5" d="M563.5,93.6L563.5,93.6
					l-14.7-25.6L534,93.6h0c-4.3,8.1-1.2,18.2,6.9,22.6c8.1,4.3,18.2,1.2,22.6-6.9C566.1,104.4,566.1,98.5,563.5,93.6L563.5,93.6z
					 M548.4,114.3c-6.8,0-12.2-5.5-12.2-12.2c0-1,0.8-1.8,1.8-1.8c1,0,1.7,0.8,1.8,1.8c0,4.8,3.9,8.6,8.7,8.7c1,0.1,1.7,0.9,1.7,1.9
					C550,113.6,549.3,114.3,548.4,114.3z"/>
				<path id="路径_15878-12_00000031925602619418600150000006251360430728466075_" class="st5" d="M577.3,79.3L577.3,79.3l-7-12.2
					l-7,12.2h0c-2.1,3.9-0.6,8.7,3.3,10.8c3.9,2.1,8.7,0.6,10.8-3.3C578.6,84.5,578.6,81.7,577.3,79.3z M570.1,89.2
					c-3.2,0-5.8-2.6-5.8-5.8c0-0.5,0.4-0.9,0.9-0.9s0.9,0.4,0.9,0.9l0,0c0,2.3,1.9,4.1,4.1,4.1c0.5,0,0.9,0.4,0.9,0.9
					S570.6,89.2,570.1,89.2L570.1,89.2z"/>
			</g>
			<path id="路径_15872-12_00000118364641230720128670000002615251158197458595_" class="st5" d="M487.7,202h-5.1
				c-0.1,0-0.1-0.1-0.2-0.1c-0.9-0.1-1.8-0.2-2.6-0.4c-2.7-0.4-5.3-1.3-7.7-2.5c-2.3-1.1-4.4-2.5-6.3-4.2c-1.8-1.6-3.5-3.4-4.9-5.4
				c-1.5-2.1-2.7-4.3-3.5-6.7c-0.8-2.1-1.3-4.2-1.6-6.4c0-0.5-0.1-0.9-0.2-1.4v-5.1c0-0.1,0.1-0.1,0.1-0.2c0.1-0.9,0.2-1.8,0.4-2.6
				c0.4-2.7,1.3-5.3,2.5-7.7c1.1-2.3,2.5-4.4,4.2-6.3c1.6-1.8,3.4-3.5,5.4-4.9c2.1-1.5,4.3-2.7,6.7-3.5c2.1-0.8,4.2-1.3,6.4-1.6
				c0.5-0.1,0.9-0.2,1.4-0.2h5.1c0.1,0,0.1,0.1,0.2,0.1c0.9,0.1,1.8,0.2,2.6,0.4c2.7,0.4,5.3,1.3,7.7,2.5c2.3,1.1,4.4,2.5,6.3,4.2
				c1.8,1.6,3.5,3.4,4.9,5.4c1.5,2.1,2.7,4.3,3.5,6.7c0.8,2.1,1.3,4.2,1.6,6.4c0.1,0.5,0.2,0.9,0.2,1.4v5.1c0,0.1-0.1,0.1-0.1,0.2
				c-0.1,0.9-0.2,1.8-0.4,2.6c-0.4,2.7-1.3,5.3-2.5,7.7c-1.1,2.3-2.5,4.4-4.2,6.3c-1.6,1.8-3.4,3.5-5.4,4.9
				c-2.1,1.5-4.3,2.7-6.7,3.5c-2.1,0.8-4.2,1.3-6.4,1.6C488.6,201.8,488.2,201.9,487.7,202z M487.8,190.6l0.2,0.1
				c1.2-1.3,2.5-2.6,3.6-3.9c1.4-1.6,2.4-3.4,3.2-5.4c1.2-2.9,1.6-6.1,1.3-9.2c-0.1-1.6-0.5-3.3-1-4.8c-1-2.9-2.5-5.6-4.7-7.8
				c-1.6-1.7-3.3-3.3-5-5c-0.1-0.1-0.2-0.2-0.3-0.3c-1.4,1.4-2.8,2.8-4.2,4.2c-2.1,2-3.8,4.3-4.9,6.9c-1.1,2.4-1.7,5-1.8,7.7
				c0,1.5,0.1,2.9,0.3,4.4c0.4,2.8,1.4,5.4,3,7.7c0.8,1.1,1.7,2.3,2.6,3.3c0.7,0.8,1.5,1.5,2.2,2.3l0.1-0.1v-11.9h5.3L487.8,190.6z"
				/>
			<path id="路径_15980-12_00000143605242211638472470000004963559161702192308_" class="st5" d="M353.9,15.5
				c1.4,0.4,2.3,2,1.8,3.4l0,0.1l-1.7,5l2.8,3.8l1.1-0.8l1.6,2.2l1.3-0.9l3.3,4.5c0,0,1.3,11.5,1.8,12.1c1.9,2.6,1.1,6.4-1.9,8.6
				c-2.9,2.1-6.8,1.7-8.7-0.9c-0.5-0.6-11-5.4-11-5.4l-3.3-4.5l1.3-0.9l-1.6-2.2l1.1-0.8l-1.8-2.4l-0.1,0.2
				c-0.5,1.5-2.1,2.2-3.6,1.7c-1.4-0.5-2.2-2-1.7-3.5c0,0,0-0.1,0-0.1L344.4,8c0.5-1.5,2.1-2.2,3.6-1.7c1.4,0.5,2.2,2,1.7,3.5
				c0,0,0,0,0,0l0,0l0,0.1l-7.8,21.7l3.4,4.7l1.1-0.8l1.6,2.2l6-4.3l-1.6-2.2l1.1-0.8l-2.4-3.3c-0.3,0-0.6,0-0.9-0.1
				c-1.4-0.4-2.2-2-1.8-3.4c0,0,0-0.1,0-0.1l2-6C350.8,15.8,352.4,15,353.9,15.5z M337.4-0.7L328,25.1c-0.5,1.4,0.2,3,1.6,3.5
				c0,0,0,0,0,0l0.1,0c1.5,0.5,3.1-0.3,3.6-1.7l9.4-25.8c0.5-1.4-0.2-3-1.6-3.5l-0.1,0C339.6-3,338-2.2,337.4-0.7L337.4-0.7z
				 M325.8,19.6c0.5-0.3,0.8-0.8,1-1.3l9.3-25c0.5-1.4-0.2-3-1.6-3.5c0,0,0,0,0,0l0,0c0,0,0,0-0.1,0c-1.5-0.5-3.1,0.3-3.6,1.7
				l-9.3,25c-0.5,1.4,0.2,3,1.6,3.5l0.1,0C324.1,20.3,325,20.1,325.8,19.6z M319.8,11.5c0.5-0.3,0.8-0.8,1-1.3l3.8-10.6
				c0.5-1.4-0.2-3-1.6-3.5c0,0,0,0,0,0l0,0l-0.1,0c-1.5-0.5-3.1,0.3-3.6,1.8l-3.8,10.6c-0.5,1.4,0.2,3,1.6,3.5l0,0l0.1,0
				C318.1,12.2,319,12,319.8,11.5L319.8,11.5z"/>
			<path id="路径_15981-12_00000170972298824947360740000011144064577047115702_" class="st5" d="M402.7,93c1.4-1.4,2.6-3,3.8-4.6
				l-1.8,36.2c0,0.2,0.1,0.4,0.2,0.6c0.1,0.2,0.4,0.2,0.6,0.2h6.1c0.4,0,0.8-0.3,0.8-0.8c0,0,0,0,0,0v0c0-0.1,0-0.1,0-0.2l-1.8-36.8
				c0-0.2-0.1-0.4-0.2-0.5l-0.9-0.9c0.3-0.1,0.6-0.3,0.9-0.6c0.1-0.1,0.1-0.1,0.1-0.2c0,0,0.1,0,0.1,0.1c2.6,1.2,5.3,2.2,8.1,2.9
				c3.1,0.7,6.3,1.1,9.5,1.1c1.1,0,1.7,0,1.7,0c0.4,0,0.8-0.4,0.7-0.9c0-0.3-0.2-0.5-0.4-0.6c-3.3-1.9-6.8-3.3-10.5-4.2
				c-2.8-0.7-5.7-1.1-8.7-1.1c-0.1,0-0.2,0-0.2,0c-0.1-0.3-0.3-0.6-0.6-0.9c-0.3-0.3-0.6-0.5-1-0.6c0-0.1,0-0.1,0-0.2
				c0-0.1,0-0.1,0-0.2c-0.2-2.8-0.7-5.6-1.5-8.3c-1.1-3.6-2.6-7.1-4.7-10.3c-0.3-0.4-0.7-0.5-1.1-0.2c-0.2,0.1-0.3,0.4-0.3,0.6
				c0,3.8,0.5,7.5,1.6,11.2c0.8,2.7,1.9,5.4,3.3,7.9c0,0,0,0.1,0.1,0.1c0,0,0,0-0.1,0c-0.6,0.6-0.9,1.6-0.7,2.4
				c-0.1,0-0.1,0-0.2,0.1c-2.3,1.6-4.4,3.3-6.3,5.3c-2.6,2.7-4.8,5.8-6.6,9.2c-0.2,0.4,0,0.9,0.4,1.1c0.1,0.1,0.2,0.1,0.3,0.1
				c0.1,0,0.3,0,0.4-0.1C397,98.1,400,95.8,402.7,93z M411.8,84.3c2.5,0.1,5.1,0.5,7.5,1.1c2.5,0.6,4.9,1.5,7.2,2.6
				c-2.6-0.1-5.1-0.5-7.6-1C416.4,86.2,414.1,85.4,411.8,84.3L411.8,84.3z M410.7,123.9h-4.4l1.8-35.9l0.4-0.4l0.5,0.5L410.7,123.9z
				 M409.1,84.5c-0.4,0.4-1.1,0.4-1.5,0c-0.4-0.4-0.4-1.1,0-1.5c0.4-0.4,1.1-0.4,1.5,0C409.5,83.4,409.5,84.1,409.1,84.5L409.1,84.5
				L409.1,84.5z M404.6,73.5c-0.7-2.5-1.2-5-1.4-7.5c2.4,4.5,3.8,9.4,4.2,14.4l-0.1,0C406.3,78.2,405.3,75.9,404.6,73.5L404.6,73.5z
				 M395.7,96.9c2.6-4.2,6-7.8,10.1-10.7c0,0,0.1,0.1,0.1,0.1l0,0C403.2,90.5,399.7,94.1,395.7,96.9z M450.2,98.1
				c-2.4-1.4-4.9-2.4-7.6-3.1c-2.1-0.5-4.2-0.8-6.3-0.8c0,0,0,0-0.1,0c-0.1-0.2-0.2-0.4-0.4-0.5c-0.2-0.2-0.4-0.3-0.6-0.4
				c0-0.1,0-0.1,0-0.2c-0.1-2-0.5-4-1.1-5.9c-0.8-2.6-1.9-5.1-3.4-7.5c-0.3-0.4-0.7-0.5-1.1-0.2c-0.2,0.1-0.3,0.4-0.3,0.6
				c0,2.7,0.4,5.5,1.1,8.1c0.6,2,1.4,3.8,2.3,5.6c-0.3,0.4-0.5,0.9-0.5,1.4c0,0.1,0,0.2,0,0.2l0,0c-1.6,1.1-3.2,2.4-4.5,3.8
				c-1.9,2-3.5,4.2-4.8,6.7c-0.2,0.4,0,0.9,0.4,1.1c0.2,0.1,0.5,0.1,0.7,0c3.4-1.9,6.4-4.6,8.8-7.8l-1.2,25.1c0,0.4,0.3,0.8,0.8,0.8
				h4.4c0.4,0,0.8-0.4,0.8-0.8c0-0.1,0-0.1,0-0.2l-1.3-26.2c0-0.2-0.1-0.4-0.2-0.5l-0.4-0.4c0.2-0.1,0.3-0.2,0.4-0.3l0,0
				c1.8,0.9,3.8,1.6,5.7,2.1c2.3,0.5,4.6,0.8,6.9,0.8c0.8,0,1.2,0,1.2,0c0.4,0,0.8-0.4,0.7-0.9C450.6,98.5,450.4,98.3,450.2,98.1
				L450.2,98.1z M429.3,101c-1,1-2,1.9-3.2,2.8c1.6-2.3,3.6-4.4,5.8-6.1C431.2,98.9,430.3,100,429.3,101L429.3,101z M433.8,95.3
				c0-0.3,0.2-0.6,0.6-0.6c0,0,0,0,0,0h0c0.3,0,0.6,0.3,0.6,0.6c0,0.1-0.1,0.3-0.2,0.4c-0.2,0.2-0.6,0.2-0.8,0
				C433.9,95.6,433.8,95.4,433.8,95.3L433.8,95.3z M431.1,83.7c0.6,1.3,1.1,2.6,1.5,3.9c0.4,1.4,0.7,2.7,0.8,4.1
				C432.2,89.2,431.4,86.5,431.1,83.7L431.1,83.7z M433.2,123.7l1.3-25.3l0.1-0.1l0.1,0.1l1.3,25.2L433.2,123.7z M442.1,97.3
				c-1.4-0.3-2.7-0.8-4.1-1.3c2.8,0.2,5.6,0.9,8.2,2C444.8,97.8,443.4,97.6,442.1,97.3L442.1,97.3z"/>
			<path id="路径_15982-12_00000080202905599569087600000013905223222590062245_" class="st5" d="M372.1,149.9
				c-0.1-0.5-0.5-0.9-1-0.9H328c-0.5,0-0.9,0.4-1,0.9l-5.3,34.5c-0.1,0.6,0.3,1.1,0.9,1.2c0,0,0,0,0,0l0,0c0.1,0,0.1,0,0.2,0h19.8
				l-3.7,10.2h-6c-0.6,0-1,0.5-1,1v4c0,0.6,0.5,1,1,1h34.9c0.6,0,1-0.5,1-1v-4c0-0.6-0.5-1-1-1h-7.8l-3.7-10.2h19.5c0,0,0,0,0,0
				c0.6,0,1-0.5,1-1l0,0l0,0c0-0.1,0-0.2-0.1-0.3L372.1,149.9z M326.2,168.4h7.8l-0.7,6.5h-8.1L326.2,168.4z M327.5,159.9h7.4
				l-0.7,6.5h-7.7L327.5,159.9z M372.1,166.4h-7.6l-0.5-6.5h7.3L372.1,166.4z M362.5,166.4H355l-0.2-6.5h7.2L362.5,166.4z
				 M345.9,166.4l0.3-6.5h6.5l0.2,6.5H345.9z M352.9,168.4l0.2,6.5h-7.7l0.3-6.5H352.9z M354.7,157.8l-0.2-6.7c0,0,0,0,0,0h6.7
				c0,0,0,0.1,0,0.1l0.5,6.6L354.7,157.8z M352.7,157.8h-6.3l0.4-6.6c0,0,0-0.1,0-0.1h5.8c0,0,0,0.1,0,0.1L352.7,157.8z
				 M344.6,151.1l-0.4,6.7h-7l0.7-6.6c0-0.1,0-0.1,0-0.2L344.6,151.1L344.6,151.1z M344.1,159.9l-0.3,6.5h-7.5l0.7-6.5H344.1z
				 M336.1,168.4h7.6l-0.3,6.5h-8L336.1,168.4z M343.2,177l-0.3,6.5h-8.4l0.7-6.5H343.2z M345.3,177h7.9l0.2,6.5h-8.4L345.3,177z
				 M355.2,177h8.1l0.5,6.5h-8.4L355.2,177z M355.2,174.9l-0.2-6.5h7.6l0.5,6.5H355.2z M364.7,168.4h7.7l0.8,6.5h-8L364.7,168.4z
				 M371,157.8h-7.2l-0.5-6.7h6.8L371,157.8z M328.8,151.1h7l-0.7,6.7h-7.3L328.8,151.1z M324.8,177h8.2l-0.7,6.5h-8.5L324.8,177z
				 M366.5,199.8h-32.8v-2h32.8V199.8z M340.9,195.8l3.7-10.2h9.2l3.7,10.2H340.9z M365.9,183.5l-0.5-6.5h8.1l0.8,6.5H365.9z"/>
			<path id="路径_15983-12_00000183214941874668770160000003367571114358574264_" class="st5" d="M500.7,46.4H496v-8.3h4.7
				L500.7,46.4z M522.6,38.1v8.3h-2.9v5.4h-29.1v-11c-14.2,5.8-30.3-1-36.1-15.2c-5.8-14.2,1-30.3,15.2-36.1s30.3,1,36.1,15.2
				c3.8,9.4,2.2,20.1-4.2,28h18.1v5.4L522.6,38.1z M497.8,16.5c0,0.2,0.1,0.4,0.2,0.5l2.8,2.2c0.1,0.1,0.3,0.2,0.5,0.1l3-0.5
				c0.1,0,0.3,0,0.4,0.1l0,0c0.7-4.8,0-9.7-2-14.1c-0.2-0.1-0.4-0.1-0.5,0L501,5.5c-0.2,0.1-0.3,0.3-0.3,0.5v2.6
				c0,0.1,0,0.2-0.1,0.3l-2.6,4.7c-0.1,0.1-0.1,0.2-0.1,0.3L497.8,16.5z M481.9-9.6l0.2,0.3c0.1,0.1,0.1,0.2,0.2,0.2l2.5,1.6
				c0.2,0.1,0.3,0.3,0.4,0.5c0.2,0.6,0.6,1.8,0.6,2c0,0.2,1.2,2.1,1.6,2.7c0.1,0.1,0.2,0.2,0.3,0.3c0.4,0.3,1,0.1,1.3-0.3
				c0,0,0-0.1,0-0.1l0.9-1.8c0.1-0.2,0.2-0.3,0.4-0.4l2.5-1.2c0,0,0,0,0.1,0l0.1,0C489.7-8.1,485.9-9.3,481.9-9.6L481.9-9.6z
				 M490.3,28.8l2.1-5.2c0.2-0.5,0-1.1-0.5-1.3c0,0,0,0,0,0l-4.6-1.6c-0.2-0.1-0.4-0.2-0.5-0.5l-0.4-0.7c-0.1-0.2-0.2-0.3-0.4-0.4
				l-3.4-2c-0.2-0.1-0.3-0.1-0.5-0.1h-2.9c-0.4,0-0.7,0.2-0.9,0.5l-0.2,0.4c-0.1,0-0.1,0-0.2,0c-0.2,0-0.4-0.1-0.6-0.3l-2.5-3.1
				c-0.2-0.2-0.5-0.4-0.8-0.3l-0.7,0.2c-0.2,0.1-0.4,0-0.6-0.1l-1-0.7c-0.3-0.2-0.4-0.5-0.4-0.9l0.3-1.1c0.1-0.4,0.4-0.6,0.8-0.6
				h3.8c0.3,0,0.5-0.1,0.7-0.4l2.5-4c0.1-0.1,0.2-0.3,0.4-0.3l2.2-0.9c0.2-0.1,0.3-0.2,0.4-0.3l2-2.9c0.2-0.3,0.2-0.7-0.1-1
				l-2.2-2.5c-0.1-0.1-0.2-0.2-0.4-0.2l-3-1c-0.4-0.1-0.9,0.1-1,0.5c0,0,0,0,0,0l0,0c0,0,0,0,0,0.1l-0.5,2.3c-0.1,0.4-0.5,0.7-1,0.6
				c-0.1,0-0.1,0-0.2-0.1l-2.6-1.2c-0.1-0.1-0.3-0.2-0.4-0.3l-0.5-0.9c-0.2-0.4-0.1-0.8,0.2-1.1l3.3-2.7c0.2-0.2,0.3-0.5,0.3-0.7
				l-0.1-0.9l0.9-0.1c0.2,0,0.4,0,0.6,0.2l0.9,0.6c0.2,0.1,0.3,0.4,0.3,0.6v0.4c0,0.3,0.1,0.5,0.4,0.7l1.7,1
				c0.4,0.2,0.8,0.1,1.1-0.2c0-0.1,0.1-0.2,0.1-0.2l0.2-1c0.1-0.2,0-0.5-0.2-0.7l-3.2-3.6c-0.2-0.2-0.5-0.3-0.7-0.2l-0.8,0.2
				c0,0-0.1,0-0.1,0h-1.3c-6.6,1.1-12.5,4.8-16.4,10.4l2,2c0.1,0.1,0.2,0.3,0.2,0.5l0.2,3.1c0,0.2,0.1,0.3,0.2,0.5l6.3,7.2
				c0.1,0.1,0.2,0.1,0.2,0.2l5.5,2.8c0,0,0,0,0,0l1.6,0.7c0.2,0.1,0.3,0.2,0.4,0.4l0.5,1c0.1,0.1,0.2,0.3,0.3,0.4l-0.6,2.1
				c-0.1,0.2,0,0.5,0.1,0.7l1.3,2.7c0.1,0.2,0.2,0.3,0.4,0.4l1.1,0.7c0.3,0.2,0.5,0.6,0.5,1l-1.4,10.1c0,0.2,0,0.4,0.1,0.6l1,2.1
				h0.3c0.6,0,1.1,0,1.7-0.1c0-0.2-0.1-0.4-0.2-0.6l-0.5-0.7c-0.2-0.3-0.3-0.7-0.1-1.1l1.6-2.9c0.1-0.2,0.2-0.3,0.4-0.4l1.2-0.7
				c0.1-0.1,0.2-0.1,0.3-0.2l3-3.4c0.1-0.1,0.3-0.2,0.5-0.3l1.5-0.4C490,29.3,490.2,29.1,490.3,28.8L490.3,28.8z M516.9,35.4h-23.6
				v13.7h23.6L516.9,35.4z"/>
		</g>
	</g>
	
		<g id="main_bg_00000013908114509691857430000001389499832153511819_" transform="translate(-23 -311)" style="clip-path:url(#路径_16116_00000146489112996401494280000005346422954705753495_);">
		<g id="main_bg-2_00000145035666426559725870000010780032721955152806_" transform="translate(17.087 301.519)" class="st4">
			<g id="组_183-12_00000159428517138210531990000003063406421175390889_">
				<path id="路径_15877-12_00000175293028079324254010000002868500046485216426_" class="st5" d="M775.5,93.6L775.5,93.6
					l-14.7-25.6L746,93.6h0c-4.3,8.1-1.2,18.2,6.9,22.6c8.1,4.3,18.2,1.2,22.6-6.9C778.1,104.4,778.1,98.5,775.5,93.6L775.5,93.6z
					 M760.4,114.3c-6.8,0-12.2-5.5-12.2-12.2c0-1,0.8-1.8,1.8-1.8c1,0,1.7,0.8,1.8,1.8c0,4.8,3.9,8.6,8.7,8.7c1,0.1,1.7,0.9,1.7,1.9
					C762,113.6,761.3,114.3,760.4,114.3z"/>
				<path id="路径_15878-12_00000138563678336713861430000006638026384653464192_" class="st5" d="M789.3,79.3L789.3,79.3l-7-12.2
					l-7,12.2h0c-2.1,3.9-0.6,8.7,3.3,10.8c3.9,2.1,8.7,0.6,10.8-3.3C790.6,84.5,790.6,81.7,789.3,79.3z M782.1,89.2
					c-3.2,0-5.8-2.6-5.8-5.8c0-0.5,0.4-0.9,0.9-0.9s0.9,0.4,0.9,0.9l0,0c0,2.3,1.9,4.1,4.1,4.1c0.5,0,0.9,0.4,0.9,0.9
					S782.6,89.2,782.1,89.2L782.1,89.2z"/>
			</g>
			<path id="路径_15872-12_00000161594536898360262560000000859827579208286592_" class="st5" d="M699.7,202h-5.1
				c-0.1,0-0.1-0.1-0.2-0.1c-0.9-0.1-1.8-0.2-2.6-0.4c-2.7-0.4-5.3-1.3-7.7-2.5c-2.3-1.1-4.4-2.5-6.3-4.2c-1.8-1.6-3.5-3.4-4.9-5.4
				c-1.5-2.1-2.7-4.3-3.5-6.7c-0.8-2.1-1.3-4.2-1.6-6.4c-0.1-0.5-0.2-0.9-0.2-1.4v-5.1c0-0.1,0.1-0.1,0.1-0.2
				c0.1-0.9,0.2-1.8,0.4-2.6c0.4-2.7,1.3-5.3,2.5-7.7c1.1-2.3,2.5-4.4,4.2-6.3c1.6-1.8,3.4-3.5,5.4-4.9c2.1-1.5,4.3-2.7,6.7-3.5
				c2.1-0.8,4.2-1.3,6.4-1.6c0.5-0.1,0.9-0.2,1.4-0.2h5.1c0.1,0,0.1,0.1,0.2,0.1c0.9,0.1,1.8,0.2,2.6,0.4c2.7,0.4,5.3,1.3,7.7,2.5
				c2.3,1.1,4.4,2.5,6.3,4.2c1.8,1.6,3.5,3.4,4.9,5.4c1.5,2.1,2.7,4.3,3.5,6.7c0.8,2.1,1.3,4.2,1.6,6.4c0.1,0.5,0.2,0.9,0.2,1.4v5.1
				c0,0.1-0.1,0.1-0.1,0.2c-0.1,0.9-0.2,1.8-0.4,2.6c-0.4,2.7-1.3,5.3-2.5,7.7c-1.1,2.3-2.5,4.4-4.2,6.3c-1.6,1.8-3.4,3.5-5.4,4.9
				c-2.1,1.5-4.3,2.7-6.7,3.5c-2.1,0.8-4.2,1.3-6.4,1.6C700.6,201.8,700.2,201.9,699.7,202z M699.8,190.6l0.2,0.1
				c1.2-1.3,2.5-2.6,3.6-3.9c1.4-1.6,2.4-3.4,3.2-5.4c1.2-2.9,1.6-6.1,1.3-9.2c-0.1-1.6-0.5-3.3-1-4.8c-1-2.9-2.5-5.6-4.7-7.8
				c-1.6-1.7-3.3-3.3-5-5c-0.1-0.1-0.2-0.2-0.3-0.3c-1.4,1.4-2.8,2.8-4.2,4.2c-2.1,2-3.8,4.3-4.9,6.9c-1.1,2.4-1.7,5-1.8,7.7
				c0,1.5,0.1,2.9,0.3,4.4c0.4,2.8,1.4,5.4,3,7.7c0.8,1.1,1.7,2.3,2.6,3.3c0.7,0.8,1.5,1.5,2.2,2.3l0.1-0.1v-11.9h5.3L699.8,190.6z"
				/>
			<path id="路径_15980-12_00000140725612041923219650000011008729558152878503_" class="st5" d="M565.9,15.5
				c1.4,0.4,2.3,2,1.8,3.4l0,0.1l-1.7,5l2.8,3.8l1.1-0.8l1.6,2.2l1.3-0.9l3.3,4.5c0,0,1.3,11.5,1.8,12.1c1.9,2.6,1.1,6.4-1.9,8.6
				s-6.8,1.7-8.7-0.9c-0.5-0.6-11-5.4-11-5.4l-3.3-4.5l1.3-0.9l-1.6-2.2l1.1-0.8l-1.8-2.4l-0.1,0.2c-0.5,1.5-2.1,2.2-3.6,1.7
				c-1.4-0.5-2.2-2-1.7-3.5c0,0,0-0.1,0-0.1L556.4,8c0.5-1.5,2.1-2.2,3.6-1.7c1.4,0.5,2.2,2,1.7,3.5c0,0,0,0,0,0l0,0l0,0.1
				l-7.8,21.7l3.4,4.7l1.1-0.8l1.6,2.2l6-4.3l-1.6-2.2l1.1-0.8l-2.4-3.3c-0.3,0-0.6,0-0.9-0.1c-1.4-0.4-2.2-2-1.8-3.4
				c0,0,0-0.1,0-0.1l2-6C562.8,15.8,564.4,15,565.9,15.5z M549.4-0.7L540,25.1c-0.5,1.4,0.2,3,1.6,3.5c0,0,0,0,0,0l0.1,0
				c1.5,0.5,3.1-0.3,3.6-1.7l9.4-25.8c0.5-1.4-0.2-3-1.6-3.5l-0.1,0C551.6-3,550-2.2,549.4-0.7L549.4-0.7z M537.8,19.6
				c0.5-0.3,0.8-0.8,1-1.3l9.3-25c0.5-1.4-0.2-3-1.6-3.5c0,0,0,0,0,0l0,0c0,0,0,0-0.1,0c-1.5-0.5-3.1,0.3-3.6,1.7l-9.3,25
				c-0.5,1.4,0.2,3,1.6,3.5l0.1,0C536.1,20.3,537,20.1,537.8,19.6z M531.8,11.5c0.5-0.3,0.8-0.8,1-1.3l3.8-10.6
				c0.5-1.4-0.2-3-1.6-3.5c0,0,0,0,0,0l0,0l-0.1,0c-1.5-0.5-3.1,0.3-3.6,1.8l-3.8,10.6c-0.5,1.4,0.2,3,1.6,3.5l0,0l0.1,0
				C530.1,12.2,531,12,531.8,11.5L531.8,11.5z"/>
			<path id="路径_15981-12_00000083790329332475415470000008130296703450272437_" class="st5" d="M614.7,93c1.4-1.4,2.6-3,3.8-4.6
				l-1.8,36.2c0,0.2,0.1,0.4,0.2,0.6c0.1,0.2,0.4,0.2,0.6,0.2h6.1c0.4,0,0.8-0.3,0.8-0.8c0,0,0,0,0,0v0c0-0.1,0-0.1,0-0.2l-1.8-36.8
				c0-0.2-0.1-0.4-0.2-0.5l-0.9-0.9c0.3-0.1,0.6-0.3,0.9-0.6c0.1-0.1,0.1-0.1,0.1-0.2c0,0,0.1,0,0.1,0.1c2.6,1.2,5.3,2.2,8.1,2.9
				c3.1,0.7,6.3,1.1,9.5,1.1c1.1,0,1.7,0,1.7,0c0.4,0,0.8-0.4,0.7-0.9c0-0.3-0.2-0.5-0.4-0.6c-3.3-1.9-6.8-3.3-10.5-4.2
				c-2.8-0.7-5.7-1.1-8.7-1.1c-0.1,0-0.2,0-0.2,0c-0.1-0.3-0.3-0.6-0.6-0.9c-0.3-0.3-0.6-0.5-1-0.6c0-0.1,0-0.1,0-0.2
				c0-0.1,0-0.1,0-0.2c-0.2-2.8-0.7-5.6-1.5-8.3c-1.1-3.6-2.6-7.1-4.7-10.3c-0.3-0.4-0.8-0.5-1.1-0.2c-0.2,0.1-0.3,0.4-0.3,0.6
				c0,3.8,0.5,7.5,1.6,11.2c0.8,2.7,1.9,5.4,3.3,7.9c0,0,0,0.1,0.1,0.1c0,0,0,0-0.1,0c-0.6,0.6-0.9,1.6-0.7,2.4
				c-0.1,0-0.1,0-0.2,0.1c-2.3,1.6-4.4,3.3-6.3,5.3c-2.6,2.7-4.8,5.8-6.6,9.2c-0.2,0.4,0,0.9,0.4,1.1c0.1,0.1,0.2,0.1,0.3,0.1
				c0.1,0,0.3,0,0.4-0.1C609,98.1,612,95.8,614.7,93z M623.8,84.3c2.5,0.1,5.1,0.5,7.5,1.1c2.5,0.6,4.9,1.5,7.2,2.6
				c-2.6-0.1-5.1-0.5-7.6-1C628.4,86.2,626.1,85.4,623.8,84.3L623.8,84.3z M622.7,123.9h-4.4l1.8-35.9l0.4-0.4l0.5,0.5L622.7,123.9z
				 M621.1,84.5c-0.4,0.4-1.1,0.4-1.5,0c-0.4-0.4-0.4-1.1,0-1.5c0.4-0.4,1.1-0.4,1.5,0C621.5,83.4,621.5,84.1,621.1,84.5L621.1,84.5
				L621.1,84.5z M616.6,73.5c-0.7-2.5-1.2-5-1.4-7.5c2.4,4.5,3.8,9.4,4.2,14.4l-0.1,0C618.3,78.2,617.3,75.9,616.6,73.5L616.6,73.5z
				 M607.7,96.9c2.6-4.2,6-7.8,10.1-10.7c0,0,0.1,0.1,0.1,0.1l0,0C615.2,90.5,611.7,94.1,607.7,96.9z M662.2,98.1
				c-2.4-1.4-4.9-2.4-7.6-3.1c-2.1-0.5-4.2-0.8-6.3-0.8c0,0,0,0-0.1,0c-0.1-0.2-0.2-0.4-0.4-0.5c-0.2-0.2-0.4-0.3-0.6-0.4
				c0-0.1,0-0.1,0-0.2c-0.1-2-0.5-4-1.1-5.9c-0.8-2.6-1.9-5.1-3.4-7.5c-0.3-0.4-0.7-0.5-1.1-0.2c-0.2,0.1-0.3,0.4-0.3,0.6
				c0,2.7,0.4,5.5,1.1,8.1c0.6,2,1.4,3.8,2.3,5.6c-0.3,0.4-0.5,0.9-0.5,1.4c0,0.1,0,0.2,0,0.2l0,0c-1.6,1.1-3.2,2.4-4.5,3.8
				c-1.9,2-3.5,4.2-4.8,6.7c-0.2,0.4,0,0.9,0.4,1.1c0.2,0.1,0.5,0.1,0.7,0c3.4-1.9,6.4-4.6,8.8-7.8l-1.2,25.1c0,0.4,0.3,0.8,0.8,0.8
				h4.4c0.4,0,0.8-0.4,0.8-0.8c0-0.1,0-0.1,0-0.2l-1.3-26.2c0-0.2-0.1-0.4-0.2-0.5l-0.4-0.4c0.2-0.1,0.3-0.2,0.4-0.3l0,0
				c1.8,0.9,3.8,1.6,5.7,2.1c2.3,0.5,4.6,0.8,6.9,0.8c0.8,0,1.2,0,1.2,0c0.4,0,0.8-0.4,0.7-0.9C662.6,98.5,662.4,98.3,662.2,98.1
				L662.2,98.1z M641.3,101c-1,1-2,1.9-3.2,2.8c1.6-2.3,3.6-4.4,5.8-6.1C643.2,98.9,642.3,100,641.3,101L641.3,101z M645.8,95.3
				c0-0.3,0.2-0.6,0.6-0.6c0,0,0,0,0,0h0c0.3,0,0.6,0.3,0.6,0.6c0,0.1-0.1,0.3-0.2,0.4c-0.2,0.2-0.6,0.2-0.8,0
				C645.9,95.6,645.8,95.4,645.8,95.3L645.8,95.3z M643.1,83.7c0.6,1.3,1.1,2.6,1.5,3.9c0.4,1.4,0.7,2.7,0.8,4.1
				C644.2,89.2,643.4,86.5,643.1,83.7L643.1,83.7z M645.2,123.7l1.3-25.3l0.1-0.1l0.1,0.1l1.3,25.2L645.2,123.7z M654.1,97.3
				c-1.4-0.3-2.7-0.8-4.1-1.3c2.8,0.2,5.6,0.9,8.2,2C656.8,97.8,655.4,97.6,654.1,97.3L654.1,97.3z"/>
			<path id="路径_15982-12_00000103957649098767299370000018399916395586751153_" class="st5" d="M584.1,149.9
				c-0.1-0.5-0.5-0.9-1-0.9H540c-0.5,0-0.9,0.4-1,0.9l-5.3,34.5c-0.1,0.6,0.3,1.1,0.9,1.2c0,0,0,0,0,0l0,0c0.1,0,0.1,0,0.2,0h19.8
				l-3.7,10.2h-6c-0.6,0-1,0.5-1,1v4c0,0.6,0.5,1,1,1h34.9c0.6,0,1-0.5,1-1v-4c0-0.6-0.5-1-1-1h-7.8l-3.7-10.2h19.5c0,0,0,0,0,0
				c0.6,0,1-0.5,1-1l0,0l0,0c0-0.1,0-0.2-0.1-0.3L584.1,149.9z M538.2,168.4h7.8l-0.7,6.5h-8.1L538.2,168.4z M539.5,159.9h7.4
				l-0.7,6.5h-7.7L539.5,159.9z M584.1,166.4h-7.6l-0.5-6.5h7.3L584.1,166.4z M574.5,166.4H567l-0.2-6.5h7.2L574.5,166.4z
				 M557.9,166.4l0.3-6.5h6.5l0.2,6.5H557.9z M564.9,168.4l0.2,6.5h-7.7l0.3-6.5H564.9z M566.7,157.8l-0.2-6.7c0,0,0,0,0,0h6.7
				c0,0,0,0.1,0,0.1l0.5,6.6L566.7,157.8z M564.7,157.8h-6.3l0.4-6.6c0,0,0-0.1,0-0.1h5.8c0,0,0,0.1,0,0.1L564.7,157.8z
				 M556.6,151.1l-0.4,6.7h-7.1l0.7-6.6c0-0.1,0-0.1,0-0.2L556.6,151.1L556.6,151.1z M556.1,159.9l-0.3,6.5h-7.5l0.7-6.5H556.1z
				 M548.1,168.4h7.6l-0.3,6.5h-8L548.1,168.4z M555.2,177l-0.3,6.5h-8.4l0.7-6.5H555.2z M557.3,177h7.9l0.2,6.5h-8.4L557.3,177z
				 M567.2,177h8.1l0.5,6.5h-8.4L567.2,177z M567.2,174.9l-0.2-6.5h7.6l0.5,6.5H567.2z M576.7,168.4h7.7l0.8,6.5h-8L576.7,168.4z
				 M583,157.8h-7.2l-0.5-6.7h6.8L583,157.8z M540.8,151.1h7l-0.7,6.7h-7.3L540.8,151.1z M536.8,177h8.2l-0.7,6.5h-8.5L536.8,177z
				 M578.5,199.8h-32.8v-2h32.8V199.8z M552.9,195.8l3.7-10.2h9.2l3.7,10.2H552.9z M577.9,183.5l-0.5-6.5h8.1l0.8,6.5H577.9z"/>
			<path id="路径_15983-12_00000177467254859840566340000014233212115698793642_" class="st5" d="M712.7,46.4H708v-8.3h4.7
				L712.7,46.4z M734.6,38.1v8.3h-2.9v5.4h-29.1v-11c-14.2,5.8-30.3-1-36.1-15.2c-5.8-14.2,1-30.3,15.2-36.1
				c14.2-5.8,30.3,1,36.1,15.2c3.8,9.4,2.2,20.1-4.2,28h18.1v5.4L734.6,38.1z M709.8,16.5c0,0.2,0.1,0.4,0.2,0.5l2.8,2.2
				c0.1,0.1,0.3,0.2,0.5,0.1l3-0.5c0.1,0,0.3,0,0.4,0.1l0,0c0.7-4.8,0-9.7-2-14.1c-0.2-0.1-0.4-0.1-0.6,0L713,5.5
				c-0.2,0.1-0.3,0.3-0.3,0.5v2.6c0,0.1,0,0.2-0.1,0.3l-2.6,4.7c-0.1,0.1-0.1,0.2-0.1,0.3L709.8,16.5z M693.9-9.6l0.2,0.3
				c0.1,0.1,0.1,0.2,0.2,0.2l2.5,1.6c0.2,0.1,0.3,0.3,0.4,0.5c0.2,0.6,0.6,1.8,0.6,2c0,0.2,1.2,2.1,1.6,2.7c0.1,0.1,0.2,0.2,0.3,0.3
				c0.4,0.3,1,0.1,1.3-0.3c0,0,0-0.1,0-0.1l0.9-1.8c0.1-0.2,0.2-0.3,0.4-0.4l2.5-1.2c0,0,0,0,0.1,0l0.1,0
				C701.7-8.1,697.9-9.3,693.9-9.6L693.9-9.6z M702.3,28.8l2.1-5.2c0.2-0.5,0-1.1-0.5-1.3c0,0,0,0,0,0l-4.6-1.6
				c-0.2-0.1-0.4-0.2-0.5-0.5l-0.4-0.7c-0.1-0.2-0.2-0.3-0.4-0.4l-3.4-2c-0.2-0.1-0.3-0.1-0.5-0.1h-2.9c-0.4,0-0.7,0.2-0.9,0.5
				l-0.2,0.4c-0.1,0-0.1,0-0.2,0c-0.2,0-0.4-0.1-0.6-0.3l-2.5-3.1c-0.2-0.2-0.5-0.4-0.8-0.3l-0.7,0.2c-0.2,0.1-0.4,0-0.6-0.1l-1-0.7
				c-0.3-0.2-0.4-0.5-0.4-0.9l0.3-1.1c0.1-0.4,0.4-0.6,0.8-0.6h3.8c0.3,0,0.5-0.1,0.7-0.4l2.5-4c0.1-0.1,0.2-0.3,0.4-0.3l2.2-0.9
				c0.2-0.1,0.3-0.2,0.4-0.3l2-2.9c0.2-0.3,0.2-0.7-0.1-1l-2.2-2.5c-0.1-0.1-0.2-0.2-0.4-0.2l-3-1c-0.4-0.1-0.9,0.1-1,0.5
				c0,0,0,0,0,0l0,0c0,0,0,0,0,0.1l-0.5,2.3c-0.1,0.4-0.5,0.7-1,0.6c-0.1,0-0.1,0-0.2-0.1l-2.6-1.2c-0.1-0.1-0.3-0.2-0.4-0.3
				l-0.5-0.9c-0.2-0.4-0.1-0.8,0.2-1.1l3.3-2.7c0.2-0.2,0.3-0.5,0.3-0.7l-0.1-0.9l0.9-0.1c0.2,0,0.4,0,0.6,0.2l0.9,0.6
				c0.2,0.1,0.3,0.4,0.3,0.6v0.4c0,0.3,0.1,0.5,0.4,0.7l1.7,1c0.4,0.2,0.8,0.1,1.1-0.2c0-0.1,0.1-0.2,0.1-0.2l0.2-1
				c0.1-0.2,0-0.5-0.2-0.7l-3.2-3.6c-0.2-0.2-0.5-0.3-0.7-0.2l-0.8,0.2c0,0-0.1,0-0.1,0h-1.3c-6.6,1.1-12.5,4.8-16.4,10.4l2,2
				c0.1,0.1,0.2,0.3,0.2,0.5l0.2,3.1c0,0.2,0.1,0.3,0.2,0.5l6.3,7.2c0.1,0.1,0.2,0.1,0.2,0.2l5.5,2.8c0,0,0,0,0,0l1.6,0.7
				c0.2,0.1,0.3,0.2,0.4,0.4l0.5,1c0.1,0.1,0.2,0.3,0.3,0.4l-0.6,2.1c-0.1,0.2,0,0.5,0.1,0.7l1.3,2.7c0.1,0.2,0.2,0.3,0.4,0.4
				l1.1,0.7c0.3,0.2,0.5,0.6,0.5,1l-1.5,10.1c0,0.2,0,0.4,0.1,0.6l1,2.1h0.3c0.6,0,1.1,0,1.7-0.1c0-0.2-0.1-0.4-0.2-0.6l-0.5-0.7
				c-0.2-0.3-0.3-0.7-0.1-1.1l1.6-2.9c0.1-0.2,0.2-0.3,0.4-0.4l1.2-0.7c0.1-0.1,0.2-0.1,0.3-0.2l3-3.4c0.1-0.1,0.3-0.2,0.5-0.3
				l1.5-0.4C702,29.3,702.2,29.1,702.3,28.8L702.3,28.8z M728.9,35.4h-23.6v13.7h23.6L728.9,35.4z"/>
		</g>
	</g>
	
		<g id="main_bg_00000081647244285628716490000000626491043829369517_" transform="translate(-23 -311)" style="clip-path:url(#路径_16116_00000146489112996401494280000005346422954705753495_);">
		<g id="main_bg-2_00000051376889804028338730000008275773557334705026_" transform="translate(17.087 301.519)" class="st4">
			<g id="组_183-12_00000120538492421082150520000016859464094652593832_">
				<path id="路径_15877-12_00000158030598639733052740000004794317275424218274_" class="st5" d="M1943.5,94.2L1943.5,94.2
					l-14.7-25.6L1914,94.2h0c-4.3,8.1-1.2,18.2,6.9,22.6c8.1,4.3,18.2,1.2,22.6-6.9C1946.1,104.9,1946.1,99.1,1943.5,94.2
					L1943.5,94.2z M1928.4,114.9c-6.8,0-12.2-5.5-12.2-12.2c0-1,0.8-1.8,1.8-1.8c1,0,1.7,0.8,1.8,1.8c0,4.8,3.9,8.6,8.7,8.7
					c1,0.1,1.7,0.9,1.7,1.9C1930,114.1,1929.3,114.8,1928.4,114.9z"/>
			</g>
			<path id="路径_15872-12_00000105397960758356412300000012948965968933419929_" class="st5" d="M1867.7,202.5h-5.1
				c-0.1,0-0.1-0.1-0.2-0.1c-0.9-0.1-1.8-0.2-2.6-0.4c-2.7-0.4-5.3-1.3-7.7-2.5c-2.3-1.1-4.4-2.5-6.3-4.2c-1.8-1.6-3.5-3.4-4.9-5.4
				c-1.5-2.1-2.7-4.3-3.5-6.7c-0.8-2.1-1.3-4.2-1.6-6.4c0-0.5-0.1-0.9-0.2-1.4v-5.1c0-0.1,0.1-0.1,0.1-0.2c0.1-0.9,0.2-1.8,0.4-2.6
				c0.4-2.7,1.3-5.3,2.5-7.7c1.1-2.3,2.5-4.4,4.2-6.3c1.6-1.8,3.4-3.5,5.4-4.9c2.1-1.5,4.3-2.7,6.7-3.5c2.1-0.8,4.2-1.3,6.4-1.6
				c0.5-0.1,0.9-0.2,1.4-0.2h5.1c0.1,0,0.1,0.1,0.2,0.1c0.9,0.1,1.8,0.2,2.6,0.4c2.7,0.4,5.3,1.3,7.7,2.5c2.3,1.1,4.4,2.5,6.3,4.2
				c1.8,1.6,3.5,3.4,4.9,5.4c1.5,2.1,2.7,4.3,3.5,6.7c0.8,2.1,1.3,4.2,1.6,6.4c0.1,0.5,0.2,0.9,0.2,1.4v5.1c0,0.1-0.1,0.1-0.1,0.2
				c-0.1,0.9-0.2,1.8-0.4,2.6c-0.4,2.7-1.3,5.3-2.5,7.7c-1.1,2.3-2.5,4.4-4.2,6.3c-1.6,1.8-3.4,3.5-5.4,4.9
				c-2.1,1.5-4.3,2.7-6.7,3.5c-2.1,0.8-4.2,1.3-6.4,1.6C1868.6,202.3,1868.2,202.4,1867.7,202.5z M1867.8,191.1l0.2,0.1
				c1.2-1.3,2.5-2.6,3.6-3.9c1.4-1.6,2.4-3.4,3.2-5.4c1.2-2.9,1.6-6.1,1.3-9.2c-0.1-1.6-0.5-3.3-1-4.8c-1-2.9-2.5-5.6-4.7-7.8
				c-1.6-1.7-3.3-3.3-5-5c-0.1-0.1-0.2-0.2-0.3-0.3c-1.4,1.4-2.8,2.8-4.2,4.2c-2.1,2-3.8,4.3-4.9,6.9c-1.1,2.4-1.7,5-1.8,7.7
				c0,1.5,0.1,2.9,0.3,4.4c0.4,2.8,1.4,5.4,3,7.7c0.8,1.1,1.7,2.3,2.6,3.3c0.7,0.8,1.5,1.5,2.2,2.3l0.1-0.1v-11.9h5.3L1867.8,191.1z
				"/>
			<path id="路径_15980-12_00000056405134116213005140000007124105070282177187_" class="st5" d="M1733.9,16
				c1.4,0.4,2.3,2,1.8,3.4l0,0.1l-1.7,5l2.8,3.8l1.1-0.8l1.6,2.2l1.3-0.9l3.3,4.5c0,0,1.3,11.5,1.8,12.1c1.9,2.6,1.1,6.4-1.9,8.6
				c-2.9,2.1-6.8,1.7-8.7-0.9c-0.5-0.6-11-5.4-11-5.4l-3.3-4.5l1.3-0.9l-1.6-2.2l1.1-0.8l-1.8-2.4l-0.1,0.2
				c-0.5,1.5-2.1,2.2-3.6,1.7c-1.4-0.5-2.2-2-1.7-3.5c0,0,0-0.1,0-0.1l9.6-26.6c0.5-1.5,2.1-2.2,3.6-1.7c1.4,0.5,2.2,2,1.7,3.5
				c0,0,0,0,0,0l0,0l0,0.1l-7.8,21.7l3.4,4.7l1.1-0.8l1.6,2.2l6-4.3l-1.6-2.2l1.1-0.8l-2.4-3.3c-0.3,0-0.6,0-0.9-0.1
				c-1.4-0.4-2.2-2-1.8-3.4c0,0,0-0.1,0-0.1l2-6C1730.8,16.4,1732.4,15.6,1733.9,16z M1717.4-0.2l-9.4,25.8c-0.5,1.4,0.2,3,1.6,3.5
				c0,0,0,0,0,0l0.1,0c1.5,0.5,3.1-0.3,3.6-1.7l9.4-25.8c0.5-1.4-0.2-3-1.6-3.5l-0.1,0C1719.6-2.4,1718-1.7,1717.4-0.2L1717.4-0.2z
				 M1705.8,20.1c0.5-0.3,0.8-0.8,1-1.3l9.3-25c0.5-1.4-0.2-3-1.6-3.5c0,0,0,0,0,0l0,0c0,0,0,0-0.1,0c-1.5-0.5-3.1,0.3-3.6,1.7
				l-9.3,25c-0.5,1.4,0.2,3,1.6,3.5l0.1,0C1704.1,20.8,1705,20.7,1705.8,20.1z M1699.8,12c0.5-0.3,0.8-0.8,1-1.3l3.8-10.6
				c0.5-1.4-0.2-3-1.6-3.5c0,0,0,0,0,0l0,0l-0.1,0c-1.5-0.5-3.1,0.3-3.6,1.8l-3.8,10.6c-0.5,1.4,0.2,3,1.6,3.5l0,0l0.1,0
				C1698.1,12.7,1699,12.6,1699.8,12L1699.8,12z"/>
			<path id="路径_15981-12_00000180360261764694184420000002530319930801179816_" class="st5" d="M1782.7,93.6
				c1.4-1.4,2.6-3,3.8-4.6l-1.8,36.2c0,0.2,0.1,0.4,0.2,0.6c0.1,0.2,0.4,0.2,0.6,0.2h6.1c0.4,0,0.8-0.3,0.8-0.8c0,0,0,0,0,0v0
				c0-0.1,0-0.1,0-0.2l-1.8-36.8c0-0.2-0.1-0.4-0.2-0.5l-0.9-0.9c0.3-0.1,0.6-0.3,0.9-0.6c0.1-0.1,0.1-0.1,0.1-0.2
				c0,0,0.1,0,0.1,0.1c2.6,1.2,5.3,2.2,8.1,2.9c3.1,0.7,6.3,1.1,9.5,1.1c1.1,0,1.7,0,1.7,0c0.4,0,0.8-0.4,0.7-0.9
				c0-0.3-0.2-0.5-0.4-0.6c-3.3-1.9-6.8-3.3-10.5-4.2c-2.8-0.7-5.7-1.1-8.7-1.1c-0.1,0-0.2,0-0.2,0c-0.1-0.3-0.3-0.6-0.6-0.9
				c-0.3-0.3-0.6-0.5-1-0.6c0-0.1,0-0.1,0-0.2c0-0.1,0-0.1,0-0.2c-0.2-2.8-0.7-5.6-1.5-8.3c-1.1-3.6-2.6-7.1-4.7-10.3
				c-0.3-0.4-0.8-0.5-1.1-0.2c-0.2,0.1-0.3,0.4-0.3,0.6c0,3.8,0.5,7.5,1.6,11.2c0.8,2.7,1.9,5.4,3.3,7.9c0,0,0,0.1,0.1,0.1
				c0,0,0,0-0.1,0c-0.6,0.6-0.9,1.6-0.7,2.4c-0.1,0-0.1,0-0.2,0.1c-2.3,1.6-4.4,3.3-6.3,5.3c-2.6,2.7-4.8,5.8-6.6,9.2
				c-0.2,0.4,0,0.9,0.4,1.1c0.1,0.1,0.2,0.1,0.3,0.1c0.1,0,0.3,0,0.4-0.1C1777,98.6,1780,96.3,1782.7,93.6z M1791.8,84.8
				c2.5,0.1,5.1,0.5,7.5,1.1c2.5,0.6,4.9,1.5,7.2,2.6c-2.6-0.1-5.1-0.5-7.6-1C1796.4,86.8,1794.1,86,1791.8,84.8L1791.8,84.8z
				 M1790.7,124.4h-4.4l1.8-35.9l0.4-0.4l0.5,0.5L1790.7,124.4z M1789.1,85.1c-0.4,0.4-1.1,0.4-1.5,0c-0.4-0.4-0.4-1.1,0-1.5
				c0.4-0.4,1.1-0.4,1.5,0C1789.5,84,1789.5,84.6,1789.1,85.1L1789.1,85.1L1789.1,85.1z M1784.6,74c-0.7-2.5-1.2-5-1.4-7.5
				c2.4,4.5,3.8,9.4,4.2,14.4l-0.1,0C1786.3,78.7,1785.3,76.4,1784.6,74L1784.6,74z M1775.7,97.4c2.6-4.2,6-7.8,10.1-10.7
				c0,0,0.1,0.1,0.1,0.1l0,0C1783.2,91,1779.7,94.6,1775.7,97.4z M1830.2,98.7c-2.4-1.4-4.9-2.4-7.6-3.1c-2.1-0.5-4.2-0.8-6.3-0.8
				c0,0,0,0-0.1,0c-0.1-0.2-0.2-0.4-0.4-0.5c-0.2-0.2-0.4-0.3-0.6-0.4c0-0.1,0-0.1,0-0.2c-0.1-2-0.5-4-1.1-5.9
				c-0.8-2.6-1.9-5.1-3.4-7.5c-0.3-0.4-0.7-0.5-1.1-0.2c-0.2,0.1-0.3,0.4-0.3,0.6c0,2.7,0.4,5.5,1.1,8.1c0.6,2,1.4,3.8,2.3,5.6
				c-0.3,0.4-0.5,0.9-0.5,1.4c0,0.1,0,0.2,0,0.2l0,0c-1.6,1.1-3.2,2.4-4.5,3.8c-1.9,2-3.5,4.2-4.8,6.7c-0.2,0.4,0,0.9,0.4,1.1
				c0.2,0.1,0.5,0.1,0.7,0c3.4-1.9,6.4-4.6,8.8-7.8l-1.2,25.1c0,0.4,0.3,0.8,0.8,0.8h4.4c0.4,0,0.8-0.4,0.8-0.8c0-0.1,0-0.1,0-0.2
				l-1.3-26.2c0-0.2-0.1-0.4-0.2-0.5l-0.4-0.4c0.2-0.1,0.3-0.2,0.4-0.3l0,0c1.8,0.9,3.8,1.6,5.7,2.1c2.3,0.5,4.6,0.8,6.9,0.8
				c0.8,0,1.2,0,1.2,0c0.4,0,0.8-0.4,0.7-0.9C1830.6,99.1,1830.4,98.8,1830.2,98.7L1830.2,98.7z M1809.3,101.5c-1,1-2,1.9-3.2,2.8
				c1.6-2.3,3.6-4.4,5.8-6.1C1811.2,99.4,1810.3,100.5,1809.3,101.5L1809.3,101.5z M1813.8,95.8c0-0.3,0.2-0.6,0.6-0.6c0,0,0,0,0,0
				h0c0.3,0,0.6,0.3,0.6,0.6c0,0.1-0.1,0.3-0.2,0.4c-0.2,0.2-0.6,0.2-0.8,0C1813.9,96.1,1813.8,96,1813.8,95.8L1813.8,95.8z
				 M1811.1,84.2c0.6,1.3,1.1,2.6,1.5,3.9c0.4,1.4,0.7,2.7,0.8,4.1C1812.2,89.8,1811.4,87,1811.1,84.2L1811.1,84.2z M1813.2,124.2
				l1.3-25.3l0.1-0.1l0.1,0.1l1.3,25.2L1813.2,124.2z M1822.1,97.8c-1.4-0.3-2.7-0.8-4.1-1.3c2.8,0.2,5.6,0.9,8.2,2
				C1824.8,98.4,1823.4,98.2,1822.1,97.8L1822.1,97.8z"/>
			<path id="路径_15982-12_00000135660660943433934940000018405653239023546290_" class="st5" d="M1752.1,150.4
				c-0.1-0.5-0.5-0.9-1-0.9H1708c-0.5,0-0.9,0.4-1,0.9l-5.3,34.5c-0.1,0.6,0.3,1.1,0.9,1.2c0,0,0,0,0,0l0,0c0.1,0,0.1,0,0.2,0h19.8
				l-3.7,10.2h-6c-0.6,0-1,0.5-1,1v4c0,0.6,0.5,1,1,1h34.9c0.6,0,1-0.5,1-1v-4c0-0.6-0.5-1-1-1h-7.8l-3.7-10.2h19.5c0,0,0,0,0,0
				c0.6,0,1-0.5,1-1l0,0l0,0c0-0.1,0-0.2-0.1-0.3L1752.1,150.4z M1706.2,169h7.8l-0.7,6.5h-8.1L1706.2,169z M1707.5,160.4h7.4
				l-0.7,6.5h-7.7L1707.5,160.4z M1752.1,166.9h-7.6l-0.5-6.5h7.3L1752.1,166.9z M1742.5,166.9h-7.5l-0.2-6.5h7.2L1742.5,166.9z
				 M1725.9,166.9l0.3-6.5h6.5l0.2,6.5H1725.9z M1732.9,169l0.2,6.5h-7.7l0.3-6.5H1732.9z M1734.7,158.3l-0.2-6.7c0,0,0,0,0,0h6.7
				c0,0,0,0.1,0,0.1l0.5,6.6L1734.7,158.3z M1732.7,158.3h-6.3l0.4-6.6c0,0,0-0.1,0-0.1h5.8c0,0,0,0.1,0,0.1L1732.7,158.3z
				 M1724.6,151.6l-0.4,6.7h-7l0.7-6.6c0-0.1,0-0.1,0-0.2L1724.6,151.6L1724.6,151.6z M1724.1,160.4l-0.3,6.5h-7.5l0.7-6.5H1724.1z
				 M1716.1,169h7.6l-0.3,6.5h-8L1716.1,169z M1723.2,177.5l-0.3,6.5h-8.4l0.7-6.5H1723.2z M1725.3,177.5h7.9l0.2,6.5h-8.4
				L1725.3,177.5z M1735.2,177.5h8.1l0.5,6.5h-8.4L1735.2,177.5z M1735.2,175.5l-0.2-6.5h7.6l0.5,6.5H1735.2z M1744.7,169h7.7
				l0.8,6.5h-8L1744.7,169z M1751,158.3h-7.2l-0.5-6.7h6.8L1751,158.3z M1708.8,151.6h7l-0.7,6.7h-7.3L1708.8,151.6z M1704.8,177.5
				h8.2l-0.7,6.5h-8.5L1704.8,177.5z M1746.5,200.3h-32.8v-2h32.8V200.3z M1720.9,196.3l3.7-10.2h9.2l3.7,10.2H1720.9z M1745.9,184
				l-0.5-6.5h8.1l0.8,6.5H1745.9z"/>
			<path id="路径_15983-12_00000160153570193233678320000003385860133550342531_" class="st5" d="M1880.7,47h-4.7v-8.3h4.7
				L1880.7,47z M1902.6,38.7V47h-2.9v5.4h-29.1v-11c-14.2,5.8-30.3-1-36.1-15.2s1-30.3,15.2-36.1c14.2-5.8,30.3,1,36.1,15.2
				c3.8,9.4,2.2,20.1-4.2,28h18.1v5.4L1902.6,38.7z M1877.8,17.1c0,0.2,0.1,0.4,0.2,0.5l2.8,2.2c0.1,0.1,0.3,0.2,0.5,0.1l3-0.5
				c0.1,0,0.3,0,0.4,0.1l0,0c0.7-4.8,0-9.7-2-14.1c-0.2-0.1-0.4-0.1-0.5,0L1881,6c-0.2,0.1-0.3,0.3-0.3,0.5v2.6c0,0.1,0,0.2-0.1,0.3
				l-2.6,4.7c-0.1,0.1-0.1,0.2-0.1,0.3L1877.8,17.1z M1861.9-9.1l0.2,0.3c0.1,0.1,0.1,0.2,0.2,0.2l2.5,1.6c0.2,0.1,0.3,0.3,0.4,0.5
				c0.2,0.6,0.6,1.8,0.6,2c0,0.2,1.2,2.1,1.6,2.7c0.1,0.1,0.2,0.2,0.3,0.3c0.4,0.3,1,0.1,1.3-0.3c0,0,0-0.1,0-0.1l0.9-1.8
				c0.1-0.2,0.2-0.3,0.4-0.4l2.5-1.2c0,0,0,0,0.1,0l0.1,0C1869.7-7.6,1865.9-8.8,1861.9-9.1L1861.9-9.1z M1870.3,29.3l2.1-5.2
				c0.2-0.5,0-1.1-0.5-1.3c0,0,0,0,0,0l-4.6-1.6c-0.2-0.1-0.4-0.2-0.5-0.5l-0.4-0.7c-0.1-0.2-0.2-0.3-0.4-0.4l-3.4-2
				c-0.2-0.1-0.3-0.1-0.5-0.1h-2.9c-0.4,0-0.7,0.2-0.9,0.5l-0.2,0.4c-0.1,0-0.1,0-0.2,0c-0.2,0-0.4-0.1-0.6-0.3L1855,15
				c-0.2-0.2-0.5-0.4-0.8-0.3l-0.7,0.2c-0.2,0.1-0.4,0-0.6-0.1l-1-0.7c-0.3-0.2-0.4-0.5-0.4-0.9l0.3-1.1c0.1-0.4,0.4-0.6,0.8-0.6
				h3.8c0.3,0,0.5-0.1,0.7-0.4l2.5-4c0.1-0.1,0.2-0.3,0.4-0.3l2.2-0.9c0.2-0.1,0.3-0.2,0.4-0.3l2-2.9c0.2-0.3,0.2-0.7-0.1-1
				l-2.2-2.5c-0.1-0.1-0.2-0.2-0.4-0.2l-3-1c-0.4-0.1-0.9,0.1-1,0.5c0,0,0,0,0,0l0,0c0,0,0,0,0,0.1l-0.5,2.3c-0.1,0.4-0.5,0.7-1,0.6
				c-0.1,0-0.1,0-0.2-0.1l-2.6-1.2c-0.1-0.1-0.3-0.2-0.3-0.3l-0.5-0.9c-0.2-0.4-0.1-0.8,0.2-1.1l3.3-2.7c0.2-0.2,0.3-0.5,0.3-0.7
				l-0.1-0.9l0.9-0.1c0.2,0,0.4,0,0.6,0.2l0.9,0.6c0.2,0.1,0.3,0.4,0.3,0.6v0.4c0,0.3,0.1,0.5,0.4,0.7l1.7,1
				c0.4,0.2,0.8,0.1,1.1-0.2c0-0.1,0.1-0.2,0.1-0.2l0.2-1c0.1-0.2,0-0.5-0.2-0.7l-3.2-3.6c-0.2-0.2-0.5-0.3-0.7-0.2l-0.8,0.2
				c0,0-0.1,0-0.2,0h-1.3c-6.6,1.1-12.5,4.8-16.4,10.4l2,2c0.1,0.1,0.2,0.3,0.2,0.5l0.2,3.1c0,0.2,0.1,0.3,0.2,0.5l6.3,7.2
				c0.1,0.1,0.2,0.1,0.2,0.2l5.5,2.8c0,0,0,0,0,0l1.6,0.7c0.2,0.1,0.3,0.2,0.4,0.4l0.5,1c0.1,0.1,0.2,0.3,0.3,0.4l-0.6,2.1
				c-0.1,0.2,0,0.5,0.1,0.7l1.3,2.7c0.1,0.2,0.2,0.3,0.4,0.4l1.1,0.7c0.3,0.2,0.5,0.6,0.5,1l-1.5,10.1c0,0.2,0,0.4,0.1,0.6l1.1,2.1
				h0.3c0.6,0,1.1,0,1.7-0.1c0-0.2-0.1-0.4-0.2-0.6l-0.5-0.7c-0.2-0.3-0.3-0.7-0.1-1.1l1.6-2.9c0.1-0.2,0.2-0.3,0.4-0.4l1.2-0.7
				c0.1-0.1,0.2-0.1,0.3-0.2l3-3.4c0.1-0.1,0.3-0.2,0.5-0.3l1.5-0.4C1870,29.8,1870.2,29.6,1870.3,29.3L1870.3,29.3z M1896.9,36
				h-23.6v13.7h23.6L1896.9,36z"/>
		</g>
	</g>
</g>
</svg>
