<svg xmlns="http://www.w3.org/2000/svg" xmlns:xlink="http://www.w3.org/1999/xlink" width="416.621" height="84.546" viewBox="0 0 416.621 84.546">
  <defs>
    <linearGradient id="linear-gradient" x1="0.5" x2="0.5" y2="1" gradientUnits="objectBoundingBox">
      <stop offset="0" stop-color="#ab7927"/>
      <stop offset="0.185" stop-color="#c68f46"/>
      <stop offset="0.338" stop-color="#fedb6b"/>
      <stop offset="0.363" stop-color="#f5d065"/>
      <stop offset="0.499" stop-color="#cba04a"/>
      <stop offset="0.602" stop-color="#b1823a"/>
      <stop offset="0.66" stop-color="#a87734"/>
      <stop offset="0.748" stop-color="#a2722f"/>
      <stop offset="0.86" stop-color="#926321"/>
      <stop offset="0.896" stop-color="#8c5e1c"/>
      <stop offset="1" stop-color="#d69c47"/>
    </linearGradient>
    <clipPath id="clip-path">
      <rect id="矩形_40" data-name="矩形 40" width="84.643" height="84.546" fill="url(#linear-gradient)"/>
    </clipPath>
    <linearGradient id="linear-gradient-3" x1="0.018" y1="0.587" x2="1" y2="0.5" gradientUnits="objectBoundingBox">
      <stop offset="0" stop-color="#850"/>
      <stop offset="0.185" stop-color="#c68f46"/>
      <stop offset="0.404" stop-color="#6f4103"/>
      <stop offset="0.748" stop-color="#a2722f"/>
      <stop offset="0.896" stop-color="#4f2f02"/>
      <stop offset="1" stop-color="#d69c47"/>
    </linearGradient>
  </defs>
  <g id="logo" transform="translate(0 2.579)">
    <text id="Environmental_Protection_Administration_Executive_Yuan_R.O.C._Taiwan_" data-name="Environmental Protection Administration
Executive Yuan, R.O.C. (Taiwan)" transform="translate(100.798 59.643)" fill="#fff" font-size="17" font-family="BaskOldFace, Baskerville Old Face"><tspan x="0" y="0">Environmental Protection Administration</tspan><tspan x="0" y="15">Executive Yuan, R.O.C. (Taiwan)</tspan></text>
    <g id="组_49" data-name="组 49" transform="translate(0 -2.579)">
      <g id="组_48" data-name="组 48" transform="translate(0 0)" clip-path="url(#clip-path)">
        <path id="路径_15690" data-name="路径 15690" d="M255.545,85.515l-.31-.714h33.792c1.364-2.009,11.513-16.953,11.5-16.929a1.581,1.581,0,0,1,1.1-.779,1.291,1.291,0,0,1,1.12.553L316.589,84.5l16.33-.2v.511l.477.2a42.3,42.3,0,0,1-77.851.508m78.745-3.509H324.069l-.16-.184L301.494,54.946l-.038-.046-.026-.046a.466.466,0,0,0-.173-.188c-.021,0-.192.064-.469.527-.915,1.522-16.513,25.553-17.176,26.584l-.161.232h-29.2l-.118-.343-.648-1.845-.236-.679h27.932c1.774-2.677,18.582-28.026,18.6-28.05a1.841,1.841,0,0,1,1.316-.7,2.078,2.078,0,0,1,1.623.826c1.214,1.364,21.122,26.068,22.258,27.471l.54.538h10.095l-.238.682-.616,1.757-.118.342ZM274.1,77.552H252.628l-.07-.426-.46-2.763-.1-.6h20.442l16.983-24.949a32.752,32.752,0,0,0-3.525-3.63c-.457-.38-.861-.551-1.135-.479-.34.093-.511.551-.511.553l-.021.062-.035.056L267.614,70.56l-.15.232H252.132l-.016-.5c-.018-.508-.027-1.028-.027-1.551A42.277,42.277,0,1,1,336,76.051l-.07.407-.414.016-4.136.16-.222.01-.16-.16-.027-.027-.021-.03c-.268-.363-26.875-36.237-28.528-38.04a1.4,1.4,0,0,0-1.048-.573c-.433.058-.784.572-.882.763l-.013.029-.019.027-25.949,38.7-.16.225Z" transform="translate(-252 -26.47)" fill="url(#linear-gradient)"/>
      </g>
    </g>
    <path id="路径_16022" data-name="路径 16022" d="M1.041-15a47.5,47.5,0,0,0,13.037-7.942,2.663,2.663,0,0,0,.521.04,1.044,1.044,0,0,0,1.043-.521l-6.3-3.931A47.919,47.919,0,0,1,.8-15.446ZM31.888-27.119,29.2-23.509H17.487l.16.642H34.856c1.083,0,1.645-.12,1.966-.562ZM1.161-2.329A40.31,40.31,0,0,0,6.536-5.9V10.828c4.894,0,5.816-1.444,5.816-1.444V-9.67c.762-.16,1.123-.441,1.244-.8l-1.324-.481c1.364-1.364,2.567-2.688,3.57-3.891,1,.08,1.4-.16,1.6-.562l-6.779-3.811A66.634,66.634,0,0,1,.88-2.73ZM31.005-12.357H15.361l.16.642h10.59V3.648c0,.4-.16.6-.562.6H19.573v.441c3.129.481,5.054,1.244,5.054,6.177,6.418-.481,7.421-3.329,7.421-7.14V-11.715h4.894c1.083,0,1.645-.12,1.966-.562l-5.094-3.851Zm42.68-9.306-2.928,4.051H66.385a48.373,48.373,0,0,0,2.206-7.26c1.123-.12,1.444-.441,1.564-1l-7.822-1.444a67.993,67.993,0,0,1-2.246,15.283l-2.968-2.647-2.126,3.289V-22.305h4.934c1.043,0,1.645-.12,1.925-.562L56.838-26.6l-2.768,3.65H41.234l.16.642h8.183V.92l-2.086.241V-14.564c.923-.16,1.2-.361,1.284-.8L42.8-15.927V1.682c-.842.08-1.6.16-2.206.2L43.48,8.261a1.951,1.951,0,0,0,1.2-1A151.406,151.406,0,0,0,62.654-.283l-.04-.441c-2.607.361-5.175.682-7.621,1v-10.55h4.573A28.3,28.3,0,0,1,58.081-6.7l.481.281a22.566,22.566,0,0,0,4.332-4.613A50.966,50.966,0,0,0,65.542.278,25.734,25.734,0,0,1,54.391,10.387l.16.441a31.68,31.68,0,0,0,12.8-6.779,18.875,18.875,0,0,0,6.9,6.98,6.5,6.5,0,0,1,5.094-5.335l.08-.441A25.852,25.852,0,0,1,70.637.318c3.329-4.693,5.014-10.51,5.9-17.289h.481c1.083,0,1.685-.12,2.006-.562ZM70.356-16.97a47.067,47.067,0,0,1-3.008,13.6,25.9,25.9,0,0,1-3.771-8.664,31.666,31.666,0,0,0,2.567-4.934Zm19.334-7.22H88.607l-5.776-2.126V10.828h.963c2.647,0,4.252-1.284,4.252-1.645V-1.126c1.725.562,1.885,2.327,1.885,4.533,4.693-.4,6.258-3.129,6.258-6.98v-.281c-.04-3.249-2.286-6.338-6.418-8.865,1.845-2.527,4.332-6.7,5.616-8.945.923,0,1.444-.16,1.765-.562l-4.814-4.854Zm-1.645.642h2.086c-.241,3.049-.722,8.263-1.043,10.951a16.6,16.6,0,0,1,1.925,8.5c0,1.564-.281,2.487-1.284,2.487H88.046Zm23.546,6.177-2.487,3.329H98.876l.16.642h15.2c1.043,0,1.6-.12,1.925-.562l-2.447-1.805a50.038,50.038,0,0,0,4.693-3.008,2.082,2.082,0,0,0,1.524-.481l-4.453-4.252-2.567,2.567h-3.45v-4.814c1-.16,1.324-.4,1.4-.882l-7.02-.682v6.378h-3.811a16.5,16.5,0,0,0-.682-1.966h-.521c.08,1.4-1.284,2.808-2.367,3.369a3.051,3.051,0,0,0-2.006,2.607,2.425,2.425,0,0,0,2.688,2.367c2.046,0,3.209-1.6,3.209-4.011a8.906,8.906,0,0,0-.16-1.725h13.117c-.08,1.163-.241,2.768-.361,3.931Zm5.736,18.532a20.515,20.515,0,0,1-1.805,3.891,1.167,1.167,0,0,1-1.163.521H112.8c-.521,0-.521-.04-.521-1V-5.859c.882-.12,1.163-.361,1.284-.682h3.61c1.043,0,1.6-.12,1.925-.562l-4.693-3.65-2.567,3.57H95.627l.16.642h3.851c-.08,6.9-1.524,13.679-7.742,16.968l.281.441C102.206,8.06,104.532,1.281,105.134-5.7c1-.12,1.4-.361,1.484-.842h.241V4.53c0,4.332.762,5.455,5.255,5.455h2.327c3.49,0,4.854-1.083,4.854-3.008,0-.682-.16-.963-1.685-1.685V1.161ZM130.285-12h3.45c1,0,1.6-.12,1.885-.562l-.923-.882h22.584c1.083,0,1.645-.08,1.925-.562l-3.731-2.728c1.043-.321,1.845-.682,1.885-.882v-5.335a2.8,2.8,0,0,0,1.6-.882l-5.335-3.69L151.7-24.953H140.473l-5.415-2.086v2.607l-3.369-2.928-2.407,3.731h-8.344l.16.642h3.771v10.349h-3.53l.2.642h3.329v10.75c-1.725.241-3.129.4-4.051.521l2.647,6.579a1.788,1.788,0,0,0,1.2-1.083,101.511,101.511,0,0,0,10.991-7.3l-.04-.361c-1.805.281-3.61.6-5.335.842Zm16.607-6.218h-1.564v-6.1h1.564Zm-11.833,2.567c4.132,0,5.134-1.564,5.134-1.925h11.914v1.244l1.725-.04-1.725,2.286H134.055l-2.006-1.966-1.765,3.008v-9.948h3.851a6.225,6.225,0,0,0,.923-.04Zm6.659-2.567h-1.524v-6.1h1.524Zm10.389,0h-1.6v-6.1h1.6ZM156.4-8.145a2.8,2.8,0,0,0,1.6-.882l-5.616-3.851-2.006,2.688h-8.865l-5.455-2.126V-.885c4.372,0,5.215-1.765,5.215-1.845v-.241h.562A33.872,33.872,0,0,1,128.76,7.82l.281.562a49.237,49.237,0,0,0,12.114-4.773v7.06H142.2c2.848,0,4.533-1,4.573-1.244V-.6a11.131,11.131,0,0,0,.963-1C149.1,4.45,151.384,8.3,155.8,10.868c.521-2.688,1.925-4.412,3.811-4.934l.04-.441a19.515,19.515,0,0,1-7.02-3.008c1.645-.481,3.69-1.123,5.054-1.6a2.706,2.706,0,0,0,.682.12.858.858,0,0,0,.722-.361l-4.051-3.089c.762-.321,1.364-.682,1.364-.842Zm-15.123-1.4h9.507v5.937h-9.507Zm9.507,7.822a10.625,10.625,0,0,0,2.407-.16c-.562,1.163-1.163,2.447-1.725,3.49A14.51,14.51,0,0,1,148.3-2.249a8.8,8.8,0,0,0,.562-.722h1.925Zm41.236-13.037H188.97c1.845-1.524,4.051-3.41,5.415-4.733,1.043.04,1.4-.16,1.564-.642l-5.335-1.484h6.579c1.083,0,1.645-.12,1.966-.562l-4.934-3.971L191.5-22.265h-2.246v-3.49c1.123-.16,1.484-.441,1.564-1l-7.26-.682v5.175h-8.464l.16.642H189.13c-.321,2.046-.8,4.854-1.2,6.859h-14.2l.16.642H198c1.083,0,1.645-.12,1.966-.562l-5.134-3.891Zm-17.89-.923c1,0,1.6-.12,1.925-.562l-3.731-4.011L170.6-17.051v-8.3c1.123-.16,1.484-.441,1.564-1l-7.18-.682v10.71h-3.69l.16.642h3.53v13c-1.765.241-3.249.4-4.172.481l2.567,6.779a1.952,1.952,0,0,0,1.243-1.083,100.914,100.914,0,0,0,11.553-7.381l-.04-.361c-1.885.281-3.73.562-5.536.8V-15.687Zm4.814-5.7a8.782,8.782,0,0,1,.882,3.971,9.842,9.842,0,0,1-.08,1.083,2.912,2.912,0,0,0,2.487,1.444,2.916,2.916,0,0,0,3.008-2.567c0-1.4-1.524-3.089-6.017-4.092ZM197.875,1.161a34.5,34.5,0,0,1-1.966,4.332c-.361.521-.562.521-1.324.521H192.5c-.682,0-.682,0-.682-.842V.2c2.407,0,4.894-1.123,4.934-1.4V-8.587a2.665,2.665,0,0,0,1.564-.882L192.7-13.36l-2.046,2.728H182.03l-5.857-2.246V.6a8.834,8.834,0,0,0,3.249-.4c-.441,4.051-2.006,7.942-9.667,10.028l.281.521C181.75,9.264,184.357,4.891,185.4-.444a2.619,2.619,0,0,0,.682-.12V5.172c0,4.292.923,5.375,5.576,5.375h3.008c4.051,0,5.134-1.244,5.134-3.129,0-.682-.12-.923-1.725-1.685l.04-4.573ZM191.056-6.18H181.79V-9.991h9.266Zm-9.266.642h9.266v3.771H181.79ZM234.1-10.191,231.129-6.26h-2.447v-5.9c.842-.12,1.083-.4,1.163-.8h.481v2.206h1.043c3.008,0,4.773-.963,4.773-1.2V-22.225a2.134,2.134,0,0,0,1.524-.722l-5.415-3.891-2.286,2.968h-8.3l-5.937-2.206v.842l-7.5-2.126c-1.4,8.3-4.332,17.289-7.18,22.343l.441.281a30.862,30.862,0,0,0,4.172-4.092V10.788h1.083c2.206,0,4.573-1.2,4.613-1.645V-15.446c.8-.12,1.123-.4,1.284-.762l-1.6-.6a56.839,56.839,0,0,0,3.249-7.541c.8,0,1.2-.16,1.444-.441v14.32h1c2.848,0,4.533-1.163,4.533-1.524v-.963h1.6v6.7h-9.828l.16.642h7.421a29.313,29.313,0,0,1-8.3,13.277l.321.521a32.181,32.181,0,0,0,10.229-6.94v9.587h1.083c2.126,0,4.733-1.163,4.733-1.564V-5.418c1.244,6.017,3.169,10.59,6.7,13.638.722-2.768,2.166-4.493,4.212-5.014l.08-.441c-3.971-1.484-8.223-4.453-10.429-8.384h8.263c1.083,0,1.685-.12,1.966-.562ZM221.261-23.228h9.066V-13.6h-9.066Zm39.15.6v2.006l-1.123-.441a48.425,48.425,0,0,1-4.814,11.713l-2.888-2.126L249.46-8.627H243l.2.642h10.429c1,0,1.6-.12,1.885-.562l-.562-.4a20.822,20.822,0,0,0,3.008-2.407v8.985h.882c2.447,0,3.931-1.083,3.931-1.444v-.321h15.243c1,0,1.564-.08,1.845-.562l-4.252-2.928-2.246,2.848h-2.407V-8.065h5.415c.963,0,1.524-.08,1.805-.562l-3.771-2.607L272.4-8.707h-1.444v-3.249h5.415c.963,0,1.524-.08,1.805-.562l-3.771-2.607L272.4-12.6h-1.444v-3.209h6.217c1,0,1.564-.08,1.845-.562l-4.051-2.808-2.166,2.728h-4.773c1.2-.6,2.688-1.4,3.65-1.925,1.163,0,1.6-.321,1.685-1l-3.049-.521c1.685-.16,3.41-.722,3.41-.963v-1.765h4.212c1.043,0,1.6-.08,1.885-.562l-3.931-2.928-2.126,2.848h-.04V-26c.882-.12,1.123-.4,1.163-.842l-6.217-.481v4.051h-3.249V-26c.923-.12,1.123-.4,1.2-.842l-6.217-.481v4.051h-4.733l.16.642ZM262.778-12.6v-3.209h3.169V-12.6Zm0,3.891v-3.249h3.169v3.249Zm5.9-11.472-2.126-.361c-.16,1.163-.361,2.888-.562,4.092H263.3l-.762-.281.883-1.444c1.043.04,1.444-.2,1.6-.682l-2.447-.923c1.484-.2,2.848-.682,2.848-.882v-1.966h3.249Zm-5.9,15.4V-8.065h3.169v3.289Zm-11.031-.642-1.805,2.367h-1.966L242.922-5.1V10.788c4.172,0,4.894-1.685,4.894-1.765V6.255H250.3V9.1c3.69,0,4.974-1.324,4.974-1.364V-1.246a2.384,2.384,0,0,0,1.4-.722Zm-3.931,3.008H250.3V5.613h-2.487ZM270.6-1.326H256.52l.2.642h3.289a16.571,16.571,0,0,0,4.733,6.418,33.5,33.5,0,0,1-10.51,4.573l.12.481a49.992,49.992,0,0,0,13.077-3.169,31.7,31.7,0,0,0,8.424,3.169c.481-2.647,1.765-4.453,3.891-5.134V5.172a65.2,65.2,0,0,1-6.819-.6A19.457,19.457,0,0,0,276.777.72c.923-.08,1.324-.2,1.6-.642l-4.733-4.132Zm.2.642a17.037,17.037,0,0,1-3.169,4.051,15.125,15.125,0,0,1-6.859-4.051ZM251.145-27.239,248.9-24.231h-5.7l.2.642h9.948c1,0,1.6-.12,1.885-.562Zm-.4,8.1h-9.467l.2.642h13.679c1,0,1.564-.12,1.845-.562L252.95-22.1Zm-1.284,5.255H243l.2.642h10.429c1,0,1.6-.12,1.885-.562l-3.931-2.928Zm63.017,6.418h-4.212a52.876,52.876,0,0,0,7.5-4.974,2.414,2.414,0,0,0,.923.241,1.177,1.177,0,0,0,.762-.281L314-15.727a6.017,6.017,0,0,0,2.206-.8v-5.977a2.8,2.8,0,0,0,1.6-.882l-5.576-3.851-2.046,2.688H291.057l-5.937-2.206v11.673c4.693,0,5.5-1.845,5.5-1.925h4.854v3.971h-8.544l.16.642h8.384v4.934H281.631l.2.642h17.449c-2.046,1.2-4.172,2.367-6.418,3.49l-3.329-1.284v2.848C286.926-.644,284.278.4,281.591,1.281l.16.6C284.4,1.4,287.006.84,289.533.158v10.67c4.733,0,5.616-1.885,5.616-2.046V8.341h13.759v2.126c4.132,0,5.7-1.163,5.7-1.2V-.323a2.8,2.8,0,0,0,1.6-.882L310.592-5.1l-2.086,2.728H297.275A79.62,79.62,0,0,0,307.1-6.822h10.71c1.083,0,1.6-.08,1.925-.562L315-10.713ZM302.169-17.652h-3.329V-23.91h3.329Zm-.12.682v-.04h8.544v1.6h.361c-.521.521-1.123,1.043-1.725,1.564l-3.37-2.447-2.527,3.249h-2.246v-3.049c1-.16,1.284-.4,1.364-.882Zm8.544-.682h-3.369V-23.91h3.369Zm-16.767,0h-3.209V-23.91h3.209Zm7.26,5.255h6.378a68.276,68.276,0,0,1-6.378,4.453Zm7.822,14.962H295.149V-1.607l.361-.12h13.4Zm-13.759.642h13.759V7.7H295.149Z" transform="translate(96.883 24.941)" fill="url(#linear-gradient-3)"/>
  </g>
</svg>
