<?xml version="1.0" encoding="utf-8"?>
<!-- Generator: Adobe Illustrator 25.4.7, SVG Export Plug-In . SVG Version: 6.00 Build 0)  -->
<svg version="1.1" id="圖層_1" xmlns="http://www.w3.org/2000/svg" xmlns:xlink="http://www.w3.org/1999/xlink" x="0px" y="0px"
	 viewBox="0 0 366.2 72.4" style="enable-background:new 0 0 366.2 72.4;" xml:space="preserve">
<style type="text/css">
	.st0{fill:url(#路径_15692_00000081625935244759499120000005849809089360105385_);}
	.st1{fill:#482B00;}
	.st2{font-family:'Calibri';}
	.st3{font-size:16px;}
	.st4{clip-path:url(#SVGID_00000029763399938958771130000003095272631595158200_);}
	.st5{fill:url(#路径_15690_00000021816465816384361970000014475288352734851735_);}
</style>
<linearGradient id="路径_15692_00000060736199927581864000000007482851048045683127_" gradientUnits="userSpaceOnUse" x1="-773.2159" y1="561.6038" x2="-772.2339" y2="561.6908" gradientTransform="matrix(280.114 0 0 -33.857 216678.5781 19035.584)">
	<stop  offset="0" style="stop-color:#885500"/>
	<stop  offset="0.185" style="stop-color:#C68F46"/>
	<stop  offset="0.404" style="stop-color:#6F4103"/>
	<stop  offset="0.748" style="stop-color:#A2722F"/>
	<stop  offset="0.896" style="stop-color:#4F2F02"/>
	<stop  offset="1" style="stop-color:#D69C47"/>
</linearGradient>
<path id="路径_15692" style="fill:url(#路径_15692_00000060736199927581864000000007482851048045683127_);" d="M86.3,14.1
	c4.2-1.7,8-4,11.4-7c0.2,0,0.3,0,0.5,0c0.4,0,0.7-0.1,0.9-0.5l-5.5-3.5c-1.9,3.9-4.5,7.4-7.5,10.5L86.3,14.1z M113.4,3.4L111,6.6
	h-10.3l0.1,0.6H116c1,0,1.4-0.1,1.7-0.5L113.4,3.4z M86.4,25.2c1.7-0.9,3.2-2,4.7-3.1v14.7c4.3,0,5.1-1.3,5.1-1.3V18.8
	c0.7-0.1,1-0.4,1.1-0.7l-1.2-0.4c1.2-1.2,2.3-2.4,3.1-3.4c0.9,0.1,1.2-0.1,1.4-0.5l-6-3.4c-2.2,5.2-5,10.1-8.6,14.5L86.4,25.2z
	 M112.6,16.4H98.9L99,17h9.3v13.5c0,0.4-0.1,0.5-0.5,0.5h-5.2v0.4c2.8,0.4,4.4,1.1,4.4,5.4c5.6-0.4,6.5-2.9,6.5-6.3V17h4.3
	c1,0,1.4-0.1,1.7-0.5l-4.5-3.4L112.6,16.4z M150.1,8.2l-2.6,3.6h-3.8c0.8-2.1,1.5-4.2,1.9-6.4c1-0.1,1.3-0.4,1.4-0.9l-6.9-1.3
	c-0.1,4.5-0.8,9-2,13.4l-2.6-2.3l-1.9,2.9V7.7h4.3c0.9,0,1.4-0.1,1.7-0.5l-4.4-3.3l-2.4,3.2h-11.3l0.1,0.6h7.2v20.4l-1.8,0.2V14.5
	c0.8-0.1,1.1-0.3,1.1-0.7l-5.3-0.5v15.5c-0.7,0.1-1.4,0.1-1.9,0.2l2.5,5.6c0.5-0.1,0.8-0.5,1.1-0.9c5.4-1.9,10.7-4.1,15.8-6.6l0-0.4
	c-2.3,0.3-4.5,0.6-6.7,0.9v-9.3h4c-0.4,1.1-0.8,2.1-1.3,3.1l0.4,0.2c1.5-1.2,2.7-2.5,3.8-4.1c0.4,3.4,1.2,6.7,2.3,9.9
	c-2.3,3.9-5.7,7-9.8,8.9l0.1,0.4c4.2-1.1,8-3.1,11.2-6c1.4,2.5,3.5,4.7,6.1,6.1c0.4-2.3,2.2-4.2,4.5-4.7l0.1-0.4
	c-2.8-0.9-5.5-2.4-7.7-4.3c2.9-4.1,4.4-9.2,5.2-15.2h0.4c1,0,1.5-0.1,1.8-0.5L150.1,8.2z M147.2,12.4c-0.3,4.1-1.2,8.1-2.6,11.9
	c-1.6-2.3-2.7-4.9-3.3-7.6c0.9-1.4,1.6-2.8,2.3-4.3H147.2z M164.2,6h-1l-5.1-1.9v32.6h0.8c2.3,0,3.7-1.1,3.7-1.4v-9.1
	c1.5,0.5,1.7,2,1.7,4c4.1-0.4,5.5-2.8,5.5-6.1v-0.2c0-2.9-2-5.6-5.6-7.8c1.6-2.2,3.8-5.9,4.9-7.9c0.8,0,1.3-0.1,1.6-0.5l-4.2-4.3
	L164.2,6z M162.7,6.6h1.8c-0.2,2.7-0.6,7.3-0.9,9.6c1.2,2.3,1.8,4.9,1.7,7.5c0,1.4-0.2,2.2-1.1,2.2h-1.5V6.6z M183.4,12l-2.2,2.9h-9
	l0.1,0.6h13.4c0.9,0,1.4-0.1,1.7-0.5l-2.1-1.6c1.4-0.8,2.8-1.7,4.1-2.6c0.5,0,1-0.1,1.3-0.4l-3.9-3.7l-2.3,2.3h-3V4.6
	c0.9-0.1,1.2-0.4,1.2-0.8l-6.2-0.6v5.6h-3.3c-0.2-0.6-0.4-1.2-0.6-1.7h-0.5c-0.1,1.3-0.9,2.4-2.1,3c-1,0.4-1.7,1.2-1.8,2.3
	c0,0.6,0.3,1.2,0.7,1.6c0.4,0.4,1,0.6,1.6,0.5c1.8,0,2.8-1.4,2.8-3.5c0-0.5,0-1-0.1-1.5h11.5c-0.1,1-0.2,2.4-0.3,3.5L183.4,12z
	 M188.4,28.3c-0.4,1.2-0.9,2.3-1.6,3.4c-0.2,0.3-0.6,0.5-1,0.5h-1.4c-0.5,0-0.5,0-0.5-0.9v-9.2c0.8-0.1,1-0.3,1.1-0.6h3.2
	c0.9,0,1.4-0.1,1.7-0.5l-4.1-3.2l-2.3,3.1h-14.2l0.1,0.6h3.4c-0.1,6.1-1.3,12-6.8,14.9l0.3,0.4c8.8-2.5,10.9-8.4,11.4-14.5
	c0.9-0.1,1.2-0.3,1.3-0.7h0.2v9.7c0,3.8,0.7,4.8,4.6,4.8h2c3.1,0,4.3-1,4.3-2.6c0-0.6-0.1-0.8-1.5-1.5v-3.6L188.4,28.3z M199.8,16.7
	h3c0.9,0,1.4-0.1,1.7-0.5l-0.8-0.8h19.8c1,0,1.4-0.1,1.7-0.5l-3.3-2.4c0.9-0.3,1.6-0.6,1.7-0.8V7.1c0.5-0.1,1-0.4,1.4-0.8l-4.7-3.2
	l-1.7,2.3h-9.9L204,3.5v2.3l-3-2.6l-2.1,3.3h-7.3l0.1,0.6h3.3v9.1H192l0.2,0.6h2.9v9.4c-1.5,0.2-2.8,0.4-3.6,0.5l2.3,5.8
	c0.5-0.1,0.9-0.5,1.1-1c3.4-1.9,6.6-4.1,9.7-6.4l0-0.3c-1.6,0.2-3.2,0.5-4.7,0.7V16.7z M214.4,11.3H213V5.9h1.4L214.4,11.3z
	 M204,13.5c3.6,0,4.5-1.4,4.5-1.7H219v1.1l1.5,0l-1.5,2h-15.9l-1.8-1.7l-1.6,2.6V7.1h3.4c0.3,0,0.5,0,0.8,0L204,13.5z M209.9,11.3
	h-1.3V5.9h1.3V11.3z M219,11.3h-1.4V5.9h1.4V11.3z M222.8,20.1c0.5-0.1,1-0.4,1.4-0.8l-4.9-3.4l-1.8,2.4h-7.8l-4.8-1.9v10
	c3.8,0,4.6-1.5,4.6-1.6v-0.2h0.5c-3,4.1-6.9,7.3-11.5,9.5l0.2,0.5c3.7-0.9,7.3-2.3,10.6-4.2v6.2h0.9c2.5,0,4-0.9,4-1.1v-8.8
	c0.3-0.3,0.6-0.6,0.8-0.9c1.2,5.3,3.2,8.7,7.1,11c0.5-2.4,1.7-3.9,3.3-4.3l0-0.4c-2.2-0.5-4.3-1.4-6.2-2.6c1.4-0.4,3.2-1,4.4-1.4
	c0.2,0.1,0.4,0.1,0.6,0.1c0.3,0,0.5-0.1,0.6-0.3l-3.6-2.7c0.7-0.3,1.2-0.6,1.2-0.7L222.8,20.1z M209.5,18.9h8.4v5.2h-8.4V18.9z
	 M217.8,25.7c0.7,0,1.4,0,2.1-0.1c-0.5,1-1,2.1-1.5,3.1c-1.1-1-2.1-2.1-2.8-3.4c0.2-0.2,0.3-0.4,0.5-0.6h1.7L217.8,25.7z M254,14.3
	h-2.7c1.6-1.3,3.6-3,4.8-4.2c0.9,0,1.2-0.1,1.4-0.6l-4.7-1.3h5.8c1,0,1.4-0.1,1.7-0.5L256,4.3l-2.4,3.4h-2V4.6
	c1-0.1,1.3-0.4,1.4-0.9l-6.4-0.6v4.5h-7.4l0.1,0.6h12.2c-0.3,1.8-0.7,4.3-1.1,6H238l0.1,0.6h21.2c1,0,1.4-0.1,1.7-0.5l-4.5-3.4
	L254,14.3z M238.3,13.5c0.9,0,1.4-0.1,1.7-0.5l-3.3-3.5l-1.5,2.8V5c1-0.1,1.3-0.4,1.4-0.9l-6.3-0.6v9.4h-3.2l0.1,0.6h3.1v11.4
	c-1.6,0.2-2.9,0.4-3.7,0.4l2.3,6c0.5-0.1,0.9-0.5,1.1-1c3.5-1.9,6.9-4.1,10.1-6.5l0-0.3c-1.7,0.2-3.3,0.5-4.9,0.7V13.5L238.3,13.5z
	 M242.6,8.5c0.5,1.1,0.8,2.3,0.8,3.5c0,0.3,0,0.6-0.1,1c0.5,0.8,1.3,1.3,2.2,1.3c1.3,0.1,2.5-0.9,2.6-2.3c0-1.2-1.3-2.7-5.3-3.6
	L242.6,8.5z M259.2,28.3c-0.5,1.3-1.1,2.6-1.7,3.8c-0.3,0.5-0.5,0.5-1.2,0.5h-1.8c-0.6,0-0.6,0-0.6-0.7v-4.4c1.5,0,3-0.4,4.3-1.2
	v-6.5c0.5-0.1,1-0.4,1.4-0.8l-4.9-3.4l-1.8,2.4h-7.6l-5.1-2v11.8c1,0.1,1.9-0.1,2.9-0.4c-0.4,3.6-1.8,7-8.5,8.8l0.2,0.5
	c10.3-1.3,12.6-5.1,13.5-9.8c0.2,0,0.4,0,0.6-0.1v5c0,3.8,0.8,4.7,4.9,4.7h2.6c3.6,0,4.5-1.1,4.5-2.8c0-0.6-0.1-0.8-1.5-1.5l0-4
	H259.2z M253.2,21.8h-8.1v-3.3h8.1V21.8z M245.1,22.4h8.1v3.3h-8.1V22.4z M291,18.3l-2.6,3.5h-2.1v-5.2c0.7-0.1,1-0.4,1-0.7h0.4v1.9
	h0.9c2.6,0,4.2-0.8,4.2-1.1v-9c0.5,0,1-0.2,1.3-0.6l-4.8-3.4l-2,2.6h-7.3l-5.2-1.9v0.7l-6.6-1.9c-1.2,7.3-3.8,15.2-6.3,19.6l0.4,0.2
	c1.3-1.1,2.6-2.3,3.7-3.6v17.2h1c1.9,0,4-1.1,4.1-1.4V13.7c0.7-0.1,1-0.4,1.1-0.7l-1.4-0.5c1.1-2.1,2.1-4.3,2.9-6.6
	c0.7,0,1.1-0.1,1.3-0.4v12.6h0.9c2.5,0,4-1,4-1.3v-0.8h1.4v5.9h-8.6l0.1,0.6h6.5c-1.3,4.5-3.9,8.5-7.3,11.7l0.3,0.5
	c3.4-1.4,6.4-3.5,9-6.1v8.4h1c1.9,0,4.2-1,4.2-1.4V22.5c1.1,5.3,2.8,9.3,5.9,12c0.6-2.4,1.9-3.9,3.7-4.4l0.1-0.4
	c-3.8-1.4-7-3.9-9.2-7.4h7.3c1,0,1.5-0.1,1.7-0.5L291,18.3z M279.7,6.9h8v8.5h-8L279.7,6.9z M314.1,7.4v1.8l-1-0.4
	c-1,3.6-2.4,7.1-4.2,10.3l-2.5-1.9l-1.9,2.5h-5.7l0.2,0.6h9.2c0.9,0,1.4-0.1,1.7-0.5l-0.5-0.4c0.9-0.6,1.8-1.3,2.6-2.1v7.9h0.8
	c2.1,0,3.5-1,3.5-1.3v-0.3h13.4c0.9,0,1.4-0.1,1.6-0.5l-3.7-2.6l-2,2.5h-2.1v-2.9h4.8c0.8,0,1.3-0.1,1.6-0.5l-3.3-2.3l-1.8,2.2h-1.3
	v-2.8h4.8c0.8,0,1.3-0.1,1.6-0.5l-3.3-2.3l-1.8,2.2h-1.3v-2.8h5.5c0.9,0,1.4-0.1,1.6-0.5l-3.6-2.5l-1.9,2.4h-4.2
	c1.1-0.5,2.4-1.2,3.2-1.7c1,0,1.4-0.3,1.5-0.9l-2.7-0.5c1.1,0,2.1-0.3,3-0.8V7.4h3.7c0.9,0,1.4-0.1,1.7-0.5l-3.4-2.6l-1.9,2.5h0V4.4
	c0.8-0.1,1-0.4,1-0.7l-5.5-0.4v3.6h-2.9V4.4c0.8-0.1,1-0.4,1.1-0.7l-5.5-0.4v3.6h-4.2l0.1,0.6L314.1,7.4z M316.2,16.2v-2.8h2.8v2.8
	H316.2z M316.2,19.6v-2.8h2.8v2.9L316.2,19.6z M321.4,9.5l-1.9-0.3c-0.1,1-0.3,2.5-0.5,3.6h-2.4l-0.7-0.2l0.8-1.3
	c0.9,0,1.3-0.2,1.4-0.6L316,9.9c0.9,0,1.7-0.3,2.5-0.8V7.4h2.9L321.4,9.5z M316.2,23.1v-2.9h2.8v2.9L316.2,23.1z M306.5,22.5
	l-1.6,2.1h-1.7l-4.4-1.8v14c3.7,0,4.3-1.5,4.3-1.5v-2.4h2.2v2.5c3.2,0,4.4-1.2,4.4-1.2v-7.9c0.5-0.1,0.9-0.3,1.2-0.6L306.5,22.5z
	 M303,25.1h2.2v7H303V25.1z M323.1,26.1h-12.4l0.2,0.6h2.9c0.9,2.2,2.3,4.1,4.2,5.6c-2.8,1.9-5.9,3.2-9.2,4l0.1,0.4
	c3.9-0.4,7.8-1.3,11.5-2.8c2.3,1.3,4.8,2.2,7.4,2.8c0.4-2.3,1.6-3.9,3.4-4.5v-0.4c-2-0.1-4-0.2-6-0.5c1.3-1,2.4-2.1,3.4-3.4
	c0.8-0.1,1.2-0.2,1.4-0.6l-4.2-3.6L323.1,26.1z M323.2,26.7c-0.7,1.3-1.7,2.5-2.8,3.6c-2.3-0.6-4.4-1.9-6-3.6L323.2,26.7z M306,3.3
	L304,6h-5l0.2,0.6h8.7c0.9,0,1.4-0.1,1.7-0.5L306,3.3z M305.6,10.5h-8.3l0.2,0.6h12c0.9,0,1.4-0.1,1.6-0.5l-3.6-2.7L305.6,10.5z
	 M304.5,15.1h-5.7l0.2,0.6h9.2c0.9,0,1.4-0.1,1.7-0.5l-3.5-2.6L304.5,15.1z M359.8,20.7h-3.7c2.3-1.3,4.5-2.7,6.6-4.4
	c0.3,0.1,0.5,0.2,0.8,0.2c0.2,0,0.5-0.1,0.7-0.2l-3-2.9c0.7-0.1,1.3-0.3,1.9-0.7V7.5c0.5-0.1,1-0.4,1.4-0.8l-4.9-3.4l-1.8,2.4H341
	l-5.2-1.9V14c4.1,0,4.8-1.6,4.8-1.7h4.3v3.5h-7.5l0.1,0.6h7.4v4.3h-12.2l0.2,0.6h15.3c-1.8,1.1-3.7,2.1-5.6,3.1l-2.9-1.1v2.5
	c-2.3,1-4.6,1.9-7,2.7l0.1,0.5c2.3-0.4,4.6-0.9,6.8-1.5v9.4c4.2,0,4.9-1.7,4.9-1.8v-0.4h12.1v1.9c3.6,0,5-1,5-1.1V27
	c0.5-0.1,1-0.4,1.4-0.8l-4.9-3.4l-1.8,2.4h-9.9c3-1.1,5.8-2.4,8.6-3.9h9.4c1,0,1.4-0.1,1.7-0.5l-4.2-2.9L359.8,20.7z M350.8,11.8
	h-2.9V6.3h2.9V11.8z M350.7,12.4L350.7,12.4l7.5,0v1.4h0.3c-0.5,0.5-1,0.9-1.5,1.4l-3-2.1l-2.2,2.9h-2v-2.7c0.9-0.1,1.1-0.4,1.2-0.8
	L350.7,12.4z M358.2,11.8h-3V6.3h3V11.8z M343.4,11.8h-2.8V6.3h2.8L343.4,11.8z M349.8,16.4h5.6c-1.8,1.4-3.7,2.7-5.6,3.9V16.4z
	 M356.7,29.5h-12.1v-3.7l0.3-0.1h11.8V29.5z M344.6,30.1h12.1v4h-12.1L344.6,30.1z"/>
<text transform="matrix(1 0 0 1 89.074 53.533)" class="st1 st2 st3">Environmental Protection Administration</text>
<text transform="matrix(1 0 0 1 89.074 67.533)" class="st1 st2 st3">Executive Yuan, R.O.C. (Taiwan)</text>
<g>
	<defs>
		<rect id="SVGID_1_" width="72.5" height="72.4"/>
	</defs>
	<clipPath id="SVGID_00000086680812452808824080000016666335127004314794_">
		<use xlink:href="#SVGID_1_"  style="overflow:visible;"/>
	</clipPath>
	<g id="组_48" style="clip-path:url(#SVGID_00000086680812452808824080000016666335127004314794_);">
		
			<linearGradient id="路径_15690_00000076583255305434905720000017214706089618901121_" gradientUnits="userSpaceOnUse" x1="-765.1362" y1="569.9232" x2="-764.4841" y2="569.2242" gradientTransform="matrix(72.516 0 0 -72.4895 55496.3867 41323.4023)">
			<stop  offset="0" style="stop-color:#AB7927"/>
			<stop  offset="0.185" style="stop-color:#C68F46"/>
			<stop  offset="0.338" style="stop-color:#FEDB6B"/>
			<stop  offset="0.363" style="stop-color:#F5D065"/>
			<stop  offset="0.499" style="stop-color:#CBA04A"/>
			<stop  offset="0.602" style="stop-color:#B1823A"/>
			<stop  offset="0.66" style="stop-color:#A87734"/>
			<stop  offset="0.748" style="stop-color:#A2722F"/>
			<stop  offset="0.86" style="stop-color:#926321"/>
			<stop  offset="0.896" style="stop-color:#8C5E1C"/>
			<stop  offset="1" style="stop-color:#D69C47"/>
		</linearGradient>
		<path id="路径_15690" style="fill:url(#路径_15690_00000076583255305434905720000017214706089618901121_);" d="M3,50.6L2.8,50
			h29c1.2-1.7,9.9-14.5,9.9-14.5c0.2-0.4,0.5-0.6,0.9-0.7c0.4,0,0.7,0.2,1,0.5l11.9,14.4l14-0.2V50l0.4,0.2
			C62,68.6,40.8,77.4,22.3,69.6C13.7,66,6.8,59.2,3,50.6 M70.5,47.6h-8.8l-0.1-0.2l-19.2-23l0,0l0,0c0-0.1-0.1-0.1-0.1-0.2
			c0,0-0.2,0.1-0.4,0.5C41,25.9,27.6,46.5,27.1,47.4l-0.1,0.2h-25l-0.1-0.3l-0.6-1.6l-0.2-0.6H25c1.5-2.3,15.9-24,15.9-24
			c0.3-0.3,0.7-0.6,1.1-0.6c0.5,0,1.1,0.3,1.4,0.7c1,1.2,18.1,22.3,19.1,23.5l0.5,0.5h8.6l-0.2,0.6l-0.5,1.5l-0.1,0.3L70.5,47.6z
			 M18.9,43.8H0.5l-0.1-0.4L0.1,41L0,40.5h17.5l14.5-21.4C31.1,18,30.1,17,29,16c-0.2-0.3-0.6-0.4-1-0.4c-0.3,0.1-0.4,0.5-0.4,0.5
			l0,0.1l0,0L13.4,37.8L13.3,38H0.1l0-0.4c0-0.4,0-0.9,0-1.3C0.1,16.2,16.3,0,36.3,0s36.2,16.2,36.3,36.2c0,2.1-0.2,4.2-0.6,6.3
			l-0.1,0.3l-0.4,0L68,43l-0.2,0l-0.1-0.1l0,0l0,0c-0.2-0.3-23-31-24.4-32.6c-0.2-0.3-0.5-0.5-0.9-0.5c-0.4,0-0.7,0.5-0.8,0.7l0,0
			l0,0L19.3,43.6l-0.1,0.2L18.9,43.8z"/>
	</g>
</g>
</svg>
