<svg xmlns="http://www.w3.org/2000/svg" xmlns:xlink="http://www.w3.org/1999/xlink" width="366.22" height="72.432" viewBox="0 0 366.22 72.432">
  <defs>
    <linearGradient id="linear-gradient" x1="0.213" y1="0.091" x2="0.865" y2="0.79" gradientUnits="objectBoundingBox">
      <stop offset="0" stop-color="#ab7927"/>
      <stop offset="0.185" stop-color="#c68f46"/>
      <stop offset="0.338" stop-color="#fedb6b"/>
      <stop offset="0.363" stop-color="#f5d065"/>
      <stop offset="0.499" stop-color="#cba04a"/>
      <stop offset="0.602" stop-color="#b1823a"/>
      <stop offset="0.66" stop-color="#a87734"/>
      <stop offset="0.748" stop-color="#a2722f"/>
      <stop offset="0.86" stop-color="#926321"/>
      <stop offset="0.896" stop-color="#8c5e1c"/>
      <stop offset="1" stop-color="#d69c47"/>
    </linearGradient>
    <linearGradient id="linear-gradient-2" x1="0.018" y1="0.587" x2="1" y2="0.5" gradientUnits="objectBoundingBox">
      <stop offset="0" stop-color="#850"/>
      <stop offset="0.185" stop-color="#c68f46"/>
      <stop offset="0.404" stop-color="#6f4103"/>
      <stop offset="0.748" stop-color="#a2722f"/>
      <stop offset="0.896" stop-color="#4f2f02"/>
      <stop offset="1" stop-color="#d69c47"/>
    </linearGradient>
    <clipPath id="clip-path">
      <rect id="矩形_40" data-name="矩形 40" width="72.516" height="72.432" fill="url(#linear-gradient)"/>
    </clipPath>
  </defs>
  <g id="logo2" transform="translate(-393.012 -29)">
    <path id="路径_15692" data-name="路径 15692" d="M1.011-16.528A41.726,41.726,0,0,0,12.461-23.5a2.338,2.338,0,0,0,.458.035.917.917,0,0,0,.916-.458L8.3-27.379A42.086,42.086,0,0,1,.8-16.916ZM28.1-27.168,25.743-24H15.456l.141.564H30.71c.951,0,1.444-.11,1.726-.493ZM1.117-5.4A35.4,35.4,0,0,0,5.838-8.531V6.16c4.294,0,5.108-1.268,5.108-1.268V-11.843c.669-.141.991-.388,1.092-.7l-1.163-.418c1.2-1.2,2.255-2.36,3.135-3.413.881.07,1.233-.141,1.409-.493l-5.954-3.36A58.523,58.523,0,0,1,.87-5.748ZM27.328-14.2H13.589l.141.564h9.3V-.146c0,.352-.141.528-.493.528H17.288V.77c2.752.423,4.439,1.092,4.439,5.425,5.637-.423,6.518-2.924,6.518-6.275V-13.644h4.294c.951,0,1.444-.11,1.726-.493L29.79-17.519Zm37.485-8.173-2.572,3.558H58.4a42.485,42.485,0,0,0,1.938-6.377c.991-.11,1.268-.388,1.374-.881l-6.87-1.268a59.717,59.717,0,0,1-1.968,13.423l-2.611-2.325-1.872,2.889v-9.578h4.333c.916,0,1.444-.11,1.691-.493l-4.4-3.276L47.59-23.5H36.312l.141.564H43.64v20.4l-1.832.211v-13.81c.81-.141,1.057-.317,1.127-.7l-5.254-.493V-1.873c-.74.07-1.409.141-1.938.176l2.532,5.6a1.714,1.714,0,0,0,1.057-.881A132.974,132.974,0,0,0,55.125-3.6l-.035-.388c-2.29.317-4.545.6-6.694.881v-9.266h4.016a24.852,24.852,0,0,1-1.3,3.135l.423.247a19.817,19.817,0,0,0,3.8-4.051,44.762,44.762,0,0,0,2.325,9.935,22.6,22.6,0,0,1-9.8,8.878l.141.388A27.824,27.824,0,0,0,59.247.206,16.577,16.577,0,0,0,65.3,6.336,5.7,5.7,0,0,1,69.776,1.65l.07-.388A22.7,22.7,0,0,1,62.131-3.07c2.924-4.122,4.4-9.23,5.174-15.184h.432c.951,0,1.48-.11,1.762-.493ZM61.889-18.25A41.338,41.338,0,0,1,59.247-6.307a22.75,22.75,0,0,1-3.312-7.61A27.811,27.811,0,0,0,58.19-18.25ZM78.87-24.592h-.951l-5.073-1.872V6.16h.846c2.325,0,3.734-1.127,3.734-1.444V-4.339c1.515.493,1.651,2.043,1.651,3.981,4.122-.352,5.5-2.752,5.5-6.13v-.247c-.035-2.854-2.008-5.566-5.637-7.786,1.621-2.219,3.8-5.883,4.932-7.856.81,0,1.268-.141,1.55-.493l-4.228-4.263Zm-1.444.564h1.832c-.211,2.677-.634,7.257-.916,9.618a14.577,14.577,0,0,1,1.691,7.469c0,1.374-.247,2.184-1.127,2.184h-1.48ZM98.105-18.6l-2.184,2.92H86.937l.141.564h13.357c.916,0,1.409-.11,1.691-.493L99.977-17.2A43.948,43.948,0,0,0,104.1-19.84a1.829,1.829,0,0,0,1.339-.423L101.523-24l-2.255,2.255h-3.03V-25.97c.881-.141,1.163-.352,1.233-.771l-6.165-.6v5.6H87.959a14.489,14.489,0,0,0-.6-1.726H86.9A3.693,3.693,0,0,1,84.824-20.5a2.68,2.68,0,0,0-1.762,2.29,2.129,2.129,0,0,0,.722,1.56,2.129,2.129,0,0,0,1.639.519c1.8,0,2.818-1.409,2.818-3.523a7.823,7.823,0,0,0-.137-1.519H99.62c-.07,1.022-.211,2.431-.317,3.453Zm5.038,16.272a18.017,18.017,0,0,1-1.585,3.413,1.025,1.025,0,0,1-1.022.458H99.162c-.458,0-.458-.035-.458-.881V-8.5c.771-.11,1.022-.317,1.127-.6H103c.916,0,1.409-.11,1.691-.493L100.571-12.8,98.317-9.663H84.084l.141.564h3.382c-.07,6.064-1.339,12.018-6.8,14.907l.251.383c8.808-2.466,10.851-8.42,11.379-14.55.881-.11,1.233-.317,1.3-.74h.211V.624c0,3.8.669,4.791,4.615,4.791h2.043c3.065,0,4.263-.951,4.263-2.642,0-.6-.141-.846-1.48-1.48V-2.339Zm11.379-11.56h3.03c.881,0,1.409-.11,1.651-.493l-.81-.771h19.835c.951,0,1.444-.07,1.691-.493l-3.276-2.4c.916-.282,1.621-.6,1.651-.771V-23.5a2.461,2.461,0,0,0,1.409-.771l-4.677-3.25-1.691,2.255h-9.864L118.715-27.1v2.29l-2.959-2.572L113.642-24.1h-7.328l.141.564h3.312v9.089h-3.1l.176.564h2.924v9.442c-1.515.211-2.752.352-3.558.458l2.325,5.773A1.57,1.57,0,0,0,109.59.836a89.153,89.153,0,0,0,9.653-6.412l-.035-.317c-1.585.247-3.171.528-4.686.74Zm14.585-5.461h-1.37V-24.7h1.374ZM118.715-17.1c3.633,0,4.514-1.374,4.514-1.691h10.459V-17.7l1.515-.035-1.519,2.013H117.83l-1.761-1.726-1.55,2.642v-8.733H117.9a5.467,5.467,0,0,0,.81-.035Zm5.848-2.255h-1.339V-24.7h1.339Zm9.125,0h-1.409V-24.7h1.409Zm3.77,8.843a2.461,2.461,0,0,0,1.409-.771l-4.932-3.382-1.762,2.36h-7.786L119.6-14.172V-4.132c3.84,0,4.58-1.55,4.58-1.621v-.211h.493a29.749,29.749,0,0,1-11.485,9.481l.247.493A43.243,43.243,0,0,0,124.07-.182v6.2h.916c2.5,0,3.981-.881,4.016-1.092V-3.881a9.774,9.774,0,0,0,.846-.881c1.2,5.32,3.206,8.7,7.081,10.957.458-2.36,1.691-3.875,3.347-4.333l.035-.388a17.139,17.139,0,0,1-6.165-2.642c1.444-.423,3.241-.991,4.439-1.409a2.377,2.377,0,0,0,.6.11.753.753,0,0,0,.634-.317L136.259-5.5c.669-.282,1.2-.6,1.2-.74Zm-13.282-1.233h8.35v5.214h-8.35Zm8.35,6.87a9.332,9.332,0,0,0,2.114-.141c-.493,1.022-1.022,2.149-1.515,3.065a12.743,12.743,0,0,1-2.783-3.382,7.74,7.74,0,0,0,.493-.634h1.691Zm36.221-11.45h-2.677c1.621-1.339,3.558-2.995,4.756-4.157.916.035,1.233-.141,1.374-.564l-4.686-1.3h5.778c.951,0,1.444-.11,1.726-.493l-4.342-3.483-2.4,3.413h-1.973v-3.065c.991-.141,1.3-.388,1.374-.881l-6.377-.6v4.545h-7.429l.141.564h12.19c-.282,1.8-.7,4.263-1.057,6.024H152.677l.141.564h21.173c.951,0,1.444-.11,1.726-.493L171.2-19.664Zm-15.713-.81c.881,0,1.409-.11,1.691-.493l-3.276-3.523-1.515,2.818v-7.293c.991-.141,1.3-.388,1.374-.881L145-27.1V-17.7H141.76l.141.564H145V-5.713c-1.55.211-2.854.352-3.664.423L143.592.664a1.714,1.714,0,0,0,1.092-.951A88.628,88.628,0,0,0,154.821-6.77l-.035-.317c-1.651.247-3.276.493-4.862.7V-17.127Zm4.228-5a7.713,7.713,0,0,1,.771,3.488,8.639,8.639,0,0,1-.07.951,2.557,2.557,0,0,0,2.184,1.268,2.561,2.561,0,0,0,2.642-2.255c0-1.233-1.339-2.713-5.285-3.593Zm16.624,19.8a30.3,30.3,0,0,1-1.726,3.8c-.317.458-.493.458-1.163.458h-1.832c-.6,0-.6,0-.6-.74V-3.176A7.707,7.707,0,0,0,172.9-4.409v-6.482a2.341,2.341,0,0,0,1.374-.771l-4.932-3.413-1.8,2.4h-7.574l-5.148-1.982V-2.824a7.758,7.758,0,0,0,2.854-.352c-.388,3.558-1.762,6.976-8.49,8.808l.247.458c10.287-1.3,12.577-5.144,13.493-9.829a2.3,2.3,0,0,0,.6-.11V1.192c0,3.77.81,4.721,4.9,4.721h2.642c3.558,0,4.514-1.092,4.514-2.752,0-.6-.11-.81-1.515-1.48l.035-4.016ZM167.9-8.782h-8.138v-3.347H167.9Zm-8.138.564H167.9v3.312h-8.138Zm45.94-4.087-2.607,3.453h-2.149v-5.174c.74-.11.951-.352,1.022-.7h.423v1.938h.916c2.642,0,4.192-.846,4.192-1.057v-9.023a1.872,1.872,0,0,0,1.339-.634l-4.756-3.413-2.008,2.607h-7.293l-5.214-1.938v.74l-6.588-1.872c-1.233,7.293-3.8,15.184-6.306,19.623l.388.247a27.107,27.107,0,0,0,3.664-3.593V6.125h.951c1.938,0,4.016-1.057,4.051-1.444v-21.6c.7-.11.991-.352,1.127-.669l-1.409-.528a49.92,49.92,0,0,0,2.854-6.623c.7,0,1.057-.141,1.268-.388v12.577h.881c2.5,0,3.981-1.022,3.981-1.339v-.841h1.409v5.883H187.2l.141.564h6.518a25.744,25.744,0,0,1-7.293,11.657l.282.458a28.263,28.263,0,0,0,8.984-6.095V6.16h.951c1.872,0,4.157-1.022,4.157-1.374V-8.108c1.092,5.285,2.783,9.3,5.883,11.978.634-2.431,1.9-3.946,3.7-4.4l.07-.388a17.894,17.894,0,0,1-9.16-7.363h7.257c.951,0,1.48-.11,1.726-.493Zm-11.274-11.45h7.958V-15.3H194.42Zm34.385.528v1.762l-.991-.388a42.533,42.533,0,0,1-4.228,10.287l-2.532-1.872-1.872,2.5h-5.672l.176.564h9.16c.881,0,1.409-.11,1.651-.493l-.493-.352a18.287,18.287,0,0,0,2.642-2.114V-5.44h.771c2.149,0,3.453-.951,3.453-1.268V-6.99h13.387c.881,0,1.374-.07,1.621-.493l-3.734-2.572-1.96,2.51h-2.114v-2.889h4.756c.846,0,1.339-.07,1.585-.493l-3.312-2.29L239.343-11h-1.268v-2.849h4.756c.846,0,1.339-.07,1.585-.493L241.1-16.63l-1.762,2.219h-1.268v-2.818h5.461c.881,0,1.374-.07,1.621-.493L241.6-20.188l-1.9,2.4H235.5c1.057-.528,2.36-1.233,3.206-1.691,1.022,0,1.409-.282,1.48-.881l-2.677-.458a6.192,6.192,0,0,0,2.995-.846v-1.55h3.7c.916,0,1.409-.07,1.651-.493l-3.448-2.576-1.872,2.5H240.5v-2.391c.771-.11.991-.352,1.022-.74l-5.461-.423v3.558h-2.854v-2.4c.81-.11.991-.352,1.057-.74l-5.461-.423v3.558h-4.157l.141.564Zm2.079,8.808v-2.818h2.783v2.818Zm0,3.413v-2.84h2.783v2.854Zm5.174-10.076L234.19-21.4c-.141,1.022-.317,2.532-.493,3.593h-2.36l-.669-.247.771-1.268c.916.035,1.268-.176,1.409-.6l-2.149-.81a5.265,5.265,0,0,0,2.5-.771v-1.726h2.871ZM230.887-7.553v-2.88h2.783v2.889ZM221.2-8.117,219.614-6.03h-1.726l-4.439-1.8V6.125c3.664,0,4.294-1.48,4.294-1.55V2.144h2.184V4.649c3.241,0,4.369-1.163,4.369-1.2v-7.9a2.092,2.092,0,0,0,1.233-.634Zm-3.453,2.642h2.184V1.571h-2.184Zm20.011.951H225.391l.176.564h2.889a14.554,14.554,0,0,0,4.157,5.637,29.418,29.418,0,0,1-9.23,4.016l.11.423A43.906,43.906,0,0,0,234.97,3.342a27.839,27.839,0,0,0,7.4,2.783c.423-2.325,1.55-3.911,3.413-4.514V1.192a57.265,57.265,0,0,1-5.989-.528,17.089,17.089,0,0,0,3.382-3.382c.81-.07,1.163-.176,1.409-.564l-4.157-3.633Zm.176.564A14.963,14.963,0,0,1,235.15-.4a13.284,13.284,0,0,1-6.024-3.558ZM220.671-27.278,218.7-24.636h-5l.176.564h8.737c.881,0,1.409-.11,1.651-.493Zm-.352,7.116H212l.176.564h12.013c.881,0,1.374-.11,1.621-.493l-3.558-2.673Zm-1.127,4.615h-5.672l.176.564h9.16c.881,0,1.409-.11,1.651-.493l-3.453-2.572Zm55.346,5.637h-3.7a46.44,46.44,0,0,0,6.588-4.369,2.121,2.121,0,0,0,.81.211,1.034,1.034,0,0,0,.669-.247l-3.03-2.854a5.284,5.284,0,0,0,1.938-.7v-5.245a2.461,2.461,0,0,0,1.409-.771l-4.9-3.391-1.8,2.36h-16.8l-5.214-1.938V-16.6c4.122,0,4.827-1.621,4.827-1.691H259.6V-14.8h-7.5l.141.564H259.6V-9.9H247.446l.176.564h15.325c-1.8,1.057-3.664,2.079-5.637,3.065L254.386-7.4v2.5c-2.29.991-4.615,1.9-6.976,2.677l.141.528c2.325-.423,4.615-.916,6.835-1.515V6.16c4.157,0,4.932-1.651,4.932-1.8V3.976H271.4V5.847c3.633,0,5-1.022,5-1.057V-3.634a2.461,2.461,0,0,0,1.409-.771l-4.932-3.413-1.832,2.4h-9.864a69.928,69.928,0,0,0,8.631-3.911h9.411c.951,0,1.409-.07,1.691-.493l-4.157-2.924Zm-9.054-8.948h-2.924v-5.491h2.924Zm-.11.6v-.035h7.5v1.409h.317c-.458.458-.991.916-1.515,1.374l-2.955-2.145L266.5-14.8h-1.973v-2.677c.881-.141,1.127-.352,1.2-.771Zm7.5-.6h-2.959v-5.491h2.959Zm-14.726,0h-2.814v-5.491h2.818Zm6.377,4.615h5.6a59.966,59.966,0,0,1-5.6,3.911ZM271.4-1.1H259.318v-3.66l.317-.11H271.4Zm-12.084.564H271.4v3.95H259.318Z" transform="translate(478.313 59.617)" fill="url(#linear-gradient-2)"/>
    <text id="Environmental_Protection_Administration_Executive_Yuan_R.O.C._Taiwan_" data-name="Environmental Protection Administration Executive Yuan, R.O.C. (Taiwan)" transform="translate(482.086 82.533)" fill="#482b00" font-size="16" font-family="Calibri"><tspan x="0" y="0">Environmental Protection Administration</tspan><tspan x="0" y="14">Executive Yuan, R.O.C. (Taiwan)</tspan></text>
    <g id="组_49" data-name="组 49" transform="translate(393.012 29)">
      <g id="组_48" data-name="组 48" clip-path="url(#clip-path)">
        <path id="路径_15690" data-name="路径 15690" d="M255.037,77.058l-.265-.612h28.955c1.168-1.721,9.863-14.524,9.851-14.5a1.354,1.354,0,0,1,.94-.667,1.1,1.1,0,0,1,.959.473L307.34,76.192l13.99-.174v.44l.41.168a36.235,36.235,0,0,1-66.7.44m67.463-3.006h-8.757l-.137-.157L294.4,50.869l-.033-.04-.022-.04a.4.4,0,0,0-.147-.162c-.018,0-.164.055-.4.451-.784,1.3-14.148,21.887-14.715,22.776l-.139.2H253.929l-.1-.294-.55-1.58-.2-.581H277c1.52-2.293,15.92-24.011,15.934-24.031a1.577,1.577,0,0,1,1.127-.6,1.78,1.78,0,0,1,1.39.708c1.04,1.168,18.1,22.334,19.069,23.535l.462.461h8.649l-.2.585-.528,1.5-.1.293Zm-51.569-3.825h-18.4l-.061-.366-.394-2.367L252,66.994h17.514l14.549-21.375a28.058,28.058,0,0,0-3.02-3.11,1.244,1.244,0,0,0-.973-.411c-.292.079-.44.472-.44.473l-.018.053-.03.047-14.2,21.573-.129.2H252.11l-.013-.424c-.015-.44-.023-.881-.023-1.329a36.221,36.221,0,1,1,71.891,6.258l-.061.349-.354.013-3.544.137-.19.008-.137-.137-.023-.023-.018-.026c-.23-.31-23.025-31.046-24.441-32.588a1.2,1.2,0,0,0-.9-.491c-.371.05-.672.49-.755.654l-.011.024-.017.023L271.291,70.045l-.137.193Z" transform="translate(-252 -26.473)" fill="url(#linear-gradient)"/>
      </g>
    </g>
  </g>
</svg>
