<svg id="圖層_1" data-name="圖層 1" xmlns="http://www.w3.org/2000/svg" xmlns:xlink="http://www.w3.org/1999/xlink" width="424.5" height="69.5" viewBox="0 0 424.5 69.5">
  <defs>
    <style>
      .cls-1 {
        fill: url(#未命名漸層_73);
      }

      .cls-2 {
        fill: none;
      }

      .cls-3 {
        fill: url(#未命名漸層_73-2);
      }
    </style>
    <linearGradient id="未命名漸層_73" data-name="未命名漸層 73" x1="-860.79" y1="1230.28" x2="-860.11" y2="1229.55" gradientTransform="matrix(65.87, 0, 0, -65.84, 56709.21, 81010.49)" gradientUnits="userSpaceOnUse">
      <stop offset="0" stop-color="#ab7927"/>
      <stop offset="0.18" stop-color="#c68f46"/>
      <stop offset="0.34" stop-color="#fedb6b"/>
      <stop offset="0.36" stop-color="#f5d065"/>
      <stop offset="0.5" stop-color="#cba04a"/>
      <stop offset="0.6" stop-color="#b1823a"/>
      <stop offset="0.66" stop-color="#a87734"/>
      <stop offset="0.75" stop-color="#a2722f"/>
      <stop offset="0.86" stop-color="#926321"/>
      <stop offset="0.9" stop-color="#8c5e1c"/>
      <stop offset="1" stop-color="#d69c47"/>
    </linearGradient>
    <linearGradient id="未命名漸層_73-2" x1="73.5" y1="41.47" x2="432.62" y2="41.47" gradientTransform="matrix(1, 0, 0, 1, 0, 0)" xlink:href="#未命名漸層_73"/>
  </defs>
  <g id="组_48" data-name="组 48">
    <path id="路径_15690" data-name="路径 15690" class="cls-1" d="M2.93,48.38l-.25-.59H30.35l9.41-13.86a1.32,1.32,0,0,1,.9-.64,1.09,1.09,0,0,1,.92.46l11.33,13.8,13.37-.17v.42l.39.16a34.63,34.63,0,0,1-63.74.42M67.4,45.51H59l-.13-.15-18.36-22,0,0,0,0a.5.5,0,0,0-.14-.15s-.16.05-.39.43c-.75,1.24-13.52,20.92-14.06,21.77l-.13.19H1.87l-.1-.29-.52-1.51-.2-.55H23.92c1.46-2.19,15.22-22.95,15.23-23a1.51,1.51,0,0,1,1.08-.57,1.74,1.74,0,0,1,1.33.67c1,1.12,17.29,21.35,18.22,22.49l.44.45h8.27l-.2.55-.5,1.44-.1.28ZM18.12,41.86H.54l-.06-.35L.11,39.25,0,38.76H16.76L30.67,18.33a27,27,0,0,0-2.89-3,1.16,1.16,0,0,0-.93-.39c-.28.07-.42.45-.42.45l0,.05,0,0L12.81,36.13l-.12.19H.13v-.4c0-.43,0-.85,0-1.27a34.62,34.62,0,0,1,69.23-.07,35.06,35.06,0,0,1-.53,6.05l-.06.33H68.4L65,41.1h-.19L64.7,41l0,0,0,0c-.21-.29-22-29.67-23.35-31.14a1.14,1.14,0,0,0-.86-.47c-.35,0-.64.47-.72.63v0l0,0L18.46,41.67l-.13.19Z"/>
  </g>
  <rect class="cls-2" x="0.03" y="0.04" width="69.3" height="69.22"/>
  <g>
    <path class="cls-3" d="M87,25.48h-1c0,2.73,0,4.85.05,6.34l2.69.27V33H79.53v-.86l2.25-.22q.07-2.53.07-7.69v-1.1q0-5.19-.07-7.76l-2.25-.19v-.86h7.62q7.51,0,7.93,4.91,0,.32,0,.63a5,5,0,0,1-3.76,5.06A13.63,13.63,0,0,1,87,25.48Zm.07-10.26h-1q0,2.59-.05,7.86v1.47h.83a3.79,3.79,0,0,0,4-2.61,6.3,6.3,0,0,0,.34-2.15q0-4.2-3.49-4.54A6.08,6.08,0,0,0,87.1,15.22Z"/>
    <path class="cls-3" d="M102.11,19.15l.2,3.57a5.33,5.33,0,0,1,2.59-3.49,2.79,2.79,0,0,1,1.36-.37,2.23,2.23,0,0,1,2.42,2c-.15,1.33-.76,2-1.83,2a2.56,2.56,0,0,1-1.95-1.14l-.27-.34-.25-.3a7.46,7.46,0,0,0-2,3.59,1,1,0,0,0-.07.25V27c0,1.35,0,3,0,5l2.32.22V33H96.55v-.78L98.23,32c0-1.92,0-3.59,0-5V24.92c0-1.24,0-2.45-.07-3.64l-1.86-.2v-.61l5.42-1.56Z"/>
    <path class="cls-3" d="M116.15,33.36a6.62,6.62,0,0,1-5.61-2.56A7.63,7.63,0,0,1,109.07,26a6.87,6.87,0,0,1,2.49-5.64,7.13,7.13,0,0,1,4.59-1.54,6.81,6.81,0,0,1,5.32,2.22,7.15,7.15,0,0,1,1.76,5,7,7,0,0,1-2.56,5.88A7.17,7.17,0,0,1,116.15,33.36Zm0-.85q2.76,0,2.76-6.42c0-4.22-.94-6.33-2.76-6.35s-2.81,2.15-2.81,6.35S114.3,32.49,116.15,32.51Z"/>
    <path class="cls-3" d="M124.77,19.52l2-.22a8.73,8.73,0,0,1,2.32-5.47A6.61,6.61,0,0,1,133.63,12c1.6,0,2.61.49,3.05,1.47a1.56,1.56,0,0,1,.15.39,1.53,1.53,0,0,1-1.1,1.59,2.76,2.76,0,0,1-.71.09A2.49,2.49,0,0,1,132.8,14l-.14-.29-.4-.78a2.17,2.17,0,0,0-.58.51c-.7,1-1,2.71-1,5.1,0,.25,0,.5,0,.76H134v1h-3.2V27c0,1.64,0,3.3.07,5l2.3.2V33h-8.18v-.78l1.71-.15c0-2.25,0-3.92,0-5V20.33h-1.93Z"/>
    <path class="cls-3" d="M147.13,29.7l.47.29a5.51,5.51,0,0,1-4.28,3.25,7.61,7.61,0,0,1-6.93-2.32,7.56,7.56,0,0,1-1.54-4.86,6.83,6.83,0,0,1,2.71-5.76A7.31,7.31,0,0,1,142,18.86a5.34,5.34,0,0,1,4.88,2.44,6.15,6.15,0,0,1,.88,3.27,5.93,5.93,0,0,1-.15,1.52h-8.5q.13,4.17,2.74,5.22a4.3,4.3,0,0,0,1.61.29A4.35,4.35,0,0,0,147.13,29.7Zm-8-4.52,3.4,0a1.26,1.26,0,0,0,1.37-.88,5.16,5.16,0,0,0,.12-1.25c0-1.62-.47-2.67-1.42-3.14a2.06,2.06,0,0,0-.88-.2c-1.06,0-1.8.84-2.24,2.51A15,15,0,0,0,139.12,25.18Z"/>
    <path class="cls-3" d="M155.43,24.13l1.47.42q3.71,1.24,3.78,4.22a4.05,4.05,0,0,1-2.71,4,9,9,0,0,1-3.39.58,10.22,10.22,0,0,1-5-1.24l.2-3.4h1.61l.76,3.3a5.86,5.86,0,0,0,2.05.37c1.95,0,2.93-.7,2.95-2A2.14,2.14,0,0,0,156,28.43a9.85,9.85,0,0,0-1.27-.51l-1.47-.42q-3.54-1.14-3.56-4.1a4,4,0,0,1,2.22-3.76,7.28,7.28,0,0,1,3.51-.78A9.68,9.68,0,0,1,159.85,20l-.19,3.15h-1.42l-1-3a4.37,4.37,0,0,0-1.78-.39,2.33,2.33,0,0,0-2.35,1.2,1.84,1.84,0,0,0-.19.83c0,.86.54,1.53,1.63,2C154.86,23.94,155.14,24,155.43,24.13Z"/>
    <path class="cls-3" d="M168.2,24.13l1.47.42q3.71,1.24,3.78,4.22a4.05,4.05,0,0,1-2.71,4,9,9,0,0,1-3.39.58,10.22,10.22,0,0,1-5-1.24l.2-3.4h1.61L165,32a5.86,5.86,0,0,0,2,.37c2,0,2.93-.7,3-2a2.13,2.13,0,0,0-1.2-1.93,8.8,8.8,0,0,0-1.27-.51L166,27.5q-3.54-1.14-3.57-4.1a4,4,0,0,1,2.23-3.76,7.28,7.28,0,0,1,3.51-.78A9.71,9.71,0,0,1,172.62,20l-.19,3.15H171l-.95-3a4.37,4.37,0,0,0-1.78-.39,2.33,2.33,0,0,0-2.35,1.2,1.84,1.84,0,0,0-.19.83c0,.86.54,1.53,1.63,2C167.63,23.94,167.91,24,168.2,24.13Z"/>
    <path class="cls-3" d="M180.78,32l1.53.15V33H175v-.78l1.64-.15c0-2.93.07-4.61.07-5V25c0-.85,0-2.11-.1-3.79L174.77,21V20.4l5.71-1.49.34.24-.09,4V27C180.73,28.42,180.74,30.1,180.78,32ZM178.63,16.4a2,2,0,0,1-1.86-1,1.92,1.92,0,0,1-.29-1,1.88,1.88,0,0,1,1.07-1.78,2.28,2.28,0,0,1,1.08-.27,2.05,2.05,0,0,1,1.88,1,2,2,0,0,1,.29,1,1.9,1.9,0,0,1-1.1,1.78A2.51,2.51,0,0,1,178.63,16.4Z"/>
    <path class="cls-3" d="M191,33.36a6.62,6.62,0,0,1-5.61-2.56A7.63,7.63,0,0,1,183.9,26a6.87,6.87,0,0,1,2.49-5.64A7.13,7.13,0,0,1,191,18.86a6.81,6.81,0,0,1,5.32,2.22,7.2,7.2,0,0,1,1.76,5,7,7,0,0,1-2.56,5.88A7.17,7.17,0,0,1,191,33.36Zm0-.85q2.76,0,2.76-6.42c0-4.22-.94-6.33-2.76-6.35s-2.81,2.15-2.81,6.35S189.12,32.49,191,32.51Z"/>
    <path class="cls-3" d="M214.22,32l1.49.13V33h-7.25v-.78l1.59-.15c0-1.92,0-3.6,0-5V23.4c0-1.54-.41-2.42-1.22-2.61a3,3,0,0,0-.52-.05,4.8,4.8,0,0,0-2.85,1.44V27c0,1.42,0,3.1.05,5.05l1.44.13V33h-7.23v-.78l1.66-.15c0-2,0-3.63,0-5V24.92c0-1.24,0-2.45-.07-3.64l-1.86-.2v-.61L205,18.91l.34.24.15,2.2a6.44,6.44,0,0,1,3.95-2.44,6.13,6.13,0,0,1,.74-.05,3.51,3.51,0,0,1,3.61,2.44,6.73,6.73,0,0,1,.39,2.39V27C214.15,28.93,214.17,30.61,214.22,32Z"/>
    <path class="cls-3" d="M230.73,31.07l.41.36a3,3,0,0,1-2.44,1.88,4.26,4.26,0,0,1-.73,0,2.8,2.8,0,0,1-3-2.17,6.61,6.61,0,0,1-2.46,1.9,5.37,5.37,0,0,1-1.76.27,3.33,3.33,0,0,1-3.17-1.61,3.4,3.4,0,0,1-.47-1.78,3.59,3.59,0,0,1,1.64-3.13,14.3,14.3,0,0,1,3.68-1.53l2.45-.66V23.13c0-1.59-.3-2.6-.88-3a2.93,2.93,0,0,0-1.61-.37,4.93,4.93,0,0,0-1.05.1l-.17,1.78c-.07,1.37-.58,2.15-1.52,2.34l-.36,0a1.62,1.62,0,0,1-1.74-1.27,3.84,3.84,0,0,1,3-3.4,10.84,10.84,0,0,1,3.29-.46q3.49,0,4.49,2.22a7.47,7.47,0,0,1,.49,2.93v6.74c0,.83.28,1.25.78,1.27S230.35,31.67,230.73,31.07Zm-5.81-.54v-5.2a11.37,11.37,0,0,0-1.37.42,3.9,3.9,0,0,0-2.66,3.73c0,1.45.65,2.18,1.85,2.2a3.39,3.39,0,0,0,2-1.05Z"/>
    <path class="cls-3" d="M237.83,32l1.71.15V33H232v-.78l1.71-.15c0-2.18,0-3.86,0-5V14.2L231.92,14v-.66l5.59-1.08.35.22-.1,4V27C237.76,28.72,237.78,30.39,237.83,32Z"/>
    <path class="cls-3" d="M270.74,15.13l-2.24.19c-.05,1.73-.08,4.31-.08,7.76v1.1q0,5.2.08,7.69l2.22.22V33H262v-.86l2.2-.22c0-.92.05-2.3.05-4.12,0-1.39,0-2.38,0-3l.1-8.06-6,16.24H257l-6.15-16.09c.06,3.45.1,5.92.1,7.42v7.45l2.78.36V33H247v-.86l2.74-.34.09-16.31-2.63-.31v-.86h6.88l5.1,13.28,5-13.28h6.59Z"/>
    <path class="cls-3" d="M284.12,29.7l.46.29a5.48,5.48,0,0,1-4.27,3.25,7.61,7.61,0,0,1-6.93-2.32,7.5,7.5,0,0,1-1.54-4.86,6.8,6.8,0,0,1,2.71-5.76A7.28,7.28,0,0,1,279,18.86a5.36,5.36,0,0,1,4.89,2.44,6.15,6.15,0,0,1,.87,3.27,6,6,0,0,1-.14,1.52h-8.5q.12,4.17,2.74,5.22a4.3,4.3,0,0,0,1.61.29A4.35,4.35,0,0,0,284.12,29.7Zm-8-4.52,3.4,0a1.25,1.25,0,0,0,1.36-.88,5.08,5.08,0,0,0,.13-1.25c0-1.62-.48-2.67-1.42-3.14a2.06,2.06,0,0,0-.88-.2c-1.06,0-1.81.84-2.25,2.51A15,15,0,0,0,276.11,25.18Z"/>
    <path class="cls-3" d="M300.14,32.07l1.63.1V33l-5.37.29-.19-1.54a5.38,5.38,0,0,1-3.89,1.66,5.17,5.17,0,0,1-4.44-2.27,8.05,8.05,0,0,1-1.39-4.86,7.4,7.4,0,0,1,2.44-6.05,5.75,5.75,0,0,1,3.76-1.32,4.59,4.59,0,0,1,3.56,1.71V14.22L294.2,14v-.66l5.69-1.08.34.22-.09,4Zm-4-1.12v-9.7a3.06,3.06,0,0,0-1.86-.66c-2.29,0-3.45,1.86-3.46,5.47s1,5.4,3.12,5.54h.24A3.29,3.29,0,0,0,296.11,31Z"/>
    <path class="cls-3" d="M316.76,31.07l.42.36a3,3,0,0,1-2.44,1.88,4.38,4.38,0,0,1-.74,0,2.79,2.79,0,0,1-2.95-2.17,6.56,6.56,0,0,1-2.47,1.9,5.31,5.31,0,0,1-1.75.27,3.36,3.36,0,0,1-3.18-1.61,3.4,3.4,0,0,1-.46-1.78,3.58,3.58,0,0,1,1.63-3.13,14.55,14.55,0,0,1,3.69-1.53l2.44-.66V23.13c0-1.59-.29-2.6-.88-3a2.88,2.88,0,0,0-1.61-.37,5.06,5.06,0,0,0-1,.1l-.17,1.78c-.07,1.37-.57,2.15-1.51,2.34l-.37,0a1.62,1.62,0,0,1-1.73-1.27,3.83,3.83,0,0,1,2.95-3.4,10.87,10.87,0,0,1,3.3-.46q3.48,0,4.49,2.22a7.65,7.65,0,0,1,.49,2.93v6.74c0,.83.27,1.25.78,1.27S316.39,31.67,316.76,31.07ZM311,30.53v-5.2a12,12,0,0,0-1.37.42,3.92,3.92,0,0,0-2.66,3.73c0,1.45.65,2.18,1.86,2.2a3.42,3.42,0,0,0,2.05-1.05A.63.63,0,0,0,311,30.53Z"/>
    <path class="cls-3" d="M323.87,32l1.71.15V33H318v-.78l1.71-.15c0-2.18,0-3.86,0-5V14.2L318,14v-.66l5.59-1.08.34.22-.1,4V27C323.79,28.72,323.82,30.39,323.87,32Z"/>
    <path class="cls-3" d="M333.12,19.52l2-.22a8.73,8.73,0,0,1,2.32-5.47A6.61,6.61,0,0,1,342,12c1.6,0,2.61.49,3,1.47a1.56,1.56,0,0,1,.15.39,1.53,1.53,0,0,1-1.1,1.59,2.76,2.76,0,0,1-.71.09A2.49,2.49,0,0,1,341.15,14l-.15-.29-.39-.78a2.17,2.17,0,0,0-.58.51c-.7,1-1,2.71-1,5.1,0,.25,0,.5,0,.76h3.25v1h-3.2V27c0,1.64,0,3.3.07,5l2.3.2V33h-8.18v-.78L335,32c0-2.25.05-3.92.05-5V20.33h-1.93Z"/>
    <path class="cls-3" d="M350.28,33.36a6.62,6.62,0,0,1-5.61-2.56A7.63,7.63,0,0,1,343.2,26a6.87,6.87,0,0,1,2.49-5.64,7.13,7.13,0,0,1,4.59-1.54,6.8,6.8,0,0,1,5.32,2.22,7.15,7.15,0,0,1,1.76,5,7,7,0,0,1-2.56,5.88A7.15,7.15,0,0,1,350.28,33.36Zm0-.85q2.76,0,2.76-6.42c0-4.22-.94-6.33-2.76-6.35s-2.81,2.15-2.81,6.35S348.43,32.49,350.28,32.51Z"/>
    <path class="cls-3" d="M364.61,19.15l.2,3.57a5.33,5.33,0,0,1,2.59-3.49,2.79,2.79,0,0,1,1.36-.37,2.23,2.23,0,0,1,2.42,2c-.15,1.33-.76,2-1.83,2a2.56,2.56,0,0,1-2-1.14l-.27-.34-.25-.3a7.46,7.46,0,0,0-2,3.59,1,1,0,0,0-.07.25V27c0,1.35,0,3,.05,5l2.32.22V33h-8.13v-.78l1.68-.17c0-1.92,0-3.59,0-5V24.92c0-1.24,0-2.45-.07-3.64l-1.86-.2v-.61l5.42-1.56Z"/>
    <path class="cls-3" d="M94.3,52.77l0,5.18H79.53v-.86l2.25-.22q.07-2.53.07-7.69v-1.1q0-5.19-.07-7.76l-2.25-.19v-.86H93.84l0,5H92.35l-1.15-4H86.12c0,1.67-.05,4.25-.05,7.71h3.42l.37-2.76H91.1v6.33H89.86l-.34-2.66H86.07v.07q0,5.45.05,8h5.64l1.15-4.2Z"/>
    <path class="cls-3" d="M110.63,57l1.49.13V58h-7.25v-.78l1.59-.15c0-1.92.05-3.6.05-5V48.4c0-1.54-.41-2.42-1.22-2.61a3,3,0,0,0-.52,0,4.8,4.8,0,0,0-2.85,1.44V52c0,1.42,0,3.1,0,5l1.44.13V58H96.18v-.78L97.84,57c0-2,0-3.63,0-5V49.92c0-1.24,0-2.45-.07-3.64L96,46.08v-.61l5.42-1.56.34.24.15,2.2a6.44,6.44,0,0,1,3.95-2.44,6.13,6.13,0,0,1,.74,0,3.51,3.51,0,0,1,3.61,2.44,6.73,6.73,0,0,1,.39,2.39V52C110.56,53.93,110.58,55.61,110.63,57Z"/>
    <path class="cls-3" d="M126.7,44.3v.76l-1.78.27L120.08,58h-1.73l-5-12.75-1.54-.19V44.3h7.67v.76l-1.81.19,3.13,8.94,3-8.89-2-.24V44.3Z"/>
    <path class="cls-3" d="M133.53,57l1.54.15V58h-7.3v-.78l1.64-.15c.05-2.93.07-4.61.07-5V50c0-.85,0-2.11-.1-3.79L127.53,46V45.4l5.71-1.49.34.24-.09,4V52C133.49,53.42,133.5,55.1,133.53,57ZM131.39,41.4a2,2,0,0,1-1.86-1,1.83,1.83,0,0,1-.29-1,1.86,1.86,0,0,1,1.07-1.78,2.28,2.28,0,0,1,1.08-.27,2.05,2.05,0,0,1,1.88,1,2,2,0,0,1,.29,1,1.9,1.9,0,0,1-1.1,1.78A2.51,2.51,0,0,1,131.39,41.4Z"/>
    <path class="cls-3" d="M142.15,44.15l.2,3.57a5.3,5.3,0,0,1,2.59-3.49,2.79,2.79,0,0,1,1.36-.37,2.23,2.23,0,0,1,2.42,2c-.15,1.33-.76,2-1.83,2a2.56,2.56,0,0,1-1.95-1.14l-.27-.34-.25-.3a7.46,7.46,0,0,0-2,3.59,1,1,0,0,0-.07.25V52c0,1.35,0,3,.05,5l2.32.22V58h-8.13v-.78l1.68-.17c0-1.92,0-3.59,0-5V49.92c0-1.24,0-2.45-.07-3.64l-1.86-.2v-.61l5.42-1.56Z"/>
    <path class="cls-3" d="M156.19,58.36a6.62,6.62,0,0,1-5.61-2.56A7.63,7.63,0,0,1,149.11,51a6.87,6.87,0,0,1,2.49-5.64,7.13,7.13,0,0,1,4.59-1.54,6.81,6.81,0,0,1,5.32,2.22,7.2,7.2,0,0,1,1.76,5,7,7,0,0,1-2.56,5.88A7.17,7.17,0,0,1,156.19,58.36Zm0-.85q2.76,0,2.76-6.42c0-4.22-.94-6.33-2.76-6.35s-2.81,2.15-2.81,6.35S154.33,57.49,156.19,57.51Z"/>
    <path class="cls-3" d="M179.43,57l1.49.13V58h-7.25v-.78l1.59-.15c0-1.92.05-3.6.05-5V48.4c0-1.54-.41-2.42-1.22-2.61a3,3,0,0,0-.52,0,4.8,4.8,0,0,0-2.85,1.44V52c0,1.42,0,3.1.05,5l1.44.13V58H165v-.78l1.66-.15c0-2,.05-3.63.05-5V49.92c0-1.24,0-2.45-.07-3.64l-1.86-.2v-.61l5.42-1.56.34.24.15,2.2a6.44,6.44,0,0,1,4-2.44,6.13,6.13,0,0,1,.74,0A3.51,3.51,0,0,1,179,46.3a6.73,6.73,0,0,1,.39,2.39V52C179.36,53.93,179.38,55.61,179.43,57Z"/>
    <path class="cls-3" d="M205,57l1.49.15V58h-7.08v-.78L201,57c0-1.92,0-3.6,0-5V48.62q0-2.34-1-2.73a2.07,2.07,0,0,0-.73-.12,4.23,4.23,0,0,0-2.81,1.48,10,10,0,0,1,.1,1.44V52c0,1.94,0,3.62.07,5l1.42.13V58H191v-.78l1.61-.15c0-1.92.05-3.6.05-5V48.62c0-1.66-.41-2.59-1.22-2.81a3,3,0,0,0-.52,0,4.31,4.31,0,0,0-2.76,1.46V52c0,1.42,0,3.1,0,5l1.44.13V58h-7.22v-.78l1.66-.15c0-2,0-3.63,0-5V49.92c0-1.24,0-2.46-.08-3.67l-1.85-.19v-.59l5.42-1.56.34.24.17,2.23a6,6,0,0,1,4.22-2.52h.3a3.51,3.51,0,0,1,3.66,2.61,6.51,6.51,0,0,1,3.86-2.56,6.81,6.81,0,0,1,.78,0,3.52,3.52,0,0,1,3.85,3,9.49,9.49,0,0,1,.2,2V52C205,52.54,205,54.22,205,57Z"/>
    <path class="cls-3" d="M220.33,54.7l.46.29a5.5,5.5,0,0,1-4.27,3.25,7.07,7.07,0,0,1-1.3.12,6.84,6.84,0,0,1-5.64-2.44,7.55,7.55,0,0,1-1.53-4.86,6.8,6.8,0,0,1,2.71-5.76,7.28,7.28,0,0,1,4.44-1.44,5.33,5.33,0,0,1,4.88,2.44,6.07,6.07,0,0,1,.88,3.27,5.93,5.93,0,0,1-.15,1.52h-8.49q.12,4.17,2.73,5.22a4.53,4.53,0,0,0,5.28-1.61Zm-8-4.52,3.39,0a1.26,1.26,0,0,0,1.37-.88,5.16,5.16,0,0,0,.12-1.25c0-1.62-.47-2.67-1.41-3.14a2.09,2.09,0,0,0-.88-.2c-1.06,0-1.81.84-2.25,2.51A14.31,14.31,0,0,0,212.32,50.18Z"/>
    <path class="cls-3" d="M237.1,57l1.49.13V58h-7.25v-.78l1.58-.15c0-1.92.05-3.6.05-5V48.4c0-1.54-.4-2.42-1.22-2.61a2.76,2.76,0,0,0-.51,0,4.85,4.85,0,0,0-2.86,1.44V52c0,1.42,0,3.1.05,5l1.44.13V58h-7.22v-.78l1.66-.15c0-2,0-3.63,0-5V49.92c0-1.24,0-2.45-.07-3.64l-1.85-.2v-.61l5.42-1.56.34.24.14,2.2a6.49,6.49,0,0,1,4-2.44,6,6,0,0,1,.73,0,3.5,3.5,0,0,1,3.61,2.44,6.72,6.72,0,0,1,.4,2.39V52C237,53.93,237.05,55.61,237.1,57Z"/>
    <path class="cls-3" d="M248.87,55.9l.44.39a4.24,4.24,0,0,1-3.93,2.07c-2.37,0-3.66-1-3.89-3.12,0-.26,0-.52,0-.78v-1.3c0-.6,0-1.08,0-1.44V45.33h-2v-.81l2.22-.24,1.32-4h2.56l0,4h3.1v1h-3.1v9.44c0,1.27.59,1.92,1.66,1.93a2.51,2.51,0,0,0,1.56-.71Z"/>
    <path class="cls-3" d="M263.76,56.07l.41.36a3,3,0,0,1-2.44,1.88,4.26,4.26,0,0,1-.73,0,2.78,2.78,0,0,1-2.95-2.17,6.71,6.71,0,0,1-2.47,1.9,5.37,5.37,0,0,1-1.76.27,3.34,3.34,0,0,1-3.17-1.61,3.4,3.4,0,0,1-.47-1.78,3.59,3.59,0,0,1,1.64-3.13,14.24,14.24,0,0,1,3.69-1.53l2.44-.66V48.13c0-1.59-.29-2.6-.88-3a2.91,2.91,0,0,0-1.61-.37,4.93,4.93,0,0,0-1.05.1l-.17,1.78c-.07,1.37-.57,2.15-1.52,2.34l-.36,0a1.62,1.62,0,0,1-1.74-1.27,3.84,3.84,0,0,1,3-3.4,10.84,10.84,0,0,1,3.29-.46q3.5,0,4.5,2.22a7.67,7.67,0,0,1,.48,2.93v6.74c0,.83.28,1.25.79,1.27S263.38,56.67,263.76,56.07ZM258,55.53v-5.2a11.37,11.37,0,0,0-1.37.42,3.91,3.91,0,0,0-2.66,3.73c0,1.45.65,2.18,1.86,2.2a3.44,3.44,0,0,0,2-1A.63.63,0,0,0,258,55.53Z"/>
    <path class="cls-3" d="M270.86,57l1.71.15V58H265v-.78l1.71-.15c0-2.18.05-3.86.05-5V39.2L265,39v-.66l5.59-1.08.34.22-.1,4V52C270.79,53.72,270.81,55.39,270.86,57Z"/>
    <path class="cls-3" d="M288,50.48h-1c0,2.73,0,4.85,0,6.34l2.69.27V58h-9.28v-.86l2.25-.22q.07-2.53.07-7.69v-1.1q0-5.19-.07-7.76l-2.25-.19v-.86h7.62q7.51,0,7.93,4.91,0,.32,0,.63a5,5,0,0,1-3.76,5.06A13.63,13.63,0,0,1,288,50.48Zm.07-10.26h-1q0,2.6,0,7.86v1.47h.83a3.78,3.78,0,0,0,3.95-2.61,6.3,6.3,0,0,0,.34-2.15q0-4.2-3.49-4.54A5.93,5.93,0,0,0,288.05,40.22Z"/>
    <path class="cls-3" d="M303.07,44.15l.19,3.57a5.33,5.33,0,0,1,2.59-3.49,2.79,2.79,0,0,1,1.37-.37,2.22,2.22,0,0,1,2.41,2c-.14,1.33-.75,2-1.83,2a2.58,2.58,0,0,1-1.95-1.14l-.27-.34-.24-.3a7.39,7.39,0,0,0-2,3.59,1.82,1.82,0,0,0-.07.25V52c0,1.35,0,3,.05,5l2.32.22V58H297.5v-.78l1.68-.17c0-1.92.05-3.59.05-5V49.92c0-1.24,0-2.45-.07-3.64l-1.86-.2v-.61l5.42-1.56Z"/>
    <path class="cls-3" d="M317.1,58.36a6.62,6.62,0,0,1-5.61-2.56A7.63,7.63,0,0,1,310,51a6.87,6.87,0,0,1,2.49-5.64,7.13,7.13,0,0,1,4.59-1.54,6.83,6.83,0,0,1,5.33,2.22,7.19,7.19,0,0,1,1.75,5,7,7,0,0,1-2.56,5.88A7.15,7.15,0,0,1,317.1,58.36Zm0-.85q2.76,0,2.76-6.42c0-4.22-.93-6.33-2.76-6.35s-2.8,2.15-2.8,6.35S315.25,57.49,317.1,57.51Z"/>
    <path class="cls-3" d="M334.8,55.9l.44.39a4.23,4.23,0,0,1-3.93,2.07q-3.54,0-3.88-3.12c0-.26,0-.52,0-.78v-1.3c0-.6,0-1.08,0-1.44V45.33h-2v-.81l2.23-.24,1.31-4h2.57l-.05,4h3.1v1h-3.1v9.44c0,1.27.58,1.92,1.66,1.93a2.51,2.51,0,0,0,1.56-.71Z"/>
    <path class="cls-3" d="M348.23,54.7l.47.29a5.51,5.51,0,0,1-4.28,3.25,7.61,7.61,0,0,1-6.93-2.32A7.5,7.5,0,0,1,336,51.06a6.8,6.8,0,0,1,2.71-5.76,7.28,7.28,0,0,1,4.44-1.44A5.36,5.36,0,0,1,348,46.3a6.15,6.15,0,0,1,.88,3.27,5.93,5.93,0,0,1-.15,1.52h-8.5c.08,2.78,1,4.52,2.74,5.22a4.3,4.3,0,0,0,1.61.29A4.35,4.35,0,0,0,348.23,54.7Zm-8-4.52,3.4,0a1.25,1.25,0,0,0,1.36-.88,4.64,4.64,0,0,0,.13-1.25c0-1.62-.48-2.67-1.42-3.14a2.06,2.06,0,0,0-.88-.2c-1.06,0-1.81.84-2.24,2.51A15,15,0,0,0,340.22,50.18Z"/>
    <path class="cls-3" d="M359.66,46.72l-.27-1.93-.68,0a3.38,3.38,0,0,0-3.13,2.2,8.78,8.78,0,0,0-.73,3.81c0,2.49.71,4.21,2.15,5.17a4.07,4.07,0,0,0,2.34.68,4.33,4.33,0,0,0,3.44-1.78l.49.32a6.11,6.11,0,0,1-5.69,3.22,6.69,6.69,0,0,1-5.25-2.22,7.28,7.28,0,0,1-1.73-5,6.79,6.79,0,0,1,2.73-5.81,8,8,0,0,1,4.84-1.47,5.18,5.18,0,0,1,4.22,1.83,4.33,4.33,0,0,1,.93,2.15,1.65,1.65,0,0,1-1.66,1.34c-1.24,0-1.91-.8-2-2.41Z"/>
    <path class="cls-3" d="M373.74,55.9l.44.39a4.22,4.22,0,0,1-3.93,2.07q-3.54,0-3.88-3.12c0-.26,0-.52,0-.78v-1.3c0-.6,0-1.08,0-1.44V45.33h-2v-.81l2.23-.24,1.31-4h2.57l-.05,4h3.1v1h-3.1v9.44c0,1.27.59,1.92,1.66,1.93a2.51,2.51,0,0,0,1.56-.71Z"/>
    <path class="cls-3" d="M380.78,57l1.53.15V58H375v-.78l1.64-.15c.05-2.93.07-4.61.07-5V50c0-.85,0-2.11-.1-3.79L374.77,46V45.4l5.71-1.49.34.24-.09,4V52C380.73,53.42,380.74,55.1,380.78,57ZM378.63,41.4a2,2,0,0,1-1.86-1,1.92,1.92,0,0,1-.29-1,1.88,1.88,0,0,1,1.07-1.78,2.28,2.28,0,0,1,1.08-.27,2.05,2.05,0,0,1,1.88,1,2,2,0,0,1,.29,1,1.9,1.9,0,0,1-1.1,1.78A2.51,2.51,0,0,1,378.63,41.4Z"/>
    <path class="cls-3" d="M391,58.36a6.62,6.62,0,0,1-5.61-2.56A7.63,7.63,0,0,1,383.9,51a6.87,6.87,0,0,1,2.49-5.64A7.13,7.13,0,0,1,391,43.86a6.81,6.81,0,0,1,5.32,2.22,7.2,7.2,0,0,1,1.76,5,7,7,0,0,1-2.56,5.88A7.17,7.17,0,0,1,391,58.36Zm0-.85q2.76,0,2.76-6.42c0-4.22-.94-6.33-2.76-6.35s-2.81,2.15-2.81,6.35S389.12,57.49,391,57.51Z"/>
    <path class="cls-3" d="M414.22,57l1.49.13V58h-7.25v-.78l1.59-.15c0-1.92.05-3.6.05-5V48.4c0-1.54-.41-2.42-1.22-2.61a3,3,0,0,0-.52,0,4.8,4.8,0,0,0-2.85,1.44V52c0,1.42,0,3.1.05,5l1.44.13V58h-7.23v-.78l1.66-.15c0-2,.05-3.63.05-5V49.92c0-1.24,0-2.45-.07-3.64l-1.86-.2v-.61L405,43.91l.34.24.15,2.2a6.44,6.44,0,0,1,4-2.44,6.13,6.13,0,0,1,.74,0,3.51,3.51,0,0,1,3.61,2.44,6.73,6.73,0,0,1,.39,2.39V52C414.15,53.93,414.17,55.61,414.22,57Z"/>
  </g>
</svg>
