<svg xmlns="http://www.w3.org/2000/svg" xmlns:xlink="http://www.w3.org/1999/xlink" width="28.00692" height="28" viewBox="0 0 28.00692 28">
  <defs>
    <linearGradient id="未命名漸層_73" data-name="未命名漸層 73" y1="905.93112" x2="28.00692" y2="905.93112" gradientTransform="matrix(1, 0, 0, -1, 0, 919.93112)" gradientUnits="userSpaceOnUse">
      <stop offset="0" stop-color="#ab7927"/>
      <stop offset="0.185" stop-color="#c68f46"/>
      <stop offset="0.338" stop-color="#fedb6b"/>
      <stop offset="0.363" stop-color="#f5d065"/>
      <stop offset="0.499" stop-color="#cba04a"/>
      <stop offset="0.602" stop-color="#b1823a"/>
      <stop offset="0.66" stop-color="#a87734"/>
      <stop offset="0.748" stop-color="#a2722f"/>
      <stop offset="0.86" stop-color="#926321"/>
      <stop offset="0.896" stop-color="#8c5e1c"/>
      <stop offset="1" stop-color="#d69c47"/>
    </linearGradient>
  </defs>
  <g id="圖層_2" data-name="圖層 2">
    <g id="圖層_1-2" data-name="圖層 1">
      <path id="menu_ico5" d="M23.63084,28H4.37608A4.381,4.381,0,0,1,0,23.62392l.00016-6.65526L0,16.94837V6.7172A4.381,4.381,0,0,1,4.37608,2.34112l3.99427.00137A4.384,4.384,0,0,1,12.6338,5.73466l1.36971.00006a1.094,1.094,0,0,1-.0001,2.188l-2.35215-.00011a1.094,1.094,0,0,1-1.094-1.094V6.71857a2.19056,2.19056,0,0,0-2.18755-2.188l-3.994-.00137A2.19045,2.19045,0,0,0,2.188,6.7172V10.111l11.81542-.00011a1.094,1.094,0,0,1,0,2.188L2.188,12.299v1.67117l.00027.02445L2.188,23.62392a2.19053,2.19053,0,0,0,2.188,2.188H23.63084a2.19053,2.19053,0,0,0,2.188-2.188,1.094,1.094,0,0,1,2.188,0A4.381,4.381,0,0,1,23.63084,28Zm-5.1966-7.82225a3.256,3.256,0,0,1-2.32736-.97116L13.2808,16.35268a1.094,1.094,0,1,1,1.55472-1.53956l2.45,2.474v-16.2a1.094,1.094,0,0,1,2.188,0V17.39763L22.033,14.81306a1.094,1.094,0,1,1,1.55471,1.53956l-2.82547,2.85332a3.25664,3.25664,0,0,1-2.328.97181Zm8.47866-.93194a1.094,1.094,0,0,1-1.094-1.094V12.29884l-3.0632.00006a1.094,1.094,0,0,1-.00011-2.188l3.06331-.00006V9.01672A1.09368,1.09368,0,0,0,24.725,7.92292l-1.9694-.00011a1.094,1.094,0,0,1,.00011-2.188l1.96918.00006a3.28166,3.28166,0,0,1,3.28206,3.28189v9.13507A1.094,1.094,0,0,1,26.9129,19.24581Z" style="fill: url(#未命名漸層_73)"/>
    </g>
  </g>
</svg>
