<svg xmlns="http://www.w3.org/2000/svg" xmlns:xlink="http://www.w3.org/1999/xlink" width="22.579" height="27.787" viewBox="0 0 22.579 27.787">
  <defs>
    <linearGradient id="linear-gradient" y1="0.5" x2="1" y2="0.5" gradientUnits="objectBoundingBox">
      <stop offset="0" stop-color="#ab7927"/>
      <stop offset="0.185" stop-color="#c68f46"/>
      <stop offset="0.338" stop-color="#fedb6b"/>
      <stop offset="0.363" stop-color="#f5d065"/>
      <stop offset="0.499" stop-color="#cba04a"/>
      <stop offset="0.602" stop-color="#b1823a"/>
      <stop offset="0.66" stop-color="#a87734"/>
      <stop offset="0.748" stop-color="#a2722f"/>
      <stop offset="0.86" stop-color="#926321"/>
      <stop offset="0.896" stop-color="#8c5e1c"/>
      <stop offset="1" stop-color="#d69c47"/>
    </linearGradient>
  </defs>
  <path id="menu_ico5" d="M1315.82,110.1h-7.7a1.029,1.029,0,0,1-.657-1.12c.028-.45,0-.9.01-1.355a.3.3,0,0,0-.2-.327,5.9,5.9,0,0,1-2.282-1.79c-.5-.671-.924-1.4-1.368-2.113a.422.422,0,0,0-.422-.247c-.542.019-1.084.007-1.627.006a2.611,2.611,0,0,1-2.785-2.428,2.722,2.722,0,0,1,0-.35V91.454c0-1.04-.012-2.079.006-3.119a2.553,2.553,0,0,1,2.332-2.5c.719-.054,1.445-.024,2.168-.031h.335c0-.31-.006-.58,0-.849a2.55,2.55,0,0,1,1.358-2.311,5.914,5.914,0,0,1,.909-.331h8.356a.215.215,0,0,0,.046.027,2.622,2.622,0,0,1,2.222,2.831V85.8c.707,0,1.375-.006,2.042,0a3.659,3.659,0,0,1,.753.069,2.583,2.583,0,0,1,2.043,2.617V98.767c0,.606.008,1.211,0,1.817a2.571,2.571,0,0,1-2.188,2.518c-.37.057-.751.047-1.122.067a.287.287,0,0,0-.027.056.971.971,0,0,0-.014.107,6.17,6.17,0,0,1-1.4,3.487.6.6,0,0,0-.119.339c-.012.605-.027,1.212,0,1.816A1.038,1.038,0,0,1,1315.82,110.1Zm2.247-8.682h.509c.723,0,1.042-.319,1.042-1.042V88.6c0-.735-.321-1.056-1.058-1.056h-16.984c-.742,0-1.058.316-1.058,1.055v11.992a.841.841,0,0,0,.714.806c.379.038.764.008,1.173.008-.035-.069-.054-.108-.074-.146a1.6,1.6,0,0,1,.549-2.195,1.554,1.554,0,0,1,.231-.115,3.05,3.05,0,0,1,2.01-.212,3.276,3.276,0,0,1,1.472.8v-.392c0-2.424-.007-4.847,0-7.271a2.084,2.084,0,1,1,4.168.007c0,.02,0,.041,0,.061.005,1.854,0,3.708,0,5.562v.326c.111.021.2.042.287.053,1.543.186,3.086.374,4.63.554a2.607,2.607,0,0,1,2.255,1.981,9.921,9.921,0,0,1,.135,1Zm-3.33,6.93c0-.544.007-1.067,0-1.59a1.109,1.109,0,0,1,.329-.829,4.229,4.229,0,0,0,1.11-2.077,12.136,12.136,0,0,0,.1-2.919.81.81,0,0,0-.75-.77c-.268-.041-.538-.07-.807-.1-1.607-.189-3.214-.371-4.819-.569-.622-.077-.871-.386-.872-1.024V92.014a.342.342,0,0,0-.282-.393.349.349,0,0,0-.194.025c-.218.065-.215.233-.215.412v9.766a.884.884,0,0,1-1.629.588c-.444-.536-.882-1.077-1.33-1.61a1.23,1.23,0,0,0-1.444-.279c.043.078.084.156.13.232.591.984,1.185,1.965,1.772,2.951a5.1,5.1,0,0,0,2.691,2.246.891.891,0,0,1,.679.982v1.416Zm.04-22.555c0-.293.008-.571,0-.848a.873.873,0,0,0-.856-.891c-.022,0-.044,0-.066,0h-7.536a.816.816,0,0,0-.888.565,8.528,8.528,0,0,0-.093,1.173Z" transform="translate(-1298.778 -82.313)" fill="url(#linear-gradient)"/>
</svg>
