<svg xmlns="http://www.w3.org/2000/svg" xmlns:xlink="http://www.w3.org/1999/xlink" width="31.534" height="27.781" viewBox="0 0 31.534 27.781">
  <defs>
    <linearGradient id="linear-gradient" y1="0.5" x2="1" y2="0.5" gradientUnits="objectBoundingBox">
      <stop offset="0" stop-color="#ab7927"/>
      <stop offset="0.185" stop-color="#c68f46"/>
      <stop offset="0.338" stop-color="#fedb6b"/>
      <stop offset="0.363" stop-color="#f5d065"/>
      <stop offset="0.499" stop-color="#cba04a"/>
      <stop offset="0.602" stop-color="#b1823a"/>
      <stop offset="0.66" stop-color="#a87734"/>
      <stop offset="0.748" stop-color="#a2722f"/>
      <stop offset="0.86" stop-color="#926321"/>
      <stop offset="0.896" stop-color="#8c5e1c"/>
      <stop offset="1" stop-color="#d69c47"/>
    </linearGradient>
  </defs>
  <path id="menu_ico3" d="M1634.858,87.1v19.76a1.1,1.1,0,0,0-.064.173,3.541,3.541,0,0,1-3.652,3.068h-24.161a4.056,4.056,0,0,1-.822-.082,3.552,3.552,0,0,1-2.831-3.652V83.846a1.454,1.454,0,0,1,.566-1.233,1.581,1.581,0,0,1,1-.292h24.964a1.333,1.333,0,0,1,1.151.667,2.061,2.061,0,0,1,.219.813v2.082h2.118a1.405,1.405,0,0,1,1.388,1.05Zm-3.589.173v17.989c0,.475,0,.52.521.621a.657.657,0,0,1,.529.721.629.629,0,0,1-.6.612,1.717,1.717,0,0,1-1.825-1.6V83.681h-24.654c-.447,0-.447,0-.447.447v22.189a2.183,2.183,0,0,0,1.975,2.373h.007a1.365,1.365,0,0,0,.383,0h23.978a2.19,2.19,0,0,0,2.374-1.991,1.771,1.771,0,0,0,0-.384V87.711a.9.9,0,0,0,0-.274c0-.064-.11-.155-.164-.155Zm-19.312,2.9h3.442c.575,0,.813.228.813.8v6.949c0,.575-.228.822-.8.822h-6.954c-.584,0-.813-.247-.813-.84V91.011c0-.621.219-.84.831-.84Zm-2.94,4.246v2.648c0,.237.073.32.32.32h5.2c.228,0,.329-.055.319-.31V91.844c0-.237-.082-.3-.3-.3h-5.232c-.247,0-.31.091-.31.329Zm-.374-7.807h-.365a.685.685,0,0,0-.091,1.342,2.106,2.106,0,0,0,.42,0h17.422a2.491,2.491,0,0,0,.457,0,.628.628,0,0,0,.493-.584c0-.475-.255-.749-.793-.749h-17.541Zm-.055,17.815a1.711,1.711,0,0,0-.429,0,.64.64,0,0,0-.5.621.668.668,0,0,0,.609.721h7.3a.657.657,0,0,0,.657-.639.138.138,0,0,0,0-.064c0-.42-.3-.667-.822-.667h-6.793Zm17.687,1.379a.666.666,0,0,0,.667-.447.63.63,0,0,0-.219-.767,1.45,1.45,0,0,0-.639-.164h-6.748a2.471,2.471,0,0,0-.365,0,.686.686,0,0,0-.575.767.694.694,0,0,0,.666.584h3.6Zm-7.14-15.632a.648.648,0,0,0-.7.584.225.225,0,0,0,0,.064.658.658,0,0,0,.6.712H1626a3.87,3.87,0,0,0,.457,0,.621.621,0,0,0,.52-.594.647.647,0,0,0-.541-.739h-.007a.448.448,0,0,0-.155,0h-3.57Zm7.1,12.053a.648.648,0,0,0,.73-.555v-.011a.226.226,0,0,0,0-.082.666.666,0,0,0-.612-.712h-7.415a.613.613,0,0,0-.511.511.657.657,0,0,0,.476.8l.008,0a.53.53,0,0,0,.21,0h7.1Zm-13.943,0h3.232a.62.62,0,0,0,.674-.563l0-.031a.06.06,0,0,0,0-.046.656.656,0,0,0-.594-.7h-7.369a.639.639,0,0,0-.594.681v0h0a.657.657,0,0,0,.657.657h3.981ZM1623.56,95.1h2.739a.648.648,0,0,0,.711-.579v-.015a.666.666,0,0,0-.767-.757h-7.2a.649.649,0,0,0-.584.612.667.667,0,0,0,.566.74h4.534Zm-1.726,2.182h-2.739a.657.657,0,0,0-.7.594.48.48,0,0,0,0,.2c0,.356.319.557.758.557h7.2a.62.62,0,0,0,.575-.6.648.648,0,0,0-.545-.738l-.012,0a.558.558,0,0,0-.173,0h-3.54Z" transform="translate(-1603.324 -82.319)" fill="url(#linear-gradient)"/>
</svg>
