<svg xmlns="http://www.w3.org/2000/svg" xmlns:xlink="http://www.w3.org/1999/xlink" width="32.273" height="27.78" viewBox="0 0 32.273 27.78">
  <defs>
    <linearGradient id="linear-gradient" y1="0.5" x2="1" y2="0.5" gradientUnits="objectBoundingBox">
      <stop offset="0" stop-color="#ab7927"/>
      <stop offset="0.185" stop-color="#c68f46"/>
      <stop offset="0.338" stop-color="#fedb6b"/>
      <stop offset="0.363" stop-color="#f5d065"/>
      <stop offset="0.499" stop-color="#cba04a"/>
      <stop offset="0.602" stop-color="#b1823a"/>
      <stop offset="0.66" stop-color="#a87734"/>
      <stop offset="0.748" stop-color="#a2722f"/>
      <stop offset="0.86" stop-color="#926321"/>
      <stop offset="0.896" stop-color="#8c5e1c"/>
      <stop offset="1" stop-color="#d69c47"/>
    </linearGradient>
  </defs>
  <path id="menu_ico4" d="M1446.484,103.6V84.247a.95.95,0,0,0,.063-.143,2.184,2.184,0,0,1,2.272-1.782h27.625a2.209,2.209,0,0,1,2.308,2.094v18.766a2.928,2.928,0,0,1-.1.74,2.227,2.227,0,0,1-2.291,1.6h-1.06c.16,1,.312,1.952.472,2.9a1.3,1.3,0,0,1-.885,1.611l-.006,0a1.49,1.49,0,0,1-1.15-.178l-3.226-1.7a.811.811,0,0,0-.829,0l-3.057,1.613a4.288,4.288,0,0,1-.633.276,1.194,1.194,0,0,1-1.488-.784v-.107a2.341,2.341,0,0,1,0-.784c.143-.891.3-1.854.463-2.834h-15.988a2.246,2.246,0,0,1-2.415-1.854.43.43,0,0,0-.08-.08Zm28.457,0h1.221c.606,0,.677-.062.677-.659V84.772c0-.579-.062-.642-.624-.642h-27.2c-.588,0-.642.053-.642.651v18.475a.374.374,0,0,0,.348.392h16.042c.084,0,.167,0,.25,0,.169,0,.241-.062.267-.232.089-.588.2-1.176.285-1.782a.719.719,0,0,0-.143-.428,5.715,5.715,0,0,1-1.052-4.189,5.784,5.784,0,1,1,10.383,4.207.55.55,0,0,0-.134.33c.1.677.214,1.364.321,2.032Zm-4.866-1.88a3.912,3.912,0,1,0-3.895-3.93h0a3.912,3.912,0,0,0,3.895,3.912Zm3.636,6-.793-4.839a5.891,5.891,0,0,1-5.65,0l-.784,4.813a2.518,2.518,0,0,0,.3-.134c.6-.312,1.212-.606,1.782-.954a2.779,2.779,0,0,1,3,0c.668.392,1.364.722,2.121,1.123Zm-.891-18.1a3.116,3.116,0,0,0,.41,0,.891.891,0,0,0,.792-.98c0-.018-.005-.036-.008-.054v-.128c-.143-.49-.49-.713-1.123-.713h-21.247a1.806,1.806,0,0,0-.312,0,.964.964,0,0,0-.891.891.892.892,0,0,0,.642.891,1.874,1.874,0,0,0,.5.053h21.22Zm-21.389,3.342a.892.892,0,0,0-.891.606.946.946,0,0,0,.566,1.211h0a1.028,1.028,0,0,0,.4.053h8.939a1.017,1.017,0,0,0,.891-.428.891.891,0,0,0-.176-1.248l-.065-.044a.973.973,0,0,0-.544-.16h-9.126Z" transform="translate(-1446.479 -82.318)" fill="url(#linear-gradient)"/>
</svg>
