<svg xmlns="http://www.w3.org/2000/svg" xmlns:xlink="http://www.w3.org/1999/xlink" width="860.974" height="400.614" viewBox="0 0 860.974 400.614">
  <defs>
    <linearGradient id="linear-gradient" x1="-11.564" y1="0.055" x2="-11.564" y2="-0.013" gradientUnits="objectBoundingBox">
      <stop offset="0" stop-color="#ab7927"/>
      <stop offset="0.185" stop-color="#c68f46"/>
      <stop offset="0.338" stop-color="#fedb6b"/>
      <stop offset="0.363" stop-color="#f5d065"/>
      <stop offset="0.499" stop-color="#cba04a"/>
      <stop offset="0.602" stop-color="#b1823a"/>
      <stop offset="0.66" stop-color="#a87734"/>
      <stop offset="0.748" stop-color="#a2722f"/>
      <stop offset="0.86" stop-color="#926321"/>
      <stop offset="0.896" stop-color="#8c5e1c"/>
      <stop offset="1" stop-color="#d69c47"/>
    </linearGradient>
    <linearGradient id="linear-gradient-2" x1="-11.763" y1="0.205" x2="-11.763" y2="0.143" xlink:href="#linear-gradient"/>
    <linearGradient id="linear-gradient-3" x1="-12.03" y1="0.271" x2="-12.03" y2="0.218" xlink:href="#linear-gradient"/>
    <linearGradient id="linear-gradient-4" x1="-98.476" y1="0.764" x2="-98.476" y2="0.661" xlink:href="#linear-gradient"/>
    <linearGradient id="linear-gradient-5" x1="-75.648" y1="0.241" x2="-75.648" y2="0.18" xlink:href="#linear-gradient"/>
    <linearGradient id="linear-gradient-6" x1="-10.514" y1="0.055" x2="-10.514" y2="-0.013" xlink:href="#linear-gradient"/>
    <linearGradient id="linear-gradient-7" x1="-10.693" y1="0.205" x2="-10.693" y2="0.143" xlink:href="#linear-gradient"/>
    <linearGradient id="linear-gradient-8" x1="-10.906" y1="0.271" x2="-10.906" y2="0.218" xlink:href="#linear-gradient"/>
    <linearGradient id="linear-gradient-9" x1="-84.205" y1="0.764" x2="-84.205" y2="0.661" xlink:href="#linear-gradient"/>
    <linearGradient id="linear-gradient-10" x1="-74.524" y1="0.241" x2="-74.524" y2="0.18" xlink:href="#linear-gradient"/>
    <radialGradient id="radial-gradient" cx="0.5" cy="0.5" r="151.438" gradientTransform="matrix(0.003, 0, 0, -0.003, -1.727, 357.767)" gradientUnits="objectBoundingBox">
      <stop offset="0" stop-color="#e1ca8f"/>
      <stop offset="0.144" stop-color="#ceb47c"/>
      <stop offset="0.64" stop-color="#8c6a39"/>
      <stop offset="1" stop-color="#543516"/>
    </radialGradient>
    <linearGradient id="linear-gradient-11" x1="-4.451" y1="55.393" x2="-4.451" y2="55.227" xlink:href="#linear-gradient"/>
    <linearGradient id="linear-gradient-12" x1="-258.447" y1="81.544" x2="-258.447" y2="81.311" xlink:href="#linear-gradient"/>
    <linearGradient id="linear-gradient-13" x1="-3.466" y1="55.393" x2="-3.466" y2="55.227" xlink:href="#linear-gradient"/>
    <radialGradient id="radial-gradient-2" cx="0.5" cy="0.5" r="151.543" gradientTransform="matrix(0.003, 0, 0, -0.003, -1.727, 313.435)" xlink:href="#radial-gradient"/>
    <linearGradient id="linear-gradient-14" x1="-4.451" y1="43.9" x2="-4.451" y2="43.734" xlink:href="#linear-gradient"/>
    <linearGradient id="linear-gradient-15" x1="-258.335" y1="65.704" x2="-258.335" y2="65.471" xlink:href="#linear-gradient"/>
    <linearGradient id="linear-gradient-16" x1="-3.466" y1="43.884" x2="-3.466" y2="43.718" xlink:href="#linear-gradient"/>
    <linearGradient id="linear-gradient-17" x1="-18.464" y1="29.084" x2="-18.464" y2="28.997" xlink:href="#linear-gradient"/>
    <linearGradient id="linear-gradient-18" x1="-141.295" y1="30.223" x2="-141.295" y2="30.133" xlink:href="#linear-gradient"/>
    <linearGradient id="linear-gradient-19" x1="-167.286" y1="86.091" x2="-167.286" y2="85.854" xlink:href="#linear-gradient"/>
    <linearGradient id="linear-gradient-20" x1="-11.16" y1="11.463" x2="-11.16" y2="11.428" xlink:href="#linear-gradient"/>
    <linearGradient id="linear-gradient-21" x1="-291.879" y1="30.825" x2="-291.879" y2="30.731" xlink:href="#linear-gradient"/>
    <linearGradient id="linear-gradient-22" x1="-85.285" y1="31.916" x2="-85.285" y2="31.827" xlink:href="#linear-gradient"/>
    <linearGradient id="linear-gradient-23" x1="-107.825" y1="17.171" x2="-107.825" y2="17.123" xlink:href="#linear-gradient"/>
    <linearGradient id="linear-gradient-24" x1="-83.617" y1="31.916" x2="-83.617" y2="31.827" xlink:href="#linear-gradient"/>
    <linearGradient id="linear-gradient-25" x1="-250.418" y1="63.572" x2="-250.418" y2="63.4" xlink:href="#linear-gradient"/>
    <linearGradient id="linear-gradient-26" x1="-11.492" y1="13.996" x2="-11.492" y2="13.955" xlink:href="#linear-gradient"/>
    <linearGradient id="linear-gradient-27" x1="-42.673" y1="25.293" x2="-42.673" y2="25.223" xlink:href="#linear-gradient"/>
    <linearGradient id="linear-gradient-28" x1="-20.856" y1="14.057" x2="-20.856" y2="14.015" xlink:href="#linear-gradient"/>
    <linearGradient id="linear-gradient-29" x1="-12.629" y1="13.997" x2="-12.629" y2="13.956" xlink:href="#linear-gradient"/>
    <linearGradient id="linear-gradient-30" x1="-45.976" y1="25.293" x2="-45.976" y2="25.223" xlink:href="#linear-gradient"/>
    <linearGradient id="linear-gradient-31" x1="-21.854" y1="14.057" x2="-21.854" y2="14.016" xlink:href="#linear-gradient"/>
    <linearGradient id="linear-gradient-32" x1="-15.456" y1="29.092" x2="-15.456" y2="29.005" xlink:href="#linear-gradient"/>
    <linearGradient id="linear-gradient-33" x1="-112.985" y1="30.228" x2="-112.985" y2="30.138" xlink:href="#linear-gradient"/>
    <linearGradient id="linear-gradient-34" x1="-133.025" y1="86.122" x2="-133.025" y2="85.885" xlink:href="#linear-gradient"/>
    <linearGradient id="linear-gradient-35" x1="-9.045" y1="11.466" x2="-9.045" y2="11.431" xlink:href="#linear-gradient"/>
    <linearGradient id="linear-gradient-36" x1="0" y1="0.479" x2="4.313" y2="0.479" xlink:href="#linear-gradient"/>
    <linearGradient id="linear-gradient-37" x1="-1.06" y1="0.492" x2="3.174" y2="0.492" xlink:href="#linear-gradient"/>
    <linearGradient id="linear-gradient-38" x1="-2.164" y1="0.497" x2="2.092" y2="0.497" xlink:href="#linear-gradient"/>
    <linearGradient id="linear-gradient-39" x1="-3.234" y1="0.506" x2="1" y2="0.506" xlink:href="#linear-gradient"/>
    <linearGradient id="linear-gradient-40" x1="-39.713" y1="1.362" x2="-39.439" y2="1.623" xlink:href="#linear-gradient"/>
    <linearGradient id="linear-gradient-41" x1="-38.192" y1="1.904" x2="-37.947" y2="2.193" xlink:href="#linear-gradient"/>
    <linearGradient id="linear-gradient-42" x1="-37.067" y1="2.65" x2="-36.843" y2="2.979" xlink:href="#linear-gradient"/>
    <linearGradient id="linear-gradient-43" x1="-35.51" y1="3.659" x2="-35.307" y2="4.054" xlink:href="#linear-gradient"/>
    <linearGradient id="linear-gradient-44" x1="-33.89" y1="5.109" x2="-33.707" y2="5.621" xlink:href="#linear-gradient"/>
    <linearGradient id="linear-gradient-45" x1="-33.602" y1="6.695" x2="-33.422" y2="7.302" xlink:href="#linear-gradient"/>
    <linearGradient id="linear-gradient-46" x1="-34.637" y1="6.923" x2="-34.445" y2="7.376" xlink:href="#linear-gradient"/>
    <linearGradient id="linear-gradient-47" x1="-36.058" y1="7.138" x2="-35.848" y2="7.498" xlink:href="#linear-gradient"/>
    <linearGradient id="linear-gradient-48" x1="-37.401" y1="7.42" x2="-37.171" y2="7.727" xlink:href="#linear-gradient"/>
    <linearGradient id="linear-gradient-49" x1="-39.06" y1="7.722" x2="-38.803" y2="7.998" xlink:href="#linear-gradient"/>
    <linearGradient id="linear-gradient-50" x1="-56.24" y1="14.994" x2="-55.714" y2="16.035" xlink:href="#linear-gradient"/>
    <linearGradient id="linear-gradient-51" x1="-18.973" y1="1.425" x2="-18.973" y2="1.396" xlink:href="#linear-gradient"/>
    <linearGradient id="linear-gradient-52" x1="-17.18" y1="1.986" x2="-17.18" y2="1.955" xlink:href="#linear-gradient"/>
    <linearGradient id="linear-gradient-53" x1="-15.869" y1="2.757" x2="-15.869" y2="2.724" xlink:href="#linear-gradient"/>
    <linearGradient id="linear-gradient-54" x1="-14.663" y1="3.806" x2="-14.663" y2="3.77" xlink:href="#linear-gradient"/>
    <linearGradient id="linear-gradient-55" x1="-13.705" y1="5.324" x2="-13.705" y2="5.282" xlink:href="#linear-gradient"/>
    <linearGradient id="linear-gradient-56" x1="-13.534" y1="6.983" x2="-13.534" y2="6.938" xlink:href="#linear-gradient"/>
    <linearGradient id="linear-gradient-57" x1="-14.129" y1="7.171" x2="-14.129" y2="7.132" xlink:href="#linear-gradient"/>
    <linearGradient id="linear-gradient-58" x1="-15.102" y1="7.356" x2="-15.102" y2="7.321" xlink:href="#linear-gradient"/>
    <linearGradient id="linear-gradient-59" x1="-16.251" y1="7.617" x2="-16.251" y2="7.585" xlink:href="#linear-gradient"/>
    <linearGradient id="linear-gradient-60" x1="-17.774" y1="7.905" x2="-17.774" y2="7.874" xlink:href="#linear-gradient"/>
    <linearGradient id="linear-gradient-61" x1="-26.898" y1="15.942" x2="-26.898" y2="15.883" xlink:href="#linear-gradient"/>
  </defs>
  <g id="news1" transform="translate(-530.486 -709.889)">
    <g id="组_121" data-name="组 121" transform="translate(0.973 -0.938)">
      <g id="環保獎章活動專業網頁開張_112年環境保護專業獎章要開跑嚕_關於專業獎章頒發作業要點附件更新說明_112年將新增線上申請方式_" data-name="環保獎章活動專業網頁開張 112年環境保護專業獎章要開跑嚕 關於專業獎章頒發作業要點附件更新說明 112年將新增線上申請方式 " style="isolation: isolate">
        <text id="環保獎章活動專業網頁開張_" data-name="環保獎章活動專業網頁開張。" transform="translate(823.614 881.266)" fill="#371d00" font-size="22.516" font-family="GenYoGothicTW-R, GenYoGothic TW" style="isolation: isolate"><tspan x="0" y="0">環保獎章活動專業網頁開張。</tspan></text>
        <text id="_112年環境保護專業獎章要開跑嚕_" data-name="112年環境保護專業獎章要開跑嚕。" transform="translate(823.614 927.369)" fill="#371d00" font-size="22.516" font-family="GenYoGothicTW-R, GenYoGothic TW" style="isolation: isolate"><tspan x="0" y="0">112年環境保護專業獎章要開跑嚕。</tspan></text>
        <text id="關於專業獎章頒發作業要點附件更新說明_" data-name="關於專業獎章頒發作業要點附件更新說明。" transform="translate(823.614 973.474)" fill="#371d00" font-size="22.516" font-family="GenYoGothicTW-R, GenYoGothic TW" style="isolation: isolate"><tspan x="0" y="0">關於專業獎章頒發作業要點附件更新說明。</tspan></text>
        <text id="_112年將新增線上申請方式_" data-name="112年將新增線上申請方式。" transform="translate(823.614 1019.578)" fill="#371d00" font-size="22.516" font-family="GenYoGothicTW-R, GenYoGothic TW" style="isolation: isolate"><tspan x="0" y="0">112年將新增線上申請方式。</tspan></text>
      </g>
      <g id="_2022_08_03_2022_08_03_2022_08_03_2022_08_03" data-name=" 2022 08 03 2022 08 03 2022 08 03 2022 08 03" style="isolation: isolate">
        <text id="_2022_08_03" data-name="2022/08/03" transform="translate(667.427 880.486)" fill="#b20932" font-size="22.516" font-family="GenYoGothicTW-M, GenYoGothic TW" style="isolation: isolate"><tspan x="0" y="0">2022/08/03</tspan></text>
        <text id="_2022_08_03-2" data-name="2022/08/03" transform="translate(667.427 926.591)" fill="#b20932" font-size="22.516" font-family="GenYoGothicTW-M, GenYoGothic TW" style="isolation: isolate"><tspan x="0" y="0">2022/08/03</tspan></text>
        <text id="_2022_08_03-3" data-name="2022/08/03" transform="translate(667.427 972.694)" fill="#b20932" font-size="22.516" font-family="GenYoGothicTW-M, GenYoGothic TW" style="isolation: isolate"><tspan x="0" y="0">2022/08/03</tspan></text>
        <text id="_2022_08_03-4" data-name="2022/08/03" transform="translate(667.427 1018.799)" fill="#b20932" font-size="22.516" font-family="GenYoGothicTW-M, GenYoGothic TW" style="isolation: isolate"><tspan x="0" y="0">2022/08/03</tspan></text>
      </g>
      <line id="直线_26" data-name="直线 26" x2="610.175" transform="translate(658.789 891.307)" fill="none" stroke="#9b7b48" stroke-width="1"/>
      <line id="直线_29" data-name="直线 29" x2="610.175" transform="translate(658.789 992.141)" fill="none" stroke="#9b7b48" stroke-width="1"/>
      <line id="直线_27" data-name="直线 27" x2="610.175" transform="translate(658.789 939.139)" fill="none" stroke="#9b7b48" stroke-width="1"/>
      <line id="直线_28" data-name="直线 28" x2="610.175" transform="translate(658.789 1039.973)" fill="none" stroke="#9b7b48" stroke-width="1"/>
    </g>
    <g id="组_182" data-name="组 182" transform="translate(0.973 -0.938)">
      <g id="组_157" data-name="组 157">
        <g id="组_150" data-name="组 150">
          <g id="组_145" data-name="组 145">
            <path id="路径_15900" data-name="路径 15900" d="M1047.567,1105.093l-.341.337a12.013,12.013,0,0,1-1.021.933,18.254,18.254,0,0,1-4.354,2.687c-.249.107-.5.226-.766.334l-.818.307-.423.155-.438.139c-.3.091-.595.189-.9.277a32.672,32.672,0,0,1-4,.83,40.011,40.011,0,0,1-4.495.344,45.444,45.444,0,0,1-4.825-.182,54.587,54.587,0,0,1-11.966-2.5c-1.7-.557-3.217-1.15-4.541-1.728s-2.433-1.147-3.324-1.608c-1.9-.676-4.649-1.729-7.943-2.978-1.651-.612-3.431-1.286-5.338-1.923s-3.919-1.263-6.021-1.8a53.193,53.193,0,0,0-8.855-1.492,21.779,21.779,0,0,0-7.2.7c-1.025.247-1.95.508-2.763.741s-1.517.436-2.1.592-1.03.267-1.338.333l-.47.1.447-.174c.293-.115.72-.292,1.266-.53l1.993-.87c.781-.337,1.677-.711,2.694-1.072a25.938,25.938,0,0,1,3.416-.99c.316-.065.636-.135.965-.18s.669-.107,1.016-.131l.524-.049c.177-.012.356-.014.536-.022l.544-.016.536.014a40.454,40.454,0,0,1,9.238,1.258,55.228,55.228,0,0,1,6.149,1.991c1.914.736,3.674,1.532,5.283,2.28,3.209,1.52,5.8,2.888,7.595,3.814.952.343,2.107.763,3.46,1.179s2.9.858,4.6,1.268a82.211,82.211,0,0,0,11.76,1.963c1.592.14,3.15.233,4.654.254s2.953-.026,4.329-.125a36,36,0,0,0,3.882-.509c.3-.06.593-.127.883-.187l.429-.092.417-.108.81-.214c.261-.078.514-.164.764-.242a20.279,20.279,0,0,0,4.518-2.059c.515-.3.879-.58,1.138-.759Z" fill="url(#linear-gradient)"/>
          </g>
          <g id="组_146" data-name="组 146">
            <path id="路径_15901" data-name="路径 15901" d="M1047.064,1106.24l-.429.2c-.286.125-.7.321-1.253.552a27.914,27.914,0,0,1-4.854,1.439,29.185,29.185,0,0,1-7.551.429,37.454,37.454,0,0,1-4.435-.619,46.233,46.233,0,0,1-4.634-1.207c-2.122-.67-4.122-1.45-5.986-2.241s-3.594-1.6-5.18-2.351c-3.167-1.515-5.768-2.806-7.576-3.66-.952-.3-2.124-.664-3.475-1.063s-2.882-.794-4.592-1.234-3.527-.943-5.461-1.42-3.976-.931-6.093-1.245a26.542,26.542,0,0,0-8.74-.043l-.489.1-.479.113c-.321.069-.624.171-.93.253s-.6.2-.882.3a7.413,7.413,0,0,0-.791.358,22.847,22.847,0,0,0-2.788,1.876,23.977,23.977,0,0,1-2.4,1.624,7.884,7.884,0,0,1-2.037.848,4.836,4.836,0,0,1-1.377.15c-.157,0-.276-.019-.356-.024l-.12-.013.121-.009c.081-.008.2-.007.352-.033a5.029,5.029,0,0,0,1.292-.346,8.022,8.022,0,0,0,1.807-1.063q1.109-.87,2.126-1.847a20.651,20.651,0,0,1,2.744-2.252,8.3,8.3,0,0,1,.9-.5c.316-.146.622-.273.945-.405.321-.116.65-.25.992-.348l.513-.159.525-.137c.352-.1.715-.162,1.081-.24.367-.06.739-.133,1.117-.174a21.389,21.389,0,0,1,2.317-.174,28.718,28.718,0,0,1,4.832.322,46.648,46.648,0,0,1,6.266,1.426c1.95.573,3.753,1.2,5.412,1.775.826.289,1.617.565,2.374.849l.558.206.536.215,1.025.413c1.314.552,2.436,1.06,3.341,1.493,1.913.6,4.671,1.578,7.944,2.833s7.077,2.766,11.19,4.074c1.515.481,3,.891,4.455,1.242s2.863.595,4.217.794a32.253,32.253,0,0,0,12.157-.592Z" fill="url(#linear-gradient-2)"/>
          </g>
          <g id="组_147" data-name="组 147">
            <path id="路径_15902" data-name="路径 15902" d="M1047.567,1105.092l-.392.276c-.127.092-.288.2-.484.321s-.419.268-.683.412a13.628,13.628,0,0,1-4.851,1.659,15.637,15.637,0,0,1-3.592.064,24.017,24.017,0,0,1-4.03-.757c-1.385-.376-2.806-.858-4.25-1.379l-2.19-.809-2.238-.9q-1.539-.624-3.016-1.246c-.981-.418-1.951-.807-2.864-1.248-1.838-.857-3.568-1.685-5.155-2.466-.8-.385-1.551-.765-2.264-1.132l-2.021-1.044c-1.264-.66-2.359-1.24-3.242-1.716-1.888-.7-4.633-1.723-7.9-3.023a45.492,45.492,0,0,0-5.322-1.7,30.1,30.1,0,0,0-6.081-.9,21.191,21.191,0,0,0-4.514.271l-.271.038c-.089.017-.177.039-.265.057l-.536.119-.524.108c-.172.044-.34.1-.509.146-.335.108-.675.186-1,.3l-.956.358-.237.089-.228.107-.45.209c-.292.14-.614.269-.858.411a11.043,11.043,0,0,0-1.476,1.056c-.935.777-1.785,1.584-2.6,2.284a18.045,18.045,0,0,1-2.339,1.762,8.824,8.824,0,0,1-1.081.555,5.521,5.521,0,0,1-.981.3,3.464,3.464,0,0,1-1.394.014,2.621,2.621,0,0,1-.349-.087l-.117-.034.121.014a2.8,2.8,0,0,0,.353.029,3.422,3.422,0,0,0,1.314-.215,5.32,5.32,0,0,0,.865-.4,8.914,8.914,0,0,0,.937-.651,19.591,19.591,0,0,0,2.031-1.948c.721-.769,1.48-1.649,2.394-2.555a11.506,11.506,0,0,1,1.574-1.324c.322-.215.617-.36.933-.536l.471-.258.24-.129.249-.108,1.017-.45c.346-.147.711-.255,1.072-.387.182-.061.363-.129.55-.185l.566-.148.573-.148c.1-.024.192-.052.289-.073l.294-.053a20.063,20.063,0,0,1,4.909-.371,26.491,26.491,0,0,1,6.457,1.1,36.644,36.644,0,0,1,5.411,2.106c3.171,1.564,5.776,2.91,7.552,3.86.943.352,2.1.79,3.431,1.305l4.468,1.758c1.64.643,3.411,1.356,5.277,2.128.929.4,1.9.751,2.884,1.143s1.988.788,3,1.2l2.212.91,2.166.865c1.413.567,2.769,1.095,4.075,1.538a26.333,26.333,0,0,0,3.746,1,16.03,16.03,0,0,0,3.344.267,14.378,14.378,0,0,0,4.806-1c.276-.107.517-.209.725-.3s.386-.171.526-.24Z" fill="url(#linear-gradient-3)"/>
          </g>
          <g id="组_148" data-name="组 148">
            <path id="路径_15903" data-name="路径 15903" d="M1043.866,1106.613s.2-.064.537-.159c.169-.048.368-.136.594-.215a5.452,5.452,0,0,0,.7-.368,3.043,3.043,0,0,0,1.2-1.328,3.344,3.344,0,0,0,.174-.457c.018-.083.037-.166.059-.248a2.55,2.55,0,0,0,.042-.26,4.741,4.741,0,0,0,.02-1.123,7.284,7.284,0,0,0-.938-2.911,6.865,6.865,0,0,0-.751-1.062,6.5,6.5,0,0,0-.741-.725,5.907,5.907,0,0,0-2.3-.053,10.8,10.8,0,0,0-1.485.352,4.985,4.985,0,0,0-.684.287c-.107.05-.193.122-.3.175-.04.033-.08.067-.122.1l-.063.047-.049.054a1.346,1.346,0,0,0-.389.67,1.944,1.944,0,0,0,.034.875,2.729,2.729,0,0,0,.91,1.46,1.213,1.213,0,0,0,.6.264l.075.013h.072a1.377,1.377,0,0,0,.143-.005,2.491,2.491,0,0,0,.254-.067l.205-.091.142-.093.124-.08-.064.132c-.021.043-.048.1-.083.163a1.662,1.662,0,0,1-.157.2,1.98,1.98,0,0,1-.251.225c-.052.033-.107.064-.174.1l-.1.049-.107.034a1.777,1.777,0,0,1-1.051,0,3.316,3.316,0,0,1-1.988-1.726,3.176,3.176,0,0,1-.341-1.675,2.829,2.829,0,0,1,.262-.953l.117-.228.145-.215a2.4,2.4,0,0,1,.33-.381l.122-.12.129-.1c.087-.066.175-.131.261-.192a4.314,4.314,0,0,1,1.589-.586l.5-.066.474-.018a4,4,0,0,1,.451.009l.429.028c.145.018.29.043.429.066l.2.034.2.053.369.108c.116.044.227.093.333.139a4.379,4.379,0,0,1,1,.6,4.861,4.861,0,0,1,1.092.416,5.467,5.467,0,0,1,1.258.929,5.844,5.844,0,0,1,1.722,3.589,4.775,4.775,0,0,1-.13,1.658,3.6,3.6,0,0,1-.12.391l-.155.374a4,4,0,0,1-.416.671,3.675,3.675,0,0,1-.509.548c-.089.081-.189.146-.281.215a2.048,2.048,0,0,1-.286.183,3.251,3.251,0,0,1-.573.26l-.276.091c-.089.026-.181.038-.268.055a4.364,4.364,0,0,1-.927.08,6.721,6.721,0,0,1-.677-.073C1044.057,1106.665,1043.866,1106.613,1043.866,1106.613Z" fill="url(#linear-gradient-4)"/>
          </g>
          <g id="组_149" data-name="组 149">
            <path id="路径_15904" data-name="路径 15904" d="M971.056,1103.9l-.237.1a4.512,4.512,0,0,1-.713.215,2.806,2.806,0,0,1-.556.065,1.68,1.68,0,0,1-.714-.133,1.228,1.228,0,0,1-.651-.688,1.968,1.968,0,0,1-.086-1.009,4.274,4.274,0,0,1,1.807-2.716,2.959,2.959,0,0,1,1.332-.494,2.472,2.472,0,0,1,.818.05,2.622,2.622,0,0,1,.773.322,3.009,3.009,0,0,1,.622.509,3.918,3.918,0,0,1,.467.6,5.236,5.236,0,0,1,.353.635,5.134,5.134,0,0,1,.267.668c.038.117.078.234.114.354s.054.248.082.374l.037.189.02.2c.01.132.028.263.029.4a4.088,4.088,0,0,1-.524,2.1,4.628,4.628,0,0,1-1.344,1.478,6.641,6.641,0,0,1-3.148,1.159,7.619,7.619,0,0,1-2.716-.176,5.769,5.769,0,0,1-1.871-.83,4.386,4.386,0,0,1-.844-.429l-.225-.151c-.075-.056-.145-.119-.214-.182a5.435,5.435,0,0,1-.429-.4,6.2,6.2,0,0,1-.8-1.032,4.366,4.366,0,0,1-.564-1.438,3.977,3.977,0,0,1,.065-1.753,5.431,5.431,0,0,1,.766-1.645,11.328,11.328,0,0,1,2.534-2.568,36,36,0,0,1,4.14-2.637c1.287-.732,2.451-1.366,3.385-1.956a13.062,13.062,0,0,0,2.093-1.561,6.269,6.269,0,0,0,.494-.523l.16-.2-.091.239a5.08,5.08,0,0,1-.337.662,10.2,10.2,0,0,1-1.749,2.109,30.381,30.381,0,0,1-3.109,2.538c-1.2.884-2.552,1.793-3.86,2.794a13.392,13.392,0,0,0-2.278,2.1,3.367,3.367,0,0,0-.871,2.231,4.377,4.377,0,0,0,.729,2.083c.1.148.19.3.288.42.048.062.092.128.142.187l.156.167a4.264,4.264,0,0,0,.632.545,5.912,5.912,0,0,0,1.8.34,7.818,7.818,0,0,0,2.334-.267,7.529,7.529,0,0,0,1.228-.453,5.329,5.329,0,0,0,1.118-.722,3.261,3.261,0,0,0,.8-.99,2.515,2.515,0,0,0,.269-1.2c0-.081-.014-.162-.018-.244l-.008-.121-.025-.122-.046-.246-.073-.247a3.91,3.91,0,0,0-.175-.493,3.846,3.846,0,0,0-.214-.448,2.028,2.028,0,0,0-.508-.634.934.934,0,0,0-.57-.215,2.247,2.247,0,0,0-1.413.625,3.309,3.309,0,0,0-.92,1.244,1.259,1.259,0,0,0-.094.575.576.576,0,0,0,.222.4,1.213,1.213,0,0,0,.469.214,2.59,2.59,0,0,0,.489.073,5.532,5.532,0,0,0,.717-.006Z" fill="url(#linear-gradient-5)"/>
          </g>
        </g>
        <g id="组_156" data-name="组 156">
          <g id="组_151" data-name="组 151">
            <path id="路径_15905" data-name="路径 15905" d="M874.778,1105.093l.341.337a12.023,12.023,0,0,0,1.021.933,18.235,18.235,0,0,0,4.354,2.687c.249.107.5.226.767.334l.817.307.423.155.438.139c.3.091.595.189.9.277a32.7,32.7,0,0,0,4,.83,39.994,39.994,0,0,0,4.494.344,45.435,45.435,0,0,0,4.825-.182,54.588,54.588,0,0,0,11.966-2.5c1.7-.557,3.216-1.15,4.541-1.728s2.432-1.147,3.323-1.608c1.9-.676,4.649-1.729,7.943-2.978,1.651-.612,3.431-1.286,5.339-1.923s3.917-1.263,6.021-1.8a53.187,53.187,0,0,1,8.853-1.492,21.791,21.791,0,0,1,7.2.7c1.025.247,1.949.508,2.763.741s1.516.436,2.095.592,1.031.267,1.339.333l.47.1-.447-.174c-.292-.115-.72-.292-1.265-.53l-2-.87c-.78-.337-1.676-.711-2.692-1.072a25.832,25.832,0,0,0-3.416-.99c-.316-.065-.637-.135-.965-.18s-.668-.107-1.015-.131l-.524-.049c-.176-.012-.355-.014-.537-.022l-.543-.016-.536.014a40.454,40.454,0,0,0-9.238,1.258,55.232,55.232,0,0,0-6.149,1.991c-1.914.736-3.674,1.532-5.283,2.28-3.208,1.52-5.8,2.888-7.6,3.814-.951.343-2.107.763-3.46,1.179s-2.9.858-4.6,1.268A82.222,82.222,0,0,1,897,1109.414c-1.592.14-3.15.233-4.654.254s-2.953-.026-4.33-.125a35.965,35.965,0,0,1-3.88-.509c-.3-.06-.594-.127-.883-.187l-.429-.092-.416-.108-.811-.214c-.261-.078-.514-.164-.763-.242a20.214,20.214,0,0,1-4.518-2.059c-.515-.3-.881-.58-1.139-.759Z" fill="url(#linear-gradient-6)"/>
          </g>
          <g id="组_152" data-name="组 152">
            <path id="路径_15906" data-name="路径 15906" d="M875.282,1106.24l.429.2c.285.125.7.321,1.252.552a27.917,27.917,0,0,0,4.854,1.439,29.18,29.18,0,0,0,7.55.429,37.441,37.441,0,0,0,4.436-.619,46.23,46.23,0,0,0,4.634-1.207c2.122-.67,4.122-1.45,5.985-2.241s3.6-1.6,5.18-2.351c3.167-1.515,5.768-2.806,7.577-3.66.951-.3,2.123-.664,3.475-1.063s2.882-.794,4.592-1.234,3.527-.943,5.461-1.42,3.976-.931,6.093-1.245a26.53,26.53,0,0,1,8.738-.043l.49.1.479.113c.321.069.624.171.93.253s.6.2.882.3a7.413,7.413,0,0,1,.791.358,22.756,22.756,0,0,1,2.787,1.876,24.119,24.119,0,0,0,2.4,1.624,7.885,7.885,0,0,0,2.037.848,4.829,4.829,0,0,0,1.376.15c.157,0,.276-.019.356-.024l.12-.013-.121-.009c-.08-.008-.2-.007-.352-.033a4.994,4.994,0,0,1-1.287-.346,7.994,7.994,0,0,1-1.806-1.063,28.079,28.079,0,0,1-2.127-1.847,20.7,20.7,0,0,0-2.743-2.252,8.316,8.316,0,0,0-.9-.5c-.316-.146-.622-.273-.944-.405-.322-.116-.651-.25-.992-.348l-.513-.159-.525-.137c-.352-.1-.715-.162-1.081-.24-.366-.06-.738-.133-1.117-.174a21.389,21.389,0,0,0-2.317-.174,28.718,28.718,0,0,0-4.832.322,46.665,46.665,0,0,0-6.267,1.426c-1.95.573-3.753,1.2-5.413,1.775-.825.289-1.616.565-2.373.849l-.558.206-.536.215-1.024.413c-1.313.552-2.437,1.06-3.341,1.493-1.913.6-4.671,1.578-7.945,2.833s-7.076,2.766-11.19,4.074c-1.515.481-3,.891-4.455,1.242s-2.863.595-4.217.794a32.253,32.253,0,0,1-12.157-.592Z" fill="url(#linear-gradient-7)"/>
          </g>
          <g id="组_153" data-name="组 153">
            <path id="路径_15907" data-name="路径 15907" d="M874.778,1105.092l.391.276c.128.092.289.2.485.321s.42.268.684.412a13.616,13.616,0,0,0,4.85,1.659,15.637,15.637,0,0,0,3.592.064,24.017,24.017,0,0,0,4.03-.757c1.385-.376,2.806-.858,4.25-1.379l2.189-.809,2.239-.9q1.539-.624,3.016-1.246c.981-.418,1.952-.807,2.864-1.248,1.839-.857,3.568-1.685,5.155-2.466.8-.385,1.55-.765,2.264-1.132l2.022-1.044c1.264-.66,2.358-1.24,3.242-1.716,1.889-.7,4.633-1.723,7.9-3.023a45.551,45.551,0,0,1,5.322-1.7,30.1,30.1,0,0,1,6.081-.9,21.209,21.209,0,0,1,4.516.262l.271.039c.09.016.178.039.266.057l.528.115.524.108c.171.044.34.1.508.147.336.107.676.185,1,.3l.958.358.236.089.227.107.45.209c.292.14.615.27.858.411a11.062,11.062,0,0,1,1.478,1.056c.934.777,1.785,1.584,2.6,2.284a17.983,17.983,0,0,0,2.338,1.763,8.951,8.951,0,0,0,1.082.554,5.471,5.471,0,0,0,.98.3,3.461,3.461,0,0,0,1.394.014,2.321,2.321,0,0,0,.348-.087l.117-.034-.122.014a2.782,2.782,0,0,1-.353.029,3.416,3.416,0,0,1-1.313-.215,5.3,5.3,0,0,1-.867-.405,8.728,8.728,0,0,1-.937-.651,19.47,19.47,0,0,1-2.032-1.948c-.721-.769-1.48-1.649-2.394-2.555a11.562,11.562,0,0,0-1.573-1.324c-.321-.215-.618-.359-.932-.536l-.473-.258-.239-.129-.249-.107-1.018-.451c-.345-.147-.711-.255-1.072-.387-.182-.061-.363-.128-.549-.185l-.566-.148-.574-.148c-.095-.024-.191-.052-.288-.073l-.294-.053a20.117,20.117,0,0,0-4.909-.371,26.5,26.5,0,0,0-6.457,1.1,36.645,36.645,0,0,0-5.411,2.106c-3.171,1.564-5.775,2.91-7.552,3.86-.942.352-2.1.79-3.431,1.3l-4.468,1.758c-1.639.644-3.411,1.357-5.277,2.129-.928.4-1.9.75-2.884,1.142s-1.987.789-3,1.2l-2.212.911-2.166.864c-1.412.567-2.767,1.1-4.074,1.538a26.52,26.52,0,0,1-3.746,1,16.17,16.17,0,0,1-3.345.267,14.377,14.377,0,0,1-4.8-1c-.278-.107-.519-.209-.727-.3s-.386-.17-.527-.24Z" fill="url(#linear-gradient-8)"/>
          </g>
          <g id="组_154" data-name="组 154">
            <path id="路径_15908" data-name="路径 15908" d="M878.478,1106.613s-.2-.064-.536-.159c-.169-.048-.368-.136-.594-.215a5.452,5.452,0,0,1-.7-.368,3.031,3.031,0,0,1-1.2-1.328,3.352,3.352,0,0,1-.174-.457c-.018-.083-.036-.166-.058-.248s-.032-.173-.042-.26a4.738,4.738,0,0,1-.02-1.123,7.3,7.3,0,0,1,.939-2.911,6.792,6.792,0,0,1,.751-1.062,6.5,6.5,0,0,1,.741-.725,5.907,5.907,0,0,1,2.3-.053,10.869,10.869,0,0,1,1.485.352,5.043,5.043,0,0,1,.684.287c.107.05.193.122.3.175.04.033.08.067.122.1l.063.047.05.054a1.361,1.361,0,0,1,.389.67,1.944,1.944,0,0,1-.034.875,2.729,2.729,0,0,1-.91,1.46,1.213,1.213,0,0,1-.6.264l-.074.013h-.072a1.346,1.346,0,0,1-.143-.005,2.494,2.494,0,0,1-.254-.067l-.206-.091-.142-.093-.123-.08.064.132c.021.043.048.1.083.163a1.656,1.656,0,0,0,.157.2,1.984,1.984,0,0,0,.251.225c.053.033.107.064.175.1l.1.049.107.034a1.777,1.777,0,0,0,1.051,0,3.314,3.314,0,0,0,1.987-1.726,3.167,3.167,0,0,0,.341-1.675,2.831,2.831,0,0,0-.262-.953l-.116-.228-.144-.215a2.41,2.41,0,0,0-.332-.381l-.122-.12-.13-.1c-.086-.066-.173-.131-.261-.192a4.8,4.8,0,0,0-.536-.28,4.9,4.9,0,0,0-1.053-.306l-.5-.066-.475-.018a3.984,3.984,0,0,0-.45.009l-.429.028c-.145.018-.289.043-.429.066l-.2.034-.2.053-.368.108c-.117.044-.228.093-.335.139a4.385,4.385,0,0,0-1,.6,4.842,4.842,0,0,0-1.092.416,5.494,5.494,0,0,0-1.259.929,5.85,5.85,0,0,0-1.722,3.589,4.774,4.774,0,0,0,.13,1.658,3.846,3.846,0,0,0,.12.391c.053.125.107.251.156.374a3.938,3.938,0,0,0,.416.671,3.675,3.675,0,0,0,.509.548c.089.081.19.146.282.215a2.04,2.04,0,0,0,.286.183,3.251,3.251,0,0,0,.573.26l.275.091c.09.026.182.038.268.055a4.379,4.379,0,0,0,.928.08,6.731,6.731,0,0,0,.676-.073C878.287,1106.665,878.478,1106.613,878.478,1106.613Z" fill="url(#linear-gradient-9)"/>
          </g>
          <g id="组_155" data-name="组 155">
            <path id="路径_15909" data-name="路径 15909" d="M951.287,1103.9l.237.1a4.685,4.685,0,0,0,.713.215,2.815,2.815,0,0,0,.556.065,1.687,1.687,0,0,0,.715-.133,1.231,1.231,0,0,0,.651-.688,1.957,1.957,0,0,0,.085-1.009,4.274,4.274,0,0,0-1.8-2.716,2.979,2.979,0,0,0-1.332-.494,2.466,2.466,0,0,0-.817.05,2.592,2.592,0,0,0-.774.322,3.011,3.011,0,0,0-.622.509,4.011,4.011,0,0,0-.467.6,5.221,5.221,0,0,0-.352.635,5.134,5.134,0,0,0-.267.668c-.039.117-.078.234-.115.354l-.08.374-.038.189-.02.2c-.011.132-.028.263-.029.4a4.087,4.087,0,0,0,.524,2.1,4.65,4.65,0,0,0,1.344,1.478,6.651,6.651,0,0,0,3.148,1.159,7.62,7.62,0,0,0,2.716-.176,5.783,5.783,0,0,0,1.872-.83,4.348,4.348,0,0,0,.843-.429l.225-.151c.074-.056.144-.119.214-.182a5.435,5.435,0,0,0,.429-.4,6.2,6.2,0,0,0,.8-1.032,4.366,4.366,0,0,0,.565-1.438,3.991,3.991,0,0,0-.067-1.753,5.448,5.448,0,0,0-.764-1.645,11.337,11.337,0,0,0-2.536-2.568,35.842,35.842,0,0,0-4.14-2.637c-1.286-.732-2.451-1.366-3.383-1.956a12.981,12.981,0,0,1-2.094-1.561,6.425,6.425,0,0,1-.495-.523l-.159-.2.091.239a5.207,5.207,0,0,0,.336.662,10.229,10.229,0,0,0,1.749,2.109,30.522,30.522,0,0,0,3.11,2.538c1.2.884,2.551,1.793,3.859,2.794a13.4,13.4,0,0,1,2.279,2.1,3.367,3.367,0,0,1,.871,2.231,4.357,4.357,0,0,1-.729,2.083,5.011,5.011,0,0,1-.287.42c-.048.062-.092.128-.143.187l-.155.167a4.167,4.167,0,0,1-.633.545,5.905,5.905,0,0,1-1.8.34,7.818,7.818,0,0,1-2.334-.267,7.585,7.585,0,0,1-1.23-.453,5.323,5.323,0,0,1-1.117-.722,3.264,3.264,0,0,1-.8-.99,2.528,2.528,0,0,1-.27-1.2c0-.081.014-.162.018-.244l.009-.121.025-.122.046-.246.074-.247a3.743,3.743,0,0,1,.173-.493,3.852,3.852,0,0,1,.215-.448,2.026,2.026,0,0,1,.507-.634.939.939,0,0,1,.57-.215,2.242,2.242,0,0,1,1.414.625,3.3,3.3,0,0,1,.919,1.244,1.247,1.247,0,0,1,.1.575.576.576,0,0,1-.222.4,1.224,1.224,0,0,1-.47.214,2.591,2.591,0,0,1-.489.073,5.518,5.518,0,0,1-.716-.006Z" fill="url(#linear-gradient-10)"/>
          </g>
        </g>
      </g>
      <g id="组_160" data-name="组 160">
        <path id="路径_15945" data-name="路径 15945" d="M748.553,778.837h430.87a.715.715,0,0,0,0-1.427H748.553a.715.715,0,0,0,0,1.427Z" fill="url(#radial-gradient)"/>
      </g>
      <g id="组_161" data-name="组 161">
        <path id="路径_15946" data-name="路径 15946" d="M963.473,774.89h214.786a1.09,1.09,0,0,0,1.09-1.09v-.022a1.088,1.088,0,0,0-1.085-1.091h-.005c-15.585.038-193.27.37-214.562-4.237a1.086,1.086,0,0,0-1.291.834,1.062,1.062,0,0,0-.025.232V773.8A1.09,1.09,0,0,0,963.473,774.89Z" fill="url(#linear-gradient-11)"/>
        <circle id="椭圆_1" data-name="椭圆 1" cx="2.298" cy="2.298" r="2.298" transform="translate(961.853 770.293)" fill="url(#linear-gradient-12)"/>
        <path id="路径_15947" data-name="路径 15947" d="M964.5,774.89H749.716a1.091,1.091,0,0,1-1.091-1.09h0v-.022a1.089,1.089,0,0,1,1.085-1.091h.006c15.585.038,193.268.37,214.561-4.237a1.087,1.087,0,0,1,1.292.835,1.06,1.06,0,0,1,.025.231V773.8A1.091,1.091,0,0,1,964.5,774.89Z" fill="url(#linear-gradient-13)"/>
      </g>
      <g id="组_162" data-name="组 162">
        <path id="路径_15948" data-name="路径 15948" d="M748.553,839.3h430.87a.715.715,0,0,0,0-1.426H748.553a.715.715,0,0,0,0,1.426Z" fill="url(#radial-gradient-2)"/>
      </g>
      <g id="组_163" data-name="组 163">
        <path id="路径_15949" data-name="路径 15949" d="M963.473,841.824h214.786a1.09,1.09,0,0,1,1.09,1.09v.023a1.087,1.087,0,0,1-1.086,1.09h0c-15.585-.037-193.27-.369-214.562,4.239a1.087,1.087,0,0,1-1.291-.835,1.063,1.063,0,0,1-.025-.232V842.91A1.091,1.091,0,0,1,963.473,841.824Z" fill="url(#linear-gradient-14)"/>
        <path id="路径_15950" data-name="路径 15950" d="M966.449,844.123a2.3,2.3,0,1,0-2.3,2.3h0A2.3,2.3,0,0,0,966.449,844.123Z" fill="url(#linear-gradient-15)"/>
        <path id="路径_15951" data-name="路径 15951" d="M964.5,841.824H749.716a1.09,1.09,0,0,0-1.09,1.09v.025a1.086,1.086,0,0,0,1.083,1.09h.007c15.585-.037,193.268-.369,214.561,4.239a1.088,1.088,0,0,0,1.292-.836,1.053,1.053,0,0,0,.025-.231v-4.289A1.091,1.091,0,0,0,964.5,841.824Z" fill="url(#linear-gradient-16)"/>
      </g>
      <g id="组_181" data-name="组 181">
        <g id="组_171" data-name="组 171">
          <g id="组_168" data-name="组 168">
            <path id="路径_15960" data-name="路径 15960" d="M1074.281,759.011l-.568.18c-.188.06-.429.108-.7.182-.139.038-.292.058-.454.091s-.336.068-.521.092a26.463,26.463,0,0,1-6.326.069,59.594,59.594,0,0,1-9.228-1.684c-1.709-.44-3.487-.958-5.311-1.559q-1.368-.45-2.766-.965c-.935-.345-1.866-.722-2.805-1.1-1.875-.768-3.674-1.548-5.421-2.245s-3.438-1.312-5.077-1.823a38.477,38.477,0,0,0-8.928-1.749q-.964-.048-1.844-.017a16.336,16.336,0,0,0-1.636.153,10.539,10.539,0,0,0-2.538.693,8.169,8.169,0,0,0-1.471.813c-.158.107-.271.208-.351.267l-.121.092.108-.107c.07-.071.169-.183.312-.322a7.849,7.849,0,0,1,1.384-1.025,10.433,10.433,0,0,1,2.548-1.035,15.965,15.965,0,0,1,1.691-.344c.606-.083,1.248-.143,1.925-.172a34.046,34.046,0,0,1,9.376,1.12,53.4,53.4,0,0,1,5.317,1.664c1.808.663,3.634,1.421,5.492,2.181.93.376,1.845.751,2.748,1.105s1.8.686,2.689,1c1.772.643,3.5,1.224,5.146,1.747a79.123,79.123,0,0,0,8.9,2.316,29.851,29.851,0,0,0,6.16.613c.185,0,.356-.017.519-.024a4.356,4.356,0,0,0,.456-.031c.281-.033.522-.049.713-.082Z" fill="url(#linear-gradient-17)"/>
          </g>
          <g id="组_169" data-name="组 169">
            <path id="路径_15961" data-name="路径 15961" d="M1082.45,747.719a.781.781,0,0,1,.637-.35,2.09,2.09,0,0,1,.536.009,4.559,4.559,0,0,1,.66.167,5.664,5.664,0,0,1,.75.359,4.8,4.8,0,0,1,.788.6,4.651,4.651,0,0,1,1.3,2.063,4.889,4.889,0,0,1,.181,1.731,5.7,5.7,0,0,1-.61,2.1,8.647,8.647,0,0,1-3.028,3.216,11.313,11.313,0,0,1-1.753.931,10.3,10.3,0,0,1-1.551.509c-.913.214-1.507.191-1.532.1s.486-.363,1.2-.858c.354-.252.764-.549,1.18-.909a12.721,12.721,0,0,0,1.229-1.218,9.2,9.2,0,0,0,1.035-1.422,5.738,5.738,0,0,0,.607-1.419,3.347,3.347,0,0,0,.107-1.122,3.924,3.924,0,0,0-.151-.71,5.294,5.294,0,0,0-.478-1.077c-.09-.186-.215-.357-.322-.536s-.226-.346-.322-.517a4.28,4.28,0,0,1-.28-.483,3.3,3.3,0,0,1-.2-.438A.906.906,0,0,1,1082.45,747.719Z" fill="url(#linear-gradient-18)"/>
          </g>
          <g id="组_170" data-name="组 170">
            <path id="路径_15962" data-name="路径 15962" d="M1092.1,758.251a1.454,1.454,0,0,1-.347.554,2.82,2.82,0,0,1-.515.408,3.226,3.226,0,0,1-1.255.453c-.238.027-.643.031-1.149.088a9.271,9.271,0,0,0-1.673.343c-.141.048-.285.089-.422.139l-.4.15c-.252.107-.5.208-.7.306s-.377.177-.51.229-.229.067-.27.037-.039-.117-.011-.259a2.529,2.529,0,0,1,.188-.568,5.312,5.312,0,0,1,.414-.768c.091-.133.191-.272.3-.415s.228-.276.35-.418a7.23,7.23,0,0,1,1.776-1.425,4.889,4.889,0,0,1,1.679-.622,2.739,2.739,0,0,1,2.065.49,1.394,1.394,0,0,1,.471.627A.976.976,0,0,1,1092.1,758.251Z" fill="url(#linear-gradient-19)"/>
          </g>
          <path id="路径_15963" data-name="路径 15963" d="M1104.627,753.1c-.007-.259-.049-.51-.073-.764s-.05-.505-.094-.751a13.354,13.354,0,0,0-2.187-5.447,13.96,13.96,0,0,0-3.987-3.7,17.521,17.521,0,0,0-4.531-1.946,22.439,22.439,0,0,0-4.366-.751,26.221,26.221,0,0,0-3.924.039l-.9.087-.858.125c-.282.035-.554.09-.821.142s-.531.1-.785.157l-.743.18-.358.089-.347.107-.665.2c-.215.063-.422.144-.624.214a22.051,22.051,0,0,0-3.578,1.6c-.2.1-.364.214-.509.3l-.362.224-.294.182.308-.157.378-.194c.152-.077.322-.172.529-.258a22.713,22.713,0,0,1,3.645-1.322c.2-.053.409-.118.626-.166l.665-.148.345-.077.357-.063.737-.129c.251-.041.512-.068.774-.107s.537-.071.809-.088l.841-.069.873-.031a26.228,26.228,0,0,1,3.779.184,21.986,21.986,0,0,1,4.1.932,16.471,16.471,0,0,1,4.086,1.995,12.53,12.53,0,0,1,3.376,3.409,11.7,11.7,0,0,1,1.7,4.765c.031.214.036.441.057.661a6.183,6.183,0,0,1,.041.665,10.588,10.588,0,0,1-.056,1.321,10.74,10.74,0,0,1-.215,1.313c-.058.215-.125.429-.185.644a5.165,5.165,0,0,1-.227.636,11.1,11.1,0,0,1-.572,1.239l-.359.593-.089.148-.107.142-.2.286a13.167,13.167,0,0,1-1.93,2.122,20.654,20.654,0,0,1-5.073,3.28,30.357,30.357,0,0,1-6.029,2.064,32.49,32.49,0,0,1-3.216.58,29.624,29.624,0,0,1-3.288.232h-.821l-.815-.032-.8-.066-.833-.107c-1.111-.144-2.218-.26-3.308-.464l-1.631-.272c-.536-.1-1.072-.215-1.608-.328s-1.072-.215-1.6-.335l-1.574-.381c-4.182-1.022-8.155-2.292-11.923-3.591s-7.333-2.629-10.691-3.833-6.506-2.291-9.406-3.206c-1.458-.438-2.839-.868-4.161-1.232s-2.584-.681-3.777-.921a23.331,23.331,0,0,0-6.213-.536,11.433,11.433,0,0,0-2.251.373c-.246.068-.469.145-.679.223l-.2.05c-.091.023-.181.045-.27.073l-.266.082c-.088.027-.173.061-.26.091-.174.059-.341.134-.508.2a8.506,8.506,0,0,0-1.812,1.085,8.078,8.078,0,0,0-.751.68,6.737,6.737,0,0,0-1.792,3.225,5.8,5.8,0,0,0-.131,1.625,6.282,6.282,0,0,0,.251,1.413,6.91,6.91,0,0,0,.5,1.215l.155.284c.026.048.054.1.084.14l.089.141a3.206,3.206,0,0,0,.19.27l.1.132.108.125a6.489,6.489,0,0,0,.91.9,8.1,8.1,0,0,0,1.018.706,9.617,9.617,0,0,0,3.324,1.18c.188.033.376.051.564.072.093.011.188.014.281.022s.186.014.281.014l.279.006c.092,0,.185,0,.277-.006h.139l.137-.01.274-.02.272-.034.135-.018.134-.024.266-.048.262-.064c.087-.019.173-.044.258-.07s.17-.051.255-.079c.166-.063.334-.118.492-.193a5.782,5.782,0,0,0,.91-.5l.207-.15.108-.076.1-.082.192-.164.177-.178.088-.089c.028-.03.053-.063.081-.095l.159-.188c.049-.066.1-.133.143-.2l.07-.1c.023-.034.042-.07.063-.108l.122-.206.107-.215.051-.107.043-.107.084-.215.067-.214c.01-.037.022-.073.032-.107l.023-.108.047-.214.029-.214c0-.037.011-.072.014-.108l.007-.107c0-.072.007-.143.011-.214s0-.143,0-.215v-.107c0-.035-.006-.07-.009-.107-.007-.069-.014-.138-.02-.206a2.005,2.005,0,0,0-.034-.2,3.5,3.5,0,0,0-.089-.388,3.924,3.924,0,0,0-.651-1.314,3.663,3.663,0,0,0-.927-.868,3.43,3.43,0,0,0-.965-.437c-.039-.011-.075-.024-.107-.033l-.108-.024-.214-.043c-.138-.015-.267-.031-.386-.038h-.33l-.107.009a1.45,1.45,0,1,0,.638.378l.107.026.184.062.1.032.1.041a3.275,3.275,0,0,1,1.519,1.254,3.379,3.379,0,0,1,.473,1.13,3.194,3.194,0,0,1,.056.322c.005.055.015.107.019.167s0,.114.008.17v.347c-.007.058-.012.117-.02.176l-.008.088a.513.513,0,0,1-.016.087l-.034.177-.046.177-.023.089-.031.087c-.02.058-.041.116-.061.175a1.836,1.836,0,0,1-.077.171l-.037.087-.045.084-.091.167-.107.162-.053.082-.06.077c-.041.051-.079.107-.121.155l-.134.148c-.023.025-.045.051-.068.074l-.075.069-.148.139-.162.129-.08.065-.087.059-.175.119a6.01,6.01,0,0,1-3.538.809c-.082,0-.165-.011-.247-.017s-.167-.013-.25-.024c-.166-.023-.333-.041-.5-.074a8.714,8.714,0,0,1-2.935-1.083,7.134,7.134,0,0,1-.876-.619,5.477,5.477,0,0,1-.758-.75l-.085-.107-.079-.108a2.5,2.5,0,0,1-.152-.214l-.071-.107a1.041,1.041,0,0,1-.068-.116l-.133-.242a5.768,5.768,0,0,1-.416-1.021,5.242,5.242,0,0,1-.215-1.158,4.786,4.786,0,0,1,.1-1.324,5.332,5.332,0,0,1,.518-1.394c.058-.118.132-.227.2-.343s.151-.223.228-.337a6.764,6.764,0,0,1,.541-.643,7.231,7.231,0,0,1,.644-.594,7.531,7.531,0,0,1,1.573-.965c.145-.061.29-.13.444-.182.076-.028.151-.058.227-.084l.234-.075c.077-.027.156-.046.235-.066s.158-.043.241-.064l.507-.107c.086-.018.17-.039.255-.054l.258-.044.26-.044c.087-.014.173-.03.261-.038l.528-.062c.176-.019.354-.024.536-.037s.358-.014.536-.016h.271c.09,0,.18.008.272.011l.273.014a2.114,2.114,0,0,1,.274.02l.548.06c.438.048.879.061,1.315.121.389.054.775.118,1.168.145q1.029.07,2.052.206l1.561.207s-.011,0-.015-.006c.476.151.965.308,1.456.477,1.286.429,2.637.937,4.057,1.443,2.828,1.056,5.9,2.277,9.2,3.62s6.818,2.8,10.583,4.221a119.371,119.371,0,0,0,12.053,3.928l1.609.415c.541.133,1.091.244,1.64.367s1.1.246,1.657.356l1.684.3c1.124.214,2.272.348,3.425.5l.867.107.909.076.909.038c.3.008.606,0,.911,0a32.769,32.769,0,0,0,13.551-3.217,22.5,22.5,0,0,0,5.575-3.775,15.178,15.178,0,0,0,2.179-2.527l.233-.345.116-.172.107-.18.408-.722a13.212,13.212,0,0,0,.65-1.515,6.65,6.65,0,0,0,.251-.778c.068-.264.14-.526.2-.788a13.014,13.014,0,0,0,.225-3.17Z" fill="url(#linear-gradient-20)"/>
        </g>
        <path id="路径_15964" data-name="路径 15964" d="M964.2,756.511l-2.076,4.4.013.017c.847,1.137,2.106,6.926,2.106,6.926a.031.031,0,0,0,.032.03.032.032,0,0,0,.029-.023c.242-1.214,1.222-5.945,1.96-6.933l.013-.017Z" fill="url(#linear-gradient-21)"/>
        <g id="组_176" data-name="组 176">
          <g id="组_174" data-name="组 174">
            <g id="组_172" data-name="组 172">
              <path id="路径_15965" data-name="路径 15965" d="M979.968,725.158a1.192,1.192,0,0,0,.666-.83,2.522,2.522,0,0,0-.214-1.647,4.232,4.232,0,0,0-1.752-1.843,5.329,5.329,0,0,0-3.029-.673,6.173,6.173,0,0,0-1.943.467,7.646,7.646,0,0,0-2.133,1.315,8.871,8.871,0,0,0-1.739,2.045,9.92,9.92,0,0,0-1.064,2.384,10.9,10.9,0,0,0-.389,2.3c-.014.354-.017.692-.007,1a8.43,8.43,0,0,0,.077.869c.037.263.085.5.128.708a4.586,4.586,0,0,0,.155.529c.108.288.2.445.275.445s.165-.157.279-.429c.118-.3.265-.68.429-1.108.09-.225.2-.465.306-.719s.247-.51.382-.775a11.543,11.543,0,0,1,1.006-1.553,8.148,8.148,0,0,1,1.286-1.286,6.092,6.092,0,0,1,1.36-.82,4.516,4.516,0,0,1,1.162-.337,1.776,1.776,0,0,1,.231-.029,1.367,1.367,0,0,1,.2-.02,1.459,1.459,0,0,0,.176-.016.883.883,0,0,0,.146,0c.36-.024.65-.046.939-.058a5.4,5.4,0,0,1,.952.024A4.356,4.356,0,0,0,979.968,725.158Z" fill="url(#linear-gradient-22)"/>
            </g>
            <path id="路径_15966" data-name="路径 15966" d="M969.183,719.388a40.217,40.217,0,0,0-2.51,11.338.081.081,0,0,1-.069.089l-1.884,2.138a.628.628,0,0,1-.886.053.443.443,0,0,1-.053-.053L961.9,730.82c-.036,0-.066-.037-.07-.089a40.32,40.32,0,0,0-2.51-11.337c-.016-.038,3.88-7,4.757-8.457a.194.194,0,0,1,.35,0C965.3,712.387,969.2,719.352,969.183,719.388Z" fill="url(#linear-gradient-23)"/>
            <g id="组_173" data-name="组 173">
              <path id="路径_15967" data-name="路径 15967" d="M948.283,725.158a1.194,1.194,0,0,1-.666-.83,2.522,2.522,0,0,1,.215-1.647,4.23,4.23,0,0,1,1.751-1.843,5.327,5.327,0,0,1,3.029-.673,6.174,6.174,0,0,1,1.942.467,7.631,7.631,0,0,1,2.133,1.315,8.847,8.847,0,0,1,1.739,2.045,9.885,9.885,0,0,1,1.065,2.384,10.962,10.962,0,0,1,.389,2.3c.014.354.016.692.006,1a7.657,7.657,0,0,1-.077.869c-.037.263-.085.5-.129.708a4.6,4.6,0,0,1-.155.529c-.107.288-.2.445-.274.445s-.166-.157-.279-.429l-.429-1.108c-.09-.225-.2-.465-.307-.719s-.246-.51-.383-.775a11.441,11.441,0,0,0-1-1.553,8.155,8.155,0,0,0-1.287-1.286,6.064,6.064,0,0,0-1.359-.82,4.536,4.536,0,0,0-1.163-.337,1.782,1.782,0,0,0-.23-.029,1.381,1.381,0,0,0-.2-.02,1.3,1.3,0,0,1-.176-.016.9.9,0,0,1-.147,0c-.359-.024-.649-.046-.939-.058a5.4,5.4,0,0,0-.952.024A4.367,4.367,0,0,1,948.283,725.158Z" fill="url(#linear-gradient-24)"/>
            </g>
          </g>
          <path id="路径_15968" data-name="路径 15968" d="M964.25,733.725l-2.406,2.282h0c.429.583,2.406,3.932,2.406,3.932h0s1.88-3.349,2.313-3.932h0Z" fill="url(#linear-gradient-25)"/>
          <path id="路径_15969" data-name="路径 15969" d="M954.123,731.04l.487.131,1.8.513,1.366.377.995.238.009-.022-.959-.363-.774-.31-.14-.107-.162-.127c.064.016.131.028.2.044a6.573,6.573,0,0,1,1.872.785c.006-.017.014-.032.02-.049a1.526,1.526,0,0,1,.135-.286,6.971,6.971,0,0,0-1.919-.864,11.922,11.922,0,0,0-1.239-.279,19.505,19.505,0,0,0-2.425-1.316l-.477-.215-.505-.208c-.343-.147-.707-.272-1.084-.413a24.947,24.947,0,0,0-2.455-.726,20.888,20.888,0,0,0-2.8-.476,15.026,15.026,0,0,0-1.513-.07l-.769.018c-.259.009-.517.033-.777.051a31.442,31.442,0,0,0-7.526,1.653,50.42,50.42,0,0,0-4.99,2.032c-.6.214-1.349.452-2.187.792s-1.791.727-2.829,1.16c-1.016.477-2.115,1.007-3.275,1.575-1.135.615-2.339,1.253-3.554,1.961-.888.53-1.753,1.053-2.584,1.563a27.558,27.558,0,0,0-2.319,1.655l-2,1.578c-.624.49-1.214.929-1.762,1.317a15.146,15.146,0,0,1-2.751,1.562c-.174.069-.328.135-.463.185l-.349.108-.287.093.3-.052.364-.064c.142-.032.3-.078.487-.126a13.433,13.433,0,0,0,2.956-1.287c.591-.342,1.228-.738,1.891-1.187s1.359-.941,2.089-1.452,1.494-1.036,2.315-1.517q1.262-.726,2.591-1.518l3.49-2.011c1.125-.6,2.186-1.188,3.163-1.73,1-.5,1.906-.96,2.708-1.372s1.515-.736,2.09-1.012c1.206-.406,2.966-.979,5.105-1.559a42.343,42.343,0,0,1,7.4-1.362c.25-.016.5-.04.75-.05l.737-.026c.485-.009.959,0,1.43.035a24.653,24.653,0,0,1,2.708.349c.858.155,1.672.356,2.428.554.375.107.742.205,1.086.322l.51.162.484.169c.722.254,1.353.513,1.887.751-.254-.03-.511-.056-.772-.075a19.345,19.345,0,0,0-4.35-1.073c-.233-.039-.467-.045-.706-.066s-.479-.039-.723-.05c-.488-.005-.987-.036-1.494-.01a24.035,24.035,0,0,0-3.124.279,38.845,38.845,0,0,0-7.648,2.116c-1.084.4-2.063.8-2.925,1.156-.429.18-.832.342-1.2.505l-1,.453-1.042.346-1.217.469c-.879.322-1.844.762-2.9,1.23-2.1.965-4.511,2.222-7.043,3.606-1.862,1.024-3.632,1.993-5.254,2.8a37.364,37.364,0,0,1-4.5,1.76c-.661.2-1.25.409-1.785.522a6.5,6.5,0,0,0-1.369.429,2.064,2.064,0,0,0-.311.183l-.45.039-1.032.066-.512.031-.512.018c-.341.011-.68.032-1.018.032a30.059,30.059,0,0,1-3.979-.185l-.484-.063c-.16-.023-.321-.038-.48-.071l-.947-.175-.927-.225a4.4,4.4,0,0,1-.456-.129l-.451-.139c-.15-.048-.3-.087-.448-.143l-.44-.165c-.292-.107-.584-.214-.865-.344s-.569-.243-.845-.378l-.82-.416c-.138-.067-.271-.144-.4-.22l-.4-.227-.394-.226c-.131-.075-.256-.16-.385-.24l-.76-.482c-.122-.082-.237-.165-.354-.247s-.234-.163-.345-.252l-.334-.261c-.108-.088-.215-.185-.322-.275-.215-.179-.413-.378-.617-.568a12.955,12.955,0,0,1-1.09-1.228,13.418,13.418,0,0,1-.907-1.312,12.406,12.406,0,0,1-.7-1.373,11.906,11.906,0,0,1-.51-1.393c-.058-.235-.127-.466-.174-.7s-.1-.46-.126-.69a9.619,9.619,0,0,1-.037-2.625,8.613,8.613,0,0,1,.6-2.267,9.385,9.385,0,0,1,1.012-1.806,10.2,10.2,0,0,1,1.268-1.455l.356-.321a1.861,1.861,0,0,1,.18-.153l.18-.144a4.4,4.4,0,0,1,.373-.274l.19-.132.2-.12a9.287,9.287,0,0,1,1.67-.808,11.845,11.845,0,0,1,1.781-.512,14.687,14.687,0,0,1,5.4-.062c.289.045.572.113.858.174.141.031.279.073.418.107s.277.072.413.118a10.365,10.365,0,0,1,5.278,3.437l.214.3.108.15.093.156.187.31.161.322.081.159c.024.053.044.107.067.163l.133.321c.037.107.07.222.107.332l.054.165c.015.055.026.107.039.167l.078.332c.017.107.033.224.05.335l.026.166.012.166.023.332v.491l-.013.162-.027.321c-.016.107-.034.215-.051.315-.008.052-.015.108-.024.156l-.037.152c-.023.107-.047.2-.071.3s-.062.2-.093.293l-.045.147c-.018.048-.037.094-.056.141l-.107.28c-.04.091-.086.179-.127.267q-.128.261-.279.509a5.945,5.945,0,0,1-1.423,1.608,5.575,5.575,0,0,1-1.638.891,5.379,5.379,0,0,1-1.558.3c-.061,0-.12.01-.179.012h-.174l-.335-.007-.185-.018a2.572,2.572,0,0,0,1.394-2.573,2.517,2.517,0,0,0-2.731-2.284h-.018a2.573,2.573,0,0,0,.1,5.108l.173.082.536.193c.2.06.416.107.649.165l.366.053.194.027c.066.007.133.009.2.012a5.718,5.718,0,0,0,1.815-.16,6.231,6.231,0,0,0,2.008-.9,6.864,6.864,0,0,0,1.823-1.8,6.691,6.691,0,0,0,.37-.594c.057-.107.118-.207.171-.314l.153-.331c.024-.056.051-.107.075-.167l.065-.174.13-.352.107-.365.053-.185c.015-.062.026-.125.039-.189l.079-.382c.019-.13.034-.262.051-.393l.025-.2c.005-.067.007-.133.011-.2.007-.134.013-.27.02-.406s-.008-.272-.012-.411l-.006-.207-.022-.207c-.016-.138-.031-.277-.047-.417s-.053-.277-.079-.417c-.014-.069-.026-.14-.042-.214l-.057-.207c-.039-.138-.075-.279-.117-.416l-.149-.41c-.026-.067-.049-.137-.077-.2l-.091-.2c-.061-.133-.124-.267-.187-.4l-.214-.388-.108-.195-.121-.186-.248-.374a10.025,10.025,0,0,0-1.191-1.371c-.214-.222-.454-.411-.688-.614-.12-.1-.245-.188-.369-.284s-.247-.187-.378-.272l-.389-.259-.406-.241-.2-.12-.215-.107-.421-.214-.429-.2-.215-.1-.223-.088c-.148-.058-.3-.119-.448-.175l-.457-.155c-.152-.055-.307-.1-.463-.143s-.311-.093-.469-.131c-.322-.076-.634-.157-.958-.214a15.439,15.439,0,0,0-1.975-.257,15.813,15.813,0,0,0-4.1.246,13.8,13.8,0,0,0-2.065.575,11,11,0,0,0-2,.955l-.242.146-.235.162c-.158.107-.316.214-.465.338l-.227.18a2.472,2.472,0,0,0-.214.184l-.418.381a11.961,11.961,0,0,0-1.512,1.73,11.224,11.224,0,0,0-1.249,2.205,10.539,10.539,0,0,0-.728,2.787,12.173,12.173,0,0,0,1.045,6.44,14.068,14.068,0,0,0,.83,1.581,15.056,15.056,0,0,0,2.317,2.886c.232.214.46.438.708.643.124.107.244.209.37.308l.385.293c.128.1.262.192.4.282s.269.187.4.275l.809.5c.138.082.271.17.411.249l.424.235.429.237c.141.079.284.16.428.23l.888.436c.3.14.611.264.919.4s.625.246.944.361l.479.17c.16.059.322.1.488.149l.492.145c.165.048.329.1.5.132l1.009.229,1.024.174c.171.033.344.048.517.069l.518.06a31.2,31.2,0,0,0,4.191.132c.352-.007.7-.033,1.053-.048l.527-.027.527-.041,1.055-.085,1.054-.107c.352-.034.7-.074,1.055-.118l1.056-.126,1.072-.159.536-.08c.178-.027.354-.067.536-.1l1.063-.206c.354-.073.7-.162,1.056-.242.706-.154,1.394-.357,2.1-.545.349-.092.691-.208,1.037-.31s.693-.205,1.033-.321c.683-.232,1.368-.456,2.037-.709,1.354-.486,2.68-1.028,4-1.573s2.609-1.124,3.884-1.705,2.54-1.16,3.79-1.734,2.48-1.129,3.705-1.683c2.444-1.112,4.793-2.22,7.085-3.163,1.145-.475,2.277-.9,3.39-1.278s2.214-.686,3.289-.948A23.235,23.235,0,0,1,954.123,731.04Zm2.389.277c.149.082.275.156.372.214l.048.028-.428-.171-.349-.14C956.277,731.267,956.4,731.292,956.512,731.317Zm-8.483-.294c-1.1.241-2.232.527-3.372.886s-2.3.764-3.464,1.217c-2.337.9-4.718,1.965-7.175,3.021-1.227.524-2.485,1.06-3.743,1.608s-2.532,1.106-3.815,1.656-2.58,1.09-3.888,1.619-2.631,1.026-3.967,1.477c-.666.238-1.34.445-2.014.659-.334.108-.675.2-1.014.3s-.675.2-1.016.285c-.682.169-1.361.356-2.047.493-.343.072-.683.153-1.026.214l-1.031.183c-.171.029-.343.063-.514.086l-.516.069-1.03.137-1.045.108c-.347.036-.693.071-1.039.1l-.243.022.026-.011a6.747,6.747,0,0,1,1.366-.264c.555-.058,1.168-.214,1.853-.352a29.25,29.25,0,0,0,4.7-1.471c1.715-.743,3.524-1.665,5.386-2.689,2.538-1.387,4.876-2.732,6.9-3.829,1.019-.537,1.942-1.044,2.78-1.442l1.161-.581.995-.451,1.036-.342c.379-.123.8-.247,1.24-.386.888-.273,1.891-.592,2.99-.921a56.031,56.031,0,0,1,7.57-1.823,29.574,29.574,0,0,1,3.015-.311c.487-.038.965-.024,1.438-.038.235,0,.468.013.7.018a5.876,5.876,0,0,1,.681.031,18.226,18.226,0,0,1,1.907.227,26.465,26.465,0,0,0-3.782.5Z" fill="url(#linear-gradient-26)"/>
          <path id="路径_15970" data-name="路径 15970" d="M936.52,728.541l-.651.209c-.192.063-.388.113-.581.171s-.387.116-.582.163c-.39.1-.779.205-1.173.283-.2.041-.391.088-.587.125l-.591.107c-.1.016-.2.036-.295.05l-.3.039-.591.078-.6.061q-.3.033-.6.057l-.14.012.014-.006a3.147,3.147,0,0,1,.644-.131c-.222.023-.446.04-.675.05a1.377,1.377,0,0,0-.176.107l-.257.022-.591.038-.294.018-.293.011c-.195.006-.389.018-.584.018a17.019,17.019,0,0,1-2.279-.107l-.277-.036c-.092-.012-.184-.022-.274-.041l-.544-.1-.536-.129c-.089-.02-.176-.047-.261-.074l-.259-.08c-.086-.028-.173-.05-.256-.081l-.252-.094c-.167-.063-.336-.122-.5-.2s-.321-.139-.483-.214l-.471-.239c-.078-.039-.154-.083-.23-.127l-.228-.13-.225-.129c-.075-.043-.147-.092-.221-.139l-.435-.276c-.07-.046-.135-.1-.2-.142s-.134-.093-.2-.145l-.192-.15c-.063-.05-.123-.107-.184-.157-.125-.107-.237-.215-.353-.322a7.446,7.446,0,0,1-.625-.7,7.6,7.6,0,0,1-.52-.751,7.3,7.3,0,0,1-.4-.787,6.621,6.621,0,0,1-.292-.8c-.033-.134-.073-.265-.1-.4s-.058-.264-.073-.4a5.546,5.546,0,0,1-.021-1.5,5,5,0,0,1,.345-1.3,5.389,5.389,0,0,1,.581-1.034,5.81,5.81,0,0,1,.726-.833l.2-.187c.034-.031.07-.06.107-.088l.107-.082a2.513,2.513,0,0,1,.215-.157l.107-.076.114-.069a5.3,5.3,0,0,1,.956-.463,6.964,6.964,0,0,1,1.021-.294,8.265,8.265,0,0,1,2.082-.15,7.986,7.986,0,0,1,1.011.115c.166.026.328.065.49.1.081.018.16.041.24.062s.159.041.237.067a5.932,5.932,0,0,1,3.028,1.977l.123.173.061.086.054.09.107.178.092.183.047.091c.014.032.025.064.038.1l.076.186c.022.064.041.128.061.19l.03.1c.009.031.015.063.023.095l.044.191.029.192.015.1.006.1.013.189v.282l-.007.094c-.006.061-.01.123-.015.184l-.029.18a.561.561,0,0,1-.014.09l-.022.087-.04.175-.053.168-.027.084c-.009.027-.021.053-.031.08l-.063.161c-.023.053-.05.107-.073.153a3.315,3.315,0,0,1-.16.292,3.4,3.4,0,0,1-.816.919,3.172,3.172,0,0,1-.939.51,3.117,3.117,0,0,1-.892.171l-.107.006h-.292l-.107-.011a1.475,1.475,0,0,0,.8-1.475,1.443,1.443,0,0,0-1.565-1.308h-.011a1.472,1.472,0,0,0,.056,2.927l.1.047.308.108c.113.034.238.062.371.1l.214.031.108.016a.633.633,0,0,1,.115.007,3.308,3.308,0,0,0,1.04-.092,3.6,3.6,0,0,0,1.151-.513,3.923,3.923,0,0,0,1.041-1.034,3.729,3.729,0,0,0,.214-.34c.033-.059.068-.119.1-.18l.088-.19c.014-.032.029-.063.043-.1l.037-.1.074-.2.061-.215.03-.107c.009-.036.015-.073.024-.107.015-.073.03-.146.045-.215s.019-.149.029-.225l.014-.113a.734.734,0,0,1,.006-.115c0-.077.007-.155.011-.233l-.006-.236v-.118l-.013-.119-.027-.239-.046-.239c-.008-.041-.014-.08-.024-.12l-.032-.119c-.023-.078-.043-.159-.068-.238l-.084-.235c-.015-.039-.028-.079-.045-.118l-.052-.114-.107-.23-.123-.223-.064-.107-.069-.107-.143-.215a5.924,5.924,0,0,0-.682-.786c-.123-.126-.261-.234-.394-.351-.069-.056-.141-.107-.215-.162s-.142-.107-.214-.156l-.223-.149-.232-.137-.117-.069-.12-.062-.242-.125-.249-.113-.125-.056-.128-.05c-.086-.033-.17-.069-.257-.1l-.262-.09c-.087-.031-.176-.055-.265-.081s-.178-.054-.269-.075c-.182-.044-.363-.09-.549-.122a8.767,8.767,0,0,0-1.131-.147,9.042,9.042,0,0,0-2.351.14,7.913,7.913,0,0,0-1.18.329,6.412,6.412,0,0,0-1.146.548l-.138.084-.135.092c-.09.062-.181.122-.267.193l-.13.107a1.59,1.59,0,0,0-.125.107l-.239.215a6.755,6.755,0,0,0-.867.992,6.39,6.39,0,0,0-.7,1.263,6.047,6.047,0,0,0-.417,1.6,6.983,6.983,0,0,0,.6,3.691,8.387,8.387,0,0,0,.476.905,8.7,8.7,0,0,0,1.327,1.653c.133.123.264.251.408.366.071.058.139.121.214.176l.221.169c.073.058.15.107.226.16s.155.108.232.158l.464.286c.079.049.155.1.235.143l.243.135.244.135c.082.046.163.092.249.131l.509.25c.171.08.349.151.525.227s.358.142.536.207l.275.1c.092.034.186.057.28.086l.282.083c.094.029.187.056.285.076l.577.132.587.1c.1.018.2.027.3.038l.3.034a18,18,0,0,0,2.4.076c.2,0,.4-.02.6-.028l.3-.016.3-.024.6-.049.6-.061q.3-.03.6-.067l.605-.073.611-.091.307-.046c.107-.016.2-.039.3-.057l.609-.118c.2-.041.4-.092.6-.138.4-.088.8-.2,1.2-.312.2-.054.4-.119.595-.178s.4-.117.592-.186c.391-.133.784-.26,1.17-.406.271-.1.536-.2.8-.307.016-.169.036-.339.055-.507C937.592,728.376,937.058,728.467,936.52,728.541Z" fill="url(#linear-gradient-27)"/>
          <path id="路径_15971" data-name="路径 15971" d="M961.616,738.078c-1.944-2.795-5.763-4.785-9.335-5.317-3.645-.543-7.34.7-10.507,2.311-3.721,1.891-7.077,4.306-10.607,6.46-3.349,2.038-7.037,3.939-11.13,4.1-.459.017-.884.25-.893.567-.214.277-.031.727.341.989,2.813,1.981,6.845,1.977,10.178,1.041,3.443-.965,5.34-4,7.036-6.737a5.547,5.547,0,0,0,2.016,4.208c.622.465,2.627,1.3,1.232-.821-1.459-2.22.6-5.146,2.334-7.048,2.068-2.273,5.479-3.313,8.577-3.679a.9.9,0,0,0,.235-.061c.306.014.612.036.921.074a11.782,11.782,0,0,1,10.352,10.186c.6,3.914-.07,9.384-4.181,11.744a7.2,7.2,0,0,1-6.038.264,5.1,5.1,0,0,1-1.226-.986,4.036,4.036,0,0,1-.741-3.685,7.56,7.56,0,0,0,5.412-.429c2.145-.932,3.652-3.336,2.607-5.04a1.154,1.154,0,0,0-.171-.346.793.793,0,0,0-.445-.523c-4.567-2.242-9.125.548-10.293,4.859-1.307,4.813,3.015,8.036,7.995,8.036,4.707,0,7.409-3.95,8.363-7.649A15.617,15.617,0,0,0,961.616,738.078Zm-5.609,10.428a.348.348,0,0,0,.054-.012l-.076.073Z" fill="url(#linear-gradient-28)"/>
          <g id="组_175" data-name="组 175">
            <path id="路径_15972" data-name="路径 15972" d="M980.1,731.667c1.073.262,2.175.57,3.289.948s2.245.8,3.39,1.278c2.292.943,4.642,2.051,7.085,3.163,1.226.554,2.457,1.109,3.706,1.683s2.51,1.157,3.789,1.734,2.573,1.147,3.884,1.7,2.644,1.087,4,1.573c.673.254,1.359.478,2.038.708.34.121.688.215,1.031.322s.688.215,1.038.31c.7.188,1.394.39,2.1.545.352.08.7.169,1.056.242l1.063.206c.177.033.354.072.536.1l.536.081,1.072.159,1.056.126c.352.044.7.084,1.055.118l1.054.107,1.055.085.526.041.527.026c.352.017.7.042,1.053.049a31.2,31.2,0,0,0,4.191-.132l.518-.06c.173-.021.345-.036.517-.069l1.024-.174,1.008-.229c.169-.034.333-.084.5-.132l.492-.145c.163-.05.329-.09.489-.149l.48-.17c.321-.115.637-.223.943-.361s.618-.257.918-.4l.888-.436c.149-.07.29-.151.428-.23l.429-.237.424-.235c.14-.078.274-.167.411-.249l.81-.5c.135-.088.27-.183.4-.275s.268-.182.4-.282l.385-.293c.126-.1.247-.206.37-.308.249-.2.476-.429.709-.643a15.131,15.131,0,0,0,2.317-2.886,14.39,14.39,0,0,0,.829-1.581,12.192,12.192,0,0,0,1.045-6.44,10.539,10.539,0,0,0-.728-2.787,11.228,11.228,0,0,0-1.229-2.205,11.968,11.968,0,0,0-1.512-1.73l-.418-.381c-.067-.063-.141-.124-.214-.184l-.227-.18c-.149-.124-.307-.23-.464-.338l-.235-.162-.242-.146a11.049,11.049,0,0,0-2-.955,13.77,13.77,0,0,0-2.065-.575,15.813,15.813,0,0,0-4.1-.246,15.466,15.466,0,0,0-1.976.257c-.322.056-.643.137-.957.214-.158.038-.313.088-.469.131s-.311.088-.463.143l-.457.155c-.151.056-.3.117-.448.175l-.223.088-.214.1-.429.2-.423.214-.214.107-.2.121-.4.24-.39.259c-.131.084-.256.178-.379.273s-.247.185-.369.283c-.233.2-.474.393-.688.614a10.207,10.207,0,0,0-1.19,1.371l-.248.374-.122.186-.107.2-.215.388-.185.4-.091.2c-.028.067-.052.137-.077.2l-.149.41c-.042.138-.079.279-.117.416l-.057.207c-.017.07-.028.14-.042.214-.026.143-.053.282-.079.417s-.031.279-.047.417l-.023.207-.006.207-.011.411c.006.136.013.271.019.406,0,.068.007.134.012.2l.025.2c.017.131.032.263.051.393s.053.256.078.382c.014.064.026.127.041.189l.053.185.107.365.13.352.065.174c.024.056.05.107.075.167l.152.331c.054.107.114.215.171.314a6.265,6.265,0,0,0,.369.594,6.876,6.876,0,0,0,1.822,1.8,6.237,6.237,0,0,0,2.009.895,5.715,5.715,0,0,0,1.815.16,1.915,1.915,0,0,0,.2-.012l.193-.027.368-.053c.234-.057.452-.107.643-.165l.537-.193.172-.082a2.521,2.521,0,1,0-1.257-.252l-.186.018-.334.007h-.175c-.059,0-.118-.008-.179-.012a5.381,5.381,0,0,1-1.559-.3,5.569,5.569,0,0,1-1.637-.891,5.945,5.945,0,0,1-1.423-1.608,5.6,5.6,0,0,1-.279-.509c-.042-.089-.088-.177-.128-.267l-.107-.28c-.018-.047-.038-.093-.056-.141l-.045-.147-.093-.293c-.031-.1-.048-.2-.071-.3l-.036-.152c-.01-.052-.016-.107-.025-.156l-.05-.315c-.009-.107-.017-.214-.027-.321l-.014-.162v-.491c0-.114.016-.22.024-.332l.011-.166.026-.166c.017-.107.033-.222.051-.335l.077-.332c.014-.056.024-.107.04-.167l.052-.165c.035-.108.069-.221.107-.332s.088-.214.133-.321c.022-.054.042-.108.067-.163l.08-.159.162-.322.188-.31.094-.156.107-.15.215-.3a10.363,10.363,0,0,1,5.283-3.451c.135-.046.274-.08.413-.118s.277-.077.418-.107c.283-.061.566-.13.858-.174a14.681,14.681,0,0,1,5.4.062,12.058,12.058,0,0,1,1.782.512,9.22,9.22,0,0,1,1.67.808l.2.12.19.132a4.574,4.574,0,0,1,.373.274l.18.144a1.87,1.87,0,0,1,.179.153l.356.321a10.145,10.145,0,0,1,1.268,1.455,9.382,9.382,0,0,1,1.012,1.806,8.647,8.647,0,0,1,.6,2.268,9.6,9.6,0,0,1-.037,2.624c-.026.23-.082.458-.125.69s-.116.462-.174.7a12.08,12.08,0,0,1-.509,1.393,12.612,12.612,0,0,1-.7,1.373,13.241,13.241,0,0,1-.906,1.312,12.966,12.966,0,0,1-1.091,1.228c-.2.19-.4.39-.616.568-.107.091-.214.187-.321.275l-.336.261c-.107.09-.227.171-.344.252s-.232.165-.354.247l-.76.482c-.128.081-.254.165-.384.24l-.395.226-.4.227c-.133.076-.265.154-.4.22l-.821.416c-.276.135-.562.251-.844.378s-.574.236-.867.344l-.438.166c-.146.055-.3.094-.448.142l-.452.14c-.15.048-.3.095-.456.128l-.927.225-.947.175c-.157.033-.322.05-.48.071l-.484.063a29.886,29.886,0,0,1-3.979.185c-.337,0-.677-.022-1.018-.031l-.512-.019-.513-.031-1.031-.066-.45-.039a2.054,2.054,0,0,0-.31-.183,6.5,6.5,0,0,0-1.369-.429c-.536-.113-1.125-.322-1.785-.522a37.368,37.368,0,0,1-4.5-1.76c-1.625-.8-3.4-1.773-5.254-2.8-2.532-1.384-4.938-2.637-7.043-3.606-1.06-.468-2.024-.906-2.9-1.23l-1.217-.469-1.042-.346-1-.453c-.368-.163-.771-.322-1.2-.505-.857-.354-1.841-.751-2.925-1.156a38.846,38.846,0,0,0-7.648-2.116,24.035,24.035,0,0,0-3.124-.279c-.507-.026-1.006,0-1.494.011-.244.01-.485.033-.723.049s-.473.028-.706.067a19.362,19.362,0,0,0-4.35,1.073c-.261.019-.517.045-.772.075.537-.24,1.165-.5,1.887-.751l.484-.169.51-.162c.345-.116.711-.215,1.087-.322.757-.2,1.566-.4,2.428-.554a24.715,24.715,0,0,1,2.708-.349c.471-.031.945-.044,1.431-.035l.737.026c.248.01.5.035.751.05a42.356,42.356,0,0,1,7.4,1.362c2.144.581,3.9,1.155,5.106,1.559.575.276,1.286.6,2.091,1.012s1.715.876,2.708,1.372c.977.536,2.037,1.125,3.164,1.73l3.49,2.011c.883.527,1.75,1.034,2.59,1.518.821.481,1.584,1.007,2.314,1.517s1.427,1.005,2.091,1.452,1.3.845,1.891,1.187a13.459,13.459,0,0,0,2.956,1.287c.185.048.346.094.488.126l.364.065.3.051-.289-.093-.348-.107c-.135-.051-.29-.116-.463-.186a15.127,15.127,0,0,1-2.752-1.562c-.548-.388-1.138-.827-1.761-1.317l-2-1.578a27.546,27.546,0,0,0-2.319-1.654c-.831-.511-1.695-1.034-2.584-1.564-1.215-.708-2.419-1.345-3.553-1.961-1.16-.568-2.258-1.1-3.276-1.575-1.038-.429-1.988-.822-2.829-1.16s-1.585-.583-2.187-.792a50.425,50.425,0,0,0-4.99-2.032,31.5,31.5,0,0,0-7.526-1.653c-.26-.017-.519-.041-.777-.051l-.77-.018c-.513,0-1.022.023-1.514.07a20.923,20.923,0,0,0-2.8.476,25.3,25.3,0,0,0-2.455.726c-.376.14-.741.267-1.084.414l-.505.207-.477.215a19.434,19.434,0,0,0-2.424,1.317,11.678,11.678,0,0,0-1.24.278,6.946,6.946,0,0,0-1.919.865,1.488,1.488,0,0,1,.135.285l.021.049a6.562,6.562,0,0,1,1.872-.785c.063-.016.13-.028.2-.044l-.162.127-.141.107-.774.31-.958.363.009.022.995-.238,1.366-.377,1.8-.513.487-.131A23.261,23.261,0,0,1,980.1,731.667Zm-7.992-.429-.348.141-.429.17.048-.028c.1-.057.223-.131.372-.214.116-.015.234-.04.353-.06Zm4.349-.72a17.973,17.973,0,0,1,1.907-.228c.221-.026.451-.021.68-.031s.464-.018.7-.018c.471.014.951,0,1.44.039a29.557,29.557,0,0,1,3.015.311,56.01,56.01,0,0,1,7.57,1.822c1.1.33,2.1.644,2.99.921.443.14.858.263,1.24.386l1.036.342,1,.452,1.162.581c.837.4,1.76.909,2.78,1.441,2.023,1.1,4.361,2.442,6.9,3.83,1.863,1.024,3.674,1.947,5.386,2.689a29.35,29.35,0,0,0,4.7,1.471c.684.137,1.3.294,1.852.352a6.692,6.692,0,0,1,1.366.263l.026.011-.243-.021c-.346-.027-.692-.062-1.04-.1l-1.044-.107-1.03-.137-.517-.069c-.171-.024-.343-.058-.514-.087l-1.031-.181c-.343-.064-.684-.146-1.026-.215-.687-.137-1.365-.321-2.047-.493-.342-.085-.678-.191-1.017-.285s-.679-.188-1.014-.3c-.673-.215-1.347-.422-2.013-.66-1.338-.452-2.658-.965-3.967-1.477s-2.6-1.065-3.888-1.619-2.556-1.108-3.815-1.655-2.515-1.086-3.742-1.609c-2.455-1.056-4.838-2.119-7.175-3.02-1.167-.454-2.325-.858-3.464-1.217s-2.27-.643-3.372-.887a26.63,26.63,0,0,0-3.785-.489Z" fill="url(#linear-gradient-29)"/>
            <path id="路径_15973" data-name="路径 15973" d="M991.745,728.541l.651.209c.191.063.387.113.581.171s.387.116.582.163c.391.1.78.205,1.173.283.2.041.392.088.589.125l.59.107c.1.016.2.036.3.05l.3.039.59.078.6.061c.2.022.4.041.6.057l.139.012-.015-.006a3.137,3.137,0,0,0-.643-.131c.222.023.447.04.673.05a1.083,1.083,0,0,1,.176.107l.259.022.59.038.294.018.294.011c.2.006.39.018.583.018a17.034,17.034,0,0,0,2.28-.107l.276-.036c.092-.012.185-.022.275-.041l.542-.1.536-.129c.089-.02.176-.047.262-.074l.258-.08c.086-.028.173-.05.257-.081l.252-.094c.167-.063.335-.122.5-.2s.322-.139.484-.214l.47-.239c.078-.039.155-.083.231-.127l.227-.13.225-.129c.075-.043.147-.092.221-.139l.435-.276c.07-.046.135-.1.2-.142s.134-.093.2-.145l.192-.15c.064-.05.124-.107.185-.157.123-.107.237-.215.352-.322a7.6,7.6,0,0,0,.626-.7,7.9,7.9,0,0,0,.52-.751,7.482,7.482,0,0,0,.4-.787,7.034,7.034,0,0,0,.291-.8c.034-.134.073-.265.1-.4s.058-.264.073-.4a5.546,5.546,0,0,0,.021-1.5,4.929,4.929,0,0,0-.346-1.3,5.333,5.333,0,0,0-.58-1.034,5.81,5.81,0,0,0-.726-.833l-.2-.187a1.147,1.147,0,0,0-.107-.088l-.107-.082c-.069-.056-.14-.108-.214-.157l-.108-.076-.113-.069a5.309,5.309,0,0,0-.957-.463,6.942,6.942,0,0,0-1.022-.294,8.262,8.262,0,0,0-2.082-.15,7.986,7.986,0,0,0-1.011.115c-.166.026-.328.065-.49.1-.081.018-.159.041-.24.062s-.16.041-.237.067a5.936,5.936,0,0,0-3.028,1.977l-.123.173-.061.086-.055.09-.107.178-.092.183-.047.091c-.014.032-.026.064-.039.1l-.076.186c-.023.064-.041.128-.061.19l-.03.1c-.009.031-.015.063-.023.095l-.045.191-.029.192-.015.1-.006.1c0,.063-.009.126-.014.189s0,.126,0,.189v.093l.008.094c0,.061.011.123.015.184l.029.18a.56.56,0,0,0,.014.09l.022.087.041.175.053.168.026.084c.011.027.022.053.032.08l.063.161c.023.053.05.107.073.153.049.1.1.2.16.292a3.4,3.4,0,0,0,.816.919,3.2,3.2,0,0,0,.938.51,3.131,3.131,0,0,0,.893.171l.107.006h.292l.107-.011a1.476,1.476,0,0,1-.8-1.475,1.443,1.443,0,0,1,1.565-1.308h.01a1.472,1.472,0,0,1-.055,2.927l-.1.047-.308.108c-.113.034-.238.062-.372.1l-.214.031-.107.016a.633.633,0,0,0-.115.007,3.308,3.308,0,0,1-1.04-.092,3.588,3.588,0,0,1-1.151-.513,3.938,3.938,0,0,1-1.041-1.034,3.742,3.742,0,0,1-.214-.34c-.033-.059-.068-.119-.1-.18l-.087-.19c-.014-.032-.029-.063-.043-.1l-.037-.1-.075-.2-.06-.215-.03-.107c-.009-.036-.016-.073-.024-.107l-.044-.215c-.014-.068-.019-.149-.03-.225l-.014-.113a.727.727,0,0,0-.006-.115c0-.077-.008-.155-.011-.233l.007-.236v-.118l.012-.119.027-.239.045-.239c.009-.041.015-.08.025-.12l.032-.119c.023-.078.043-.159.068-.238l.086-.235c.014-.039.027-.079.043-.118l.053-.114.107-.23.124-.223.063-.107.069-.107.143-.215a6,6,0,0,1,.682-.786c.123-.126.262-.234.4-.351.068-.056.14-.107.214-.162s.143-.107.214-.156l.223-.149.232-.137.117-.069.12-.062.242-.125.249-.113.126-.056.127-.05c.086-.033.171-.069.257-.1l.262-.09c.087-.031.176-.055.265-.081s.179-.054.269-.075c.181-.044.363-.09.549-.122a8.806,8.806,0,0,1,1.132-.147,9.049,9.049,0,0,1,2.352.14,7.9,7.9,0,0,1,1.179.329,6.41,6.41,0,0,1,1.146.548l.139.084.136.092c.089.062.181.122.265.193l.13.107a1.6,1.6,0,0,1,.126.107l.239.215a6.809,6.809,0,0,1,.866.992,6.39,6.39,0,0,1,.7,1.263,6.087,6.087,0,0,1,.418,1.6,6.994,6.994,0,0,1-.6,3.691,8.387,8.387,0,0,1-.476.905,8.629,8.629,0,0,1-1.328,1.653c-.133.123-.264.251-.407.366-.07.058-.139.121-.214.176l-.221.169c-.073.058-.15.107-.226.16s-.155.108-.232.158l-.464.286c-.078.049-.154.1-.235.143l-.242.135-.245.135c-.081.046-.163.092-.247.131l-.51.25c-.171.08-.349.151-.526.227s-.357.142-.536.207l-.275.1c-.091.034-.186.057-.279.086l-.282.083c-.1.029-.189.056-.286.076l-.578.132-.586.1c-.1.018-.2.027-.3.038l-.3.034a18,18,0,0,1-2.4.076c-.2,0-.4-.02-.6-.028l-.3-.016-.3-.024-.605-.049-.6-.061c-.2-.02-.4-.042-.605-.067l-.6-.073-.611-.091-.307-.046c-.107-.016-.2-.039-.3-.057l-.609-.118c-.2-.041-.4-.092-.6-.138-.4-.088-.8-.2-1.2-.312-.2-.054-.4-.119-.594-.178s-.4-.117-.592-.186c-.391-.133-.783-.26-1.169-.406-.272-.1-.536-.2-.806-.307-.017-.169-.037-.339-.055-.507C990.673,728.376,991.209,728.467,991.745,728.541Z" fill="url(#linear-gradient-30)"/>
            <path id="路径_15974" data-name="路径 15974" d="M964.628,750.587c.95,3.7,3.654,7.649,8.363,7.649,4.979,0,9.3-3.222,7.994-8.036-1.17-4.311-5.729-7.1-10.293-4.859a.793.793,0,0,0-.445.523,1.152,1.152,0,0,0-.171.346c-1.046,1.706.46,4.111,2.607,5.04a7.556,7.556,0,0,0,5.412.428,3.98,3.98,0,0,1-.768,3.6,3.7,3.7,0,0,1-1.2,1.072,7.325,7.325,0,0,1-6.038-.264c-4.11-2.358-4.778-7.827-4.181-11.744a11.782,11.782,0,0,1,10.352-10.186c.309-.037.615-.06.92-.074a.947.947,0,0,0,.235.061c3.094.366,6.505,1.406,8.577,3.679,1.734,1.906,3.794,4.825,2.334,7.048-1.394,2.122.61,1.287,1.232.82a5.545,5.545,0,0,0,2.016-4.207c1.7,2.734,3.593,5.77,7.036,6.737,3.333.935,7.366.939,10.178-1.041.372-.262.554-.713.341-.989-.009-.322-.429-.55-.893-.567-4.093-.157-7.781-2.055-11.13-4.1-3.538-2.154-6.886-4.569-10.607-6.46-3.167-1.608-6.862-2.853-10.507-2.311-3.573.536-7.392,2.521-9.335,5.317A15.614,15.614,0,0,0,964.628,750.587Zm7.651-2.023-.076-.073a.255.255,0,0,1,.053.012.523.523,0,0,0,.023.064Z" fill="url(#linear-gradient-31)"/>
          </g>
        </g>
        <g id="组_180" data-name="组 180">
          <g id="组_177" data-name="组 177">
            <path id="路径_15975" data-name="路径 15975" d="M849.376,758.882l.568.181c.187.06.424.107.7.181.14.038.292.059.455.091s.336.069.521.092a26.457,26.457,0,0,0,6.326.069,59.678,59.678,0,0,0,9.227-1.683c1.709-.441,3.488-.958,5.311-1.559q1.368-.452,2.767-.965c.935-.346,1.866-.723,2.8-1.1,1.875-.766,3.675-1.548,5.421-2.245s3.44-1.312,5.078-1.823a38.532,38.532,0,0,1,8.927-1.748c.643-.032,1.262-.038,1.844-.017a14.365,14.365,0,0,1,1.636.152,10.587,10.587,0,0,1,2.538.694,8.115,8.115,0,0,1,1.471.812c.158.107.272.207.352.267l.12.092-.107-.107c-.071-.07-.171-.183-.312-.321a7.754,7.754,0,0,0-1.385-1.025,10.389,10.389,0,0,0-2.549-1.036,15.674,15.674,0,0,0-1.691-.343c-.6-.084-1.248-.144-1.924-.174a34.054,34.054,0,0,0-9.377,1.121,53.148,53.148,0,0,0-5.317,1.664c-1.806.661-3.633,1.42-5.491,2.181-.931.377-1.846.751-2.748,1.1s-1.8.686-2.691,1.007c-1.772.643-3.5,1.223-5.146,1.746a78.9,78.9,0,0,1-8.9,2.316,29.865,29.865,0,0,1-6.161.613c-.184,0-.356-.017-.519-.023s-.316-.012-.456-.031c-.28-.034-.522-.05-.713-.083Z" fill="url(#linear-gradient-32)"/>
          </g>
          <g id="组_178" data-name="组 178">
            <path id="路径_15976" data-name="路径 15976" d="M841.206,747.589a.776.776,0,0,0-.637-.35,1.96,1.96,0,0,0-.536.008,4.554,4.554,0,0,0-.66.167,5.558,5.558,0,0,0-.75.36,4.792,4.792,0,0,0-.788.6,4.661,4.661,0,0,0-1.3,2.063,4.9,4.9,0,0,0-.18,1.733,5.671,5.671,0,0,0,.61,2.1,8.653,8.653,0,0,0,3.027,3.216,11.316,11.316,0,0,0,1.753.931,10.181,10.181,0,0,0,1.55.509c.914.215,1.509.192,1.533.1s-.486-.362-1.2-.858c-.354-.252-.765-.549-1.18-.909a12.62,12.62,0,0,1-1.229-1.219,9.2,9.2,0,0,1-1.036-1.422,5.728,5.728,0,0,1-.607-1.419,3.37,3.37,0,0,1-.107-1.122,3.919,3.919,0,0,1,.151-.71,5.235,5.235,0,0,1,.478-1.077c.089-.186.215-.357.322-.536s.226-.346.322-.517a4.064,4.064,0,0,0,.279-.483,3.187,3.187,0,0,0,.2-.438A.908.908,0,0,0,841.206,747.589Z" fill="url(#linear-gradient-33)"/>
          </g>
          <g id="组_179" data-name="组 179">
            <path id="路径_15977" data-name="路径 15977" d="M831.552,758.121a1.477,1.477,0,0,0,.347.555,2.86,2.86,0,0,0,.515.407,3.243,3.243,0,0,0,1.255.454c.238.026.644.031,1.149.087a9.268,9.268,0,0,1,1.673.344c.141.047.285.087.423.138l.4.15c.251.107.5.208.7.307s.377.177.51.228.229.068.27.038.039-.117.011-.26a2.526,2.526,0,0,0-.188-.568,5.367,5.367,0,0,0-.414-.768q-.138-.2-.3-.415c-.107-.14-.228-.275-.35-.418a7.231,7.231,0,0,0-1.776-1.424,4.9,4.9,0,0,0-1.679-.622,2.742,2.742,0,0,0-2.066.49,1.4,1.4,0,0,0-.471.627A.98.98,0,0,0,831.552,758.121Z" fill="url(#linear-gradient-34)"/>
          </g>
          <path id="路径_15978" data-name="路径 15978" d="M819.024,752.972c.008-.26.051-.511.074-.765s.05-.5.094-.75a13.349,13.349,0,0,1,2.187-5.447,13.959,13.959,0,0,1,3.986-3.7,17.542,17.542,0,0,1,4.53-1.95,22.46,22.46,0,0,1,4.367-.751,25.96,25.96,0,0,1,3.924.039l.9.088.858.124c.28.035.554.09.821.143s.529.1.784.155l.743.181.359.088.346.107.666.2c.214.063.422.144.624.214a22,22,0,0,1,3.578,1.6c.2.107.363.214.508.3l.362.224.294.182-.309-.157-.378-.2c-.151-.076-.322-.17-.528-.257a22.668,22.668,0,0,0-3.645-1.322c-.2-.053-.41-.118-.626-.166l-.666-.148-.345-.077-.356-.063-.737-.129c-.252-.041-.511-.067-.774-.107s-.536-.071-.807-.088l-.841-.069-.874-.031a26.213,26.213,0,0,0-3.778.184,21.966,21.966,0,0,0-4.1.932,16.486,16.486,0,0,0-4.086,1.994,12.54,12.54,0,0,0-3.375,3.409,11.686,11.686,0,0,0-1.7,4.766c-.031.214-.036.441-.057.661s-.044.446-.042.666a10.416,10.416,0,0,0,.057,1.321,10.616,10.616,0,0,0,.215,1.314c.058.214.125.428.186.643a5.116,5.116,0,0,0,.226.636,11.283,11.283,0,0,0,.573,1.238l.359.594.09.148.107.143.2.286a13.171,13.171,0,0,0,1.93,2.122,20.752,20.752,0,0,0,5.073,3.281,30.42,30.42,0,0,0,6.029,2.064q1.591.371,3.216.58a29.622,29.622,0,0,0,3.287.231h.823l.815-.032.8-.065.833-.107c1.111-.144,2.218-.261,3.308-.465l1.631-.272c.536-.1,1.072-.215,1.608-.328s1.072-.215,1.6-.335l1.575-.38c4.182-1.023,8.155-2.294,11.923-3.592s7.332-2.629,10.69-3.833,6.506-2.292,9.406-3.206c1.459-.438,2.84-.867,4.162-1.232s2.585-.681,3.777-.921a23.321,23.321,0,0,1,6.212-.536,11.437,11.437,0,0,1,2.251.372c.246.069.469.145.679.223l.2.05c.09.023.181.045.269.073l.266.082c.088.028.173.061.26.091.175.059.341.134.508.2a8.323,8.323,0,0,1,1.81,1.085,8.046,8.046,0,0,1,.751.679,6.746,6.746,0,0,1,1.793,3.226,5.866,5.866,0,0,1,.13,1.624,6.286,6.286,0,0,1-.253,1.413,6.826,6.826,0,0,1-.5,1.215l-.156.284c-.024.047-.053.093-.083.14l-.089.141c-.058.095-.125.182-.19.27l-.1.132-.107.125a6.547,6.547,0,0,1-.91.9,8.11,8.11,0,0,1-1.019.706,9.6,9.6,0,0,1-3.32,1.178c-.188.033-.377.051-.564.073-.094.01-.188.013-.281.021s-.187.014-.28.014l-.279.006c-.092,0-.185,0-.277-.006H902.1l-.137-.01-.274-.02-.272-.034-.135-.019-.133-.023-.267-.05-.261-.062c-.088-.019-.174-.045-.259-.07s-.17-.051-.254-.079c-.167-.063-.333-.118-.493-.193a5.773,5.773,0,0,1-.909-.5l-.207-.15-.1-.075-.1-.083-.192-.164-.178-.178-.088-.089c-.027-.03-.053-.063-.081-.095l-.159-.188c-.049-.066-.1-.133-.142-.2l-.07-.1c-.022-.034-.042-.069-.063-.107l-.123-.207c-.034-.071-.07-.143-.107-.215l-.051-.107-.043-.107-.084-.215-.067-.214c-.01-.037-.022-.073-.031-.107l-.025-.108c-.016-.072-.032-.145-.046-.214l-.029-.214c0-.037-.011-.073-.014-.108l-.006-.107-.012-.214v-.322c0-.035.006-.07.009-.107l.021-.205c.008-.067.022-.134.033-.2a3.994,3.994,0,0,1,.74-1.7,3.638,3.638,0,0,1,.926-.867,3.407,3.407,0,0,1,.965-.438l.107-.033.108-.024.214-.043c.138-.014.266-.031.385-.038h.329l.107.01a1.448,1.448,0,1,1-.637.377l-.107.027-.184.061-.1.032-.095.041a3.135,3.135,0,0,0-.794.461,3.225,3.225,0,0,0-.726.793,3.379,3.379,0,0,0-.473,1.13,2.923,2.923,0,0,0-.056.322c-.006.056-.015.107-.019.167s-.006.113-.008.171v.171l.006.175.018.176.008.088a.443.443,0,0,0,.017.088l.032.177c.015.059.031.117.046.177l.023.087c.009.029.02.058.03.088l.062.175.076.172.037.085.046.085.091.167.108.162.053.082.06.077c.041.051.08.107.12.155l.134.148c.024.024.044.051.068.074l.074.069.148.139.161.129.08.065.087.059.175.119a6.012,6.012,0,0,0,3.538.81c.083,0,.165-.011.249-.017s.166-.013.249-.024c.166-.022.333-.041.5-.074a8.2,8.2,0,0,0,1-.237,8.527,8.527,0,0,0,1.93-.846,7.218,7.218,0,0,0,.874-.618,5.436,5.436,0,0,0,.758-.751l.086-.107.078-.107c.053-.072.108-.142.153-.215l.071-.107a1.05,1.05,0,0,0,.068-.116l.133-.243a5.761,5.761,0,0,0,.416-1.02,5.231,5.231,0,0,0,.215-1.158,4.827,4.827,0,0,0-.1-1.324,5.358,5.358,0,0,0-.518-1.394c-.058-.118-.132-.228-.2-.343s-.152-.223-.228-.336a6.658,6.658,0,0,0-.542-.644,7.219,7.219,0,0,0-.643-.594,7.538,7.538,0,0,0-.745-.522,7.382,7.382,0,0,0-.828-.442c-.147-.061-.292-.129-.444-.182-.076-.028-.151-.058-.228-.083l-.232-.074c-.077-.027-.158-.047-.237-.067s-.158-.043-.24-.063l-.507-.107c-.085-.018-.171-.039-.256-.053l-.258-.044-.26-.044c-.085-.015-.173-.03-.261-.039l-.528-.062c-.177-.018-.354-.023-.536-.036s-.358-.014-.536-.016h-.271c-.091,0-.181.007-.272.01l-.273.014a2.068,2.068,0,0,0-.272.021l-.549.059c-.438.048-.879.062-1.316.122-.389.054-.775.118-1.167.145q-1.03.069-2.053.206l-1.56.206.014-.007c-.477.151-.965.309-1.456.477-1.286.429-2.637.937-4.056,1.443-2.828,1.056-5.9,2.278-9.2,3.62s-6.818,2.8-10.583,4.221a119.362,119.362,0,0,1-12.053,3.929l-1.608.415c-.536.133-1.091.243-1.64.366s-1.1.247-1.657.356l-1.685.3c-1.123.215-2.272.349-3.424.5l-.868.107-.91.077-.909.037c-.3.009-.6,0-.909,0a32.774,32.774,0,0,1-13.552-3.217,22.519,22.519,0,0,1-5.581-3.774,15.214,15.214,0,0,1-2.178-2.527l-.233-.344-.116-.173-.107-.18-.408-.722a13.059,13.059,0,0,1-.651-1.515,6.688,6.688,0,0,1-.251-.78c-.068-.264-.141-.525-.2-.788a12.759,12.759,0,0,1-.214-1.593A12.582,12.582,0,0,1,819.024,752.972Z" fill="url(#linear-gradient-35)"/>
        </g>
      </g>
      <g id="最新消息-2" style="isolation: isolate">
        <g id="组_316" data-name="组 316">
          <text id="最新消息" transform="translate(886.555 821.88)" fill="#462a00" font-size="37.527" font-family="GenYoGothicTW-R, GenYoGothic TW" style="isolation: isolate"><tspan x="0" y="0">最新消息</tspan></text>
        </g>
        <g id="组_318" data-name="组 318">
          <g id="组_317" data-name="组 317">
            <path id="路径_16110" data-name="路径 16110" d="M901.453,824.731v-3.639q-3.266.413-9.457,1.126-2.214.262-3.19.375l-.263-2.477q1.614-.113,3.565-.338V807.17h-3.227v-2.327h32.8v2.327H904.117v15.2a21.8,21.8,0,0,0,7.055-3.565,21.355,21.355,0,0,1-4.128-6.6l1.614-.488h-3.227V809.5H918.34l.488-.075,1.688.676A21.348,21.348,0,0,1,915,818.915a20.056,20.056,0,0,0,7.58,3.6,7.041,7.041,0,0,0-1.688,2.176,21.651,21.651,0,0,1-7.844-4.128,26.183,26.183,0,0,1-7.467,3.941,7.351,7.351,0,0,0-1.464-2.1v2.326Zm-8.106-21.99v-11.07h24.13v11.07Zm1.314,6.943h6.792V807.17h-6.792Zm0,4.728h6.792v-2.627h-6.792Zm0,5.1q.711-.075,2.214-.225,3.039-.3,4.578-.488v-2.289h-6.792Zm1.313-23.267h18.763V793.66H895.974Zm0,4.5h18.763v-2.626H895.974Zm17.074,16.475a17.6,17.6,0,0,0,4.054-5.517h-7.731A17.176,17.176,0,0,0,913.048,817.227Z" fill="url(#linear-gradient-36)"/>
            <path id="路径_16111" data-name="路径 16111" d="M933.425,824.657v-9.87a28.611,28.611,0,0,1-6.267,7.243A10.407,10.407,0,0,0,925.282,820a21.979,21.979,0,0,0,4.09-3.641,28.347,28.347,0,0,0,3.453-4.8h-6.718V809.2h7.318v-3.94h-7.43v-2.364h17.412v2.364h-7.28v3.94h6.981v2.365h-6.981v.9q1.05.751,3.19,2.514,2.063,1.689,2.74,2.289l-1.652,2.064a49.222,49.222,0,0,0-4.278-4.2v9.532Zm-6.9-27.92V794.41h6.9v-3.79h2.7v3.79h6.831v2.327Zm3.714,6.117a19.028,19.028,0,0,0-1.463-5.4l2.176-.563a18.209,18.209,0,0,1,1.614,5.329Zm8.406-.113-2.252-.487a26.691,26.691,0,0,0,1.877-5.441l2.553.6c-.076.2-.19.514-.338.939A44.878,44.878,0,0,1,938.641,802.741Zm2.815,22.179a5.285,5.285,0,0,0-.881-1.051,6.811,6.811,0,0,0-1.108-.9,16.611,16.611,0,0,0,4.428-7.993,34.557,34.557,0,0,0,.863-8.406V793.51l2.026.637a46.511,46.511,0,0,0,10.433-3.226l2.252,2.063a61.262,61.262,0,0,1-12.047,3.377v6.681h12.534v2.626h-4.2v18.839h-2.74V805.668h-5.592v.938a37.706,37.706,0,0,1-1.013,9.307A19.083,19.083,0,0,1,941.456,824.92Z" fill="url(#linear-gradient-37)"/>
            <path id="路径_16112" data-name="路径 16112" d="M970.09,806.944a28.771,28.771,0,0,0-6.905-4.09l1.5-2.027a36.808,36.808,0,0,1,3.828,1.764,21.325,21.325,0,0,1,3.114,2.026Zm-3.34,17.262-2.364-1.8a106.992,106.992,0,0,0,6.679-12.009l2.064,1.764A134.039,134.039,0,0,1,966.75,824.206Zm5.178-27.094a19.428,19.428,0,0,0-3-2.252,35.875,35.875,0,0,0-3.752-2.063l1.538-1.989a31.5,31.5,0,0,1,3.79,1.914,17.68,17.68,0,0,1,3.077,2.176Zm3.378,4.992a13.487,13.487,0,0,0-2.214-1.54,23.789,23.789,0,0,0,3.264-3.751,23.21,23.21,0,0,0,2.44-4.091l2.739.825A32.858,32.858,0,0,1,975.306,802.1Zm1.163,22.666V801.578h7.506V790.47h2.814v11.108h7.731v19.814a4.449,4.449,0,0,1-.3,1.838,2.365,2.365,0,0,1-1.126,1.014,24.176,24.176,0,0,1-5.817.413,10.874,10.874,0,0,0-.9-2.627q2.139.075,4.69.075.789-.037.788-.751v-4.39H979.171v7.806Zm2.7-16.663h12.683v-3.94H979.171Zm0,6.417h12.683V810.51H979.171Zm16.212-12.946a26.647,26.647,0,0,0-2.665-3.865,40.279,40.279,0,0,0-3.678-3.978l2.177-1.351a45.514,45.514,0,0,1,3.715,3.865,24.222,24.222,0,0,1,2.74,3.79Z" fill="url(#linear-gradient-38)"/>
            <path id="路径_16113" data-name="路径 16113" d="M1002.925,823.493l-2.251-1.576a14.259,14.259,0,0,0,4.69-7.505l2.4.9Q1006.039,820.941,1002.925,823.493Zm3.79-12.008V793.547h8.706a32.153,32.153,0,0,0,1.2-3.452l3.228.563q-1.053,2.026-1.539,2.889h11.333v17.938Zm2.7-12.684h17.412v-3.039h-17.412Zm0,5.254h17.412V800.94h-17.412Zm0,5.216h17.412v-3.115h-17.412Zm5.892,15.236q-2.891,0-3.884-.732t-.994-2.909v-6.154h2.739v6.154c0,.5.137.821.412.957a5.351,5.351,0,0,0,1.914.207h6.905c.8,0,1.314-.207,1.538-.619a8.431,8.431,0,0,0,.414-2.983,8.476,8.476,0,0,0,2.551.975q-.263,3.078-1.126,4.09a4.051,4.051,0,0,1-3.189,1.014Zm4.616-5.667a16,16,0,0,0-2.44-2.815,29.532,29.532,0,0,0-3.227-2.664l2.064-1.388a30.954,30.954,0,0,1,3.265,2.514,15.491,15.491,0,0,1,2.476,2.74Zm13.058,4.653a21.72,21.72,0,0,0-2.757-4,37.983,37.983,0,0,0-3.922-4.071l2.176-1.389a39.424,39.424,0,0,1,4.016,3.9,20.422,20.422,0,0,1,2.852,4.016Z" fill="url(#linear-gradient-39)"/>
          </g>
        </g>
      </g>
    </g>
    <g id="组_127" data-name="组 127" transform="translate(0.973 -0.938)">
      <g id="组_128" data-name="组 128">
        <g id="组_124" data-name="组 124">
          <g id="组_123" data-name="组 123">
            <path id="路径_15844" data-name="路径 15844" d="M1306.01,1063.737a23.873,23.873,0,0,0-11.722-.883,13.022,13.022,0,0,0-2.388.731,13.063,13.063,0,0,0,1.93-1.574c1.924-1.8,3.98-5.16,4.634-10.333a41.546,41.546,0,0,0-.348-9.971c-.421-3.02-.944-5.231-.944-5.231s-.527.633-1.312,1.765c-.8,1.112-1.806,2.81-2.934,4.733a45.834,45.834,0,0,0-3.242,6.711,26.742,26.742,0,0,0-1.966,7.934,8.21,8.21,0,0,0,1.1,5.337,4.6,4.6,0,0,0,1.487,1.478,4.536,4.536,0,0,0,.263,2.055,7.419,7.419,0,0,0,3.7,4.023,22.513,22.513,0,0,0,8.418,2.394,38.326,38.326,0,0,0,8.7-.371,45.738,45.738,0,0,0,6.74-1.627c1.692-.53,2.713-.933,2.713-.933s-2.193-1.094-5.131-2.42A84.935,84.935,0,0,0,1306.01,1063.737Z" fill="url(#linear-gradient-40)"/>
            <path id="路径_15845" data-name="路径 15845" d="M1340.536,1046.684a80.365,80.365,0,0,0-10.274-1.776,23.76,23.76,0,0,0-11.665,1.5,13.287,13.287,0,0,0-2.2,1.193,12.839,12.839,0,0,0,1.58-1.93c1.526-2.144,2.847-5.871,2.466-11.043a42.876,42.876,0,0,0-2.359-9.7c-.509-1.435-1-2.664-1.369-3.539l-.627-1.409-.912,2.006a54.551,54.551,0,0,0-1.913,5.228,43.064,43.064,0,0,0-1.823,7.222,26.719,26.719,0,0,0-.332,8.149,8.231,8.231,0,0,0,2.153,5.012,4.554,4.554,0,0,0,1.748,1.144,4.6,4.6,0,0,0,.676,1.964,7.385,7.385,0,0,0,4.432,3.193,22.515,22.515,0,0,0,8.74.655,39.887,39.887,0,0,0,8.455-2.122,51.987,51.987,0,0,0,6.271-2.96c.778-.429,1.394-.791,1.823-1.048l.63-.429-1.555-.384Z" fill="url(#linear-gradient-41)"/>
            <path id="路径_15846" data-name="路径 15846" d="M1350.194,1021.56a28.977,28.977,0,0,0-6.783,1.564,21.935,21.935,0,0,0-4.325,2.263,13.179,13.179,0,0,0-1.922,1.6,12.746,12.746,0,0,0,1.171-2.2,13.247,13.247,0,0,0,1.006-4.7,19.424,19.424,0,0,0-.839-6.626,43.357,43.357,0,0,0-4.241-9.007c-1.57-2.6-2.98-4.463-2.98-4.463s-.185.821-.459,2.171a46.88,46.88,0,0,0-.846,5.5,45.242,45.242,0,0,0-.33,7.44,27.728,27.728,0,0,0,1.318,8.052,8.271,8.271,0,0,0,3.133,4.486,4.42,4.42,0,0,0,1.93.751,4.717,4.717,0,0,0,1.072,1.8,7.358,7.358,0,0,0,4.976,2.22,21.93,21.93,0,0,0,8.694-1.116,38.736,38.736,0,0,0,7.854-3.778,58.178,58.178,0,0,0,5.564-4.145,25.006,25.006,0,0,0,2.069-1.958s-2.387-.107-5.617-.168A77.5,77.5,0,0,0,1350.194,1021.56Z" fill="url(#linear-gradient-42)"/>
            <path id="路径_15847" data-name="路径 15847" d="M1365.019,994.693a31.527,31.527,0,0,0-6.313,2.9,18.248,18.248,0,0,0-3.765,3.092,13.216,13.216,0,0,0-1.581,1.944,12.889,12.889,0,0,0,.726-2.376,15.239,15.239,0,0,0,.023-4.818,18.436,18.436,0,0,0-2.165-6.334,41.422,41.422,0,0,0-5.942-7.977c-2.1-2.251-3.816-3.781-3.816-3.781s-.048.83-.014,2.221.016,3.3.257,5.555c.429,4.466,1.331,10.174,4.075,14.993a8.22,8.22,0,0,0,3.956,3.759,4.48,4.48,0,0,0,2.045.353,4.672,4.672,0,0,0,1.407,1.546,7.405,7.405,0,0,0,5.332,1.184c5.74-.561,11.291-4.307,15.218-8.106a47.209,47.209,0,0,0,4.636-5.165c1.049-1.412,1.635-2.331,1.635-2.331s-2.4.361-5.534.959A84.114,84.114,0,0,0,1365.019,994.693Z" fill="url(#linear-gradient-43)"/>
            <path id="路径_15848" data-name="路径 15848" d="M1374.191,965.412c-4.685,2.737-7.332,5.58-8.685,7.879a21.4,21.4,0,0,0-1.134,2.228,9.441,9.441,0,0,0,.209-2.481,16.983,16.983,0,0,0-4.316-10.5,39.8,39.8,0,0,0-7.429-6.63c-2.5-1.785-4.471-2.936-4.471-2.936s.107.82.405,2.175c.333,1.362.751,3.242,1.374,5.389.321,1.072.707,2.219,1.166,3.4.41,1.17.883,2.371,1.444,3.579a30.3,30.3,0,0,0,4.391,6.9,8.167,8.167,0,0,0,4.61,2.889,4.522,4.522,0,0,0,2.079-.062,4.6,4.6,0,0,0,1.683,1.231,7.455,7.455,0,0,0,5.475.1,20.65,20.65,0,0,0,7.539-4.439,36.233,36.233,0,0,0,3.173-3.158c.932-1.117,1.793-2.265,2.573-3.389a38.966,38.966,0,0,0,3.5-5.989c.762-1.592,1.158-2.611,1.158-2.611s-2.288.835-5.253,2.043A93.177,93.177,0,0,0,1374.191,965.412Z" fill="url(#linear-gradient-44)"/>
            <path id="路径_15849" data-name="路径 15849" d="M1377.325,934.879a26.928,26.928,0,0,0-4.634,5.147,17.629,17.629,0,0,0-2.319,4.318,16.069,16.069,0,0,0-.633,2.413,10.868,10.868,0,0,0-.322-2.475,15.534,15.534,0,0,0-1.8-4.439,20.667,20.667,0,0,0-4.514-4.975,39.931,39.931,0,0,0-8.622-4.994c-2.788-1.248-4.951-1.976-4.951-1.976s.264.782.816,2.047,1.442,3.02,2.441,5c2.169,3.936,5.177,8.823,9.649,12.182a8.106,8.106,0,0,0,5.088,1.909,4.528,4.528,0,0,0,2.037-.475,4.592,4.592,0,0,0,1.889.871,7.5,7.5,0,0,0,5.4-1c5-2.769,8.7-8.388,10.794-13.436a40.14,40.14,0,0,0,2.214-6.577c.436-1.716.629-2.793.629-2.793s-2.081,1.278-4.755,3.063A91.993,91.993,0,0,0,1377.325,934.879Z" fill="url(#linear-gradient-45)"/>
            <path id="路径_15850" data-name="路径 15850" d="M1374.24,904.337a26.661,26.661,0,0,0-3.52,5.98,19.7,19.7,0,0,0-1.394,4.7,13.044,13.044,0,0,0-.14,2.491,12.909,12.909,0,0,0-.812-2.359,14.109,14.109,0,0,0-2.668-3.98,20.76,20.76,0,0,0-5.4-3.967,40.808,40.808,0,0,0-9.465-3.15c-2.98-.659-5.238-.937-5.238-.937s.414.714,1.2,1.844c.759,1.137,2.037,2.666,3.41,4.4a49.382,49.382,0,0,0,5.155,5.374,26.989,26.989,0,0,0,6.77,4.611,8.1,8.1,0,0,0,5.361.839,4.6,4.6,0,0,0,1.9-.876,4.535,4.535,0,0,0,2.019.471,7.528,7.528,0,0,0,5.094-2.065,22.378,22.378,0,0,0,5.159-7.054,36.473,36.473,0,0,0,2.688-8.291,42.634,42.634,0,0,0,.828-6.886c.089-1.769.066-2.865.066-2.865s-1.786,1.674-4.052,3.967A88.14,88.14,0,0,0,1374.24,904.337Z" fill="url(#linear-gradient-46)"/>
            <path id="路径_15851" data-name="路径 15851" d="M1370.3,866.084a90.685,90.685,0,0,0-5.24,8.971,26.585,26.585,0,0,0-2.252,6.561,20.288,20.288,0,0,0-.418,4.879,13.157,13.157,0,0,0,.361,2.466,12.829,12.829,0,0,0-1.266-2.15,13.887,13.887,0,0,0-3.415-3.364,20.826,20.826,0,0,0-6.09-2.806,40.526,40.526,0,0,0-9.942-1.187c-3.068-.047-5.348.132-5.348.132s.555.615,1.574,1.56c.978.965,2.585,2.188,4.262,3.625a48.714,48.714,0,0,0,6.139,4.244,26.912,26.912,0,0,0,7.551,3.157,8.146,8.146,0,0,0,5.431-.262,3.218,3.218,0,0,1,3.757-1.187,7.457,7.457,0,0,0,4.559-3.045,22.432,22.432,0,0,0,3.645-7.945,36.923,36.923,0,0,0,.974-8.644,39.187,39.187,0,0,0-.594-6.881c-.28-1.74-.536-2.8-.536-2.8S1372.046,863.4,1370.3,866.084Z" fill="url(#linear-gradient-47)"/>
            <path id="路径_15852" data-name="路径 15852" d="M1349.881,859.943a13.284,13.284,0,0,0,.807,2.369,12.767,12.767,0,0,0-1.63-1.876c-1.823-1.876-5.379-3.713-10.56-4.134a31.84,31.84,0,0,0-4.951.059c-1.715.152-3.456.443-4.962.728-3.027.582-5.232,1.225-5.232,1.225s.675.48,1.872,1.189l2.158,1.217c.789.483,1.685,1,2.672,1.514a43.159,43.159,0,0,0,6.91,2.888,26.041,26.041,0,0,0,7.943,1.644,8.225,8.225,0,0,0,5.294-1.344,4.453,4.453,0,0,0,1.387-1.542,4.681,4.681,0,0,0,2.06-.367,7.384,7.384,0,0,0,3.84-3.877,22.916,22.916,0,0,0,2.081-8.563,40.249,40.249,0,0,0-.832-8.641c-.263-1.345-.568-2.615-.875-3.759-.338-1.122-.718-2.094-1.03-2.918-.643-1.643-1.108-2.629-1.108-2.629s-.964,2.226-2.13,5.2c-.589,1.494-1.191,3.147-1.8,4.853a52.61,52.61,0,0,0-1.6,5.039A24.343,24.343,0,0,0,1349.881,859.943Z" fill="url(#linear-gradient-48)"/>
            <path id="路径_15853" data-name="路径 15853" d="M1320.442,835.158a38.991,38.991,0,0,0-9.531,2.758c-2.852,1.187-4.887,2.265-4.887,2.265s.762.33,2.083.778c1.364.4,3.1,1.127,5.269,1.715a55.037,55.037,0,0,0,7.327,1.451,26.509,26.509,0,0,0,8.149-.03,8.293,8.293,0,0,0,4.924-2.395,4.409,4.409,0,0,0,1.044-1.783,4.754,4.754,0,0,0,1.947-.781,7.332,7.332,0,0,0,2.97-4.562,22.668,22.668,0,0,0,.27-8.776,34.55,34.55,0,0,0-2.54-8.314,37.82,37.82,0,0,0-3.2-6.174c-.965-1.473-1.624-2.339-1.624-2.339s-.5,2.372-1.026,5.51a96.621,96.621,0,0,0-1.346,10.391,26.365,26.365,0,0,0,.545,6.886,20.935,20.935,0,0,0,1.51,4.673,13.012,13.012,0,0,0,1.287,2.144,12.862,12.862,0,0,0-1.993-1.5,13.559,13.559,0,0,0-4.436-1.773A21.119,21.119,0,0,0,1320.442,835.158Z" fill="url(#linear-gradient-49)"/>
            <path id="路径_15854" data-name="路径 15854" d="M1304.236,818c7.636,7.425,14.138,5.626,14.138,5.626s1.708-3.045-1.542-7.107c-7.027-8.782-21.962-10.981-21.962-10.981S1299.706,813.6,1304.236,818Z" fill="url(#linear-gradient-50)"/>
          </g>
          <path id="路径_15855" data-name="路径 15855" d="M1273.06,1083.482a19.162,19.162,0,0,1,10.472-15.863,145.124,145.124,0,0,0,41.51-238.017c-1.488-1.41-5.129-4.634-6.669-5.974" fill="none" stroke="#af9c4e" stroke-miterlimit="10" stroke-width="1"/>
        </g>
        <g id="组_126" data-name="组 126">
          <g id="组_125" data-name="组 125">
            <path id="路径_15856" data-name="路径 15856" d="M613.984,1063.737a23.877,23.877,0,0,1,11.723-.883,13.013,13.013,0,0,1,2.387.731,13.067,13.067,0,0,1-1.93-1.574c-1.923-1.8-3.979-5.16-4.634-10.333a41.593,41.593,0,0,1,.349-9.971c.42-3.02.943-5.231.943-5.231s.528.633,1.313,1.765c.8,1.112,1.8,2.81,2.933,4.733a45.722,45.722,0,0,1,3.243,6.711,26.771,26.771,0,0,1,1.965,7.934,8.217,8.217,0,0,1-1.1,5.337,4.623,4.623,0,0,1-1.487,1.478,4.537,4.537,0,0,1-.264,2.055,7.414,7.414,0,0,1-3.7,4.023,22.524,22.524,0,0,1-8.419,2.394,38.336,38.336,0,0,1-8.7-.371,46.043,46.043,0,0,1-6.74-1.627c-1.689-.53-2.71-.933-2.71-.933s2.192-1.094,5.13-2.42A85.068,85.068,0,0,1,613.984,1063.737Z" fill="url(#linear-gradient-51)"/>
            <path id="路径_15857" data-name="路径 15857" d="M579.46,1046.684a80.129,80.129,0,0,1,10.274-1.776,23.762,23.762,0,0,1,11.665,1.5,13.289,13.289,0,0,1,2.2,1.193,12.78,12.78,0,0,1-1.58-1.93c-1.526-2.144-2.847-5.871-2.466-11.043a42.754,42.754,0,0,1,2.358-9.7c.507-1.435,1-2.664,1.37-3.539l.627-1.409.912,2.006a54.8,54.8,0,0,1,1.913,5.228,43.277,43.277,0,0,1,1.823,7.222,26.717,26.717,0,0,1,.332,8.149,8.237,8.237,0,0,1-2.153,5.012,3.212,3.212,0,0,0-2.424,3.108,7.387,7.387,0,0,1-4.433,3.193,22.51,22.51,0,0,1-8.739.655,39.882,39.882,0,0,1-8.456-2.122,52.069,52.069,0,0,1-6.272-2.96c-.777-.429-1.393-.791-1.822-1.048l-.631-.429,1.556-.384Z" fill="url(#linear-gradient-52)"/>
            <path id="路径_15858" data-name="路径 15858" d="M569.8,1021.56a28.984,28.984,0,0,1,6.784,1.564,21.908,21.908,0,0,1,4.325,2.263,13.2,13.2,0,0,1,1.925,1.6,12.75,12.75,0,0,1-1.171-2.2,13.251,13.251,0,0,1-1.007-4.7,19.5,19.5,0,0,1,.838-6.626,43.414,43.414,0,0,1,4.242-9.007c1.571-2.6,2.981-4.463,2.981-4.463s.184.821.459,2.171a46.867,46.867,0,0,1,.846,5.5,45.35,45.35,0,0,1,.33,7.44,27.727,27.727,0,0,1-1.319,8.052,8.277,8.277,0,0,1-3.132,4.486,4.411,4.411,0,0,1-1.929.751,4.718,4.718,0,0,1-1.073,1.8,7.354,7.354,0,0,1-4.976,2.22,21.931,21.931,0,0,1-8.694-1.118,38.654,38.654,0,0,1-7.854-3.777,58.1,58.1,0,0,1-5.564-4.145,25.22,25.22,0,0,1-2.072-1.958s2.39-.107,5.619-.168A77.453,77.453,0,0,1,569.8,1021.56Z" fill="url(#linear-gradient-53)"/>
            <path id="路径_15859" data-name="路径 15859" d="M554.978,994.693a31.557,31.557,0,0,1,6.313,2.9,18.177,18.177,0,0,1,3.763,3.092,13.194,13.194,0,0,1,1.583,1.944,12.732,12.732,0,0,1-.726-2.376,15.208,15.208,0,0,1-.023-4.818,18.437,18.437,0,0,1,2.165-6.334,41.427,41.427,0,0,1,5.942-7.977c2.1-2.251,3.816-3.781,3.816-3.781s.048.83.014,2.221-.016,3.3-.257,5.555c-.429,4.466-1.331,10.174-4.075,14.993a8.234,8.234,0,0,1-3.956,3.759,4.482,4.482,0,0,1-2.045.353,4.676,4.676,0,0,1-1.408,1.546,7.4,7.4,0,0,1-5.332,1.184c-5.739-.561-11.29-4.307-15.217-8.106a46.819,46.819,0,0,1-4.636-5.165c-1.051-1.412-1.635-2.331-1.635-2.331s2.4.361,5.534.959A84.159,84.159,0,0,1,554.978,994.693Z" fill="url(#linear-gradient-54)"/>
            <path id="路径_15860" data-name="路径 15860" d="M545.8,965.412c4.684,2.737,7.332,5.58,8.685,7.879a21.391,21.391,0,0,1,1.134,2.228,9.441,9.441,0,0,1-.209-2.481,16.969,16.969,0,0,1,4.316-10.5,39.738,39.738,0,0,1,7.429-6.63c2.5-1.785,4.471-2.936,4.471-2.936s-.107.82-.408,2.175c-.33,1.362-.75,3.242-1.371,5.389-.322,1.072-.708,2.219-1.166,3.4-.41,1.17-.883,2.371-1.445,3.579a30.266,30.266,0,0,1-4.39,6.9,8.169,8.169,0,0,1-4.611,2.889,4.532,4.532,0,0,1-2.081-.062,4.62,4.62,0,0,1-1.68,1.231,7.458,7.458,0,0,1-5.476.1,20.646,20.646,0,0,1-7.538-4.439,36.1,36.1,0,0,1-3.173-3.158c-.933-1.117-1.794-2.265-2.573-3.389a39.061,39.061,0,0,1-3.5-5.989c-.761-1.592-1.16-2.611-1.16-2.611s2.288.835,5.254,2.043A93.313,93.313,0,0,1,545.8,965.412Z" fill="url(#linear-gradient-55)"/>
            <path id="路径_15861" data-name="路径 15861" d="M542.671,934.879a26.962,26.962,0,0,1,4.634,5.147,17.666,17.666,0,0,1,2.319,4.318,16.077,16.077,0,0,1,.633,2.413,11.04,11.04,0,0,1,.321-2.475,15.639,15.639,0,0,1,1.8-4.439,20.716,20.716,0,0,1,4.511-4.975,40.055,40.055,0,0,1,8.625-4.994c2.788-1.248,4.95-1.976,4.95-1.976s-.263.782-.816,2.047-1.442,3.02-2.44,5c-2.169,3.936-5.177,8.823-9.65,12.182a8.106,8.106,0,0,1-5.088,1.909,4.525,4.525,0,0,1-2.037-.475,4.593,4.593,0,0,1-1.889.871,7.489,7.489,0,0,1-5.4-1c-5-2.769-8.7-8.388-10.8-13.436a40.363,40.363,0,0,1-2.208-6.579c-.436-1.716-.629-2.793-.629-2.793s2.081,1.278,4.755,3.063A91.944,91.944,0,0,1,542.671,934.879Z" fill="url(#linear-gradient-56)"/>
            <path id="路径_15862" data-name="路径 15862" d="M545.757,904.337a26.656,26.656,0,0,1,3.52,5.98,19.942,19.942,0,0,1,1.394,4.7,13.22,13.22,0,0,1,.14,2.491,12.972,12.972,0,0,1,.81-2.359,14.2,14.2,0,0,1,2.667-3.98,20.772,20.772,0,0,1,5.4-3.967,40.8,40.8,0,0,1,9.464-3.15c2.981-.659,5.237-.937,5.237-.937s-.412.714-1.2,1.844c-.757,1.137-2.031,2.666-3.409,4.4a49.471,49.471,0,0,1-5.155,5.374,26.956,26.956,0,0,1-6.772,4.611,8.092,8.092,0,0,1-5.361.839,4.581,4.581,0,0,1-1.9-.876,4.528,4.528,0,0,1-2.019.471,7.529,7.529,0,0,1-5.094-2.065,22.409,22.409,0,0,1-5.159-7.054,36.527,36.527,0,0,1-2.688-8.291,42.525,42.525,0,0,1-.828-6.886c-.089-1.769-.065-2.865-.065-2.865s1.785,1.674,4.052,3.967A88.328,88.328,0,0,1,545.757,904.337Z" fill="url(#linear-gradient-57)"/>
            <path id="路径_15863" data-name="路径 15863" d="M549.7,866.084a90.685,90.685,0,0,1,5.24,8.971,26.585,26.585,0,0,1,2.252,6.561,20.288,20.288,0,0,1,.418,4.879,13.064,13.064,0,0,1-.362,2.466,12.9,12.9,0,0,1,1.267-2.15,13.877,13.877,0,0,1,3.413-3.364,20.851,20.851,0,0,1,6.088-2.806,40.549,40.549,0,0,1,9.945-1.187c3.067-.047,5.348.132,5.348.132s-.555.615-1.574,1.56c-.978.965-2.585,2.188-4.262,3.625a48.716,48.716,0,0,1-6.139,4.244,26.916,26.916,0,0,1-7.552,3.157,8.143,8.143,0,0,1-5.43-.262,3.218,3.218,0,0,0-3.757-1.187,7.457,7.457,0,0,1-4.559-3.045,22.451,22.451,0,0,1-3.646-7.945,36.931,36.931,0,0,1-.973-8.644,39.193,39.193,0,0,1,.594-6.881c.28-1.74.536-2.8.536-2.8S547.949,863.4,549.7,866.084Z" fill="url(#linear-gradient-58)"/>
            <path id="路径_15864" data-name="路径 15864" d="M570.116,859.943a13.145,13.145,0,0,1-.81,2.369,13.062,13.062,0,0,1,1.631-1.876c1.823-1.876,5.38-3.713,10.562-4.134a31.843,31.843,0,0,1,4.951.059c1.715.152,3.456.443,4.962.728,3.026.582,5.232,1.225,5.232,1.225s-.676.48-1.872,1.189l-2.158,1.217c-.79.483-1.684,1-2.675,1.514a42.938,42.938,0,0,1-6.908,2.888,26.027,26.027,0,0,1-7.942,1.644,8.225,8.225,0,0,1-5.294-1.344,4.454,4.454,0,0,1-1.387-1.542,4.664,4.664,0,0,1-2.06-.367,7.382,7.382,0,0,1-3.836-3.875,22.916,22.916,0,0,1-2.081-8.563,40.438,40.438,0,0,1,.83-8.641c.266-1.345.57-2.615.876-3.759.338-1.122.718-2.094,1.03-2.918.643-1.643,1.108-2.629,1.108-2.629s.965,2.226,2.13,5.2c.589,1.494,1.191,3.147,1.8,4.853a52.507,52.507,0,0,1,1.6,5.039A24.322,24.322,0,0,1,570.116,859.943Z" fill="url(#linear-gradient-59)"/>
            <path id="路径_15865" data-name="路径 15865" d="M599.555,835.158a38.991,38.991,0,0,1,9.531,2.758c2.852,1.187,4.887,2.265,4.887,2.265s-.763.33-2.084.778c-1.363.4-3.1,1.127-5.268,1.715a55.022,55.022,0,0,1-7.328,1.451,26.5,26.5,0,0,1-8.148-.03,8.288,8.288,0,0,1-4.924-2.395,4.41,4.41,0,0,1-1.044-1.783,4.749,4.749,0,0,1-1.947-.781,7.328,7.328,0,0,1-2.97-4.562,22.648,22.648,0,0,1-.27-8.776,34.506,34.506,0,0,1,2.54-8.314,37.744,37.744,0,0,1,3.2-6.174c.965-1.473,1.623-2.339,1.623-2.339s.5,2.372,1.027,5.51a96.606,96.606,0,0,1,1.346,10.391,26.36,26.36,0,0,1-.546,6.886,21.044,21.044,0,0,1-1.509,4.673,13.084,13.084,0,0,1-1.287,2.144,12.85,12.85,0,0,1,1.992-1.5,13.573,13.573,0,0,1,4.437-1.773A21.119,21.119,0,0,1,599.555,835.158Z" fill="url(#linear-gradient-60)"/>
            <path id="路径_15866" data-name="路径 15866" d="M615.76,818c-7.636,7.425-14.138,5.626-14.138,5.626s-1.715-3.045,1.542-7.107c7.027-8.782,21.962-10.981,21.962-10.981S620.29,813.6,615.76,818Z" fill="url(#linear-gradient-61)"/>
          </g>
          <path id="路径_15867" data-name="路径 15867" d="M646.937,1083.482a19.162,19.162,0,0,0-10.472-15.863A145.123,145.123,0,0,1,594.955,829.6c1.487-1.41,5.128-4.634,6.669-5.974" fill="none" stroke="#767a0d" stroke-miterlimit="10" stroke-width="1"/>
        </g>
      </g>
    </g>
  </g>
</svg>
