<svg id="top_banner" xmlns="http://www.w3.org/2000/svg" xmlns:xlink="http://www.w3.org/1999/xlink" width="1920" height="193" viewBox="0 0 1920 193">
  <defs>
    <clipPath id="clip-path">
      <rect id="矩形_70" data-name="矩形 70" width="1920" height="193" fill="none"/>
    </clipPath>
    <linearGradient id="linear-gradient" x1="0.01" y1="0.541" x2="0.88" y2="0.385" gradientUnits="objectBoundingBox">
      <stop offset="0" stop-color="#ab7927"/>
      <stop offset="0.192" stop-color="#fedb6b"/>
      <stop offset="0.36" stop-color="#f5d065"/>
      <stop offset="0.499" stop-color="#cba04a"/>
      <stop offset="0.6" stop-color="#b1823a"/>
      <stop offset="0.66" stop-color="#a87734"/>
      <stop offset="0.75" stop-color="#a2722f"/>
      <stop offset="1" stop-color="#d69c47"/>
    </linearGradient>
  </defs>
  <g id="组_328" data-name="组 328" clip-path="url(#clip-path)">
    <g id="组_327" data-name="组 327">
      <path id="路径_16100" data-name="路径 16100" d="M-12,33.62l3.63,174.766c45.88-29.817,102.93-57.192,174.25-79.558C333.28,76.32,555.29,58.794,761.37,57.313c248.89-1.778,489.49,16.609,717.97,43.589,78.85,9.313,157.92,19.756,243.32,20.588,63.53.621,132.31-5,188.33-18.359L1907.63-32.73Z" transform="matrix(1, -0.017, 0.017, 1, -0.934, -10.424)" fill="url(#linear-gradient)"/>
      <path id="路径_16116" data-name="路径 16116" d="M1731.41,105.051c-85.29-3.8-164.02-14.561-242.56-24.476C1261.27,51.833,1021.38,29.1,772.7,21.225c-205.91-6.525-428.13-1.562-596.65,31.7C104.24,67.093,46.57,85.564,0,106.27V-4H1920V98.234c-39.63,5.611-85.47,8.1-131.28,8.1-19.26,0-38.53-.444-57.31-1.282Z" transform="translate(0 -8)" fill="#fff"/>
    </g>
  </g>
</svg>
