<svg id="top_banner" xmlns="http://www.w3.org/2000/svg" xmlns:xlink="http://www.w3.org/1999/xlink" width="1920" height="136" viewBox="0 0 1920 136">
  <defs>
    <clipPath id="clip-path">
      <rect id="矩形_70" data-name="矩形 70" width="1920" height="136" fill="none"/>
    </clipPath>
    <linearGradient id="linear-gradient" x1="0.01" y1="0.541" x2="0.88" y2="0.385" gradientUnits="objectBoundingBox">
      <stop offset="0" stop-color="#ab7927"/>
      <stop offset="0.192" stop-color="#fedb6b"/>
      <stop offset="0.36" stop-color="#f5d065"/>
      <stop offset="0.499" stop-color="#cba04a"/>
      <stop offset="0.6" stop-color="#b1823a"/>
      <stop offset="0.66" stop-color="#a87734"/>
      <stop offset="0.75" stop-color="#a2722f"/>
      <stop offset="1" stop-color="#d69c47"/>
    </linearGradient>
  </defs>
  <g id="组_328" data-name="组 328" clip-path="url(#clip-path)">
    <g id="组_327" data-name="组 327">
      <path id="路径_16100" data-name="路径 16100" d="M-12,14.29l3.63,123.85C37.51,117.01,94.56,97.61,165.88,81.76c167.4-37.21,389.41-49.63,595.49-50.68,248.89-1.26,489.49,11.77,717.97,30.89,78.85,6.6,157.92,14,243.32,14.59,63.53.44,132.31-3.54,188.33-13.01l-3.36-96.28Z" fill="url(#linear-gradient)"/>
      <path id="路径_16116" data-name="路径 16116" d="M1731.41,81.9c-85.29-2.99-164.02-11.47-242.56-19.28C1261.27,39.98,1021.38,22.07,772.7,15.87c-205.91-5.14-428.13-1.23-596.65,24.97C104.24,52,46.57,66.55,0,82.86V-4H1920V76.53c-39.63,4.42-85.47,6.38-131.28,6.38-19.26,0-38.53-.35-57.31-1.01Z" fill="#fff"/>
    </g>
  </g>
</svg>
