<svg id="top_banner" xmlns="http://www.w3.org/2000/svg" xmlns:xlink="http://www.w3.org/1999/xlink" width="1920" height="193" viewBox="0 0 1920 193">
  <defs>
    <clipPath id="clip-path">
      <rect id="矩形_70" data-name="矩形 70" width="1920" height="193" fill="none"/>
    </clipPath>
    <linearGradient id="linear-gradient" x1="0.01" y1="0.541" x2="0.88" y2="0.385" gradientUnits="objectBoundingBox">
      <stop offset="0" stop-color="#ab7927"/>
      <stop offset="0.192" stop-color="#fedb6b"/>
      <stop offset="0.36" stop-color="#f5d065"/>
      <stop offset="0.499" stop-color="#cba04a"/>
      <stop offset="0.6" stop-color="#b1823a"/>
      <stop offset="0.66" stop-color="#a87734"/>
      <stop offset="0.75" stop-color="#a2722f"/>
      <stop offset="1" stop-color="#d69c47"/>
    </linearGradient>
  </defs>
  <g id="组_328" data-name="组 328" clip-path="url(#clip-path)">
    <g id="组_327" data-name="组 327" transform="translate(0 11.622)">
      <path id="路径_16100" data-name="路径 16100" d="M0,66.35,3.63,241.116c45.88-29.817,102.93-57.192,174.25-79.558,167.4-52.507,389.41-70.033,595.49-71.515,248.89-1.778,489.49,16.609,717.97,43.589,78.85,9.313,157.92,19.755,243.32,20.588,63.53.621,132.31-5,188.33-18.359L1919.63,0Z" transform="translate(1931.545 241.116) rotate(180)" fill="url(#linear-gradient)"/>
      <path id="路径_16116" data-name="路径 16116" d="M188.59-2.718c85.29,3.8,164.02,14.561,242.56,24.476C658.73,50.5,898.62,73.237,1147.3,81.108c205.91,6.525,428.13,1.562,596.65-31.7C1815.76,35.241,1873.43,16.769,1920-3.937v110.27H0V4.1C39.63-1.512,85.47-4,131.28-4c19.26,0,38.53.444,57.31,1.282Z" transform="translate(0 87.045)" fill="#fff"/>
    </g>
  </g>
</svg>
