<svg xmlns="http://www.w3.org/2000/svg" xmlns:xlink="http://www.w3.org/1999/xlink" width="1922" height="228.63" viewBox="0 0 1922 228.63">
  <defs>
    <linearGradient id="linear-gradient" y1="0.934" x2="0.987" y2="0.68" gradientUnits="objectBoundingBox">
      <stop offset="0" stop-color="#ab7927"/>
      <stop offset="0.185" stop-color="#c68f46"/>
      <stop offset="0.338" stop-color="#fedb6b"/>
      <stop offset="0.363" stop-color="#f5d065"/>
      <stop offset="0.499" stop-color="#cba04a"/>
      <stop offset="0.602" stop-color="#b1823a"/>
      <stop offset="0.66" stop-color="#a87734"/>
      <stop offset="0.748" stop-color="#a2722f"/>
      <stop offset="0.86" stop-color="#926321"/>
      <stop offset="0.896" stop-color="#8c5e1c"/>
      <stop offset="1" stop-color="#d69c47"/>
    </linearGradient>
    <linearGradient id="linear-gradient-2" x1="0.5" y1="0" x2="0.5" y2="1" xlink:href="#linear-gradient"/>
  </defs>
  <g id="header" transform="translate(2)">
    <path id="路径_16100" data-name="路径 16100" d="M0,0V103.912C46.578,84.4,104.255,67,176.07,53.646,344.624,22.3,566.879,17.631,772.824,23.776,1021.543,31.2,1261.482,52.622,1489.1,79.7c78.556,9.347,157.3,19.5,242.606,23.07,63.465,2.658,132.32,1.076,188.625-6.43V0Z" transform="translate(-2 124.67) rotate(-1)" fill="url(#linear-gradient)"/>
    <path id="联合_1" data-name="联合 1" d="M1746.407,175.26c-85.289-2.2-164.021-8.447-242.564-14.2-227.576-16.669-467.474-29.857-716.151-34.425-205.91-3.782-428.126-.908-596.652,18.386C119.237,153.24,61.57,163.952,15,175.961V112H1935v59.3c-39.631,3.252-85.474,4.7-131.284,4.7C1784.453,176,1765.191,175.744,1746.407,175.26ZM15,112V0H1935V112Z" transform="translate(-15)" fill="#fff"/>
    <g id="搜尋列" transform="translate(-152 14)">
      <g id="组_51" data-name="组 51" transform="translate(1115 -53.5)">
        <rect id="矩形_41" data-name="矩形 41" width="295" height="30" rx="4" transform="translate(452 71.5)" fill="none" stroke="#c19d6c" stroke-miterlimit="10" stroke-width="1"/>
        <path id="路径_15694" data-name="路径 15694" d="M772,71.5H735v30h37a4,4,0,0,0,4-4v-22A4,4,0,0,0,772,71.5Z" transform="translate(-29)" fill="url(#linear-gradient-2)"/>
        <g id="组_50" data-name="组 50" transform="translate(717.356 78.239)">
          <path id="路径_15695" data-name="路径 15695" d="M758.839,80.381a7.312,7.312,0,1,0-.986,11.159l3,3a1.353,1.353,0,0,0,1.914-1.914l-3.021-3.021A7.308,7.308,0,0,0,758.839,80.381Zm-2.144,8.2a4.281,4.281,0,1,1,0-6.055A4.28,4.28,0,0,1,756.7,88.579Z" transform="translate(-746.356 -78.239)" fill="#fff"/>
        </g>
      </g>
      <g id="组_52" data-name="组 52" transform="translate(8)">
        <text id="環保署" transform="translate(1391 39)" font-size="15" font-family="YuGothicUI-Regular, Yu Gothic UI"><tspan x="0" y="0">環保署</tspan></text>
        <text id="English" transform="translate(1468 39)" font-size="15" font-family="Calibri"><tspan x="0" y="0">ENGLISH</tspan></text>
        <text id="網站導覽" transform="translate(1298 39)" font-size="15" font-family="YuGothicUI-Regular, Yu Gothic UI"><tspan x="0" y="0">網站導覽</tspan></text>
        <text id="首頁" transform="translate(1236 39)" font-size="15" font-family="YuGothicUI-Regular, Yu Gothic UI"><tspan x="0" y="0">首頁</tspan></text>
        <line id="直线_24" data-name="直线 24" y2="15" transform="translate(1282.5 25.5)" fill="none" stroke="#371d00" stroke-width="1"/>
        <g id="组件_1_1" data-name="组件 1 – 1" transform="translate(1375 25.5)">
          <line id="直线_25" data-name="直线 25" y2="15" fill="none" stroke="#371d00" stroke-width="1"/>
        </g>
        <g id="组件_1_2" data-name="组件 1 – 2" transform="translate(1452 25.5)">
          <line id="直线_25-2" data-name="直线 25" y2="15" fill="none" stroke="#371d00" stroke-width="1"/>
        </g>
      </g>
    </g>
    <g id="组_310" data-name="组 310" transform="translate(520.845 -62)">
      <g id="组_86" data-name="组 86" transform="translate(445 139)">
        <text id="關於環保獎章" transform="translate(34.715 19.953)" fill="#462a00" font-size="16" font-family="GenSenMaruGothicTW-Bold-TTF, GenSenMaruGothic TW TTF"><tspan x="0" y="0">關於環保獎章</tspan></text>
        <g id="组_313" data-name="组 313">
          <path id="路径_15696" data-name="路径 15696" d="M253.191,46.3l-.1-.24h11.351l3.862-5.686a.531.531,0,0,1,.369-.262.434.434,0,0,1,.376.186l4.651,5.662,5.485-.068v.172l.16.066a14.207,14.207,0,0,1-26.15.171m26.45-1.179h-3.433l-.054-.062-7.529-9.028-.013-.016L268.6,36a.156.156,0,0,0-.058-.063c-.007,0-.064.021-.158.177-.307.511-5.547,8.583-5.769,8.93l-.054.078h-9.808l-.04-.115-.218-.62-.079-.228H261.8l6.247-9.422a.618.618,0,0,1,.442-.237.7.7,0,0,1,.545.277c.408.458,7.095,8.756,7.476,9.227l.181.181h3.391l-.08.229-.207.59-.04.115Zm-20.218-1.5h-7.212l-.024-.143-.154-.928-.033-.2h6.866l5.7-8.38a11,11,0,0,0-1.184-1.219c-.153-.128-.289-.185-.381-.161-.114.031-.172.185-.172.186l-.007.021-.012.019-5.57,8.458-.05.078h-5.15l-.005-.166c-.006-.171-.009-.345-.009-.521a14.2,14.2,0,1,1,28.187,2.454l-.024.137-.139.005-1.389.054-.075,0-.054-.054-.009-.009-.007-.01c-.09-.122-9.027-12.172-9.582-12.777a.469.469,0,0,0-.352-.193c-.145.019-.263.192-.3.256l0,.01-.006.009-8.716,13-.054.076Z" transform="translate(-252 -26.469)" fill="url(#linear-gradient-2)"/>
        </g>
      </g>
      <g id="组_85" data-name="组 85" transform="translate(625.409 140.984)">
        <text id="申請流程" transform="translate(34.301 17.969)" fill="#462a00" font-size="16" font-family="GenSenMaruGothicTW-Bold-TTF, GenSenMaruGothic TW TTF"><tspan x="0" y="0">申請流程</tspan></text>
        <path id="路径_15802" data-name="路径 15802" d="M1392.308,91.721V80.253h1.924V93.682h-25.8V67.758h13.363v1.97h-11.411V91.767Zm-.663-25.541c-1.279,1.279-2.568,2.559-3.847,3.847l-7.882,7.947a.681.681,0,0,0-.177.43v3.913h3.819a.766.766,0,0,0,.6-.252l9.338-9.46,2.3-2.3c.084-.075.149-.159.205-.215L1391.8,65.9a3,3,0,0,1-.215.271Zm-9.964,12.887a.589.589,0,0,1,.215-.318c1.653-1.662,3.315-3.315,4.968-4.968l4.763-4.819a2.118,2.118,0,0,0,.187-.28l1.457,1.466a2.37,2.37,0,0,1-.187.2l-2.363,2.363-7.377,7.471a.71.71,0,0,1-.589.243h-1.083C1381.672,79.908,1381.653,79.478,1381.681,79.067Zm1.513,8.143h-9.833v1.868h9.833Z" transform="translate(-1368.43 -65.9)" fill="#a47330"/>
      </g>
      <g id="组_87" data-name="组 87" transform="translate(1083.451 140.984)">
        <text id="實績回顧" transform="translate(38.704 18.016)" fill="#462a00" font-size="16" font-family="GenSenMaruGothicTW-Bold-TTF, GenSenMaruGothic TW TTF"><tspan x="0" y="0">實績回顧</tspan></text>
        <path id="路径_15792" data-name="路径 15792" d="M1101,71.385v19.76a.985.985,0,0,0-.064.173,3.543,3.543,0,0,1-3.652,3.068h-24.161a4.045,4.045,0,0,1-.822-.082,3.552,3.552,0,0,1-2.831-3.652V68.135a1.452,1.452,0,0,1,.566-1.233,1.579,1.579,0,0,1,1-.292H1096a1.333,1.333,0,0,1,1.151.667,2.074,2.074,0,0,1,.219.813v2.082h2.118a1.406,1.406,0,0,1,1.388,1.05Zm-3.589.173V89.547c0,.475,0,.52.521.621a.658.658,0,0,1,.529.721.63.63,0,0,1-.6.612,1.717,1.717,0,0,1-1.826-1.616V67.97h-24.654c-.447,0-.447,0-.447.447V90.606a2.183,2.183,0,0,0,1.982,2.374,1.35,1.35,0,0,0,.383,0h23.978a2.191,2.191,0,0,0,2.374-1.991,1.831,1.831,0,0,0,0-.384V72a.912.912,0,0,0,0-.274c0-.064-.11-.155-.164-.155Zm-19.312,2.9h3.442c.575,0,.813.228.813.8v6.949c0,.575-.228.822-.8.822H1074.6c-.584,0-.813-.247-.813-.84V75.3c0-.621.219-.84.831-.84Zm-2.94,4.246v2.648c0,.237.073.32.32.32h5.2c.228,0,.329-.055.319-.31V76.133c0-.237-.082-.3-.3-.3h-5.232c-.247,0-.31.091-.31.329Zm-.374-7.807h-.365a.685.685,0,0,0-.091,1.342,2.175,2.175,0,0,0,.42,0h17.422a2.585,2.585,0,0,0,.457,0,.63.63,0,0,0,.493-.584c0-.475-.256-.749-.794-.749h-17.541Zm-.055,17.815a1.672,1.672,0,0,0-.429,0,.639.639,0,0,0-.5.621.667.667,0,0,0,.612.721h7.3a.658.658,0,0,0,.657-.639.157.157,0,0,0,0-.064c0-.42-.3-.667-.822-.667h-6.793Zm17.687,1.379a.667.667,0,0,0,.667-.447.63.63,0,0,0-.219-.767,1.443,1.443,0,0,0-.639-.164h-6.748a2.453,2.453,0,0,0-.365,0,.685.685,0,0,0-.575.767.694.694,0,0,0,.666.584h3.6Zm-7.14-15.632a.648.648,0,0,0-.7.584.181.181,0,0,0,0,.064.657.657,0,0,0,.6.712h6.967a3.829,3.829,0,0,0,.457,0,.621.621,0,0,0,.52-.594.648.648,0,0,0-.548-.74.447.447,0,0,0-.155,0h-3.57Zm7.1,12.053a.648.648,0,0,0,.731-.566.254.254,0,0,0,0-.082.666.666,0,0,0-.612-.712h-7.415a.612.612,0,0,0-.511.511.657.657,0,0,0,.484.8.53.53,0,0,0,.21,0h7.1Zm-13.943,0h3.232a.621.621,0,0,0,.676-.594.065.065,0,0,0,0-.046.657.657,0,0,0-.594-.7h-7.369a.639.639,0,0,0-.594.685h0a.657.657,0,0,0,.657.657h3.981Zm11.268-7.122h2.739a.648.648,0,0,0,.712-.594.714.714,0,0,0,0-.2.676.676,0,0,0-.767-.557h-7.2a.648.648,0,0,0-.584.612.667.667,0,0,0,.566.74h4.566Zm-1.726,2.182h-2.739a.657.657,0,0,0-.7.594.489.489,0,0,0,0,.2c0,.356.319.557.758.557h7.2a.621.621,0,0,0,.575-.6.649.649,0,0,0-.557-.74.547.547,0,0,0-.173,0H1088.8Z" transform="translate(-1069.465 -66.607)" fill="#a47330"/>
      </g>
      <g id="组_84" data-name="组 84" transform="translate(926.612 140.984)">
        <text id="得獎名單" transform="translate(39.262 17.969)" fill="#462a00" font-size="16" font-family="GenSenMaruGothicTW-Bold-TTF, GenSenMaruGothic TW TTF"><tspan x="0" y="0">得獎名單</tspan></text>
        <path id="路径_15768" data-name="路径 15768" d="M1657.84,88.122V68.765a.968.968,0,0,0,.063-.143,2.183,2.183,0,0,1,2.272-1.782H1687.8a2.21,2.21,0,0,1,2.308,2.094V87.7a2.961,2.961,0,0,1-.1.74,2.228,2.228,0,0,1-2.291,1.6h-1.06c.16,1,.312,1.952.472,2.9a1.3,1.3,0,0,1-.891,1.613,1.489,1.489,0,0,1-1.15-.178l-3.226-1.7a.811.811,0,0,0-.829,0l-3.057,1.613a4.378,4.378,0,0,1-.633.276,1.194,1.194,0,0,1-1.488-.784v-.107a2.317,2.317,0,0,1,0-.784c.143-.891.3-1.854.463-2.834h-15.988a2.246,2.246,0,0,1-2.415-1.854.415.415,0,0,0-.08-.08Zm28.457,0h1.221c.606,0,.677-.062.677-.659V69.29c0-.579-.062-.642-.624-.642h-27.2c-.588,0-.642.053-.642.651V87.774a.374.374,0,0,0,.348.392h16.042a2.34,2.34,0,0,1,.25,0c.169,0,.241-.062.267-.232.089-.588.205-1.176.285-1.782a.723.723,0,0,0-.143-.428,5.713,5.713,0,0,1-1.052-4.189,5.784,5.784,0,1,1,10.383,4.207.543.543,0,0,0-.134.33c.1.677.214,1.364.321,2.032Zm-4.866-1.88a3.912,3.912,0,1,0-3.895-3.93h0a3.912,3.912,0,0,0,3.895,3.912Zm3.636,6-.793-4.839a5.89,5.89,0,0,1-5.65,0l-.784,4.813a2.664,2.664,0,0,0,.3-.134c.6-.312,1.212-.606,1.782-.954a2.78,2.78,0,0,1,3,0c.668.392,1.364.722,2.121,1.123Zm-.891-18.1a3.183,3.183,0,0,0,.41,0,.891.891,0,0,0,.784-1.034V72.98c-.143-.49-.49-.713-1.123-.713H1663a1.838,1.838,0,0,0-.312,0,.963.963,0,0,0-.891.891.891.891,0,0,0,.642.891,1.906,1.906,0,0,0,.5.053h21.22Zm-21.389,3.342a.891.891,0,0,0-.891.606.945.945,0,0,0,.57,1.212,1.043,1.043,0,0,0,.4.053h8.939a1.016,1.016,0,0,0,.891-.428.891.891,0,0,0-.241-1.292.971.971,0,0,0-.544-.16h-9.126Z" transform="translate(-1657.84 -66.836)" fill="#a47330"/>
      </g>
      <g id="组_83" data-name="组 83" transform="translate(778.906 140.984)">
        <text id="線上申請" transform="translate(29.28 17.969)" fill="#462a00" font-size="16" font-family="GenSenMaruGothicTW-Bold-TTF, GenSenMaruGothic TW TTF"><tspan x="0" y="0">線上申請</tspan></text>
        <path id="路径_15818" data-name="路径 15818" d="M821.737,176.842h-7.705a1.029,1.029,0,0,1-.657-1.12c.028-.45,0-.9.01-1.355a.3.3,0,0,0-.2-.327,5.9,5.9,0,0,1-2.282-1.79c-.5-.671-.924-1.4-1.368-2.113a.422.422,0,0,0-.422-.247c-.542.019-1.084.007-1.627.006a2.613,2.613,0,0,1-2.786-2.778q0-4.461,0-8.922c0-1.04-.012-2.079.006-3.119a2.552,2.552,0,0,1,2.332-2.5c.719-.054,1.445-.024,2.168-.031.1,0,.209,0,.335,0,0-.31-.006-.58,0-.849a2.549,2.549,0,0,1,1.358-2.311,5.92,5.92,0,0,1,.909-.331h8.356a.186.186,0,0,0,.046.027,2.623,2.623,0,0,1,2.222,2.831c0,.2,0,.408,0,.633.707,0,1.375-.006,2.042,0a3.684,3.684,0,0,1,.753.069,2.583,2.583,0,0,1,2.043,2.617q0,5.139,0,10.277c0,.606.008,1.211,0,1.817a2.571,2.571,0,0,1-2.188,2.518c-.37.057-.751.047-1.122.067a.272.272,0,0,0-.027.056.869.869,0,0,0-.014.107,6.179,6.179,0,0,1-1.4,3.487.593.593,0,0,0-.119.339c-.012.605-.027,1.212,0,1.816A1.038,1.038,0,0,1,821.737,176.842Zm2.247-8.682h.509c.723,0,1.042-.319,1.042-1.042q0-5.887,0-11.775c0-.735-.321-1.056-1.058-1.056H807.493c-.742,0-1.058.316-1.058,1.055q0,5.887,0,11.775c0,.072,0,.145,0,.217a.84.84,0,0,0,.714.806c.379.038.764.008,1.173.008-.035-.069-.054-.108-.074-.146a1.6,1.6,0,0,1,.78-2.31,3.049,3.049,0,0,1,2.01-.212,3.276,3.276,0,0,1,1.472.8v-.392c0-2.424-.007-4.847,0-7.271a2.084,2.084,0,1,1,4.167.068c.005,1.854,0,3.708,0,5.562v.326c.111.021.2.042.287.053,1.543.186,3.086.374,4.63.554a2.606,2.606,0,0,1,2.255,1.981A9.736,9.736,0,0,1,823.984,168.16Zm-3.33,6.93c0-.544.007-1.067,0-1.59a1.106,1.106,0,0,1,.329-.829,4.229,4.229,0,0,0,1.11-2.077,12.13,12.13,0,0,0,.1-2.919.811.811,0,0,0-.75-.77c-.268-.041-.538-.07-.807-.1-1.607-.189-3.214-.371-4.819-.569-.622-.077-.871-.386-.872-1.024,0-.922,0-1.845,0-2.767q0-1.845,0-3.689a.342.342,0,0,0-.476-.368c-.218.065-.215.233-.215.412q0,4.883,0,9.766a.884.884,0,0,1-1.629.588c-.444-.536-.882-1.077-1.33-1.61a1.23,1.23,0,0,0-1.444-.279c.043.078.084.156.13.232.591.984,1.185,1.965,1.772,2.951a5.094,5.094,0,0,0,2.691,2.246.89.89,0,0,1,.679.982c0,.468,0,.935,0,1.416Zm.04-22.555c0-.293.008-.571,0-.848a.874.874,0,0,0-.922-.89c-.5,0-.994,0-1.491,0h-6.045a.816.816,0,0,0-.888.565,8.5,8.5,0,0,0-.093,1.173Z" transform="translate(-804.695 -149.06)" fill="#a47330"/>
      </g>
    </g>
    <rect id="矩形_63" data-name="矩形 63" width="10" height="1920" transform="translate(0 10) rotate(-90)" fill="url(#linear-gradient-2)"/>
  </g>
</svg>
