<svg xmlns="http://www.w3.org/2000/svg" xmlns:xlink="http://www.w3.org/1999/xlink" width="332.639" height="66" viewBox="0 0 332.639 66">
  <defs>
    <linearGradient id="linear-gradient" x1="0.213" y1="0.091" x2="0.865" y2="0.79" gradientUnits="objectBoundingBox">
      <stop offset="0" stop-color="#ab7927"/>
      <stop offset="0.185" stop-color="#c68f46"/>
      <stop offset="0.338" stop-color="#fedb6b"/>
      <stop offset="0.363" stop-color="#f5d065"/>
      <stop offset="0.499" stop-color="#cba04a"/>
      <stop offset="0.602" stop-color="#b1823a"/>
      <stop offset="0.66" stop-color="#a87734"/>
      <stop offset="0.748" stop-color="#a2722f"/>
      <stop offset="0.86" stop-color="#926321"/>
      <stop offset="0.896" stop-color="#8c5e1c"/>
      <stop offset="1" stop-color="#d69c47"/>
    </linearGradient>
    <linearGradient id="linear-gradient-2" x1="0.018" y1="0.587" x2="1" y2="0.5" gradientUnits="objectBoundingBox">
      <stop offset="0" stop-color="#850"/>
      <stop offset="0.185" stop-color="#c68f46"/>
      <stop offset="0.404" stop-color="#6f4103"/>
      <stop offset="0.748" stop-color="#a2722f"/>
      <stop offset="0.896" stop-color="#4f2f02"/>
      <stop offset="1" stop-color="#d69c47"/>
    </linearGradient>
    <clipPath id="clip-path">
      <rect id="矩形_40" data-name="矩形 40" width="65.867" height="65.791" fill="url(#linear-gradient)"/>
    </clipPath>
  </defs>
  <g id="logo" transform="translate(-393.012 -29)">
    <path id="路径_15692" data-name="路径 15692" d="M.992-17.536a37.9,37.9,0,0,0,10.4-6.336,2.124,2.124,0,0,0,.416.032.833.833,0,0,0,.832-.416L7.616-27.392A38.227,38.227,0,0,1,.8-17.888ZM25.6-27.2l-2.144,2.88H14.112l.128.512H27.968c.864,0,1.312-.1,1.568-.448ZM1.088-7.424a32.157,32.157,0,0,0,4.288-2.848V3.072c3.9,0,4.64-1.152,4.64-1.152v-15.2c.608-.128.9-.352.992-.64L9.952-14.3c1.088-1.088,2.048-2.144,2.848-3.1.8.064,1.12-.128,1.28-.448L8.672-20.9A53.157,53.157,0,0,1,.864-7.744Zm23.808-8H12.416l.128.512h8.448V-2.656c0,.32-.128.48-.448.48H15.776v.352c2.5.384,4.032.992,4.032,4.928,5.12-.384,5.92-2.656,5.92-5.7v-12.32h3.9c.864,0,1.312-.1,1.568-.448l-4.064-3.072Zm34.048-7.424-2.336,3.232H53.12a38.59,38.59,0,0,0,1.76-5.792c.9-.1,1.152-.352,1.248-.8l-6.24-1.152A54.241,54.241,0,0,1,48.1-15.168L45.728-17.28l-1.7,2.624v-8.7h3.936c.832,0,1.312-.1,1.536-.448l-4-2.976L43.3-23.872H33.056l.128.512h6.528V-4.832l-1.664.192V-17.184c.736-.128.96-.288,1.024-.64L34.3-18.272V-4.224c-.672.064-1.28.128-1.76.16l2.3,5.088a1.557,1.557,0,0,0,.96-.8A120.783,120.783,0,0,0,50.144-5.792l-.032-.352c-2.08.288-4.128.544-6.08.8V-13.76H47.68A22.573,22.573,0,0,1,46.5-10.912l.384.224a18,18,0,0,0,3.456-3.68,40.658,40.658,0,0,0,2.112,9.024,20.529,20.529,0,0,1-8.9,8.064l.128.352A25.273,25.273,0,0,0,53.888-2.336a15.057,15.057,0,0,0,5.5,5.568,5.181,5.181,0,0,1,4.064-4.256l.064-.352a20.623,20.623,0,0,1-7.008-3.936c2.656-3.744,4-8.384,4.7-13.792H61.6c.864,0,1.344-.1,1.6-.448ZM56.288-19.1a37.548,37.548,0,0,1-2.4,10.848,20.664,20.664,0,0,1-3.008-6.912A25.261,25.261,0,0,0,52.928-19.1Zm15.424-5.76h-.864l-4.608-1.7V3.072h.768c2.112,0,3.392-1.024,3.392-1.312V-6.464c1.376.448,1.5,1.856,1.5,3.616,3.744-.32,4.992-2.5,4.992-5.568V-8.64c-.032-2.592-1.824-5.056-5.12-7.072,1.472-2.016,3.456-5.344,4.48-7.136.736,0,1.152-.128,1.408-.448l-3.84-3.872Zm-1.312.512h1.664c-.192,2.432-.576,6.592-.832,8.736a13.241,13.241,0,0,1,1.536,6.784c0,1.248-.224,1.984-1.024,1.984H70.4Zm18.784,4.928L87.2-16.768H79.04l.128.512H91.3c.832,0,1.28-.1,1.536-.448l-1.952-1.44a39.918,39.918,0,0,0,3.744-2.4,1.661,1.661,0,0,0,1.216-.384L92.288-24.32,90.24-22.272H87.488v-3.84c.8-.128,1.056-.32,1.12-.7l-5.6-.544v5.088h-3.04a13.16,13.16,0,0,0-.544-1.568h-.416a3.354,3.354,0,0,1-1.888,2.688,2.434,2.434,0,0,0-1.6,2.08,1.934,1.934,0,0,0,2.144,1.888c1.632,0,2.56-1.28,2.56-3.2A7.106,7.106,0,0,0,80.1-21.76H90.56c-.064.928-.192,2.208-.288,3.136ZM93.76-4.64a16.366,16.366,0,0,1-1.44,3.1.931.931,0,0,1-.928.416H90.144c-.416,0-.416-.032-.416-.8v-8.32c.7-.1.928-.288,1.024-.544h2.88c.832,0,1.28-.1,1.536-.448l-3.744-2.912L89.376-11.3H76.448l.128.512h3.072C79.584-5.28,78.432.128,73.472,2.752L73.7,3.1c8-2.24,9.856-7.648,10.336-13.216.8-.1,1.12-.288,1.184-.672h.192v8.832c0,3.456.608,4.352,4.192,4.352h1.856c2.784,0,3.872-.864,3.872-2.4,0-.544-.128-.768-1.344-1.344v-3.3Zm10.336-10.5h2.752c.8,0,1.28-.1,1.5-.448l-.736-.7h18.016c.864,0,1.312-.064,1.536-.448l-2.976-2.176c.832-.256,1.472-.544,1.5-.7v-4.256a2.235,2.235,0,0,0,1.28-.7L122.72-27.52l-1.536,2.048h-8.96l-4.32-1.664v2.08l-2.688-2.336-1.92,2.976H96.64l.128.512h3.008v8.256H96.96l.16.512h2.656V-6.56c-1.376.192-2.5.32-3.232.416L98.656-.9a1.426,1.426,0,0,0,.96-.864,80.978,80.978,0,0,0,8.768-5.824l-.032-.288c-1.44.224-2.88.48-4.256.672Zm13.248-4.96H116.1V-24.96h1.248Zm-9.44,2.048c3.3,0,4.1-1.248,4.1-1.536h9.5v.992l1.376-.032L121.5-16.8H107.1l-1.6-1.568-1.408,2.4V-23.9h3.072a4.966,4.966,0,0,0,.736-.032Zm5.312-2.048H112V-24.96h1.216Zm8.288,0h-1.28V-24.96h1.28Zm3.424,8.032a2.235,2.235,0,0,0,1.28-.7l-4.48-3.072-1.6,2.144h-7.072l-4.352-1.7v9.12c3.488,0,4.16-1.408,4.16-1.472v-.192h.448A27.021,27.021,0,0,1,102.88.672l.224.448a39.278,39.278,0,0,0,9.664-3.808V2.944h.832c2.272,0,3.616-.8,3.648-.992v-8a8.879,8.879,0,0,0,.768-.8c1.088,4.832,2.912,7.9,6.432,9.952.416-2.144,1.536-3.52,3.04-3.936l.032-.352a15.568,15.568,0,0,1-5.6-2.4c1.312-.384,2.944-.9,4.032-1.28a2.159,2.159,0,0,0,.544.1.684.684,0,0,0,.576-.288L123.84-7.52c.608-.256,1.088-.544,1.088-.672Zm-12.064-1.12h7.584v4.736h-7.584Zm7.584,6.24a8.476,8.476,0,0,0,1.92-.128c-.448.928-.928,1.952-1.376,2.784a11.575,11.575,0,0,1-2.528-3.072,7.031,7.031,0,0,0,.448-.576h1.536Zm32.9-10.4h-2.432c1.472-1.216,3.232-2.72,4.32-3.776.832.032,1.12-.128,1.248-.512l-4.256-1.184h5.248c.864,0,1.312-.1,1.568-.448L155.1-26.432l-2.176,3.1h-1.792v-2.784c.9-.128,1.184-.352,1.248-.8l-5.792-.544v4.128H139.84l.128.512H151.04c-.256,1.632-.64,3.872-.96,5.472H138.752l.128.512h19.232c.864,0,1.312-.1,1.568-.448l-4.1-3.1Zm-14.272-.736c.8,0,1.28-.1,1.536-.448l-2.976-3.2-1.376,2.56v-6.624c.9-.128,1.184-.352,1.248-.8l-5.728-.544v8.544h-2.944l.128.512h2.816V-7.712c-1.408.192-2.592.32-3.328.384L130.5-1.92a1.557,1.557,0,0,0,.992-.864A80.5,80.5,0,0,0,140.7-8.672l-.032-.288c-1.5.224-2.976.448-4.416.64v-9.76Zm3.84-4.544a7.006,7.006,0,0,1,.7,3.168,7.847,7.847,0,0,1-.064.864,2.323,2.323,0,0,0,1.984,1.152,2.326,2.326,0,0,0,2.4-2.048c0-1.12-1.216-2.464-4.8-3.264Zm15.1,17.984a27.523,27.523,0,0,1-1.568,3.456c-.288.416-.448.416-1.056.416h-1.664c-.544,0-.544,0-.544-.672V-5.408a7,7,0,0,0,3.936-1.12v-5.888a2.126,2.126,0,0,0,1.248-.7l-4.48-3.1-1.632,2.176h-6.88L140.7-15.84V-5.088a7.047,7.047,0,0,0,2.592-.32c-.352,3.232-1.6,6.336-7.712,8l.224.416c9.344-1.184,11.424-4.672,12.256-8.928a2.089,2.089,0,0,0,.544-.1V-1.44c0,3.424.736,4.288,4.448,4.288h2.4c3.232,0,4.1-.992,4.1-2.5,0-.544-.1-.736-1.376-1.344l.032-3.648Zm-5.44-5.856h-7.392v-3.04h7.392Zm-7.392.512h7.392v3.008h-7.392ZM186.912-13.7l-2.368,3.136h-1.952v-4.7c.672-.1.864-.32.928-.64h.384v1.76h.832c2.4,0,3.808-.768,3.808-.96V-23.3a1.7,1.7,0,0,0,1.216-.576l-4.32-3.1-1.824,2.368h-6.624l-4.736-1.76v.672l-5.984-1.7c-1.12,6.624-3.456,13.792-5.728,17.824l.352.224a24.622,24.622,0,0,0,3.328-3.264V3.04h.864c1.76,0,3.648-.96,3.68-1.312V-17.888c.64-.1.9-.32,1.024-.608l-1.28-.48a45.343,45.343,0,0,0,2.592-6.016c.64,0,.96-.128,1.152-.352V-13.92h.8c2.272,0,3.616-.928,3.616-1.216V-15.9h1.28v5.344h-7.84l.128.512h5.92A23.384,23.384,0,0,1,169.536.544l.256.416a25.672,25.672,0,0,0,8.16-5.536V3.072h.864c1.7,0,3.776-.928,3.776-1.248V-9.888c.992,4.8,2.528,8.448,5.344,10.88.576-2.208,1.728-3.584,3.36-4l.064-.352a16.253,16.253,0,0,1-8.32-6.688h6.592c.864,0,1.344-.1,1.568-.448Zm-10.24-10.4H183.9v7.68h-7.232Zm31.232.48v1.6l-.9-.352a38.632,38.632,0,0,1-3.84,9.344l-2.3-1.7-1.7,2.272h-5.152l.16.512h8.32c.8,0,1.28-.1,1.5-.448l-.448-.32a16.611,16.611,0,0,0,2.4-1.92v7.168h.7c1.952,0,3.136-.864,3.136-1.152v-.256h12.16c.8,0,1.248-.064,1.472-.448l-3.392-2.336L218.24-9.376h-1.92V-12h4.32c.768,0,1.216-.064,1.44-.448l-3.008-2.08-1.6,2.016H216.32V-15.1h4.32c.768,0,1.216-.064,1.44-.448l-3.008-2.08-1.6,2.016H216.32v-2.56h4.96c.8,0,1.248-.064,1.472-.448l-3.232-2.24-1.728,2.176h-3.808c.96-.48,2.144-1.12,2.912-1.536.928,0,1.28-.256,1.344-.8l-2.432-.416a5.624,5.624,0,0,0,2.72-.768v-1.408h3.36c.832,0,1.28-.064,1.5-.448L220.256-26.4l-1.7,2.272h-.032V-26.3c.7-.1.9-.32.928-.672l-4.96-.384v3.232H211.9V-26.3c.736-.1.9-.32.96-.672l-4.96-.384v3.232h-3.776l.128.512Zm1.888,8v-2.56h2.528v2.56Zm0,3.1V-15.1h2.528v2.592Zm4.7-9.152-1.7-.288c-.128.928-.288,2.3-.448,3.264h-2.144l-.608-.224.7-1.152c.832.032,1.152-.16,1.28-.544l-1.952-.736a4.782,4.782,0,0,0,2.272-.7v-1.568H214.5Zm-4.7,12.288V-12h2.528v2.624Zm-8.8-.512L199.552-8h-1.568l-4.032-1.632V3.04c3.328,0,3.9-1.344,3.9-1.408V-.576h1.984V1.7c2.944,0,3.968-1.056,3.968-1.088V-6.56a1.9,1.9,0,0,0,1.12-.576Zm-3.136,2.4h1.984v6.4h-1.984Zm18.176.864H204.8l.16.512h2.624a13.22,13.22,0,0,0,3.776,5.12,26.721,26.721,0,0,1-8.384,3.648l.1.384A39.881,39.881,0,0,0,213.5.512a25.287,25.287,0,0,0,6.72,2.528c.384-2.112,1.408-3.552,3.1-4.1V-1.44a52.015,52.015,0,0,1-5.44-.48,15.522,15.522,0,0,0,3.072-3.072c.736-.064,1.056-.16,1.28-.512l-3.776-3.3Zm.16.512a13.592,13.592,0,0,1-2.528,3.232,12.066,12.066,0,0,1-5.472-3.232ZM200.512-27.3l-1.792,2.4h-4.544l.16.512h7.936c.8,0,1.28-.1,1.5-.448Zm-.32,6.464H192.64l.16.512h10.912c.8,0,1.248-.1,1.472-.448L201.952-23.2Zm-1.024,4.192h-5.152l.16.512h8.32c.8,0,1.28-.1,1.5-.448l-3.136-2.336Zm50.272,5.12h-3.36a42.182,42.182,0,0,0,5.984-3.968,1.926,1.926,0,0,0,.736.192.939.939,0,0,0,.608-.224l-2.752-2.592a4.8,4.8,0,0,0,1.76-.64V-23.52a2.235,2.235,0,0,0,1.28-.7L249.248-27.3l-1.632,2.144H232.352l-4.736-1.76V-17.6c3.744,0,4.384-1.472,4.384-1.536h3.872v3.168h-6.816l.128.512h6.688v3.936h-11.04l.16.512h13.92c-1.632.96-3.328,1.888-5.12,2.784l-2.656-1.024v2.272c-2.08.9-4.192,1.728-6.336,2.432l.128.48c2.112-.384,4.192-.832,6.208-1.376V3.072c3.776,0,4.48-1.5,4.48-1.632V1.088h10.976v1.7c3.3,0,4.544-.928,4.544-.96V-5.824a2.235,2.235,0,0,0,1.28-.7l-4.48-3.1-1.664,2.176h-8.96a63.52,63.52,0,0,0,7.84-3.552H253.7c.864,0,1.28-.064,1.536-.448l-3.776-2.656Zm-8.224-8.128H238.56V-24.64h2.656Zm-.1.544v-.032h6.816v1.28h.288c-.416.416-.9.832-1.376,1.248L244.16-18.56l-2.016,2.592h-1.792V-18.4c.8-.128,1.024-.32,1.088-.7Zm6.816-.544h-2.688V-24.64h2.688Zm-13.376,0H232V-24.64h2.56Zm5.792,4.192h5.088a54.468,54.468,0,0,1-5.088,3.552Zm6.24,11.936H235.616V-6.848l.288-.1h10.688Zm-10.976.512h10.976V.576H235.616Z" transform="translate(470.419 59.333)" fill="url(#linear-gradient-2)"/>
    <text id="Environmental_Protection_Administration_Executive_Yuan_R.O.C._Taiwan_" data-name="Environmental Protection Administration
Executive Yuan, R.O.C. (Taiwan)" transform="translate(473.919 78)" fill="#482b00" font-size="15" font-family="Calibri"><tspan x="0" y="0">Environmental Protection Administration</tspan><tspan x="0" y="13">Executive Yuan, R.O.C. (Taiwan)</tspan></text>
    <g id="组_49" data-name="组 49" transform="translate(393.012 29)">
      <g id="组_48" data-name="组 48" transform="translate(0 0)" clip-path="url(#clip-path)">
        <path id="路径_15690" data-name="路径 15690" d="M254.759,72.417l-.241-.556h26.3c1.061-1.563,8.959-13.192,8.948-13.173a1.23,1.23,0,0,1,.854-.606,1,1,0,0,1,.871.43l10.775,13.118,12.707-.158v.4l.372.153a32.913,32.913,0,0,1-60.582.4m61.278-2.73h-7.954l-.124-.143L290.515,48.629l-.03-.036-.02-.036a.362.362,0,0,0-.134-.147c-.016,0-.149.05-.365.41C289.254,50,277.115,68.7,276.6,69.508l-.126.18H253.752l-.092-.267-.5-1.435-.184-.528h21.736c1.381-2.083,14.46-21.81,14.473-21.828a1.432,1.432,0,0,1,1.024-.548,1.617,1.617,0,0,1,1.263.643c.945,1.061,16.437,20.286,17.321,21.377l.42.419h7.856l-.185.531-.48,1.367-.092.266ZM269.2,66.221H252.488l-.055-.332-.358-2.15L252,63.275h15.908L281.123,43.86a25.487,25.487,0,0,0-2.743-2.825c-.355-.3-.67-.429-.884-.373-.265.072-.4.429-.4.43l-.016.048-.027.043-12.9,19.595-.117.18H252.1l-.012-.385c-.014-.4-.021-.8-.021-1.207a32.9,32.9,0,1,1,65.3,5.684l-.055.317-.322.012-3.219.124-.173.007-.124-.124-.021-.021-.016-.024c-.209-.282-20.914-28.2-22.2-29.6a1.087,1.087,0,0,0-.815-.446c-.337.045-.61.445-.686.594l-.01.022-.015.021L269.522,66.047l-.124.175Z" transform="translate(-252 -26.47)" fill="url(#linear-gradient)"/>
      </g>
    </g>
  </g>
</svg>
