<svg xmlns="http://www.w3.org/2000/svg" xmlns:xlink="http://www.w3.org/1999/xlink" width="803" height="349.758" viewBox="0 0 803 349.758">
  <defs>
    <linearGradient id="linear-gradient" x1="0.5" x2="0.5" y2="1" gradientUnits="objectBoundingBox">
      <stop offset="0" stop-color="#ab7927"/>
      <stop offset="0.1" stop-color="#fedb6b"/>
      <stop offset="0.23" stop-color="#c68f46"/>
      <stop offset="0.385" stop-color="#cba04a"/>
      <stop offset="0.494" stop-color="#875914"/>
      <stop offset="0.66" stop-color="#a87734"/>
      <stop offset="0.748" stop-color="#a2722f"/>
      <stop offset="0.86" stop-color="#926321"/>
      <stop offset="0.896" stop-color="#8c5e1c"/>
      <stop offset="1" stop-color="#d69c47"/>
    </linearGradient>
    <radialGradient id="radial-gradient" cx="0.5" cy="0.5" r="0.5" gradientUnits="objectBoundingBox">
      <stop offset="0" stop-color="#e1ca8f"/>
      <stop offset="0.144" stop-color="#ceb47c"/>
      <stop offset="0.64" stop-color="#8c6a39"/>
      <stop offset="1" stop-color="#543516"/>
    </radialGradient>
    <linearGradient id="linear-gradient-11" x1="0.5" x2="0.5" y2="1" gradientUnits="objectBoundingBox">
      <stop offset="0" stop-color="#ab7927"/>
      <stop offset="0.185" stop-color="#c68f46"/>
      <stop offset="0.338" stop-color="#fedb6b"/>
      <stop offset="0.363" stop-color="#f5d065"/>
      <stop offset="0.499" stop-color="#cba04a"/>
      <stop offset="0.602" stop-color="#b1823a"/>
      <stop offset="0.66" stop-color="#a87734"/>
      <stop offset="0.748" stop-color="#a2722f"/>
      <stop offset="0.86" stop-color="#926321"/>
      <stop offset="0.896" stop-color="#8c5e1c"/>
      <stop offset="1" stop-color="#d69c47"/>
    </linearGradient>
    <linearGradient id="linear-gradient-36" x1="-2.586" y1="0.597" x2="5.903" y2="-8.284" xlink:href="#linear-gradient-11"/>
    <linearGradient id="linear-gradient-37" x1="-2.744" y1="1.419" x2="5.275" y2="-7.925" xlink:href="#linear-gradient-11"/>
    <linearGradient id="linear-gradient-38" x1="-2.925" y1="2.34" x2="4.755" y2="-7.647" xlink:href="#linear-gradient-11"/>
    <linearGradient id="linear-gradient-39" x1="-3.02" y1="3.421" x2="4.277" y2="-7.515" xlink:href="#linear-gradient-11"/>
    <linearGradient id="linear-gradient-40" x1="-3.053" y1="4.792" x2="3.885" y2="-7.66" xlink:href="#linear-gradient-11"/>
    <linearGradient id="linear-gradient-41" x1="-3.186" y1="6.157" x2="3.688" y2="-7.387" xlink:href="#linear-gradient-11"/>
    <linearGradient id="linear-gradient-42" x1="-3.419" y1="6.229" x2="3.68" y2="-5.476" xlink:href="#linear-gradient-11"/>
    <linearGradient id="linear-gradient-43" x1="-3.667" y1="6.214" x2="3.76" y2="-4.223" xlink:href="#linear-gradient-11"/>
    <linearGradient id="linear-gradient-44" x1="-3.887" y1="6.191" x2="3.883" y2="-3.453" xlink:href="#linear-gradient-11"/>
    <linearGradient id="linear-gradient-45" x1="-4.115" y1="6.127" x2="4.097" y2="-3.026" xlink:href="#linear-gradient-11"/>
    <linearGradient id="linear-gradient-46" x1="-8.035" y1="17.391" x2="3.719" y2="-0.362" xlink:href="#linear-gradient-11"/>
  </defs>
  <g id="news1" transform="translate(-543 -712.731)">
    <g id="组_122" data-name="组 122" transform="translate(663.571 712.731)">
      <g id="组_121" data-name="组 121" transform="translate(0 136.766)">
        <text id="環保獎章活動專業網頁開張_112年環境保護專業獎章要開跑嚕_關於專業獎章頒發作業要點附件更新說明_112年將新增線上申請方式_" data-name="環保獎章活動專業網頁開張。112年環境保護專業獎章要開跑嚕。
關於專業獎章頒發作業要點附件更新說明。
112年將新增線上申請方式。" transform="translate(153.727 11)" fill="#371d00" font-size="23" font-family="GenYoGothicTW-B, GenYoGothic TW"><tspan x="0" y="20">環保獎章活動專業網頁開張。</tspan><tspan x="0" y="63">112年環境保護專業獎章要開跑嚕。</tspan><tspan x="0" y="106">關於專業獎章頒發作業要點附件更新說明。</tspan><tspan x="0" y="149">112年將新增線上申請方式。</tspan></text>
        <text id="_2022_08_03_2022_08_03_2022_08_03_2022_08_03" data-name="2022/08/032022/08/032022/08/032022/08/03" transform="translate(0 11.206)" fill="#b20932" font-size="23" font-family="GenYoGothicTW-M, GenYoGothic TW"><tspan x="0" y="20">2022/08/03</tspan><tspan x="0" y="63">2022/08/03</tspan><tspan x="0" y="106">2022/08/03</tspan><tspan x="0" y="149">2022/08/03</tspan></text>
        <line id="直线_26" data-name="直线 26" x2="569.093" transform="translate(0 41.568)" fill="none" stroke="#9b7b48" stroke-width="1"/>
        <line id="直线_29" data-name="直线 29" x2="569.093" transform="translate(0 129.613)" fill="none" stroke="#9b7b48" stroke-width="1"/>
        <line id="直线_27" data-name="直线 27" x2="569.093" transform="translate(0 84.179)" fill="none" stroke="#9b7b48" stroke-width="1"/>
        <line id="直线_28" data-name="直线 28" x2="569.093" transform="translate(0 174.224)" fill="none" stroke="#9b7b48" stroke-width="1"/>
      </g>
      <g id="组_182" data-name="组 182" transform="translate(83.097)">
        <g id="组_157" data-name="组 157" transform="translate(116.954 327.563)">
          <g id="组_150" data-name="组 150" transform="translate(82.808 0)">
            <g id="组_145" data-name="组 145" transform="translate(1.173 7.458)">
              <path id="路径_15900" data-name="路径 15900" d="M1047.132,948.022l-.318.314a11.262,11.262,0,0,1-.952.87,16.987,16.987,0,0,1-4.061,2.506c-.232.1-.469.211-.714.312l-.763.286-.395.145-.408.129c-.275.085-.555.177-.842.259a30.64,30.64,0,0,1-3.733.774,37.507,37.507,0,0,1-4.192.321,42.379,42.379,0,0,1-4.5-.17,50.932,50.932,0,0,1-11.161-2.335c-1.583-.52-3-1.073-4.235-1.612s-2.269-1.07-3.1-1.5c-1.774-.63-4.336-1.612-7.408-2.777-1.54-.571-3.2-1.2-4.979-1.794s-3.655-1.178-5.616-1.682a49.551,49.551,0,0,0-8.258-1.392,20.315,20.315,0,0,0-6.717.653c-.956.23-1.818.474-2.577.691s-1.414.407-1.954.552-.961.249-1.248.311l-.439.091.417-.162c.273-.107.672-.272,1.181-.494l1.859-.812c.728-.314,1.564-.663,2.512-1a24.269,24.269,0,0,1,3.186-.923c.295-.061.594-.126.9-.168s.624-.1.948-.122l.489-.046c.165-.011.332-.013.5-.02l.507-.015.5.013a37.728,37.728,0,0,1,8.616,1.173,51.585,51.585,0,0,1,5.735,1.857c1.785.687,3.426,1.429,4.927,2.127,2.993,1.417,5.412,2.693,7.084,3.557.888.32,1.965.712,3.227,1.1s2.7.8,4.289,1.182a76.7,76.7,0,0,0,10.968,1.831c1.485.131,2.938.217,4.341.237s2.754-.024,4.038-.117,2.494-.268,3.62-.474c.281-.056.553-.119.824-.175l.4-.086.389-.1.755-.2c.244-.073.48-.153.713-.226a18.9,18.9,0,0,0,4.214-1.92c.48-.277.82-.541,1.061-.708Z" transform="translate(-968.562 -939.207)" fill="url(#linear-gradient)"/>
            </g>
            <g id="组_146" data-name="组 146" transform="translate(1.943 3.743)">
              <path id="路径_15901" data-name="路径 15901" d="M1047.1,946.982l-.4.184c-.267.117-.656.3-1.169.515a26,26,0,0,1-4.527,1.342,27.182,27.182,0,0,1-7.042.4,34.839,34.839,0,0,1-4.137-.577,43.263,43.263,0,0,1-4.322-1.126c-1.979-.625-3.844-1.352-5.583-2.09s-3.352-1.49-4.831-2.193c-2.954-1.413-5.38-2.617-7.066-3.413-.888-.284-1.981-.619-3.241-.992s-2.688-.74-4.283-1.15-3.289-.88-5.093-1.325-3.708-.868-5.683-1.161a24.741,24.741,0,0,0-8.151-.04l-.457.089-.446.106c-.3.064-.582.159-.868.236s-.564.184-.822.278a6.666,6.666,0,0,0-.738.334,21.316,21.316,0,0,0-2.6,1.749,22.421,22.421,0,0,1-2.235,1.515,7.354,7.354,0,0,1-1.9.791,4.523,4.523,0,0,1-1.284.14c-.147,0-.258-.018-.332-.023l-.112-.012.113-.008c.075-.008.185-.007.328-.031a4.67,4.67,0,0,0,1.205-.323,7.471,7.471,0,0,0,1.685-.991,26.27,26.27,0,0,0,1.983-1.723,19.337,19.337,0,0,1,2.559-2.1,7.644,7.644,0,0,1,.837-.467c.295-.137.58-.255.881-.378.3-.108.607-.233.926-.325l.478-.148.49-.128c.328-.091.667-.151,1.008-.224.342-.056.689-.124,1.042-.162a19.793,19.793,0,0,1,2.161-.162,26.736,26.736,0,0,1,4.506.3,43.584,43.584,0,0,1,5.845,1.33c1.818.535,3.5,1.115,5.047,1.656.771.269,1.508.527,2.214.791l.521.193.5.2.956.385c1.225.515,2.272.989,3.116,1.393,1.784.561,4.356,1.471,7.409,2.642s6.6,2.58,10.437,3.8c1.413.448,2.8.831,4.155,1.158s2.67.555,3.933.741a30.081,30.081,0,0,0,11.338-.553Z" transform="translate(-969.769 -933.382)" fill="url(#linear-gradient)"/>
            </g>
            <g id="组_147" data-name="组 147" transform="translate(3.953)">
              <path id="路径_15902" data-name="路径 15902" d="M1048.711,943.786l-.365.257c-.119.086-.269.189-.452.3s-.391.25-.637.384a12.711,12.711,0,0,1-4.524,1.547,14.581,14.581,0,0,1-3.35.06,22.468,22.468,0,0,1-3.759-.706c-1.292-.351-2.617-.8-3.964-1.286l-2.042-.755-2.088-.838q-1.435-.583-2.813-1.162c-.915-.39-1.819-.753-2.671-1.164-1.714-.8-3.328-1.572-4.808-2.3-.742-.359-1.446-.714-2.111-1.056l-1.885-.974c-1.179-.615-2.2-1.156-3.024-1.6-1.761-.651-4.321-1.607-7.373-2.82a42.344,42.344,0,0,0-4.963-1.587,28.1,28.1,0,0,0-5.672-.839A19.784,19.784,0,0,0,988,929.5l-.253.036c-.083.015-.165.036-.247.053L987,929.7l-.489.1c-.16.041-.317.092-.474.137-.313.1-.63.173-.932.283l-.892.334-.221.083-.212.1-.42.195c-.272.13-.573.251-.8.383a10.283,10.283,0,0,0-1.377.985c-.872.725-1.665,1.477-2.425,2.13a16.814,16.814,0,0,1-2.181,1.644,8.312,8.312,0,0,1-1.009.517,5.074,5.074,0,0,1-.915.279,3.219,3.219,0,0,1-1.3.013,2.3,2.3,0,0,1-.325-.081l-.109-.032.113.013a2.444,2.444,0,0,0,.329.027,3.184,3.184,0,0,0,1.225-.2,4.957,4.957,0,0,0,.807-.378,8.289,8.289,0,0,0,.874-.607,18.186,18.186,0,0,0,1.894-1.817c.673-.717,1.381-1.538,2.233-2.383a10.782,10.782,0,0,1,1.468-1.235c.3-.2.576-.335.87-.5l.44-.24.223-.121.233-.1.948-.42c.323-.137.663-.238,1-.361.17-.057.339-.12.513-.173l.528-.138.534-.138c.089-.022.179-.048.27-.068l.274-.049a18.712,18.712,0,0,1,4.579-.346,24.676,24.676,0,0,1,6.022,1.026,34.12,34.12,0,0,1,5.047,1.964c2.957,1.459,5.387,2.714,7.043,3.6.88.328,1.958.737,3.2,1.217l4.167,1.64c1.53.6,3.182,1.265,4.922,1.985.866.372,1.774.7,2.69,1.066s1.854.735,2.8,1.12l2.063.849,2.02.806c1.318.529,2.582,1.022,3.8,1.435a24.742,24.742,0,0,0,3.494.931,15.015,15.015,0,0,0,3.119.249,13.423,13.423,0,0,0,4.482-.931c.258-.1.483-.195.677-.281s.36-.159.49-.224Z" transform="translate(-972.921 -927.514)" fill="url(#linear-gradient)"/>
            </g>
            <g id="组_148" data-name="组 148" transform="translate(70.461 8.08)">
              <path id="路径_15903" data-name="路径 15903" d="M1083.032,949.793s.184-.059.5-.148c.158-.045.344-.127.554-.2a5.108,5.108,0,0,0,.656-.344,2.832,2.832,0,0,0,1.122-1.238,3.156,3.156,0,0,0,.162-.426c.017-.078.035-.155.055-.232a2.444,2.444,0,0,0,.04-.242,4.423,4.423,0,0,0,.018-1.048,6.788,6.788,0,0,0-.875-2.715,6.4,6.4,0,0,0-.7-.99,6.022,6.022,0,0,0-.691-.676,5.507,5.507,0,0,0-2.147-.05,10.106,10.106,0,0,0-1.385.329,4.638,4.638,0,0,0-.638.267c-.1.047-.18.114-.275.163-.038.031-.075.063-.114.093l-.059.044-.046.05a1.256,1.256,0,0,0-.362.625,1.82,1.82,0,0,0,.031.816,2.548,2.548,0,0,0,.849,1.362,1.136,1.136,0,0,0,.559.246l.07.012.067,0c.044,0,.089,0,.133-.005a2.142,2.142,0,0,0,.237-.062l.191-.085.133-.087.115-.074-.059.123c-.02.04-.045.092-.078.152s-.088.117-.146.189a1.827,1.827,0,0,1-.234.21c-.049.031-.1.06-.163.091l-.091.046-.1.032a1.666,1.666,0,0,1-.98,0,3.093,3.093,0,0,1-1.854-1.61,2.955,2.955,0,0,1-.318-1.562,2.626,2.626,0,0,1,.244-.889l.109-.213.135-.2a2.238,2.238,0,0,1,.308-.356l.114-.112.12-.093c.081-.061.163-.122.244-.179a4.6,4.6,0,0,1,.5-.261,4.533,4.533,0,0,1,.982-.285l.465-.062.442-.017a3.661,3.661,0,0,1,.421.009l.4.026c.135.017.27.04.4.061l.19.032.182.05.344.1c.108.041.212.087.311.13a4.093,4.093,0,0,1,.935.564,4.53,4.53,0,0,1,1.019.388,5.077,5.077,0,0,1,1.173.867,5.449,5.449,0,0,1,1.606,3.347,4.443,4.443,0,0,1-.121,1.546,3.414,3.414,0,0,1-.112.365l-.145.349a3.673,3.673,0,0,1-.388.626,3.473,3.473,0,0,1-.474.511c-.083.075-.177.136-.263.2a1.859,1.859,0,0,1-.266.171,3.042,3.042,0,0,1-.535.242l-.257.085c-.083.025-.169.036-.25.052a4.1,4.1,0,0,1-.865.074,6.206,6.206,0,0,1-.631-.068C1083.21,949.842,1083.032,949.793,1083.032,949.793Z" transform="translate(-1077.201 -940.183)" fill="url(#linear-gradient)"/>
            </g>
            <g id="组_149" data-name="组 149" transform="translate(0 2.928)">
              <path id="路径_15904" data-name="路径 15904" d="M975.107,944.332l-.221.092a4.274,4.274,0,0,1-.665.2,2.568,2.568,0,0,1-.519.061,1.576,1.576,0,0,1-.666-.124,1.147,1.147,0,0,1-.607-.642,1.83,1.83,0,0,1-.08-.941,3.987,3.987,0,0,1,1.685-2.533,2.773,2.773,0,0,1,1.242-.461,2.319,2.319,0,0,1,.763.047,2.438,2.438,0,0,1,.721.3,2.832,2.832,0,0,1,.58.475,3.635,3.635,0,0,1,.436.557,4.946,4.946,0,0,1,.329.592,4.774,4.774,0,0,1,.249.623c.036.109.073.218.107.33s.05.232.076.349l.035.176.018.184c.01.123.026.245.027.37a3.813,3.813,0,0,1-.488,1.957,4.319,4.319,0,0,1-1.254,1.379,6.2,6.2,0,0,1-2.936,1.081,7.112,7.112,0,0,1-2.533-.165,5.362,5.362,0,0,1-1.745-.774,4.051,4.051,0,0,1-.787-.4l-.21-.141c-.07-.052-.135-.111-.2-.169a5.149,5.149,0,0,1-.4-.376,5.766,5.766,0,0,1-.748-.963,4.054,4.054,0,0,1-.526-1.341,3.71,3.71,0,0,1,.061-1.635,5.068,5.068,0,0,1,.714-1.534,10.555,10.555,0,0,1,2.364-2.395,33.507,33.507,0,0,1,3.861-2.46c1.2-.682,2.286-1.274,3.157-1.824a12.163,12.163,0,0,0,1.952-1.456,5.78,5.78,0,0,0,.461-.488l.149-.185-.085.223a4.814,4.814,0,0,1-.314.617,9.528,9.528,0,0,1-1.631,1.967,28.307,28.307,0,0,1-2.9,2.367c-1.121.825-2.38,1.672-3.6,2.606a12.484,12.484,0,0,0-2.125,1.96,3.139,3.139,0,0,0-.812,2.08,4.071,4.071,0,0,0,.68,1.943c.092.138.177.281.268.392.045.058.086.119.133.174l.145.156a4,4,0,0,0,.59.508,5.506,5.506,0,0,0,1.679.317,7.3,7.3,0,0,0,2.177-.249,7.035,7.035,0,0,0,1.146-.422,4.938,4.938,0,0,0,1.042-.674,3.037,3.037,0,0,0,.743-.923,2.352,2.352,0,0,0,.251-1.123c0-.075-.013-.151-.017-.227l-.008-.113-.023-.114-.043-.23-.068-.23a3.7,3.7,0,0,0-.163-.46,3.554,3.554,0,0,0-.2-.418,1.9,1.9,0,0,0-.473-.591.872.872,0,0,0-.532-.2,2.089,2.089,0,0,0-1.318.583,3.076,3.076,0,0,0-.858,1.16,1.175,1.175,0,0,0-.088.536.54.54,0,0,0,.207.372,1.144,1.144,0,0,0,.438.2,2.483,2.483,0,0,0,.456.068,5.128,5.128,0,0,0,.669-.006Z" transform="translate(-966.723 -932.104)" fill="url(#linear-gradient)"/>
            </g>
          </g>
          <g id="组_156" data-name="组 156" transform="translate(0 0)">
            <g id="组_151" data-name="组 151" transform="translate(1.396 7.458)">
              <path id="路径_15905" data-name="路径 15905" d="M839.074,948.022l.318.314a11.25,11.25,0,0,0,.952.87,16.989,16.989,0,0,0,4.061,2.506c.232.1.469.211.715.312l.762.286.395.145.408.129c.276.085.555.177.842.259a30.592,30.592,0,0,0,3.732.774,37.52,37.52,0,0,0,4.192.321,42.4,42.4,0,0,0,4.5-.17,50.927,50.927,0,0,0,11.16-2.335c1.583-.52,3-1.073,4.235-1.612s2.269-1.07,3.1-1.5c1.774-.63,4.336-1.612,7.408-2.777,1.54-.571,3.2-1.2,4.979-1.794s3.654-1.178,5.616-1.682a49.541,49.541,0,0,1,8.257-1.392,20.32,20.32,0,0,1,6.718.653c.956.23,1.818.474,2.577.691s1.414.407,1.954.552.961.249,1.249.311l.438.091-.417-.162c-.272-.107-.671-.272-1.18-.494l-1.86-.812c-.728-.314-1.564-.663-2.511-1a24.245,24.245,0,0,0-3.186-.923c-.295-.061-.594-.126-.9-.168s-.623-.1-.947-.122l-.489-.046c-.164-.011-.331-.013-.5-.02l-.507-.015-.5.013a37.731,37.731,0,0,0-8.616,1.173,51.671,51.671,0,0,0-5.735,1.857c-1.785.687-3.426,1.429-4.927,2.127-2.992,1.417-5.413,2.693-7.085,3.557-.887.32-1.965.712-3.227,1.1s-2.7.8-4.288,1.182a76.688,76.688,0,0,1-10.969,1.831c-1.485.131-2.938.217-4.341.237s-2.754-.024-4.038-.117-2.493-.268-3.619-.474c-.28-.056-.554-.119-.824-.175l-.4-.086-.388-.1-.756-.2c-.244-.073-.48-.153-.712-.226a18.869,18.869,0,0,1-4.214-1.92c-.48-.277-.821-.541-1.062-.708Z" transform="translate(-839.074 -939.207)" fill="url(#linear-gradient)"/>
            </g>
            <g id="组_152" data-name="组 152" transform="translate(1.866 3.743)">
              <path id="路径_15906" data-name="路径 15906" d="M839.811,946.982l.4.184c.266.117.655.3,1.168.515a25.99,25.99,0,0,0,4.527,1.342,27.185,27.185,0,0,0,7.042.4,34.839,34.839,0,0,0,4.137-.577,43.274,43.274,0,0,0,4.322-1.126c1.979-.625,3.844-1.352,5.582-2.09s3.353-1.49,4.831-2.193c2.954-1.413,5.38-2.617,7.067-3.413.887-.284,1.98-.619,3.241-.992s2.688-.74,4.283-1.15,3.289-.88,5.093-1.325,3.708-.868,5.683-1.161a24.737,24.737,0,0,1,8.15-.04l.457.089.446.106c.3.064.582.159.868.236s.564.184.822.278a6.655,6.655,0,0,1,.738.334,21.242,21.242,0,0,1,2.6,1.749,22.428,22.428,0,0,0,2.235,1.515,7.366,7.366,0,0,0,1.9.791,4.522,4.522,0,0,0,1.283.14c.147,0,.258-.018.332-.023l.112-.012-.113-.008c-.074-.008-.185-.007-.328-.031a4.66,4.66,0,0,1-1.2-.323,7.442,7.442,0,0,1-1.685-.991,26,26,0,0,1-1.983-1.723,19.393,19.393,0,0,0-2.559-2.1,7.644,7.644,0,0,0-.837-.467c-.295-.137-.58-.255-.881-.378-.3-.108-.607-.233-.925-.325l-.478-.148-.49-.128c-.328-.091-.667-.151-1.008-.224-.342-.056-.689-.124-1.042-.162a19.8,19.8,0,0,0-2.161-.162,26.74,26.74,0,0,0-4.507.3,43.553,43.553,0,0,0-5.845,1.33c-1.819.535-3.5,1.115-5.048,1.656-.77.269-1.508.527-2.214.791l-.52.193-.5.2-.955.385c-1.225.515-2.273.989-3.116,1.393-1.784.561-4.357,1.471-7.41,2.642s-6.6,2.58-10.437,3.8c-1.413.448-2.8.831-4.155,1.158s-2.67.555-3.933.741a30.082,30.082,0,0,1-11.338-.553Z" transform="translate(-839.811 -933.382)" fill="url(#linear-gradient)"/>
            </g>
            <g id="组_153" data-name="组 153" transform="translate(1.396)">
              <path id="路径_15907" data-name="路径 15907" d="M839.074,943.786l.365.257c.119.086.269.189.452.3s.392.25.638.384a12.7,12.7,0,0,0,4.523,1.547,14.582,14.582,0,0,0,3.35.06,22.447,22.447,0,0,0,3.759-.706c1.292-.351,2.617-.8,3.964-1.286l2.042-.755,2.088-.838q1.435-.583,2.813-1.162c.915-.39,1.82-.753,2.671-1.164,1.715-.8,3.328-1.572,4.808-2.3.742-.359,1.446-.714,2.111-1.056l1.886-.974c1.179-.615,2.2-1.156,3.024-1.6,1.762-.651,4.321-1.607,7.373-2.82a42.4,42.4,0,0,1,4.964-1.587,28.1,28.1,0,0,1,5.671-.839,19.782,19.782,0,0,1,4.212.245l.253.036c.084.015.166.036.248.053l.492.108.489.1c.16.041.317.092.474.137.313.1.63.173.932.283l.893.334.22.083.212.1.42.195c.272.13.573.251.8.383a10.277,10.277,0,0,1,1.378.985c.872.725,1.665,1.477,2.425,2.13a16.767,16.767,0,0,0,2.181,1.644,8.276,8.276,0,0,0,1.009.517,5.067,5.067,0,0,0,.914.279,3.219,3.219,0,0,0,1.3.013,2.276,2.276,0,0,0,.325-.081l.109-.032-.114.013a2.44,2.44,0,0,1-.329.027,3.181,3.181,0,0,1-1.225-.2,4.991,4.991,0,0,1-.808-.378,8.214,8.214,0,0,1-.874-.607,18.181,18.181,0,0,1-1.895-1.817c-.673-.717-1.381-1.538-2.233-2.383a10.767,10.767,0,0,0-1.467-1.235c-.3-.2-.577-.335-.87-.5l-.441-.24-.223-.121-.232-.1-.949-.42c-.322-.137-.663-.238-1-.361-.17-.057-.339-.12-.512-.173l-.528-.138-.535-.138c-.089-.022-.179-.048-.269-.068l-.274-.049a18.712,18.712,0,0,0-4.579-.346,24.674,24.674,0,0,0-6.022,1.026,34.139,34.139,0,0,0-5.047,1.964c-2.957,1.459-5.386,2.714-7.043,3.6-.879.328-1.957.737-3.2,1.217l-4.167,1.64c-1.529.6-3.182,1.265-4.922,1.985-.866.372-1.774.7-2.69,1.066s-1.853.735-2.8,1.12l-2.063.849-2.02.806c-1.317.529-2.581,1.022-3.8,1.435a24.748,24.748,0,0,1-3.494.931,15.016,15.016,0,0,1-3.119.249,13.419,13.419,0,0,1-4.482-.931c-.259-.1-.484-.195-.678-.281s-.36-.159-.491-.224Z" transform="translate(-839.074 -927.514)" fill="url(#linear-gradient)"/>
            </g>
            <g id="组_154" data-name="组 154" transform="translate(0 8.08)">
              <path id="路径_15908" data-name="路径 15908" d="M841.732,949.793s-.184-.059-.5-.148c-.158-.045-.343-.127-.554-.2a5.1,5.1,0,0,1-.656-.344,2.831,2.831,0,0,1-1.122-1.238,3.149,3.149,0,0,1-.162-.426c-.017-.078-.034-.155-.054-.232a2.391,2.391,0,0,1-.039-.242,4.387,4.387,0,0,1-.019-1.048,6.8,6.8,0,0,1,.876-2.715,6.376,6.376,0,0,1,.7-.99,6.118,6.118,0,0,1,.691-.676,5.508,5.508,0,0,1,2.147-.05,10.1,10.1,0,0,1,1.385.329,4.611,4.611,0,0,1,.638.267c.1.047.18.114.276.163.038.031.075.063.114.093l.059.044.047.05a1.263,1.263,0,0,1,.362.625,1.819,1.819,0,0,1-.031.816,2.548,2.548,0,0,1-.849,1.362,1.133,1.133,0,0,1-.559.246l-.069.012-.067,0c-.045,0-.09,0-.133-.005a2.081,2.081,0,0,1-.237-.062l-.192-.085-.133-.087-.114-.074.059.123c.02.04.045.092.078.152s.088.117.146.189a1.823,1.823,0,0,0,.234.21c.05.031.1.06.163.091l.091.046.1.032a1.664,1.664,0,0,0,.98,0,3.093,3.093,0,0,0,1.853-1.61,2.952,2.952,0,0,0,.318-1.562,2.63,2.63,0,0,0-.244-.889l-.108-.213-.135-.2a2.241,2.241,0,0,0-.309-.356l-.114-.112-.121-.093c-.081-.061-.162-.122-.244-.179a4.458,4.458,0,0,0-.5-.261,4.532,4.532,0,0,0-.982-.285l-.464-.062-.443-.017a3.643,3.643,0,0,0-.42.009l-.4.026c-.135.017-.27.04-.4.061l-.189.032-.182.05-.344.1c-.109.041-.212.087-.312.13a4.107,4.107,0,0,0-.935.564,4.526,4.526,0,0,0-1.018.388,5.09,5.09,0,0,0-1.174.867,5.453,5.453,0,0,0-1.606,3.347,4.441,4.441,0,0,0,.121,1.546,3.4,3.4,0,0,0,.112.365c.049.117.1.234.145.349a3.688,3.688,0,0,0,.388.626,3.464,3.464,0,0,0,.475.511c.083.075.177.136.263.2a1.849,1.849,0,0,0,.267.171,3,3,0,0,0,.534.242l.257.085c.084.025.169.036.25.052a4.105,4.105,0,0,0,.865.074,6.228,6.228,0,0,0,.631-.068C841.554,949.842,841.732,949.793,841.732,949.793Z" transform="translate(-836.885 -940.183)" fill="url(#linear-gradient)"/>
            </g>
            <g id="组_155" data-name="组 155" transform="translate(68.355 2.928)">
              <path id="路径_15909" data-name="路径 15909" d="M948.461,944.332l.221.092a4.3,4.3,0,0,0,.665.2,2.567,2.567,0,0,0,.518.061,1.581,1.581,0,0,0,.667-.124,1.146,1.146,0,0,0,.607-.642,1.832,1.832,0,0,0,.08-.941,3.99,3.99,0,0,0-1.684-2.533,2.778,2.778,0,0,0-1.242-.461,2.315,2.315,0,0,0-.762.047,2.434,2.434,0,0,0-.722.3,2.835,2.835,0,0,0-.58.475,3.734,3.734,0,0,0-.436.557,4.949,4.949,0,0,0-.328.592,4.793,4.793,0,0,0-.249.623c-.036.109-.073.218-.107.33l-.075.349-.035.176-.019.184c-.01.123-.026.245-.027.37a3.811,3.811,0,0,0,.489,1.957,4.326,4.326,0,0,0,1.253,1.379,6.205,6.205,0,0,0,2.936,1.081,7.111,7.111,0,0,0,2.533-.165,5.372,5.372,0,0,0,1.746-.774,4.09,4.09,0,0,0,.787-.4l.209-.141c.069-.052.135-.111.2-.169a5.115,5.115,0,0,0,.4-.376,5.755,5.755,0,0,0,.747-.963,4.068,4.068,0,0,0,.527-1.341,3.718,3.718,0,0,0-.062-1.635,5.081,5.081,0,0,0-.713-1.534,10.573,10.573,0,0,0-2.365-2.395,33.5,33.5,0,0,0-3.861-2.46c-1.2-.682-2.286-1.274-3.156-1.824a12.134,12.134,0,0,1-1.953-1.456,5.883,5.883,0,0,1-.461-.488l-.149-.185.085.223a4.888,4.888,0,0,0,.314.617,9.526,9.526,0,0,0,1.631,1.967,28.379,28.379,0,0,0,2.9,2.367c1.121.825,2.38,1.672,3.6,2.606a12.455,12.455,0,0,1,2.125,1.96,3.138,3.138,0,0,1,.813,2.08,4.068,4.068,0,0,1-.68,1.943c-.091.138-.177.281-.268.392-.045.058-.086.119-.133.174l-.145.156a3.936,3.936,0,0,1-.59.508,5.5,5.5,0,0,1-1.679.317,7.3,7.3,0,0,1-2.177-.249,7.024,7.024,0,0,1-1.147-.422,4.934,4.934,0,0,1-1.042-.674,3.021,3.021,0,0,1-.743-.923,2.353,2.353,0,0,1-.252-1.123c0-.075.013-.151.017-.227l.008-.113.023-.114.043-.23.069-.23a3.591,3.591,0,0,1,.162-.46,3.663,3.663,0,0,1,.2-.418,1.9,1.9,0,0,1,.473-.591.874.874,0,0,1,.532-.2,2.088,2.088,0,0,1,1.318.583,3.075,3.075,0,0,1,.858,1.16,1.158,1.158,0,0,1,.088.536.537.537,0,0,1-.207.372,1.139,1.139,0,0,1-.438.2,2.474,2.474,0,0,1-.456.068,5.119,5.119,0,0,1-.668-.006Z" transform="translate(-944.062 -932.104)" fill="url(#linear-gradient)"/>
            </g>
          </g>
        </g>
        <g id="组_160" data-name="组 160" transform="translate(0 62.105)">
          <path id="路径_15945" data-name="路径 15945" d="M640.861,792.067h401.861a.667.667,0,0,0,0-1.331H640.861a.667.667,0,0,0,0,1.331Z" transform="translate(-640.238 -790.736)" fill="url(#radial-gradient)"/>
        </g>
        <g id="组_161" data-name="组 161" transform="translate(0.691 53.723)">
          <path id="路径_15946" data-name="路径 15946" d="M975.726,783.625h200.325a1.017,1.017,0,0,0,1.017-1.017v-.02a1.015,1.015,0,0,0-1.017-1.018c-14.536.036-180.257.345-200.116-3.952a1.014,1.014,0,0,0-1.227.995v4A1.017,1.017,0,0,0,975.726,783.625Z" transform="translate(-775.344 -777.593)" fill="url(#linear-gradient-11)"/>
          <circle id="椭圆_1" data-name="椭圆 1" cx="2.143" cy="2.143" r="2.143" transform="translate(198.871 1.744)" fill="url(#linear-gradient-11)"/>
          <path id="路径_15947" data-name="路径 15947" d="M842.665,783.625H642.339a1.017,1.017,0,0,1-1.017-1.017v-.02a1.015,1.015,0,0,1,1.017-1.018c14.536.036,180.256.345,200.115-3.952a1.015,1.015,0,0,1,1.228.995v4A1.017,1.017,0,0,1,842.665,783.625Z" transform="translate(-641.322 -777.593)" fill="url(#linear-gradient-11)"/>
        </g>
        <g id="组_162" data-name="组 162" transform="translate(0 118.501)">
          <path id="路径_15948" data-name="路径 15948" d="M640.861,858.539h401.861a.667.667,0,0,0,0-1.33H640.861a.667.667,0,0,0,0,1.33Z" transform="translate(-640.238 -857.209)" fill="url(#radial-gradient)"/>
        </g>
        <g id="组_163" data-name="组 163" transform="translate(0.691 122.182)">
          <path id="路径_15949" data-name="路径 15949" d="M975.726,862.981h200.325a1.017,1.017,0,0,1,1.017,1.017v.021a1.015,1.015,0,0,1-1.017,1.017c-14.536-.035-180.257-.344-200.116,3.953a1.014,1.014,0,0,1-1.227-.995v-4A1.017,1.017,0,0,1,975.726,862.981Z" transform="translate(-775.344 -862.981)" fill="url(#linear-gradient-11)"/>
          <path id="路径_15950" data-name="路径 15950" d="M967.832,865.125a2.144,2.144,0,1,0-2.144,2.144A2.144,2.144,0,0,0,967.832,865.125Z" transform="translate(-764.674 -862.981)" fill="url(#linear-gradient-11)"/>
          <path id="路径_15951" data-name="路径 15951" d="M842.665,862.981H642.339A1.017,1.017,0,0,0,641.322,864v.021a1.014,1.014,0,0,0,1.017,1.017c14.536-.035,180.256-.344,200.115,3.953a1.015,1.015,0,0,0,1.228-.995v-4A1.017,1.017,0,0,0,842.665,862.981Z" transform="translate(-641.322 -862.981)" fill="url(#linear-gradient-11)"/>
        </g>
        <g id="组_181" data-name="组 181" transform="translate(66.333)">
          <g id="组_171" data-name="组 171" transform="translate(180.943 26.922)">
            <g id="组_168" data-name="组 168" transform="translate(4.849 7.262)">
              <path id="路径_15960" data-name="路径 15960" d="M1097.451,757.717l-.53.168c-.175.056-.4.1-.656.169-.129.036-.272.055-.423.085s-.314.064-.486.086a24.69,24.69,0,0,1-5.9.064,55.626,55.626,0,0,1-8.607-1.57c-1.594-.411-3.252-.894-4.953-1.454q-1.276-.42-2.58-.9c-.872-.322-1.74-.674-2.616-1.028-1.749-.716-3.427-1.444-5.056-2.094s-3.207-1.224-4.735-1.7a35.9,35.9,0,0,0-8.327-1.631q-.9-.045-1.72-.016a15.2,15.2,0,0,0-1.526.142,9.841,9.841,0,0,0-2.367.647,7.593,7.593,0,0,0-1.372.758c-.148.1-.253.194-.328.249l-.112.086.1-.1c.066-.066.158-.171.291-.3a7.31,7.31,0,0,1,1.291-.956,9.714,9.714,0,0,1,2.377-.966,14.76,14.76,0,0,1,1.577-.32c.565-.078,1.164-.134,1.795-.161a31.743,31.743,0,0,1,8.745,1.045,49.658,49.658,0,0,1,4.959,1.552c1.686.618,3.389,1.325,5.122,2.034.868.351,1.721.7,2.563,1.03s1.682.64,2.508.938c1.653.6,3.261,1.141,4.8,1.629a73.606,73.606,0,0,0,8.3,2.16,27.847,27.847,0,0,0,5.746.572c.172,0,.332-.016.484-.022s.3-.011.425-.029c.262-.031.487-.046.665-.077Z" transform="translate(-1045.155 -746.956)" fill="url(#linear-gradient-11)"/>
            </g>
            <g id="组_169" data-name="组 169" transform="translate(61.387 7.152)">
              <path id="路径_15961" data-name="路径 15961" d="M1137.179,747.123a.726.726,0,0,1,.594-.326,1.922,1.922,0,0,1,.5.008,4.21,4.21,0,0,1,.615.156,5.178,5.178,0,0,1,.7.335,4.537,4.537,0,0,1,.735.56,4.34,4.34,0,0,1,1.212,1.924,4.554,4.554,0,0,1,.169,1.615,5.306,5.306,0,0,1-.569,1.957,8.062,8.062,0,0,1-2.824,3,10.552,10.552,0,0,1-1.635.868,9.56,9.56,0,0,1-1.446.475c-.852.2-1.406.178-1.429.094s.453-.338,1.119-.8c.33-.235.712-.512,1.1-.848a11.811,11.811,0,0,0,1.147-1.136,8.636,8.636,0,0,0,.965-1.326,5.343,5.343,0,0,0,.566-1.324,3.115,3.115,0,0,0,.1-1.046,3.6,3.6,0,0,0-.141-.662,4.892,4.892,0,0,0-.446-1.005c-.084-.173-.2-.333-.3-.5-.107-.162-.211-.322-.3-.482a3.869,3.869,0,0,1-.261-.45,2.987,2.987,0,0,1-.184-.409A.844.844,0,0,1,1137.179,747.123Z" transform="translate(-1133.802 -746.784)" fill="url(#linear-gradient-11)"/>
            </g>
            <g id="组_170" data-name="组 170" transform="translate(66.988 15.639)">
              <path id="路径_15962" data-name="路径 15962" d="M1149.365,761.767a1.37,1.37,0,0,1-.324.517,2.665,2.665,0,0,1-.48.38,3.021,3.021,0,0,1-1.171.423c-.222.025-.6.029-1.071.082a8.6,8.6,0,0,0-1.561.32c-.131.044-.266.083-.393.129l-.374.14c-.235.1-.464.194-.65.286s-.352.165-.476.213-.214.063-.252.035-.036-.109-.01-.242a2.325,2.325,0,0,1,.175-.53,5.024,5.024,0,0,1,.386-.716c.085-.124.178-.254.277-.387s.213-.257.327-.39a6.738,6.738,0,0,1,1.656-1.329,4.563,4.563,0,0,1,1.566-.58,2.556,2.556,0,0,1,1.926.457,1.3,1.3,0,0,1,.439.585A.913.913,0,0,1,1149.365,761.767Z" transform="translate(-1142.584 -760.092)" fill="url(#linear-gradient-11)"/>
            </g>
            <path id="路径_15963" data-name="路径 15963" d="M1123,748.08c-.007-.242-.046-.476-.069-.713s-.046-.471-.087-.7a12.445,12.445,0,0,0-2.04-5.08,13.023,13.023,0,0,0-3.718-3.448,16.379,16.379,0,0,0-4.226-1.815,21,21,0,0,0-4.072-.7,24.453,24.453,0,0,0-3.66.036l-.836.082-.8.116c-.263.033-.517.084-.766.133s-.495.091-.732.146l-.693.168-.334.083-.323.1-.621.183c-.2.059-.393.135-.582.2a20.606,20.606,0,0,0-3.337,1.493c-.185.095-.339.2-.474.279l-.338.209-.274.17.287-.147.353-.181c.141-.071.3-.16.493-.24a21.141,21.141,0,0,1,3.4-1.233c.189-.05.381-.11.583-.155l.621-.138.321-.072.333-.059.688-.12c.234-.038.477-.063.722-.1s.5-.066.754-.082l.784-.064.815-.029a24.323,24.323,0,0,1,3.524.172,20.446,20.446,0,0,1,3.823.869,15.377,15.377,0,0,1,3.811,1.86,11.709,11.709,0,0,1,3.149,3.18,10.91,10.91,0,0,1,1.586,4.444c.029.2.034.411.053.617s.042.415.039.62a9.873,9.873,0,0,1-.053,1.232,9.974,9.974,0,0,1-.2,1.225c-.054.2-.117.4-.173.6a4.835,4.835,0,0,1-.211.593,10.4,10.4,0,0,1-.534,1.156l-.335.553-.083.138-.1.133-.191.266a12.246,12.246,0,0,1-1.8,1.979,19.284,19.284,0,0,1-4.731,3.06,28.386,28.386,0,0,1-5.623,1.925,30.389,30.389,0,0,1-3,.541,27.764,27.764,0,0,1-3.066.216c-.256,0-.513,0-.766,0l-.76-.03-.751-.061-.777-.1c-1.036-.135-2.069-.243-3.085-.433l-1.521-.254c-.5-.094-1-.2-1.5-.306s-1-.2-1.489-.312l-1.468-.355c-3.9-.954-7.606-2.138-11.12-3.35s-6.839-2.452-9.971-3.575-6.068-2.136-8.773-2.99c-1.36-.408-2.648-.809-3.881-1.149s-2.41-.635-3.523-.859a21.776,21.776,0,0,0-5.794-.5,10.687,10.687,0,0,0-2.1.348c-.229.064-.437.135-.633.208l-.189.047c-.085.021-.169.042-.252.068l-.248.076c-.082.026-.162.057-.243.085-.162.055-.318.125-.474.189a7.925,7.925,0,0,0-1.69,1.012,7.515,7.515,0,0,0-.7.634,6.279,6.279,0,0,0-1.671,3.008,5.421,5.421,0,0,0-.123,1.515,5.85,5.85,0,0,0,.235,1.318,6.386,6.386,0,0,0,.464,1.133l.145.265a1.437,1.437,0,0,0,.078.131l.083.131c.053.089.116.17.177.252l.091.123.1.117a6.049,6.049,0,0,0,.849.837,7.528,7.528,0,0,0,.95.659,8.958,8.958,0,0,0,3.1,1.1c.175.031.351.048.526.068.087.01.175.013.262.02s.174.013.262.013l.26.006c.086,0,.173,0,.259-.006l.129,0,.128-.009.256-.019.253-.032.126-.016.125-.023.248-.045.245-.059c.081-.018.161-.041.24-.066s.159-.047.238-.073c.155-.059.311-.11.459-.18a5.373,5.373,0,0,0,.849-.466l.193-.14.1-.07.09-.077.179-.153.165-.166.082-.083c.026-.028.05-.059.076-.088l.148-.176c.046-.061.09-.124.133-.186l.066-.092c.021-.031.039-.065.058-.1l.114-.193.1-.2.048-.1.04-.1.078-.2.062-.2c.01-.034.021-.068.03-.1l.022-.1c.015-.068.03-.136.044-.2l.027-.2c0-.034.01-.067.013-.1l.006-.1c0-.067.007-.134.011-.2s0-.133,0-.2l0-.1c0-.033-.006-.065-.009-.1-.006-.064-.013-.129-.018-.192s-.021-.125-.032-.188a3.416,3.416,0,0,0-.083-.362,3.671,3.671,0,0,0-.607-1.226,3.4,3.4,0,0,0-.865-.809,3.194,3.194,0,0,0-.9-.408c-.036-.01-.07-.022-.1-.031l-.1-.022-.2-.04c-.129-.014-.249-.029-.36-.036h-.308l-.1.009a1.351,1.351,0,1,0,.595.352l.1.025.172.057.089.03.089.038a3.061,3.061,0,0,1,1.417,1.17,3.156,3.156,0,0,1,.441,1.054,2.883,2.883,0,0,1,.052.3c.005.052.014.1.018.156s0,.106.007.159c0,.027,0,.054,0,.08l0,.08,0,.163c-.006.054-.011.109-.018.164l-.008.082c0,.027-.01.055-.015.082l-.031.165-.043.165-.022.083c-.009.027-.019.054-.029.081-.018.054-.038.108-.057.163s-.046.106-.071.16l-.035.081-.042.078-.085.156-.1.151c-.016.025-.032.051-.049.076l-.056.072c-.038.048-.074.1-.113.145l-.125.138c-.021.023-.042.047-.063.069l-.07.064-.138.13-.151.12-.075.061-.081.055-.163.111a5.611,5.611,0,0,1-3.3.754c-.077,0-.154-.01-.231-.016s-.155-.012-.233-.022c-.154-.021-.31-.038-.466-.069a8.111,8.111,0,0,1-2.737-1.01,6.608,6.608,0,0,1-.817-.577,5.089,5.089,0,0,1-.707-.7l-.08-.1-.073-.1a2.409,2.409,0,0,1-.142-.2l-.066-.1a1.105,1.105,0,0,1-.064-.108l-.124-.226a5.4,5.4,0,0,1-.388-.952,4.909,4.909,0,0,1-.2-1.08,4.447,4.447,0,0,1,.094-1.235,4.953,4.953,0,0,1,.483-1.3c.054-.11.123-.212.186-.32s.141-.208.213-.314a6.17,6.17,0,0,1,.505-.6,6.679,6.679,0,0,1,.6-.554,7.039,7.039,0,0,1,1.467-.9c.136-.057.271-.121.414-.17.071-.026.141-.054.212-.078l.218-.07c.072-.025.146-.043.22-.062s.147-.04.224-.059l.473-.1c.08-.017.159-.036.238-.05l.241-.041.242-.041c.081-.014.162-.028.244-.036l.492-.058c.164-.017.33-.022.5-.034s.334-.013.5-.015h.253c.084,0,.168.007.253.01l.255.013c.085,0,.17.008.255.019l.512.056c.408.045.819.057,1.226.113.363.05.723.11,1.089.135q.96.065,1.914.192l1.456.193s-.01,0-.014-.006c.444.141.9.288,1.358.445,1.2.4,2.46.874,3.784,1.346,2.638.985,5.5,2.124,8.579,3.376s6.359,2.608,9.87,3.937a111.345,111.345,0,0,0,11.242,3.664l1.5.387c.505.124,1.018.227,1.53.342s1.026.23,1.545.332l1.571.278c1.048.2,2.119.325,3.194.468l.809.1.848.071.848.035c.283.008.565,0,.849,0a30.553,30.553,0,0,0,12.639-3,20.994,20.994,0,0,0,5.2-3.521,14.149,14.149,0,0,0,2.032-2.357l.217-.321.108-.161.1-.168.381-.673a12.308,12.308,0,0,0,.606-1.413,6.243,6.243,0,0,0,.234-.726c.063-.246.131-.49.187-.735a12.147,12.147,0,0,0,.209-2.956Z" transform="translate(-1037.552 -735.57)" fill="url(#linear-gradient-11)"/>
          </g>
          <path id="路径_15964" data-name="路径 15964" d="M965.076,760.173l-1.936,4.1.012.016c.79,1.061,1.964,6.46,1.964,6.46a.029.029,0,0,0,.057.006c.226-1.132,1.14-5.544,1.828-6.466l.012-.016Z" transform="translate(-829.655 -717.56)" fill="url(#linear-gradient-11)"/>
          <g id="组_176" data-name="组 176" transform="translate(58.039)">
            <g id="组_174" data-name="组 174" transform="translate(61.86)">
              <g id="组_172" data-name="组 172" transform="translate(19.393 8.7)">
                <path id="路径_15965" data-name="路径 15965" d="M983.078,711.67a1.112,1.112,0,0,0,.621-.774,2.353,2.353,0,0,0-.2-1.536,3.947,3.947,0,0,0-1.634-1.719,4.969,4.969,0,0,0-2.825-.628,5.784,5.784,0,0,0-1.812.436,7.123,7.123,0,0,0-1.989,1.226,8.273,8.273,0,0,0-1.622,1.908,9.239,9.239,0,0,0-.993,2.223,10.228,10.228,0,0,0-.363,2.142c-.013.331-.015.646-.006.937s.038.564.072.81.079.468.119.661a4.267,4.267,0,0,0,.145.493c.1.269.183.415.256.415s.154-.146.26-.4c.11-.284.247-.634.4-1.033.084-.21.188-.434.286-.671s.23-.476.356-.723a10.8,10.8,0,0,1,.938-1.448,7.576,7.576,0,0,1,1.2-1.2,5.678,5.678,0,0,1,1.268-.764,4.222,4.222,0,0,1,1.084-.315,1.72,1.72,0,0,1,.215-.027,1.286,1.286,0,0,1,.189-.018,1.439,1.439,0,0,0,.164-.015,1.064,1.064,0,0,0,.136,0c.336-.023.606-.043.876-.054a5.052,5.052,0,0,1,.888.022A4.065,4.065,0,0,0,983.078,711.67Z" transform="translate(-972.245 -706.999)" fill="url(#linear-gradient-11)"/>
              </g>
              <path id="路径_15966" data-name="路径 15966" d="M968.233,701.349a37.494,37.494,0,0,0-2.341,10.574c0,.048-.031.083-.065.083L964.07,714a.585.585,0,0,1-.876,0l-1.756-1.989c-.033,0-.061-.035-.065-.083a37.621,37.621,0,0,0-2.341-10.574c-.015-.035,3.619-6.53,4.437-7.887a.181.181,0,0,1,.326,0C964.613,694.819,968.248,701.315,968.233,701.349Z" transform="translate(-948.066 -693.359)" fill="url(#linear-gradient-11)"/>
              <g id="组_173" data-name="组 173" transform="translate(0 8.7)">
                <path id="路径_15967" data-name="路径 15967" d="M942.512,711.67a1.113,1.113,0,0,1-.621-.774,2.349,2.349,0,0,1,.2-1.536,3.945,3.945,0,0,1,1.633-1.719,4.972,4.972,0,0,1,2.825-.628,5.786,5.786,0,0,1,1.812.436,7.135,7.135,0,0,1,1.989,1.226,8.276,8.276,0,0,1,1.622,1.908,9.239,9.239,0,0,1,.993,2.223,10.221,10.221,0,0,1,.363,2.142c.013.331.015.646.006.937s-.037.564-.072.81-.079.468-.12.661a4.315,4.315,0,0,1-.145.493c-.1.269-.183.415-.256.415s-.154-.146-.26-.4l-.4-1.033c-.084-.21-.189-.434-.286-.671s-.23-.476-.357-.723a10.709,10.709,0,0,0-.937-1.448,7.593,7.593,0,0,0-1.2-1.2,5.684,5.684,0,0,0-1.268-.764,4.232,4.232,0,0,0-1.084-.315,1.743,1.743,0,0,0-.215-.027,1.294,1.294,0,0,0-.189-.018,1.425,1.425,0,0,1-.164-.015,1.076,1.076,0,0,1-.137,0c-.335-.023-.606-.043-.876-.054a5.048,5.048,0,0,0-.888.022A4.067,4.067,0,0,1,942.512,711.67Z" transform="translate(-941.838 -706.999)" fill="url(#linear-gradient-11)"/>
              </g>
            </g>
            <path id="路径_15968" data-name="路径 15968" d="M964.97,726.852l-2.244,2.129h0c.4.543,2.244,3.667,2.244,3.667h0s1.753-3.124,2.157-3.667h0Z" transform="translate(-887.544 -705.491)" fill="url(#linear-gradient-11)"/>
            <path id="路径_15969" data-name="路径 15969" d="M912.826,717.315l.454.122,1.678.479,1.274.351.928.222.008-.02-.894-.339-.722-.289-.131-.1-.151-.118c.06.015.122.026.182.041a6.111,6.111,0,0,1,1.746.732c.006-.016.013-.03.019-.046a1.412,1.412,0,0,1,.126-.266,6.476,6.476,0,0,0-1.79-.806,10.719,10.719,0,0,0-1.156-.26,18.211,18.211,0,0,0-2.261-1.228l-.445-.2-.471-.194c-.32-.137-.66-.254-1.011-.386a23.731,23.731,0,0,0-2.29-.677,19.542,19.542,0,0,0-2.612-.444c-.459-.044-.934-.067-1.412-.065l-.717.017c-.241.008-.482.031-.725.047a29.344,29.344,0,0,0-7.019,1.542,47.229,47.229,0,0,0-4.654,1.895c-.562.2-1.258.422-2.04.739s-1.67.678-2.638,1.082c-.948.445-1.973.939-3.055,1.469-1.058.573-2.181,1.168-3.314,1.829-.829.494-1.635.982-2.41,1.458a25.606,25.606,0,0,0-2.163,1.543l-1.862,1.472c-.582.457-1.132.866-1.643,1.228a14.1,14.1,0,0,1-2.566,1.457c-.162.064-.306.126-.432.173l-.325.1-.268.087.277-.048.339-.06c.133-.03.283-.073.455-.118a12.528,12.528,0,0,0,2.757-1.2c.551-.319,1.145-.688,1.763-1.107s1.268-.878,1.949-1.354,1.393-.967,2.159-1.415q1.176-.678,2.416-1.416l3.255-1.876c1.05-.564,2.039-1.108,2.95-1.613.929-.463,1.778-.895,2.526-1.28s1.413-.686,1.949-.944c1.125-.378,2.767-.913,4.762-1.454a39.508,39.508,0,0,1,6.9-1.27c.234-.015.466-.037.7-.047l.687-.024c.453-.008.895,0,1.334.033a22.987,22.987,0,0,1,2.526.325c.8.145,1.559.332,2.264.517.35.1.692.191,1.013.3l.476.151.451.158c.674.237,1.262.478,1.76.7-.237-.028-.476-.052-.72-.07a18.052,18.052,0,0,0-4.057-1c-.217-.037-.436-.042-.658-.062s-.447-.036-.675-.046c-.455-.005-.92-.034-1.393-.01a22.587,22.587,0,0,0-2.914.26,36.265,36.265,0,0,0-7.133,1.974c-1.011.377-1.924.749-2.728,1.078-.4.168-.776.319-1.119.471l-.935.423-.972.322-1.135.438c-.819.3-1.719.71-2.708,1.147-1.963.9-4.207,2.072-6.569,3.363-1.737.955-3.387,1.859-4.9,2.609a34.811,34.811,0,0,1-4.195,1.641c-.617.182-1.166.382-1.665.487a6.094,6.094,0,0,0-1.277.4,1.918,1.918,0,0,0-.29.171l-.42.036-.962.062-.478.029-.477.017c-.318.01-.635.029-.95.029a27.919,27.919,0,0,1-3.711-.172l-.451-.059c-.15-.021-.3-.035-.448-.066l-.883-.163-.865-.21c-.145-.031-.285-.075-.425-.12l-.421-.13c-.14-.045-.281-.081-.418-.133l-.41-.154c-.272-.1-.545-.2-.807-.321s-.53-.227-.788-.353l-.765-.388c-.128-.062-.252-.134-.375-.205l-.37-.212-.367-.21c-.122-.07-.239-.15-.359-.224l-.709-.45c-.114-.076-.221-.154-.33-.23s-.219-.152-.322-.235l-.312-.244c-.1-.082-.2-.172-.3-.256-.2-.167-.385-.353-.575-.53a12.045,12.045,0,0,1-1.017-1.145,12.367,12.367,0,0,1-.846-1.224,11.749,11.749,0,0,1-.655-1.28,11.235,11.235,0,0,1-.475-1.3c-.054-.219-.119-.434-.163-.65s-.093-.429-.117-.643a8.987,8.987,0,0,1-.035-2.448,8.065,8.065,0,0,1,.562-2.115,8.727,8.727,0,0,1,.944-1.684,9.467,9.467,0,0,1,1.182-1.357l.332-.3a1.882,1.882,0,0,1,.168-.142l.168-.135c.108-.094.23-.172.348-.255l.177-.123.185-.112a8.657,8.657,0,0,1,1.557-.754,11.168,11.168,0,0,1,1.662-.477,13.676,13.676,0,0,1,5.034-.058c.27.042.534.105.8.162.132.029.261.068.39.1s.259.067.385.11A9.665,9.665,0,0,1,865.5,713l.2.282.1.14.087.146.175.289.15.3.075.148c.023.05.041.1.063.152l.124.3c.034.1.065.207.1.309l.05.154c.014.052.024.1.036.156l.073.31c.016.1.031.209.047.312l.024.155.011.155.022.309,0,.306c0,.051,0,.1,0,.152l-.012.151-.026.3c-.015.1-.031.2-.047.294-.008.048-.014.1-.023.145l-.034.142c-.022.1-.044.189-.066.284s-.058.183-.087.274l-.042.137c-.017.044-.035.087-.052.131l-.1.261c-.037.085-.08.167-.119.249a5.249,5.249,0,0,1-.26.475,5.553,5.553,0,0,1-1.327,1.5,5.211,5.211,0,0,1-1.528.831,5.028,5.028,0,0,1-1.453.276c-.057,0-.112.009-.167.011l-.162,0-.312-.006-.173-.017a2.4,2.4,0,0,0,1.3-2.4,2.348,2.348,0,0,0-2.564-2.129,2.4,2.4,0,0,0,.091,4.764l.161.076.5.18c.184.056.388.1.605.154l.342.05.181.025c.061.006.124.008.187.011a5.36,5.36,0,0,0,1.693-.149,5.83,5.83,0,0,0,1.873-.835,6.4,6.4,0,0,0,1.7-1.683,6.313,6.313,0,0,0,.345-.554c.053-.1.11-.193.16-.293l.142-.309c.023-.052.048-.1.07-.156l.061-.162.121-.328.1-.341.049-.172c.014-.058.025-.117.037-.176l.073-.357c.018-.121.032-.244.048-.366l.023-.186c.005-.062.007-.124.011-.187q.009-.188.018-.379c0-.127-.007-.254-.011-.383l-.006-.193-.02-.193c-.015-.129-.029-.259-.044-.389s-.049-.259-.074-.389c-.013-.065-.024-.131-.039-.2l-.053-.193c-.036-.129-.07-.26-.109-.388l-.139-.382c-.024-.063-.046-.128-.072-.191l-.085-.186c-.057-.124-.115-.249-.174-.374l-.2-.362-.1-.182-.113-.173-.232-.349a9.425,9.425,0,0,0-1.11-1.279c-.2-.207-.424-.383-.642-.573-.112-.091-.229-.175-.344-.264s-.231-.175-.353-.254l-.363-.242-.378-.224-.189-.112-.2-.1-.393-.2-.4-.184-.2-.091-.208-.082c-.138-.054-.277-.111-.418-.163l-.426-.145c-.142-.051-.287-.091-.432-.133s-.29-.087-.438-.122c-.3-.071-.591-.147-.893-.2a14.486,14.486,0,0,0-1.842-.24,14.78,14.78,0,0,0-3.827.23,12.8,12.8,0,0,0-1.926.536,10.312,10.312,0,0,0-1.866.891l-.226.136-.219.151c-.147.1-.295.2-.434.315l-.211.168c-.071.056-.141.113-.2.172l-.39.355a11.174,11.174,0,0,0-1.41,1.614A10.429,10.429,0,0,0,845.6,714.1a9.828,9.828,0,0,0-.679,2.6,11.354,11.354,0,0,0,.974,6.006,13.393,13.393,0,0,0,.774,1.475,14.078,14.078,0,0,0,2.161,2.691c.217.2.429.409.661.6.115.1.227.195.345.287l.359.274c.119.094.244.179.369.263s.251.174.377.256l.755.467c.128.077.252.159.383.233l.395.219.4.221c.132.074.265.149.4.214l.828.407c.279.131.57.246.857.37s.583.23.88.337l.447.159c.149.055.3.093.455.139l.459.135c.154.045.307.091.464.123l.941.214.955.162c.159.031.321.045.482.064l.483.056a29.113,29.113,0,0,0,3.909.123c.328-.006.654-.031.982-.045l.492-.025.491-.038.984-.079.983-.1c.328-.032.656-.069.984-.11l.985-.118,1-.148.5-.075c.166-.025.33-.062.5-.092l.991-.192c.33-.068.656-.151.985-.226.658-.143,1.3-.333,1.956-.508.325-.086.644-.194.967-.289s.646-.191.963-.3c.637-.216,1.276-.425,1.9-.661,1.263-.453,2.5-.959,3.729-1.467s2.433-1.048,3.623-1.59,2.369-1.082,3.534-1.617,2.313-1.053,3.456-1.57c2.279-1.037,4.47-2.071,6.608-2.95,1.068-.443,2.124-.837,3.162-1.192s2.065-.64,3.067-.884A21.662,21.662,0,0,1,912.826,717.315Zm2.228.258c.139.077.256.146.347.2l.045.026-.4-.159-.325-.131C914.835,717.527,914.945,717.55,915.054,717.573Zm-7.912-.274c-1.028.225-2.082.492-3.145.827s-2.142.712-3.231,1.135c-2.179.84-4.4,1.832-6.692,2.817-1.144.489-2.317.989-3.491,1.5s-2.361,1.031-3.558,1.544-2.406,1.017-3.626,1.51-2.454.957-3.7,1.378c-.621.222-1.25.415-1.878.615-.312.1-.63.186-.946.279s-.63.187-.948.266c-.636.158-1.269.332-1.909.46-.32.067-.637.143-.957.2L872.1,730c-.16.027-.32.059-.48.081l-.481.064-.961.128-.974.1c-.324.034-.647.067-.969.092l-.227.02.024-.01a6.259,6.259,0,0,1,1.274-.246c.518-.054,1.09-.2,1.729-.328a27.375,27.375,0,0,0,4.382-1.372c1.6-.693,3.287-1.553,5.024-2.508,2.367-1.294,4.547-2.548,6.435-3.572.95-.5,1.811-.973,2.593-1.344l1.083-.542.928-.421.966-.319c.353-.115.742-.23,1.156-.36.829-.255,1.764-.552,2.789-.859a52.238,52.238,0,0,1,7.06-1.7,27.627,27.627,0,0,1,2.812-.29c.455-.036.9-.023,1.342-.036.219,0,.436.012.651.017s.428,0,.635.029a16.876,16.876,0,0,1,1.778.212A24.744,24.744,0,0,0,907.142,717.3Z" transform="translate(-844.845 -698.458)" fill="url(#linear-gradient-11)"/>
            <path id="路径_15970" data-name="路径 15970" d="M914.616,712.485l-.607.195c-.179.059-.362.106-.542.16s-.361.108-.543.152c-.364.09-.727.191-1.094.264-.183.038-.365.082-.548.116l-.551.1c-.092.015-.183.034-.275.047l-.276.036-.551.073-.558.057c-.186.02-.371.038-.555.053l-.13.011.013-.005a2.97,2.97,0,0,1,.6-.123c-.207.022-.416.038-.629.047a1.157,1.157,0,0,0-.164.1l-.24.02-.551.036-.274.017-.274.01c-.182.005-.363.017-.544.017a16.012,16.012,0,0,1-2.126-.1l-.258-.034c-.086-.011-.172-.02-.256-.038l-.507-.093-.5-.121c-.083-.018-.164-.043-.244-.069l-.241-.074c-.08-.026-.161-.047-.239-.076l-.235-.088c-.156-.058-.313-.113-.463-.184s-.3-.13-.451-.2l-.439-.223c-.073-.036-.144-.077-.215-.118l-.212-.121-.21-.121c-.07-.04-.137-.086-.206-.129l-.406-.258c-.065-.043-.126-.089-.19-.132s-.125-.087-.184-.135l-.179-.14c-.059-.047-.115-.1-.172-.147-.116-.1-.221-.2-.329-.3a7.042,7.042,0,0,1-.583-.657,7.126,7.126,0,0,1-.485-.7,6.9,6.9,0,0,1-.376-.734,6.224,6.224,0,0,1-.272-.744c-.031-.125-.068-.248-.093-.372s-.054-.246-.068-.369a5.164,5.164,0,0,1-.02-1.4,4.639,4.639,0,0,1,.322-1.212,4.984,4.984,0,0,1,.542-.965,5.406,5.406,0,0,1,.677-.777l.19-.174a1.236,1.236,0,0,1,.1-.082l.1-.077a2.363,2.363,0,0,1,.2-.146l.1-.071.106-.064a4.945,4.945,0,0,1,.892-.432,6.486,6.486,0,0,1,.952-.274,7.671,7.671,0,0,1,1.942-.14,7.547,7.547,0,0,1,.943.107c.155.024.306.061.457.093.075.017.149.039.224.058s.148.038.221.063a5.533,5.533,0,0,1,2.824,1.844l.115.161.057.08.05.084.1.166.086.171.043.085c.013.029.024.059.036.088l.071.174c.02.059.038.119.057.177l.028.088c.008.029.014.059.021.089l.041.178.027.179.014.089.006.089.012.177v.176c0,.029,0,.058,0,.087l-.007.087c-.005.057-.009.115-.014.172l-.027.168c0,.028-.008.056-.013.084l-.02.081-.038.163-.049.157-.025.078c-.009.025-.02.05-.029.075l-.059.15c-.021.049-.046.1-.068.143a3.1,3.1,0,0,1-.149.272,3.178,3.178,0,0,1-.761.857,2.972,2.972,0,0,1-.876.476,2.906,2.906,0,0,1-.832.159l-.1.006-.093,0-.179,0-.1-.01a1.377,1.377,0,0,0,.747-1.376,1.345,1.345,0,0,0-1.47-1.219,1.373,1.373,0,0,0,.052,2.73l.093.044.287.1c.105.032.222.058.346.089l.2.029.1.015c.036,0,.072,0,.108.006a3.086,3.086,0,0,0,.97-.085,3.353,3.353,0,0,0,1.073-.479,3.668,3.668,0,0,0,.971-.964,3.479,3.479,0,0,0,.2-.317c.03-.055.063-.111.091-.168l.082-.177c.013-.03.027-.059.04-.089l.035-.093.069-.187.057-.2.028-.1c.008-.034.014-.068.022-.1.014-.068.028-.136.042-.2s.018-.139.027-.21l.013-.106c0-.036,0-.071.006-.107,0-.072.006-.144.01-.217l-.006-.22,0-.11-.012-.111-.025-.223-.043-.223c-.007-.038-.013-.075-.022-.112l-.03-.111c-.021-.073-.04-.148-.063-.222l-.079-.219c-.014-.037-.026-.074-.042-.11l-.048-.107-.1-.214-.115-.208-.059-.1-.065-.1-.133-.2a5.453,5.453,0,0,0-.636-.733c-.115-.118-.244-.219-.368-.328-.064-.052-.131-.1-.2-.151s-.133-.1-.2-.145l-.208-.139-.216-.128-.109-.064-.112-.058-.226-.117-.232-.105-.117-.052-.119-.047c-.08-.031-.159-.064-.24-.093l-.244-.084c-.081-.029-.164-.052-.247-.076s-.166-.05-.251-.07c-.17-.041-.339-.084-.512-.114a8.339,8.339,0,0,0-1.055-.137,8.44,8.44,0,0,0-2.193.131,7.357,7.357,0,0,0-1.1.307,5.908,5.908,0,0,0-1.069.511l-.129.078-.126.086c-.084.058-.169.114-.249.18l-.121.1a1.428,1.428,0,0,0-.117.1l-.223.2a6.362,6.362,0,0,0-.808.925,5.976,5.976,0,0,0-.656,1.178,5.645,5.645,0,0,0-.389,1.49,6.513,6.513,0,0,0,.558,3.442,7.765,7.765,0,0,0,.444.844,8.033,8.033,0,0,0,1.238,1.542c.124.115.246.234.38.342.066.054.13.112.2.164l.206.157c.068.054.14.1.211.15s.144.1.216.147l.433.267c.073.045.144.091.219.133l.227.126.227.126c.077.043.152.086.232.122l.475.233c.16.075.326.141.49.212s.334.132.5.193l.256.091c.086.031.174.053.261.08l.263.077c.088.027.175.052.266.071l.538.123.548.093c.091.017.184.026.276.036l.277.032a16.7,16.7,0,0,0,2.24.07c.188,0,.375-.018.563-.026l.282-.015.282-.022.564-.046.563-.057c.188-.018.376-.039.564-.062l.564-.068.57-.085.286-.043c.1-.015.19-.036.284-.053l.568-.11c.189-.038.376-.086.564-.129.378-.082.748-.191,1.121-.291.187-.05.37-.111.555-.166s.37-.109.552-.173c.365-.124.731-.243,1.091-.379.253-.091.5-.189.751-.286.015-.158.034-.316.052-.473C915.616,712.331,915.118,712.416,914.616,712.485Z" transform="translate(-863.053 -695.959)" fill="url(#linear-gradient-11)"/>
            <path id="路径_15971" data-name="路径 15971" d="M939.845,730.333c-1.813-2.607-5.375-4.463-8.706-4.959-3.4-.506-6.846.655-9.8,2.156-3.47,1.763-6.6,4.016-9.893,6.025-3.123,1.9-6.563,3.673-10.38,3.819-.428.016-.825.233-.833.529-.2.258-.029.678.318.922,2.623,1.848,6.384,1.844,9.493.971,3.211-.9,4.98-3.732,6.562-6.283a5.173,5.173,0,0,0,1.88,3.924c.58.434,2.45,1.214,1.149-.765-1.361-2.071.56-4.8,2.177-6.574,1.929-2.12,5.11-3.09,8-3.431a.851.851,0,0,0,.219-.057c.285.013.571.034.859.069a10.99,10.99,0,0,1,9.655,9.5c.558,3.651-.066,8.752-3.9,10.954a6.722,6.722,0,0,1-5.631.246,4.725,4.725,0,0,1-1.144-.92,3.766,3.766,0,0,1-.691-3.437,7.049,7.049,0,0,0,5.048-.4c2-.869,3.406-3.111,2.431-4.7a1.083,1.083,0,0,0-.159-.323.74.74,0,0,0-.415-.488c-4.26-2.091-8.511.511-9.6,4.532-1.219,4.489,2.812,7.495,7.456,7.495,4.39,0,6.911-3.684,7.8-7.134A14.563,14.563,0,0,0,939.845,730.333Zm-5.231,9.726c.017,0,.033-.008.05-.011l-.071.068Z" transform="translate(-864.876 -704.912)" fill="url(#linear-gradient-11)"/>
            <g id="组_175" data-name="组 175" transform="translate(77.311 4.578)">
              <path id="路径_15972" data-name="路径 15972" d="M983.7,717.9c1,.244,2.028.531,3.067.884s2.094.749,3.162,1.192c2.138.879,4.329,1.913,6.608,2.95,1.143.517,2.291,1.034,3.456,1.57s2.341,1.079,3.534,1.617,2.4,1.07,3.623,1.59,2.466,1.014,3.729,1.467c.627.237,1.267.446,1.9.661.317.112.642.2.962.3s.642.2.968.289c.651.175,1.3.364,1.956.508.328.075.655.158.985.226l.991.192c.165.031.33.067.5.092l.5.075,1,.148.985.118c.328.041.656.078.984.11l.983.1.984.079.49.038.492.025c.328.015.654.039.982.045a29.115,29.115,0,0,0,3.909-.123l.483-.056c.161-.019.322-.033.482-.064l.955-.162.94-.214c.158-.032.311-.078.464-.123l.459-.135c.152-.047.307-.084.456-.139l.447-.159c.3-.107.595-.208.88-.337s.576-.239.856-.37l.828-.407c.139-.065.271-.14.4-.214l.4-.221.395-.219c.131-.073.256-.156.383-.233l.756-.467c.126-.082.252-.171.377-.256s.25-.17.369-.263l.359-.274c.118-.092.23-.192.345-.287.232-.187.444-.4.661-.6a14.086,14.086,0,0,0,2.161-2.691,13.522,13.522,0,0,0,.774-1.475,11.366,11.366,0,0,0,.974-6.006,9.842,9.842,0,0,0-.679-2.6,10.448,10.448,0,0,0-1.146-2.056,11.17,11.17,0,0,0-1.41-1.614l-.39-.355c-.063-.059-.132-.116-.2-.172l-.211-.168c-.139-.115-.287-.214-.433-.315l-.219-.151-.226-.136a10.3,10.3,0,0,0-1.865-.891,12.8,12.8,0,0,0-1.926-.536,14.779,14.779,0,0,0-3.827-.23,14.508,14.508,0,0,0-1.843.24c-.3.052-.6.128-.893.2-.147.035-.292.082-.437.122s-.29.082-.432.133l-.426.145c-.141.052-.279.109-.418.163l-.208.082-.2.091-.4.184-.394.2-.2.1-.19.112-.377.224-.364.242c-.122.078-.238.166-.353.254s-.231.173-.344.264c-.218.19-.442.367-.642.573a9.529,9.529,0,0,0-1.11,1.279l-.231.349-.114.173-.1.182-.2.362-.173.374-.085.186c-.026.063-.048.128-.072.191l-.139.382c-.039.129-.073.26-.109.388l-.053.193c-.016.065-.026.131-.039.2q-.037.2-.074.389c-.015.13-.029.26-.044.389l-.021.193-.006.193-.01.383c.006.127.012.253.018.379,0,.063.006.125.011.187l.023.186c.016.122.03.245.048.366s.049.239.073.357c.013.059.024.118.038.176l.049.172.1.341.121.328.061.162c.022.053.047.1.07.156l.142.309c.05.1.106.2.159.293a6.168,6.168,0,0,0,.344.554,6.411,6.411,0,0,0,1.7,1.683,5.826,5.826,0,0,0,1.873.835,5.36,5.36,0,0,0,1.693.149c.063,0,.126-.005.188-.011l.18-.025.343-.05c.218-.053.421-.1.6-.154l.5-.18.161-.076a2.387,2.387,0,1,0-2.473-2.635,2.4,2.4,0,0,0,1.3,2.4l-.173.017-.312.006-.163,0c-.055,0-.11-.007-.167-.011a5.036,5.036,0,0,1-1.454-.276,5.215,5.215,0,0,1-1.527-.831,5.553,5.553,0,0,1-1.327-1.5,5.174,5.174,0,0,1-.26-.475c-.039-.083-.082-.165-.119-.249l-.1-.261c-.017-.044-.036-.087-.052-.131l-.042-.137c-.029-.091-.058-.182-.087-.274s-.045-.188-.066-.284l-.034-.142c-.009-.048-.015-.1-.023-.145l-.047-.294c-.008-.1-.016-.2-.025-.3l-.013-.151c0-.051,0-.1,0-.152,0-.1,0-.2,0-.306s.015-.205.022-.309l.011-.155.024-.155c.016-.1.031-.207.047-.312l.072-.31c.013-.052.023-.1.037-.156l.049-.154c.033-.1.064-.206.1-.309s.082-.2.124-.3c.02-.05.039-.1.062-.152l.075-.148.151-.3.175-.289.088-.146.1-.14.2-.282a9.664,9.664,0,0,1,4.928-3.219c.126-.043.255-.075.385-.11s.258-.072.39-.1c.264-.057.528-.121.8-.162a13.676,13.676,0,0,1,5.034.058,11.171,11.171,0,0,1,1.662.477,8.623,8.623,0,0,1,1.557.754l.186.112.177.123c.118.083.239.161.348.255l.168.135a1.81,1.81,0,0,1,.167.142l.332.3a9.425,9.425,0,0,1,1.182,1.357,8.7,8.7,0,0,1,.944,1.684,8.054,8.054,0,0,1,.563,2.115,8.978,8.978,0,0,1-.035,2.448c-.024.214-.076.427-.117.643s-.108.431-.162.65a11.236,11.236,0,0,1-.475,1.3,11.746,11.746,0,0,1-.656,1.28,12.275,12.275,0,0,1-.845,1.224,12.029,12.029,0,0,1-1.018,1.145c-.189.177-.372.364-.574.53-.1.085-.2.174-.3.256l-.313.244c-.1.084-.212.159-.321.235s-.216.154-.33.23l-.709.45c-.119.075-.237.154-.358.224l-.368.21-.37.212c-.124.071-.247.144-.375.205l-.765.388c-.258.126-.525.234-.788.353s-.535.22-.808.321l-.409.154c-.136.052-.278.088-.418.133l-.421.13c-.14.045-.281.089-.425.12l-.865.21-.883.163c-.147.031-.3.046-.448.066l-.451.059a27.92,27.92,0,0,1-3.711.172c-.315,0-.632-.02-.95-.029l-.477-.017-.479-.029-.961-.062-.42-.036a1.929,1.929,0,0,0-.289-.171,6.1,6.1,0,0,0-1.277-.4c-.5-.105-1.049-.3-1.665-.487a34.782,34.782,0,0,1-4.195-1.641c-1.516-.75-3.167-1.654-4.9-2.609-2.362-1.291-4.606-2.459-6.569-3.363-.989-.437-1.888-.845-2.707-1.147l-1.135-.438-.972-.322-.935-.423c-.343-.152-.719-.3-1.119-.471-.8-.33-1.717-.7-2.728-1.078a36.268,36.268,0,0,0-7.133-1.974,22.6,22.6,0,0,0-2.914-.26c-.473-.024-.938,0-1.393.01-.228.01-.453.031-.675.046s-.441.026-.658.063a18.046,18.046,0,0,0-4.057,1c-.244.018-.483.042-.72.07.5-.224,1.086-.464,1.76-.7l.451-.158.476-.151c.321-.108.663-.2,1.013-.3.706-.185,1.461-.372,2.265-.517a22.957,22.957,0,0,1,2.526-.325c.439-.029.881-.041,1.334-.033l.688.024c.231.01.463.033.7.047a39.494,39.494,0,0,1,6.9,1.27c2,.542,3.638,1.077,4.762,1.454.536.258,1.2.557,1.95.944s1.6.817,2.526,1.28c.911.5,1.9,1.049,2.951,1.613l3.255,1.876c.824.491,1.632.964,2.416,1.416.765.448,1.477.939,2.158,1.415s1.331.937,1.95,1.354,1.212.788,1.764,1.107a12.527,12.527,0,0,0,2.757,1.2c.172.045.322.088.455.118l.339.06.277.048-.269-.087-.325-.1c-.126-.047-.27-.108-.432-.173a14.091,14.091,0,0,1-2.566-1.457c-.511-.362-1.062-.771-1.643-1.228l-1.862-1.472a25.591,25.591,0,0,0-2.163-1.543c-.775-.476-1.581-.964-2.41-1.458-1.133-.661-2.256-1.255-3.314-1.829-1.082-.53-2.106-1.024-3.055-1.469-.968-.4-1.855-.767-2.639-1.082s-1.478-.544-2.04-.739a47.206,47.206,0,0,0-4.654-1.895,29.354,29.354,0,0,0-7.019-1.542c-.243-.016-.484-.038-.725-.047l-.718-.017c-.478,0-.953.021-1.412.065a19.552,19.552,0,0,0-2.613.444,23.765,23.765,0,0,0-2.29.677c-.351.131-.691.249-1.011.386l-.471.194-.445.2a18.207,18.207,0,0,0-2.261,1.228,10.673,10.673,0,0,0-1.156.26,6.467,6.467,0,0,0-1.79.806,1.412,1.412,0,0,1,.126.266c.006.016.013.03.019.046a6.1,6.1,0,0,1,1.746-.732c.059-.015.122-.026.182-.041l-.151.118-.131.1-.722.289-.894.339.009.02.928-.222,1.274-.351,1.678-.479.454-.122A21.66,21.66,0,0,1,983.7,717.9Zm-7.454-.4-.325.131-.4.159.045-.026c.091-.053.208-.122.347-.2C976.021,717.55,976.131,717.527,976.242,717.508Zm4.056-.672a16.868,16.868,0,0,1,1.778-.212c.207-.025.421-.02.635-.029s.432-.017.651-.017c.439.013.887,0,1.343.036a27.626,27.626,0,0,1,2.812.29,52.269,52.269,0,0,1,7.06,1.7c1.024.307,1.96.6,2.789.859.413.13.8.245,1.156.36l.966.319.928.421,1.084.542c.781.371,1.642.848,2.593,1.344,1.887,1.024,4.067,2.278,6.435,3.572,1.738.955,3.427,1.816,5.024,2.508a27.358,27.358,0,0,0,4.382,1.372c.638.128,1.211.274,1.728.328a6.268,6.268,0,0,1,1.274.246l.024.01-.227-.02c-.322-.025-.645-.057-.97-.092l-.973-.1-.961-.128-.482-.064c-.16-.022-.32-.054-.48-.081l-.961-.169c-.32-.06-.638-.136-.957-.2-.641-.128-1.273-.3-1.909-.46-.319-.079-.633-.178-.949-.266s-.633-.175-.946-.279c-.627-.2-1.256-.393-1.877-.615-1.248-.422-2.479-.9-3.7-1.378s-2.43-.993-3.626-1.51-2.384-1.033-3.558-1.544-2.346-1.012-3.49-1.5c-2.29-.985-4.513-1.977-6.692-2.817-1.089-.423-2.169-.8-3.231-1.135s-2.117-.6-3.145-.827A24.741,24.741,0,0,0,980.3,716.836Z" transform="translate(-968.8 -703.036)" fill="url(#linear-gradient-11)"/>
              <path id="路径_15973" data-name="路径 15973" d="M1005.6,712.485l.607.195c.178.059.361.106.542.16s.361.108.543.152c.364.09.727.191,1.094.264.183.038.365.082.549.116l.55.1c.092.015.183.034.276.047l.276.036.551.073.557.057c.186.02.371.038.556.053l.13.011-.014-.005a2.956,2.956,0,0,0-.6-.123c.207.022.417.038.628.047a1.084,1.084,0,0,1,.164.1l.241.02.551.036.274.017.274.01c.182.005.364.017.544.017a16.011,16.011,0,0,0,2.126-.1l.258-.034c.086-.011.172-.02.256-.038l.506-.093.5-.121c.083-.018.164-.043.244-.069l.241-.074c.08-.026.161-.047.239-.076l.235-.088c.156-.058.313-.113.463-.184s.3-.13.451-.2l.439-.223c.073-.036.144-.077.215-.118l.212-.121.21-.121c.07-.04.137-.086.206-.129l.406-.258c.065-.043.126-.089.189-.132s.125-.087.184-.135l.179-.14c.059-.047.115-.1.172-.147.115-.1.221-.2.329-.3a6.992,6.992,0,0,0,.583-.657,7.105,7.105,0,0,0,.485-.7,6.869,6.869,0,0,0,.376-.734,6.513,6.513,0,0,0,.272-.744c.031-.125.068-.248.093-.372s.054-.246.068-.369a5.188,5.188,0,0,0,.02-1.4,4.62,4.62,0,0,0-.323-1.212,4.983,4.983,0,0,0-.541-.965,5.432,5.432,0,0,0-.677-.777l-.19-.174a1.12,1.12,0,0,0-.1-.082l-.1-.077a2.435,2.435,0,0,0-.2-.146l-.1-.071-.106-.064a4.944,4.944,0,0,0-.892-.432,6.509,6.509,0,0,0-.953-.274,7.667,7.667,0,0,0-1.942-.14,7.535,7.535,0,0,0-.943.107c-.155.024-.306.061-.457.093-.076.017-.149.039-.224.058s-.149.038-.221.063a5.532,5.532,0,0,0-2.824,1.844l-.115.161-.057.08-.051.084-.1.166-.086.171-.044.085c-.013.029-.024.059-.036.088l-.071.174c-.021.059-.038.119-.057.177l-.028.088c-.008.029-.014.059-.021.089l-.042.178-.027.179-.014.089-.006.089c0,.059-.008.118-.013.177s0,.117,0,.176c0,.029,0,.058,0,.087l.008.087c0,.057.01.115.014.172l.027.168c0,.028.008.056.013.084l.02.081.038.163.05.157.024.078c.01.025.021.05.03.075l.059.15c.021.049.046.1.068.143a3.071,3.071,0,0,0,.149.272,3.178,3.178,0,0,0,.761.857,2.98,2.98,0,0,0,.875.476,2.913,2.913,0,0,0,.833.159l.1.006.093,0,.179,0,.1-.01a1.377,1.377,0,0,1-.747-1.376,1.345,1.345,0,0,1,1.469-1.219,1.373,1.373,0,0,1-.052,2.73l-.093.044-.287.1c-.106.032-.222.058-.347.089l-.2.029-.1.015c-.035,0-.071,0-.107.006a3.084,3.084,0,0,1-.97-.085,3.346,3.346,0,0,1-1.073-.479,3.667,3.667,0,0,1-.971-.964,3.44,3.44,0,0,1-.2-.317c-.031-.055-.063-.111-.092-.168l-.081-.177c-.013-.03-.027-.059-.04-.089l-.035-.093-.07-.187-.056-.2-.028-.1c-.008-.034-.015-.068-.022-.1-.014-.068-.028-.136-.041-.2s-.018-.139-.028-.21l-.013-.106c0-.036,0-.071-.006-.107,0-.072-.007-.144-.01-.217l.006-.22,0-.11.012-.111c.008-.074.016-.149.025-.223l.042-.223c.008-.038.014-.075.023-.112l.03-.111c.021-.073.04-.148.063-.222l.08-.219c.014-.037.026-.074.041-.11l.049-.107.1-.214.115-.208.059-.1.065-.1.133-.2a5.447,5.447,0,0,1,.636-.733c.115-.118.244-.219.368-.328.064-.052.131-.1.2-.151s.133-.1.2-.145l.208-.139.216-.128.109-.064.112-.058.226-.117.232-.105.117-.052.119-.047c.08-.031.159-.064.24-.093l.244-.084c.081-.029.164-.052.247-.076s.167-.05.251-.07c.169-.041.339-.084.512-.114a8.338,8.338,0,0,1,1.056-.137,8.441,8.441,0,0,1,2.193.131,7.355,7.355,0,0,1,1.1.307,5.95,5.95,0,0,1,1.069.511l.13.078.126.086c.083.058.169.114.248.18l.121.1a1.5,1.5,0,0,1,.117.1l.223.2a6.41,6.41,0,0,1,.808.925,5.982,5.982,0,0,1,.656,1.178,5.675,5.675,0,0,1,.389,1.49,6.516,6.516,0,0,1-.558,3.442,7.754,7.754,0,0,1-.444.844,8.016,8.016,0,0,1-1.239,1.542c-.124.115-.246.234-.379.342-.066.054-.13.112-.2.164l-.206.157c-.068.054-.14.1-.211.15s-.144.1-.216.147l-.433.267c-.073.045-.144.091-.219.133l-.226.126-.228.126c-.076.043-.152.086-.231.122l-.475.233c-.16.075-.326.141-.491.212s-.333.132-.5.193l-.256.091c-.085.031-.174.053-.261.08l-.263.077c-.088.027-.176.052-.266.071l-.539.123-.547.093c-.091.017-.184.026-.276.036l-.277.032a16.7,16.7,0,0,1-2.24.07c-.188,0-.375-.018-.562-.026l-.283-.015-.281-.022-.564-.046-.563-.057c-.188-.018-.376-.039-.564-.062l-.564-.068-.57-.085-.286-.043c-.1-.015-.189-.036-.284-.053l-.568-.11c-.189-.038-.376-.086-.564-.129-.377-.082-.748-.191-1.121-.291-.186-.05-.369-.111-.554-.166s-.37-.109-.552-.173c-.365-.124-.731-.243-1.091-.379-.253-.091-.5-.189-.751-.286-.016-.158-.035-.316-.052-.473C1004.6,712.331,1005.1,712.416,1005.6,712.485Z" transform="translate(-979.841 -700.537)" fill="url(#linear-gradient-11)"/>
              <path id="路径_15974" data-name="路径 15974" d="M966.53,742c.886,3.449,3.408,7.134,7.8,7.134,4.644,0,8.675-3.005,7.456-7.495-1.091-4.021-5.343-6.623-9.6-4.532a.741.741,0,0,0-.415.488,1.072,1.072,0,0,0-.159.323c-.976,1.591.429,3.834,2.431,4.7a7.049,7.049,0,0,0,5.048.4,3.712,3.712,0,0,1-.717,3.358,3.444,3.444,0,0,1-1.118,1,6.833,6.833,0,0,1-5.631-.246c-3.834-2.2-4.457-7.3-3.9-10.954a10.99,10.99,0,0,1,9.655-9.5c.288-.034.574-.056.858-.069a.864.864,0,0,0,.219.057c2.886.341,6.067,1.311,8,3.431,1.617,1.778,3.538,4.5,2.177,6.574-1.3,1.979.569,1.2,1.149.765a5.174,5.174,0,0,0,1.88-3.924c1.581,2.55,3.351,5.381,6.562,6.283,3.109.872,6.87.876,9.493-.971.347-.244.517-.665.318-.922-.008-.3-.4-.513-.833-.529-3.817-.146-7.257-1.917-10.38-3.819-3.3-2.009-6.423-4.262-9.893-6.025-2.954-1.5-6.4-2.661-9.8-2.156-3.332.5-6.894,2.352-8.706,4.959A14.563,14.563,0,0,0,966.53,742Zm7.136-1.887-.071-.068c.017,0,.033.008.05.011C973.652,740.078,973.658,740.1,973.666,740.116Z" transform="translate(-966.063 -709.49)" fill="url(#linear-gradient-11)"/>
            </g>
          </g>
          <g id="组_180" data-name="组 180" transform="translate(0 26.801)">
            <g id="组_177" data-name="组 177" transform="translate(28.325 7.262)">
              <path id="路径_15975" data-name="路径 15975" d="M798.256,757.529l.53.168c.174.056.395.1.655.169.13.036.272.055.424.085s.313.064.486.086a24.723,24.723,0,0,0,5.9.064,55.626,55.626,0,0,0,8.606-1.57c1.594-.411,3.253-.893,4.953-1.454q1.276-.42,2.581-.9c.872-.322,1.74-.674,2.616-1.028,1.749-.715,3.427-1.444,5.056-2.094s3.208-1.224,4.736-1.7a35.888,35.888,0,0,1,8.326-1.631c.6-.03,1.177-.035,1.72-.016s1.052.071,1.526.142a9.881,9.881,0,0,1,2.367.647,7.554,7.554,0,0,1,1.372.758c.147.1.253.193.328.249l.112.086-.1-.1c-.066-.066-.159-.171-.291-.3a7.256,7.256,0,0,0-1.292-.956,9.721,9.721,0,0,0-2.377-.966,14.717,14.717,0,0,0-1.577-.32c-.564-.078-1.164-.134-1.795-.162a31.775,31.775,0,0,0-8.745,1.045,49.728,49.728,0,0,0-4.959,1.552c-1.685.617-3.389,1.325-5.122,2.035-.868.351-1.721.7-2.563,1.029s-1.682.64-2.509.939c-1.653.6-3.261,1.141-4.8,1.629a73.622,73.622,0,0,1-8.3,2.16,27.837,27.837,0,0,1-5.746.572c-.172,0-.332-.016-.484-.022s-.295-.011-.425-.029c-.262-.031-.487-.046-.665-.077Z" transform="translate(-798.256 -746.767)" fill="url(#linear-gradient-11)"/>
            </g>
            <g id="组_178" data-name="组 178" transform="translate(16.168 7.152)">
              <path id="路径_15976" data-name="路径 15976" d="M783.732,746.935a.724.724,0,0,0-.594-.327,1.873,1.873,0,0,0-.5.008,4.242,4.242,0,0,0-.615.156,5.251,5.251,0,0,0-.7.335,4.545,4.545,0,0,0-.735.56,4.349,4.349,0,0,0-1.212,1.924,4.551,4.551,0,0,0-.168,1.616,5.283,5.283,0,0,0,.569,1.957,8.066,8.066,0,0,0,2.823,3,10.557,10.557,0,0,0,1.635.868,9.526,9.526,0,0,0,1.446.475c.852.2,1.407.179,1.429.094s-.453-.338-1.119-.8c-.33-.235-.713-.512-1.1-.848a11.807,11.807,0,0,1-1.147-1.137,8.658,8.658,0,0,1-.966-1.326,5.349,5.349,0,0,1-.566-1.324,3.136,3.136,0,0,1-.1-1.046,3.645,3.645,0,0,1,.141-.662,4.886,4.886,0,0,1,.446-1.005c.083-.173.2-.333.3-.5.106-.162.211-.322.3-.482a3.852,3.852,0,0,0,.261-.45,3,3,0,0,0,.184-.409A.844.844,0,0,0,783.732,746.935Z" transform="translate(-779.195 -746.596)" fill="url(#linear-gradient-11)"/>
            </g>
            <g id="组_179" data-name="组 179" transform="translate(11.654 15.64)">
              <path id="路径_15977" data-name="路径 15977" d="M772.164,761.578a1.373,1.373,0,0,0,.324.517,2.659,2.659,0,0,0,.48.38,3.027,3.027,0,0,0,1.171.423c.222.025.6.029,1.071.082a8.6,8.6,0,0,1,1.561.32c.131.044.266.082.394.129l.374.14c.234.1.463.194.649.286s.352.165.476.213.214.063.252.035.036-.109.01-.242a2.359,2.359,0,0,0-.175-.53,5.109,5.109,0,0,0-.386-.716q-.129-.187-.277-.387c-.1-.131-.213-.257-.327-.39a6.741,6.741,0,0,0-1.656-1.328,4.571,4.571,0,0,0-1.566-.58,2.556,2.556,0,0,0-1.927.457,1.3,1.3,0,0,0-.439.585A.913.913,0,0,0,772.164,761.578Z" transform="translate(-772.117 -759.904)" fill="url(#linear-gradient-11)"/>
            </g>
            <path id="路径_15978" data-name="路径 15978" d="M753.861,747.892c.007-.242.047-.476.069-.713s.046-.471.087-.7a12.452,12.452,0,0,1,2.04-5.08,13.021,13.021,0,0,1,3.718-3.448A16.378,16.378,0,0,1,764,736.132a20.99,20.99,0,0,1,4.073-.7,24.281,24.281,0,0,1,3.66.036l.835.082.8.116c.262.033.517.084.766.133s.494.091.731.145l.693.169.335.082.323.1.621.183c.2.059.394.135.582.2a20.559,20.559,0,0,1,3.337,1.493c.186.1.339.2.474.279l.338.209.274.17-.288-.147-.353-.182c-.141-.071-.3-.159-.492-.24a21.169,21.169,0,0,0-3.4-1.233c-.19-.05-.382-.11-.584-.155l-.621-.138-.322-.072-.332-.059-.687-.12c-.235-.038-.477-.062-.722-.1s-.5-.066-.753-.082l-.784-.064-.815-.029a24.348,24.348,0,0,0-3.524.172,20.457,20.457,0,0,0-3.823.869,15.376,15.376,0,0,0-3.811,1.86,11.712,11.712,0,0,0-3.148,3.179,10.906,10.906,0,0,0-1.586,4.445c-.029.2-.034.411-.053.617s-.041.416-.039.621a9.689,9.689,0,0,0,.053,1.232,9.937,9.937,0,0,0,.2,1.225c.054.2.117.4.174.6a4.659,4.659,0,0,0,.211.593,10.437,10.437,0,0,0,.534,1.155l.335.554.084.138.1.133.191.267a12.264,12.264,0,0,0,1.8,1.979,19.316,19.316,0,0,0,4.731,3.06,28.386,28.386,0,0,0,5.623,1.925,30.463,30.463,0,0,0,3,.541,27.772,27.772,0,0,0,3.066.216c.256,0,.513,0,.767,0l.76-.03.751-.061.777-.1c1.036-.134,2.069-.243,3.085-.433l1.521-.254c.5-.094,1-.2,1.5-.306s1-.2,1.489-.312l1.469-.355c3.9-.954,7.606-2.139,11.12-3.35s6.838-2.452,9.97-3.575,6.068-2.137,8.773-2.99c1.361-.408,2.649-.809,3.882-1.149s2.411-.635,3.522-.859a21.771,21.771,0,0,1,5.794-.5,10.7,10.7,0,0,1,2.1.347c.229.064.437.135.633.208l.189.047c.084.021.169.042.251.068l.248.076c.082.026.162.057.243.085.163.055.318.125.474.189a7.9,7.9,0,0,1,.888.46,8,8,0,0,1,.8.552,7.6,7.6,0,0,1,.7.634,6.283,6.283,0,0,1,1.672,3.008,5.474,5.474,0,0,1,.122,1.515,5.875,5.875,0,0,1-.236,1.318,6.376,6.376,0,0,1-.463,1.133l-.145.265c-.023.044-.05.087-.078.131l-.083.131c-.054.089-.116.17-.177.252l-.091.123-.1.117a6.132,6.132,0,0,1-.849.837,7.593,7.593,0,0,1-.95.659,8.746,8.746,0,0,1-2.046.867,8.648,8.648,0,0,1-1.051.231c-.175.031-.351.048-.526.068-.087.01-.175.013-.262.02s-.174.013-.261.013l-.26.006c-.086,0-.173,0-.259-.006l-.129,0-.128-.009-.256-.019-.253-.032-.126-.017-.124-.022-.249-.046-.244-.058c-.082-.018-.162-.042-.241-.066s-.159-.047-.237-.073c-.156-.059-.311-.11-.46-.18a5.37,5.37,0,0,1-.848-.466l-.193-.14-.095-.07-.091-.077-.179-.153-.166-.166-.082-.083c-.026-.028-.05-.059-.076-.088l-.148-.176c-.046-.061-.089-.124-.133-.186l-.065-.092c-.02-.031-.039-.064-.059-.1l-.114-.193c-.032-.066-.066-.133-.1-.2l-.048-.1-.04-.1-.078-.2-.063-.2c-.009-.034-.02-.068-.029-.1l-.023-.1c-.015-.068-.03-.136-.043-.2l-.027-.2c0-.034-.01-.068-.013-.1l-.006-.1-.011-.2c0-.066,0-.133,0-.2l0-.1c0-.033.006-.065.009-.1l.019-.191c.008-.063.021-.125.031-.188a3.724,3.724,0,0,1,.69-1.587,3.4,3.4,0,0,1,.864-.809,3.169,3.169,0,0,1,.9-.408c.035-.01.07-.022.1-.031l.1-.022.2-.04c.129-.014.248-.029.359-.036h.307l.1.009a1.352,1.352,0,1,1-.594.352l-.1.025-.172.057-.089.03-.089.038a2.957,2.957,0,0,0-.741.43,3.043,3.043,0,0,0-.677.74,3.155,3.155,0,0,0-.441,1.054,2.767,2.767,0,0,0-.052.3c-.006.052-.014.1-.018.156s-.005.105-.007.159c0,.027,0,.054,0,.08l0,.08.005.163.017.164.008.082c0,.028.01.055.015.082l.03.165c.014.055.029.109.043.165l.022.082c.008.027.018.054.028.082l.057.163.071.16.035.08.043.079.085.156.1.151c.017.025.033.051.05.076l.056.072c.038.048.074.1.112.145l.125.138c.022.022.041.047.063.069l.069.064.138.13.15.12.075.061.081.055.163.111a5.61,5.61,0,0,0,3.3.755c.077,0,.154-.01.232-.016s.155-.012.232-.022c.155-.021.311-.038.466-.069a7.768,7.768,0,0,0,.934-.221,7.934,7.934,0,0,0,1.8-.789,6.668,6.668,0,0,0,.816-.577,5.091,5.091,0,0,0,.707-.7l.08-.1.073-.1c.049-.067.1-.132.142-.2l.066-.1a1.071,1.071,0,0,0,.064-.108l.124-.227a5.409,5.409,0,0,0,.388-.951,4.884,4.884,0,0,0,.2-1.08,4.479,4.479,0,0,0-.094-1.235,4.991,4.991,0,0,0-.483-1.3c-.054-.11-.123-.213-.186-.32s-.141-.208-.212-.314a6.309,6.309,0,0,0-.506-.6,6.521,6.521,0,0,0-.6-.554,6.885,6.885,0,0,0-.694-.487,6.814,6.814,0,0,0-.773-.412c-.137-.057-.272-.121-.414-.17-.071-.026-.141-.054-.212-.078l-.217-.069c-.072-.025-.147-.043-.221-.062s-.147-.04-.224-.059l-.473-.1c-.079-.016-.159-.036-.238-.049l-.241-.041-.242-.041c-.08-.014-.162-.028-.244-.036l-.492-.058c-.165-.017-.33-.022-.5-.034s-.334-.013-.5-.015h-.253c-.085,0-.169.007-.254.01l-.254.013c-.085,0-.17.008-.254.019l-.512.055c-.408.045-.82.058-1.227.114-.363.05-.723.11-1.089.135q-.96.065-1.914.192l-1.455.192.013-.006c-.445.141-.9.288-1.358.445-1.2.4-2.46.874-3.783,1.346-2.638.985-5.505,2.124-8.579,3.376s-6.359,2.608-9.87,3.937a111.325,111.325,0,0,1-11.242,3.664l-1.5.387c-.5.124-1.017.227-1.529.342s-1.026.23-1.546.332l-1.571.278c-1.048.2-2.119.325-3.194.468l-.809.1-.849.071-.848.035c-.283.008-.564,0-.848,0a30.576,30.576,0,0,1-12.639-3,21,21,0,0,1-5.205-3.52,14.211,14.211,0,0,1-2.032-2.357l-.217-.321-.108-.161-.1-.168-.381-.674a12.188,12.188,0,0,1-.607-1.413,6.283,6.283,0,0,1-.234-.727c-.063-.246-.131-.49-.187-.735a11.773,11.773,0,0,1-.2-1.486A11.578,11.578,0,0,1,753.861,747.892Z" transform="translate(-753.844 -735.381)" fill="url(#linear-gradient-11)"/>
          </g>
        </g>
        <text id="最新消息" transform="translate(129.333 101.715)" fill="#462a00" font-size="35" font-family="YuGothicUI-Bold, Yu Gothic UI" font-weight="700"><tspan x="0" y="0">最新消息</tspan></text>
      </g>
    </g>
    <g id="组_127" data-name="组 127" transform="translate(543 801.072)">
      <g id="组_128" data-name="组 128" transform="translate(0 0)">
        <g id="组_124" data-name="组 124" transform="translate(693.484)">
          <g id="组_123" data-name="组 123" transform="translate(13.638)">
            <path id="路径_15844" data-name="路径 15844" d="M207.052,425.232a22.268,22.268,0,0,0-10.933-.823,12.116,12.116,0,0,0-2.227.681,12.181,12.181,0,0,0,1.8-1.468c1.794-1.68,3.712-4.812,4.322-9.637a38.754,38.754,0,0,0-.325-9.3c-.392-2.816-.88-4.878-.88-4.878s-.492.59-1.224,1.646c-.746,1.037-1.684,2.621-2.736,4.414a42.714,42.714,0,0,0-3.024,6.259,24.957,24.957,0,0,0-1.834,7.4,7.666,7.666,0,0,0,1.024,4.978,4.305,4.305,0,0,0,1.387,1.378,4.23,4.23,0,0,0,.246,1.917,6.915,6.915,0,0,0,3.455,3.752,21,21,0,0,0,7.851,2.233,35.756,35.756,0,0,0,8.115-.346,42.719,42.719,0,0,0,6.286-1.518c1.578-.494,2.53-.87,2.53-.87s-2.045-1.02-4.785-2.257A79.273,79.273,0,0,0,207.052,425.232Z" transform="translate(-189.958 -184.419)" fill="url(#linear-gradient-36)"/>
            <path id="路径_15845" data-name="路径 15845" d="M229.029,416.581a74.862,74.862,0,0,0-9.582-1.656,22.166,22.166,0,0,0-10.88,1.395,12.44,12.44,0,0,0-2.049,1.113,11.942,11.942,0,0,0,1.474-1.8c1.423-2,2.655-5.476,2.3-10.3a40,40,0,0,0-2.2-9.045c-.475-1.338-.935-2.484-1.277-3.3l-.585-1.315-.851,1.871a51.086,51.086,0,0,0-1.784,4.876,40.158,40.158,0,0,0-1.7,6.736,24.917,24.917,0,0,0-.31,7.6,7.68,7.68,0,0,0,2.008,4.675,4.251,4.251,0,0,0,1.631,1.067,4.292,4.292,0,0,0,.63,1.832,6.893,6.893,0,0,0,4.134,2.978,21,21,0,0,0,8.151.611,37.253,37.253,0,0,0,7.886-1.979,48.5,48.5,0,0,0,5.849-2.761c.725-.4,1.3-.738,1.7-.978l.588-.4-1.451-.358Z" transform="translate(-179.734 -191.673)" fill="url(#linear-gradient-37)"/>
            <path id="路径_15846" data-name="路径 15846" d="M229.826,401.941A27,27,0,0,0,223.5,403.4a20.479,20.479,0,0,0-4.034,2.11A12.353,12.353,0,0,0,217.673,407a11.913,11.913,0,0,0,1.092-2.049,12.354,12.354,0,0,0,.939-4.384,18.146,18.146,0,0,0-.783-6.18,40.383,40.383,0,0,0-3.955-8.4c-1.465-2.428-2.78-4.163-2.78-4.163s-.172.766-.428,2.025a43.77,43.77,0,0,0-.789,5.13,42.286,42.286,0,0,0-.308,6.939,25.886,25.886,0,0,0,1.23,7.51,7.716,7.716,0,0,0,2.922,4.184,4.132,4.132,0,0,0,1.8.7,4.4,4.4,0,0,0,1,1.68,6.862,6.862,0,0,0,4.641,2.07,20.441,20.441,0,0,0,8.108-1.041,36.075,36.075,0,0,0,7.325-3.523,54.253,54.253,0,0,0,5.19-3.866,23.411,23.411,0,0,0,1.93-1.826s-2.227-.1-5.239-.157A72.27,72.27,0,0,0,229.826,401.941Z" transform="translate(-171.523 -200.465)" fill="url(#linear-gradient-38)"/>
            <path id="路径_15847" data-name="路径 15847" d="M238.131,386.843a29.383,29.383,0,0,0-5.888,2.7,17.02,17.02,0,0,0-3.512,2.884,12.331,12.331,0,0,0-1.474,1.813,11.978,11.978,0,0,0,.677-2.216,14.194,14.194,0,0,0,.021-4.494,17.193,17.193,0,0,0-2.019-5.907,38.612,38.612,0,0,0-5.542-7.44c-1.96-2.1-3.559-3.527-3.559-3.527s-.045.774-.013,2.072.015,3.079.24,5.181c.4,4.165,1.241,9.489,3.8,13.983a7.668,7.668,0,0,0,3.69,3.506,4.16,4.16,0,0,0,1.907.329,4.357,4.357,0,0,0,1.313,1.442,6.905,6.905,0,0,0,4.973,1.105c5.353-.524,10.53-4.017,14.193-7.561a43.894,43.894,0,0,0,4.324-4.817c.978-1.317,1.525-2.174,1.525-2.174s-2.238.337-5.162.895A78.365,78.365,0,0,0,238.131,386.843Z" transform="translate(-166.001 -210.425)" fill="url(#linear-gradient-39)"/>
            <path id="路径_15848" data-name="路径 15848" d="M243.958,370.247c-4.369,2.553-6.838,5.205-8.1,7.349a19.951,19.951,0,0,0-1.058,2.078,8.779,8.779,0,0,0,.195-2.314,15.837,15.837,0,0,0-4.025-9.79,37.083,37.083,0,0,0-6.929-6.184c-2.327-1.665-4.17-2.738-4.17-2.738s.1.764.378,2.028c.31,1.27.7,3.024,1.281,5.026.3,1,.66,2.07,1.088,3.171.382,1.092.823,2.212,1.347,3.338a28.231,28.231,0,0,0,4.095,6.435,7.615,7.615,0,0,0,4.3,2.694,4.214,4.214,0,0,0,1.939-.057,4.307,4.307,0,0,0,1.569,1.148,6.958,6.958,0,0,0,5.107.095,19.256,19.256,0,0,0,7.031-4.14,33.728,33.728,0,0,0,2.959-2.946c.87-1.041,1.673-2.112,2.4-3.16a36.444,36.444,0,0,0,3.264-5.586c.71-1.485,1.08-2.435,1.08-2.435s-2.134.778-4.9,1.905A87.1,87.1,0,0,0,243.958,370.247Z" transform="translate(-163.274 -221.139)" fill="url(#linear-gradient-40)"/>
            <path id="路径_15849" data-name="路径 15849" d="M246.367,353.8a25.157,25.157,0,0,0-4.322,4.8,16.492,16.492,0,0,0-2.163,4.028,15.027,15.027,0,0,0-.59,2.25,10.2,10.2,0,0,0-.3-2.308,14.5,14.5,0,0,0-1.678-4.14,19.288,19.288,0,0,0-4.21-4.64,37.26,37.26,0,0,0-8.042-4.658c-2.6-1.164-4.617-1.843-4.617-1.843s.246.729.761,1.909,1.345,2.817,2.276,4.66c2.023,3.671,4.829,8.229,9,11.362A7.559,7.559,0,0,0,237.227,367a4.22,4.22,0,0,0,1.9-.443,4.273,4.273,0,0,0,1.762.812,6.985,6.985,0,0,0,5.035-.931c4.66-2.583,8.114-7.824,10.068-12.532a37.432,37.432,0,0,0,2.064-6.134c.407-1.6.587-2.605.587-2.605s-1.941,1.192-4.435,2.857A85.8,85.8,0,0,0,246.367,353.8Z" transform="translate(-162.76 -233.169)" fill="url(#linear-gradient-41)"/>
            <path id="路径_15850" data-name="路径 15850" d="M245.215,339.831a24.863,24.863,0,0,0-3.283,5.578,18.362,18.362,0,0,0-1.3,4.38,12.254,12.254,0,0,0-.131,2.324,11.973,11.973,0,0,0-.757-2.2,13.147,13.147,0,0,0-2.488-3.712,19.36,19.36,0,0,0-5.039-3.7,38.013,38.013,0,0,0-8.827-2.938c-2.78-.615-4.886-.874-4.886-.874s.386.666,1.122,1.72c.708,1.06,1.9,2.486,3.181,4.1a46,46,0,0,0,4.808,5.012,25.167,25.167,0,0,0,6.314,4.3,7.55,7.55,0,0,0,5,.783,4.293,4.293,0,0,0,1.773-.817,4.226,4.226,0,0,0,1.883.439,7.019,7.019,0,0,0,4.751-1.926,20.878,20.878,0,0,0,4.812-6.579,34.036,34.036,0,0,0,2.507-7.733,39.823,39.823,0,0,0,.772-6.422c.083-1.65.061-2.672.061-2.672s-1.665,1.561-3.779,3.7A82.278,82.278,0,0,0,245.215,339.831Z" transform="translate(-164.485 -247.686)" fill="url(#linear-gradient-42)"/>
            <path id="路径_15851" data-name="路径 15851" d="M245.46,317.873a84.606,84.606,0,0,0-4.887,8.367,24.8,24.8,0,0,0-2.1,6.119,18.893,18.893,0,0,0-.39,4.551,12.2,12.2,0,0,0,.337,2.3,11.984,11.984,0,0,0-1.181-2.006,12.959,12.959,0,0,0-3.185-3.137,19.414,19.414,0,0,0-5.68-2.617,37.787,37.787,0,0,0-9.273-1.107c-2.861-.044-4.988.123-4.988.123s.518.573,1.468,1.455c.912.9,2.411,2.04,3.975,3.381a45.453,45.453,0,0,0,5.726,3.958,25.08,25.08,0,0,0,7.043,2.944,7.594,7.594,0,0,0,5.065-.244,4.286,4.286,0,0,0,1.572-1.156,4.247,4.247,0,0,0,1.932.049,6.957,6.957,0,0,0,4.252-2.84,20.933,20.933,0,0,0,3.4-7.41,34.443,34.443,0,0,0,.908-8.062,36.564,36.564,0,0,0-.554-6.418c-.261-1.623-.5-2.613-.5-2.613S247.091,315.367,245.46,317.873Z" transform="translate(-168.407 -261.405)" fill="url(#linear-gradient-43)"/>
            <path id="路径_15852" data-name="路径 15852" d="M232.282,324.584a12.341,12.341,0,0,0,.753,2.21,11.93,11.93,0,0,0-1.521-1.75c-1.7-1.75-5.016-3.463-9.849-3.856a29.808,29.808,0,0,0-4.617.055c-1.6.142-3.224.414-4.628.679-2.823.543-4.88,1.143-4.88,1.143s.63.448,1.746,1.109l2.013,1.135c.736.45,1.571.929,2.492,1.412a40.267,40.267,0,0,0,6.445,2.694,24.307,24.307,0,0,0,7.408,1.533,7.67,7.67,0,0,0,4.937-1.254,4.146,4.146,0,0,0,1.294-1.438,4.356,4.356,0,0,0,1.921-.342,6.888,6.888,0,0,0,3.582-3.616,21.386,21.386,0,0,0,1.941-7.987,37.608,37.608,0,0,0-.776-8.059c-.246-1.254-.53-2.439-.816-3.506-.316-1.046-.67-1.953-.961-2.721-.6-1.533-1.033-2.452-1.033-2.452s-.9,2.076-1.987,4.848c-.549,1.393-1.111,2.935-1.678,4.526a48.972,48.972,0,0,0-1.491,4.7A22.7,22.7,0,0,0,232.282,324.584Z" transform="translate(-174.271 -273.844)" fill="url(#linear-gradient-44)"/>
            <path id="路径_15853" data-name="路径 15853" d="M212.446,312.09a36.359,36.359,0,0,0-8.889,2.572c-2.66,1.107-4.558,2.113-4.558,2.113s.711.308,1.943.725c1.272.377,2.891,1.052,4.914,1.6a51.335,51.335,0,0,0,6.834,1.353,24.705,24.705,0,0,0,7.6-.028,7.729,7.729,0,0,0,4.592-2.233,4.109,4.109,0,0,0,.974-1.663,4.429,4.429,0,0,0,1.816-.729,6.836,6.836,0,0,0,2.77-4.255,21.133,21.133,0,0,0,.252-8.185,32.229,32.229,0,0,0-2.369-7.754,35.212,35.212,0,0,0-2.986-5.758c-.9-1.374-1.514-2.182-1.514-2.182s-.464,2.212-.957,5.139a90.046,90.046,0,0,0-1.256,9.692,24.593,24.593,0,0,0,.509,6.422,19.523,19.523,0,0,0,1.408,4.358,12.194,12.194,0,0,0,1.2,2,11.985,11.985,0,0,0-1.858-1.395,12.64,12.64,0,0,0-4.138-1.654A19.681,19.681,0,0,0,212.446,312.09Z" transform="translate(-181.892 -284.466)" fill="url(#linear-gradient-45)"/>
            <path id="路径_15854" data-name="路径 15854" d="M202.235,297.6c7.122,6.925,13.186,5.247,13.186,5.247s1.593-2.84-1.438-6.628c-6.554-8.191-20.483-10.242-20.483-10.242S198.01,293.492,202.235,297.6Z" transform="translate(-186.796 -285.975)" fill="url(#linear-gradient-46)"/>
          </g>
          <path id="路径_15855" data-name="路径 15855" d="M182.75,537.25a17.871,17.871,0,0,1,9.767-14.795,135.352,135.352,0,0,0,38.715-221.992c-1.387-1.315-4.783-4.322-6.22-5.572" transform="translate(-182.75 -278.021)" fill="none" stroke="#af9c4e" stroke-miterlimit="10" stroke-width="1"/>
        </g>
        <g id="组_126" data-name="组 126">
          <g id="组_125" data-name="组 125">
            <path id="路径_15856" data-name="路径 15856" d="M103.874,425.232a22.268,22.268,0,0,1,10.933-.823,12.164,12.164,0,0,1,2.227.681,12.179,12.179,0,0,1-1.8-1.468c-1.794-1.68-3.712-4.812-4.322-9.637a38.755,38.755,0,0,1,.325-9.3c.392-2.816.88-4.878.88-4.878s.492.59,1.224,1.646c.746,1.037,1.684,2.621,2.736,4.414a42.719,42.719,0,0,1,3.024,6.259,24.957,24.957,0,0,1,1.833,7.4,7.665,7.665,0,0,1-1.024,4.978,4.305,4.305,0,0,1-1.387,1.378,4.23,4.23,0,0,1-.246,1.917,6.915,6.915,0,0,1-3.455,3.752,21,21,0,0,1-7.852,2.233,35.766,35.766,0,0,1-8.115-.346,42.839,42.839,0,0,1-6.286-1.518c-1.576-.494-2.528-.87-2.528-.87s2.045-1.02,4.785-2.257A79.273,79.273,0,0,1,103.874,425.232Z" transform="translate(-25.091 -184.419)" fill="url(#linear-gradient-11)"/>
            <path id="路径_15857" data-name="路径 15857" d="M82.752,416.581a74.806,74.806,0,0,1,9.582-1.656,22.166,22.166,0,0,1,10.88,1.395,12.441,12.441,0,0,1,2.049,1.113,11.939,11.939,0,0,1-1.474-1.8c-1.423-2-2.655-5.476-2.3-10.3a39.9,39.9,0,0,1,2.2-9.045c.473-1.338.935-2.484,1.277-3.3l.585-1.315.851,1.871a51.092,51.092,0,0,1,1.784,4.876,40.34,40.34,0,0,1,1.7,6.736,24.916,24.916,0,0,1,.31,7.6,7.68,7.68,0,0,1-2.008,4.675,4.251,4.251,0,0,1-1.631,1.067,4.293,4.293,0,0,1-.63,1.832,6.893,6.893,0,0,1-4.134,2.978,21,21,0,0,1-8.151.611,37.253,37.253,0,0,1-7.887-1.979,48.5,48.5,0,0,1-5.849-2.761c-.725-.4-1.3-.738-1.7-.978l-.588-.4,1.451-.358Z" transform="translate(-36.169 -191.673)" fill="url(#linear-gradient-11)"/>
            <path id="路径_15858" data-name="路径 15858" d="M82.633,401.941a26.991,26.991,0,0,1,6.327,1.459,20.48,20.48,0,0,1,4.034,2.11A12.357,12.357,0,0,1,94.789,407a11.913,11.913,0,0,1-1.092-2.049,12.355,12.355,0,0,1-.939-4.384,18.186,18.186,0,0,1,.781-6.18,40.486,40.486,0,0,1,3.957-8.4c1.465-2.428,2.78-4.163,2.78-4.163s.172.766.428,2.025a43.767,43.767,0,0,1,.789,5.13,42.278,42.278,0,0,1,.308,6.939,25.885,25.885,0,0,1-1.23,7.51,7.725,7.725,0,0,1-2.921,4.184,4.132,4.132,0,0,1-1.8.7,4.4,4.4,0,0,1-1,1.68,6.862,6.862,0,0,1-4.641,2.07A20.445,20.445,0,0,1,82.1,411.02a36.076,36.076,0,0,1-7.325-3.523,54.246,54.246,0,0,1-5.19-3.866,23.684,23.684,0,0,1-1.932-1.826s2.229-.1,5.241-.157A72.233,72.233,0,0,1,82.633,401.941Z" transform="translate(-45.061 -200.465)" fill="url(#linear-gradient-11)"/>
            <path id="路径_15859" data-name="路径 15859" d="M75.177,386.843a29.383,29.383,0,0,1,5.888,2.7,16.953,16.953,0,0,1,3.51,2.884,12.236,12.236,0,0,1,1.476,1.813,11.986,11.986,0,0,1-.677-2.216,14.2,14.2,0,0,1-.021-4.494,17.193,17.193,0,0,1,2.019-5.907,38.613,38.613,0,0,1,5.542-7.44c1.96-2.1,3.559-3.527,3.559-3.527s.045.774.013,2.072-.015,3.079-.24,5.181c-.4,4.165-1.241,9.489-3.8,13.983a7.676,7.676,0,0,1-3.69,3.506,4.162,4.162,0,0,1-1.907.329,4.356,4.356,0,0,1-1.313,1.442,6.905,6.905,0,0,1-4.973,1.105c-5.353-.524-10.53-4.017-14.193-7.561a43.7,43.7,0,0,1-4.324-4.817c-.98-1.317-1.525-2.174-1.525-2.174s2.238.337,5.162.895A78.449,78.449,0,0,1,75.177,386.843Z" transform="translate(-51.428 -210.425)" fill="url(#linear-gradient-11)"/>
            <path id="路径_15860" data-name="路径 15860" d="M70.227,370.247c4.369,2.553,6.838,5.205,8.1,7.349a19.951,19.951,0,0,1,1.058,2.078,8.778,8.778,0,0,1-.195-2.314,15.826,15.826,0,0,1,4.025-9.79,37.083,37.083,0,0,1,6.929-6.184c2.327-1.665,4.17-2.738,4.17-2.738s-.1.764-.38,2.028c-.308,1.27-.7,3.024-1.279,5.026-.3,1-.66,2.07-1.088,3.171-.382,1.092-.823,2.212-1.347,3.338a28.232,28.232,0,0,1-4.095,6.435,7.615,7.615,0,0,1-4.3,2.694,4.225,4.225,0,0,1-1.941-.057,4.31,4.31,0,0,1-1.567,1.148,6.958,6.958,0,0,1-5.107.095,19.255,19.255,0,0,1-7.031-4.14,33.719,33.719,0,0,1-2.959-2.946c-.87-1.041-1.673-2.112-2.4-3.16a36.443,36.443,0,0,1-3.264-5.586c-.71-1.485-1.082-2.435-1.082-2.435s2.134.778,4.9,1.905A87.108,87.108,0,0,1,70.227,370.247Z" transform="translate(-55.033 -221.139)" fill="url(#linear-gradient-11)"/>
            <path id="路径_15861" data-name="路径 15861" d="M67.985,353.8a25.156,25.156,0,0,1,4.322,4.8,16.491,16.491,0,0,1,2.163,4.028,15.021,15.021,0,0,1,.59,2.25,10.292,10.292,0,0,1,.3-2.308,14.565,14.565,0,0,1,1.68-4.14,19.315,19.315,0,0,1,4.208-4.64,37.32,37.32,0,0,1,8.044-4.658c2.6-1.164,4.617-1.843,4.617-1.843s-.246.729-.761,1.909-1.345,2.817-2.276,4.66c-2.023,3.671-4.829,8.229-9,11.362A7.563,7.563,0,0,1,77.126,367a4.22,4.22,0,0,1-1.9-.443,4.274,4.274,0,0,1-1.762.812,6.984,6.984,0,0,1-5.035-.931c-4.66-2.583-8.114-7.824-10.07-12.532A37.582,37.582,0,0,1,56.3,347.77c-.407-1.6-.587-2.605-.587-2.605s1.941,1.192,4.435,2.857A85.8,85.8,0,0,1,67.985,353.8Z" transform="translate(-55.714 -233.169)" fill="url(#linear-gradient-11)"/>
            <path id="路径_15862" data-name="路径 15862" d="M68.566,339.831a24.862,24.862,0,0,1,3.283,5.578,18.537,18.537,0,0,1,1.3,4.38,12.26,12.26,0,0,1,.131,2.324,12.09,12.09,0,0,1,.755-2.2,13.228,13.228,0,0,1,2.488-3.712,19.371,19.371,0,0,1,5.041-3.7,37.984,37.984,0,0,1,8.827-2.938c2.78-.615,4.884-.874,4.884-.874s-.384.666-1.122,1.72c-.706,1.06-1.894,2.486-3.179,4.1a46.185,46.185,0,0,1-4.808,5.012,25.145,25.145,0,0,1-6.316,4.3,7.543,7.543,0,0,1-5,.783,4.277,4.277,0,0,1-1.773-.817,4.226,4.226,0,0,1-1.883.439,7.019,7.019,0,0,1-4.751-1.926,20.878,20.878,0,0,1-4.812-6.579,34.036,34.036,0,0,1-2.507-7.733,39.612,39.612,0,0,1-.772-6.422c-.083-1.65-.061-2.672-.061-2.672s1.665,1.561,3.779,3.7A82.275,82.275,0,0,1,68.566,339.831Z" transform="translate(-53.417 -247.686)" fill="url(#linear-gradient-11)"/>
            <path id="路径_15863" data-name="路径 15863" d="M67.55,317.873a84.609,84.609,0,0,1,4.887,8.367,24.8,24.8,0,0,1,2.1,6.119,18.9,18.9,0,0,1,.39,4.551,12.207,12.207,0,0,1-.337,2.3,11.984,11.984,0,0,1,1.181-2.006,12.959,12.959,0,0,1,3.184-3.137,19.425,19.425,0,0,1,5.678-2.617,37.814,37.814,0,0,1,9.275-1.107c2.861-.044,4.988.123,4.988.123s-.518.573-1.468,1.455c-.912.9-2.411,2.04-3.975,3.381a45.45,45.45,0,0,1-5.726,3.958,25.081,25.081,0,0,1-7.043,2.944,7.593,7.593,0,0,1-5.065-.244,4.286,4.286,0,0,1-1.572-1.156,4.247,4.247,0,0,1-1.932.049,6.957,6.957,0,0,1-4.252-2.84,20.933,20.933,0,0,1-3.4-7.41,34.441,34.441,0,0,1-.908-8.062,36.562,36.562,0,0,1,.554-6.418c.261-1.623.5-2.613.5-2.613S65.919,315.367,67.55,317.873Z" transform="translate(-48.725 -261.405)" fill="url(#linear-gradient-11)"/>
            <path id="路径_15864" data-name="路径 15864" d="M79.992,324.584a12.327,12.327,0,0,1-.755,2.21,12.161,12.161,0,0,1,1.521-1.75c1.7-1.75,5.018-3.463,9.851-3.856a29.811,29.811,0,0,1,4.617.055c1.6.142,3.224.414,4.628.679,2.823.543,4.88,1.143,4.88,1.143s-.63.448-1.746,1.109l-2.013,1.135c-.736.45-1.57.929-2.494,1.412a40.168,40.168,0,0,1-6.443,2.694,24.307,24.307,0,0,1-7.408,1.533,7.67,7.67,0,0,1-4.937-1.254,4.146,4.146,0,0,1-1.294-1.438,4.355,4.355,0,0,1-1.921-.342A6.887,6.887,0,0,1,72.9,324.3a21.387,21.387,0,0,1-1.941-7.987,37.734,37.734,0,0,1,.774-8.059c.248-1.254.532-2.439.817-3.506.316-1.046.67-1.953.961-2.721.6-1.533,1.033-2.452,1.033-2.452s.9,2.076,1.987,4.848c.549,1.393,1.111,2.935,1.678,4.526.585,1.6,1.118,3.22,1.491,4.7A22.678,22.678,0,0,1,79.992,324.584Z" transform="translate(-42.124 -273.844)" fill="url(#linear-gradient-11)"/>
            <path id="路径_15865" data-name="路径 15865" d="M98.971,312.09a36.359,36.359,0,0,1,8.889,2.572c2.66,1.107,4.558,2.113,4.558,2.113s-.711.308-1.943.725c-1.272.377-2.891,1.052-4.914,1.6a51.334,51.334,0,0,1-6.834,1.353,24.705,24.705,0,0,1-7.6-.028,7.728,7.728,0,0,1-4.592-2.233,4.109,4.109,0,0,1-.974-1.663,4.43,4.43,0,0,1-1.816-.729,6.836,6.836,0,0,1-2.77-4.255,21.133,21.133,0,0,1-.252-8.185,32.23,32.23,0,0,1,2.369-7.754,35.212,35.212,0,0,1,2.986-5.758c.9-1.374,1.514-2.182,1.514-2.182s.464,2.212.957,5.139a90.046,90.046,0,0,1,1.256,9.692,24.6,24.6,0,0,1-.509,6.422,19.625,19.625,0,0,1-1.408,4.358,12.2,12.2,0,0,1-1.2,2,11.892,11.892,0,0,1,1.858-1.395,12.64,12.64,0,0,1,4.138-1.654A19.681,19.681,0,0,1,98.971,312.09Z" transform="translate(-33.646 -284.466)" fill="url(#linear-gradient-11)"/>
            <path id="路径_15866" data-name="路径 15866" d="M104.641,297.6c-7.122,6.925-13.186,5.247-13.186,5.247s-1.6-2.84,1.438-6.628c6.554-8.191,20.483-10.242,20.483-10.242S108.866,293.492,104.641,297.6Z" transform="translate(-24.202 -285.975)" fill="url(#linear-gradient-11)"/>
          </g>
          <path id="路径_15867" data-name="路径 15867" d="M156.334,537.25a17.872,17.872,0,0,0-9.767-14.795,135.352,135.352,0,0,1-38.715-221.992c1.387-1.315,4.783-4.322,6.22-5.572" transform="translate(-46.817 -278.021)" fill="none" stroke="#767a0d" stroke-miterlimit="10" stroke-width="1"/>
        </g>
      </g>
    </g>
  </g>
</svg>
