<svg xmlns="http://www.w3.org/2000/svg" xmlns:xlink="http://www.w3.org/1999/xlink" width="666" height="303.269" viewBox="0 0 666 303.269">
  <defs>
    <linearGradient id="linear-gradient" x1="0.5" x2="0.5" y2="1" gradientUnits="objectBoundingBox">
      <stop offset="0" stop-color="#f2f1e7"/>
      <stop offset="0.297" stop-color="#83754f"/>
      <stop offset="0.619" stop-color="#dbd7c9"/>
      <stop offset="1" stop-color="#796b46"/>
    </linearGradient>
  </defs>
  <g id="news2" transform="translate(-543 -712.731)">
    <g id="组_122" data-name="组 122" transform="translate(643 712.731)">
      <g id="组_121" data-name="组 121" transform="translate(0 123.299)">
        <text id="環保獎章活動專業網頁開張_112年環境保護專業獎章要開跑嚕_關於專業獎章頒發作業要點附件更新說明_112年將新增線上申請方式_" data-name="環保獎章活動專業網頁開張。112年環境保護專業獎章要開跑嚕。
關於專業獎章頒發作業要點附件更新說明。
112年將新增線上申請方式。" transform="translate(127.5)" fill="#e6d9b7" font-size="17" font-family="GenSenMaruGothicTW-Regular-TTF, GenSenMaruGothic TW TTF"><tspan x="0" y="15">環保獎章活動專業網頁開張。</tspan><tspan x="0" y="54">112年環境保護專業獎章要開跑嚕。</tspan><tspan x="0" y="93">關於專業獎章頒發作業要點附件更新說明。</tspan><tspan x="0" y="132">112年將新增線上申請方式。</tspan></text>
        <text id="_2022_08_03_2022_08_03_2022_08_03_2022_08_03" data-name="2022/08/032022/08/032022/08/032022/08/03" transform="translate(38.198 1)" fill="#fff" font-size="15" font-family="GenSenMaruGothicTW-Medium-TTF, GenSenMaruGothic TW TTF"><tspan x="0" y="13">2022/08/03</tspan><tspan x="0" y="52">2022/08/03</tspan><tspan x="0" y="91">2022/08/03</tspan><tspan x="0" y="130">2022/08/03</tspan></text>
        <line id="直线_26" data-name="直线 26" x2="472" transform="translate(0 29.5)" fill="none" stroke="#9b7b48" stroke-width="1"/>
        <line id="直线_29" data-name="直线 29" x2="472" transform="translate(0 107.5)" fill="none" stroke="#9b7b48" stroke-width="1"/>
        <line id="直线_27" data-name="直线 27" x2="472" transform="translate(0 66.5)" fill="none" stroke="#9b7b48" stroke-width="1"/>
        <line id="直线_28" data-name="直线 28" x2="472" transform="translate(0 144.5)" fill="none" stroke="#9b7b48" stroke-width="1"/>
      </g>
      <g id="组_182" data-name="组 182" transform="translate(68.92)">
        <g id="组_157" data-name="组 157" transform="translate(97 284.861)">
          <g id="组_150" data-name="组 150" transform="translate(68.68)">
            <g id="组_145" data-name="组 145" transform="translate(0.973 6.185)">
              <path id="路径_15900" data-name="路径 15900" d="M1033.727,946.518l-.264.261a9.327,9.327,0,0,1-.789.721,14.094,14.094,0,0,1-3.369,2.078c-.193.084-.389.175-.592.259l-.633.238-.327.12-.339.107c-.228.07-.46.146-.7.215a25.4,25.4,0,0,1-3.1.642,31.092,31.092,0,0,1-3.477.267,35.125,35.125,0,0,1-3.731-.141,42.248,42.248,0,0,1-9.256-1.937c-1.313-.432-2.491-.89-3.512-1.337s-1.882-.888-2.572-1.248c-1.472-.523-3.6-1.337-6.145-2.3-1.277-.474-2.657-.993-4.129-1.488s-3.031-.977-4.658-1.395a41.1,41.1,0,0,0-6.849-1.154,16.852,16.852,0,0,0-5.571.542c-.793.19-1.508.393-2.138.573s-1.173.337-1.62.458-.8.206-1.035.258l-.364.076.346-.134c.226-.088.557-.226.98-.41l1.542-.673c.6-.26,1.3-.55,2.083-.832a20.132,20.132,0,0,1,2.643-.765c.244-.051.493-.1.751-.139s.517-.082.786-.1l.405-.038c.136-.01.275-.011.414-.016l.421-.012.413.011a31.3,31.3,0,0,1,7.146.973,42.778,42.778,0,0,1,4.756,1.54c1.48.57,2.841,1.185,4.087,1.764,2.482,1.175,4.489,2.234,5.875,2.95.736.265,1.63.59,2.676.915s2.241.661,3.557.98a63.619,63.619,0,0,0,9.1,1.519c1.232.109,2.437.18,3.6.2s2.284-.02,3.349-.1,2.068-.223,3-.394c.233-.046.459-.1.683-.146l.333-.071.323-.085.626-.165c.2-.06.4-.127.591-.187a15.673,15.673,0,0,0,3.5-1.593c.4-.23.68-.449.88-.587Z" transform="translate(-968.562 -939.207)" fill="url(#linear-gradient)"/>
            </g>
            <g id="组_146" data-name="组 146" transform="translate(1.611 3.104)">
              <path id="路径_15901" data-name="路径 15901" d="M1033.906,944.661l-.335.152c-.221.1-.544.251-.97.427a21.563,21.563,0,0,1-3.755,1.113,22.546,22.546,0,0,1-5.841.334,28.9,28.9,0,0,1-3.431-.478,35.886,35.886,0,0,1-3.584-.934c-1.641-.518-3.188-1.121-4.63-1.733s-2.78-1.236-4.007-1.819c-2.45-1.172-4.462-2.17-5.861-2.831-.736-.235-1.643-.514-2.688-.823s-2.23-.614-3.553-.954-2.728-.73-4.224-1.1-3.075-.72-4.713-.963a20.522,20.522,0,0,0-6.76-.033l-.379.074-.37.088c-.247.053-.482.132-.719.2s-.468.152-.682.231a5.519,5.519,0,0,0-.612.277,17.672,17.672,0,0,0-2.16,1.451,18.579,18.579,0,0,1-1.854,1.257,6.1,6.1,0,0,1-1.577.656,3.753,3.753,0,0,1-1.065.116c-.122,0-.214-.015-.276-.019l-.093-.01.094-.007c.062-.006.153-.006.272-.026a3.875,3.875,0,0,0,1-.268,6.2,6.2,0,0,0,1.4-.822,21.776,21.776,0,0,0,1.645-1.429,16.042,16.042,0,0,1,2.122-1.745,6.344,6.344,0,0,1,.694-.387c.244-.113.481-.211.73-.313s.5-.193.768-.27l.4-.123.407-.106c.272-.075.553-.125.836-.186s.571-.1.864-.134a16.412,16.412,0,0,1,1.792-.134,22.176,22.176,0,0,1,3.738.251,36.133,36.133,0,0,1,4.848,1.1c1.508.444,2.906.925,4.186,1.373.639.223,1.25.437,1.837.656l.432.16.415.165.793.319c1.016.427,1.885.82,2.585,1.155,1.48.465,3.613,1.22,6.145,2.191s5.47,2.14,8.656,3.151c1.172.372,2.325.689,3.446.961s2.215.461,3.262.615a24.95,24.95,0,0,0,9.4-.459Z" transform="translate(-969.769 -933.382)" fill="url(#linear-gradient)"/>
            </g>
            <g id="组_147" data-name="组 147" transform="translate(3.279)">
              <path id="路径_15902" data-name="路径 15902" d="M1035.78,941.01l-.3.213c-.1.071-.223.157-.375.25s-.325.207-.528.318a10.541,10.541,0,0,1-3.752,1.283,12.092,12.092,0,0,1-2.779.05,18.634,18.634,0,0,1-3.118-.586c-1.072-.291-2.17-.661-3.288-1.067l-1.694-.626-1.732-.7q-1.19-.483-2.333-.964c-.759-.324-1.509-.625-2.215-.965-1.422-.663-2.76-1.3-3.988-1.9-.615-.3-1.2-.592-1.751-.876l-1.564-.808c-.978-.51-1.822-.958-2.508-1.327-1.461-.54-3.584-1.333-6.115-2.339a35.131,35.131,0,0,0-4.116-1.316,23.319,23.319,0,0,0-4.7-.7,16.418,16.418,0,0,0-3.494.2l-.209.03c-.069.012-.137.03-.205.044l-.408.089-.405.087c-.133.034-.263.077-.393.114-.259.081-.523.143-.773.234l-.74.277-.183.069-.176.081-.349.161c-.226.107-.476.208-.663.318a8.517,8.517,0,0,0-1.142.817c-.723.6-1.381,1.225-2.012,1.766a13.933,13.933,0,0,1-1.809,1.363,6.883,6.883,0,0,1-.837.429,4.2,4.2,0,0,1-.759.231,2.668,2.668,0,0,1-1.081.011,1.907,1.907,0,0,1-.27-.067l-.09-.026.094.011a2.007,2.007,0,0,0,.273.022,2.641,2.641,0,0,0,1.016-.166,4.107,4.107,0,0,0,.67-.313,6.877,6.877,0,0,0,.725-.5,15.1,15.1,0,0,0,1.571-1.507c.558-.595,1.145-1.275,1.852-1.976a8.937,8.937,0,0,1,1.217-1.024c.248-.168.478-.278.722-.415l.365-.2.185-.1.193-.087.787-.348c.268-.114.55-.2.829-.3.141-.047.281-.1.425-.143l.438-.115.443-.114c.074-.019.149-.04.224-.056l.227-.041a15.524,15.524,0,0,1,3.8-.287,20.467,20.467,0,0,1,4.995.851,28.29,28.29,0,0,1,4.186,1.629c2.453,1.21,4.468,2.251,5.841,2.984.73.272,1.624.611,2.651,1.01l3.456,1.361c1.269.5,2.639,1.049,4.082,1.646.718.309,1.471.581,2.231.884s1.537.609,2.323.929l1.711.7,1.675.668c1.093.439,2.141.848,3.15,1.19a20.52,20.52,0,0,0,2.9.772,12.456,12.456,0,0,0,2.587.206,11.135,11.135,0,0,0,3.718-.772c.214-.079.4-.161.562-.233s.3-.132.407-.186Z" transform="translate(-972.921 -927.514)" fill="url(#linear-gradient)"/>
            </g>
            <g id="组_148" data-name="组 148" transform="translate(58.44 6.702)">
              <path id="路径_15903" data-name="路径 15903" d="M1082.038,948.154s.153-.049.415-.123c.131-.037.285-.105.46-.166a4.237,4.237,0,0,0,.544-.285,2.348,2.348,0,0,0,.93-1.027,2.615,2.615,0,0,0,.134-.353c.014-.065.029-.129.046-.193a1.978,1.978,0,0,0,.033-.2,3.674,3.674,0,0,0,.015-.87,5.632,5.632,0,0,0-.726-2.252,5.3,5.3,0,0,0-.579-.821,4.991,4.991,0,0,0-.573-.561,4.568,4.568,0,0,0-1.781-.042,8.383,8.383,0,0,0-1.148.273,3.845,3.845,0,0,0-.529.222c-.085.039-.149.094-.228.135-.032.026-.062.052-.095.077l-.049.036-.039.041a1.042,1.042,0,0,0-.3.518,1.51,1.51,0,0,0,.025.677,2.113,2.113,0,0,0,.7,1.129.942.942,0,0,0,.464.2l.058.01.056,0c.036,0,.074,0,.11,0a1.766,1.766,0,0,0,.2-.052l.159-.07.111-.072.1-.061-.049.1c-.017.033-.038.076-.065.126s-.073.1-.121.157a1.511,1.511,0,0,1-.194.174c-.041.026-.087.05-.135.076l-.076.039-.083.026a1.382,1.382,0,0,1-.813,0,2.566,2.566,0,0,1-1.537-1.336,2.45,2.45,0,0,1-.263-1.3,2.177,2.177,0,0,1,.2-.737l.09-.177.112-.162a1.856,1.856,0,0,1,.255-.3l.095-.093.1-.077c.067-.05.135-.1.2-.148a3.363,3.363,0,0,1,1.231-.453l.386-.051.367-.014a3.04,3.04,0,0,1,.349.007l.331.022c.112.014.224.033.33.05l.158.026.151.042.286.084c.09.034.176.073.258.107a3.4,3.4,0,0,1,.775.468,3.75,3.75,0,0,1,.845.322,4.21,4.21,0,0,1,.973.719,4.519,4.519,0,0,1,1.332,2.776,3.684,3.684,0,0,1-.1,1.282,2.813,2.813,0,0,1-.093.3l-.12.289a3.052,3.052,0,0,1-.322.519,2.874,2.874,0,0,1-.394.424c-.069.062-.147.113-.218.166a1.539,1.539,0,0,1-.221.142,2.521,2.521,0,0,1-.444.2l-.213.071c-.069.021-.14.03-.207.043a3.4,3.4,0,0,1-.717.061,5.16,5.16,0,0,1-.524-.057C1082.185,948.194,1082.038,948.154,1082.038,948.154Z" transform="translate(-1077.201 -940.183)" fill="url(#linear-gradient)"/>
            </g>
            <g id="组_149" data-name="组 149" transform="translate(0 2.428)">
              <path id="路径_15904" data-name="路径 15904" d="M973.677,942.245l-.183.076a3.542,3.542,0,0,1-.551.168,2.133,2.133,0,0,1-.43.051,1.307,1.307,0,0,1-.553-.1.951.951,0,0,1-.5-.532,1.518,1.518,0,0,1-.066-.781,3.307,3.307,0,0,1,1.4-2.1,2.3,2.3,0,0,1,1.03-.382,1.924,1.924,0,0,1,.633.039,2.023,2.023,0,0,1,.6.25,2.35,2.35,0,0,1,.481.394,3.03,3.03,0,0,1,.362.462,4.1,4.1,0,0,1,.272.491,3.955,3.955,0,0,1,.206.516c.03.09.061.181.088.273s.042.193.063.289l.029.146.015.152c.008.1.022.2.023.307a3.164,3.164,0,0,1-.4,1.623,3.582,3.582,0,0,1-1.04,1.144,5.144,5.144,0,0,1-2.435.9,5.9,5.9,0,0,1-2.1-.136,4.448,4.448,0,0,1-1.448-.642,3.36,3.36,0,0,1-.653-.329l-.174-.117c-.058-.043-.112-.092-.169-.14a4.275,4.275,0,0,1-.33-.312,4.785,4.785,0,0,1-.62-.8,3.362,3.362,0,0,1-.436-1.112,3.075,3.075,0,0,1,.051-1.356,4.2,4.2,0,0,1,.592-1.272,8.753,8.753,0,0,1,1.961-1.986,27.776,27.776,0,0,1,3.2-2.04c1-.565,1.9-1.056,2.618-1.513a10.082,10.082,0,0,0,1.619-1.208,4.777,4.777,0,0,0,.382-.4l.123-.153-.07.185a3.984,3.984,0,0,1-.26.511,7.9,7.9,0,0,1-1.353,1.631,23.467,23.467,0,0,1-2.4,1.964c-.929.685-1.974,1.386-2.987,2.161a10.355,10.355,0,0,0-1.763,1.626,2.6,2.6,0,0,0-.674,1.725,3.378,3.378,0,0,0,.564,1.612c.076.114.147.233.222.325.038.048.071.1.11.144l.12.129a3.319,3.319,0,0,0,.489.421,4.565,4.565,0,0,0,1.393.263,6.059,6.059,0,0,0,1.806-.207,5.829,5.829,0,0,0,.951-.35,4.1,4.1,0,0,0,.864-.559,2.521,2.521,0,0,0,.616-.765,1.951,1.951,0,0,0,.208-.932c0-.062-.01-.125-.014-.188l-.007-.094-.019-.095-.035-.19-.057-.191a3.052,3.052,0,0,0-.135-.382,2.954,2.954,0,0,0-.166-.347,1.578,1.578,0,0,0-.392-.49.724.724,0,0,0-.442-.167,1.733,1.733,0,0,0-1.093.483,2.552,2.552,0,0,0-.712.962.976.976,0,0,0-.073.445.447.447,0,0,0,.171.308.948.948,0,0,0,.363.166,2.068,2.068,0,0,0,.378.057,4.255,4.255,0,0,0,.555,0Z" transform="translate(-966.723 -932.104)" fill="url(#linear-gradient)"/>
            </g>
          </g>
          <g id="组_156" data-name="组 156">
            <g id="组_151" data-name="组 151" transform="translate(1.158 6.185)">
              <path id="路径_15905" data-name="路径 15905" d="M839.074,946.518l.264.261a9.339,9.339,0,0,0,.789.721,14.093,14.093,0,0,0,3.368,2.078c.193.084.389.175.593.259l.632.238.327.12.339.107c.229.07.46.146.7.215a25.357,25.357,0,0,0,3.1.642,31.1,31.1,0,0,0,3.477.267,35.141,35.141,0,0,0,3.732-.141,42.245,42.245,0,0,0,9.256-1.937c1.313-.432,2.491-.89,3.512-1.337s1.882-.888,2.572-1.248c1.472-.523,3.6-1.337,6.144-2.3,1.277-.474,2.658-.993,4.13-1.488s3.03-.977,4.658-1.395a41.1,41.1,0,0,1,6.849-1.154,16.855,16.855,0,0,1,5.572.542c.793.19,1.508.393,2.137.573s1.173.337,1.62.458.8.206,1.036.258l.363.076-.346-.134c-.226-.088-.556-.226-.979-.41l-1.542-.673c-.6-.26-1.3-.55-2.083-.832a20.115,20.115,0,0,0-2.643-.765c-.244-.051-.493-.1-.751-.139s-.517-.082-.786-.1l-.406-.038c-.136-.01-.275-.011-.414-.016l-.421-.012-.414.011a31.3,31.3,0,0,0-7.146.973,42.844,42.844,0,0,0-4.756,1.54c-1.48.57-2.841,1.185-4.086,1.764-2.482,1.175-4.489,2.234-5.876,2.95-.736.265-1.63.59-2.676.915s-2.241.661-3.557.98a63.606,63.606,0,0,1-9.1,1.519c-1.232.109-2.437.18-3.6.2s-2.284-.02-3.349-.1-2.068-.223-3-.394c-.232-.046-.459-.1-.683-.146l-.333-.071-.322-.085-.627-.165c-.2-.06-.4-.127-.591-.187a15.646,15.646,0,0,1-3.5-1.593c-.4-.23-.681-.449-.881-.587Z" transform="translate(-839.074 -939.207)" fill="url(#linear-gradient)"/>
            </g>
            <g id="组_152" data-name="组 152" transform="translate(1.548 3.104)">
              <path id="路径_15906" data-name="路径 15906" d="M839.811,944.661l.335.152c.221.1.543.251.969.427a21.561,21.561,0,0,0,3.755,1.113,22.548,22.548,0,0,0,5.841.334,28.9,28.9,0,0,0,3.431-.478,35.9,35.9,0,0,0,3.585-.934c1.641-.518,3.188-1.121,4.63-1.733s2.781-1.236,4.007-1.819c2.45-1.172,4.462-2.17,5.861-2.831.736-.235,1.642-.514,2.688-.823s2.23-.614,3.552-.954,2.728-.73,4.224-1.1,3.076-.72,4.714-.963a20.519,20.519,0,0,1,6.76-.033l.379.074.37.088c.247.053.482.132.72.2s.468.152.681.231a5.519,5.519,0,0,1,.612.277,17.63,17.63,0,0,1,2.16,1.451,18.586,18.586,0,0,0,1.853,1.257,6.107,6.107,0,0,0,1.577.656,3.752,3.752,0,0,0,1.064.116c.122,0,.214-.015.276-.019l.093-.01-.094-.007c-.061-.006-.153-.006-.272-.026a3.866,3.866,0,0,1-1-.268,6.173,6.173,0,0,1-1.4-.822,21.574,21.574,0,0,1-1.645-1.429,16.077,16.077,0,0,0-2.123-1.745,6.337,6.337,0,0,0-.694-.387c-.244-.113-.481-.211-.73-.313s-.5-.193-.768-.27l-.4-.123-.407-.106c-.272-.075-.553-.125-.836-.186s-.571-.1-.864-.134a16.413,16.413,0,0,0-1.792-.134,22.177,22.177,0,0,0-3.738.251,36.11,36.11,0,0,0-4.847,1.1c-1.509.444-2.906.925-4.187,1.373-.639.223-1.25.437-1.837.656l-.432.16-.416.165-.792.319c-1.016.427-1.885.82-2.585,1.155-1.48.465-3.613,1.22-6.146,2.191s-5.47,2.14-8.656,3.151c-1.172.372-2.325.689-3.446.961s-2.215.461-3.262.615a24.95,24.95,0,0,1-9.4-.459Z" transform="translate(-839.811 -933.382)" fill="url(#linear-gradient)"/>
            </g>
            <g id="组_153" data-name="组 153" transform="translate(1.158)">
              <path id="路径_15907" data-name="路径 15907" d="M839.074,941.01l.3.213c.1.071.223.157.375.25s.325.207.529.318a10.531,10.531,0,0,0,3.751,1.283,12.093,12.093,0,0,0,2.779.05,18.616,18.616,0,0,0,3.118-.586c1.072-.291,2.17-.661,3.288-1.067l1.694-.626,1.732-.7q1.19-.483,2.333-.964c.759-.324,1.509-.625,2.215-.965,1.422-.663,2.76-1.3,3.988-1.9.616-.3,1.2-.592,1.751-.876l1.564-.808c.978-.51,1.822-.958,2.508-1.327,1.461-.54,3.584-1.333,6.115-2.339a35.175,35.175,0,0,1,4.117-1.316,23.313,23.313,0,0,1,4.7-.7,16.417,16.417,0,0,1,3.494.2l.209.03c.069.012.138.03.206.044l.408.089.405.087c.133.034.263.077.394.114.259.081.523.143.773.234l.741.277.182.069.176.081.349.161c.226.107.476.208.663.318a8.525,8.525,0,0,1,1.143.817c.723.6,1.381,1.225,2.011,1.766a13.9,13.9,0,0,0,1.809,1.363,6.847,6.847,0,0,0,.837.429,4.2,4.2,0,0,0,.758.231,2.668,2.668,0,0,0,1.081.011,1.891,1.891,0,0,0,.27-.067l.09-.026-.094.011a2.006,2.006,0,0,1-.273.022,2.638,2.638,0,0,1-1.016-.166,4.136,4.136,0,0,1-.67-.313,6.829,6.829,0,0,1-.725-.5,15.1,15.1,0,0,1-1.572-1.507c-.558-.595-1.145-1.275-1.852-1.976a8.927,8.927,0,0,0-1.217-1.024c-.248-.168-.478-.278-.722-.415l-.365-.2-.185-.1-.193-.087-.787-.348c-.267-.114-.55-.2-.829-.3-.141-.047-.281-.1-.425-.143l-.438-.115-.443-.114c-.074-.019-.148-.04-.223-.056l-.227-.041a15.524,15.524,0,0,0-3.8-.287,20.467,20.467,0,0,0-4.995.851,28.312,28.312,0,0,0-4.186,1.629c-2.452,1.21-4.467,2.251-5.841,2.984-.729.272-1.623.611-2.651,1.01l-3.456,1.361c-1.268.5-2.639,1.049-4.082,1.646-.718.309-1.471.581-2.231.884s-1.537.609-2.324.929l-1.711.7-1.675.668c-1.092.439-2.141.848-3.149,1.19a20.522,20.522,0,0,1-2.9.772,12.456,12.456,0,0,1-2.587.206,11.131,11.131,0,0,1-3.717-.772c-.215-.079-.4-.161-.562-.233s-.3-.132-.407-.186Z" transform="translate(-839.074 -927.514)" fill="url(#linear-gradient)"/>
            </g>
            <g id="组_154" data-name="组 154" transform="translate(0 6.702)">
              <path id="路径_15908" data-name="路径 15908" d="M840.9,948.154s-.153-.049-.415-.123c-.131-.037-.285-.105-.46-.166a4.237,4.237,0,0,1-.544-.285,2.347,2.347,0,0,1-.93-1.027,2.615,2.615,0,0,1-.134-.353c-.014-.065-.029-.129-.045-.193a2,2,0,0,1-.033-.2,3.644,3.644,0,0,1-.015-.87,5.643,5.643,0,0,1,.726-2.252,5.291,5.291,0,0,1,.579-.821,5.071,5.071,0,0,1,.573-.561,4.568,4.568,0,0,1,1.781-.042,8.385,8.385,0,0,1,1.148.273,3.82,3.82,0,0,1,.529.222c.086.039.149.094.229.135.031.026.062.052.095.077l.049.036.039.041a1.047,1.047,0,0,1,.3.518,1.509,1.509,0,0,1-.026.677,2.114,2.114,0,0,1-.7,1.129.94.94,0,0,1-.464.2l-.058.01-.056,0c-.037,0-.075,0-.111,0a1.717,1.717,0,0,1-.2-.052l-.159-.07-.111-.072-.095-.061.049.1c.017.033.038.076.065.126s.073.1.121.157a1.52,1.52,0,0,0,.194.174c.041.026.087.05.135.076l.075.039.084.026a1.38,1.38,0,0,0,.813,0,2.565,2.565,0,0,0,1.537-1.336,2.449,2.449,0,0,0,.263-1.3,2.18,2.18,0,0,0-.2-.737l-.089-.177-.112-.162a1.86,1.86,0,0,0-.256-.3l-.094-.093-.1-.077c-.067-.05-.134-.1-.2-.148a3.685,3.685,0,0,0-.417-.216,3.758,3.758,0,0,0-.815-.236l-.385-.051-.367-.014a3.026,3.026,0,0,0-.349.007l-.332.022c-.112.014-.224.033-.33.05l-.157.026-.151.042-.286.084c-.09.034-.176.073-.259.107a3.407,3.407,0,0,0-.775.468,3.746,3.746,0,0,0-.844.322,4.221,4.221,0,0,0-.974.719,4.522,4.522,0,0,0-1.332,2.776,3.684,3.684,0,0,0,.1,1.282,2.827,2.827,0,0,0,.093.3l.12.289a3.055,3.055,0,0,0,.322.519,2.871,2.871,0,0,0,.394.424c.069.062.147.113.218.166a1.534,1.534,0,0,0,.221.142,2.494,2.494,0,0,0,.443.2l.213.071c.07.021.14.03.207.043a3.408,3.408,0,0,0,.718.061,5.175,5.175,0,0,0,.524-.057C840.758,948.194,840.9,948.154,840.9,948.154Z" transform="translate(-836.885 -940.183)" fill="url(#linear-gradient)"/>
            </g>
            <g id="组_155" data-name="组 155" transform="translate(56.693 2.428)">
              <path id="路径_15909" data-name="路径 15909" d="M947.71,942.245l.183.076a3.558,3.558,0,0,0,.551.168,2.134,2.134,0,0,0,.43.051,1.31,1.31,0,0,0,.553-.1.95.95,0,0,0,.5-.532,1.518,1.518,0,0,0,.066-.781,3.31,3.31,0,0,0-1.4-2.1,2.305,2.305,0,0,0-1.03-.382,1.921,1.921,0,0,0-.632.039,2.021,2.021,0,0,0-.6.25,2.35,2.35,0,0,0-.481.394,3.1,3.1,0,0,0-.362.462,4.1,4.1,0,0,0-.272.491,3.957,3.957,0,0,0-.207.516c-.03.09-.061.181-.088.273s-.042.193-.062.289l-.029.146-.015.152c-.008.1-.022.2-.023.307a3.16,3.16,0,0,0,.405,1.623,3.588,3.588,0,0,0,1.039,1.144,5.145,5.145,0,0,0,2.435.9,5.9,5.9,0,0,0,2.1-.136,4.456,4.456,0,0,0,1.448-.642,3.389,3.389,0,0,0,.653-.329l.174-.117c.058-.043.112-.092.17-.14a4.275,4.275,0,0,0,.33-.312,4.784,4.784,0,0,0,.62-.8,3.376,3.376,0,0,0,.437-1.112,3.085,3.085,0,0,0-.051-1.356,4.214,4.214,0,0,0-.591-1.272,8.768,8.768,0,0,0-1.961-1.986,27.781,27.781,0,0,0-3.2-2.04c-1-.565-1.9-1.056-2.618-1.513a10.065,10.065,0,0,1-1.62-1.208,4.883,4.883,0,0,1-.383-.4l-.123-.153.07.185a4.043,4.043,0,0,0,.26.511,7.9,7.9,0,0,0,1.353,1.631,23.527,23.527,0,0,0,2.4,1.964c.929.685,1.974,1.386,2.987,2.161a10.331,10.331,0,0,1,1.763,1.626,2.6,2.6,0,0,1,.674,1.725,3.373,3.373,0,0,1-.564,1.612c-.076.114-.147.233-.222.325-.037.048-.071.1-.11.144l-.12.129a3.267,3.267,0,0,1-.489.421,4.561,4.561,0,0,1-1.392.263,6.055,6.055,0,0,1-1.806-.207,5.818,5.818,0,0,1-.951-.35,4.091,4.091,0,0,1-.864-.559,2.506,2.506,0,0,1-.616-.765,1.952,1.952,0,0,1-.209-.932c0-.062.011-.125.014-.188l.007-.094.019-.095.035-.19.057-.191a2.973,2.973,0,0,1,.134-.382,3.054,3.054,0,0,1,.166-.347,1.578,1.578,0,0,1,.392-.49.725.725,0,0,1,.442-.167,1.732,1.732,0,0,1,1.093.483,2.551,2.551,0,0,1,.711.962.96.96,0,0,1,.073.445.445.445,0,0,1-.171.308.943.943,0,0,1-.363.166,2.06,2.06,0,0,1-.378.057,4.245,4.245,0,0,1-.554,0Z" transform="translate(-944.062 -932.104)" fill="url(#linear-gradient)"/>
            </g>
          </g>
        </g>
        <g id="组_160" data-name="组 160" transform="translate(0 51.51)">
          <path id="路径_15945" data-name="路径 15945" d="M640.755,791.839h333.3a.553.553,0,0,0,0-1.1h-333.3a.553.553,0,0,0,0,1.1Z" transform="translate(-640.238 -790.736)" fill="url(#linear-gradient)"/>
        </g>
        <g id="组_161" data-name="组 161" transform="translate(0.573 44.558)">
          <path id="路径_15946" data-name="路径 15946" d="M975.553,782.6H1141.7a.844.844,0,0,0,.844-.844v-.017a.842.842,0,0,0-.844-.844c-12.056.03-149.5.286-165.974-3.278a.841.841,0,0,0-1.018.825v3.314A.844.844,0,0,0,975.553,782.6Z" transform="translate(-809.357 -777.593)" fill="url(#linear-gradient)"/>
          <circle id="椭圆_1" data-name="椭圆 1" cx="1.778" cy="1.778" r="1.778" transform="translate(164.942 1.447)" fill="url(#linear-gradient)"/>
          <path id="路径_15947" data-name="路径 15947" d="M808.314,782.6H642.166a.844.844,0,0,1-.844-.844v-.017a.842.842,0,0,1,.844-.844c12.056.03,149.5.286,165.973-3.278a.842.842,0,0,1,1.018.825v3.314A.844.844,0,0,1,808.314,782.6Z" transform="translate(-641.322 -777.593)" fill="url(#linear-gradient)"/>
        </g>
        <g id="组_162" data-name="组 162" transform="translate(0 90.626)">
          <path id="路径_15948" data-name="路径 15948" d="M640.755,858.312h333.3a.553.553,0,0,0,0-1.1h-333.3a.553.553,0,0,0,0,1.1Z" transform="translate(-640.238 -857.209)" fill="url(#linear-gradient)"/>
        </g>
        <g id="组_163" data-name="组 163" transform="translate(0.573 93.874)">
          <path id="路径_15949" data-name="路径 15949" d="M975.553,862.981H1141.7a.844.844,0,0,1,.844.844v.017a.841.841,0,0,1-.844.843c-12.056-.029-149.5-.285-165.974,3.279a.841.841,0,0,1-1.018-.825v-3.314A.844.844,0,0,1,975.553,862.981Z" transform="translate(-809.357 -862.981)" fill="url(#linear-gradient)"/>
          <path id="路径_15950" data-name="路径 15950" d="M967.1,864.759a1.778,1.778,0,1,0-1.778,1.778A1.778,1.778,0,0,0,967.1,864.759Z" transform="translate(-798.603 -862.981)" fill="url(#linear-gradient)"/>
          <path id="路径_15951" data-name="路径 15951" d="M808.314,862.981H642.166a.844.844,0,0,0-.844.844v.017a.841.841,0,0,0,.844.843c12.056-.029,149.5-.285,165.973,3.279a.842.842,0,0,0,1.018-.825v-3.314A.844.844,0,0,0,808.314,862.981Z" transform="translate(-641.322 -862.981)" fill="url(#linear-gradient)"/>
        </g>
        <g id="组_181" data-name="组 181" transform="translate(55.08)">
          <g id="组_171" data-name="组 171" transform="translate(150.073 22.329)">
            <g id="组_168" data-name="组 168" transform="translate(4.022 6.023)">
              <path id="路径_15960" data-name="路径 15960" d="M1088.528,755.881l-.44.14c-.145.047-.328.085-.544.14-.107.03-.226.045-.351.071s-.26.053-.4.071a20.474,20.474,0,0,1-4.9.053,46.14,46.14,0,0,1-7.139-1.3c-1.322-.341-2.7-.741-4.108-1.206q-1.058-.348-2.14-.747c-.723-.267-1.443-.559-2.169-.853-1.45-.594-2.842-1.2-4.193-1.737s-2.66-1.015-3.927-1.411a29.772,29.772,0,0,0-6.906-1.353q-.75-.037-1.427-.013a12.62,12.62,0,0,0-1.265.118,8.165,8.165,0,0,0-1.963.536,6.3,6.3,0,0,0-1.138.628c-.122.087-.209.161-.272.207l-.093.071.081-.084c.055-.055.131-.142.241-.246a6.068,6.068,0,0,1,1.071-.793,8.055,8.055,0,0,1,1.971-.8,12.233,12.233,0,0,1,1.308-.266c.468-.065.965-.111,1.489-.134a26.329,26.329,0,0,1,7.253.866,41.174,41.174,0,0,1,4.113,1.287c1.4.513,2.811,1.1,4.248,1.687.72.292,1.427.584,2.126.854s1.4.531,2.081.778c1.371.5,2.7.946,3.983,1.351a61.062,61.062,0,0,0,6.884,1.792,23.1,23.1,0,0,0,4.766.474c.143,0,.276-.013.4-.018s.245-.009.353-.024c.217-.025.4-.038.552-.064Z" transform="translate(-1045.155 -746.956)" fill="url(#linear-gradient)"/>
            </g>
            <g id="组_169" data-name="组 169" transform="translate(50.913 5.932)">
              <path id="路径_15961" data-name="路径 15961" d="M1136.6,747.066a.6.6,0,0,1,.492-.271,1.6,1.6,0,0,1,.418.007,3.492,3.492,0,0,1,.51.129,4.3,4.3,0,0,1,.579.278,3.764,3.764,0,0,1,.609.464,3.6,3.6,0,0,1,1.005,1.6,3.775,3.775,0,0,1,.14,1.34,4.4,4.4,0,0,1-.472,1.623,6.686,6.686,0,0,1-2.342,2.487,8.742,8.742,0,0,1-1.356.72,7.91,7.91,0,0,1-1.2.394c-.706.163-1.166.148-1.185.078s.376-.28.928-.662c.274-.2.591-.425.911-.7a9.786,9.786,0,0,0,.952-.943,7.167,7.167,0,0,0,.8-1.1,4.431,4.431,0,0,0,.47-1.1,2.584,2.584,0,0,0,.087-.867,2.984,2.984,0,0,0-.117-.549,4.056,4.056,0,0,0-.37-.834c-.069-.143-.17-.276-.245-.417s-.175-.267-.249-.4a3.2,3.2,0,0,1-.217-.373,2.481,2.481,0,0,1-.153-.339A.7.7,0,0,1,1136.6,747.066Z" transform="translate(-1133.802 -746.784)" fill="url(#linear-gradient)"/>
            </g>
            <g id="组_170" data-name="组 170" transform="translate(55.559 12.971)">
              <path id="路径_15962" data-name="路径 15962" d="M1148.208,761.481a1.135,1.135,0,0,1-.269.428,2.21,2.21,0,0,1-.4.315,2.506,2.506,0,0,1-.971.351c-.184.021-.5.024-.888.068a7.145,7.145,0,0,0-1.295.266c-.108.036-.22.069-.326.107l-.311.116c-.195.085-.385.161-.539.237s-.292.137-.4.177-.177.052-.209.029-.03-.09-.008-.2a1.924,1.924,0,0,1,.145-.44,4.174,4.174,0,0,1,.321-.594c.071-.1.147-.211.229-.321s.176-.213.271-.323a5.59,5.59,0,0,1,1.374-1.1,3.784,3.784,0,0,1,1.3-.481,2.119,2.119,0,0,1,1.6.379,1.079,1.079,0,0,1,.365.486A.757.757,0,0,1,1148.208,761.481Z" transform="translate(-1142.584 -760.092)" fill="url(#linear-gradient)"/>
            </g>
            <path id="路径_15963" data-name="路径 15963" d="M1108.425,745.946c-.006-.2-.039-.395-.057-.591s-.038-.391-.073-.584a10.321,10.321,0,0,0-1.692-4.213,10.8,10.8,0,0,0-3.083-2.86,13.584,13.584,0,0,0-3.505-1.505,17.416,17.416,0,0,0-3.377-.579,20.284,20.284,0,0,0-3.035.03l-.693.068-.664.1c-.218.028-.429.07-.635.111s-.41.076-.607.121l-.575.14-.277.069-.268.079-.515.152c-.167.049-.326.112-.483.164a17.079,17.079,0,0,0-2.768,1.238c-.154.079-.281.163-.394.231l-.28.174-.227.141.238-.122.293-.15c.117-.059.25-.133.409-.2a17.536,17.536,0,0,1,2.819-1.023c.157-.041.316-.092.484-.129l.515-.114.266-.06.276-.049.571-.1c.194-.031.4-.052.6-.079s.411-.055.625-.068l.65-.053.676-.024a20.175,20.175,0,0,1,2.922.143,16.953,16.953,0,0,1,3.171.721,12.751,12.751,0,0,1,3.161,1.542,9.708,9.708,0,0,1,2.612,2.637,9.048,9.048,0,0,1,1.315,3.686c.024.168.029.341.044.512s.034.344.033.514a8.692,8.692,0,0,1-.21,2.038c-.044.167-.1.332-.144.5a4.033,4.033,0,0,1-.175.492,8.661,8.661,0,0,1-.443.958l-.278.459-.069.115-.079.111-.158.221a10.152,10.152,0,0,1-1.489,1.641,15.992,15.992,0,0,1-3.924,2.538,23.547,23.547,0,0,1-4.663,1.6,25.2,25.2,0,0,1-2.489.449,23.019,23.019,0,0,1-2.543.179c-.212,0-.425,0-.636,0l-.63-.025-.623-.051-.644-.08c-.859-.112-1.716-.2-2.558-.359l-1.262-.211c-.418-.078-.832-.17-1.246-.253s-.826-.165-1.235-.259l-1.218-.294c-3.233-.791-6.308-1.774-9.223-2.779s-5.672-2.033-8.27-2.965-5.032-1.772-7.276-2.48c-1.128-.338-2.2-.671-3.219-.953s-2-.527-2.922-.713a18.06,18.06,0,0,0-4.805-.413,8.861,8.861,0,0,0-1.74.288c-.19.053-.362.112-.525.172l-.157.039c-.07.017-.14.034-.209.057l-.206.063c-.068.022-.135.048-.2.071-.134.046-.263.1-.393.157a6.573,6.573,0,0,0-1.4.839,6.235,6.235,0,0,0-.583.526,5.208,5.208,0,0,0-1.386,2.495,4.5,4.5,0,0,0-.1,1.257,4.848,4.848,0,0,0,.2,1.093,5.3,5.3,0,0,0,.385.94l.121.219a1.2,1.2,0,0,0,.065.108l.069.108c.044.074.1.141.147.209l.076.1.081.1a5.022,5.022,0,0,0,.7.695,6.249,6.249,0,0,0,.788.547,7.277,7.277,0,0,0,1.7.719,7.2,7.2,0,0,0,.872.192c.146.026.292.04.436.057.072.008.146.011.217.016s.145.011.217.011l.216,0c.071,0,.143,0,.215,0l.107,0,.106-.007.212-.016.21-.026.1-.013.1-.019.206-.038.2-.049c.067-.015.134-.034.2-.055s.132-.039.2-.061c.129-.049.258-.091.381-.15a4.462,4.462,0,0,0,.7-.386l.16-.116.079-.058.075-.064.149-.127.137-.138.068-.069c.022-.023.042-.049.063-.073l.123-.146c.038-.051.074-.1.111-.154l.055-.077c.017-.026.032-.053.048-.08l.095-.16.082-.165.04-.083.033-.084.065-.168.051-.17c.008-.028.017-.056.025-.085l.019-.085c.012-.057.025-.113.036-.169l.023-.17c0-.028.008-.056.011-.084l0-.084c0-.056.006-.111.009-.166s0-.11,0-.165l0-.081c0-.027,0-.054-.007-.08-.005-.053-.011-.107-.015-.159s-.018-.1-.026-.156a2.89,2.89,0,0,0-.069-.3,3.048,3.048,0,0,0-.5-1.017,2.826,2.826,0,0,0-.717-.671,2.646,2.646,0,0,0-.743-.339l-.087-.025-.086-.018-.163-.033c-.107-.012-.206-.024-.3-.03h-.255l-.085.007a1.121,1.121,0,1,0,.494.292l.081.021.142.048.074.025.074.031a2.541,2.541,0,0,1,1.175.97,2.616,2.616,0,0,1,.365.874,2.4,2.4,0,0,1,.043.252c0,.043.012.086.015.13s0,.088.006.132c0,.022,0,.044,0,.067l0,.067,0,.135c0,.045-.009.09-.015.136l-.007.068c0,.023-.009.046-.012.068l-.025.137-.035.136-.018.069c-.007.022-.016.044-.024.067l-.047.135c-.019.044-.039.088-.059.133l-.029.067-.035.064-.07.13-.082.125c-.014.021-.026.042-.041.063l-.047.06c-.031.04-.061.081-.094.121l-.1.114c-.017.019-.034.039-.052.057l-.058.053-.115.107-.125.1-.062.05-.067.046-.135.092a4.654,4.654,0,0,1-2.738.626c-.064,0-.127-.008-.191-.013s-.129-.01-.193-.019c-.128-.017-.258-.032-.387-.057a6.725,6.725,0,0,1-2.27-.838,5.5,5.5,0,0,1-.678-.479,4.22,4.22,0,0,1-.587-.585l-.066-.079-.06-.083a2,2,0,0,1-.117-.168l-.055-.087a.969.969,0,0,1-.053-.09l-.1-.188a4.481,4.481,0,0,1-.322-.789,4.079,4.079,0,0,1-.163-.9,3.685,3.685,0,0,1,.078-1.024,4.105,4.105,0,0,1,.4-1.075c.044-.091.1-.176.154-.266s.117-.172.176-.26a5.107,5.107,0,0,1,.419-.5,5.5,5.5,0,0,1,.5-.459,5.838,5.838,0,0,1,1.217-.746c.113-.048.225-.1.343-.141.059-.022.117-.045.176-.065l.18-.058c.06-.021.121-.036.182-.052s.122-.033.186-.049l.392-.084c.066-.014.132-.03.2-.041l.2-.034.2-.034c.067-.012.134-.023.2-.03l.408-.048c.136-.014.274-.018.412-.029s.277-.011.417-.012h.209c.07,0,.14.006.21.008l.211.011c.07,0,.141.006.212.016l.425.047c.339.037.679.048,1.017.094.3.041.6.091.9.112q.8.054,1.587.159l1.207.16a.1.1,0,0,0-.011-.005c.369.117.743.239,1.127.369,1,.336,2.04.725,3.138,1.117,2.188.817,4.565,1.761,7.115,2.8s5.274,2.163,8.186,3.265a92.348,92.348,0,0,0,9.324,3.039l1.247.321c.419.1.844.188,1.269.284s.851.191,1.282.275l1.3.231c.869.17,1.758.269,2.649.388l.671.086.7.059.7.029c.235.007.469,0,.7,0a25.341,25.341,0,0,0,10.483-2.491,17.416,17.416,0,0,0,4.317-2.92,11.734,11.734,0,0,0,1.685-1.955l.18-.267.089-.133.08-.14.316-.559a10.224,10.224,0,0,0,.5-1.172,5.19,5.19,0,0,0,.194-.6c.052-.2.108-.407.155-.61a9.787,9.787,0,0,0,.162-1.232A9.688,9.688,0,0,0,1108.425,745.946Z" transform="translate(-1037.552 -735.57)" fill="url(#linear-gradient)"/>
          </g>
          <path id="路径_15964" data-name="路径 15964" d="M964.746,760.173l-1.606,3.4.01.013c.655.88,1.629,5.358,1.629,5.358a.024.024,0,0,0,.047.005c.188-.939.946-4.6,1.516-5.363l.01-.013Z" transform="translate(-852.429 -724.83)" fill="url(#linear-gradient)"/>
          <g id="组_176" data-name="组 176" transform="translate(48.137)">
            <g id="组_174" data-name="组 174" transform="translate(51.306)">
              <g id="组_172" data-name="组 172" transform="translate(16.084 7.215)">
                <path id="路径_15965" data-name="路径 15965" d="M981.229,710.873a.922.922,0,0,0,.515-.642,1.951,1.951,0,0,0-.17-1.274,3.273,3.273,0,0,0-1.355-1.426,4.122,4.122,0,0,0-2.343-.521,4.8,4.8,0,0,0-1.5.361,5.908,5.908,0,0,0-1.649,1.017,6.866,6.866,0,0,0-1.346,1.582,7.663,7.663,0,0,0-.824,1.844,8.48,8.48,0,0,0-.3,1.776c-.011.275-.013.535,0,.777s.031.468.06.672.066.388.1.548a3.558,3.558,0,0,0,.121.409c.079.223.152.344.213.344s.127-.121.216-.331l.334-.857c.07-.175.156-.36.238-.556s.19-.395.3-.6a8.941,8.941,0,0,1,.778-1.2,6.278,6.278,0,0,1,.994-1,4.713,4.713,0,0,1,1.052-.634,3.5,3.5,0,0,1,.9-.261,1.425,1.425,0,0,1,.178-.023,1.069,1.069,0,0,1,.157-.015,1.2,1.2,0,0,0,.136-.012.884.884,0,0,0,.113,0c.279-.019.5-.035.727-.045a4.187,4.187,0,0,1,.736.018A3.371,3.371,0,0,0,981.229,710.873Z" transform="translate(-972.245 -706.999)" fill="url(#linear-gradient)"/>
              </g>
              <path id="路径_15966" data-name="路径 15966" d="M966.663,699.986a31.1,31.1,0,0,0-1.942,8.77c0,.04-.026.069-.053.069l-1.457,1.65a.485.485,0,0,1-.726,0l-1.457-1.65c-.027,0-.051-.029-.054-.069a31.2,31.2,0,0,0-1.941-8.77c-.012-.029,3-5.416,3.68-6.542a.15.15,0,0,1,.271,0C963.661,694.57,966.676,699.957,966.663,699.986Z" transform="translate(-949.937 -693.359)" fill="url(#linear-gradient)"/>
              <g id="组_173" data-name="组 173" transform="translate(0 7.215)">
                <path id="路径_15967" data-name="路径 15967" d="M942.4,710.873a.923.923,0,0,1-.515-.642,1.948,1.948,0,0,1,.17-1.274,3.272,3.272,0,0,1,1.355-1.426,4.124,4.124,0,0,1,2.343-.521,4.8,4.8,0,0,1,1.5.361,5.916,5.916,0,0,1,1.649,1.017,6.863,6.863,0,0,1,1.346,1.582,7.66,7.66,0,0,1,.824,1.844,8.476,8.476,0,0,1,.3,1.776c.011.275.013.535,0,.777s-.031.468-.06.672-.066.388-.1.548a3.58,3.58,0,0,1-.12.409c-.079.223-.152.344-.213.344s-.128-.121-.216-.331l-.334-.857c-.07-.175-.157-.36-.238-.556s-.19-.395-.3-.6a8.884,8.884,0,0,0-.778-1.2,6.3,6.3,0,0,0-.994-1,4.714,4.714,0,0,0-1.052-.634,3.51,3.51,0,0,0-.9-.261,1.439,1.439,0,0,0-.178-.023,1.075,1.075,0,0,0-.157-.015,1.184,1.184,0,0,1-.136-.012.894.894,0,0,1-.114,0c-.278-.019-.5-.035-.726-.045a4.185,4.185,0,0,0-.736.018A3.373,3.373,0,0,1,942.4,710.873Z" transform="translate(-941.838 -706.999)" fill="url(#linear-gradient)"/>
              </g>
            </g>
            <path id="路径_15968" data-name="路径 15968" d="M964.587,726.852l-1.861,1.766h0c.335.45,1.861,3.041,1.861,3.041h0s1.454-2.591,1.789-3.041h0Z" transform="translate(-900.37 -709.135)" fill="url(#linear-gradient)"/>
            <path id="路径_15969" data-name="路径 15969" d="M901.228,715.63l.377.1,1.392.4,1.057.291.77.184.007-.017-.741-.281-.6-.24-.108-.084-.125-.1c.05.012.1.021.151.034a5.069,5.069,0,0,1,1.448.607c0-.013.011-.025.016-.038a1.167,1.167,0,0,1,.1-.221,5.37,5.37,0,0,0-1.484-.669,8.873,8.873,0,0,0-.958-.215,15.105,15.105,0,0,0-1.875-1.019l-.369-.168-.39-.161c-.265-.114-.547-.211-.838-.32a19.687,19.687,0,0,0-1.9-.561,16.2,16.2,0,0,0-2.167-.368c-.381-.036-.775-.055-1.171-.054l-.6.014c-.2.007-.4.025-.6.039a24.337,24.337,0,0,0-5.821,1.279,39.168,39.168,0,0,0-3.86,1.572c-.466.162-1.043.35-1.692.613s-1.385.562-2.188.9c-.786.369-1.637.779-2.534,1.218-.878.476-1.809.969-2.748,1.517-.688.409-1.356.815-2,1.209a21.231,21.231,0,0,0-1.794,1.28l-1.544,1.221c-.482.379-.939.718-1.363,1.018a11.692,11.692,0,0,1-2.129,1.208c-.134.053-.253.1-.358.143l-.27.086-.223.072.23-.04.281-.05c.11-.025.235-.061.377-.1a10.392,10.392,0,0,0,2.287-.995c.457-.265.95-.571,1.463-.918s1.052-.728,1.617-1.123,1.156-.8,1.791-1.173q.975-.563,2-1.174l2.7-1.556c.871-.468,1.691-.919,2.447-1.338.771-.384,1.475-.742,2.1-1.062s1.172-.569,1.617-.783c.933-.313,2.295-.757,3.95-1.206a32.768,32.768,0,0,1,5.722-1.053c.194-.012.387-.031.578-.039l.57-.02c.376-.007.742,0,1.107.028a19.053,19.053,0,0,1,2.1.27c.666.12,1.293.276,1.878.429.29.086.574.159.841.248l.395.125.374.131c.559.2,1.046.4,1.46.582-.2-.023-.4-.043-.6-.058a14.971,14.971,0,0,0-3.365-.832c-.18-.031-.362-.035-.546-.052s-.371-.03-.56-.038c-.377,0-.763-.028-1.155-.008a18.748,18.748,0,0,0-2.417.216,30.077,30.077,0,0,0-5.916,1.637c-.839.313-1.6.621-2.263.894-.333.139-.644.264-.928.391l-.775.351-.806.267-.942.363c-.679.251-1.426.589-2.246.952-1.628.75-3.489,1.719-5.448,2.789-1.44.792-2.809,1.542-4.067,2.164a28.891,28.891,0,0,1-3.479,1.361c-.511.151-.967.316-1.381.4a5.057,5.057,0,0,0-1.059.332,1.594,1.594,0,0,0-.24.142l-.349.03-.8.051-.4.024-.4.014c-.263.008-.527.024-.788.024a23.142,23.142,0,0,1-3.078-.143l-.374-.049c-.124-.017-.249-.029-.371-.055l-.733-.135-.717-.175c-.12-.026-.236-.062-.353-.1l-.349-.107c-.116-.038-.233-.067-.346-.111l-.34-.128c-.226-.084-.452-.164-.67-.267s-.44-.188-.654-.292l-.635-.322c-.106-.051-.209-.111-.311-.17l-.307-.176-.3-.175c-.1-.058-.2-.124-.3-.186l-.588-.374c-.095-.063-.183-.127-.274-.191s-.181-.126-.267-.2l-.259-.2c-.086-.068-.166-.142-.249-.213-.168-.138-.32-.292-.477-.44a9.989,9.989,0,0,1-.844-.95,10.258,10.258,0,0,1-.7-1.016,9.728,9.728,0,0,1-.543-1.062,9.318,9.318,0,0,1-.394-1.078c-.045-.181-.1-.36-.135-.539s-.077-.356-.1-.533a7.453,7.453,0,0,1-.029-2.031,6.689,6.689,0,0,1,.466-1.754,7.24,7.24,0,0,1,.783-1.4,7.851,7.851,0,0,1,.981-1.125l.275-.252a1.568,1.568,0,0,1,.139-.118l.139-.112c.09-.078.19-.143.288-.212l.147-.1.153-.093a7.175,7.175,0,0,1,1.292-.626,9.265,9.265,0,0,1,1.379-.4,11.343,11.343,0,0,1,4.175-.048c.224.034.443.087.662.134.109.024.216.057.324.084s.215.056.319.091a8.015,8.015,0,0,1,4.087,2.67l.166.234.083.116.072.121.146.24.124.248.062.123c.019.042.034.085.052.126l.1.252c.029.085.054.171.081.256l.041.127c.012.043.02.087.03.13l.06.257c.013.087.026.173.039.259l.02.129.009.129.018.257,0,.254c0,.042,0,.084,0,.126l-.01.125-.021.248c-.013.082-.025.163-.039.244-.006.04-.012.081-.019.121l-.029.118c-.018.079-.037.157-.055.235s-.048.152-.072.227l-.035.113c-.014.036-.029.072-.043.109l-.086.216c-.031.07-.067.138-.1.207a4.351,4.351,0,0,1-.216.394,4.6,4.6,0,0,1-1.1,1.241,4.322,4.322,0,0,1-1.267.689,4.173,4.173,0,0,1-1.205.229c-.047,0-.093.007-.139.009l-.134,0-.259,0-.144-.014a1.994,1.994,0,0,0,1.081-1.992,1.947,1.947,0,0,0-2.126-1.766,1.988,1.988,0,0,0,.075,3.951l.134.063.415.149c.153.047.322.084.5.128l.284.042.15.021c.051.005.1.006.155.01a4.445,4.445,0,0,0,1.4-.123,4.835,4.835,0,0,0,1.554-.692,5.309,5.309,0,0,0,1.406-1.4,5.229,5.229,0,0,0,.286-.459c.044-.08.091-.16.132-.243l.118-.256c.019-.043.04-.086.058-.13l.05-.134.1-.272.081-.282.041-.143c.012-.048.021-.1.031-.146l.061-.3c.015-.1.026-.2.04-.3l.019-.154c0-.051.006-.1.009-.155,0-.1.01-.209.015-.314s-.006-.211-.009-.318l-.005-.16-.017-.16c-.012-.107-.024-.215-.036-.323s-.041-.215-.061-.323c-.011-.054-.02-.108-.032-.162l-.044-.16c-.03-.107-.058-.215-.091-.322l-.115-.317c-.02-.052-.038-.106-.06-.159l-.07-.154c-.048-.1-.1-.207-.144-.31l-.167-.3-.085-.151-.094-.144-.193-.289a7.815,7.815,0,0,0-.92-1.061c-.166-.171-.352-.318-.532-.476-.093-.076-.19-.145-.285-.219s-.192-.145-.293-.211l-.3-.2-.313-.186-.157-.093-.162-.085-.326-.169-.335-.152-.169-.076-.172-.068c-.115-.045-.23-.092-.346-.135l-.353-.12c-.118-.042-.238-.076-.359-.111s-.241-.072-.363-.1c-.245-.059-.49-.122-.741-.165a12.017,12.017,0,0,0-1.528-.2,12.257,12.257,0,0,0-3.174.19,10.624,10.624,0,0,0-1.6.444,8.555,8.555,0,0,0-1.547.739l-.187.113-.182.125c-.122.084-.244.166-.36.261l-.175.14c-.059.047-.117.094-.169.143l-.323.294a9.263,9.263,0,0,0-1.169,1.339,8.647,8.647,0,0,0-.95,1.705,8.153,8.153,0,0,0-.563,2.156,9.417,9.417,0,0,0,.808,4.981,11.121,11.121,0,0,0,.642,1.223,11.591,11.591,0,0,0,.817,1.157,11.469,11.469,0,0,0,.976,1.074c.18.166.356.339.549.495.1.079.188.161.286.238l.3.227c.1.078.2.148.306.219s.208.144.313.212l.626.387c.106.064.209.132.318.193l.327.182.33.183c.11.061.22.123.335.177l.687.337c.232.109.473.2.71.307s.484.191.73.279l.371.132c.123.045.252.077.378.115l.381.112c.127.038.254.075.385.1l.78.178.792.134c.132.025.266.037.4.053l.4.046a24.138,24.138,0,0,0,3.242.1c.272-.005.542-.025.815-.038l.408-.021.407-.032.816-.066.815-.083c.272-.026.544-.058.816-.091l.817-.1.826-.123.414-.062c.138-.021.274-.051.411-.077l.822-.159c.273-.056.544-.125.817-.187.546-.119,1.082-.276,1.622-.421.27-.071.534-.161.8-.24s.536-.158.8-.251c.528-.179,1.058-.352,1.578-.549,1.048-.376,2.074-.8,3.093-1.217s2.018-.87,3.005-1.319,1.965-.9,2.931-1.341,1.918-.873,2.867-1.3c1.891-.86,3.707-1.718,5.481-2.446.885-.367,1.761-.694,2.623-.989s1.713-.531,2.544-.733A17.966,17.966,0,0,1,901.228,715.63Zm1.848.214c.115.064.213.121.288.165l.038.022-.33-.132-.27-.109C902.894,715.806,902.985,715.824,903.075,715.843Zm-6.562-.227c-.853.186-1.727.408-2.608.686s-1.777.59-2.68.942c-1.807.7-3.652,1.519-5.55,2.336-.949.406-1.922.82-2.9,1.245s-1.958.855-2.951,1.281-2,.844-3.007,1.252-2.035.793-3.07,1.143c-.515.184-1.037.344-1.557.51-.259.087-.523.154-.784.232s-.522.156-.787.221c-.527.131-1.052.276-1.583.381-.265.056-.528.119-.794.168l-.8.14c-.133.022-.265.049-.4.067l-.4.053-.8.106-.808.083c-.269.029-.537.056-.8.076l-.188.016.02-.008a5.2,5.2,0,0,1,1.056-.2c.43-.045.9-.166,1.434-.272a22.7,22.7,0,0,0,3.635-1.138c1.325-.574,2.726-1.288,4.167-2.08,1.964-1.073,3.771-2.113,5.337-2.962.788-.411,1.5-.807,2.15-1.115l.9-.45.77-.349.8-.265c.293-.1.616-.191.958-.3.687-.212,1.463-.458,2.313-.713a43.325,43.325,0,0,1,5.856-1.412,22.909,22.909,0,0,1,2.332-.241c.378-.03.749-.019,1.113-.03.182,0,.362.01.54.014s.355,0,.526.024a14,14,0,0,1,1.475.176A20.521,20.521,0,0,0,896.514,715.616Z" transform="translate(-844.845 -699.99)" fill="url(#linear-gradient)"/>
            <path id="路径_15970" data-name="路径 15970" d="M911.289,710.447l-.5.161c-.149.049-.3.088-.45.132s-.3.089-.451.126c-.3.075-.6.158-.907.219-.152.032-.3.068-.455.1l-.457.08c-.076.013-.152.029-.228.039l-.229.03-.457.06-.463.048c-.154.016-.307.032-.461.044l-.108.009.011,0a2.462,2.462,0,0,1,.495-.1c-.172.018-.345.032-.522.039a.96.96,0,0,0-.136.08l-.2.017-.457.03-.227.014-.227.008c-.151,0-.3.014-.451.014a13.279,13.279,0,0,1-1.764-.082l-.214-.028c-.071-.009-.143-.016-.213-.032l-.42-.077-.411-.1c-.069-.015-.136-.036-.2-.057l-.2-.061c-.066-.022-.134-.039-.2-.063l-.195-.073c-.13-.048-.259-.094-.384-.153s-.252-.108-.375-.168l-.364-.185c-.061-.03-.12-.064-.178-.1l-.176-.1-.175-.1c-.058-.033-.114-.071-.171-.107l-.337-.214c-.054-.036-.1-.074-.157-.109s-.1-.072-.153-.112l-.149-.116c-.049-.039-.1-.081-.143-.122-.1-.079-.183-.168-.273-.252a5.822,5.822,0,0,1-.483-.545,5.89,5.89,0,0,1-.4-.582,5.715,5.715,0,0,1-.312-.609,5.176,5.176,0,0,1-.225-.617c-.026-.1-.057-.206-.077-.308s-.044-.2-.056-.306a4.284,4.284,0,0,1-.016-1.164,3.85,3.85,0,0,1,.267-1.005,4.132,4.132,0,0,1,.449-.8,4.5,4.5,0,0,1,.562-.645l.158-.144a1.029,1.029,0,0,1,.079-.068l.08-.063a1.969,1.969,0,0,1,.165-.121l.084-.059.088-.053a4.1,4.1,0,0,1,.74-.359,5.375,5.375,0,0,1,.79-.227,6.36,6.36,0,0,1,1.611-.116,6.25,6.25,0,0,1,.782.088c.129.02.254.05.379.077.062.014.124.032.186.048s.123.032.183.052a4.588,4.588,0,0,1,2.342,1.53l.1.134.047.067.042.069.083.138.071.142.035.07c.011.024.02.049.03.073l.059.144c.016.049.031.1.047.147l.023.073c.007.024.012.049.017.074l.034.148.022.148.012.074.005.074.01.147v.146c0,.024,0,.048,0,.072l-.006.072c0,.048-.008.1-.012.142l-.022.139c0,.023-.007.047-.011.07l-.016.067-.032.135-.041.13-.021.065c-.007.021-.016.042-.024.062l-.049.124c-.017.04-.038.079-.057.118a2.568,2.568,0,0,1-.124.226,2.635,2.635,0,0,1-.631.711,2.465,2.465,0,0,1-.726.4,2.411,2.411,0,0,1-.69.132l-.079,0-.077,0-.148,0-.083-.008a1.142,1.142,0,0,0,.619-1.141,1.116,1.116,0,0,0-1.219-1.011,1.139,1.139,0,0,0,.043,2.264l.077.037.238.085c.087.026.184.048.287.074l.163.024.086.012c.03,0,.059,0,.089.005a2.558,2.558,0,0,0,.8-.07,2.78,2.78,0,0,0,.89-.4,3.042,3.042,0,0,0,.806-.8,2.871,2.871,0,0,0,.164-.263c.025-.046.052-.092.076-.14l.068-.146c.011-.025.023-.049.033-.074l.029-.077.057-.156.047-.162.023-.081c.006-.028.012-.056.018-.084.012-.056.023-.113.034-.17s.015-.115.023-.174l.011-.088c0-.03,0-.059.005-.089,0-.06.005-.12.008-.18l-.005-.183,0-.091-.01-.092-.021-.185-.035-.185c-.006-.031-.011-.062-.019-.093l-.025-.092c-.017-.061-.033-.123-.052-.184l-.066-.181c-.012-.031-.022-.061-.034-.091l-.04-.089-.083-.178-.1-.172-.049-.086-.054-.083-.11-.166a4.509,4.509,0,0,0-.527-.608c-.1-.1-.2-.182-.305-.272-.053-.043-.109-.083-.163-.125s-.11-.083-.168-.121l-.172-.115-.179-.106-.09-.053-.093-.048-.187-.1-.192-.087-.1-.043-.1-.039c-.066-.026-.132-.053-.2-.077l-.2-.069c-.067-.024-.136-.043-.205-.063s-.138-.041-.208-.058c-.141-.034-.281-.07-.425-.095a6.921,6.921,0,0,0-.875-.114,7,7,0,0,0-1.819.109,6.1,6.1,0,0,0-.916.255,4.9,4.9,0,0,0-.887.424l-.107.065-.1.071c-.07.048-.14.095-.206.15l-.1.08a1.162,1.162,0,0,0-.1.082l-.185.169a5.274,5.274,0,0,0-.67.767,4.962,4.962,0,0,0-.544.977,4.682,4.682,0,0,0-.323,1.236,5.4,5.4,0,0,0,.463,2.855,6.416,6.416,0,0,0,.368.7,6.581,6.581,0,0,0,.468.663,6.65,6.65,0,0,0,.559.616c.1.1.2.194.315.284.054.045.108.093.164.136l.171.13c.056.044.116.085.175.125s.12.083.179.122l.359.222c.06.037.12.076.182.11l.188.1.188.1c.063.036.126.071.192.1l.394.193c.133.062.271.117.407.176s.277.109.418.16l.213.076c.071.026.144.044.216.066l.219.063c.073.022.145.043.221.059l.446.1.454.077c.076.014.152.021.229.03l.23.026a13.841,13.841,0,0,0,1.858.058c.156,0,.311-.015.467-.021l.234-.012.234-.018.468-.038.467-.048c.156-.015.312-.033.468-.052l.468-.056.473-.071.237-.035c.079-.012.157-.03.236-.044l.471-.091c.157-.032.312-.071.468-.107.313-.068.621-.159.929-.241.155-.041.307-.092.46-.138s.307-.09.458-.144c.3-.1.606-.2.9-.314.209-.075.416-.157.623-.237.013-.131.029-.262.043-.392C912.118,710.319,911.7,710.389,911.289,710.447Z" transform="translate(-868.522 -696.74)" fill="url(#linear-gradient)"/>
            <path id="路径_15971" data-name="路径 15971" d="M933.072,729.466a11.129,11.129,0,0,0-7.221-4.113,13.863,13.863,0,0,0-8.128,1.788c-2.878,1.462-5.472,3.331-8.205,5-2.59,1.578-5.443,3.046-8.609,3.167-.355.013-.684.193-.691.439-.165.214-.024.562.264.765,2.176,1.532,5.294,1.529,7.873.806,2.663-.748,4.131-3.1,5.442-5.211a4.291,4.291,0,0,0,1.559,3.254c.481.36,2.032,1.007.953-.635-1.129-1.718.464-3.977,1.805-5.452,1.6-1.758,4.238-2.563,6.632-2.845a.705.705,0,0,0,.182-.048c.236.011.474.029.712.057a9.115,9.115,0,0,1,8.008,7.879c.463,3.028-.054,7.259-3.234,9.085a5.576,5.576,0,0,1-4.67.2,3.917,3.917,0,0,1-.949-.763,3.123,3.123,0,0,1-.573-2.851,5.847,5.847,0,0,0,4.187-.331c1.66-.72,2.825-2.58,2.016-3.9a.9.9,0,0,0-.132-.268.614.614,0,0,0-.344-.4,5.6,5.6,0,0,0-7.964,3.759c-1.011,3.723,2.332,6.216,6.184,6.216,3.641,0,5.732-3.056,6.468-5.917A12.079,12.079,0,0,0,933.072,729.466Zm-4.338,8.067.041-.009-.059.057Z" transform="translate(-870.894 -708.382)" fill="url(#linear-gradient)"/>
            <g id="组_175" data-name="组 175" transform="translate(64.121 3.797)">
              <path id="路径_15972" data-name="路径 15972" d="M981.978,716.119c.831.2,1.682.44,2.544.733s1.737.622,2.623.989c1.774.729,3.59,1.586,5.481,2.446.948.428,1.9.857,2.867,1.3s1.941.895,2.931,1.341,1.992.888,3.005,1.319,2.045.841,3.092,1.217c.52.2,1.051.37,1.579.549.263.093.532.167.8.251s.533.169.8.24c.54.145,1.076.3,1.622.421.272.062.543.131.817.187l.822.159c.137.025.274.056.411.077l.414.062.826.123.817.1c.272.034.544.065.816.091l.815.083.816.066.407.032.408.021c.272.012.542.032.815.038a24.138,24.138,0,0,0,3.242-.1l.4-.046c.133-.016.267-.027.4-.053l.792-.134.78-.178c.131-.027.258-.065.385-.1l.381-.112c.126-.039.255-.07.378-.115l.371-.132c.246-.088.493-.172.73-.279s.478-.2.71-.307l.687-.337c.115-.054.225-.116.335-.177l.329-.183.327-.182c.109-.061.212-.129.318-.193l.627-.387c.1-.068.209-.142.313-.212s.208-.141.306-.219l.3-.227c.1-.077.191-.159.286-.238.193-.156.369-.329.549-.495a11.682,11.682,0,0,0,1.793-2.232,11.207,11.207,0,0,0,.642-1.223,9.428,9.428,0,0,0,.808-4.981,8.169,8.169,0,0,0-.563-2.156,8.666,8.666,0,0,0-.95-1.705,9.263,9.263,0,0,0-1.169-1.339l-.323-.294c-.052-.049-.109-.1-.169-.143l-.175-.14c-.115-.1-.239-.177-.36-.261l-.182-.125-.187-.113a8.551,8.551,0,0,0-1.547-.739,10.627,10.627,0,0,0-1.6-.444,12.257,12.257,0,0,0-3.174-.19,12.039,12.039,0,0,0-1.528.2c-.25.043-.5.106-.741.165-.122.029-.242.068-.363.1s-.241.068-.359.111l-.353.12c-.117.043-.232.09-.346.135l-.172.068-.169.076-.335.152-.326.169-.162.085-.158.093-.313.186-.3.2c-.1.065-.2.138-.293.211s-.192.143-.285.219c-.18.158-.367.3-.533.476a7.9,7.9,0,0,0-.92,1.061l-.192.289-.094.144-.085.151-.168.3-.143.31-.07.154c-.022.052-.04.106-.06.159l-.115.317c-.032.107-.061.215-.09.322l-.044.16c-.013.054-.022.108-.032.162q-.031.162-.061.323l-.036.323-.018.16-.005.16-.008.318c.005.105.01.21.015.314,0,.052,0,.1.009.155l.019.154c.013.1.025.2.04.3l.061.3c.011.049.02.1.031.146l.041.143.081.282.1.272.05.134c.018.044.039.087.058.13l.118.256c.041.083.088.163.132.243a5.112,5.112,0,0,0,.286.459,5.318,5.318,0,0,0,1.407,1.4,4.83,4.83,0,0,0,1.554.692,4.445,4.445,0,0,0,1.4.123c.052,0,.1,0,.156-.01l.149-.021.285-.042c.18-.044.349-.081.5-.128l.415-.149.134-.063a1.98,1.98,0,1,0-2.051-2.186,1.994,1.994,0,0,0,1.081,1.992l-.144.014-.259,0-.135,0c-.045,0-.092-.006-.138-.009a4.18,4.18,0,0,1-1.206-.229,4.326,4.326,0,0,1-1.267-.689,4.605,4.605,0,0,1-1.1-1.241,4.321,4.321,0,0,1-.216-.394c-.032-.069-.068-.136-.1-.207l-.086-.216c-.014-.036-.03-.072-.043-.109l-.035-.113-.072-.227c-.018-.078-.037-.156-.055-.235l-.029-.118c-.007-.04-.013-.08-.019-.121l-.039-.244-.021-.248-.011-.125c0-.042,0-.084,0-.126,0-.084,0-.169,0-.254s.012-.17.018-.257l.009-.129.02-.129c.013-.086.026-.172.039-.259l.06-.257c.011-.043.019-.087.031-.13l.041-.127c.028-.085.053-.171.082-.256s.068-.168.1-.252c.017-.042.033-.085.052-.126l.062-.123.125-.248.145-.24.073-.121.083-.116.166-.234a8.015,8.015,0,0,1,4.087-2.67c.1-.035.212-.062.32-.091s.214-.06.323-.084c.219-.047.438-.1.662-.134a11.342,11.342,0,0,1,4.175.048,9.265,9.265,0,0,1,1.379.4,7.149,7.149,0,0,1,1.291.626l.154.093.146.1c.1.069.2.134.288.212l.139.112a1.513,1.513,0,0,1,.139.118l.276.252a7.813,7.813,0,0,1,.98,1.125,7.215,7.215,0,0,1,.783,1.4,6.687,6.687,0,0,1,.467,1.754,7.451,7.451,0,0,1-.029,2.031c-.02.177-.063.354-.1.533s-.09.358-.135.539a9.307,9.307,0,0,1-.394,1.078,9.723,9.723,0,0,1-.544,1.062,10.158,10.158,0,0,1-.7,1.016,9.963,9.963,0,0,1-.844.95c-.157.147-.308.3-.476.44-.083.07-.164.144-.249.213l-.26.2c-.085.069-.176.132-.267.2s-.179.128-.274.191l-.588.374c-.1.062-.2.128-.3.186l-.305.175-.306.176c-.1.059-.2.119-.311.17l-.635.322c-.214.1-.435.194-.654.292s-.444.182-.67.267l-.34.128c-.113.043-.231.073-.346.111l-.349.107c-.116.037-.233.073-.353.1l-.717.175-.733.135c-.122.026-.247.038-.371.055l-.374.049a23.143,23.143,0,0,1-3.078.143c-.261,0-.524-.016-.788-.024l-.4-.014-.4-.024-.8-.051-.349-.03a1.6,1.6,0,0,0-.24-.142,5.058,5.058,0,0,0-1.059-.332c-.413-.087-.87-.253-1.381-.4a28.859,28.859,0,0,1-3.479-1.361c-1.257-.622-2.626-1.372-4.067-2.164-1.959-1.071-3.82-2.039-5.448-2.789-.82-.362-1.566-.7-2.245-.952l-.942-.363-.806-.267-.775-.351c-.285-.126-.6-.252-.928-.391-.668-.273-1.424-.582-2.263-.894a30.077,30.077,0,0,0-5.916-1.637,18.757,18.757,0,0,0-2.417-.216c-.392-.02-.778,0-1.155.008-.189.008-.376.026-.56.038s-.366.021-.546.052a14.963,14.963,0,0,0-3.365.832c-.2.015-.4.034-.6.058.414-.186.9-.385,1.46-.582l.374-.131.395-.125c.267-.089.55-.162.84-.248.586-.153,1.212-.309,1.878-.429a19.034,19.034,0,0,1,2.1-.27c.365-.024.731-.034,1.107-.028l.57.02c.191.008.384.027.578.039a32.76,32.76,0,0,1,5.722,1.053c1.656.449,3.017.893,3.95,1.206.445.214,1,.462,1.617.783s1.325.678,2.095,1.062c.756.418,1.576.87,2.448,1.338l2.7,1.556c.683.407,1.354.8,2,1.174.635.371,1.225.779,1.79,1.173s1.1.777,1.617,1.123,1.005.653,1.463.918a10.394,10.394,0,0,0,2.287.995c.142.037.267.073.377.1l.281.05.23.04-.223-.072-.269-.086c-.1-.039-.224-.09-.358-.143a11.694,11.694,0,0,1-2.129-1.208c-.424-.3-.881-.639-1.363-1.018l-1.544-1.221a21.233,21.233,0,0,0-1.794-1.28c-.643-.395-1.311-.8-2-1.209-.94-.548-1.872-1.041-2.749-1.517-.9-.44-1.747-.849-2.534-1.218-.8-.335-1.539-.636-2.188-.9s-1.226-.451-1.692-.613a39.166,39.166,0,0,0-3.86-1.572,24.343,24.343,0,0,0-5.821-1.279c-.2-.013-.4-.032-.6-.039l-.6-.014c-.4,0-.79.018-1.171.054a16.214,16.214,0,0,0-2.167.368,19.726,19.726,0,0,0-1.9.561c-.291.109-.573.206-.838.32l-.39.161-.369.168a15.107,15.107,0,0,0-1.875,1.019,8.85,8.85,0,0,0-.958.215,5.363,5.363,0,0,0-1.484.669,1.175,1.175,0,0,1,.1.221c0,.013.011.025.016.038a5.063,5.063,0,0,1,1.448-.607c.049-.013.1-.022.151-.034l-.125.1-.108.084-.6.24-.742.281.007.017.77-.184,1.057-.291,1.392-.4.377-.1A17.966,17.966,0,0,1,981.978,716.119Zm-6.183-.33-.27.109-.33.132.038-.022c.075-.044.172-.1.288-.165C975.612,715.824,975.7,715.806,975.8,715.789Zm3.364-.557a14,14,0,0,1,1.475-.176c.171-.021.349-.016.526-.024s.358-.014.54-.014c.364.011.736,0,1.113.03a22.91,22.91,0,0,1,2.332.241A43.347,43.347,0,0,1,991,716.7c.85.255,1.626.5,2.313.713.343.108.665.2.958.3l.8.265.77.349.9.45c.648.308,1.362.7,2.15,1.115,1.565.849,3.373,1.889,5.337,2.962,1.442.792,2.842,1.506,4.167,2.08a22.681,22.681,0,0,0,3.635,1.138c.529.106,1,.227,1.433.272a5.2,5.2,0,0,1,1.057.2l.02.008-.188-.016c-.267-.021-.535-.048-.8-.076l-.807-.083-.8-.106-.4-.053c-.133-.018-.265-.045-.4-.067l-.8-.14c-.266-.05-.529-.113-.794-.168-.531-.106-1.056-.25-1.583-.381-.264-.065-.525-.148-.787-.221s-.525-.145-.784-.232c-.52-.166-1.042-.326-1.557-.51-1.035-.35-2.056-.746-3.07-1.143s-2.015-.824-3.007-1.252-1.977-.856-2.951-1.281-1.946-.839-2.9-1.245c-1.9-.817-3.743-1.639-5.55-2.336-.9-.351-1.8-.663-2.68-.942s-1.756-.5-2.608-.686A20.519,20.519,0,0,0,979.159,715.232Z" transform="translate(-969.623 -703.787)" fill="url(#linear-gradient)"/>
              <path id="路径_15973" data-name="路径 15973" d="M1005.342,710.447l.5.161c.148.049.3.088.45.132s.3.089.451.126c.3.075.6.158.907.219.152.032.3.068.455.1l.456.08c.076.013.152.029.229.039l.229.03.457.06.462.048c.155.016.308.032.461.044l.108.009-.012,0a2.451,2.451,0,0,0-.494-.1c.172.018.345.032.521.039a.9.9,0,0,1,.136.08l.2.017.457.03.228.014.227.008c.151,0,.3.014.451.014a13.277,13.277,0,0,0,1.764-.082l.214-.028c.071-.009.143-.016.213-.032l.42-.077.411-.1c.069-.015.136-.036.2-.057l.2-.061c.066-.022.133-.039.2-.063l.195-.073c.13-.048.259-.094.384-.153s.252-.108.375-.168l.364-.185c.061-.03.12-.064.178-.1l.176-.1.175-.1c.058-.033.114-.071.171-.107l.337-.214c.054-.036.1-.074.157-.109s.1-.072.153-.112l.149-.116c.049-.039.1-.081.143-.122.1-.079.183-.168.273-.252a5.806,5.806,0,0,0,.484-.545,5.9,5.9,0,0,0,.4-.582,5.715,5.715,0,0,0,.312-.609,5.375,5.375,0,0,0,.225-.617c.026-.1.057-.206.077-.308s.045-.2.056-.306a4.306,4.306,0,0,0,.016-1.164,3.829,3.829,0,0,0-.268-1.005,4.138,4.138,0,0,0-.449-.8,4.5,4.5,0,0,0-.562-.645l-.158-.144a.941.941,0,0,0-.08-.068l-.08-.063a1.989,1.989,0,0,0-.165-.121l-.084-.059-.088-.053a4.1,4.1,0,0,0-.74-.359,5.387,5.387,0,0,0-.79-.227,6.356,6.356,0,0,0-1.61-.116,6.246,6.246,0,0,0-.782.088c-.129.02-.254.05-.379.077-.063.014-.124.032-.186.048s-.123.032-.183.052a4.589,4.589,0,0,0-2.342,1.53l-.1.134-.047.067-.042.069-.083.138-.071.142-.036.07c-.01.024-.02.049-.03.073l-.059.144c-.017.049-.031.1-.047.147l-.023.073c-.007.024-.012.049-.017.074l-.034.148-.022.148-.012.074-.005.074c0,.049-.007.1-.011.147s0,.1,0,.146c0,.024,0,.048,0,.072l.006.072c0,.048.008.1.012.142l.022.139c0,.023.007.047.011.07l.016.067.031.135.041.13.02.065c.008.021.017.042.025.062l.049.124c.017.04.038.079.057.118a2.537,2.537,0,0,0,.124.226,2.635,2.635,0,0,0,.631.711,2.469,2.469,0,0,0,.726.4,2.417,2.417,0,0,0,.691.132l.079,0,.077,0,.148,0,.083-.008a1.142,1.142,0,0,1-.619-1.141,1.116,1.116,0,0,1,1.219-1.011,1.139,1.139,0,0,1-.043,2.264l-.077.037-.238.085c-.088.026-.184.048-.288.074l-.163.024-.086.012c-.029,0-.059,0-.089.005a2.558,2.558,0,0,1-.8-.07,2.775,2.775,0,0,1-.89-.4,3.04,3.04,0,0,1-.806-.8,2.871,2.871,0,0,1-.164-.263c-.025-.046-.052-.092-.076-.14l-.067-.146c-.011-.025-.023-.049-.033-.074l-.029-.077-.058-.156-.047-.162-.023-.081c-.007-.028-.012-.056-.018-.084-.012-.056-.023-.113-.034-.17s-.015-.115-.023-.174l-.011-.088c0-.03,0-.059-.005-.089,0-.06-.006-.12-.009-.18l0-.183,0-.091.01-.092.021-.185.035-.185c.006-.031.012-.062.019-.093l.025-.092c.017-.061.033-.123.052-.184l.066-.181c.012-.031.022-.061.034-.091l.04-.089.083-.178.1-.172.049-.086.054-.083.11-.166a4.509,4.509,0,0,1,.527-.608c.1-.1.2-.182.305-.272.053-.043.108-.083.163-.125s.11-.083.168-.121l.173-.115.179-.106.09-.053.093-.048.187-.1.192-.087.1-.043.1-.039c.066-.026.132-.053.2-.077l.2-.069c.067-.024.136-.043.205-.063s.138-.041.208-.058c.14-.034.281-.07.425-.095a6.915,6.915,0,0,1,.875-.114,7,7,0,0,1,1.819.109,6.1,6.1,0,0,1,.916.255,4.934,4.934,0,0,1,.886.424l.107.065.1.071c.069.048.14.095.206.15l.1.08a1.238,1.238,0,0,1,.1.082l.185.169a5.307,5.307,0,0,1,.67.767,4.959,4.959,0,0,1,.544.977,4.706,4.706,0,0,1,.323,1.236,5.4,5.4,0,0,1-.463,2.855,6.416,6.416,0,0,1-.368.7,6.562,6.562,0,0,1-.468.663,6.629,6.629,0,0,1-.56.616c-.1.1-.2.194-.314.284-.055.045-.108.093-.164.136l-.171.13c-.056.044-.116.085-.175.125s-.12.083-.179.122l-.359.222c-.06.037-.12.076-.182.11l-.188.1-.189.1c-.063.036-.126.071-.192.1l-.394.193c-.133.062-.271.117-.407.176s-.277.109-.418.16l-.213.076c-.071.026-.144.044-.217.066l-.218.063c-.073.022-.146.043-.221.059l-.447.1-.454.077c-.076.014-.152.021-.229.03l-.23.026a13.841,13.841,0,0,1-1.858.058c-.156,0-.311-.015-.467-.021l-.234-.012-.233-.018-.468-.038-.467-.048c-.156-.015-.312-.033-.468-.052l-.468-.056-.473-.071-.237-.035c-.079-.012-.157-.03-.236-.044l-.471-.091c-.157-.032-.312-.071-.468-.107-.313-.068-.62-.159-.93-.241-.154-.041-.306-.092-.46-.138s-.307-.09-.458-.144c-.3-.1-.607-.2-.9-.314-.21-.075-.416-.157-.623-.237-.013-.131-.029-.262-.043-.392C1004.513,710.319,1004.926,710.389,1005.342,710.447Z" transform="translate(-983.979 -700.537)" fill="url(#linear-gradient)"/>
              <path id="路径_15974" data-name="路径 15974" d="M966.45,739.146c.735,2.861,2.827,5.917,6.468,5.917,3.852,0,7.2-2.492,6.184-6.216a5.6,5.6,0,0,0-7.965-3.759.615.615,0,0,0-.344.4.891.891,0,0,0-.132.268c-.809,1.32.355,3.18,2.016,3.9a5.847,5.847,0,0,0,4.187.331,3.078,3.078,0,0,1-.6,2.785,2.856,2.856,0,0,1-.927.829,5.668,5.668,0,0,1-4.67-.2c-3.18-1.826-3.7-6.057-3.234-9.085a9.115,9.115,0,0,1,8.008-7.879c.239-.029.476-.046.712-.057a.714.714,0,0,0,.182.048c2.394.282,5.032,1.087,6.631,2.845,1.341,1.475,2.935,3.734,1.806,5.452-1.079,1.641.472.995.953.635a4.291,4.291,0,0,0,1.559-3.254c1.311,2.115,2.779,4.463,5.442,5.211,2.579.724,5.7.727,7.873-.806.288-.2.428-.551.264-.765-.006-.246-.336-.426-.691-.439-3.166-.121-6.019-1.59-8.609-3.167-2.734-1.666-5.327-3.535-8.205-5a13.863,13.863,0,0,0-8.128-1.788,11.129,11.129,0,0,0-7.221,4.113A12.078,12.078,0,0,0,966.45,739.146Zm5.919-1.565-.059-.057.041.009C972.357,737.549,972.362,737.564,972.369,737.58Z" transform="translate(-966.063 -712.179)" fill="url(#linear-gradient)"/>
            </g>
          </g>
          <g id="组_180" data-name="组 180" transform="translate(0 22.229)">
            <g id="组_177" data-name="组 177" transform="translate(23.492 6.023)">
              <path id="路径_15975" data-name="路径 15975" d="M798.256,755.693l.44.14c.144.047.327.085.543.14.108.03.226.045.352.071s.26.053.4.071a20.5,20.5,0,0,0,4.9.053,46.132,46.132,0,0,0,7.138-1.3c1.322-.341,2.7-.741,4.108-1.206q1.058-.348,2.14-.747c.723-.267,1.443-.559,2.169-.853,1.45-.593,2.842-1.2,4.193-1.737s2.661-1.015,3.928-1.411a29.765,29.765,0,0,1,6.906-1.353c.5-.025.977-.029,1.427-.013s.873.059,1.265.117a8.2,8.2,0,0,1,1.964.537,6.263,6.263,0,0,1,1.138.628c.122.086.21.16.272.207l.093.071-.08-.084c-.055-.055-.132-.142-.242-.246a6.017,6.017,0,0,0-1.071-.793,8.06,8.06,0,0,0-1.971-.8,12.193,12.193,0,0,0-1.308-.266c-.468-.065-.965-.111-1.489-.134a26.347,26.347,0,0,0-7.253.867,41.246,41.246,0,0,0-4.113,1.287c-1.4.512-2.81,1.1-4.248,1.687-.72.292-1.427.584-2.125.854s-1.4.531-2.081.779c-1.371.5-2.7.946-3.983,1.351a61.059,61.059,0,0,1-6.884,1.792,23.1,23.1,0,0,1-4.766.474c-.142,0-.276-.013-.4-.019s-.244-.009-.353-.024c-.217-.025-.4-.038-.552-.063Z" transform="translate(-798.256 -746.767)" fill="url(#linear-gradient)"/>
            </g>
            <g id="组_178" data-name="组 178" transform="translate(13.41 5.932)">
              <path id="路径_15976" data-name="路径 15976" d="M782.958,746.877a.6.6,0,0,0-.492-.271,1.556,1.556,0,0,0-.418.007,3.518,3.518,0,0,0-.51.129,4.355,4.355,0,0,0-.579.278,3.764,3.764,0,0,0-.609.464,3.607,3.607,0,0,0-1.005,1.6,3.773,3.773,0,0,0-.14,1.34,4.381,4.381,0,0,0,.472,1.623,6.69,6.69,0,0,0,2.342,2.487,8.748,8.748,0,0,0,1.356.72,7.9,7.9,0,0,0,1.2.394c.707.162,1.167.148,1.185.078s-.376-.28-.928-.662c-.274-.2-.591-.425-.912-.7a9.777,9.777,0,0,1-.951-.943,7.178,7.178,0,0,1-.8-1.1,4.436,4.436,0,0,1-.47-1.1,2.6,2.6,0,0,1-.087-.867,3.024,3.024,0,0,1,.117-.549,4.057,4.057,0,0,1,.37-.834c.069-.143.17-.276.245-.417s.175-.267.249-.4a3.19,3.19,0,0,0,.217-.373,2.5,2.5,0,0,0,.153-.339A.7.7,0,0,0,782.958,746.877Z" transform="translate(-779.195 -746.596)" fill="url(#linear-gradient)"/>
            </g>
            <g id="组_179" data-name="组 179" transform="translate(9.666 12.972)">
              <path id="路径_15977" data-name="路径 15977" d="M772.156,761.292a1.139,1.139,0,0,0,.269.429,2.207,2.207,0,0,0,.4.315,2.509,2.509,0,0,0,.971.351c.184.021.5.024.889.068a7.134,7.134,0,0,1,1.294.266c.108.036.221.068.327.107l.311.116c.194.085.384.161.539.237s.292.137.4.177.178.052.209.029.03-.09.008-.2a1.955,1.955,0,0,0-.145-.44,4.236,4.236,0,0,0-.32-.594q-.107-.155-.23-.321c-.083-.109-.177-.213-.271-.323a5.589,5.589,0,0,0-1.373-1.1,3.792,3.792,0,0,0-1.3-.481,2.12,2.12,0,0,0-1.6.379,1.078,1.078,0,0,0-.364.485A.757.757,0,0,0,772.156,761.292Z" transform="translate(-772.117 -759.904)" fill="url(#linear-gradient)"/>
            </g>
            <path id="路径_15978" data-name="路径 15978" d="M753.858,745.757c.006-.2.039-.395.057-.591s.038-.391.073-.584a10.327,10.327,0,0,1,1.692-4.213,10.8,10.8,0,0,1,3.083-2.86A13.583,13.583,0,0,1,762.269,736a17.41,17.41,0,0,1,3.378-.579,20.14,20.14,0,0,1,3.035.03l.693.068.664.1c.217.028.428.07.635.111s.409.076.606.121l.575.14.278.068.268.079.515.152c.168.049.326.112.483.164a17.05,17.05,0,0,1,2.768,1.238c.154.079.281.163.394.231l.28.174.227.141-.239-.122-.292-.151c-.117-.059-.249-.132-.408-.2a17.552,17.552,0,0,0-2.819-1.022c-.158-.041-.317-.091-.485-.129l-.515-.115-.267-.059-.276-.049-.57-.1c-.195-.031-.4-.052-.6-.079s-.412-.055-.625-.068l-.651-.053-.676-.024a20.192,20.192,0,0,0-2.923.143,16.965,16.965,0,0,0-3.171.721,12.753,12.753,0,0,0-3.161,1.542,9.714,9.714,0,0,0-2.611,2.637,9.046,9.046,0,0,0-1.316,3.686c-.024.168-.028.341-.044.511s-.034.345-.032.515a8.044,8.044,0,0,0,.044,1.022,8.248,8.248,0,0,0,.166,1.016c.044.167.1.332.144.5a3.863,3.863,0,0,0,.175.492,8.68,8.68,0,0,0,.443.958l.278.459.069.115.079.11.158.221a10.174,10.174,0,0,0,1.489,1.641,16.022,16.022,0,0,0,3.924,2.538,23.546,23.546,0,0,0,4.663,1.6,25.254,25.254,0,0,0,2.489.449,23.021,23.021,0,0,0,2.543.179c.212,0,.425,0,.636,0l.631-.025.623-.051.645-.08c.86-.112,1.716-.2,2.559-.359l1.262-.211c.418-.078.832-.17,1.246-.253s.826-.165,1.235-.259l1.218-.294c3.233-.791,6.308-1.774,9.223-2.779s5.672-2.033,8.269-2.965,5.033-1.772,7.276-2.48c1.129-.338,2.2-.671,3.219-.953s2-.527,2.921-.713a18.057,18.057,0,0,1,4.806-.413,8.875,8.875,0,0,1,1.74.288c.19.053.362.112.525.172l.157.039c.07.017.14.034.208.057l.206.063c.068.022.134.048.2.071.135.046.263.1.393.157a6.55,6.55,0,0,1,.737.382,6.63,6.63,0,0,1,.665.458,6.3,6.3,0,0,1,.582.526,5.21,5.21,0,0,1,1.386,2.495,4.539,4.539,0,0,1,.1,1.257,4.873,4.873,0,0,1-.2,1.093,5.288,5.288,0,0,1-.384.94l-.121.22c-.019.036-.042.072-.065.108l-.069.108c-.045.073-.1.141-.147.209l-.076.1-.08.1a5.079,5.079,0,0,1-.7.695,6.306,6.306,0,0,1-.788.547,7.429,7.429,0,0,1-2.569.91c-.145.025-.291.04-.436.057-.073.008-.145.011-.217.016s-.144.011-.217.011l-.216,0c-.071,0-.143,0-.215,0l-.107,0-.106-.007-.212-.016-.21-.026-.1-.014-.1-.018-.206-.038-.2-.048c-.068-.015-.134-.035-.2-.055s-.132-.039-.2-.061c-.129-.049-.258-.091-.381-.15a4.454,4.454,0,0,1-.7-.386l-.16-.116-.079-.058-.075-.064-.148-.127-.138-.138-.068-.069c-.022-.023-.042-.049-.063-.073l-.123-.146c-.038-.051-.074-.1-.111-.154l-.054-.077c-.017-.026-.033-.053-.049-.08l-.095-.16c-.027-.055-.055-.11-.081-.165l-.04-.082-.033-.084-.065-.168-.052-.17c-.008-.028-.017-.056-.024-.084l-.019-.086c-.012-.057-.025-.113-.036-.169l-.023-.17c0-.028-.008-.056-.011-.084l-.005-.084-.009-.166c0-.055,0-.11,0-.165l0-.081c0-.027,0-.054.007-.081l.016-.159c.007-.052.017-.1.026-.156a3.088,3.088,0,0,1,.572-1.317,2.825,2.825,0,0,1,.717-.671,2.627,2.627,0,0,1,.743-.339c.029-.008.058-.018.086-.025l.086-.018.163-.033c.107-.012.206-.024.3-.03h.255l.085.007a1.121,1.121,0,1,1-.493.292l-.081.021-.142.048-.074.025-.074.031a2.454,2.454,0,0,0-.615.357,2.526,2.526,0,0,0-.561.614,2.617,2.617,0,0,0-.365.874,2.289,2.289,0,0,0-.043.252c0,.043-.012.086-.015.13s0,.087-.006.132c0,.022,0,.044,0,.067l0,.067,0,.135.014.136.007.068c0,.023.008.046.013.068l.025.137c.012.046.024.091.036.137l.018.068c.007.023.015.045.023.068l.047.135.059.133.029.067.036.065.07.13.081.125c.014.021.027.042.041.063l.047.06c.031.04.061.081.093.121l.1.114c.018.019.034.039.052.057l.058.053.115.107.125.1.062.05.067.046.135.092a4.653,4.653,0,0,0,2.738.626c.064,0,.128-.008.192-.013s.129-.01.193-.018c.129-.018.258-.032.387-.057a6.43,6.43,0,0,0,.775-.183,6.581,6.581,0,0,0,1.5-.654,5.526,5.526,0,0,0,.677-.479,4.221,4.221,0,0,0,.587-.585l.066-.079.061-.083c.04-.056.083-.109.117-.169l.055-.086a.872.872,0,0,0,.053-.09l.1-.188a4.487,4.487,0,0,0,.322-.789,4.051,4.051,0,0,0,.162-.9,3.713,3.713,0,0,0-.078-1.025,4.139,4.139,0,0,0-.4-1.075c-.045-.091-.1-.177-.154-.266s-.117-.172-.176-.26a5.227,5.227,0,0,0-.419-.5,5.378,5.378,0,0,0-.5-.459,5.836,5.836,0,0,0-1.217-.746c-.113-.048-.225-.1-.343-.141-.059-.022-.117-.045-.176-.065l-.18-.057c-.06-.021-.122-.036-.183-.052s-.122-.033-.186-.049l-.392-.085c-.066-.013-.132-.03-.2-.041l-.2-.034-.2-.034c-.067-.012-.134-.023-.2-.03l-.408-.048c-.136-.014-.274-.018-.412-.029s-.277-.011-.416-.012h-.209c-.07,0-.14.006-.21.008l-.211.011c-.07,0-.141.006-.211.016l-.425.046c-.339.038-.68.048-1.017.094-.3.041-.6.091-.9.112q-.8.054-1.587.159l-1.207.159.011,0c-.369.117-.743.239-1.127.369-1,.336-2.04.725-3.138,1.117-2.188.817-4.566,1.761-7.116,2.8s-5.274,2.163-8.186,3.265a92.33,92.33,0,0,1-9.324,3.039l-1.247.321c-.418.1-.844.188-1.268.283s-.851.19-1.282.275l-1.3.231c-.869.17-1.758.269-2.649.388l-.671.086-.7.059-.7.029c-.234.007-.468,0-.7,0a25.36,25.36,0,0,1-10.483-2.492,17.42,17.42,0,0,1-4.317-2.919,11.786,11.786,0,0,1-1.685-1.955l-.18-.267-.089-.133-.08-.14-.316-.559a10.1,10.1,0,0,1-.5-1.172,5.209,5.209,0,0,1-.194-.6c-.052-.2-.108-.407-.155-.61a9.774,9.774,0,0,1-.162-1.232A9.6,9.6,0,0,1,753.858,745.757Z" transform="translate(-753.844 -735.381)" fill="url(#linear-gradient)"/>
          </g>
        </g>
        <text id="最新消息" transform="translate(117.08 79.269)" fill="#fff" font-size="24" font-family="YuGothicUI-Regular, Yu Gothic UI"><tspan x="0" y="0">最新消息</tspan></text>
      </g>
    </g>
    <g id="组_127" data-name="组 127" transform="translate(543 799.184)">
      <g id="组_128" data-name="组 128">
        <g id="组_124" data-name="组 124" transform="translate(575.168)">
          <g id="组_123" data-name="组 123" transform="translate(11.311)">
            <path id="路径_15844" data-name="路径 15844" d="M204.136,420.894a18.468,18.468,0,0,0-9.068-.683,10.045,10.045,0,0,0-1.847.565,10.106,10.106,0,0,0,1.5-1.218,13.041,13.041,0,0,0,3.584-7.993,32.143,32.143,0,0,0-.27-7.713c-.325-2.335-.73-4.046-.73-4.046s-.408.49-1.015,1.365c-.618.86-1.4,2.174-2.269,3.661a35.425,35.425,0,0,0-2.508,5.191,20.7,20.7,0,0,0-1.521,6.138,6.358,6.358,0,0,0,.849,4.129,3.571,3.571,0,0,0,1.15,1.143,3.508,3.508,0,0,0,.2,1.59,5.735,5.735,0,0,0,2.866,3.112,17.421,17.421,0,0,0,6.511,1.852,29.652,29.652,0,0,0,6.731-.287,35.427,35.427,0,0,0,5.213-1.259c1.309-.41,2.1-.722,2.1-.722s-1.7-.846-3.969-1.872A65.754,65.754,0,0,0,204.136,420.894Z" transform="translate(-189.958 -221.166)" fill="url(#linear-gradient)"/>
            <path id="路径_15845" data-name="路径 15845" d="M224.318,412.332a62.09,62.09,0,0,0-7.947-1.373,18.385,18.385,0,0,0-9.024,1.157,10.317,10.317,0,0,0-1.7.923,9.9,9.9,0,0,0,1.223-1.491,13.1,13.1,0,0,0,1.9-8.545,33.172,33.172,0,0,0-1.827-7.5c-.394-1.109-.775-2.061-1.059-2.734l-.485-1.091-.706,1.552a42.372,42.372,0,0,0-1.48,4.044,33.307,33.307,0,0,0-1.406,5.587,20.665,20.665,0,0,0-.257,6.307,6.37,6.37,0,0,0,1.665,3.878,3.525,3.525,0,0,0,1.353.885,3.56,3.56,0,0,0,.523,1.519,5.717,5.717,0,0,0,3.429,2.47,17.414,17.414,0,0,0,6.761.507,30.9,30.9,0,0,0,6.541-1.642,40.227,40.227,0,0,0,4.851-2.29c.6-.331,1.081-.612,1.409-.811l.488-.331-1.2-.3Z" transform="translate(-183.433 -225.796)" fill="url(#linear-gradient)"/>
            <path id="路径_15846" data-name="路径 15846" d="M226.55,398.509a22.392,22.392,0,0,0-5.246,1.21,16.986,16.986,0,0,0-3.346,1.75,10.246,10.246,0,0,0-1.488,1.238,9.881,9.881,0,0,0,.905-1.7,10.246,10.246,0,0,0,.778-3.636,15.049,15.049,0,0,0-.65-5.125,33.493,33.493,0,0,0-3.28-6.971c-1.215-2.013-2.305-3.453-2.305-3.453s-.143.636-.355,1.679a36.3,36.3,0,0,0-.654,4.254,35.072,35.072,0,0,0-.256,5.755,21.469,21.469,0,0,0,1.02,6.229,6.4,6.4,0,0,0,2.423,3.47,3.426,3.426,0,0,0,1.491.582,3.647,3.647,0,0,0,.83,1.394,5.691,5.691,0,0,0,3.85,1.717,16.954,16.954,0,0,0,6.725-.863,29.922,29.922,0,0,0,6.075-2.922,45,45,0,0,0,4.3-3.206,19.423,19.423,0,0,0,1.6-1.514s-1.847-.08-4.345-.13A59.943,59.943,0,0,0,226.55,398.509Z" transform="translate(-178.193 -231.406)" fill="url(#linear-gradient)"/>
            <path id="路径_15847" data-name="路径 15847" d="M234.493,384.081a24.37,24.37,0,0,0-4.884,2.241,14.116,14.116,0,0,0-2.913,2.392,10.226,10.226,0,0,0-1.223,1.5,9.938,9.938,0,0,0,.562-1.838,11.773,11.773,0,0,0,.017-3.727,14.26,14.26,0,0,0-1.674-4.9,32.024,32.024,0,0,0-4.6-6.171c-1.626-1.745-2.952-2.925-2.952-2.925s-.038.642-.011,1.718.013,2.553.2,4.3c.328,3.454,1.029,7.87,3.154,11.6a6.36,6.36,0,0,0,3.06,2.908,3.45,3.45,0,0,0,1.582.273,3.613,3.613,0,0,0,1.089,1.2,5.727,5.727,0,0,0,4.124.917c4.44-.435,8.733-3.332,11.772-6.271a36.4,36.4,0,0,0,3.586-4c.811-1.092,1.265-1.8,1.265-1.8s-1.857.279-4.281.742A65,65,0,0,0,234.493,384.081Z" transform="translate(-174.67 -237.763)" fill="url(#linear-gradient)"/>
            <path id="路径_15848" data-name="路径 15848" d="M239.848,368.268a18.287,18.287,0,0,0-6.721,6.1,16.543,16.543,0,0,0-.877,1.723,7.281,7.281,0,0,0,.162-1.919,13.135,13.135,0,0,0-3.338-8.12,30.757,30.757,0,0,0-5.747-5.129c-1.93-1.381-3.459-2.271-3.459-2.271s.083.634.314,1.682c.257,1.053.581,2.508,1.062,4.168.25.832.548,1.717.9,2.63.317.906.683,1.835,1.117,2.768a23.414,23.414,0,0,0,3.4,5.337,6.316,6.316,0,0,0,3.569,2.235,3.5,3.5,0,0,0,1.609-.047,3.572,3.572,0,0,0,1.3.953,5.771,5.771,0,0,0,4.236.078,15.97,15.97,0,0,0,5.832-3.434,27.974,27.974,0,0,0,2.454-2.443c.722-.863,1.387-1.751,1.988-2.621a30.222,30.222,0,0,0,2.707-4.633c.589-1.232.9-2.02.9-2.02s-1.77.645-4.065,1.58A72.242,72.242,0,0,0,239.848,368.268Z" transform="translate(-172.929 -244.6)" fill="url(#linear-gradient)"/>
            <path id="路径_15849" data-name="路径 15849" d="M241.944,352.328a20.865,20.865,0,0,0-3.584,3.98,13.679,13.679,0,0,0-1.794,3.341,12.465,12.465,0,0,0-.49,1.866,8.456,8.456,0,0,0-.251-1.915,12.023,12.023,0,0,0-1.392-3.434,16,16,0,0,0-3.492-3.848,30.9,30.9,0,0,0-6.67-3.864c-2.159-.965-3.829-1.529-3.829-1.529s.2.6.631,1.583,1.116,2.337,1.888,3.865c1.678,3.044,4,6.825,7.468,9.424a6.27,6.27,0,0,0,3.933,1.474,3.5,3.5,0,0,0,1.572-.367,3.544,3.544,0,0,0,1.461.673,5.793,5.793,0,0,0,4.176-.772c3.865-2.142,6.729-6.489,8.35-10.394a31.047,31.047,0,0,0,1.712-5.088c.337-1.326.486-2.161.486-2.161s-1.61.989-3.678,2.37A71.155,71.155,0,0,0,241.944,352.328Z" transform="translate(-172.601 -252.277)" fill="url(#linear-gradient)"/>
            <path id="路径_15850" data-name="路径 15850" d="M240.659,337.964a20.621,20.621,0,0,0-2.723,4.626,15.227,15.227,0,0,0-1.075,3.633,10.164,10.164,0,0,0-.108,1.927,9.931,9.931,0,0,0-.628-1.825,10.9,10.9,0,0,0-2.064-3.079,16.056,16.056,0,0,0-4.179-3.066,31.528,31.528,0,0,0-7.321-2.437c-2.305-.51-4.052-.725-4.052-.725s.32.552.931,1.427c.587.879,1.572,2.062,2.638,3.4A38.153,38.153,0,0,0,226.065,346a20.874,20.874,0,0,0,5.237,3.562,6.262,6.262,0,0,0,4.145.65,3.561,3.561,0,0,0,1.47-.678,3.505,3.505,0,0,0,1.561.364,5.821,5.821,0,0,0,3.941-1.6,17.315,17.315,0,0,0,3.991-5.457,28.229,28.229,0,0,0,2.079-6.414,33.027,33.027,0,0,0,.64-5.326c.069-1.368.05-2.216.05-2.216s-1.381,1.295-3.134,3.065A68.238,68.238,0,0,0,240.659,337.964Z" transform="translate(-173.702 -261.541)" fill="url(#linear-gradient)"/>
            <path id="路径_15851" data-name="路径 15851" d="M240.112,317.129a70.172,70.172,0,0,0-4.054,6.94,20.572,20.572,0,0,0-1.742,5.075,15.671,15.671,0,0,0-.323,3.774,10.125,10.125,0,0,0,.279,1.911,9.938,9.938,0,0,0-.979-1.663,10.748,10.748,0,0,0-2.641-2.6,16.1,16.1,0,0,0-4.711-2.17,31.34,31.34,0,0,0-7.691-.918c-2.373-.036-4.137.1-4.137.1s.43.475,1.218,1.207c.756.745,2,1.692,3.3,2.8a37.7,37.7,0,0,0,4.749,3.283,20.8,20.8,0,0,0,5.841,2.442,6.3,6.3,0,0,0,4.2-.2,3.555,3.555,0,0,0,1.3-.959,3.523,3.523,0,0,0,1.6.041,5.771,5.771,0,0,0,3.526-2.356,17.362,17.362,0,0,0,2.82-6.146,28.566,28.566,0,0,0,.753-6.687,30.325,30.325,0,0,0-.46-5.323c-.217-1.346-.411-2.167-.411-2.167S241.465,315.051,240.112,317.129Z" transform="translate(-176.205 -270.296)" fill="url(#linear-gradient)"/>
            <path id="路径_15852" data-name="路径 15852" d="M228.061,320.317a10.237,10.237,0,0,0,.625,1.833,9.893,9.893,0,0,0-1.262-1.452c-1.409-1.452-4.16-2.872-8.168-3.2a24.722,24.722,0,0,0-3.829.045c-1.325.118-2.674.344-3.839.563-2.341.45-4.047.948-4.047.948s.523.372,1.448.92l1.67.942c.611.373,1.3.771,2.067,1.171a33.4,33.4,0,0,0,5.345,2.235,20.161,20.161,0,0,0,6.144,1.271,6.362,6.362,0,0,0,4.094-1.04,3.439,3.439,0,0,0,1.073-1.193,3.612,3.612,0,0,0,1.593-.284,5.712,5.712,0,0,0,2.971-3,17.737,17.737,0,0,0,1.61-6.624,31.192,31.192,0,0,0-.643-6.684c-.2-1.04-.439-2.023-.676-2.908-.262-.868-.556-1.62-.8-2.257-.494-1.271-.857-2.034-.857-2.034s-.75,1.722-1.648,4.021c-.455,1.155-.921,2.434-1.392,3.754a40.611,40.611,0,0,0-1.237,3.9A18.829,18.829,0,0,0,228.061,320.317Z" transform="translate(-179.947 -278.234)" fill="url(#linear-gradient)"/>
            <path id="路径_15853" data-name="路径 15853" d="M210.151,307.923a30.155,30.155,0,0,0-7.373,2.133c-2.206.918-3.781,1.753-3.781,1.753s.59.256,1.612.6c1.055.312,2.4.873,4.076,1.328a42.57,42.57,0,0,0,5.668,1.122,20.49,20.49,0,0,0,6.3-.024,6.41,6.41,0,0,0,3.809-1.852,3.408,3.408,0,0,0,.808-1.379,3.673,3.673,0,0,0,1.507-.6,5.67,5.67,0,0,0,2.3-3.529,17.527,17.527,0,0,0,.209-6.789,26.73,26.73,0,0,0-1.965-6.431,29.2,29.2,0,0,0-2.476-4.775c-.744-1.139-1.255-1.809-1.255-1.809s-.384,1.835-.794,4.262a74.682,74.682,0,0,0-1.042,8.038,20.4,20.4,0,0,0,.422,5.326,16.193,16.193,0,0,0,1.168,3.614,10.114,10.114,0,0,0,.995,1.659,9.936,9.936,0,0,0-1.541-1.157,10.484,10.484,0,0,0-3.432-1.372A16.322,16.322,0,0,0,210.151,307.923Z" transform="translate(-184.811 -285.012)" fill="url(#linear-gradient)"/>
            <path id="路径_15854" data-name="路径 15854" d="M200.745,295.615c5.907,5.744,10.937,4.352,10.937,4.352s1.321-2.356-1.193-5.5c-5.436-6.794-16.988-8.495-16.988-8.495S197.241,292.21,200.745,295.615Z" transform="translate(-187.94 -285.975)" fill="url(#linear-gradient)"/>
          </g>
          <path id="路径_15855" data-name="路径 15855" d="M182.75,495.9a14.822,14.822,0,0,1,8.1-12.271,112.26,112.26,0,0,0,32.11-184.118c-1.15-1.091-3.967-3.584-5.158-4.622" transform="translate(-182.75 -280.899)" fill="none" stroke="#af9c4e" stroke-miterlimit="10" stroke-width="1"/>
        </g>
        <g id="组_126" data-name="组 126">
          <g id="组_125" data-name="组 125">
            <path id="路径_15856" data-name="路径 15856" d="M101.514,420.894a18.468,18.468,0,0,1,9.068-.683,10.085,10.085,0,0,1,1.847.565,10.1,10.1,0,0,1-1.5-1.218,13.041,13.041,0,0,1-3.584-7.993,32.143,32.143,0,0,1,.27-7.713c.325-2.335.73-4.046.73-4.046s.408.49,1.015,1.365c.618.86,1.4,2.174,2.269,3.661a35.429,35.429,0,0,1,2.508,5.191,20.7,20.7,0,0,1,1.521,6.138,6.358,6.358,0,0,1-.849,4.129,3.571,3.571,0,0,1-1.15,1.143,3.508,3.508,0,0,1-.2,1.59,5.735,5.735,0,0,1-2.866,3.112,17.421,17.421,0,0,1-6.513,1.852,29.66,29.66,0,0,1-6.731-.287,35.528,35.528,0,0,1-5.213-1.259c-1.307-.41-2.1-.722-2.1-.722s1.7-.846,3.969-1.872A65.753,65.753,0,0,1,101.514,420.894Z" transform="translate(-36.172 -221.166)" fill="url(#linear-gradient)"/>
            <path id="路径_15857" data-name="路径 15857" d="M81.876,412.332a62.043,62.043,0,0,1,7.947-1.373,18.385,18.385,0,0,1,9.024,1.157,10.318,10.318,0,0,1,1.7.923,9.9,9.9,0,0,1-1.223-1.491,13.1,13.1,0,0,1-1.9-8.545,33.09,33.09,0,0,1,1.827-7.5c.392-1.109.775-2.061,1.059-2.734l.485-1.091.706,1.552a42.378,42.378,0,0,1,1.48,4.044,33.458,33.458,0,0,1,1.406,5.587,20.665,20.665,0,0,1,.257,6.307,6.37,6.37,0,0,1-1.665,3.878,3.525,3.525,0,0,1-1.353.885,3.56,3.56,0,0,1-.523,1.519,5.717,5.717,0,0,1-3.429,2.47,17.414,17.414,0,0,1-6.761.507,30.9,30.9,0,0,1-6.541-1.642,40.225,40.225,0,0,1-4.851-2.29c-.6-.331-1.081-.612-1.409-.811l-.488-.331,1.2-.3Z" transform="translate(-43.241 -225.796)" fill="url(#linear-gradient)"/>
            <path id="路径_15858" data-name="路径 15858" d="M80.078,398.509a22.387,22.387,0,0,1,5.248,1.21,16.987,16.987,0,0,1,3.346,1.75,10.249,10.249,0,0,1,1.488,1.238,9.881,9.881,0,0,1-.906-1.7,10.247,10.247,0,0,1-.778-3.636,15.083,15.083,0,0,1,.648-5.125,33.578,33.578,0,0,1,3.281-6.971c1.215-2.013,2.305-3.453,2.305-3.453s.143.636.355,1.679a36.3,36.3,0,0,1,.654,4.254,35.065,35.065,0,0,1,.256,5.755,21.469,21.469,0,0,1-1.02,6.229,6.407,6.407,0,0,1-2.423,3.47,3.427,3.427,0,0,1-1.491.582,3.647,3.647,0,0,1-.83,1.394,5.691,5.691,0,0,1-3.85,1.717,16.958,16.958,0,0,1-6.725-.863,29.922,29.922,0,0,1-6.075-2.922,45,45,0,0,1-4.3-3.206,19.649,19.649,0,0,1-1.6-1.514s1.849-.08,4.347-.13A59.912,59.912,0,0,1,80.078,398.509Z" transform="translate(-48.916 -231.406)" fill="url(#linear-gradient)"/>
            <path id="路径_15859" data-name="路径 15859" d="M72.676,384.081a24.37,24.37,0,0,1,4.884,2.241,14.061,14.061,0,0,1,2.911,2.392,10.148,10.148,0,0,1,1.224,1.5,9.941,9.941,0,0,1-.562-1.838,11.774,11.774,0,0,1-.017-3.727,14.26,14.26,0,0,1,1.674-4.9,32.025,32.025,0,0,1,4.6-6.171c1.626-1.745,2.952-2.925,2.952-2.925s.038.642.011,1.718-.013,2.553-.2,4.3c-.328,3.454-1.029,7.87-3.154,11.6a6.366,6.366,0,0,1-3.06,2.908,3.452,3.452,0,0,1-1.582.273,3.613,3.613,0,0,1-1.089,1.2,5.727,5.727,0,0,1-4.124.917c-4.44-.435-8.733-3.332-11.772-6.271a36.242,36.242,0,0,1-3.586-4c-.813-1.092-1.265-1.8-1.265-1.8s1.857.279,4.281.742A65.071,65.071,0,0,1,72.676,384.081Z" transform="translate(-52.979 -237.763)" fill="url(#linear-gradient)"/>
            <path id="路径_15860" data-name="路径 15860" d="M67.881,368.268a18.287,18.287,0,0,1,6.721,6.1,16.539,16.539,0,0,1,.877,1.723,7.281,7.281,0,0,1-.162-1.919,13.126,13.126,0,0,1,3.338-8.12,30.756,30.756,0,0,1,5.747-5.129c1.93-1.381,3.459-2.271,3.459-2.271s-.083.634-.315,1.682c-.256,1.053-.581,2.508-1.061,4.168-.25.832-.548,1.717-.9,2.63-.317.906-.683,1.835-1.117,2.768a23.414,23.414,0,0,1-3.4,5.337,6.316,6.316,0,0,1-3.569,2.235,3.5,3.5,0,0,1-1.61-.047,3.574,3.574,0,0,1-1.3.953,5.771,5.771,0,0,1-4.236.078,15.97,15.97,0,0,1-5.832-3.434,27.971,27.971,0,0,1-2.454-2.443c-.722-.863-1.387-1.751-1.988-2.621a30.222,30.222,0,0,1-2.707-4.633c-.589-1.232-.9-2.02-.9-2.02s1.77.645,4.066,1.58A72.243,72.243,0,0,1,67.881,368.268Z" transform="translate(-55.28 -244.6)" fill="url(#linear-gradient)"/>
            <path id="路径_15861" data-name="路径 15861" d="M65.891,352.328a20.864,20.864,0,0,1,3.584,3.98,13.678,13.678,0,0,1,1.794,3.341,12.46,12.46,0,0,1,.49,1.866,8.536,8.536,0,0,1,.25-1.915,12.08,12.08,0,0,1,1.394-3.434,16.019,16.019,0,0,1,3.49-3.848,30.952,30.952,0,0,1,6.671-3.864c2.159-.965,3.829-1.529,3.829-1.529s-.2.6-.631,1.583-1.116,2.337-1.888,3.865c-1.678,3.044-4,6.825-7.468,9.424a6.272,6.272,0,0,1-3.933,1.474,3.5,3.5,0,0,1-1.572-.367,3.544,3.544,0,0,1-1.461.673,5.793,5.793,0,0,1-4.176-.772c-3.865-2.142-6.729-6.489-8.352-10.394a31.169,31.169,0,0,1-1.711-5.088c-.337-1.326-.486-2.161-.486-2.161s1.61.989,3.679,2.37A71.157,71.157,0,0,1,65.891,352.328Z" transform="translate(-55.714 -252.277)" fill="url(#linear-gradient)"/>
            <path id="路径_15862" data-name="路径 15862" d="M66.812,337.964a20.621,20.621,0,0,1,2.723,4.626,15.375,15.375,0,0,1,1.075,3.633,10.168,10.168,0,0,1,.108,1.927,10.028,10.028,0,0,1,.626-1.825,10.971,10.971,0,0,1,2.064-3.079,16.066,16.066,0,0,1,4.181-3.066,31.5,31.5,0,0,1,7.321-2.437c2.305-.51,4.05-.725,4.05-.725s-.319.552-.931,1.427c-.585.879-1.571,2.062-2.636,3.4A38.3,38.3,0,0,1,81.406,346a20.855,20.855,0,0,1-5.238,3.562,6.256,6.256,0,0,1-4.143.65,3.548,3.548,0,0,1-1.47-.678,3.505,3.505,0,0,1-1.561.364,5.821,5.821,0,0,1-3.941-1.6,17.316,17.316,0,0,1-3.991-5.457,28.229,28.229,0,0,1-2.079-6.414,32.853,32.853,0,0,1-.64-5.326c-.069-1.368-.05-2.216-.05-2.216s1.381,1.295,3.134,3.065A68.236,68.236,0,0,1,66.812,337.964Z" transform="translate(-54.248 -261.541)" fill="url(#linear-gradient)"/>
            <path id="路径_15863" data-name="路径 15863" d="M66.867,317.129a70.175,70.175,0,0,1,4.054,6.94,20.572,20.572,0,0,1,1.742,5.075,15.672,15.672,0,0,1,.323,3.774,10.125,10.125,0,0,1-.279,1.911,9.938,9.938,0,0,1,.979-1.663,10.748,10.748,0,0,1,2.641-2.6,16.11,16.11,0,0,1,4.71-2.17,31.362,31.362,0,0,1,7.693-.918c2.373-.036,4.137.1,4.137.1s-.43.475-1.218,1.207c-.756.745-2,1.692-3.3,2.8a37.7,37.7,0,0,1-4.749,3.283,20.8,20.8,0,0,1-5.841,2.442,6.3,6.3,0,0,1-4.2-.2,3.555,3.555,0,0,1-1.3-.959,3.523,3.523,0,0,1-1.6.041,5.771,5.771,0,0,1-3.526-2.356,17.361,17.361,0,0,1-2.82-6.146,28.566,28.566,0,0,1-.753-6.687,30.324,30.324,0,0,1,.46-5.323c.217-1.346.411-2.167.411-2.167S65.515,315.051,66.867,317.129Z" transform="translate(-51.254 -270.296)" fill="url(#linear-gradient)"/>
            <path id="路径_15864" data-name="路径 15864" d="M78.449,320.317a10.225,10.225,0,0,1-.626,1.833,10.085,10.085,0,0,1,1.262-1.452c1.411-1.452,4.162-2.872,8.17-3.2a24.724,24.724,0,0,1,3.829.045c1.325.118,2.674.344,3.839.563,2.341.45,4.047.948,4.047.948s-.523.372-1.449.92l-1.67.942c-.61.373-1.3.771-2.068,1.171a33.317,33.317,0,0,1-5.344,2.235,20.161,20.161,0,0,1-6.144,1.271,6.362,6.362,0,0,1-4.094-1.04,3.439,3.439,0,0,1-1.073-1.193,3.612,3.612,0,0,1-1.593-.284,5.712,5.712,0,0,1-2.971-3,17.738,17.738,0,0,1-1.61-6.624,31.3,31.3,0,0,1,.642-6.684c.206-1.04.441-2.023.678-2.908.262-.868.556-1.62.8-2.257.494-1.271.857-2.034.857-2.034s.75,1.722,1.648,4.021c.455,1.155.921,2.434,1.392,3.754s.927,2.671,1.237,3.9A18.809,18.809,0,0,1,78.449,320.317Z" transform="translate(-47.042 -278.234)" fill="url(#linear-gradient)"/>
            <path id="路径_15865" data-name="路径 15865" d="M95.811,307.923a30.155,30.155,0,0,1,7.373,2.133c2.206.918,3.781,1.753,3.781,1.753s-.59.256-1.612.6c-1.055.312-2.4.873-4.076,1.328a42.57,42.57,0,0,1-5.668,1.122,20.49,20.49,0,0,1-6.3-.024,6.41,6.41,0,0,1-3.809-1.852,3.408,3.408,0,0,1-.808-1.379,3.674,3.674,0,0,1-1.507-.6,5.67,5.67,0,0,1-2.3-3.529,17.527,17.527,0,0,1-.209-6.789,26.73,26.73,0,0,1,1.965-6.431,29.2,29.2,0,0,1,2.476-4.775c.744-1.139,1.255-1.809,1.255-1.809s.384,1.835.794,4.262a74.682,74.682,0,0,1,1.042,8.038,20.4,20.4,0,0,1-.422,5.326,16.277,16.277,0,0,1-1.168,3.614,10.118,10.118,0,0,1-.995,1.659,9.86,9.86,0,0,1,1.541-1.157,10.484,10.484,0,0,1,3.432-1.372A16.322,16.322,0,0,1,95.811,307.923Z" transform="translate(-41.631 -285.012)" fill="url(#linear-gradient)"/>
            <path id="路径_15866" data-name="路径 15866" d="M102.32,295.615c-5.907,5.744-10.937,4.352-10.937,4.352s-1.323-2.356,1.193-5.5c5.436-6.794,16.988-8.495,16.988-8.495S105.824,292.21,102.32,295.615Z" transform="translate(-35.604 -285.975)" fill="url(#linear-gradient)"/>
          </g>
          <path id="路径_15867" data-name="路径 15867" d="M140.868,495.9a14.822,14.822,0,0,0-8.1-12.271,112.26,112.26,0,0,1-32.11-184.118c1.15-1.091,3.967-3.584,5.158-4.622" transform="translate(-50.037 -280.899)" fill="none" stroke="#767a0d" stroke-miterlimit="10" stroke-width="1"/>
        </g>
      </g>
    </g>
  </g>
</svg>
